<?xml version="1.0" encoding="UTF-8"?>
<svg width="42px" height="67px" viewBox="0 0 42 67" version="1.1" xmlns="http://www.w3.org/2000/svg" xmlns:xlink="http://www.w3.org/1999/xlink">
    <!-- Generator: Sketch 43.1 (39012) - http://www.bohemiancoding.com/sketch -->
    <title>1st-place</title>
    <desc>Created with Sketch.</desc>
    <defs></defs>
    <g id="Page-1" stroke="none" stroke-width="1" fill="none" fill-rule="evenodd">
        <path d="M34.66,35.29 L41.82,61.37 C41.9159792,61.7253177 41.8090206,62.1046379 41.5415575,62.3574741 C41.2740944,62.6103103 40.8893643,62.6957895 40.54,62.58 L32.87,60 L28.39,65.83 C28.1990686,66.078042 27.903008,66.2223716 27.59,66.22 L27.4,66.22 C27.0273999,66.1457573 26.7290543,65.8667847 26.63,65.5 L22.58,50.66 L19.94,64.86 C19.8725649,65.2223739 19.6112533,65.5182708 19.26,65.63 C19.1605689,65.6450853 19.0594311,65.6450853 18.96,65.63 C18.6990724,65.6315675 18.4478666,65.5310851 18.26,65.35 L12.45,59.71 L5.87,63.09 C5.54325279,63.2525913 5.15387778,63.2242617 4.85410625,63.016087 C4.55433472,62.8079123 4.39178192,62.4529587 4.43,62.09 L8.43,37 C8.11400846,36.6613662 7.89621435,36.2430632 7.8,35.79 C7.75183026,35.539964 7.54366364,35.3522058 7.29,35.33 C5.96198211,35.1960258 4.95325926,34.0747416 4.96,32.74 C4.96261737,32.4884939 4.80007712,32.265001 4.56,32.19 C3.2932699,31.7872185 2.5370877,30.4909062 2.81,29.19 C2.86863537,28.9409588 2.75414704,28.6833601 2.53,28.56 C1.36614226,27.898708 0.897958404,26.4594761 1.45,25.24 C1.55754441,25.0103863 1.50048953,24.7373379 1.31,24.57 C0.312192715,23.6797119 0.156204675,22.1761605 0.95,21.1 C1.10502066,20.8961211 1.10502066,20.6138789 0.95,20.41 C0.156204675,19.3338395 0.312192715,17.8302881 1.31,16.94 C1.49751894,16.7709423 1.55413374,16.5 1.45,16.27 C0.897958404,15.0505239 1.36614226,13.611292 2.53,12.95 C2.74994936,12.8277887 2.86374406,12.5758148 2.81,12.33 C2.53608381,11.0319532 3.28727549,9.73679516 4.55,9.33 C4.79007712,9.25499896 4.95261737,9.03150612 4.95,8.78 C4.94375262,7.44178545 5.95801824,6.31915811 7.29,6.19 C7.54366364,6.16779416 7.75183026,5.98003603 7.8,5.73 C8.07053016,4.42158626 9.29194788,3.53367621 10.62,3.68 C10.8701928,3.70950264 11.110079,3.57126312 11.21,3.34 C11.7428502,2.10970596 13.1292294,1.49257164 14.4,1.92 C14.6392806,1.99854157 14.9019033,1.91369425 15.05,1.71 C15.8280489,0.62326885 17.3052424,0.307036806 18.46,0.98 C18.6770629,1.11025428 18.9540251,1.08174346 19.14,0.91 C20.1268642,0.00381574354 21.6431358,0.00381574354 22.63,0.91 C22.8173721,1.07862223 23.0922051,1.10691386 23.31,0.98 C24.4647576,0.307036806 25.9419511,0.62326885 26.72,1.71 C26.866085,1.91645036 27.1307383,2.00195375 27.37,1.92 C28.6405259,1.49765861 30.0235336,2.11329214 30.56,3.34 C30.659921,3.57126312 30.8998072,3.70950264 31.15,3.68 C32.4780521,3.53367621 33.6994698,4.42158626 33.97,5.73 C34.0181697,5.98003603 34.2263364,6.16779416 34.48,6.19 C35.8080179,6.32397419 36.8167407,7.44525839 36.81,8.78 C36.8073826,9.03150612 36.9699229,9.25499896 37.21,9.33 C38.4727245,9.73679516 39.2239162,11.0319532 38.95,12.33 C38.8948538,12.5787025 39.0084424,12.8342769 39.23,12.96 C40.3938577,13.621292 40.8620416,15.0605239 40.31,16.28 C40.2058663,16.51 40.2624811,16.7809423 40.45,16.95 C41.4478073,17.8402881 41.6037953,19.3438395 40.81,20.42 C40.6599909,20.6218475 40.6599909,20.8981525 40.81,21.1 C41.6013403,22.17864 41.4409892,23.6824729 40.44,24.57 C40.2495105,24.7373379 40.1924556,25.0103863 40.3,25.24 C40.8520416,26.4594761 40.3838577,27.898708 39.22,28.56 C39.0000506,28.6822113 38.8862559,28.9341852 38.94,29.18 C39.2139162,30.4780468 38.4627245,31.7732048 37.2,32.18 C36.9618955,32.2577318 36.8005884,32.4795292 36.8,32.73 C36.8086989,33.9918445 35.9033936,35.0748266 34.66,35.29 Z M18.29,62.7 L22.36,40.79 C21.3730685,41.5150982 20.0108224,41.4396507 19.11,40.61 C18.9240251,40.4382565 18.6470629,40.4097457 18.43,40.54 C17.2752424,41.2129632 15.7980489,40.8967312 15.02,39.81 C14.873915,39.6035496 14.6092617,39.5180462 14.37,39.6 C13.0994741,40.0223414 11.7164664,39.4067079 11.18,38.18 C11.080079,37.9487369 10.8401928,37.8104974 10.59,37.84 L10.33,37.84 L6.68,60.5 L12.14,57.69 C12.5202843,57.4951516 12.9823561,57.5634578 13.29,57.86 L18.29,62.7 Z M32.83,58.83 L39.4,61 L33.13,38.2 C32.5838608,38.6859221 31.8560383,38.9151862 31.13,38.83 C30.8798072,38.8004974 30.639921,38.9387369 30.54,39.17 C30.0071498,40.400294 28.6207706,41.0174284 27.35,40.59 C27.1107383,40.5080462 26.846085,40.5935496 26.7,40.8 C26.1657339,41.5408772 25.2795479,41.9440347 24.37,41.86 L23.37,47.34 C23.432027,47.4284686 23.4793065,47.5264049 23.51,47.63 L28,64 L31.71,59.17 C31.9710863,58.827196 32.4224055,58.6901884 32.83,58.83 Z M7.45,33.29 L7.45,33.33 C8.58725912,33.4292682 9.52135871,34.2695499 9.74,35.39 C9.79576786,35.6855203 10.0715327,35.8868724 10.37,35.85 C11.4983537,35.724879 12.5766715,36.3491683 13.03,37.39 C13.1492197,37.6633204 13.4562616,37.8017055 13.74,37.71 C14.8162716,37.3394579 16.0077903,37.7271096 16.66,38.66 C16.8349649,38.9001108 17.1630776,38.9691871 17.42,38.82 C17.8197767,38.5838497 18.2756853,38.459511 18.74,38.46 C19.3849502,38.4593918 20.0063648,38.7022434 20.48,39.14 C20.7011796,39.340931 21.0388204,39.340931 21.26,39.14 C22.0949869,38.3639329 23.3425195,38.233472 24.32,38.82 C24.5760944,38.9742125 24.9078189,38.9043758 25.08,38.66 C25.7404391,37.7382856 26.9236504,37.3533367 28,37.71 C28.2837384,37.8017055 28.5907803,37.6633204 28.71,37.39 C29.1658509,36.3514216 30.2423444,35.7281885 31.37,35.85 C31.6684673,35.8868724 31.9442321,35.6855203 32,35.39 C32.2175779,34.27285 33.1465745,33.4334934 34.28,33.33 C34.5766897,33.2991467 34.8015999,33.0482854 34.8,32.75 C34.791121,31.6126006 35.5253613,30.6025131 36.61,30.26 C36.8920845,30.1691075 37.0602699,29.8801735 37,29.59 C36.7378317,28.4838775 37.2394957,27.3377996 38.23,26.78 C38.4880896,26.6315071 38.5918097,26.3117035 38.47,26.04 C37.9942675,25.0087431 38.2548352,23.7873322 39.11,23.04 C39.3291171,22.8412863 39.363587,22.5095142 39.19,22.27 C38.5181531,21.3569382 38.5181531,20.1130618 39.19,19.2 C39.3684479,18.9618091 39.3336022,18.6264195 39.11,18.43 C38.2637423,17.6774583 38.0045252,16.462378 38.47,15.43 C38.5918097,15.1582965 38.4880896,14.8384929 38.23,14.69 C37.2421191,14.1288748 36.7352558,12.989446 36.98,11.88 C37.0452694,11.5890341 36.8752425,11.2969366 36.59,11.21 C35.4992877,10.8759607 34.7611866,9.860562 34.78,8.72 C34.786417,8.4199083 34.5590093,8.16626125 34.26,8.14 C33.1227409,8.04073184 32.1886413,7.20045012 31.97,6.08 C31.9057792,5.78991126 31.6358678,5.5928331 31.34,5.62 C30.2123444,5.74181147 29.1358509,5.11857842 28.68,4.08 C28.5607803,3.80667962 28.2537384,3.66829452 27.97,3.76 C26.8826518,4.10635746 25.6967385,3.7002228 25.05,2.76 C24.8750351,2.51988921 24.5469224,2.45081285 24.29,2.6 C23.3125195,3.18652799 22.0649869,3.05606708 21.23,2.28 C21.0088204,2.07906901 20.6711796,2.07906901 20.45,2.28 C19.6150131,3.05606708 18.3674805,3.18652799 17.39,2.6 C17.1330776,2.45081285 16.8049649,2.51988921 16.63,2.76 C15.9832615,3.7002228 14.7973482,4.10635746 13.71,3.76 C13.4259975,3.66316101 13.1155485,3.80308168 13,4.08 C12.5360957,5.09749301 11.4715436,5.70235218 10.36,5.58 C10.0615327,5.54312758 9.78576786,5.74447969 9.73,6.04 C9.5124221,7.15714996 8.58342546,7.99650657 7.45,8.1 C7.15331028,8.13085326 6.92840007,8.38171464 6.93,8.68 C6.93887902,9.81739944 6.2046387,10.8274869 5.12,11.17 C4.8347575,11.2569366 4.66473062,11.5490341 4.73,11.84 C4.97474422,12.949446 4.46788086,14.0888748 3.48,14.65 C3.22191035,14.7984929 3.11819027,15.1182965 3.24,15.39 C3.70547483,16.422378 3.44625771,17.6374583 2.6,18.39 C2.38088287,18.5887137 2.34641304,18.9204858 2.52,19.16 C3.20501279,20.0686975 3.20501279,21.3213025 2.52,22.23 C2.34641304,22.4695142 2.38088287,22.8012863 2.6,23 C3.45516479,23.7473322 3.71573245,24.9687431 3.24,26 C3.11819027,26.2717035 3.22191035,26.5915071 3.48,26.74 C4.47556898,27.2941255 4.98509105,28.4395311 4.73,29.55 C4.66973007,29.8401735 4.83791553,30.1291075 5.12,30.22 C6.20664437,30.5597234 6.94215142,31.5715536 6.93,32.71 C6.92358301,33.0100917 7.15099071,33.2637387 7.45,33.29 Z M20.82,34.44 L20.82,34.44 C13.7627277,34.453196 7.84834665,29.106777 7.15138557,22.0839918 C6.45442449,15.0612066 11.202601,8.65660516 18.1248067,7.28243824 C25.0470124,5.90827132 31.8815597,10.0135196 33.92,16.77 C34.063473,17.2908862 33.76726,17.8315453 33.2510434,17.9910049 C32.7348268,18.1504645 32.1852947,17.8710565 32.01,17.36 C30.5341195,12.5048771 26.0990668,9.15283846 21.0254671,9.05782611 C15.9518674,8.96281376 11.3944223,12.1464516 9.73779841,16.9429127 C8.08117454,21.7393738 9.70240328,27.0570305 13.7531826,30.1134383 C17.8039619,33.1698461 23.362374,33.2693964 27.52,30.36 C27.8129578,30.1545723 28.1932563,30.1210403 28.5176408,30.2720354 C28.8420254,30.4230304 29.0612141,30.7356126 29.0926409,31.0920354 C29.1240676,31.4484581 28.9629578,31.7945723 28.67,32 C26.3670919,33.6024241 23.6255188,34.4545818 20.82,34.44 Z M32.94,24.71 C33.4368351,24.9255402 33.6717957,25.4974254 33.47,26 C33.2155669,26.6038673 32.9181367,27.188702 32.58,27.75 C32.4312264,28.1109297 32.0860177,28.3522843 31.6959484,28.3680897 C31.3058791,28.3838951 30.9422751,28.1712612 30.7647878,27.8235513 C30.5873005,27.4758415 30.6283843,27.0566361 30.87,26.75 C31.1587121,26.2687261 31.4126912,25.7674515 31.63,25.25 C31.731696,25.0043335 31.9270399,24.8092807 32.1728578,24.7079512 C32.4186756,24.6066217 32.6947269,24.607359 32.94,24.71 Z" id="1st-place" fill="#5BCEE0" fill-rule="nonzero"></path>
    </g>
</svg>