<?xml version="1.0" encoding="utf-8"?>
<!-- Generator: Adobe Illustrator 21.0.2, SVG Export Plug-In . SVG Version: 6.00 Build 0)  -->
<svg version="1.1" xmlns="http://www.w3.org/2000/svg" xmlns:xlink="http://www.w3.org/1999/xlink" x="0px" y="0px"
	 viewBox="0 0 569.8 152" style="enable-background:new 0 0 569.8 152;" xml:space="preserve">
<style type="text/css">
	.st0{fill:#1F1F1F;}
	.st1{fill:none;stroke:#5BCEE0;stroke-width:2;stroke-miterlimit:10;}
	.st2{fill:#B0BEC5;stroke:#37474F;stroke-width:3;stroke-linecap:round;stroke-linejoin:round;stroke-miterlimit:10;}
	.st3{fill:#FFAB00;stroke:#37474F;stroke-width:3;stroke-linecap:round;stroke-miterlimit:10;}
	.st4{fill:#FFFFFF;stroke:#37474F;stroke-width:3;stroke-miterlimit:10;}
	.st5{fill:none;stroke:#37474F;stroke-width:3;stroke-linecap:round;stroke-linejoin:round;stroke-miterlimit:10;}
	.st6{fill:#37474F;stroke:#37474F;stroke-miterlimit:10;}
	.st7{fill:#78909C;stroke:#37474F;stroke-width:3;stroke-miterlimit:10;}
	.st8{fill:#FFAB00;stroke:#37474F;stroke-width:3;stroke-linejoin:round;stroke-miterlimit:10;}
	.st9{fill:#FFFFFF;stroke:#37474F;stroke-width:3;stroke-linecap:round;stroke-linejoin:round;stroke-miterlimit:10;}
	.st10{fill:none;}
	.st11{fill:#5BCEE0;}
	.st12{fill:#FFECB3;stroke:#37474F;stroke-width:4;stroke-linecap:round;stroke-miterlimit:10;}
	.st13{fill:#FFECB3;}
	.st14{fill:#37474F;}
	.st15{fill:#FFFFFF;}
	.st16{fill:#FFAB00;}
	.st17{fill:none;stroke:#5BCEE0;stroke-miterlimit:10;}
	.st18{fill:none;stroke:#5BCEE0;stroke-width:3;stroke-miterlimit:10;}
	.st19{fill:none;stroke:#DD5BB5;stroke-width:2;stroke-miterlimit:10;}
	.st20{fill:none;stroke:#1F1F1F;stroke-miterlimit:10;}
</style>
<g id="Layer_1">
	<g>
		<path class="st1" d="M1,129c0.2-0.5,0.3-1.1,0.5-1.5c0.9-6.8,4.6-11.7,10.8-14.6c3.6-1.8,7.6-2.7,11.7-3.2
			c3.2-0.5,6.5-0.5,9.7-0.5c2.1,0,4.4,0,6.5,0c0.2-0.2,0.2-0.2,0.2-0.3c0.2-2.1,0.2-4.4-0.3-6.5c-0.9-4.1-3.3-6.2-7.6-6.8
			c-1.5-0.2-3.2-0.2-4.7,0.2c-3.6,0.9-5.8,3.2-6.7,6.8c-0.2,0.5-0.2,0.8-0.3,1.4c-5.8,0-11.5,0-17.4,0c-0.2-0.9,0.2-1.8,0.3-2.7
			c1.7-8.2,6.5-13.5,14.1-16.5c4.6-1.8,9.3-2.3,14.1-2.3c4.2,0,8.3,0.5,12.3,1.8c2.4,0.8,4.7,2,6.8,3.6c4.2,3.3,6.5,7.6,7.3,12.7
			c0.3,1.8,0.5,3.6,0.5,5.6c0,13.8,0,27.8,0,41.6c0,0.5,0,0.9,0,1.5c-6.1,0-12,0-17.9,0c0-2.4,0-4.7,0-7.1c-0.3,0.3-0.5,0.5-0.6,0.6
			c-3.3,4.4-7.9,6.8-13.3,7.7c-1.2,0.2-2.4,0.3-3.6,0.5c-0.2,0-0.5,0-0.6,0c-0.5,0-0.9-0.2-1.4-0.2c-2.1-0.2-4.1-0.5-6.1-0.9
			c-7.6-2.3-12.3-7.1-13.3-15.2c0-0.5-0.3-0.9-0.5-1.4C1,131.7,1,130.4,1,129z M40.3,121.3c-0.9,0-1.7,0-2.4,0
			c-3,0.2-6.2,0.2-9.3,0.3c-2,0.2-3.9,0.6-5.8,1.7c-1.8,1.1-3,2.6-3.3,4.7c-0.2,0.9-0.2,2-0.2,2.9c0.2,3.3,2,5.8,5.3,6.5
			c3.5,0.9,7,0.6,10.3-1.1c2.9-1.5,4.9-3.9,5.2-7.3C40.3,126.6,40.3,124,40.3,121.3z"/>
		<path class="st1" d="M236.2,150.8c-0.8,0-1.4-0.2-2.1-0.2c-4.4-0.3-8.8-1.2-12.9-3c-7.4-3.5-12.1-9.4-14.6-17.1
			c-1.1-3.3-1.5-6.7-1.7-10.2c-0.3-5.3,0-10.6,1.5-15.8c1.8-6.2,5-11.7,10.2-15.8c4.2-3.3,9.1-5.3,14.4-5.9
			c5.6-0.8,11.1-0.5,16.5,1.4c9.6,3.2,15.2,9.9,17.4,19.6c0.8,3,0.9,6.2,1.1,9.4c0,2.3,0,4.6,0,7c0,0.3,0,0.6-0.2,1.1
			c-14.1,0-28.2,0-42.5,0c0.2,0.9,0.2,1.7,0.2,2.3c0.3,2,0.6,3.9,1.4,5.8c2,5,5.6,7.7,10.9,8c1.8,0.2,3.6,0,5.5-0.6
			c3.5-1.1,5.9-3.3,7.1-6.7c0.2-0.3,0.3-0.8,0.5-1.1c0,0,0,0,0.2-0.2c5.5,0,11.1,0,16.7,0c0,0.5-0.2,0.9-0.2,1.2
			c-2,9.1-7.4,15-16.1,18.4c-3.3,1.4-7,2-10.5,2.1c-0.6,0-1.2,0.2-1.8,0.2C237,150.8,236.5,150.8,236.2,150.8z M223.8,108.8
			c1.5,0.3,23.7,0.2,24.4-0.2c-0.2-2.9-0.6-5.8-2-8.3c-1.4-2.6-3.5-4.2-6.4-4.9c-0.8-0.2-1.5-0.3-2.3-0.3c-3.3-0.3-6.5,0.3-9.1,2.7
			C225.5,100.9,224.4,104.9,223.8,108.8z"/>
		<path class="st1" d="M539.1,150.8c-0.8,0-1.5-0.2-2.3-0.2c-4.2-0.3-8.3-1.1-12.3-2.9c-7.6-3.5-12.4-9.3-15-17.1
			c-2-5.9-2.1-12.1-1.7-18.4c0.3-4.4,1.2-8.6,3-12.6c4.4-9.6,11.8-15.2,22.1-16.8c5.2-0.9,10.3-0.6,15.3,0.6
			c10.3,2.7,16.7,9.3,19.3,19.4c0.6,2.3,0.9,4.6,1.1,7c0,0.3,0.2,0.8,0.2,1.1c0,3.3,0,6.7,0,10c-0.5,0-1.1,0-1.5,0
			c-13.2,0-26.2,0-39.4,0c-0.5,0-0.9,0-1.7,0c0.2,1.2,0.2,2.1,0.3,3.2c0.5,2.7,1.1,5.3,2.4,7.6s3.3,3.9,5.9,4.9
			c2.6,0.8,5.2,0.9,7.7,0.5c4.4-0.8,7.4-3.2,8.8-7.4c0.2-0.3,0.2-0.6,0.3-0.8c1.7-0.3,15.9-0.2,16.7,0.2c0,0.3,0,0.6,0,1.1
			c0,0.3-0.2,0.5-0.2,0.8c-1.8,7.6-6.4,13.2-13.3,16.7c-4.1,2-8.3,2.9-12.7,3.2c-0.8,0-1.5,0.2-2.3,0.2
			C539.7,150.8,539.4,150.8,539.1,150.8z M550.9,109c-0.2-3-0.6-5.9-2-8.5c-1.4-2.4-3.5-4.1-6.2-4.7c-0.8-0.2-1.5-0.3-2.3-0.5
			c-5.2-0.5-9.4,1.5-11.8,6.4c-1.1,2.1-1.7,4.2-2,6.5c0,0.2,0,0.5,0,0.6C534.9,109,542.9,109,550.9,109z"/>
		<path class="st1" d="M413.1,150.8c-0.5,0-0.9-0.2-1.4-0.2c-2-0.2-3.9-0.5-5.8-1.1c-6.4-2.1-10-6.7-11.8-13
			c-0.8-2.6-1.1-5.2-1.1-7.9c0-14.6,0-29.1,0-43.5c0-0.3,0-0.8,0-1.2c6.2,0,12.3,0,18.4,0c0,0.5,0,0.9,0,1.4c0,13.2,0,26.4,0,39.6
			c0,1.7,0,3.3,0.5,5c0.9,3.8,3.5,6.1,7.4,6.4c1.7,0.2,3.3,0.2,5-0.3c4.4-1.2,7-4.1,7.7-8.5c0.2-1.1,0.3-2.1,0.3-3.3
			c0-12.9,0-25.9,0-38.8c0-0.5,0-0.9,0-1.4c0.9-0.3,16.5-0.3,18.2-0.2c0,21.7,0,43.5,0,65.2c-0.8,0.3-16.4,0.3-18.2,0.2
			c0-1.5,0-3,0-4.4c0-1.5,0-2.9-0.2-4.4c-0.2,0.3-0.3,0.6-0.5,0.8c-3.2,5.3-8,8.3-14.1,9.3c-0.9,0.2-1.8,0.2-2.9,0.3
			c-0.3,0-0.6,0.2-1.1,0.2C413.5,150.8,413.4,150.8,413.1,150.8z"/>
		<path class="st1" d="M99.6,150.8c-0.8,0-1.4-0.2-2.1-0.2c-4.6-0.3-8.9-1.2-13-3.3c-7.1-3.6-11.5-9.6-13.8-17
			c-1.7-5.3-2-10.9-1.7-16.5c0.3-4.2,0.9-8.5,2.6-12.4c4.2-10.3,12-16.4,22.9-18.2c5.9-1.1,11.8-0.6,17.6,1.4
			c8.8,3,14.1,9.3,16.2,18.2c0.3,1.2,0.5,2.6,0.6,3.8c0,0.2,0,0.5,0,0.8c-5.8,0-11.7,0-17.4,0c-0.2-0.5-0.3-1.1-0.5-1.5
			c-0.3-1.1-0.6-2-1.1-3c-2-4.4-5.8-6.2-10.5-5.9c-4.6,0.5-7.6,2.7-9.6,6.8c-1.4,2.6-2,5.5-2.1,8.3c-0.3,4.4-0.3,8.6,0.5,13
			c0.3,1.8,0.8,3.6,1.7,5.3c2.3,5,6.7,7.3,12.1,6.8c5-0.5,8.2-3.5,9.9-8c0.5-1.2,0.8-2.4,1.1-3.6c5.5,0,10.9,0,16.5,0
			c0.2,1.1-0.2,2-0.3,2.9c-1.1,6.1-3.5,11.4-8,15.5c-3.6,3.3-7.9,5.3-12.7,6.2c-2.1,0.5-4.4,0.5-6.5,0.8c-0.3,0-0.6,0.2-1.1,0.2
			C100.2,150.8,99.9,150.8,99.6,150.8z"/>
		<path class="st1" d="M167.7,150.8c-0.8,0-1.4-0.2-2.1-0.2c-4.9-0.3-9.6-1.4-13.8-3.8c-6.5-3.5-10.6-8.9-12.9-15.9
			c-1.2-3.6-1.8-7.3-2-11.1c-0.3-5.3,0-10.5,1.5-15.5c2.1-7.4,6.2-13.5,13-17.6c4.1-2.4,8.5-3.8,13.2-4.2c5.3-0.5,10.6-0.2,15.6,1.7
			c8.6,3,14,9.3,16.1,18.2c0.3,1.2,0.5,2.4,0.6,3.6c0,0.3,0,0.5,0,0.8c-5.8,0-11.5,0-17.4,0c-0.2-0.5-0.3-0.9-0.5-1.4
			c-0.3-1.1-0.6-2-1.1-3c-2-4.4-5.6-6.4-10.5-5.9c-4.4,0.3-7.6,2.6-9.6,6.5c-1.4,2.7-2.1,5.6-2.3,8.6c-0.3,4.4-0.3,8.6,0.5,13
			c0.3,1.8,0.9,3.6,1.7,5.5c2.4,5,6.7,7.1,12,6.7c4.7-0.5,7.9-3.2,9.7-7.4c0.6-1.4,0.9-2.7,1.4-4.2c5.5,0,10.9,0,16.5,0
			c-0.2,1.1-0.2,2-0.3,2.9c-1.1,6.2-3.6,11.7-8.5,15.9c-3.9,3.3-8.5,5.3-13.5,6.2c-1.8,0.3-3.5,0.3-5.3,0.6c-0.3,0-0.6,0.2-1.1,0.2
			C168.3,150.8,168,150.8,167.7,150.8z"/>
		<path class="st1" d="M332.2,1c0.5,0.2,0.8,0.5,1.2,0.6c17.7,7.1,35.6,14.4,53.4,21.5c1.2,0.5,1.1,0.3,1.1,1.7c0,3.9,0,7.7,0,11.7
			c0,0.3,0,0.8,0,1.2c-18.7,7.6-37.3,15-56,22.6c0-5.9,0-11.7,0-17.4c10.8-3.9,21.5-8,32.3-12c0-0.2,0-0.2,0-0.3
			c-10.8-4.2-21.5-8.3-32.3-12.6c0-5.6,0-11.4,0-17C332.1,1,332.2,1,332.2,1z"/>
		<path class="st1" d="M277.3,84c6.1,0,12.1,0,18.2,0c0,3,0,6.1,0,9.1h0.2c0.2-0.3,0.5-0.6,0.6-0.9c3.5-5.5,8.6-8.3,14.9-9.4
			c3.2-0.5,6.4-0.5,9.6,0.3c6.2,1.4,10.3,5.2,12.4,11.1c1.2,3.5,1.8,7,1.8,10.6c0,14.4,0,29,0,43.4c0,0.3,0,0.6,0,1.1
			c-6.1,0-12.1,0-18.2,0c0-0.5,0-0.9,0-1.4c0-13,0-26.2,0-39.3c0-1.4-0.2-2.6-0.3-3.9c-0.6-4.2-3-6.5-7.3-7.1
			c-2-0.3-3.9-0.2-5.9,0.3c-4.1,1.2-6.5,4.1-7.4,8.2c-0.3,1.2-0.3,2.4-0.3,3.8c0,12.7,0,25.3,0,38.1c0,0.5,0,0.9,0,1.4
			c-0.9,0.3-16.8,0.3-18.2,0.2C277.3,127.5,277.3,105.8,277.3,84z"/>
		<path class="st1" d="M350.9,97.5c-2.6,0-5,0-7.6,0c0-4.6,0-8.9,0-13.7c2.4,0,5,0,7.4,0c0-4.1,0-8.2,0-12.3
			c6.1-2.4,12.1-5,18.4-7.4c0.3,0.5,0.2,0.9,0.2,1.4c0,5.6,0,11.2,0,17c0,0.5,0,0.9,0,1.5c4.2,0,8.2,0,12.3,0
			c0.3,0.9,0.3,11.8,0.2,13.7c-4.1,0-8.2,0-12.4,0c0,0.6,0,0.9,0,1.4c0,9.9,0,19.7,0,29.6c0,0.9,0.2,2,0.3,2.9
			c0.6,2.7,2.4,4.2,5.3,4.4c2.3,0.2,4.4,0,6.7-0.8c0.2,0,0.3-0.2,0.6-0.2c0,4.7,0,9.4,0,14.3c-0.6,0.2-1.2,0.3-2,0.5
			c-5.6,1.2-11.2,1.4-16.7-0.2c-4.2-1.1-7.6-3.2-9.9-7.1c-1.5-2.6-2.3-5.3-2.4-8.2c-0.2-1.5-0.2-3.2-0.2-4.7c0-10,0-20.2,0-30.2
			C350.9,98.5,350.9,98.1,350.9,97.5z"/>
		<path class="st1" d="M482.5,95.3c3.8-8.3,10.2-12.4,19.4-12.3c0,6.1,0,12,0,17.9c-0.5,0-1.1,0.2-1.5,0.2c-2.9,0-5.8,0.3-8.5,1.2
			c-0.8,0.3-1.7,0.6-2.4,0.9c-3.9,1.8-6.2,5-6.8,9.3c-0.2,1.4-0.3,2.7-0.3,4.1c0,10.5,0,20.9,0,31.4c0,0.5,0,0.9,0,1.4
			c-6.1,0-12.1,0-18.2,0c0-21.8,0-43.5,0-65.4c6.1,0,12.1,0,18.2,0c0,3.8,0,7.6,0,11.2C482.4,95.2,482.5,95.2,482.5,95.3z"/>
	</g>
</g>
<g id="Layer_2_1_">
</g>
</svg>
