<svg id="Layer_1" data-name="Layer 1" xmlns="http://www.w3.org/2000/svg" viewBox="0 0 563.66 150"><defs><style>.cls-1{fill:#5bcee0;}</style></defs><title>icons</title><path class="cls-1" d="M22.07,150a4.91,4.91,0,0,1-.8-.09,3.4,3.4,0,0,0-.55-.07,39.33,39.33,0,0,1-6.17-.92C6.43,146.5,1.81,141.24.76,133.28a1.89,1.89,0,0,0-.21-.69,5.47,5.47,0,0,1-.21-.52A23.14,23.14,0,0,1,0,127.48l0-.24c.07-.22.15-.48.22-.73s.15-.54.23-.77a18.23,18.23,0,0,1,11.06-14.86,34.63,34.63,0,0,1,11.79-3.22,69.08,69.08,0,0,1,9.69-.45h5.89a21.93,21.93,0,0,0-.32-5.85c-.82-3.7-2.94-5.61-6.88-6.17a15.25,15.25,0,0,0-4.4.14,7.72,7.72,0,0,0-6,6.2,4,4,0,0,0-.15.64c0,.2-.08.42-.15.71l-.14.57H2.37l-.1-.63a6.11,6.11,0,0,1,.17-2.3c0-.22.09-.43.13-.65C4.23,91.69,8.95,86.15,17,82.94a38,38,0,0,1,14.24-2.31,37.08,37.08,0,0,1,12.41,1.84,21.86,21.86,0,0,1,7,3.72A19.51,19.51,0,0,1,58.1,99.29a34.21,34.21,0,0,1,.46,5.67v43.39H39.34v-5.82a20.89,20.89,0,0,1-12.94,7l-3.63.45Zm-1.28-1.65a4.76,4.76,0,0,1,.73.08,3.45,3.45,0,0,0,.55.06h.6l3.51-.44a19.09,19.09,0,0,0,12.71-7.37l2-2v8.12H57.06V105a32.65,32.65,0,0,0-.44-5.43,18.08,18.08,0,0,0-6.93-12.15,20.43,20.43,0,0,0-6.52-3.48,35.67,35.67,0,0,0-11.94-1.77c-5.66,0-9.88.68-13.69,2.2-7.54,3-12,8.19-13.51,15.82,0,.21-.08.45-.13.68A8.86,8.86,0,0,0,3.72,102H19.66v0a5.35,5.35,0,0,1,.19-.8A9.18,9.18,0,0,1,27,93.87a16.81,16.81,0,0,1,4.91-.17c4.61.66,7.2,3,8.17,7.34a23.88,23.88,0,0,1,.32,6.67,1,1,0,0,1-.37.78l-.22.22H33a67.94,67.94,0,0,0-9.5.44,33.24,33.24,0,0,0-11.33,3.08A16.93,16.93,0,0,0,1.94,126.07l-.24.84c-.07.23-.13.47-.2.68a21.39,21.39,0,0,0,.29,4.1l.13.28a2.93,2.93,0,0,1,.33,1.2c1,7.32,5.12,12,12.68,14.3a38.05,38.05,0,0,0,5.84.87Zm18.1-40.69v0ZM28,137a15.74,15.74,0,0,1-4-.53,7.19,7.19,0,0,1-5.82-7.15,18.74,18.74,0,0,1,.16-3A7,7,0,0,1,22,121.12a13.8,13.8,0,0,1,6-1.75c1.53-.08,3.07-.11,4.62-.15s3.06-.07,4.56-.15h3.19v.75c0,2.71,0,5.28-.15,7.7a9.61,9.61,0,0,1-5.5,7.82A15,15,0,0,1,28,137Zm9.27-16.42c-1.47.07-3,.11-4.56.15s-3.06.07-4.56.15a12.32,12.32,0,0,0-5.37,1.55,5.5,5.5,0,0,0-2.94,4.11,17.59,17.59,0,0,0-.14,2.75A5.7,5.7,0,0,0,24.34,135,13.49,13.49,0,0,0,34,134a8.24,8.24,0,0,0,4.69-6.6c.13-2.14.15-4.43.15-6.84Z"/><path class="cls-1" d="M233.63,149.85a9.87,9.87,0,0,1-1.13-.08,8.5,8.5,0,0,0-1-.07,38.55,38.55,0,0,1-13.07-3.07c-7.29-3.42-12.27-9.28-14.83-17.43A38.66,38.66,0,0,1,202,119a46.29,46.29,0,0,1,1.53-15.86,30.94,30.94,0,0,1,10.31-16,28.61,28.61,0,0,1,14.65-6,36.26,36.26,0,0,1,16.69,1.38c9.43,3.14,15.4,9.84,17.76,19.91a48.47,48.47,0,0,1,1.07,9.45v6.94a3.69,3.69,0,0,1-.19,1.29l-.17.51H221.87c0,.58,0,1.07,0,1.5a23.47,23.47,0,0,0,1.29,5.42c1.85,4.7,5.27,7.22,10.16,7.5a12.54,12.54,0,0,0,5.12-.56,9.62,9.62,0,0,0,6.59-6.15c.1-.21.17-.38.23-.55s.17-.41.25-.58l.29-.35.22-.22h17.58v.75a4.68,4.68,0,0,1-.1.86,2.21,2.21,0,0,0-.05.35l0,.16c-2,9.1-7.33,15.22-16.38,18.71a31.63,31.63,0,0,1-10.6,2.15,6.69,6.69,0,0,0-.84.07c-.28,0-.56.07-.84.08A3.54,3.54,0,0,1,233.63,149.85Zm-2-1.65a9.76,9.76,0,0,1,1.06.08,8.5,8.5,0,0,0,1,.07,2.35,2.35,0,0,0,.71-.07l.16-.08h.18a6.55,6.55,0,0,0,.81-.07,8.11,8.11,0,0,1,1-.08,30.12,30.12,0,0,0,10.08-2c8.54-3.29,13.59-9,15.45-17.57a3.18,3.18,0,0,1,0-.36H246.8l-.08.2c-.08.21-.17.41-.25.58a11.12,11.12,0,0,1-7.51,7,14,14,0,0,1-5.69.63c-5.51-.31-9.37-3.15-11.45-8.43a25,25,0,0,1-1.4-5.87,14,14,0,0,0-.15-2.24l-.15-.87h42.32c0-.1,0-.19,0-.3v-6.91a47.36,47.36,0,0,0-1-9.13c-2.27-9.67-7.75-15.83-16.78-18.84a34.85,34.85,0,0,0-16-1.32,27.16,27.16,0,0,0-13.9,5.7,29.48,29.48,0,0,0-9.8,15.24,44.88,44.88,0,0,0-1.47,15.36,37.19,37.19,0,0,0,1.62,9.87c2.43,7.73,7.14,13.29,14,16.52a37,37,0,0,0,12.49,2.93Zm0-39.8c-5.2,0-9.95-.06-10.42-.16l-.7-.14.11-.71c.57-3.72,1.6-8,4.87-11.23,2.48-2.33,5.63-3.28,9.61-2.92h0a12.07,12.07,0,0,1,2.31.31,9.69,9.69,0,0,1,6.82,5.19,20.7,20.7,0,0,1,2,8.57l0,.54-.5.2C245.14,108.31,238,108.4,231.6,108.4Zm-9.41-1.57c3.68.17,19.13.08,22.51-.13a17.69,17.69,0,0,0-1.82-7.24,8.25,8.25,0,0,0-5.8-4.42,11,11,0,0,0-2.1-.28c-3.62-.33-6.36.49-8.49,2.5C223.76,100,222.75,103.56,222.19,106.83Z"/><path class="cls-1" d="M534.23,149.85h-.75a12,12,0,0,1-1.2-.08c-.35,0-.7-.07-1.05-.07a34.86,34.86,0,0,1-12.48-2.92c-7.58-3.49-12.57-9.18-15.26-17.42-1.72-5.16-2.24-10.86-1.69-18.46a35.74,35.74,0,0,1,3.07-12.72c4.44-9.65,12-15.4,22.48-17.09a37.62,37.62,0,0,1,15.46.61c10.39,2.75,17,9.4,19.62,19.76a35.39,35.39,0,0,1,1.07,7,2.22,2.22,0,0,0,.06.42,3.71,3.71,0,0,1,.09.67v10.66H521.56c0,.27,0,.52.06.77,0,.51.07,1,.15,1.52a20.39,20.39,0,0,0,2.3,7.23,10.18,10.18,0,0,0,5.46,4.48,15.9,15.9,0,0,0,7.28.42,9.62,9.62,0,0,0,8.12-6.85,2,2,0,0,0,.13-.35,1.49,1.49,0,0,1,.36-.7l.17-.16.23,0c1.48-.27,15.9-.22,16.93.19l.47.19v1.56a1.84,1.84,0,0,1-.11.61l-.06.31a24.77,24.77,0,0,1-13.61,17,34.71,34.71,0,0,1-12.9,3.23c-.4,0-.75,0-1.1.07A12,12,0,0,1,534.23,149.85Zm-2.93-1.65c.34,0,.73,0,1.12.08s.7.07,1.05.07h.75c.35,0,.7,0,1.05-.07a12,12,0,0,1,1.2-.08,33.16,33.16,0,0,0,12.29-3.08,23.32,23.32,0,0,0,12.79-15.94,1.94,1.94,0,0,1,.11-.51l0-.54c-2.48-.18-12.77-.31-15.24-.1a1.48,1.48,0,0,1-.14.39c-1.37,4.3-4.5,6.94-9.25,7.76a17.4,17.4,0,0,1-8-.47,11.65,11.65,0,0,1-6.29-5.14,21.73,21.73,0,0,1-2.5-7.77c-.08-.58-.12-1.1-.16-1.64s-.07-1-.14-1.54l-.11-.84h42.29v-9.16a2.22,2.22,0,0,0-.06-.38,3.71,3.71,0,0,1-.09-.67,33.91,33.91,0,0,0-1-6.71c-2.49-9.8-8.72-16.09-18.54-18.69a36.1,36.1,0,0,0-14.84-.59c-10,1.61-17.15,7.08-21.37,16.24A34.24,34.24,0,0,0,503.3,111c-.54,7.39,0,12.91,1.61,17.88,2.56,7.82,7.29,13.22,14.47,16.52a33.35,33.35,0,0,0,11.9,2.79ZM546,108.41h-.79c-7.83,0-15.92,0-24-.15h-.74v-1.34a20.87,20.87,0,0,1,2-6.79c2.45-4.9,6.75-7.22,12.45-6.72l2.33.46a10,10,0,0,1,6.66,5,20.71,20.71,0,0,1,2,8.74Zm-24-1.64c7.57.13,15.12.14,22.45.14a17.86,17.86,0,0,0-1.82-7.31,8.49,8.49,0,0,0-5.66-4.27l-2.24-.45c-5-.44-8.74,1.61-10.89,5.91A19.27,19.27,0,0,0,521.95,106.77Z"/><path class="cls-1" d="M409.31,149.85h-.6a4.91,4.91,0,0,1-.8-.09,3.4,3.4,0,0,0-.55-.07,24.57,24.57,0,0,1-5.94-1.09c-6.22-2.07-10.21-6.46-12.2-13.42a28,28,0,0,1-1.08-8v-45h19.67v41.29a17.76,17.76,0,0,0,.42,4.76,7,7,0,0,0,6.69,5.75,13,13,0,0,0,4.7-.28,9.2,9.2,0,0,0,7.11-7.81,21.64,21.64,0,0,0,.29-3.18V82.34l.51-.17c1.12-.37,16.92-.31,18.32-.18l.68.06v65.76l-.47.19c-1.06.42-17.38.28-18.36.2l-.69-.06v-5c0-.69,0-1.33,0-2a19.48,19.48,0,0,1-13.69,8.27c-.48.08-1,.12-1.48.16s-.89.07-1.38.14a1.81,1.81,0,0,0-.36.05A3.49,3.49,0,0,1,409.31,149.85Zm-1.88-1.65a4.8,4.8,0,0,1,.73.08,3.45,3.45,0,0,0,.55.06h.6a2,2,0,0,0,.47-.07,2.55,2.55,0,0,1,.58-.08c.41-.07.9-.11,1.36-.14s.92-.07,1.37-.15a18.06,18.06,0,0,0,13.44-8.81l.11-.15a4,4,0,0,0,.31-.55l1.16-2.33.26,2.59a42.68,42.68,0,0,1,.16,4.43v3.64c3.15.1,13.88.08,16.52-.1V83.45c-3.1-.1-13.85-.07-16.52.1v39.13a23.09,23.09,0,0,1-.3,3.38,10.62,10.62,0,0,1-8.21,9.06,14.31,14.31,0,0,1-5.22.32,8.43,8.43,0,0,1-8-6.88,19.16,19.16,0,0,1-.47-5.13V83.63H389.64v43.54a26.62,26.62,0,0,0,1,7.6c1.84,6.45,5.52,10.51,11.23,12.41a23,23,0,0,0,5.53,1Z"/><path class="cls-1" d="M99.55,150l-.18,0a3.52,3.52,0,0,0-1-.13,9.82,9.82,0,0,1-1.13-.08,8.5,8.5,0,0,0-1-.07A33,33,0,0,1,83,146.31C76.11,142.8,71.38,137,69,129a46.11,46.11,0,0,1-1.68-16.63,39.65,39.65,0,0,1,2.61-12.56C74.16,89.46,82,83.25,93.12,81.39a35.18,35.18,0,0,1,17.78,1.38c8.78,3,14.35,9.27,16.55,18.56a29.67,29.67,0,0,1,.57,3.48l0,.36v1.59H109.52l-.17-.51c-.08-.23-.15-.5-.23-.77s-.15-.51-.22-.73a23.32,23.32,0,0,0-1-2.95c-1.71-3.83-5-5.71-9.62-5.4a10.26,10.26,0,0,0-8.83,6.33,19,19,0,0,0-2,8,51.92,51.92,0,0,0,.44,12.75,15.49,15.49,0,0,0,1.57,5c2.07,4.56,6.08,6.8,11.29,6.37,4.38-.4,7.45-2.91,9.12-7.47a31.8,31.8,0,0,0,1-3.53l.14-.57h17.6l.09.65a7,7,0,0,1-.18,2.47c0,.21-.09.41-.12.61-1.17,6.69-3.85,11.84-8.2,15.75a25.58,25.58,0,0,1-13,6.34,31.18,31.18,0,0,1-3.94.5c-.86.07-1.72.14-2.55.26a1.84,1.84,0,0,0-.36.05A3.48,3.48,0,0,1,99.55,150Zm-3.23-1.8a9.73,9.73,0,0,1,1.06.08,8.5,8.5,0,0,0,1,.07,4.84,4.84,0,0,1,1.28.15,2.35,2.35,0,0,0,.39-.07,2.57,2.57,0,0,1,.58-.08c.76-.12,1.64-.19,2.53-.26a30.27,30.27,0,0,0,3.77-.47,24.16,24.16,0,0,0,12.26-6c4.09-3.68,6.62-8.55,7.73-14.89,0-.22.08-.44.13-.66a8,8,0,0,0,.2-1.31H112.15a28.86,28.86,0,0,1-.93,3.12c-1.86,5.07-5.45,8-10.39,8.44-5.91.49-10.43-2.06-12.76-7.19a17.22,17.22,0,0,1-1.71-5.44,53.32,53.32,0,0,1-.46-13.09,20.48,20.48,0,0,1,2.19-8.56,11.78,11.78,0,0,1,10-7.15c5.3-.34,9.12,1.84,11.12,6.3a24.32,24.32,0,0,1,1.09,3.1c.07.21.15.49.23.77l.05.19h16l0-.27a28,28,0,0,0-.54-3.31c-2.08-8.76-7.32-14.64-15.58-17.49a33.69,33.69,0,0,0-17-1.32c-10.6,1.77-18,7.68-22.11,17.56a38.21,38.21,0,0,0-2.5,12.08,44.65,44.65,0,0,0,1.62,16.09c2.31,7.54,6.78,13.05,13.29,16.37A31.51,31.51,0,0,0,96.3,148.2Z"/><path class="cls-1" d="M166.82,150l-.24,0a2.19,2.19,0,0,0-.81-.11,9.87,9.87,0,0,1-1.13-.08,8.5,8.5,0,0,0-1-.07,31.6,31.6,0,0,1-14-3.85c-6.37-3.41-10.67-8.71-13.1-16.19a39.83,39.83,0,0,1-2-11.16,43.83,43.83,0,0,1,1.53-15.56C138.33,95,142.79,89,149.31,85.09a32.08,32.08,0,0,1,13.38-4.31,36.44,36.44,0,0,1,15.79,1.69c8.67,3,14.19,9.29,16.39,18.55a30.52,30.52,0,0,1,.62,3.68v1.59H176.94l-.62-1.87a23.25,23.25,0,0,0-1-2.94c-1.8-4-5-5.83-9.6-5.4a10.18,10.18,0,0,0-8.86,6,20.7,20.7,0,0,0-2.17,8.26,51.93,51.93,0,0,0,.44,12.75,23.9,23.9,0,0,0,1.61,5.24c2.16,4.45,6,6.58,11.1,6.15,4.17-.4,7.19-2.73,9-6.91a20.87,20.87,0,0,0,1-2.94c.11-.39.22-.78.34-1.19l.16-.53h17.79l-.12.86c-.07.49-.1.94-.14,1.37s-.08,1-.16,1.5c-1.16,6.83-4,12.13-8.65,16.21a28.9,28.9,0,0,1-13.72,6.33c-.94.16-1.84.24-2.7.31s-1.7.15-2.57.29a2,2,0,0,0-.38.06A3.49,3.49,0,0,1,166.82,150Zm-3.09-1.8a9.66,9.66,0,0,1,1.07.08,7.3,7.3,0,0,1,2.12.22,2.64,2.64,0,0,0,.37-.06,2.55,2.55,0,0,1,.58-.08c.81-.14,1.7-.22,2.56-.3s1.7-.15,2.57-.29a27.4,27.4,0,0,0,13-6c4.38-3.83,7-8.84,8.15-15.32.08-.45.11-.9.15-1.37,0-.2,0-.4.05-.61h-15l-.18.63a22.33,22.33,0,0,1-1,3.13c-2,4.64-5.53,7.35-10.22,7.8-5.78.5-10.14-1.94-12.61-7a25.58,25.58,0,0,1-1.72-5.61,53.33,53.33,0,0,1-.46-13.09,22.18,22.18,0,0,1,2.33-8.84,11.59,11.59,0,0,1,10.08-6.87c5.18-.49,9,1.69,11.1,6.3a24.28,24.28,0,0,1,1.09,3.1l.27.81h16a29.62,29.62,0,0,0-.58-3.42c-2.07-8.74-7.27-14.63-15.44-17.49a35,35,0,0,0-15.15-1.61,30.17,30.17,0,0,0-12.75,4.1c-6.27,3.76-10.39,9.32-12.57,17A42.45,42.45,0,0,0,136,118.43,38.43,38.43,0,0,0,138,129.19c2.31,7.1,6.37,12.11,12.4,15.34a30.12,30.12,0,0,0,13.36,3.67Z"/><path class="cls-1" d="M327.63,60.58V41.67l.49-.18c5.33-2,10.66-3.94,16-5.93q7.27-2.71,14.54-5.4-7.27-2.86-14.54-5.66-8-3.1-16-6.23l-.48-.19V0l1.29,0a3.68,3.68,0,0,1,.75.37,2.37,2.37,0,0,0,.45.23Q343.36,6,356.59,11.32T383,22l.2.07c1.15.42,1.34.7,1.33,1.88V37.59l-.47.19q-13.83,5.62-27.65,11.17T328.66,60.16Zm1.5-17.86V58.34q13.36-5.43,26.73-10.79,13.59-5.47,27.18-11V23.91c0-.11,0-.23,0-.32l-.35-.13-.22-.08q-13.2-5.3-26.44-10.67T329.6,2a2.69,2.69,0,0,1-.47-.21V17.06q7.76,3.06,15.51,6,8,3.1,16,6.23l.48.19v1.34l-.49.18C355.29,33,350,35,344.63,37Q336.88,39.86,329.13,42.72Z"/><path class="cls-1" d="M282.53,148.44c-4,0-7.87-.05-8.29-.1l-.67-.07V82.13h19.52v7.53c3.38-4.73,8.27-7.64,14.59-8.72a25.77,25.77,0,0,1,9.76.31,16.82,16.82,0,0,1,12.84,11.44,32.25,32.25,0,0,1,1.85,10.76V148.2H312.61v-41a29.73,29.73,0,0,0-.26-3.48l0-.34c-.54-3.79-2.63-5.83-6.57-6.4a14.63,14.63,0,0,0-5.58.29,9.43,9.43,0,0,0-6.79,7.54,14.6,14.6,0,0,0-.28,3.59V148l-.51.17A94.1,94.1,0,0,1,282.53,148.44Zm-7.46-1.56c3,.1,13.83.08,16.52-.1V108.41a16,16,0,0,1,.32-3.94,11,11,0,0,1,7.87-8.65A16.16,16.16,0,0,1,306,95.5c4.56.65,7.2,3.24,7.84,7.69l0,.36a31.47,31.47,0,0,1,.27,3.65V146.7h16.52V103.45a30.76,30.76,0,0,0-1.76-10.26,15.4,15.4,0,0,0-11.76-10.47,24.24,24.24,0,0,0-9.19-.29c-6.38,1.09-11,4-14.19,9a3.5,3.5,0,0,1-.33.5,2.36,2.36,0,0,0-.23.34l-.21.41h-1.21l-.15-.75V83.63H275.08Z"/><path class="cls-1" d="M367.81,149.59a31.15,31.15,0,0,1-8.4-1.12,15.43,15.43,0,0,1-10.21-7.41,18.11,18.11,0,0,1-2.5-8.44c-.15-1.5-.15-3.2-.15-4.69V98a5.9,5.9,0,0,1-.14-1.05h-7.52V82h7.36V70.06l.47-.19c2.49-1,5-2,7.47-3,3.49-1.43,7.09-2.91,10.7-4.32l.56-.22.34.5a2.14,2.14,0,0,1,.29,1.49c0,.09,0,.18,0,.28V82.13h12l.17.51c.38,1.13.32,12.19.18,13.81l-.06.69H366.07V127a18,18,0,0,0,.29,2.73,4.46,4.46,0,0,0,4.55,3.73,15.81,15.81,0,0,0,6.33-.71l.24,0a1,1,0,0,1,.6-.15h.75V148l-.57.14c-.61.15-1.22.31-2,.46A40,40,0,0,1,367.81,149.59ZM340.39,95.5h7.51v.75A7.24,7.24,0,0,0,348,97.9v30c0,1.46,0,3.12.15,4.58a16.73,16.73,0,0,0,2.3,7.8,13.85,13.85,0,0,0,9.29,6.71,33.14,33.14,0,0,0,16.18.14c.51-.1.95-.2,1.36-.3V134.32a17.34,17.34,0,0,1-6.51.66,6,6,0,0,1-5.94-4.94,19.34,19.34,0,0,1-.32-3V95.65h12.35c.11-2.7.07-9.9-.09-12H364.56V64.56c0-.1,0-.21,0-.32-3.31,1.3-6.62,2.66-9.82,4-2.34,1-4.68,1.92-7,2.86v12.4h-7.36Z"/><path class="cls-1" d="M478.08,148.35H458.56V82.13h19.52v9.21c4-6.85,10.29-10.24,18.63-10.11h.74v19.21h-.75a4.86,4.86,0,0,0-.64.07,6.33,6.33,0,0,1-.86.08,25.65,25.65,0,0,0-8.17,1.16l-1.18.44-1.18.44a10.55,10.55,0,0,0-6.29,8.57,36,36,0,0,0-.29,3.95Zm-18-1.5h16.52V115.16a37.31,37.31,0,0,1,.3-4.14,12.15,12.15,0,0,1,7.19-9.76c.42-.17.84-.32,1.26-.47l1.18-.44a27.1,27.1,0,0,1,8.69-1.25,4.88,4.88,0,0,0,.65-.07l.11,0V82.73c-8.42.08-14.24,3.92-17.78,11.72l-1.43,3.15V94.74h-.15V83.63H460.06Z"/></svg>