<?xml version="1.0" encoding="UTF-8"?>
<svg width="48px" height="38px" viewBox="0 0 48 38" version="1.1" xmlns="http://www.w3.org/2000/svg" xmlns:xlink="http://www.w3.org/1999/xlink">
    <!-- Generator: Sketch 43.1 (39012) - http://www.bohemiancoding.com/sketch -->
    <title>ads-bad</title>
    <desc>Created with Sketch.</desc>
    <defs></defs>
    <g id="Page-1" stroke="none" stroke-width="1" fill="none" fill-rule="evenodd">
        <path d="M40.3237304,28.9946289 L40.3237304,14.7988281 C40.3237304,13.7829 40.7481897,12.8643 41.4290669,12.2109375 L35.1479492,12.2109375 L35.1479492,28.9946289 C35.1479492,30.3650755 36.2192357,31.4904507 37.5682026,31.5771484 L37.7358399,31.5771484 C37.7587261,31.5771484 37.7812507,31.578682 37.8033166,31.5816521 C39.1990269,31.5457335 40.3237304,30.3988269 40.3237304,28.9946289 Z M41.3237304,28.9946289 C41.3237305,30.9731445 39.7143555,32.5825195 37.7358398,32.5825195 C37.6695635,32.5825195 37.6037014,32.5807136 37.5383001,32.5771484 L24.5976562,32.5771484 L24.5976562,35.0346679 C24.5976562,35.677246 25.1201171,36.199707 25.7626953,36.199707 L45.3344726,36.199707 C45.9770507,36.199707 46.4999999,35.6772461 46.4999999,35.0346679 L46.4999999,14.7988281 C46.4999999,13.3720703 45.3388671,12.2109375 43.9121093,12.2109375 C42.4848632,12.2109375 41.3237304,13.3720703 41.3237304,14.7988281 L41.3237304,28.9946288 Z M23.5976562,32.5771484 L18.9570312,32.5771484 L18.9570312,34.928711 C18.9570312,35.6357423 18.5561523,36.2573243 17.9106445,36.5498048 C17.671875,36.6582031 17.4208984,36.7114258 17.1733398,36.7114258 C16.7568359,36.7114258 16.3481445,36.5615235 16.0175781,36.272461 L8.65545239,30.7246094 L7.19802539,30.7246094 L8.7319337,34.9228516 C8.9404298,35.4941407 8.8569337,36.1323243 8.5083009,36.6303711 C8.1601563,37.1279297 7.5893555,37.425293 6.9819336,37.425293 C6.203125,37.425293 5.4995117,36.9335938 5.2314453,36.2016602 L3.23095079,30.7246094 L3.1303711,30.7246094 C1.6801758,30.7246094 0.5,29.5537109 0.5,28.1142578 L0.5,25.7573242 C0.5,24.3183594 1.6801758,23.1474609 3.1303711,23.1474609 L8.65540319,23.1474609 L13.0473633,19.8366031 L13.0473633,2.7421875 C13.0473633,1.546875 14.0195313,0.574707 15.2148438,0.574707 L32.9804688,0.574707 C34.1757813,0.574707 35.1479493,1.546875 35.1479493,2.7421875 L35.1479493,11.2109375 L43.9121093,11.2109375 C45.8906249,11.2109375 47.5,12.8203125 47.5,14.7988281 L47.5,35.034668 C47.5,36.2285156 46.5283203,37.199707 45.3344727,37.199707 L25.7626953,37.199707 C24.5688476,37.199707 23.5976562,36.2285156 23.5976562,35.0346679 L23.5976562,32.5771484 Z M35.2474474,31.5771484 C34.56996,30.9241274 34.1479492,30.0077762 34.1479492,28.9946289 L34.1479492,11.7109375 C34.1479492,11.7102859 34.1479504,11.7096346 34.1479529,11.7089836 C34.1479505,11.7083342 34.1479493,11.7076829 34.1479493,11.7070313 L34.1479493,2.7421875 C34.1479493,2.0874023 33.635254,1.574707 32.9804688,1.574707 L15.2148438,1.574707 C14.5600586,1.574707 14.0473633,2.0874023 14.0473633,2.7421875 L14.0473633,19.0827579 L16.0458984,17.5761719 C16.5458984,17.1376953 17.2724609,17.0327149 17.9111328,17.3217774 C18.5561523,17.6147462 18.9570312,18.2363282 18.9570312,18.9433594 L18.9570312,24.0837821 C20.74591,24.3221452 22.0859375,25.5129542 22.0859375,26.940918 C22.0859375,28.3688818 20.74591,29.5601033 18.9570312,29.7985331 L18.9570312,31.5771484 L35.2474474,31.5771484 Z M13.8214914,20.5042828 L9.322754,23.8964844 L9.322754,29.9755859 L9.3227539,29.9755859 L16.6474609,35.496582 C16.9082031,35.7231445 17.2143554,35.7670898 17.4975586,35.6396484 C17.7851563,35.508789 17.9570313,35.243164 17.9570313,34.9287109 L17.9570313,18.9433594 C17.9570313,18.6289063 17.7851563,18.3632813 17.4975586,18.2324219 C17.2158203,18.1040039 16.9077148,18.1499024 16.6757813,18.3520508 L13.8737684,20.4648642 C13.8572478,20.4791036 13.8397882,20.4922774 13.8214915,20.5042828 Z M3.1303711,24.1474609 C2.2314453,24.1474609 1.5,24.8696289 1.5,25.7573242 L1.5,28.1142578 C1.5,29.0024414 2.2314453,29.7246094 3.1303711,29.7246094 L8.3227539,29.7246094 L8.3227539,24.147461 L3.1303711,24.147461 L3.1303711,24.1474609 Z M4.2963867,30.7270508 L6.1708984,35.8583985 C6.3935547,36.4663087 7.3188476,36.5869141 7.6889648,36.057129 C7.8530273,35.822754 7.890625,35.5341798 7.7924804,35.2656251 L6.1342773,30.7270509 L4.2963867,30.7270509 L4.2963867,30.7270508 Z M18.9570313,25.0957031 L18.9570313,28.7866211 C20.1694336,28.5795898 21.0859376,27.815918 21.0859376,26.940918 C21.0859375,26.0664063 20.1694336,25.3027344 18.9570313,25.0957031 Z M31.0332031,6.8925781 L18.1914063,6.8925781 C17.9150391,6.8925781 17.6914063,6.6689453 17.6914063,6.3925781 C17.6914063,6.1162109 17.9150391,5.8925781 18.1914063,5.8925781 L31.0332032,5.8925781 C31.3095704,5.8925781 31.5332032,6.1162109 31.5332032,6.3925781 C31.5332032,6.6689453 31.3095703,6.8925781 31.0332031,6.8925781 Z M31.0332031,13.0683594 L18.1914063,13.0683594 C17.9150391,13.0683594 17.6914063,12.8447266 17.6914063,12.5683594 C17.6914063,12.2919922 17.9150391,12.0683594 18.1914063,12.0683594 L31.0332032,12.0683594 C31.3095704,12.0683594 31.5332032,12.2919922 31.5332032,12.5683594 C31.5332032,12.8447266 31.3095703,13.0683594 31.0332031,13.0683594 Z M31.0332031,19.2441406 L22.3085937,19.2441406 C22.0322265,19.2441406 21.8085937,19.0205078 21.8085937,18.7441406 C21.8085937,18.4677734 22.0322265,18.2441406 22.3085937,18.2441406 L31.0332031,18.2441406 C31.3095703,18.2441406 31.5332031,18.4677734 31.5332031,18.7441406 C31.5332031,19.0205078 31.3095703,19.2441406 31.0332031,19.2441406 Z M31.0332031,25.4204102 L24.3671875,25.4204102 C24.0908203,25.4204102 23.8671875,25.1967774 23.8671875,24.9204102 C23.8671875,24.644043 24.0908203,24.4204102 24.3671875,24.4204102 L31.0332031,24.4204102 C31.3095703,24.4204102 31.5332031,24.644043 31.5332031,24.9204102 C31.5332031,25.1967774 31.3095703,25.4204102 31.0332031,25.4204102 Z" id="ads-bad" fill="#5BCEE0" fill-rule="nonzero"></path>
    </g>
</svg>