<svg id="Layer_1" data-name="Layer 1" xmlns="http://www.w3.org/2000/svg" viewBox="0 0 493.18 150"><defs><style>.cls-1{fill:#5bcee0;}</style></defs><title>icons</title><path class="cls-1" d="M200.18,150A192.82,192.82,0,0,1,70.59,100.55c-1.83-1.65-1.74-3.66-.89-4.83s2.79-1.87,5-.58c37.77,22,83.4,34.08,128.5,34.08a256.65,256.65,0,0,0,98-20c3.15-1.34,5.93-.05,7.05,1.91.93,1.63,1,4.29-1.93,6.46h0C279.15,137.56,238.48,150,200.18,150ZM72.33,96.42a1.25,1.25,0,0,0-1,.47c-.36.49-.31,1.36.62,2.2A190.86,190.86,0,0,0,200.18,148c37.9,0,78.12-12.29,105-32.07,1.59-1.18,2.11-2.64,1.39-3.89S304,110.1,302,111a258.66,258.66,0,0,1-98.78,20.2c-45.44,0-91.43-12.2-129.49-34.35A2.71,2.71,0,0,0,72.33,96.42Z"/><path class="cls-1" d="M311.29,139.41a2.51,2.51,0,0,1-1.5-.46c-1-.73-1.24-2.08-.62-3.6,3-7.49,10.95-27.34,7.64-31.57h0c-3.27-4.2-24.34-1.7-32.26-.76-1.79.22-3-.35-3.48-1.51-.51-1.32.25-2.94,1.94-4.11,16.7-11.75,44.14-8.31,47.53-4.13,3.78,4.68-1.22,32.31-16.28,44.89A4.8,4.8,0,0,1,311.29,139.41Zm7.08-36.85c3.52,4.51-1.46,18.76-7.36,33.5-.29.71-.23,1.16-.05,1.29s1.08.1,2-.71c15.34-12.82,18.48-39.07,16-42.14S300.4,87.58,284.14,99c-1,.72-1.34,1.48-1.23,1.79s.49.37,1.24.28c15.78-1.87,30.73-3,34.21,1.48Z"/><path class="cls-1" d="M284.66,85.76A3.15,3.15,0,0,1,283,85.3a4.1,4.1,0,0,1-2-3.34V70.65a14.43,14.43,0,0,1,2-8.22L312,20.94H287.8a3.75,3.75,0,0,1-3.87-3.79V6a3.73,3.73,0,0,1,3.81-3.81h50A3.76,3.76,0,0,1,341.58,6v9.56c0,1.84-1.29,3.91-4,7.59L312.85,58.52h.05c10.56,0,19.64,2.1,27,6.27a6.06,6.06,0,0,1,3.15,5.11v12a4,4,0,0,1-1.92,3.31,3.2,3.2,0,0,1-3.2.1,56.3,56.3,0,0,0-51.87.08A3,3,0,0,1,284.66,85.76Zm3.08-81.61A1.78,1.78,0,0,0,285.9,6V17.15A1.78,1.78,0,0,0,287.8,19h28L284.72,63.54a12.5,12.5,0,0,0-1.66,7.11V82a2.13,2.13,0,0,0,1,1.65,1,1,0,0,0,1.1.05,58.3,58.3,0,0,1,53.72-.09,1.21,1.21,0,0,0,1.26,0,2.08,2.08,0,0,0,1-1.63V70A4,4,0,0,0,339,66.5c-7.53-4.24-17-6.27-28-6l-2,0L336,22c2-2.7,3.56-5,3.59-6.46V6a1.79,1.79,0,0,0-1.9-1.84Z"/><path class="cls-1" d="M184.08,87.78H168.9A3.9,3.9,0,0,1,165.17,84V42.62c0-.65,0-1.48,0-2.43.05-3.81.13-9.57-.43-12-.9-4.18-3.29-6-8-6A9.09,9.09,0,0,0,148.63,28c-1.37,3.45-1.35,9.27-1.34,13.51V84a3.87,3.87,0,0,1-3.91,3.81H128.19A3.9,3.9,0,0,1,124.46,84l0-41.35c0-.89,0-1.83,0-2.79.09-5.88.2-12.55-3-15.76a7.23,7.23,0,0,0-5.45-2,8,8,0,0,0-5.95,2.17c-3.59,3.6-3.58,11.23-3.57,17.37V84a3.87,3.87,0,0,1-3.92,3.81H87.43a3.86,3.86,0,0,1-3.7-3.5V6.18a3.86,3.86,0,0,1,3.92-3.79h14.18a3.86,3.86,0,0,1,3.74,3.52v6.28c4-7.6,10.49-11.44,19.31-11.44,9.1,0,15.25,4,19.7,13,3.9-8.19,11.61-13,21-13A22.53,22.53,0,0,1,184,9.69c4.31,5.88,4.18,13.77,4.06,21.39,0,1.23,0,2.45,0,3.65L188,84A3.87,3.87,0,0,1,184.08,87.78ZM101.78,4.37H87.65A1.86,1.86,0,0,0,85.7,6.18v78a1.88,1.88,0,0,0,1.8,1.6h15.13A1.89,1.89,0,0,0,104.58,84V41.63c0-6.5,0-14.59,4.15-18.76a10,10,0,0,1,7.34-2.75,9.22,9.22,0,0,1,6.85,2.56c3.74,3.8,3.63,10.91,3.53,17.18,0,.95,0,1.88,0,2.76l0,41.35a1.88,1.88,0,0,0,1.82,1.84h15.11A1.89,1.89,0,0,0,145.31,84V41.55c0-4.41,0-10.44,1.48-14.25a11.11,11.11,0,0,1,10-7c5.57,0,8.81,2.45,9.9,7.49.61,2.61.53,8.29.48,12.43,0,.94,0,1.76,0,2.4V84A1.91,1.91,0,0,0,169,85.81h15.11A1.89,1.89,0,0,0,186,84l0-49.24c0-1.21,0-2.44,0-3.68.12-7.3.25-14.85-3.68-20.2a21.46,21.46,0,0,0-36.87,5.69l-.86,2.29-1-2.24c-4.22-9.72-9.85-13.86-18.83-13.86-9.23,0-15.65,4.65-19.09,13.81l-.24.64h-1.95V6A1.87,1.87,0,0,0,101.78,4.37Z"/><path class="cls-1" d="M383.62,89.4c-21.05,0-35.2-17.88-35.2-44.5,0-26.41,14.15-44.16,35.2-44.16,21.72,0,35.75,17.66,35.75,45C419.37,71.45,404.67,89.4,383.62,89.4Zm0-86.68c-20.18,0-33.23,16.56-33.23,42.18,0,25.83,13,42.53,33.23,42.53,19.89,0,33.78-17.14,33.78-41.69C417.4,19.61,404.14,2.72,383.62,2.72Zm0,70.6c-5.6,0-9.39-4-11.27-11.9-1.5-6.29-1.5-13.71-1.5-18.63v-.35c0-7.71,0-25.77,12.9-25.77,5.58,0,9.14,2.7,10.88,8.24,2,6.44,2.31,14.6,2.31,21C396.94,54.11,396.94,73.32,383.62,73.32Zm.13-54.67c-9.68,0-10.92,12.72-10.92,23.8v.35c0,4.82,0,12.11,1.44,18.17,1.67,7,4.73,10.38,9.35,10.38,10,0,11.35-12.86,11.35-25.44,0-6.25-.25-14.22-2.22-20.4C391.25,20.77,388.48,18.65,383.74,18.65Z"/><path class="cls-1" d="M489.26,87.78H474a3.88,3.88,0,0,1-3.68-3.33V39.91c0-5.67.11-12.74-3.14-16a7.2,7.2,0,0,0-5.4-2c-3.25,0-6.34,2.22-7.89,5.66-2.15,4.79-2.33,9.73-2.33,14.37V84a3.93,3.93,0,0,1-4,3.81H432.5A3.9,3.9,0,0,1,428.77,84l0-78a3.86,3.86,0,0,1,3.92-3.53h14.09a3.89,3.89,0,0,1,3.67,2.93l0,.24v7.93c4.47-8.89,10.62-12.75,20-12.75C478.62.75,485,4.09,489,10.4c4.13,6.49,4.13,17.08,4.13,24.82V84.33A3.9,3.9,0,0,1,489.26,87.78ZM461.81,19.95a9.18,9.18,0,0,1,6.8,2.55c3.83,3.87,3.77,11.38,3.72,17.42V84.33a1.91,1.91,0,0,0,1.78,1.48h15.17a1.94,1.94,0,0,0,2-1.6v-49c0-7.49,0-17.76-3.82-23.76-4.59-7.22-11.73-8.74-16.92-8.74-9.78,0-15.51,4.39-19.8,15.14l-.25.62h-1.93V5.69a1.92,1.92,0,0,0-1.78-1.33h-14A1.88,1.88,0,0,0,430.72,6l0,78a1.91,1.91,0,0,0,1.82,1.84h15.07a1.94,1.94,0,0,0,2-1.85V42c0-4.86.19-10,2.5-15.18C454,22.63,457.79,19.95,461.81,19.95Z"/><path class="cls-1" d="M223,88.85c-14.64,0-23.74-9.46-23.74-24.68,0-11.77,6.12-21.15,16.8-25.75,7.05-3.11,16.28-4.05,24.42-4.88l3.57-.37V30.95c0-3.18.05-6.78-1.69-9.33s-5.11-3.53-7.72-3.53c-6,0-10.17,3.12-11.24,8.34-.31,1.64-1.56,3.47-3.57,3.57L205,28.42a3.69,3.69,0,0,1-3.13-4.35C206,2.35,227.68,0,236.83,0c3.62,0,16,.57,23.58,7.84,7.11,6.63,7.06,15.29,7,24.45V58.4c0,6,2.15,8.93,4.64,12.28l.91,1.24c1.37,2,1.28,4.11-.24,5.37-3.18,2.65-8.82,7.58-11.62,10.07l-.94.83L260,88a4.25,4.25,0,0,1-3.68-.16l-.17-.11A33.45,33.45,0,0,1,248.41,79l-.45-.67C240,86.27,233.75,88.85,223,88.85Zm11.65-72.73c4,0,7.55,1.65,9.36,4.4,2.08,3,2.06,7,2,10.44v4l-.87.1c-1.43.16-2.92.32-4.47.47-8,.82-17.06,1.75-23.84,4.73-10.07,4.34-15.62,12.84-15.62,23.94,0,14,8.34,22.7,21.77,22.7,10.59,0,16.27-2.51,24.35-10.76l.84-.85.68,1L250,77.92a31.41,31.41,0,0,0,7.32,8.19,2.18,2.18,0,0,0,2.39-.27l.94-.84,0,0c3-2.65,7.86-6.89,10.74-9.28,1-.87.19-2.28-.1-2.71l-.89-1.21c-2.47-3.33-5-6.78-5-13.46V32.29c.05-9.1.1-17-6.39-23C253.44,3.89,243.89,2,236.83,2c-8.65,0-29.2,2.19-33,22.46a1.74,1.74,0,0,0,1.51,2L219.94,28c.74,0,1.4-1.05,1.58-2C222.77,19.92,227.82,16.12,234.69,16.12Zm-3,57.42c-6.22,0-10.25-4.71-10.25-12,0-16.3,17.77-16.3,23.61-16.3h1v5.08c0,5.67,0,10.56-3,15.81h0C240.48,70.77,236.22,73.54,231.72,73.54ZM244.1,47.22c-14.08.2-20.65,4.76-20.65,14.32,0,6.18,3.17,10,8.27,10,3.84,0,7.36-2.33,9.66-6.41h0c2.73-4.79,2.72-9.22,2.72-14.83Z"/><path class="cls-1" d="M23.74,88.85C9.09,88.85,0,79.39,0,64.17,0,52.41,6.12,43,16.8,38.42c7.06-3.11,16.28-4.05,24.42-4.88l3.57-.37V30.93c0-3.17.05-6.77-1.67-9.31S38,18.09,35.41,18.09c-4.62,0-10,2.19-11.26,8.34-.32,1.7-1.65,3.48-3.55,3.57L5.69,28.42a3.67,3.67,0,0,1-3.13-4.34C6.69,2.34,28.39,0,37.53,0c3.62,0,16,.57,23.58,7.84,7.11,6.63,7.06,15.29,7,24.46V58.4c0,6,2.15,8.93,4.64,12.28l.91,1.23c1.4,1.95,1.31,4.11-.22,5.38-3.18,2.66-8.72,7.49-11.63,10.07l-.7.62L61,87.86a4.23,4.23,0,0,1-3.92,0l-.17-.11a33.34,33.34,0,0,1-7.71-8.58l-.52-.78C40.57,86.37,34.58,88.85,23.74,88.85ZM35.41,16.12c4,0,7.52,1.64,9.35,4.4,2.07,3,2,7,2,10.43v4l-.87.1c-1.43.16-2.92.32-4.47.47-8,.82-17.06,1.75-23.83,4.73C7.52,44.57,2,53.08,2,64.17c0,14,8.34,22.7,21.76,22.7,10.59,0,16.28-2.51,24.35-10.76l.83-.85.68,1c.44.64.84,1.22,1.21,1.77a31.62,31.62,0,0,0,7.25,8.1,2.18,2.18,0,0,0,2.39-.27l.7-.63,0,0c3-2.69,8-7,11-9.49,1.08-.9.09-2.41-.12-2.71l-.89-1.21c-2.47-3.33-5-6.78-5-13.46V32.29c.05-9.1.1-17-6.39-23C54.14,3.89,44.59,2,37.53,2,28.88,2,8.36,4.16,4.5,24.43a1.74,1.74,0,0,0,1.51,2L20.66,28c.69,0,1.38-1,1.55-2C23.47,19.92,28.53,16.12,35.41,16.12Zm-3,57.42c-6.21,0-10.22-4.71-10.22-12,0-16.3,17.75-16.3,23.59-16.3h1v5.09c0,5.66,0,10.56-3,15.8C41.14,70.84,37,73.54,32.42,73.54ZM44.79,47.22c-14.07.2-20.63,4.77-20.63,14.32,0,6.18,3.16,10,8.25,10,3.84,0,7.36-2.33,9.66-6.41h0c2.73-4.79,2.72-9.22,2.71-14.82Z"/></svg>