<?xml version="1.0" encoding="UTF-8"?>
<svg width="18px" height="24px" viewBox="0 0 18 24" version="1.1" xmlns="http://www.w3.org/2000/svg" xmlns:xlink="http://www.w3.org/1999/xlink">
    <!-- Generator: Sketch 47.1 (45422) - http://www.bohemiancoding.com/sketch -->
    <title>anatomy</title>
    <desc>Created with Sketch.</desc>
    <defs></defs>
    <g id="Page-1" stroke="none" stroke-width="1" fill="none" fill-rule="evenodd">
        <g id="Group" transform="translate(-725.000000, -278.000000)" fill-rule="nonzero" fill="#55CEE2">
            <g id="anatomy" transform="translate(725.000000, 277.637800)">
                <path d="M3.5,0.3622 C3.22386906,0.362227592 3.00002759,0.586069055 3,0.8622 L3,3.8622 C3.00002759,4.13833094 3.22386906,4.36217241 3.5,4.3622 L4,4.3622 L4,6.3622 L2,6.3622 C0.8925058,6.3622 0,7.292475 0,8.409075 L0,13.364153 L0,14.364153 L0,22.317278 C0,23.433978 0.8925459,24.3622 2,24.3622 L16,24.3622 C17.107454,24.3622 18,23.433978 18,22.317278 L18,8.409075 C18,7.292475 17.107494,6.3622 16,6.3622 L14,6.3622 L14,4.3622 L14.5,4.3622 C14.7761309,4.36217241 14.9999724,4.13833094 15,3.8622 L15,0.8622 C14.9999724,0.586069055 14.7761309,0.362227592 14.5,0.3622 L3.5,0.3622 Z M4,1.3622 L14,1.3622 L14,3.3622 L4,3.3622 L4,1.3622 Z M5,4.3622 L13,4.3622 L13,6.3622 L5,6.3622 L5,4.3622 Z M2,7.3622 L16,7.3622 C16.554506,7.3622 17,7.813475 17,8.409075 L17,12.368059 C16.689151,12.248407 16.344616,12.303316 16.007812,12.350481 C15.862732,11.993081 15.731077,11.612034 15.390625,11.414934 C14.974199,11.174534 14.496589,11.126759 14.0625,11.243059 L14.0625,11.245012 C13.628411,11.361413 13.238476,11.641112 12.998047,12.057512 C12.751505,12.484585 12.770183,12.94225 12.929688,13.364153 L1,13.364153 L1,8.409075 C1,7.813475 1.4454942,7.3622 2,7.3622 Z M3.5,8.3622 C3.083333,8.3622 2.7250518,8.555084 2.4589844,8.821184 C2.192917,9.087284 2,9.4456 2,9.8622 L2,11.8622 C1.99745063,12.0425175 2.09218859,12.2102394 2.24793705,12.3011421 C2.40368551,12.3920448 2.59631449,12.3920448 2.75206295,12.3011421 C2.90781141,12.2102394 3.00254937,12.0425175 3,11.8622 L3,9.8622 C3,9.7792 3.05708,9.639069 3.166016,9.530169 C3.274948,9.421269 3.416667,9.3622 3.5,9.3622 L6,9.3622 C6.18031745,9.36474937 6.34803937,9.27001141 6.43894207,9.11426295 C6.52984477,8.95851449 6.52984477,8.76588551 6.43894207,8.61013705 C6.34803937,8.45438859 6.18031745,8.35965063 6,8.3622 L3.5,8.3622 Z M14.605469,12.184466 C14.702427,12.197047 14.799338,12.229447 14.890625,12.282122 C15.096805,12.401522 15.233856,12.609322 15.261719,12.844622 C15.2804011,13.0010756 15.371731,13.1395728 15.5081796,13.218367 C15.6446282,13.2971612 15.8102336,13.3070349 15.955078,13.245012 C16.172728,13.151012 16.420397,13.167028 16.626953,13.286028 C16.990563,13.497228 17.112802,13.944966 16.902344,14.309466 C16.901693,14.3094647 16.901042,14.3094647 16.900391,14.309466 C16.689526,14.674766 16.240199,14.795756 15.875,14.584856 C15.7600319,14.5184291 15.6233651,14.5004542 15.4951306,14.5348943 C15.3668962,14.5693345 15.2576242,14.6533616 15.191406,14.76845 C14.017557,16.80165 12.517591,19.398762 11.433594,21.276262 C11.3671671,21.3912301 11.3491922,21.5278969 11.3836323,21.6561314 C11.4180725,21.7843658 11.5020996,21.8936378 11.617188,21.959856 C11.982416,22.170756 12.103393,22.623953 11.892578,22.989153 C11.681734,23.354353 11.230398,23.475344 10.865234,23.264544 C10.659055,23.145144 10.522003,22.937244 10.494141,22.702044 C10.4754593,22.54559 10.3841293,22.4070922 10.2476804,22.3282978 C10.1112315,22.2495033 9.94562568,22.2396297 9.800781,22.301653 C9.583131,22.395653 9.335462,22.381591 9.128906,22.262591 C8.763784,22.051791 8.642683,21.600347 8.853516,21.235247 C9.064309,20.870047 9.515707,20.748956 9.880859,20.959856 C9.99559007,21.0264455 10.1320788,21.0447179 10.2602852,21.0106518 C10.3884916,20.9765857 10.4979081,20.8929729 10.564453,20.778216 L14.322266,14.26845 C14.3886929,14.1534819 14.4066678,14.0168151 14.3722277,13.8885806 C14.3377875,13.7603462 14.2537604,13.6510742 14.138672,13.584856 C13.773404,13.373956 13.652392,12.922912 13.863281,12.557512 C14.021413,12.283688 14.314595,12.146722 14.605469,12.184466 Z M1,14.364153 L13.109375,14.364153 L9.84375,20.024309 C9.127315,19.881809 8.371847,20.071247 7.988281,20.735247 C7.507414,21.568047 7.796029,22.646925 8.628906,23.127825 C8.969952,23.324125 9.365828,23.245978 9.748047,23.192278 C9.771464,23.249877 9.800649,23.304287 9.824219,23.3622 L2,23.3622 C1.4454541,23.3622 1,22.913078 1,22.317278 L1,14.364153 Z M6,15.3622 C5.177501,15.3622 4.500016,16.0397 4.5,16.8622 C4.500016,17.6847 5.177501,18.3622 6,18.3622 C6.822499,18.3622 7.499984,17.6847 7.5,16.8622 C7.499984,16.0397 6.822499,15.3622 6,15.3622 Z M17,15.448138 L17,22.317278 C17,22.913078 16.554546,23.3622 16,23.3622 L12.814453,23.3622 C13.107538,22.729346 12.898097,22.038091 12.445312,21.522356 C12.566713,21.312082 12.724559,21.036797 12.853516,20.813372 C13.129655,21.144559 13.539583,21.3622 14,21.3622 C14.822499,21.3622 15.499984,20.6847 15.5,19.8622 C15.499986,19.126512 14.956908,18.510205 14.253906,18.387591 C14.827599,17.393304 15.382011,16.433224 15.910156,15.51845 C16.283233,15.593164 16.663618,15.573849 17,15.448138 Z M6,16.3622 C6.282055,16.3622 6.499994,16.5802 6.5,16.8622 C6.499994,17.1443 6.282055,17.3622 6,17.3622 C5.717945,17.3622 5.500006,17.1443 5.5,16.8622 C5.500006,16.5802 5.717945,16.3622 6,16.3622 Z M3.5,19.3622 C2.6775011,19.3622 2.0000164,20.0397 2,20.8622 C2.0000164,21.6847 2.6775011,22.3622 3.5,22.3622 C4.322499,22.3622 4.999984,21.6847 5,20.8622 C4.999984,20.0397 4.322499,19.3622 3.5,19.3622 Z M14,19.3622 C14.282055,19.3622 14.499994,19.5802 14.5,19.8622 C14.499994,20.1443 14.282055,20.3622 14,20.3622 C13.717945,20.3622 13.500006,20.1443 13.5,19.8622 C13.500006,19.5802 13.717945,19.3622 14,19.3622 Z M3.5,20.3622 C3.782055,20.3622 3.999994,20.5802 4,20.8622 C3.999994,21.1443 3.782055,21.3622 3.5,21.3622 C3.217945,21.3622 3.000006,21.1443 3,20.8622 C3.000006,20.5802 3.217945,20.3622 3.5,20.3622 Z" id="Shape"></path>
            </g>
        </g>
    </g>
</svg>