<?xml version="1.0" encoding="utf-8"?>
<!-- Generator: Adobe Illustrator 21.0.2, SVG Export Plug-In . SVG Version: 6.00 Build 0)  -->
<svg version="1.1" xmlns="http://www.w3.org/2000/svg" xmlns:xlink="http://www.w3.org/1999/xlink" x="0px" y="0px"
	 viewBox="0 0 426.5 150" style="enable-background:new 0 0 426.5 150;" xml:space="preserve">
<style type="text/css">
	.st0{fill:#1F1F1F;}
	.st1{fill:none;stroke:#5BCEE0;stroke-width:2;stroke-miterlimit:10;}
	.st2{fill:#B0BEC5;stroke:#37474F;stroke-width:3;stroke-linecap:round;stroke-linejoin:round;stroke-miterlimit:10;}
	.st3{fill:#FFAB00;stroke:#37474F;stroke-width:3;stroke-linecap:round;stroke-miterlimit:10;}
	.st4{fill:#FFFFFF;stroke:#37474F;stroke-width:3;stroke-miterlimit:10;}
	.st5{fill:none;stroke:#37474F;stroke-width:3;stroke-linecap:round;stroke-linejoin:round;stroke-miterlimit:10;}
	.st6{fill:#37474F;stroke:#37474F;stroke-miterlimit:10;}
	.st7{fill:#78909C;stroke:#37474F;stroke-width:3;stroke-miterlimit:10;}
	.st8{fill:#FFAB00;stroke:#37474F;stroke-width:3;stroke-linejoin:round;stroke-miterlimit:10;}
	.st9{fill:#FFFFFF;stroke:#37474F;stroke-width:3;stroke-linecap:round;stroke-linejoin:round;stroke-miterlimit:10;}
	.st10{fill:none;}
	.st11{fill:#5BCEE0;}
	.st12{fill:#FFECB3;stroke:#37474F;stroke-width:4;stroke-linecap:round;stroke-miterlimit:10;}
	.st13{fill:#FFECB3;}
	.st14{fill:#37474F;}
	.st15{fill:#FFFFFF;}
	.st16{fill:#FFAB00;}
	.st17{fill:none;stroke:#5BCEE0;stroke-miterlimit:10;}
	.st18{fill:none;stroke:#5BCEE0;stroke-width:3;stroke-miterlimit:10;}
	.st19{fill:none;stroke:#DD5BB5;stroke-width:2;stroke-miterlimit:10;}
	.st20{fill:none;stroke:#1F1F1F;stroke-miterlimit:10;}
</style>
<g id="Layer_1">
	<g>
		<path class="st11" d="M400.8,150c-4.3,0-8.4-0.5-12-2.2c-5.8-2.9-9.8-9.3-13.6-15.6c-1.6-2.6-3.2-5.2-4.9-7.5
			c-9.8-13.4-19.6-26.8-29.4-40.2l-11.4-15.6c-0.6,0.9-0.5,1.9-0.3,3.3c0.1,0.6,0.1,1.2,0.1,1.7l0,3.4c-0.1,21-0.2,42.6,0.1,64
			c0,2.4-0.2,4.9-1.8,6.5c-1.3,1.2-3.2,1.7-6.2,1.5c-9.2-0.5-18.5-0.3-26.4,0c-2.4,0.1-3.9-0.3-4.9-1.3c-1.3-1.3-1.5-3.3-1.5-5.1
			c0.1-46.1,0.1-91.7,0-135.5c0-2.7,0.5-4.3,1.7-5.3c1.1-1,2.7-1.2,4.9-0.9c0.1,0,0.2,0,0.3,0l0.3,0c3.3,0,6.7-0.2,10.1-0.5
			c7.9-0.6,16.1-1.3,22.5,1.9c6.3,3.1,10.6,10,14.8,16.8c1.7,2.7,3.4,5.5,5.2,8c9,12.2,17.9,24.3,26.9,36.5l10.4,14.2
			c0-5.9,0-11.8,0-17.7c0-16.6,0.1-33.7-0.2-50.6c-0.1-3.6,0.5-5.7,1.9-7c1.4-1.3,3.4-1.8,6.9-1.6c8.2,0.5,16.4,0.3,24.9,0
			c2.4-0.1,4.2,0.1,5.5,1.4c1.1,1,1.5,2.6,1.5,5.1c-0.2,43.7-0.2,89.3,0,135.5c0,2.5-0.5,4.2-1.7,5.2c-1.4,1.2-3.5,1.2-5.1,0.9
			c-0.1,0-0.2,0-0.3,0l-0.3,0c-3,0-6.2,0.2-9.4,0.5C406.8,149.8,403.8,150,400.8,150z M330.1,65.2l12.9,17.7
			c9.8,13.5,19.6,26.9,29.4,40.2c1.8,2.4,3.4,5.1,5,7.7c3.6,6,7.4,12.1,12.5,14.7c5.4,2.6,12.7,2.1,19.7,1.5
			c3.2-0.2,6.4-0.5,9.6-0.5c0.4,0,0.7,0,0.9,0c1.6,0.2,2.6,0.1,3.1-0.3c0.5-0.5,0.8-1.6,0.8-3.3c-0.2-46.2-0.2-91.8,0-135.6
			c0-1.7-0.2-2.8-0.8-3.3c-0.5-0.5-1.7-0.7-3.7-0.7c-8.5,0.3-16.8,0.4-25.1-0.1c-2.7-0.2-4.2,0.1-5,0.9c-0.8,0.8-1.2,2.4-1.2,5.2
			c0.3,16.9,0.2,34,0.2,50.6c0,6.3,0,12.6,0,18.9v1l-3.4,0.9l-11.6-15.7c-9-12.2-17.9-24.4-26.9-36.5c-1.9-2.5-3.6-5.4-5.4-8.2
			c-4-6.4-8.1-13.1-13.7-15.8c-5.8-2.8-13.6-2.2-21.2-1.6c-3.4,0.3-6.9,0.5-10.3,0.5c-0.4,0-0.7,0-0.9,0c-1.4-0.2-2.4-0.1-2.9,0.3
			c-0.6,0.5-0.8,1.6-0.8,3.4c0.1,43.8,0.1,89.4,0,135.6c0,1.8,0.2,2.8,0.7,3.3c0.5,0.5,1.5,0.7,3.1,0.6c7.9-0.3,17.3-0.5,26.6,0
			c2.2,0.1,3.6-0.1,4.3-0.8c0.7-0.7,1-2.1,1-4.6c-0.3-21.3-0.2-43-0.1-64l0-3.4c0-0.5-0.1-0.9-0.1-1.4c-0.2-1.9-0.5-4.6,2.3-6.5
			L330.1,65.2z"/>
		<path class="st11" d="M158.5,149.2c-2.4,0-4-0.5-5.1-1.5c-1.5-1.5-1.5-3.9-1.5-6.1c0.1-16.5,0.1-33.1,0.1-49.7l0-17
			c0-5.9,0-11.8,0-17.7c0-15.8,0.1-32.1-0.1-48.2c0-3.1,0.5-5,1.7-6.3c1.5-1.6,4-1.8,6.3-1.7c31.4,0.2,63,0.2,93.9,0
			c3,0,4.9,0.5,6.1,1.8c1.2,1.2,1.6,3,1.5,6c-0.4,7.2-0.4,13.6,0,19.5c0.2,3.3-0.3,5.4-1.6,6.7c-1.3,1.4-3.4,2-6.8,1.9
			c-9.5-0.2-19.1-0.2-28.4-0.2c-8.6,0-17.4,0-26.1-0.1c-2.9-0.1-4.5,0.3-5.3,1.1c-0.8,0.8-1.1,2.4-1.1,4.9l0,1
			c0.2,6.4,0.3,9.9,1.8,11.3c1.5,1.4,5.3,1.4,12.1,1.4c4.3,0,8.6,0,12.8,0c10.9,0,22.2,0.1,33.4-0.1c3.1-0.1,5,0.5,6.2,1.8
			c1.2,1.2,1.7,3.1,1.5,6c-0.4,6.8-0.4,13.3,0,19.5c0.2,3.1-0.3,5.1-1.5,6.3c-1.3,1.3-3.2,1.9-6.4,1.8c-9-0.2-18.1-0.2-26.9-0.1
			c-9.1,0-18.4,0-27.7-0.1c-2.3-0.1-3.7,0.2-4.3,0.9c-0.7,0.7-1,2.1-1,4.6l0,0.6c0.1,7.9,0.1,12.2,1.9,14c1.8,1.8,6.3,1.8,14.4,1.8
			c4.3,0,8.6,0,12.8,0c10.7,0,21.7,0.1,32.6-0.2c3-0.1,4.8,0.4,6,1.7c1.5,1.5,1.6,3.9,1.5,6.1c-0.3,6.5-0.3,13.7,0,21.9
			c0.1,2.4-0.3,3.9-1.4,4.9c-1.3,1.3-3.3,1.5-5,1.5c0,0-0.1,0-0.1,0c-30.3-0.1-63-0.2-96.2,0C158.6,149.2,158.6,149.2,158.5,149.2z
			 M159.7,3.4c-2.3,0-3.6,0.3-4.3,1c-0.7,0.7-1,2.1-1,4.5c0.2,16.1,0.2,32.4,0.1,48.2c0,5.9,0,11.8,0,17.7l0,17
			c0,16.6,0,33.1-0.1,49.7c0,2.2,0,3.6,0.8,4.4c0.6,0.6,1.7,0.8,3.4,0.8c33.2-0.3,65.9-0.2,96.3,0c0,0,0.1,0,0.1,0
			c1.7,0,2.7-0.2,3.2-0.8c0.5-0.5,0.7-1.5,0.6-3.1c-0.3-8.3-0.3-15.5,0-22.1c0.1-2.3-0.2-3.6-0.8-4.2c-0.7-0.7-2-1-4.1-0.9
			c-10.9,0.3-22,0.2-32.7,0.2c-4.3,0-8.5,0-12.8,0c-18.1,0-18.7-0.5-18.8-18.2l0-0.6c0-2.4,0.2-4.9,1.7-6.4c1.2-1.2,3.1-1.7,6.2-1.6
			C206.6,89,216,89,225.1,89c8.8,0,18,0,26.9,0.1c2.4,0,3.8-0.3,4.6-1c0.7-0.7,1-2.2,0.8-4.5c-0.4-6.3-0.4-13,0-19.8
			c0.1-2.1-0.1-3.4-0.8-4.1c-0.7-0.7-2.1-1.1-4.4-1c-11.1,0.2-22.5,0.2-33.4,0.1c-4.3,0-8.6,0-12.8,0c-15.3,0-15.9-0.6-16.4-15.1
			l0-1c-0.1-3.3,0.5-5.4,1.8-6.7c1.6-1.6,4-1.9,7.2-1.8c8.7,0.2,17.5,0.1,26.1,0.1c9.3,0,19-0.1,28.5,0.2c2.6,0.1,4.2-0.3,5-1.1
			c0.8-0.8,1.1-2.3,0.9-4.8c-0.4-6-0.4-12.5,0-19.8c0.1-2.2-0.1-3.4-0.8-4.1c-0.7-0.7-2-1-4.2-1c-30.9,0.2-62.6,0.3-94,0
			C159.8,3.4,159.7,3.4,159.7,3.4z"/>
		<path class="st11" d="M51.7,149.2c-5.6,0-11.2,0-16.7,0c-9.7,0-19.8-0.1-29.7,0c-2,0-3.4-0.4-4.3-1.4c-1.2-1.3-0.9-3.2-0.7-4.6
			c0.1-0.5,0.1-1,0.1-1.4c-0.1-23.1-0.1-46.1-0.1-69.2l0-17.9c0-4.3,0-8.6,0-12.9c0-11.2,0.1-22.7-0.1-34c0-1.9,0.1-3.9,1.4-5.2
			c1-1.1,2.7-1.5,5.2-1.5C22.3,1,38.1,1,53.3,1c10.2,0,20.5,0,30.7,0c8.3,0,15.4,1.5,21.8,4.6c13.7,6.7,20.9,17.4,21.5,31.9
			c0.6,16.2-5.9,27.8-19.5,34.5c-0.2,0.1-0.4,0.2-0.6,0.4c17.7,8.7,25.6,23.4,22.8,42.7c-2.8,19.4-17.6,32.5-37.6,33.3
			C78.8,149,65.1,149.2,51.7,149.2z M18,146.6c5.7,0,11.3,0,16.9,0c18.8,0.1,38.2,0.1,57.2-0.6c18.8-0.8,32.7-13,35.3-31.1
			c2.7-18.8-5.3-33-23.3-41l-2-0.9l1.8-1.3c0.3-0.2,0.6-0.4,0.8-0.6c0.6-0.4,1.2-0.9,1.9-1.2c12.8-6.3,18.7-16.8,18.1-32.1
			c-0.5-13.5-7.3-23.6-20.1-29.8C98.7,5,91.9,3.6,84,3.6c-10.2,0-20.4,0-30.7,0c-15.3,0-31,0-46.6-0.1c-1.8,0-2.9,0.2-3.4,0.7
			C2.8,4.7,2.6,5.7,2.6,7.6C2.8,19,2.8,30.5,2.8,41.7c0,4.3,0,8.6,0,12.9l0,17.9c0,23.1,0,46.1,0.1,69.2c0,0.6-0.1,1.2-0.2,1.8
			c-0.1,1.1-0.3,2.2,0.1,2.6c0.3,0.4,1.2,0.6,2.4,0.6C9.4,146.6,13.8,146.6,18,146.6z M42.9,116c-3.9,0-4.8-2.1-5-5.5l0-0.3
			c-0.6-10.2-0.9-15.3,1.8-18.2c2.7-2.9,7.8-2.9,18.2-2.9c1.9,0,3.9,0,5.8,0c4.3,0,8.8-0.1,13.1,0.1c5,0.2,9.3,2,12,4.9
			c2.2,2.4,3.3,5.5,3.1,9c-0.4,7.7-6.1,12.4-15.3,12.7l0,0c-3.8,0.1-7.7,0.1-11.5,0c-1.7,0-3.4,0-5.2,0c-1.7,0-3.3,0-5,0
			c-2.5,0-5,0-7.5,0c-1.4,0-2.7,0.1-4.1,0.1C43.2,116,43,116,42.9,116z M57.4,91.7c-9,0-14,0-16,2.1c-2,2.1-1.7,7.1-1.1,16.3l0,0.3
			c0.2,2.8,0.6,3.2,2.9,3.1c1.4-0.1,2.8-0.1,4.2-0.1c2.5,0,5,0,7.5,0c1.6,0,3.3,0.1,4.9,0c1.7,0,3.5,0,5.2,0c3.7,0,7.6,0,11.4,0l0,0
			c8-0.2,12.6-3.9,12.9-10.3c0.1-2.8-0.7-5.3-2.5-7.2c-2.2-2.5-5.9-3.9-10.2-4.1c-4.3-0.2-8.7-0.2-13-0.1
			C61.6,91.7,59.5,91.7,57.4,91.7z M59.8,58.8h-4.3c-9.1,0-13.6,0-16.1-2.6c-2.4-2.6-2.2-7.2-1.7-16.4l0-0.3
			c0.2-3.5,1.1-5.5,5.6-5.5c5,0.1,10.1,0.1,15.1,0.1c5.7,0,11.6,0,17.4,0.1c7.4,0.2,12.6,4.9,12.9,11.7c0.3,6.9-4.4,11.7-12,12.4
			c-4.2,0.3-8.5,0.3-12.7,0.2c-1.4,0-2.9-0.1-4.3-0.1L59.8,58.8z M43,36.6c-2.2,0-2.5,0.5-2.7,3.1l0,0.3c-0.5,8.2-0.7,12.7,1,14.5
			c1.7,1.8,6.1,1.8,14.2,1.8h1.8v-0.4h1.3c1.9,0,3.7,0,5.6,0.1c4.1,0.1,8.3,0.2,12.4-0.2c6.2-0.5,10-4.3,9.7-9.8
			c-0.2-5.4-4.4-9.2-10.4-9.3c-5.8-0.1-11.7-0.1-17.4-0.1c-5.1,0-10.1,0-15.2-0.1C43.2,36.6,43.1,36.6,43,36.6z"/>
	</g>
</g>
<g id="Layer_2_1_">
</g>
</svg>
