<?xml version="1.0" encoding="UTF-8"?>
<svg width="48px" height="72px" viewBox="0 0 48 72" version="1.1" xmlns="http://www.w3.org/2000/svg" xmlns:xlink="http://www.w3.org/1999/xlink">
    <!-- Generator: Sketch 43.1 (39012) - http://www.bohemiancoding.com/sketch -->
    <title>behind-the-scenes</title>
    <desc>Created with Sketch.</desc>
    <defs>
        <linearGradient x1="30.2694515%" y1="30.2694515%" x2="85.9749543%" y2="85.9749543%" id="linearGradient-1">
            <stop stop-color="#5BCEE0" offset="0%"></stop>
            <stop stop-color="#FF5454" offset="100%"></stop>
        </linearGradient>
    </defs>
    <g id="Page-1" stroke="none" stroke-width="1" fill="none" fill-rule="evenodd">
        <g id="Artboard-Copy" transform="translate(-2008.000000, -134.000000)" fill-rule="nonzero" fill="url(#linearGradient-1)">
            <path d="M2015.93172,172.250179 L2032.08155,187.695883 L2048.23138,172.250179 L2015.93172,172.250179 Z M2012.6758,172.250179 L2009.58452,172.250179 C2009.28462,172.251332 2008.99668,172.132712 2008.78462,171.920657 C2008.57256,171.708602 2008.45394,171.420662 2008.45509,171.12077 L2008.45509,166.619631 C2008.45852,166.044169 2008.89563,165.564054 2009.46825,165.506805 L2009.46825,165.506805 C2009.50698,165.504801 2009.54579,165.504801 2009.58452,165.506805 L2010.71275,165.506805 C2010.71311,165.501677 2010.71351,165.496546 2010.71395,165.491413 L2010.71395,135.146272 C2010.70222,134.527877 2011.19185,134.015972 2011.81016,134.000195 C2012.11584,133.994455 2012.41069,134.113359 2012.62687,134.329548 C2012.84305,134.545737 2012.96195,134.840594 2012.9562,135.146272 L2012.9562,137.425935 C2015.34605,137.622236 2026.3538,138.500143 2032.07343,138.500143 C2037.81964,138.500143 2048.88999,137.61406 2051.20735,137.423244 L2051.20735,135.146102 C2051.20174,134.846208 2051.31611,134.55649 2051.52506,134.341296 C2051.73401,134.126103 2052.02024,134.00325 2052.32017,134.000025 L2052.32017,134.000025 C2052.62298,133.998811 2052.9135,134.119711 2053.12605,134.335395 C2053.3386,134.55108 2053.45524,134.843338 2053.4496,135.146102 L2053.4496,165.491243 C2053.45004,165.496433 2053.45044,165.50162 2053.4508,165.506805 L2054.57903,165.506805 C2055.19732,165.504396 2055.70171,166.001366 2055.70846,166.619631 L2055.70846,171.12077 C2055.70961,171.420662 2055.59098,171.708602 2055.37892,171.920657 C2055.16686,172.132712 2054.87892,172.251332 2054.57903,172.250179 L2051.47102,172.250179 C2051.45058,172.272116 2051.42912,172.29337 2051.40666,172.313874 L2033.69815,189.242 L2049.1644,204.033933 C2049.4897,204.300454 2049.63627,204.724522 2049.54387,205.131816 C2049.45147,205.539109 2049.13569,205.860901 2048.72634,205.964912 C2048.31699,206.068924 2047.88314,205.937605 2047.60313,205.624936 L2032.07785,190.790895 L2016.56041,205.624511 C2016.2804,205.937179 2015.84655,206.068497 2015.4372,205.964485 C2015.02785,205.860473 2014.71207,205.538682 2014.61968,205.13139 C2014.52728,204.724097 2014.67385,204.300029 2014.99914,204.033507 L2030.46087,189.245905 L2012.74028,172.314299 C2012.71778,172.293674 2012.69629,172.272278 2012.6758,172.250179 Z M2051.20735,139.666203 C2048.51851,139.889915 2037.89095,140.742379 2032.07343,140.742379 C2026.27905,140.742379 2015.7004,139.896685 2012.9562,139.668903 L2012.9562,150.914641 C2015.37992,151.116567 2026.35031,152.003474 2032.05686,152.003474 C2037.8169,152.003474 2048.92672,151.099854 2051.20735,150.909142 L2051.20735,139.666203 Z M2051.20735,153.168157 C2048.54584,153.389725 2037.88641,154.24571 2032.05689,154.24571 C2026.27408,154.24571 2015.72611,153.403392 2012.9562,153.173607 L2012.9562,165.491413 C2012.95663,165.496546 2012.95703,165.501677 2012.95739,165.506805 L2051.20614,165.506805 C2051.20651,165.50162 2051.20691,165.496433 2051.20735,165.491243 L2051.20735,153.168157 Z M2010.71395,167.74904 L2010.71395,167.74904 L2010.71395,170.007944 L2053.4496,170.007944 L2053.4496,167.74904 L2010.71395,167.74904 Z" id="behind-the-scenes"></path>
        </g>
    </g>
</svg>