<?xml version="1.0" encoding="UTF-8"?>
<svg width="86px" height="87px" viewBox="0 0 86 87" version="1.1" xmlns="http://www.w3.org/2000/svg" xmlns:xlink="http://www.w3.org/1999/xlink">
    <!-- Generator: Sketch 43.1 (39012) - http://www.bohemiancoding.com/sketch -->
    <title>cast</title>
    <desc>Created with Sketch.</desc>
    <defs>
        <linearGradient x1="30.2694515%" y1="30.2694515%" x2="85.9749543%" y2="85.9749543%" id="linearGradient-1">
            <stop stop-color="#5BCEE0" offset="0%"></stop>
            <stop stop-color="#FF5454" offset="100%"></stop>
        </linearGradient>
    </defs>
    <g id="Page-1" stroke="none" stroke-width="1" fill="none" fill-rule="evenodd">
        <g id="Artboard-Copy" transform="translate(-2216.000000, -158.000000)" fill-rule="nonzero" fill="url(#linearGradient-1)">
            <path d="M2228.53125,158.37703 C2227.73422,158.36603 2226.97516,158.40123 2226.25,158.50201 C2224.79969,158.70357 2223.49861,159.12456 2222.34375,159.81428 C2220.03404,161.19372 2218.43216,163.55747 2217.4375,166.75058 C2216.44284,169.94369 2216,173.99809 2216,179.02971 C2216,189.13084 2218.9691,198.41658 2223.8125,205.2127 C2228.6559,212.0087 2235.43715,216.367 2243,216.367 C2244.81541,216.367 2246.59865,216.0932 2248.3125,215.6171 C2248.4553,215.60505 2248.59385,215.562455 2248.71875,215.4922 C2249.87022,222.259 2252.36055,228.3642 2255.8125,233.2079 C2260.6559,240.0039 2267.43715,244.3622 2275,244.3622 C2282.56285,244.3622 2289.3441,240.0039 2294.1875,233.2079 C2299.0309,226.4117 2302,217.1261 2302,207.0249 C2302,201.9933 2301.55716,197.93886 2300.5625,194.74575 C2299.56784,191.55264 2297.96596,189.18889 2295.65625,187.80945 C2293.34654,186.43 2290.44063,186.08247 2286.96875,186.55966 C2283.59292,187.02365 2279.6442,188.3022 2275,190.24653 C2272.88647,189.36168 2270.93076,188.65445 2269.09375,188.0594 C2269.19531,187.92178 2269.25987,187.760415 2269.28125,187.59073 C2269.75538,184.83536 2270,181.96617 2270,179.02971 C2270,173.99809 2269.55716,169.94369 2268.5625,166.75058 C2267.56784,163.55747 2265.96596,161.19372 2263.65625,159.81428 C2261.34654,158.43484 2258.44063,158.08731 2254.96875,158.5645 C2251.59292,159.02849 2247.6442,160.30704 2243,162.25136 C2238.3558,160.30704 2234.40708,159.02849 2231.03125,158.5645 C2230.16328,158.4452 2229.32828,158.38802 2228.53125,158.37703 L2228.53125,158.37703 Z M2227.46875,160.37668 C2228.455,160.32078 2229.55299,160.36868 2230.75,160.53291 C2233.94202,160.97163 2237.90134,162.21876 2242.625,164.21977 C2242.86553,164.317043 2243.13447,164.317043 2243.375,164.21977 C2248.09866,162.21876 2252.05798,160.97163 2255.25,160.53291 C2258.44202,160.09418 2260.85117,160.45471 2262.65625,161.53273 C2264.46133,162.61079 2265.75742,164.45876 2266.65625,167.34423 C2267.55508,170.2297 2268,174.11397 2268,179.02971 C2268,181.85232 2267.76731,184.60395 2267.3125,187.24704 C2267.29159,187.32871 2267.28109,187.412696 2267.28125,187.497 C2265.76774,187.07114 2264.35983,186.74227 2263.03125,186.55966 C2261.29531,186.32106 2259.70031,186.29561 2258.25,186.49716 C2256.79969,186.69873 2255.49861,187.11972 2254.34375,187.80944 C2252.03404,189.18888 2250.43216,191.55263 2249.4375,194.74574 C2249.37205,194.95586 2249.3107,195.18426 2249.25,195.40187 C2247.49756,194.60618 2245.38884,194.3708 2243,194.3708 C2236.59565,194.3708 2233.23517,197.68932 2231.15625,200.80719 C2230.96086,201.108581 2230.94114,201.491297 2231.1045,201.811173 C2231.26786,202.131049 2231.5895,202.339488 2231.94825,202.357973 C2232.307,202.376458 2232.64836,202.202181 2232.84375,201.90079 C2234.76482,199.01969 2237.25408,196.37046 2243,196.37046 C2245.33352,196.37046 2247.23976,196.60506 2248.5625,197.24531 C2248.63143,197.285137 2248.70486,197.316593 2248.78125,197.33901 C2248.24114,200.0561 2248,203.2648 2248,207.0249 C2248,209.2781 2248.15418,211.4953 2248.4375,213.6487 C2248.21803,213.594624 2247.98671,213.616479 2247.78125,213.7107 C2246.23576,214.1399 2244.63144,214.3669 2243,214.3669 C2236.20345,214.3669 2230.00425,210.464 2225.4375,204.0561 C2220.87075,197.64878 2218,188.73925 2218,179.02971 C2218,174.11397 2218.44492,170.2297 2219.34375,167.34423 C2220.24258,164.45876 2221.53867,162.61079 2223.34375,161.53273 C2224.47192,160.85895 2225.82499,160.46994 2227.46875,160.37668 Z M2249.8125,172.34337 C2249.29639,172.39176 2248.90189,172.824908 2248.90189,173.343195 C2248.90189,173.861482 2249.29639,174.29463 2249.8125,174.34302 L2259.8125,176.34268 C2260.1642,176.409705 2260.52495,176.284024 2260.75884,176.012985 C2260.99273,175.741945 2261.06421,175.366733 2260.94635,175.028708 C2260.8285,174.690683 2260.53922,174.441207 2260.1875,174.37427 L2250.1875,172.37461 C2250.12613,172.358268 2250.06335,172.347808 2250,172.34337 C2249.93764,172.337524 2249.87486,172.337524 2249.8125,172.34337 L2249.8125,172.34337 Z M2235.8125,172.37457 L2225.8125,174.37423 C2225.46078,174.441167 2225.1715,174.690643 2225.05365,175.028668 C2224.93579,175.366693 2225.00727,175.741905 2225.24116,176.012945 C2225.47505,176.283984 2225.8358,176.409665 2226.1875,176.34264 L2236.1875,174.34298 C2236.53922,174.276043 2236.8285,174.026567 2236.94635,173.688542 C2237.06421,173.350517 2236.99273,172.975305 2236.75884,172.704265 C2236.52495,172.433226 2236.1642,172.307545 2235.8125,172.37457 L2235.8125,172.37457 Z M2259.46875,188.37181 C2260.45332,188.31431 2261.55299,188.36381 2262.75,188.52803 C2265.94202,188.96676 2269.90134,190.21388 2274.625,192.2149 C2274.86553,192.312173 2275.13447,192.312173 2275.375,192.2149 C2280.09866,190.21388 2284.05798,188.96676 2287.25,188.52803 C2290.44202,188.08931 2292.85117,188.44983 2294.65625,189.52786 C2296.46133,190.60591 2297.75742,192.45388 2298.65625,195.33936 C2299.55508,198.22483 2300,202.10916 2300,207.02486 C2300,216.73446 2297.12925,225.64386 2292.5625,232.05176 C2287.99575,238.45966 2281.79655,242.36246 2275,242.36246 C2268.20345,242.36246 2262.00425,238.45966 2257.4375,232.05176 C2252.87075,225.6439 2250,216.7345 2250,207.0249 C2250,202.1092 2250.44492,198.22487 2251.34375,195.3394 C2252.24258,192.45392 2253.53867,190.60595 2255.34375,189.5279 C2256.24629,188.98887 2257.30737,188.63393 2258.53125,188.46558 C2258.83722,188.42348 2259.14056,188.39098 2259.46875,188.37188 L2259.46875,188.37181 Z M2264,202.3694 C2262.14196,202.3694 2260.63996,202.931 2259.53125,203.8067 C2258.42254,204.6823 2257.70148,205.8119 2257.125,206.8687 C2256.94852,207.18153 2256.95339,207.564962 2257.13777,207.873208 C2257.32214,208.181453 2257.6577,208.367159 2258.01684,208.359714 C2258.37599,208.35227 2258.70356,208.152821 2258.875,207.8372 C2259.38942,206.8942 2259.99112,206.0243 2260.78125,205.4002 C2261.57138,204.7762 2262.54433,204.3691 2264,204.3691 C2265.45567,204.3691 2266.42862,204.7762 2267.21875,205.4002 C2268.00888,206.0243 2268.61057,206.8942 2269.125,207.8372 C2269.29644,208.152821 2269.62401,208.35227 2269.98316,208.359714 C2270.3423,208.367159 2270.67786,208.181453 2270.86223,207.873208 C2271.04661,207.564962 2271.05148,207.18153 2270.875,206.8687 C2270.29852,205.8119 2269.57746,204.6823 2268.46875,203.8067 C2267.36004,202.931 2265.85804,202.3694 2264,202.3694 L2264,202.3694 Z M2286,202.3694 C2284.14196,202.3694 2282.63996,202.931 2281.53125,203.8067 C2280.42254,204.6823 2279.70148,205.8119 2279.125,206.8687 C2278.94852,207.18153 2278.95339,207.564962 2279.13777,207.873208 C2279.32214,208.181453 2279.6577,208.367159 2280.01684,208.359714 C2280.37599,208.35227 2280.70356,208.152821 2280.875,207.8372 C2281.38943,206.8942 2281.99112,206.0243 2282.78125,205.4002 C2283.57138,204.7762 2284.54433,204.3691 2286,204.3691 C2287.45567,204.3691 2288.42862,204.7762 2289.21875,205.4002 C2290.00888,206.0243 2290.61058,206.8942 2291.125,207.8372 C2291.29644,208.152821 2291.62401,208.35227 2291.98316,208.359714 C2292.3423,208.367159 2292.67786,208.181453 2292.86223,207.873208 C2293.04661,207.564962 2293.05148,207.18153 2292.875,206.8687 C2292.29852,205.8119 2291.57746,204.6823 2290.46875,203.8067 C2289.36004,202.931 2287.85804,202.3694 2286,202.3694 L2286,202.3694 Z M2262.875,225.3342 C2262.524,225.371074 2262.21842,225.590191 2262.07093,225.910771 C2261.92343,226.231351 2261.95586,226.605924 2262.15625,226.8964 C2264.23518,230.0143 2267.59566,233.3641 2274,233.3641 C2280.40434,233.3641 2283.76482,230.0143 2285.84375,226.8964 C2286.14186,226.430654 2286.00781,225.811628 2285.5437,225.51089 C2285.0796,225.210153 2284.45971,225.340619 2284.15625,225.8029 C2282.23518,228.684 2279.74592,231.3644 2274,231.3644 C2268.25408,231.3644 2265.76482,228.684 2263.84375,225.8029 C2263.6396,225.47146 2263.26163,225.288593 2262.875,225.3342 L2262.875,225.3342 Z" id="cast"></path>
        </g>
    </g>
</svg>