<?xml version="1.0" encoding="utf-8"?>
<!-- Generator: Adobe Illustrator 21.0.2, SVG Export Plug-In . SVG Version: 6.00 Build 0)  -->
<svg version="1.1" xmlns="http://www.w3.org/2000/svg" xmlns:xlink="http://www.w3.org/1999/xlink" x="0px" y="0px"
	 viewBox="0 0 528.3 150" style="enable-background:new 0 0 528.3 150;" xml:space="preserve">
<style type="text/css">
	.st0{fill:#1F1F1F;}
	.st1{fill:none;stroke:#5BCEE0;stroke-width:2;stroke-miterlimit:10;}
	.st2{fill:#B0BEC5;stroke:#37474F;stroke-width:3;stroke-linecap:round;stroke-linejoin:round;stroke-miterlimit:10;}
	.st3{fill:#FFAB00;stroke:#37474F;stroke-width:3;stroke-linecap:round;stroke-miterlimit:10;}
	.st4{fill:#FFFFFF;stroke:#37474F;stroke-width:3;stroke-miterlimit:10;}
	.st5{fill:none;stroke:#37474F;stroke-width:3;stroke-linecap:round;stroke-linejoin:round;stroke-miterlimit:10;}
	.st6{fill:#37474F;stroke:#37474F;stroke-miterlimit:10;}
	.st7{fill:#78909C;stroke:#37474F;stroke-width:3;stroke-miterlimit:10;}
	.st8{fill:#FFAB00;stroke:#37474F;stroke-width:3;stroke-linejoin:round;stroke-miterlimit:10;}
	.st9{fill:#FFFFFF;stroke:#37474F;stroke-width:3;stroke-linecap:round;stroke-linejoin:round;stroke-miterlimit:10;}
	.st10{fill:none;}
	.st11{fill:#5BCEE0;}
	.st12{fill:#FFECB3;stroke:#37474F;stroke-width:4;stroke-linecap:round;stroke-miterlimit:10;}
	.st13{fill:#FFECB3;}
	.st14{fill:#37474F;}
	.st15{fill:#FFFFFF;}
	.st16{fill:#FFAB00;}
	.st17{fill:none;stroke:#5BCEE0;stroke-miterlimit:10;}
	.st18{fill:none;stroke:#5BCEE0;stroke-width:3;stroke-miterlimit:10;}
	.st19{fill:none;stroke:#DD5BB5;stroke-width:2;stroke-miterlimit:10;}
	.st20{fill:none;stroke:#1F1F1F;stroke-miterlimit:10;}
</style>
<g id="Layer_1">
	<g>
		<path class="st11" d="M356.2,147.7c-0.7,0-1.4-0.1-1.9-0.6c-0.5-0.5-0.6-1.3-0.6-1.9c0-12.2,0-24.3,0-36.5c0-12.2,0-24.3,0-36.5
			c0-0.4,0-0.6-0.1-0.7c0,0-0.1,0-0.4,0c-0.1,0-0.1,0-0.2,0c-1.9,0.1-3.7,0.1-5.6,0c-1.5,0-3.1,0-4.6,0c-0.5,0-1.2,0-1.7-0.5
			c-0.5-0.5-0.6-1.1-0.6-1.7c0-6.7,0-13.5,0-20.2c0-0.6,0.1-1.3,0.6-1.8c0.5-0.5,1.2-0.6,1.8-0.5c1.6,0,3.3,0,4.9,0
			c1.8,0,3.6,0,5.4,0c0.2,0,0.3,0,0.3,0c0-0.1,0-0.2,0-0.3c-0.3-8.1,0.8-15.3,3.3-21.9c5-13.2,14.8-21.2,29.1-23.8
			c7.3-1.3,15-1,23.5,0.8c2.1,0.5,2.3,1.8,2.2,3c-0.5,8.2-0.9,14.8-1.1,20.9c0,0.6-0.1,1.3-0.7,1.8c-0.6,0.5-1.4,0.3-1.9,0.1
			c-3.2-0.9-6.4-1.2-9.6-1c-6,0.4-10.3,4.4-11.7,11c-0.5,2.6-0.6,5.1-0.6,7.9l0,1.6c0.1,0,0.1,0,0.2,0c6.2,0,12.5,0,18.8,0h8
			l-6.4,17c-0.7,1.9-1.5,3.9-2.2,5.9c-0.5,1.3-1.4,1.9-2.8,1.9c-2.3,0-4.6,0-6.8,0c-2.7,0-5.5,0-8.2,0c-0.5,0-0.6,0-0.7,0
			c0,0,0,0.2,0,0.6c0,12.6,0,25.2,0,37.8c0,11.7,0,23.4,0,35.1c0,0.7-0.1,1.5-0.6,2c-0.6,0.6-1.3,0.6-2.1,0.6
			C374.4,147.6,365.3,147.6,356.2,147.7C356.2,147.7,356.2,147.7,356.2,147.7z M353.3,69.5c0.6,0,1.3,0.1,1.8,0.6
			c0.6,0.6,0.7,1.3,0.7,2.1c0,12.2,0,24.3,0,36.5c0,12.2,0,24.3,0,36.5c0,0.3,0,0.4,0,0.5c0,0,0.2,0,0.4,0c0,0,0,0,0,0
			c9-0.1,18.2-0.1,27.3,0c0.4,0,0.6,0,0.6,0c0,0,0-0.2,0-0.5c0-11.7,0-23.4,0-35.1c0-12.6,0-25.2,0-37.7c0-0.7,0.1-1.6,0.7-2.1
			c0.6-0.6,1.4-0.6,2.2-0.6c2.7,0.1,5.5,0,8.2,0c2.3,0,4.6,0,6.8,0c0.6,0,0.6,0,0.8-0.5c0.7-2,1.4-3.9,2.2-5.9l5.3-14.2h-5.1
			c-6.3,0-12.5,0-18.8,0l0,0c-0.1,0-0.1,0-0.2,0c-0.4,0-1,0.1-1.6-0.4c-0.4-0.3-0.5-0.8-0.5-1.5l0-1.8c0-2.7,0-5.5,0.6-8.3
			c1.6-7.6,6.6-12.2,13.6-12.6c3.4-0.2,6.9,0.2,10.3,1.1c0,0,0,0,0.1,0c0,0,0,0,0,0c0.3-6.1,0.6-12.7,1.1-20.9c0-0.8,0-0.8-0.6-0.9
			c-8.3-1.8-15.7-2.1-22.7-0.8c-13.5,2.4-22.8,10-27.5,22.5c-2.4,6.4-3.5,13.3-3.2,21.1c0,0.6,0,1.3-0.5,1.9
			c-0.5,0.5-1.3,0.6-1.9,0.6c-1.8,0-3.6,0-5.4,0c-1.7,0-3.3,0-5,0c-0.1,0-0.2,0-0.3,0c0,0.1,0,0.1,0,0.2c0.1,6.7,0,13.5,0,20.2
			c0,0.1,0,0.1,0,0.2c0,0,0.1,0,0.1,0c1.5,0,3.1,0,4.6,0c1.8,0,3.7,0,5.5,0C353.2,69.5,353.3,69.5,353.3,69.5z"/>
		<path class="st11" d="M54,150L54,150c-10.8-0.1-19.5-1.9-27.3-5.6C13.6,138,5.2,127.4,1.8,112.9c-3.1-13-2.2-25.3,2.6-36.7
			c6-14.4,17.1-24.1,32.7-28.7c13.8-4.1,28.3-3.9,42.8,0.5c1.8,0.5,2.4,1.5,1.9,3.4c-1.3,6-2.7,12.6-4.2,20c-0.1,0.6-0.3,1.3-1,1.7
			c-0.7,0.4-1.4,0.2-2-0.1c-7.3-2.7-14.7-3.3-21.8-1.8c-9.8,2-16.9,9.5-18.7,19.6c-1.1,6.3-0.7,11.9,1.2,17
			c3.5,9.4,10.7,14.7,21.3,15.7c6.7,0.6,13.2-0.2,19.2-2.6c0.3-0.1,1.1-0.4,1.7,0c0.6,0.4,0.8,1.1,0.8,1.6c1.1,7,2.1,13.8,3.3,20.6
			c0.3,1.8-0.7,2.4-1.7,2.8c-4.8,1.8-10.1,2.9-16.6,3.7C60.5,149.8,57.3,149.9,54,150L54,150z M57.5,46.6c-6.7,0-13.3,0.9-19.8,2.8
			C22.6,53.9,12,63.1,6.3,77c-4.6,11-5.4,22.9-2.5,35.5c3.3,13.8,11.3,23.9,23.8,30c7.5,3.7,15.9,5.4,26.4,5.4
			c3.2,0,6.4-0.2,9.3-0.6c6.3-0.7,11.4-1.8,16.1-3.5c0.3-0.1,0.4-0.2,0.4-0.2c0,0,0-0.1,0-0.3c-1.2-6.8-2.2-13.6-3.3-20.5
			c-6.2,2.4-12.9,3.3-19.9,2.7c-11.5-1.1-19.3-6.8-23.1-17.1c-2-5.5-2.5-11.4-1.3-18.1c1.9-11,9.7-19.1,20.3-21.2
			c7.5-1.5,15.2-0.9,22.9,1.9c0.1,0,0.2,0.1,0.2,0.1c0,0,0-0.1,0-0.2c1.5-7.4,2.9-14,4.3-20c0.1-0.5,0.1-0.7,0.1-0.7v0
			c0,0-0.1-0.1-0.6-0.3C72,47.7,64.7,46.6,57.5,46.6z M77,122.6L77,122.6L77,122.6z"/>
		<path class="st11" d="M118,147.7C118,147.7,118,147.7,118,147.7c-8-0.1-16.5-0.1-26.6,0c-0.5,0-1.3-0.1-1.8-0.6
			c-0.5-0.5-0.6-1.2-0.6-1.8c0-46.9,0-93.8,0-140.7c0-0.6,0.1-1.3,0.6-1.8c0.6-0.6,1.4-0.6,1.9-0.6c8.4,0,17.4,0.1,26.4,0
			c0.7,0,1.5,0.1,2,0.6c0.5,0.5,0.6,1.3,0.6,2c0,19.2,0,38.5,0,57.7l0,25.6c0,18.9,0,37.9,0,56.8c0,0.7-0.1,1.5-0.6,2.1
			C119.5,147.6,118.7,147.7,118,147.7z M105,145.6c4.6,0,8.8,0,12.9,0c0.4,0,0.6,0,0.6,0c0,0,0-0.2,0-0.6c0-18.9,0-37.9,0-56.8
			l0-25.6c0-19.2,0-38.5,0-57.7c0-0.3,0-0.5,0-0.6c0,0-0.2,0-0.5,0c0,0,0,0,0,0c-9,0.1-18,0-26.4,0c-0.2,0-0.4,0-0.5,0
			c0,0.1,0,0.2,0,0.3c0,46.9,0,93.8,0,140.7c0,0.1,0,0.2,0,0.3c0.1,0,0.2,0,0.2,0C96.3,145.6,100.8,145.6,105,145.6z"/>
		<path class="st11" d="M257.5,147.7C257.5,147.7,257.5,147.7,257.5,147.7c-9.1-0.1-18.4-0.1-27.6,0c-0.7,0-1.4-0.1-1.9-0.6
			c-0.5-0.5-0.6-1.3-0.6-2c0-17.7,0-35.4,0-53.1l0-5.9c0-10.9-0.1-23.8-0.8-36.8c0-0.7,0-1.4,0.5-2c0.5-0.6,1.3-0.6,1.9-0.6
			c7.6,0.1,15.6,0.1,23.7,0c0,0,0,0,0,0c1.7,0,2.4,0.8,2.5,2.4c0.2,4.6,0.5,9.1,0.8,13.7c2.6-5.8,6.5-10.4,11.6-13.7
			c5.6-3.7,12.2-5.1,20-4.4c0.7,0.1,2.3,0.2,2.3,2.3c0,6.7,0,13.4,0,20.1l0,7.2c0,0.2,0,0.4-0.1,0.6l-0.2,1.4l-1.1-0.3
			c-3.3-0.8-6.5-1.1-10-0.8c-11.4,0.8-18.5,8.4-18.5,19.8c0,16.7,0,33.3,0,50c0,0.7-0.1,1.4-0.6,1.9
			C258.9,147.6,258.2,147.7,257.5,147.7z M243.6,145.6c4.6,0,9.2,0,13.8,0c0.2,0,0.4,0,0.5,0c0-0.1,0-0.2,0-0.5c0-16.7,0-33.3,0-50
			c0-12.4,8-21,20.4-21.9c3.2-0.2,6.3,0,9.4,0.6l0-6.7c0-6.7,0-13.4,0-20.1c0-0.1,0-0.2,0-0.2c0,0.1-0.2,0-0.4,0
			c-7.3-0.7-13.4,0.6-18.7,4.1c-5.3,3.5-9.1,8.2-11.5,14.5c-0.4,1.7-1.4,1.7-2,1.6c-0.4-0.1-1.4-0.4-1.2-1.9l-0.1-1.9
			c-0.3-4.6-0.6-9.2-0.8-13.8c0-0.3,0-0.4-0.1-0.5c0,0-0.2,0-0.4,0c0,0,0,0,0,0c-8.1,0.1-16.1,0.1-23.8,0c-0.1,0-0.3,0-0.3,0
			c0,0.1,0,0.2,0,0.4c0.7,13.1,0.8,26,0.8,36.9l0,5.9c0,17.7,0,35.4,0,53.1c0,0.3,0,0.4,0,0.5c0,0,0.2,0,0.4,0c0,0,0,0,0,0
			C234.5,145.6,239.1,145.6,243.6,145.6z"/>
		<path class="st11" d="M301.4,147.7c-0.7,0-1.4-0.1-1.9-0.6c-0.5-0.5-0.6-1.3-0.6-2c0-12.7,0-25.5,0-38.2l0-9.9l0-10
			c0-12.6,0-25.1,0-37.7c0-0.7,0.1-1.5,0.6-2c0.5-0.5,1.4-0.6,2-0.6c8.7,0.1,17.7,0.1,27.6,0c0.7,0,1.4,0.1,1.9,0.6
			c0.5,0.5,0.6,1.3,0.6,1.9c0,32,0,64,0,96c0,0.6-0.1,1.3-0.6,1.8c-0.5,0.5-1.2,0.6-1.8,0.6C319.2,147.6,310.1,147.7,301.4,147.7
			C301.5,147.7,301.4,147.7,301.4,147.7z M301,48.9c0,0,0,0.2,0,0.5c0,12.6,0,25.1,0,37.7l0,10l0,9.9c0,12.7,0,25.5,0,38.2
			c0,0.3,0,0.4,0,0.5c0,0,0.2,0,0.4,0c0,0,0,0,0,0c8.6-0.1,17.7-0.1,27.7,0c0.2,0,0.3,0,0.3,0c0-0.1,0-0.2,0-0.3c0-32,0-64,0-96
			c0-0.2,0-0.4,0-0.4c0,0-0.2,0-0.4,0c0,0,0,0,0,0c-9.9,0.1-18.9,0.1-27.6,0C301.2,48.8,301.1,48.9,301,48.9z"/>
		<path class="st11" d="M510.7,36.9c-4.5,0-8.2-1.3-11.4-3.8c-5.2-4.2-7.1-11.6-4.8-18.4C496.6,8.5,502.3,4.3,509,4
			c0.5,0,0.9,0,1.4,0l0.6,0c0,0,0.1,0,0.1,0c8.8,0,15.2,4.9,16.9,13.1c1,4.6,0,9.2-2.7,13c-2.7,3.8-6.9,6.2-11.7,6.7
			C512.6,36.8,511.6,36.9,510.7,36.9z M509.7,6c-0.2,0-0.4,0-0.7,0c-5.9,0.3-10.8,3.9-12.6,9.3c-2,6-0.3,12.5,4.2,16.2
			c3.4,2.7,7.4,3.8,12.7,3.2c4.2-0.4,7.9-2.5,10.3-5.8c2.4-3.3,3.2-7.3,2.3-11.3C524.4,10.2,518.9,6,511,6c0,0-0.1,0-0.1,0l-0.6,0
			C510.1,6,509.9,6,509.7,6z"/>
		<path class="st11" d="M315,36.9c-4.7,0-8.5-1.3-11.6-4.1c-4.9-4.2-6.5-9.9-4.9-17c1.4-6,5.5-9.9,12.1-11.5
			c1.5-0.4,3.1-0.4,4.3-0.5l0,0c5.3,0,10,1.8,13.2,5.2c3.1,3.2,4.6,7.7,4.4,12.6c-0.4,7.8-6.8,14.3-14.9,15.1
			C316.7,36.8,315.8,36.9,315,36.9z M314.9,5.9c-1.1,0-2.5,0.1-3.9,0.4c-5.8,1.4-9.3,4.8-10.5,10c-1.5,6.3,0,11.3,4.2,15
			c3.3,2.9,7.3,4,12.7,3.4c7.1-0.7,12.8-6.3,13.1-13.1c0.2-4.4-1.1-8.3-3.8-11.1C323.8,7.5,319.7,5.9,314.9,5.9z"/>
		<path class="st11" d="M427.5,150c-0.1,0-0.2,0-0.4,0c-13.5-0.1-25.2-7.8-29.8-19.6c-5.1-13-2.1-31.2,13.6-40.9
			c6.3-3.9,13.8-6.6,22.8-8.1c6.2-1.1,12.7-1.6,19.1-1.5c0.1,0,0.1,0,0.2,0c0,0,0-0.1,0-0.2c0-3-0.9-5.5-2.7-7.5
			c-0.4-0.5-0.8-0.7-1.5-0.7c0,0,0,0,0,0c-9.3,0-18.6,0-27.9,0l-10.7,0l2.8-7.5c1.6-4.3,3.2-8.5,4.8-12.8c1.6-4.2,2-4.5,6.5-4.5
			c0,0,0,0,0,0l10.1,0c7.9,0,15.8,0,23.7,0c7.3,0.1,13.6,2.4,18.8,7c5.7,5.1,8.6,11.9,8.6,20.2c0.1,16,0,31.8,0,43.8
			c0,0.4,0,0.6,0,0.6c0,0,0.1,0,0.3,0c0.1,0,0.1,0,0.2,0c2.6-0.1,5.3-0.1,8.1,0c0.5,0,0.7,0,0.7,0c0,0,0-0.2,0-0.7
			c-0.1-7.9,0-15.7,0-23.6l0-16.1c0-9.5,0-18.9,0-28.4c0-0.8,0.1-1.6,0.7-2.2c0.6-0.6,1.4-0.7,2.3-0.7c8.5,0.1,17.3,0.1,27.1,0
			c0.6,0,1.4,0.1,1.9,0.6c0.5,0.5,0.6,1.3,0.6,2v0c0,31.9,0,63.8,0,95.7c0,0.7-0.1,1.4-0.6,2c-0.6,0.6-1.4,0.6-2,0.6
			c-21.5,0-43.1,0-64.6,0c0,0,0,0,0,0c-1.8,0-2.6-0.7-2.8-2.4c-0.2-1.7-0.6-3.5-0.9-5.2l-0.3-1.4C449,146.3,439.6,150,427.5,150z
			 M451.4,81.9c-5.9,0-11.7,0.5-17.4,1.5c-8.8,1.5-16,4.1-22.1,7.9c-14.7,9.1-17.5,26.2-12.7,38.4c4.4,11.2,15.1,18.2,27.9,18.3
			c12,0.1,21.2-3.6,27.9-11.2c0.6-0.8,1.3-1,2-0.7c0.9,0.4,0.9,1.2,0.9,1.5l0.4,2.2c0.3,1.8,0.7,3.5,0.9,5.3
			c0.1,0.5,0.2,0.6,0.2,0.6c0,0,0.1,0.2,0.7,0.1c21.5,0,43.1,0,64.6,0c0,0,0,0,0,0c0.3,0,0.5,0,0.6,0c0,0,0-0.2,0-0.5
			c0-31.9,0-63.8,0-95.7c0-0.3,0-0.4,0-0.5c0,0-0.2,0-0.4,0c0,0,0,0,0,0c-9.8,0.1-18.7,0.1-27.2,0c-0.6,0-0.8,0.1-0.8,0.1l0,0
			c0,0-0.1,0.2-0.1,0.7c0.1,9.5,0.1,19,0,28.4l0,16.1c0,7.9,0,15.7,0,23.6c0,0.8-0.1,1.6-0.7,2.2c-0.6,0.6-1.4,0.6-2.2,0.6
			c-2.7-0.1-5.3-0.1-7.9,0c-0.6,0-1.4,0-2-0.6c-0.6-0.6-0.7-1.4-0.7-2.1c0-12,0.1-27.8,0-43.8c0-7.8-2.7-14-7.9-18.7
			c-4.8-4.3-10.6-6.4-17.4-6.5c-7.9-0.1-15.8,0-23.7,0l-10,0c0,0,0,0,0,0c-3.4,0-3.4,0-4.6,3.2c-1.6,4.2-3.2,8.5-4.8,12.8l-1.8,4.7
			l7.7,0c9.3,0,18.6,0,27.9,0c0,0,0,0,0,0c1.3,0,2.2,0.4,3,1.4c2.1,2.4,3.1,5.2,3.2,8.8c0,0.5,0,1.2-0.5,1.7
			c-0.5,0.5-1.1,0.5-1.7,0.6C452.3,81.9,451.9,81.9,451.4,81.9z M438.3,128.3c-1.1,0-2.3-0.1-3.5-0.4c-6.3-1.4-9.7-6.2-9.4-13
			c0.3-6.2,3.8-10.6,10.4-13.1c6.1-2.4,12.4-2.7,18.3-2.7c0,0,0,0,0,0c0.7,0,1.1,0.2,1.5,0.5c0.5,0.5,0.5,1.1,0.5,1.6
			c0,1.1,0,2.3,0,3.6l0,2.6c0,2,0.1,4.6-0.3,7.1l0,0c-1.2,7.2-8,13.3-15.5,13.8C439.6,128.2,439,128.3,438.3,128.3z M454,101.1
			c-5.8,0-11.8,0.4-17.6,2.6c-5.8,2.2-8.8,5.9-9,11.3c-0.1,3.4,0.7,9.3,7.8,10.9c1.7,0.4,3.4,0.3,4.8,0.2
			c6.6-0.4,12.5-5.7,13.6-12.1c0.4-2.3,0.3-4.7,0.3-6.7l0-2.6C454,103.4,454,102.2,454,101.1C454,101.1,454,101.1,454,101.1z
			 M454,100.9L454,100.9L454,100.9z"/>
		<path class="st11" d="M159.3,150c-7.1,0-13.1-1.7-18.4-5.1c-10.2-6.6-15-16.4-14.2-28.9c0.9-14.3,8.6-24.3,23.4-30.4
			c7.8-3.2,16.6-5,27.8-5.5c2.4-0.1,4.5-0.2,6.5-0.1c0,0,0.1,0,0.1,0c0,0,0-0.1,0-0.1c0.1-5.3-3-9.3-8.4-10.8
			c-5.5-1.5-11.4-1.5-19.2,0.1c-5.8,1.2-10.7,3-15.2,5.7c-0.4,0.2-1,0.5-1.7,0.3c-0.7-0.3-0.9-1-1-1.5l-0.7-2.3
			c-1.5-5.2-2.9-10.3-4.4-15.5c-0.5-1.6,0.4-2.3,1.2-2.7c6.4-3.3,13.6-5.6,22.1-7c8-1.3,15.8-1.6,23.2-0.9
			c10.7,1.1,18.6,4.2,24.9,9.9c5.7,5.2,9.4,12.2,11.2,21.3c0.7,3.7,1.1,7.7,1.1,12.5l0,23.4c0,1.9,0,3.9,0,5.9
			c0,6.5,0,13.1,0.4,19.9c0.2,2.8,0.4,5.1,0.8,7.5l0,0c0.1,0.4,0.2,1.1-0.3,1.7c-0.4,0.5-1.1,0.6-1.6,0.6c0,0,0,0,0,0
			c-8.6,0-17.1,0-25.7,0c0,0,0,0,0,0c-0.8,0-2-0.2-2.2-1.9c-0.3-2.1-0.7-4.2-1.1-6.3l-0.2-1c-6.1,6.6-13.9,10.2-24,11.2
			C162.2,149.9,160.8,150,159.3,150z M183.1,81.9c-1.6,0-3.3,0-5.1,0.1c-11,0.6-19.6,2.3-27.1,5.4c-14.1,5.8-21.3,15.2-22.2,28.6
			c-0.7,11.8,3.7,20.9,13.3,27.1c6,3.9,13,5.4,21.5,4.6c9.7-0.9,17.2-4.4,22.9-10.9c0.3-0.4,0.9-1.3,2-0.9c1,0.3,1.1,1.3,1.2,1.7
			l0.3,1.5c0.4,2.1,0.8,4.2,1.1,6.3c0,0.1,0,0.1,0,0.1c0,0,0.1,0,0.2,0c0,0,0,0,0,0c8.5,0,17,0,25.5,0c-0.5-2.6-0.7-5.4-0.8-7.6
			c-0.5-6.9-0.4-13.6-0.4-20.1c0-2,0-4,0-5.9l0-23.4c0-4.7-0.3-8.5-1-12.1c-1.7-8.7-5.1-15.3-10.5-20.2c-6-5.4-13.5-8.4-23.7-9.4
			c-7.3-0.7-14.7-0.4-22.6,0.9c-8.2,1.4-15.3,3.6-21.5,6.8c-0.1,0.1-0.2,0.1-0.2,0.1c0,0,0,0.1,0.1,0.2c1.5,5.1,3,10.3,4.4,15.5
			l0.6,2.2c4.6-2.7,9.7-4.5,15.6-5.8c5.5-1.1,12.7-2.2,20.2-0.1c6.4,1.8,10,6.5,9.9,12.8c0,0.6-0.1,1.2-0.6,1.7
			c-0.5,0.5-1.1,0.5-1.6,0.5C184,81.9,183.6,81.9,183.1,81.9z M169.9,128.3c-4,0-7-1.1-9.4-3.4c-2.6-2.5-3.9-6.2-3.6-10.1
			c0.3-4.3,2.5-8.2,5.8-10.6c4.1-2.9,8.9-3.9,13-4.5c3-0.4,6.2-0.7,9.8-0.6c0.5,0,1.1,0.1,1.6,0.5c0.5,0.5,0.5,1.1,0.5,1.6
			c0,1.3,0,2.6,0,4l0,2c0,0.7,0,1.5,0,2.3c0,1.3,0,2.7-0.1,4.1c-0.5,6.6-7,14-15.9,14.6C171,128.2,170.5,128.3,169.9,128.3z
			 M185.4,101.1c-3.4,0-6.5,0.2-9.3,0.6c-3.8,0.6-8.3,1.5-12.1,4.2c-2.8,2-4.7,5.4-5,9c-0.3,3.3,0.8,6.4,3,8.5
			c2.3,2.2,5.3,3.1,9.5,2.8c7.9-0.6,13.6-7,14-12.7c0.1-1.4,0.1-2.7,0.1-4c0-0.8,0-1.6,0-2.4l0-1.9c0-1.4,0-2.8,0-4.1c0,0,0,0,0,0
			C185.5,101.1,185.4,101.1,185.4,101.1z"/>
	</g>
</g>
<g id="Layer_2_1_">
</g>
</svg>
