<?xml version="1.0" encoding="UTF-8"?>
<svg width="63px" height="41px" viewBox="0 0 63 41" version="1.1" xmlns="http://www.w3.org/2000/svg" xmlns:xlink="http://www.w3.org/1999/xlink">
    <!-- Generator: Sketch 43.1 (39012) - http://www.bohemiancoding.com/sketch -->
    <title>clarify</title>
    <desc>Created with Sketch.</desc>
    <defs></defs>
    <g id="Page-1" stroke="none" stroke-width="1" fill="none" fill-rule="evenodd">
        <g id="Artboard-Copy" transform="translate(-1483.000000, -255.000000)" fill-rule="nonzero" fill="#5BCEE0">
            <path d="M1545.4,278.5 L1536.8,258.8 C1536.4,256.9 1534.7,255.6 1532.8,255.6 C1530.5,255.6 1528.7,257.4 1528.7,259.7 L1528.7,261.1 L1530.7,261.1 L1530.7,259.7 C1530.7,258.5 1531.6,257.6 1532.8,257.6 C1533.8,257.6 1534.7,258.3 1534.9,259.3 L1543.5,279 C1543.6,279.5 1543.5,280.7 1542.2,281 C1540.8,276.5 1536.5,273.1 1531.5,273.1 L1527.2,273.1 C1524.3,273.1 1518.5,273.1 1517.2,276.9 C1515.4,276.4 1513.6,276.4 1511.8,276.9 C1510.5,273.1 1504.7,273.1 1501.8,273.1 L1497.5,273.1 C1492.5,273.1 1488.2,276.4 1486.8,281 C1485.6,280.9 1485.4,279.5 1485.5,279 L1494.1,259.3 C1494.3,258.3 1495.2,257.6 1496.2,257.6 C1497.4,257.6 1498.3,258.5 1498.3,259.7 L1498.3,261.1 L1500.3,261.1 L1500.3,259.7 C1500.3,257.4 1498.5,255.6 1496.2,255.6 C1494.3,255.6 1492.6,256.9 1492.2,258.8 L1483.6,278.5 C1483.4,279.6 1483.6,282.1 1486.4,282.9 C1486.3,283.4 1486.3,283.8 1486.3,284.3 C1486.3,290.5 1491.3,295.5 1497.5,295.5 C1502,295.5 1507.7,289.7 1510.5,284.2 C1512.9,282.6 1516.1,282.6 1518.5,284.2 C1521.2,289.7 1527,295.5 1531.5,295.5 C1537.7,295.5 1542.7,290.5 1542.7,284.3 C1542.7,283.8 1542.7,283.4 1542.6,282.9 C1545.7,281.7 1545.6,279.6 1545.4,278.5 Z M1497.5,293.5 C1492.4,293.5 1488.3,289.4 1488.3,284.3 C1488.3,279.2 1492.4,275.1 1497.5,275.1 L1501.8,275.1 C1507.8,275.1 1510.1,276.1 1510.1,278.7 C1510.1,283.7 1502.6,293.5 1497.5,293.5 Z M1511.6,281.5 C1511.9,280.6 1512.1,279.7 1512.1,278.9 C1513.7,278.4 1515.3,278.4 1516.9,278.9 C1516.9,279.7 1517.1,280.6 1517.4,281.5 C1515.5,280.9 1513.5,280.9 1511.6,281.5 Z M1531.5,293.5 C1526.4,293.5 1518.9,283.8 1518.9,278.6 C1518.9,276 1521.2,275 1527.2,275 L1531.5,275 C1536.6,275 1540.7,279.1 1540.7,284.2 C1540.7,289.3 1536.6,293.5 1531.5,293.5 Z M1490.86464,282.68334 L1495.88505,277.66293 L1497.29925,279.07713 L1492.27884,284.09754 L1490.86464,282.68334 Z M1491.86174,286.67944 L1496.88215,281.65903 L1498.29635,283.07323 L1493.27594,288.09364 L1491.86174,286.67944 Z" id="clarify"></path>
        </g>
    </g>
</svg>