<?xml version="1.0" encoding="UTF-8"?>
<svg width="48px" height="48px" viewBox="0 0 48 48" version="1.1" xmlns="http://www.w3.org/2000/svg" xmlns:xlink="http://www.w3.org/1999/xlink">
    <!-- Generator: Sketch 43.1 (39012) - http://www.bohemiancoding.com/sketch -->
    <title>cloud-intelligence</title>
    <desc>Created with Sketch.</desc>
    <defs></defs>
    <g id="Page-1" stroke="none" stroke-width="1" fill="none" fill-rule="evenodd">
        <g id="Artboard-Copy" transform="translate(-1479.000000, -300.000000)" fill-rule="nonzero" fill="#5BCEE0">
            <path d="M1485,328.126612 L1485,325.99975 L1513,325.99975 L1513,330.789849 L1521,326.28985 L1521,329.560963 C1523.74778,327.876921 1525,324.888523 1525,323.03685 C1525,319.584749 1522.3106,316.732149 1518.74421,316.40115 L1517.3487,316.271749 L1517.9258,314.99395 C1518.5371,313.64035 1518.8008,312.20675 1518.71,310.73265 C1518.4151,305.95635 1514.1338,302.03885 1509.1661,302.000751 C1509.1407,302.000751 1509.1153,302.00025 1509.0899,302.00025 C1504.5879,302.00025 1500.6358,305.06075 1499.6748,309.30295 L1499.2315,311.25805 L1497.9366,309.72875 C1496.4991,308.03145 1494.28321,307.14035 1492.0078,307.35865 C1489.4483,307.59885 1487.2139,309.30835 1486.3164,311.714151 C1485.8496,312.965551 1485.8018,314.26145 1486.1739,315.565651 L1486.4317,316.46995 L1485.545,316.78295 C1482.82621,317.74345 1481,320.25655 1481,323.03685 C1481,326.096841 1481.95171,327.454661 1485,328.126612 Z M1485,329.148671 L1484.7998,330.128151 C1480.669,329.283451 1479,327.107149 1479,323.03685 C1479,319.704349 1480.99521,316.67165 1484.0479,315.23805 C1483.7959,313.81035 1483.9287,312.39335 1484.4434,311.01485 C1485.6065,307.89575 1488.503,305.67895 1491.8213,305.36745 C1494.1543,305.14675 1496.45021,305.83525 1498.2266,307.24095 C1499.9317,302.95285 1504.25,300.00025 1509.0899,300.00025 C1509.12021,300.00025 1509.1504,300.00075 1509.1817,300.00075 C1515.1778,300.04715 1520.3477,304.80595 1520.7061,310.60965 C1520.7911,311.982151 1520.6241,313.32595 1520.21,314.61895 C1524.15921,315.549549 1527,318.97295 1527,323.03685 C1527,326.033376 1524.9023,330.013565 1521,331.825756 L1521,347.709751 L1513,343.209751 L1513,347.999748 L1485,347.999748 L1485,329.148671 Z M1487,345.999748 L1511,345.999748 L1511,327.99975 L1487,327.99975 L1487,345.999748 Z M1495,343.249748 L1495,330.749249 L1505.82621,336.999748 L1495,343.249748 Z M1497,334.21315 L1497,339.785851 L1501.82621,336.999748 L1497,334.21315 Z M1513,340.914848 L1519,344.289848 L1519,329.709749 L1513,333.084751 L1513,340.914848 Z" id="cloud-intelligence"></path>
        </g>
    </g>
</svg>