<?xml version="1.0" encoding="utf-8"?>
<!-- Generator: Adobe Illustrator 21.1.0, SVG Export Plug-In . SVG Version: 6.00 Build 0)  -->
<svg version="1.1" id="Layer_1" xmlns="http://www.w3.org/2000/svg" xmlns:xlink="http://www.w3.org/1999/xlink" x="0px" y="0px"
	 viewBox="0 0 88.3 105" style="enable-background:new 0 0 88.3 105;" xml:space="preserve">
<style type="text/css">
	.st0{fill:#2F4D70;}
	.st1{fill:#EFEFEF;}
	.st2{fill:#CE2949;}
</style>
<circle class="st0" cx="45.2" cy="28.9" r="6.3"/>
<ellipse class="st0" cx="44.9" cy="81.2" rx="31.1" ry="8.7"/>
<path class="st1" d="M44.9,13.7c10.2,0,18.6,8.4,18.6,18.6c0,15.8-18.6,32.5-18.6,32.5S26.3,48.4,26.3,32.3
	C26.3,22,34.7,13.7,44.9,13.7 M44.9,39.7c4.1,0,7.4-3.3,7.4-7.4s-3.3-7.4-7.4-7.4s-7.4,3.3-7.4,7.4S40.9,39.7,44.9,39.7 M44.9,10.5
	c-12,0-21.8,9.8-21.8,21.8c0.1,17.3,19,34.1,19.8,34.8c0.6,0.5,1.3,0.8,2.1,0.8s1.5-0.3,2.1-0.8c0.8-0.7,19.6-17.8,19.6-34.8
	C66.7,20.3,56.9,10.5,44.9,10.5L44.9,10.5z M44.9,36.6c-2.4,0-4.3-1.9-4.3-4.3s1.9-4.3,4.3-4.3c2.4,0,4.3,1.9,4.3,4.3
	C49.2,34.6,47.3,36.6,44.9,36.6L44.9,36.6z"/>
<path class="st1" d="M59.6,63.5c-1-0.2-1.9,0.4-2.1,1.4c-0.2,0.9,0.4,1.9,1.4,2c8.9,1.7,14.5,5.1,14.5,8.7c0,4.8-12.2,8.5-28.4,8.5
	s-28.4-3.6-28.4-8.5c0-3.4,5.8-6.9,14.5-8.7c0.9-0.2,1.5-1.1,1.3-2.1c-0.2-0.9-1.2-1.5-2.1-1.3C19.5,65.8,13,70.3,13,75.6
	c0,8.8,16.5,12,31.9,12s31.9-3.1,31.9-12C76.9,70.1,70.6,65.7,59.6,63.5z"/>
<path class="st2" d="M88.3,33.8"/>
</svg>
