<?xml version="1.0" encoding="utf-8"?>
<!-- Generator: Adobe Illustrator 21.0.2, SVG Export Plug-In . SVG Version: 6.00 Build 0)  -->
<svg version="1.1" xmlns="http://www.w3.org/2000/svg" xmlns:xlink="http://www.w3.org/1999/xlink" x="0px" y="0px"
	 viewBox="0 0 119.7 150" style="enable-background:new 0 0 119.7 150;" xml:space="preserve">
<style type="text/css">
	.st0{fill:#1F1F1F;}
	.st1{fill:none;stroke:#5BCEE0;stroke-width:2;stroke-miterlimit:10;}
	.st2{fill:#B0BEC5;stroke:#37474F;stroke-width:3;stroke-linecap:round;stroke-linejoin:round;stroke-miterlimit:10;}
	.st3{fill:#FFAB00;stroke:#37474F;stroke-width:3;stroke-linecap:round;stroke-miterlimit:10;}
	.st4{fill:#FFFFFF;stroke:#37474F;stroke-width:3;stroke-miterlimit:10;}
	.st5{fill:none;stroke:#37474F;stroke-width:3;stroke-linecap:round;stroke-linejoin:round;stroke-miterlimit:10;}
	.st6{fill:#37474F;stroke:#37474F;stroke-miterlimit:10;}
	.st7{fill:#78909C;stroke:#37474F;stroke-width:3;stroke-miterlimit:10;}
	.st8{fill:#FFAB00;stroke:#37474F;stroke-width:3;stroke-linejoin:round;stroke-miterlimit:10;}
	.st9{fill:#FFFFFF;stroke:#37474F;stroke-width:3;stroke-linecap:round;stroke-linejoin:round;stroke-miterlimit:10;}
	.st10{fill:none;}
	.st11{fill:#5BCEE0;}
	.st12{fill:#FFECB3;stroke:#37474F;stroke-width:4;stroke-linecap:round;stroke-miterlimit:10;}
	.st13{fill:#FFECB3;}
	.st14{fill:#37474F;}
	.st15{fill:#FFFFFF;}
	.st16{fill:#FFAB00;}
	.st17{fill:none;stroke:#5BCEE0;stroke-miterlimit:10;}
	.st18{fill:none;stroke:#5BCEE0;stroke-width:3;stroke-miterlimit:10;}
	.st19{fill:none;stroke:#DD5BB5;stroke-width:2;stroke-miterlimit:10;}
	.st20{fill:none;stroke:#1F1F1F;stroke-miterlimit:10;}
</style>
<g id="Layer_1">
</g>
<g id="Layer_2_1_">
	<g>
		<path class="st11" d="M67.5,42.6C66.4,40.3,56.5,19.7,52.1,16c0.7-1,0.5-2.4-0.4-3.1l-2.4-2c-0.9-0.8-2.3-0.7-3.2,0.1c0,0,0,0,0,0
			C41.8,7.2,19.8,0.8,17.3,0.1c-0.8-0.2-1.6,0.2-1.9,0.9c-0.3,0.6-0.1,1.4,0.4,1.8C15.9,2.8,16,2.9,16.1,3
			c0.2,0.1,19.2,10.4,24.3,14.7L4.3,58.5c-0.8,1-0.7,2.5,0.3,3.3L8.8,65c1,0.8,2.5,0.7,3.3-0.3l34.3-42c5.1,4.4,18.3,21.4,18.4,21.5
			c0.1,0.1,0.1,0.2,0.2,0.2c0.5,0.4,1.2,0.5,1.8,0.1C67.6,44.2,67.9,43.4,67.5,42.6z M16.8,1.6c0,0,24,7.1,28.2,10.6L45,12.3
			l-3.6,4.2C36.1,12,16.8,1.6,16.8,1.6z M10.9,63.7c-0.3,0.3-0.8,0.4-1.1,0.1l-4.2-3.2c-0.3-0.3-0.4-0.8-0.1-1.1l37.1-42l3.7-4.4
			l0.9-1c0.3-0.3,0.8-0.4,1.1-0.1l2.4,2c0.3,0.3,0.4,0.8,0.1,1.1l-0.9,1l-3.7,4.4L10.9,63.7z M47.4,21.5l3.6-4.2l0.1-0.1
			c4.2,3.7,15.1,26.1,15.1,26.1S52.8,26.1,47.4,21.5z"/>
		<path class="st11" d="M30.4,147.7H0V83.2h30.4V147.7z M1.7,146h27.1V84.9H1.7V146z"/>
		<path class="st11" d="M74.7,148.5H44.3V54.9h30.4V148.5z M46,146.8H73V56.5H46V146.8z"/>
		<path class="st11" d="M119.7,150H89.3V22.7h30.4V150z M91,148.3H118V24.4H91V148.3z"/>
	</g>
</g>
</svg>
