<?xml version="1.0" encoding="UTF-8"?>
<svg width="80px" height="65px" viewBox="0 0 80 65" version="1.1" xmlns="http://www.w3.org/2000/svg" xmlns:xlink="http://www.w3.org/1999/xlink">
    <!-- Generator: Sketch 43.1 (39012) - http://www.bohemiancoding.com/sketch -->
    <title>early-beginnings</title>
    <desc>Created with Sketch.</desc>
    <defs></defs>
    <g id="Page-1" stroke="none" stroke-width="1" fill="none" fill-rule="evenodd">
        <path d="M50.1649638,35.6644738 L71.5649638,35.6644738 C73.2649638,35.6644738 73.2649638,35.6644738 73.2649638,37.5644738 C73.2649638,39.4144738 73.4149638,39.3144738 71.5649638,40.3644738 L60.8649638,46.3644738 L50.1649638,40.3644738 C48.3149638,39.3144738 48.4149638,39.4144738 48.4149638,37.5644738 C48.4149638,35.6644738 48.4149638,35.6644738 50.1649638,35.6644738 Z M50.1149638,10.7144738 L71.6149638,10.7144738 C73.3649638,10.7144738 73.3649638,10.7144738 73.3649638,13.2644738 C73.3649638,15.7144738 73.3649638,15.7144738 71.6149638,15.7144738 L50.1149638,15.7144738 C48.3649638,15.7144738 48.3649638,15.7144738 48.3649638,13.2144738 C48.3649638,10.7144738 48.3649638,10.7144738 50.1149638,10.7144738 Z M50.8149638,19.7644738 L50.8649638,19.7644738 C53.3649638,19.7644738 53.3649638,19.7644738 53.3649638,21.6644738 L53.3649638,30.0644738 C53.3649638,31.9144738 53.3649638,31.9144738 50.8149638,31.9144738 C48.3649638,31.9144738 48.3649638,31.9144738 48.3649638,30.0644738 L48.3649638,21.6644738 C48.3649638,19.7644738 48.3649638,19.7644738 50.8149638,19.7644738 Z M60.8149638,19.7644738 C63.3649638,19.7644738 63.3649638,19.7644738 63.3649638,21.6644738 L63.3649638,30.0644738 C63.3649638,31.9144738 63.3649638,31.9144738 60.8149638,31.9144738 C58.3649638,31.9144738 58.3649638,31.9144738 58.3649638,30.0644738 L58.3649638,21.6644738 C58.3649638,19.7644738 58.3649638,19.7644738 60.8149638,19.7644738 Z M70.8149638,19.7644738 C73.3649638,19.7644738 73.3649638,19.7644738 73.3649638,21.6644738 L73.3649638,30.0644738 C73.3649638,31.9144738 73.3649638,31.9144738 70.8149638,31.9144738 C68.3649638,31.9144738 68.3649638,31.9144738 68.3649638,30.0644738 L68.3649638,21.6644738 C68.3649638,19.7644738 68.3649638,19.7644738 70.8149638,19.7644738 Z M2.5,0 L77.5,0 C80,0 80,0 80,2.5 L80,52.5 C80,55 80,55 77.5,55 L42.5,55 C35.75,61.5 21.9,65 7.55,65 L7.55,55 L2.5,55 C0,55 0,55 0,52.5 L0,2.5 C0,0 0,0 2.5,0 Z M40.4466707,2.4472615 C33.6230932,6.50615156 23.2269681,8.71433447 9.96934414,8.71433447 L9.96934414,62.856661 C20.5243634,62.2550796 34.7255297,59.5542427 40.4466707,53.7706543 L40.4466707,2.4472615 Z M42.8615465,2 L42.8615465,53 L78.1361024,53 L78.1361024,2 L42.8615465,2 Z M2.11749443,1.76063081 L2.11749443,53.1975568 L7.5,53.1975568 L7.5,6.84474962 C31.0076843,6.84474962 36.5524859,1.76063081 36.5524859,1.76063081 L2.11749443,1.76063081 Z" id="early-beginnings" fill="#5BCEE0" fill-rule="nonzero" transform="translate(40.000000, 32.500000) scale(-1, 1) rotate(-180.000000) translate(-40.000000, -32.500000) "></path>
    </g>
</svg>