<?xml version="1.0" encoding="utf-8"?>
<!-- Generator: Adobe Illustrator 21.0.2, SVG Export Plug-In . SVG Version: 6.00 Build 0)  -->
<svg version="1.1" xmlns="http://www.w3.org/2000/svg" xmlns:xlink="http://www.w3.org/1999/xlink" x="0px" y="0px"
	 viewBox="0 0 116.4 150" style="enable-background:new 0 0 116.4 150;" xml:space="preserve">
<style type="text/css">
	.st0{fill:#1F1F1F;}
	.st1{fill:none;stroke:#5BCEE0;stroke-width:2;stroke-miterlimit:10;}
	.st2{fill:#B0BEC5;stroke:#37474F;stroke-width:3;stroke-linecap:round;stroke-linejoin:round;stroke-miterlimit:10;}
	.st3{fill:#FFAB00;stroke:#37474F;stroke-width:3;stroke-linecap:round;stroke-miterlimit:10;}
	.st4{fill:#FFFFFF;stroke:#37474F;stroke-width:3;stroke-miterlimit:10;}
	.st5{fill:none;stroke:#37474F;stroke-width:3;stroke-linecap:round;stroke-linejoin:round;stroke-miterlimit:10;}
	.st6{fill:#37474F;stroke:#37474F;stroke-miterlimit:10;}
	.st7{fill:#78909C;stroke:#37474F;stroke-width:3;stroke-miterlimit:10;}
	.st8{fill:#FFAB00;stroke:#37474F;stroke-width:3;stroke-linejoin:round;stroke-miterlimit:10;}
	.st9{fill:#FFFFFF;stroke:#37474F;stroke-width:3;stroke-linecap:round;stroke-linejoin:round;stroke-miterlimit:10;}
	.st10{fill:none;}
	.st11{fill:#5BCEE0;}
	.st12{fill:#FFECB3;stroke:#37474F;stroke-width:4;stroke-linecap:round;stroke-miterlimit:10;}
	.st13{fill:#FFECB3;}
	.st14{fill:#37474F;}
	.st15{fill:#FFFFFF;}
	.st16{fill:#FFAB00;}
	.st17{fill:none;stroke:#5BCEE0;stroke-miterlimit:10;}
	.st18{fill:none;stroke:#5BCEE0;stroke-width:3;stroke-miterlimit:10;}
	.st19{fill:none;stroke:#DD5BB5;stroke-width:2;stroke-miterlimit:10;}
	.st20{fill:none;stroke:#1F1F1F;stroke-miterlimit:10;}
</style>
<g id="Layer_1">
</g>
<g id="Layer_2_1_">
	<g>
		<polygon class="st11" points="23.4,35.4 10,27.3 23.1,11.5 25,13.1 13.7,26.7 24.7,33.3 		"/>
		<path class="st11" d="M83,111.7H43.7c-0.5-0.1-9.3-1.4-16.8-8.9c-7.6-7.6-10.4-25-2.8-35.6l0-53.8C24.1,13.1,26.9,0,40,0
			c13,0,17.1,11.8,17.1,11.9l0.1,0.4v40.5H83c0.3,0,18.1,1.8,22,16.9c3.2,12.1,1.2,24-5.5,32.6C95,108.1,88.8,111.7,83,111.7z
			 M26.5,13.6v54.3l-0.2,0.3c-7,9.4-4.6,25.8,2.3,32.8c7,7,15.2,8.2,15.3,8.2l39.1,0c5.1,0,10.5-3.2,14.6-8.5
			c6.2-8.1,8.1-19.2,5.1-30.5c-3.5-13.4-19.6-15-19.8-15l-28.1,0V12.5c-0.5-1.4-4.2-10-14.7-10C29.4,2.5,26.8,12.4,26.5,13.6z"/>
		<path class="st11" d="M60.5,148.9c-10.6,0-18.9-2.7-19.6-2.9c-0.2-0.1-25.2-7.8-32.7-32.7C3.8,98.5,0.8,83.8,0.8,83.7l-0.8-4
			l9.4,9.4l17.2-14.7l14.7,14.7L56,74.3l14.8,14.8l17.2-14.7l14.7,14.7l13.8-13.8l-0.3,3.4c-0.1,1.7-3.8,41.2-25,59.7
			C81.7,146.6,70.1,148.9,60.5,148.9z M4.1,87.2c1.2,5.4,3.5,15.3,6.5,25.3c7.1,23.6,30.8,31,31.1,31.1c0.3,0.1,29.1,9.4,47.9-7.1
			c16.9-14.8,22.3-44.5,23.7-54.6l-10.6,10.6L87.8,77.7L70.6,92.5L56,77.8L41.3,92.5L26.5,77.7L9.3,92.5L4.1,87.2z"/>
		<circle class="st11" cx="37.6" cy="16" r="4.9"/>
		<g>
			<circle class="st11" cx="35.1" cy="121.5" r="4.9"/>
			<circle class="st11" cx="59.7" cy="121.5" r="4.9"/>
		</g>
		<circle class="st11" cx="84.2" cy="121.5" r="4.9"/>
		<path class="st11" d="M21.6,150c24.5,0,49.1,0,73.6,0c3.6,0,3.6-5.5,0-5.5c-24.5,0-49.1,0-73.6,0C18.1,144.5,18.1,150,21.6,150
			L21.6,150z"/>
	</g>
</g>
</svg>
