<?xml version="1.0" encoding="UTF-8"?>
<svg width="70px" height="39px" viewBox="0 0 70 39" version="1.1" xmlns="http://www.w3.org/2000/svg" xmlns:xlink="http://www.w3.org/1999/xlink">
    <!-- Generator: Sketch 43.1 (39012) - http://www.bohemiancoding.com/sketch -->
    <title>evolution3</title>
    <desc>Created with Sketch.</desc>
    <defs></defs>
    <g id="Page-1" stroke="none" stroke-width="1" fill="none" fill-rule="evenodd">
        <path d="M53.14,2.26 C44.0295515,2.27497627 36.6080041,9.58090942 36.45,18.69 L20.12,18.69 C19.5677153,18.69 19.12,19.1377153 19.12,19.69 C19.12,20.2422847 19.5677153,20.69 20.12,20.69 L35.92,20.69 L20.12,36.48 L3.33,19.69 L20.12,2.89 L29,11.77 C29.3967603,12.1097768 29.9881942,12.0869323 30.3575632,11.7175632 C30.7269323,11.3481942 30.7497768,10.7567603 30.41,10.36 L20.83,0.78 C20.4399625,0.392276405 19.8100375,0.392276405 19.42,0.78 L1.21,19 C0.822276405,19.3900375 0.822276405,20.0199625 1.21,20.41 L19.42,38.6 C19.8100375,38.9877236 20.4399625,38.9877236 20.83,38.6 L38.75,20.69 L52.37,20.69 C52.9222847,20.69 53.37,20.2422847 53.37,19.69 C53.37,19.1377153 52.9222847,18.69 52.37,18.69 L38.45,18.69 C38.5895535,12.0528849 43.1630814,6.33418191 49.6071942,4.73913282 C56.0513071,3.14408372 62.7643396,6.06913327 65.9837443,11.8748379 C69.2031489,17.6805425 68.1287521,24.9239113 63.3627361,29.5451518 C58.59672,34.1663922 51.3236641,35.0169086 45.62,31.62 C45.3112939,31.3954917 44.9017066,31.3663069 44.5642868,31.5447762 C44.226867,31.7232454 44.0204781,32.0782343 44.0323184,32.4597618 C44.0441588,32.8412892 44.2721629,33.1827971 44.62,33.34 C50.6830367,36.9381697 58.3521051,36.3437958 63.7883335,31.8544016 C69.2245618,27.3650073 71.258171,19.9466298 68.8712064,13.3126537 C66.4842418,6.67867765 60.1903353,2.25661569 53.14,2.26 Z" id="evolution3" fill="#5BCEE0" fill-rule="nonzero"></path>
    </g>
</svg>