<?xml version="1.0" encoding="UTF-8"?>
<svg width="251px" height="150px" viewBox="0 0 251 150" version="1.1" xmlns="http://www.w3.org/2000/svg" xmlns:xlink="http://www.w3.org/1999/xlink">
    <!-- Generator: Sketch 43.1 (39012) - http://www.bohemiancoding.com/sketch -->
    <title>evolution</title>
    <desc>Created with Sketch.</desc>
    <defs></defs>
    <g id="Page-1" stroke="none" stroke-width="1" fill="none" fill-rule="evenodd">
        <path d="M131.500912,96.0020049 C126.44321,96.8194196 121.336471,97.3579673 116.2,97.6 C109.649232,97.8999147 102.941489,97.7388728 96.1861117,97.1215941 C96.1698429,97.2439945 96.1415212,97.3702463 96.1,97.5 C91.8,112.1 88.8,127.7 83.1,141.8 C81.2,146.4 79.1,146.7 74.6,145 C67.4,142.3 60.4,138.7 53.4,135.6 C50.9,134.5 53,130.8 55.5,131.9 C61.8,134.7 68,137.5 74.3,140.3 C80.2,142.9 78.6,141.8 80.5,135.5 C84.273512,122.590617 88.1456348,109.582623 91.9205215,96.6718649 C57.221893,92.5263811 21.8758427,76.423995 0.6,49 C-0.2,48 -0.2,47 0.6,46 C27.3,13.6 73.6,-1.5 114.4,0.2 C176.5,2.8 221.9,41.3 250.2,94.5 C251.5,96.9 247.8,99.1 246.5,96.7 C221.5,49.8 183,12.8 128.7,5.7 C87.6,0.3 45.3,11.3 13.8,38.9 C10.8,41.6 8.2,45.2 5,47.5 C2.1,49.6 3.3,45.8 4.4,47.1 C11.3,55.1 19.4,62.2 28.1,68.2 C104.4,121.3 209.9,83.8 246.5,1.2 C247.6,-1.3 251.3,0.8 250.2,3.3 C229.736358,49.3653421 185.337257,85.6995469 135.63419,95.2700926 C135.506221,98.8293238 136.019179,102.56747 137.1,105.9 C138.5,110.4 141,114.5 145,117.1 C147.6,118.8 159.5,120.1 159.7,122.2 C161.1,122.4 162.5,122.6 163.9,122.8 C161.9,130.7 162,139.8 161.2,147.9 C161,150.6 156.7,150.6 157,147.9 C157.9,139.4 157.7,130 159.9,121.7 C160.6,119.3 163.9,120.1 164.1,122.3 L164.1,122.5 C164.2,123.7 163.1,124.5 162,124.6 C143.897798,125.664835 130.949571,113.985297 131.500912,96.0020049 Z M61.5,64.5 C54.5,64.5 48.8,58.8 48.8,51.8 C48.8,44.8 54.5,39 61.5,39 C68.5,39 74.2,44.7 74.2,51.7 C74.2,58.7 68.6,64.5 61.5,64.5 Z M61.5,41.8 C56,41.8 51.6,46.2 51.6,51.7 C51.6,57.2 56,61.6 61.5,61.6 C67,61.6 71.4,57.2 71.4,51.7 C71.4,46.2 67,41.8 61.5,41.8 Z M63.8553824,55.4165728 C60.430628,55.4165728 57.654316,52.6402608 57.654316,49.2155064 C57.654316,45.790752 60.430628,43.0144401 63.8553824,43.0144401 C67.2801368,43.0144401 70.0564488,45.790752 70.0564488,49.2155064 C70.0564488,52.6402608 67.2801368,55.4165728 63.8553824,55.4165728 Z" id="evolution" fill="#5BCEE0" fill-rule="nonzero"></path>
    </g>
</svg>