<?xml version="1.0" encoding="UTF-8"?>
<svg width="50px" height="48px" viewBox="0 0 50 48" version="1.1" xmlns="http://www.w3.org/2000/svg" xmlns:xlink="http://www.w3.org/1999/xlink">
    <!-- Generator: Sketch 43.1 (39012) - http://www.bohemiancoding.com/sketch -->
    <title>evolution2</title>
    <desc>Created with Sketch.</desc>
    <defs></defs>
    <g id="Page-1" stroke="none" stroke-width="1" fill="none" fill-rule="evenodd">
        <path d="M47.477,23.875 L49.789,21.094 L40.568,13.43 L31.356,21.094 L33.668,23.873 L38.761,19.637 L38.761,38.344 L26.807,38.344 L26.807,7.041 L31.909,11.281 L34.22,8.5 L24.999,0.836 L15.782,8.5 L18.094,11.28 L23.189,7.043 L23.189,38.344 L11.236,38.344 L11.236,19.637 L16.331,23.873 L18.643,21.094 L9.428,13.43 L0.21,21.094 L2.522,23.875 L7.62,19.637 L7.62,38.344 L2.784,38.344 L2.784,41.961 L47.212,41.961 L47.212,38.344 L42.376,38.344 L42.376,19.635 L47.477,23.875 Z M2.785,47.164 L47.213,47.164 L47.213,43.547 L2.785,43.547 L2.785,47.164 Z" id="evolution2" fill="#5BCEE0" fill-rule="nonzero"></path>
    </g>
</svg>