<?xml version="1.0" encoding="UTF-8"?>
<svg width="110px" height="111px" viewBox="0 0 110 111" version="1.1" xmlns="http://www.w3.org/2000/svg" xmlns:xlink="http://www.w3.org/1999/xlink">
    <!-- Generator: Sketch 43.1 (39012) - http://www.bohemiancoding.com/sketch -->
    <title>eye-net</title>
    <desc>Created with Sketch.</desc>
    <defs></defs>
    <g id="Page-1" stroke="none" stroke-width="1" fill="none" fill-rule="evenodd">
        <path d="M107.1,49.1 C110.9,52.9 110.9,59.1 107.2,62.9 C105.3,64.8 102.8,65.7 100.3,65.7 C97.8,65.7 95.3,64.8 93.4,62.9 C91.7,61.2 90.8,59.2 90.6,57 L82.4,57 C82.2,63.6 79.6,69.8 75.1,74.6 L88.3,87.9 C89.3,87.2 90.5,86.8 91.8,86.8 C93.4,86.8 94.9,87.5 96,88.6 C98.3,90.9 98.3,94.8 96,97.1 C94.9,98.3 93.3,98.9 91.8,98.9 C90.3,98.9 88.8,98.3 87.6,97.1 C86.4,96 85.8,94.5 85.8,92.9 C85.8,91.6 86.2,90.4 86.9,89.4 L73.6,76.1 C68.8,80.6 62.6,83.2 56,83.4 L56,91.6 C58.2,91.8 60.3,92.8 61.9,94.4 C65.7,98.2 65.7,104.4 61.9,108.2 C60,110.1 57.5,111 55,111 C52.5,111 50,110 48,108 C44.2,104.2 44.2,98 48,94.2 C49.7,92.6 51.8,91.6 53.9,91.4 L53.9,83.2 C47.3,83 41.1,80.4 36.3,75.9 L23.3,88.9 C24.3,91.1 23.9,93.8 22.1,95.6 C21,96.8 19.4,97.4 17.9,97.4 C16.4,97.4 14.9,96.8 13.7,95.6 C12.5,94.5 11.9,93 11.9,91.4 C11.9,89.8 12.6,88.3 13.7,87.2 C16,84.9 19.9,84.9 22.2,87.2 C22.3,87.2 22.3,87.3 22.3,87.3 L35,74.6 C30.5,69.8 27.9,63.6 27.7,57 L19.5,57 C19.3,59.2 18.3,61.3 16.7,62.9 C14.8,64.7 12.3,65.7 9.8,65.7 C7.3,65.7 4.8,64.8 2.9,62.9 C-0.9,59.1 -0.9,52.9 2.9,49.1 C6.7,45.3 12.9,45.3 16.7,49.1 C18.4,50.8 19.3,52.8 19.5,55 L27.7,55 C27.9,48.4 30.5,42.2 35,37.4 L21.4,23.8 C20.3,24.5 19.1,24.9 17.9,24.9 C16.4,24.9 14.9,24.3 13.7,23.1 C12.5,22 11.9,20.5 11.9,18.9 C11.9,17.3 12.6,15.8 13.7,14.7 C16,12.4 19.9,12.4 22.2,14.7 C24.3,16.8 24.5,20.1 22.8,22.4 L36.4,35.9 C41.2,31.4 47.4,28.8 54,28.6 L54,20.4 C51.8,20.2 49.7,19.2 48.1,17.6 C44.3,13.8 44.3,7.6 48.1,3.8 C51.9,1.69864123e-14 58.1,1.69864123e-14 61.9,3.8 C65.7,7.6 65.7,13.8 61.9,17.6 C60.2,19.2 58.1,20.2 56,20.4 L56,28.6 C62.6,28.8 68.8,31.4 73.6,35.9 L86.9,22.6 C86.2,21.6 85.8,20.4 85.8,19.1 C85.8,17.5 86.5,16 87.6,14.9 C88.7,13.7 90.2,13.1 91.8,13.1 C93.4,13.1 94.9,13.8 96,14.9 C98.3,17.2 98.3,21.1 96,23.4 C94.9,24.6 93.4,25.2 91.8,25.2 C90.5,25.2 89.3,24.8 88.3,24.1 L75,37.4 C79.5,42.2 82.1,48.4 82.3,55 L90.5,55 C90.7,52.8 91.7,50.7 93.3,49.1 C97.1,45.3 103.3,45.3 107.1,49.1 Z M72.9,73.9 C77.7,69.2 80.3,62.7 80.3,56 C80.3,49.3 77.7,42.9 72.9,38.1 C68.2,33.3 61.7,30.7 55,30.7 C48.3,30.7 41.9,33.3 37.1,38.1 C32.3,42.8 29.7,49.3 29.7,56 C29.7,62.7 32.3,69.1 37.1,73.9 C41.8,78.7 48.3,81.3 55,81.3 C61.7,81.3 68.1,78.7 72.9,73.9 Z M55,45.7 C55.1,45.7 55.1,45.7 55.1,45.6 C62.6,45.7 69.6,48.6 74.9,54 C75.3,54.4 75.3,55 74.9,55.4 C74.5,55.8 73.9,55.8 73.5,55.4 C71.6,53.5 69.5,51.9 67.2,50.7 C67.9,52.3 68.2,54 68.2,55.7 C68.2,59.2 66.9,62.4 64.4,64.9 C61.9,67.3 58.7,68.7 55.2,68.7 C51.7,68.7 48.5,67.4 46,64.9 C43.6,62.4 42.2,59.2 42.2,55.7 C42.2,53.9 42.6,52.1 43.3,50.4 C40.9,51.6 38.7,53.2 36.7,55.2 L36.5,55.4 C36.3,55.6 36.1,55.7 35.8,55.7 C35.6,55.7 35.3,55.6 35.1,55.4 C34.7,55 34.7,54.4 35.1,54 L35.3,53.8 C40.6,48.6 47.6,45.7 55,45.7 Z M66.2,55.8 C66.2,53.5 65.5,51.3 64.3,49.4 C61.4,48.3 58.3,47.7 55.2,47.7 L55,47.7 C52,47.7 49.1,48.2 46.4,49.2 C45,51.1 44.2,53.4 44.2,55.8 C44.2,58.8 45.3,61.5 47.4,63.6 C49.5,65.7 52.2,66.8 55.2,66.8 C58.2,66.8 60.9,65.7 63,63.6 C65.1,61.5 66.2,58.7 66.2,55.8 Z M51.1,59.9 C48.9,57.6 48.9,53.9 51.1,51.7 C52.2,50.6 53.7,50 55.2,50 C56.8,50 58.2,50.6 59.3,51.7 C61.5,54 61.5,57.7 59.3,59.9 C58.2,61 56.7,61.6 55.2,61.6 C53.6,61.6 52.2,61 51.1,59.9 Z M52.6,53.1 C51.1,54.6 51.1,57 52.7,58.4 C54.1,59.8 56.6,59.8 58,58.4 C59.5,57 59.5,54.6 58,53.1 C57.3,52.4 56.3,52 55.3,52 C54.3,52 53.3,52.4 52.6,53.1 Z M20.7,94.4 C22.3,92.8 22.3,90.2 20.6,88.8 C19.9,88 18.8,87.6 17.8,87.6 C16.8,87.6 15.8,88 15,88.8 C14.2,89.5 13.8,90.5 13.8,91.6 C13.8,92.6 14.2,93.6 15,94.4 C16.6,96 19.1,96 20.7,94.4 Z M94.8,61.5 C97.8,64.5 102.7,64.5 105.8,61.5 C108.8,58.5 108.8,53.6 105.8,50.6 C104.3,49.1 102.3,48.3 100.3,48.3 C98.3,48.3 96.3,49.1 94.8,50.6 C91.8,53.6 91.8,58.5 94.8,61.5 Z M87.8,19.2 C87.8,20.2 88.2,21.2 89,22.1 C89.7,22.9 90.7,23.3 91.8,23.3 C92.8,23.3 93.8,22.9 94.6,22.1 C96.2,20.5 96.2,18 94.6,16.4 C93.9,15.6 92.9,15.2 91.8,15.2 C90.8,15.2 89.8,15.6 89,16.4 C88.2,17.1 87.8,18.1 87.8,19.2 Z M60.5,5.3 C59,3.8 57,3 55,3 C53,3 51,3.8 49.6,5.3 C46.6,8.3 46.6,13.2 49.6,16.2 C52.6,19.2 57.5,19.2 60.5,16.2 C63.5,13.2 63.5,8.3 60.5,5.3 Z M20.7,16.1 C19.9,15.3 18.8,15 17.8,15 C16.8,15 15.8,15.4 15,16.2 C14.2,16.9 13.8,18 13.8,19 C13.8,20 14.2,21 15,21.8 C16.5,23.3 19.2,23.3 20.7,21.8 C22.3,20.2 22.3,17.7 20.7,16.1 Z M15.2,61.5 C18.2,58.4 18.2,53.5 15.3,50.6 C13.8,49.1 11.8,48.3 9.8,48.3 C7.8,48.3 5.8,49.1 4.3,50.6 C1.3,53.6 1.3,58.5 4.3,61.5 C7.3,64.5 12.2,64.5 15.2,61.5 Z M49.5,106.7 C52.6,109.8 57.5,109.7 60.5,106.7 C63.5,103.7 63.5,98.8 60.5,95.8 C59,94.3 57,93.5 55,93.5 C53,93.5 51,94.3 49.5,95.8 C46.5,98.8 46.5,103.7 49.5,106.7 Z M94.7,90 C93.9,89.2 92.9,88.8 91.8,88.9 C90.8,88.9 89.8,89.4 89,90.1 C88.2,90.8 87.8,91.8 87.8,92.9 C87.8,93.9 88.2,94.9 89,95.7 C90.6,97.3 93.1,97.3 94.7,95.7 C96.3,94.1 96.3,91.6 94.7,90 Z" id="eye-net" fill="#5BCEE0" fill-rule="nonzero"></path>
    </g>
</svg>