<?xml version="1.0" encoding="UTF-8"?>
<svg width="39px" height="33px" viewBox="0 0 39 33" version="1.1" xmlns="http://www.w3.org/2000/svg" xmlns:xlink="http://www.w3.org/1999/xlink">
    <!-- Generator: Sketch 43.1 (39012) - http://www.bohemiancoding.com/sketch -->
    <title>facebook-thumb</title>
    <desc>Created with Sketch.</desc>
    <defs></defs>
    <g id="Page-1" stroke="none" stroke-width="1" fill="none" fill-rule="evenodd">
        <g id="Artboard-Copy" transform="translate(-1943.000000, -555.000000)" fill-rule="nonzero" fill="#5BCEE0">
            <g id="noun_1039971_cc" transform="translate(1943.000000, 555.000000)">
                <path d="M35.3895703,13.639156 C37.0351468,13.610751 38.3928967,14.920306 38.4239579,16.5658345 C38.4000717,17.8703712 37.5213634,19.0039756 36.2639835,19.3523752 C36.602752,19.8541817 36.7834685,20.4459476 36.7828407,21.0514007 C36.8065394,22.1946221 36.1586166,23.2457975 35.1266672,23.7383394 C35.4873936,24.2673712 35.6795785,24.8931834 35.6779529,25.5334924 C35.705627,26.5901919 35.1686137,27.5817029 34.2684683,28.1358851 C34.660542,28.6336431 34.8738775,29.2487671 34.8741877,29.8823953 C34.9279129,31.3325976 33.804687,32.5560101 32.3551826,32.626084 C31.5641572,32.6492472 30.6248868,32.6932574 29.6033868,32.7419003 C29.1215909,32.7662217 28.6444277,32.7870687 28.1753715,32.8067574 C28.1203246,32.8119579 28.0650434,32.8142774 28.0097542,32.8137064 C26.6848155,32.8681401 25.4143104,32.9040431 24.2271931,32.9040431 C20.4052545,32.9040431 17.4334076,32.5253238 16.2358668,31.1297371 C14.8947138,29.5673749 12.4405659,29.5175739 11.3217803,29.5859055 L11.3217803,31.8894922 C11.3217803,32.2732737 11.0106639,32.5843901 10.6268823,32.5843901 L1.38589794,32.5843901 C1.0021164,32.5843901 0.691,32.2732737 0.691,31.8894922 L0.691,13.6785336 C0.691,13.294752 1.0021164,12.9836356 1.38589794,12.9836356 L10.6280405,12.9836356 C11.011822,12.9836356 11.3229384,13.294752 11.3229384,13.6785336 L11.3229384,14.9293499 L13.7782445,14.9293499 C15.2817639,13.5528782 16.6400683,12.0257559 17.8318158,10.3719776 C19.2345777,8.68516797 20.8488352,7.18613114 22.6347187,5.91189097 C23.2337996,5.47507762 23.8040316,5.00001327 24.3418513,4.48966653 C24.5399193,4.11349658 24.6293483,3.6896113 24.6001217,3.265488 C24.6464482,2.40728904 24.7668972,0.820605423 26.5805808,0.907467665 C27.6576726,0.964217663 29.4644072,1.62089621 29.4644072,5.38029405 C29.4644072,6.69480931 28.5564073,8.14251335 27.5140603,9.82185003 C27.234943,10.2700592 26.9465604,10.7333245 26.6639685,11.2116459 C26.2782505,11.7203077 26.1499406,12.3789652 26.3165196,12.9952173 C26.5642729,13.4689953 26.9802913,13.8329598 27.4827899,14.0155591 C28.0564641,13.7857074 28.6660227,13.6583077 29.2837338,13.639156 L35.3895703,13.639156 Z M9.93314255,31.1957524 L9.93314255,14.3722733 L2.08079587,14.3722733 L2.08079587,31.1957524 L9.93314255,31.1957524 Z M25.3888308,31.5072983 L25.3888308,31.5061401 C25.0802037,31.0598081 24.8792158,30.5480225 24.8016421,30.0109514 C24.7257331,29.3146544 24.9488291,28.6188477 25.4154686,28.0965076 C25.7161083,27.7849143 26.0847466,27.5470831 26.4925604,27.4016097 C26.1240969,26.8937956 25.8747142,26.3095277 25.7629175,25.6921607 C25.6724809,24.9195081 25.9145721,24.1448162 26.4288614,23.5611404 C26.5510767,23.4315114 26.6865508,23.3150581 26.8330604,23.2136914 C26.2889173,22.6664009 25.9175935,21.9712763 25.7652339,21.2147017 C25.673783,20.4637052 25.9091291,19.7095856 26.411489,19.1439058 C26.5692807,18.9786733 26.7475368,18.8342781 26.9419277,18.7142273 C26.3589962,18.1931209 25.9495761,17.5060389 25.7687084,16.7453498 C25.6927473,16.1009767 25.8654761,15.4518974 26.2516624,14.930508 C25.7063523,14.5975977 25.2774972,14.1040097 25.0240094,13.5175489 C24.679291,12.5011606 24.8434267,11.3810744 25.4652696,10.5063245 C25.7536522,10.0152633 26.0489839,9.54389085 26.3327339,9.0887327 C27.177186,7.99606783 27.7703462,6.73065945 28.0699787,5.38261038 C28.0699787,4.01250328 27.7966522,2.36675333 26.5018257,2.2984217 C26.0976267,2.27178395 26.0397186,2.2764166 25.9818104,3.34076861 C26.0271201,4.08569318 25.8108286,4.82305034 25.3703002,5.42546242 C24.7819841,5.99969173 24.1530137,6.53073634 23.488285,7.01446236 C21.8072632,8.21257428 20.2838673,9.61767836 18.9540759,11.1965898 C18.9170147,11.2487071 15.108974,16.3226202 13.8963771,16.3226202 L11.3229384,16.3226202 L11.3229384,28.1937933 C12.7162088,28.1196709 15.5861373,28.241278 17.2909535,30.2263698 C18.2823413,31.3799003 21.9050758,31.5733136 25.3888308,31.5072983 Z M32.3273867,31.2432371 L32.3215959,31.2478697 C32.9935749,31.1428749 33.4868095,30.5608257 33.4801276,29.8807264 C33.4734458,29.2006271 32.9688703,28.6283813 32.2949581,28.5366096 L27.7711726,28.5366096 C27.2781136,28.5460712 26.8034856,28.7256934 26.4277032,29.0450433 C26.2305162,29.2761269 26.1408322,29.5801263 26.1810145,29.8812371 C26.3027571,30.8001852 27.1081502,31.4726884 28.0340756,31.4285432 C28.5656726,31.4053799 29.0764225,31.3822167 29.5396878,31.3590534 C30.5739276,31.3057779 31.5270959,31.2606095 32.3273867,31.2432371 Z M33.1554734,27.0738495 L33.1554734,27.0738495 C33.8741541,26.9363448 34.3669451,26.2702203 34.2881571,25.5427577 C34.2881571,24.7111965 33.7577183,24.0081914 33.1299938,24.0081914 L32.2358918,24.0081914 L29.0787389,24.0522016 L28.8922746,24.0522016 C28.784761,24.0461148 28.6776627,24.034129 28.5714634,24.0162985 C28.1491626,24.0487031 27.7501156,24.2225211 27.4387797,24.5096761 C27.200638,24.7947004 27.0926965,25.1664055 27.1411318,25.5346505 C27.1480808,25.5346505 27.4607848,27.2498903 28.7625603,27.1444974 L28.7949889,27.1444974 L33.1554734,27.0738495 Z M34.0738969,22.5894414 L34.0704224,22.5882833 C34.8364219,22.4740851 35.4004962,21.8118928 35.3914404,21.0374804 C35.3823847,20.263068 34.8029798,19.6142473 34.0345193,19.5179926 L33.2238051,19.5179926 L29.4447184,19.5620028 L29.2408817,19.5620028 C29.108217,19.5556406 28.9759933,19.5421089 28.8447899,19.5214671 C28.3190448,19.5426576 27.8165385,19.7438237 27.4214073,20.0912834 C27.1955565,20.354185 27.0923626,20.7008324 27.1376573,21.0444517 C27.2775675,21.7853708 27.810397,22.3910203 28.5274532,22.6241863 C28.6062083,22.614921 28.6687491,22.614921 28.6930705,22.614921 L32.2092541,22.614921 L34.0738969,22.5894414 Z M35.4347387,18.0980844 L35.4347387,18.0980844 C36.2993756,18.1123405 37.0138189,17.4268471 37.0353202,16.56236 C37.002635,15.685045 36.267026,14.9991323 35.3895703,15.0277937 L29.2895246,15.0277937 C28.7939772,15.0440075 28.3065967,15.1585695 27.8557185,15.3648192 L27.8429787,15.3740845 C27.6800564,15.4531165 27.5322715,15.5601332 27.4063512,15.6902631 C27.1983495,15.9241339 27.1027594,16.237128 27.1446063,16.5473039 C27.3467968,17.3399352 27.9770414,17.9518276 28.7753001,18.130513 C28.8482644,18.123564 28.9061725,18.123564 28.930494,18.123564 L33.2029581,18.123564 L35.4347387,18.0980844 Z M6.00696921,29.9472524 C5.26755013,29.9472524 4.66813252,29.3478348 4.66813252,28.6084157 C4.66813252,27.8689967 5.26755013,27.269579 6.00696921,27.269579 C6.7463883,27.269579 7.3458059,27.8689967 7.3458059,28.6084157 C7.3458059,29.3478348 6.7463883,29.9472524 6.00696921,29.9472524 Z" id="facebook-thumb"></path>
            </g>
        </g>
    </g>
</svg>