<?xml version="1.0" encoding="utf-8"?>
<!-- Generator: Adobe Illustrator 21.0.2, SVG Export Plug-In . SVG Version: 6.00 Build 0)  -->
<svg version="1.1" xmlns="http://www.w3.org/2000/svg" xmlns:xlink="http://www.w3.org/1999/xlink" x="0px" y="0px"
	 viewBox="0 0 150 150" style="enable-background:new 0 0 150 150;" xml:space="preserve">
<style type="text/css">
	.st0{fill:#1F1F1F;}
	.st1{fill:none;stroke:#5BCEE0;stroke-width:2;stroke-miterlimit:10;}
	.st2{fill:#B0BEC5;stroke:#37474F;stroke-width:3;stroke-linecap:round;stroke-linejoin:round;stroke-miterlimit:10;}
	.st3{fill:#FFAB00;stroke:#37474F;stroke-width:3;stroke-linecap:round;stroke-miterlimit:10;}
	.st4{fill:#FFFFFF;stroke:#37474F;stroke-width:3;stroke-miterlimit:10;}
	.st5{fill:none;stroke:#37474F;stroke-width:3;stroke-linecap:round;stroke-linejoin:round;stroke-miterlimit:10;}
	.st6{fill:#37474F;stroke:#37474F;stroke-miterlimit:10;}
	.st7{fill:#78909C;stroke:#37474F;stroke-width:3;stroke-miterlimit:10;}
	.st8{fill:#FFAB00;stroke:#37474F;stroke-width:3;stroke-linejoin:round;stroke-miterlimit:10;}
	.st9{fill:#FFFFFF;stroke:#37474F;stroke-width:3;stroke-linecap:round;stroke-linejoin:round;stroke-miterlimit:10;}
	.st10{fill:none;}
	.st11{fill:#5BCEE0;}
	.st12{fill:#FFECB3;stroke:#37474F;stroke-width:4;stroke-linecap:round;stroke-miterlimit:10;}
	.st13{fill:#FFECB3;}
	.st14{fill:#37474F;}
	.st15{fill:#FFFFFF;}
	.st16{fill:#FFAB00;}
	.st17{fill:none;stroke:#5BCEE0;stroke-miterlimit:10;}
	.st18{fill:none;stroke:#5BCEE0;stroke-width:3;stroke-miterlimit:10;}
	.st19{fill:none;stroke:#DD5BB5;stroke-width:2;stroke-miterlimit:10;}
	.st20{fill:none;stroke:#1F1F1F;stroke-miterlimit:10;}
</style>
<g id="Layer_1">
	<g>
		<path class="st11" d="M141.2,150H8.8C4,150,0,146,0,141.2V8.8C0,4,4,0,8.8,0h132.3c4.9,0,8.8,4,8.8,8.8v132.3
			C150,146,146,150,141.2,150z M8.8,1.2c-4.2,0-7.6,3.4-7.6,7.6v132.3c0,4.2,3.4,7.6,7.6,7.6h132.3c4.2,0,7.6-3.4,7.6-7.6V8.8
			c0-4.2-3.4-7.6-7.6-7.6H8.8z"/>
		<path class="st11" d="M103.9,150H79.5V92.4H60.1V68.7h19.4V52.8c0-18.7,11.3-30.3,29.5-30.3c8.1,0,15.2,0.6,17.4,0.9l0.5,0.1v21.2
			l-12.5,0c-8.7,0-10.5,3.9-10.5,10.3v13.7h22.3l-3.1,23.7h-19.3V150z M80.7,148.8h21.9V91.1H122l2.7-21.2h-22.1V55
			c0-6,1.4-11.6,11.7-11.6l11.3,0V24.5c-2.6-0.3-9.2-0.8-16.7-0.8c-17.7,0-28.3,10.9-28.3,29.1v17.2H61.3v21.2h19.4V148.8z"/>
	</g>
</g>
<g id="Layer_2_1_">
</g>
</svg>
