<?xml version="1.0" encoding="UTF-8"?>
<svg width="68px" height="72px" viewBox="0 0 68 72" version="1.1" xmlns="http://www.w3.org/2000/svg" xmlns:xlink="http://www.w3.org/1999/xlink">
    <!-- Generator: Sketch 43.1 (39012) - http://www.bohemiancoding.com/sketch -->
    <title>feature-film</title>
    <desc>Created with Sketch.</desc>
    <defs>
        <linearGradient x1="30.2694515%" y1="30.2694515%" x2="100%" y2="100%" id="linearGradient-1">
            <stop stop-color="#5BCEE0" offset="0%"></stop>
            <stop stop-color="#AAFFA4" offset="100%"></stop>
        </linearGradient>
    </defs>
    <g id="Page-1" stroke="none" stroke-width="1" fill="none" fill-rule="evenodd">
        <path d="M62.2858711,42.4285714 C62.6788677,42.4285714 63.0728062,42.3384835 63.435669,42.1570522 C64.3723319,41.6887208 67.4285714,39.4897287 67.4285714,30.8571429 C67.4285714,13.55399 52.74503,0 34,0 C15.25497,0 0.571428571,13.55399 0.571428571,30.8571429 C0.571428571,38.2843715 3.32978174,42.2416468 3.64430449,42.6683872 C4.08878003,43.2715366 4.77416989,43.6507218 5.52124009,43.7070662 C5.58574566,43.7119316 5.65025123,43.7142857 5.71444257,43.7142857 L5.71428571,43.7142857 L5.71428571,54 C5.71428571,61.1007778 11.4706507,66.8571429 18.5714286,66.8571429 L18.5714286,72 L49.4285714,72 L49.4285714,66.8571429 C56.5293493,66.8571429 62.2857143,61.1007778 62.2857143,54 C62.2857143,54 62.2857143,42.4285714 62.2858711,42.4285714 Z M0.571428571,30.8571429 C0.571428571,38.2843273 3.32975217,42.2416029 3.64425563,42.6683823 C4.08873117,43.2715122 4.77415034,43.6507709 5.5212208,43.7070366 C6.39369237,43.7142955 7.04855603,43.4451549 7.53257243,42.9611385 C7.74393177,42.7497547 12.1291442,38.2653563 13.1960834,29.5790649 C15.199342,30.3076597 17.6744636,30.8571429 21.1428571,30.8571429 C26.6901486,30.8571429 32.3067616,29.4766444 37.7384514,28.1416119 C42.8171365,26.8933369 47.6141794,25.7142857 52,25.7142857 C58.4849353,25.7142857 59.7142857,30.6848317 59.7142857,39.8571429 C59.7142857,40.7483499 60.1757311,41.5759883 60.9338467,42.0445306 C61.3467561,42.2997323 61.8156762,42.4285763 62.2858321,42.4285763 C62.678868,42.4285763 63.0727473,42.3385717 63.4356885,42.1571062 C64.3723712,41.6887452 67.4285714,39.4897631 67.4285714,30.8571429 C67.4285714,13.5540769 52.7449907,0 34,0 C15.2550093,0 0.571428571,13.5540769 0.571428571,30.8571429 Z M4.67968737,41.90625 C4.56417417,41.748047 1.85714286,37.9938615 1.85714286,30.8571429 C1.85714286,14.274693 15.9761441,1.28571429 34,1.28571429 C52.0251115,1.28571429 66.1428571,14.274693 66.1428571,30.8571429 C66.1428571,38.9556363 63.408203,40.7335379 62.8607701,41.0072544 C62.6799665,41.0976563 62.4815849,41.1428571 62.2857143,41.1428571 C62.0496651,41.1428571 61.8161272,41.077567 61.6102121,40.9520088 C61.2310269,40.7159599 61,40.3016184 61,39.8571429 C61,31.7260044 60.311942,24.4285714 52,24.4285714 C47.4573102,24.4285714 42.5881698,25.6251394 37.4327566,26.8932757 C32.0739398,28.2103794 26.5343192,29.5714286 21.1428571,29.5714286 C16.8939731,29.5714286 14.2848772,28.7339565 12.0788227,27.7332588 C11.4761441,37.0923547 6.83426346,41.8409596 6.62332609,42.0518973 C6.38099877,42.2929687 6.05454794,42.4285714 5.71428571,42.4285714 C5.24469863,42.3959261 4.90192514,42.2075893 4.67968737,41.90625 Z M34,2.57142857 C51.3019171,2.57142857 64.8571429,14.9953888 64.8571429,30.8571429 C64.8571429,38.5714286 62.2857143,39.8571429 62.2857143,39.8571429 C62.2857143,33.505174 62.2857143,23.1428571 52,23.1428571 C42.4324777,23.1428571 31.4285714,28.2857143 21.1428571,28.2857143 C16,28.2857143 13.4285714,27 10.8571429,25.7142857 C10.8571429,36 5.71428571,41.1428571 5.71428571,41.1428571 C5.71428571,41.1428571 3.14285714,37.6536091 3.14285714,30.8571429 C3.14285714,14.9953888 16.698093,2.57142857 34,2.57142857 L34,2.57142857 Z M46.8571429,69.4285714 L21.1428571,69.4285714 L21.1428571,66.8571429 L46.8571429,66.8571429 L46.8571429,69.4285714 Z M59.7142857,54 C59.7142857,59.6716133 55.1001847,64.2857143 49.4285714,64.2857143 L18.5714286,64.2857143 C12.8998153,64.2857143 8.28571429,59.6716133 8.28571429,54 L8.28571429,42.0878384 C9.63028394,40.3959438 12.37922,36.230399 13.196132,29.5789621 C15.1994107,30.3076695 17.6744734,30.8571429 21.1428571,30.8571429 C26.6901681,30.8571429 32.3068498,29.4766323 37.7384905,28.1416364 C42.817156,26.8932757 47.6142578,25.7142857 52,25.7142857 C58.4849155,25.7142857 59.7142857,30.6848145 59.7142857,39.8571429 L59.7142857,54 Z M26.2857143,41.1428571 C27.7058751,41.1428571 28.8571429,39.9915894 28.8571429,38.5714286 C28.8571429,37.1512678 27.7058751,36 26.2857143,36 C24.8655535,36 23.7142857,37.1512678 23.7142857,38.5714286 C23.7142857,39.9915894 24.8655535,41.1428571 26.2857143,41.1428571 Z M41.7142857,41.1428571 C43.1344465,41.1428571 44.2857143,39.9915894 44.2857143,38.5714286 C44.2857143,37.1512678 43.1344465,36 41.7142857,36 C40.2941249,36 39.1428571,37.1512678 39.1428571,38.5714286 C39.1428571,39.9915894 40.2941249,41.1428571 41.7142857,41.1428571 Z M43.3766742,47.9481027 C41.1643415,50.1604352 37.7466517,51.4285714 34,51.4285714 C30.2533483,51.4285714 26.8356585,50.1604352 24.6233258,47.9481027 C24.1210937,47.4458706 23.3074775,47.4458706 22.8052456,47.9481027 C22.3030137,48.4503349 22.3030135,49.2639511 22.8052456,49.766183 C25.4946986,52.4568916 29.5753349,54 34,54 C38.4246651,54 42.5053014,52.4568916 45.1947544,49.766183 C45.6969865,49.2639508 45.6969865,48.4503346 45.1947544,47.9481027 C44.6925223,47.4458709 43.8789063,47.4458706 43.3766742,47.9481027 Z" id="feature-film" fill="url(#linearGradient-1)" fill-rule="nonzero"></path>
    </g>
</svg>