<?xml version="1.0" encoding="utf-8"?>
<!-- Generator: Adobe Illustrator 21.0.2, SVG Export Plug-In . SVG Version: 6.00 Build 0)  -->
<svg version="1.1" xmlns="http://www.w3.org/2000/svg" xmlns:xlink="http://www.w3.org/1999/xlink" x="0px" y="0px"
	 viewBox="0 0 453.4 150" style="enable-background:new 0 0 453.4 150;" xml:space="preserve">
<style type="text/css">
	.st0{fill:#1F1F1F;}
	.st1{fill:none;stroke:#5BCEE0;stroke-width:2;stroke-miterlimit:10;}
	.st2{fill:#B0BEC5;stroke:#37474F;stroke-width:3;stroke-linecap:round;stroke-linejoin:round;stroke-miterlimit:10;}
	.st3{fill:#FFAB00;stroke:#37474F;stroke-width:3;stroke-linecap:round;stroke-miterlimit:10;}
	.st4{fill:#FFFFFF;stroke:#37474F;stroke-width:3;stroke-miterlimit:10;}
	.st5{fill:none;stroke:#37474F;stroke-width:3;stroke-linecap:round;stroke-linejoin:round;stroke-miterlimit:10;}
	.st6{fill:#37474F;stroke:#37474F;stroke-miterlimit:10;}
	.st7{fill:#78909C;stroke:#37474F;stroke-width:3;stroke-miterlimit:10;}
	.st8{fill:#FFAB00;stroke:#37474F;stroke-width:3;stroke-linejoin:round;stroke-miterlimit:10;}
	.st9{fill:#FFFFFF;stroke:#37474F;stroke-width:3;stroke-linecap:round;stroke-linejoin:round;stroke-miterlimit:10;}
	.st10{fill:none;}
	.st11{fill:#5BCEE0;}
	.st12{fill:#FFECB3;stroke:#37474F;stroke-width:4;stroke-linecap:round;stroke-miterlimit:10;}
	.st13{fill:#FFECB3;}
	.st14{fill:#37474F;}
	.st15{fill:#FFFFFF;}
	.st16{fill:#FFAB00;}
	.st17{fill:none;stroke:#5BCEE0;stroke-miterlimit:10;}
	.st18{fill:none;stroke:#5BCEE0;stroke-width:3;stroke-miterlimit:10;}
	.st19{fill:none;stroke:#DD5BB5;stroke-width:2;stroke-miterlimit:10;}
	.st20{fill:none;stroke:#1F1F1F;stroke-miterlimit:10;}
</style>
<g id="Layer_1">
	<g>
		<path class="st11" d="M235.3,116.6c-3.2,0-6.3-0.3-8.7-0.9c-17.2-4.2-28.7-19-28.7-37c0-17.2,10.3-31.1,26.8-36.4
			c1.6-0.5,5.5-1,8.9-1.2c12-0.7,21.1,2.7,29.3,11l0,0c7.6,7.7,10.9,15.6,10.9,26.6c0,11-3.3,19-10.9,26.6
			c-5.6,5.6-10.1,8.3-17.2,10.1C242.8,116.2,239,116.6,235.3,116.6z M236.5,43c-0.9,0-1.8,0-2.7,0.1c-3.2,0.2-7,0.7-8.4,1.1
			c-15.7,5-25.5,18.3-25.5,34.6c0,17,10.9,31.1,27.2,35c4.8,1.2,13,1.1,18.2-0.3c6.7-1.7,10.9-4.2,16.3-9.6
			c7.2-7.2,10.3-14.7,10.3-25.2c0-10.6-3-17.9-10.3-25.2C254.5,46.3,246.6,43,236.5,43z M235.8,102.1c-3.5,0-6.8-0.9-10-2.7
			c-10.7-5.8-14.8-20.6-8.9-32.2c5.2-10.2,17.2-14.5,27.9-10c3.7,1.5,8.7,6.7,10.7,11.1c1.6,3.5,1.8,4.6,1.8,10.4
			c0,5.8-0.2,6.9-1.8,10.4l0,0c-2.3,4.9-7.7,10.1-12,11.6C240.8,101.7,238.3,102.1,235.8,102.1z M236,57.5c-7.2,0-14,3.9-17.4,10.7
			c-5.4,10.7-1.7,24.3,8.1,29.6c5.1,2.8,10.4,3.1,16.2,1.2c3.9-1.3,8.9-6.2,10.9-10.6c1.5-3.2,1.6-4.1,1.6-9.6
			c0-5.5-0.2-6.4-1.6-9.5c-1.8-3.9-6.4-8.8-9.7-10.1C241.4,58,238.7,57.5,236,57.5z"/>
		<path class="st11" d="M59.7,116.6c-4.7,0-9.4-0.3-12-0.9h0C26,111,9.1,95.8,2.6,75.1c-4.7-14.8-3-30.5,4.7-44.4
			C15.2,16.4,29,5.8,45.1,1.6c12.4-3.2,28.4-1.5,39.8,4.1c3.8,1.9,11.2,7,12.9,8.8l1.8,2L87.9,29.2l-4.5-3.4
			c-7.2-5.4-14.6-7.8-24-7.8c0,0-0.1,0-0.1,0c-7.1,0-11.9,1.1-18.3,4.2c-4,1.9-5.8,3.3-9.9,7.4c-4.2,4.2-5.5,5.9-7.7,10.5
			c-6.4,13.2-5.9,27.3,1.5,39.8c10.6,17.9,34,24.5,53.3,15.1c5-2.5,11.3-8.3,13.5-12.6c1.8-3.6,3.9-10.4,3.9-12.1v-0.4H58.1V52.2
			h54.6l0.6,2.6c0.8,3.6,0.4,15.9-0.6,20.9c-4.4,20.9-19.9,35.9-41.4,40.1C68.5,116.3,64.1,116.6,59.7,116.6z M48.1,113.8
			c4.9,1.1,17.5,1.1,22.8,0.1c20.8-4,35.7-18.4,39.9-38.6c1-4.7,1.3-16.7,0.6-20.1l-0.2-1.1H60.1v13.5h37.5v2.4
			c0,2.3-2.4,9.6-4.1,13c-2.3,4.6-8.9,10.8-14.4,13.5c-20.2,9.9-44.8,2.9-55.8-15.8c-7.7-13-8.2-27.8-1.5-41.6
			c2.3-4.8,3.7-6.7,8.1-11c4.2-4.2,6.3-5.8,10.5-7.8c6.6-3.2,11.6-4.3,19.1-4.4c0,0,0.1,0,0.1,0c9.7,0,17.7,2.6,25.2,8.2l3.1,2.3
			l9.2-9.9l-0.6-0.7c-1.6-1.7-8.9-6.7-12.4-8.4C73,2,57.6,0.4,45.5,3.5C30,7.5,16.7,17.8,9,31.6C1.6,45,0,60.2,4.5,74.5
			C10.8,94.6,27.1,109.3,48.1,113.8L48.1,113.8z"/>
		<path class="st11" d="M378.4,114.3h-18V4h18V114.3z M362.4,112.3h14.1V6h-14.1V112.3z"/>
		<path class="st11" d="M153.9,116.4c-2.2,0-4.1-0.1-5.6-0.4c-14.2-2.5-26.1-13.6-29.7-27.5c-1.3-5.2-1.3-14.3,0-19.5
			c3.2-12.4,13.3-22.8,25.8-26.5c13.1-3.8,28.3,0,37.8,9.6c7.4,7.4,10.8,15.9,10.8,26.6c0,3.5-0.4,7.3-1,9.8
			c-3.3,12.6-13.3,22.8-26,26.5C163.1,115.9,158.2,116.4,153.9,116.4z M154.7,43c-3.3,0-6.7,0.5-9.9,1.4
			c-11.8,3.5-21.4,13.3-24.4,25.1c-1.3,4.9-1.3,13.6,0,18.6c3.4,13.2,14.7,23.6,28.2,26c4.1,0.7,12.9,0.3,16.7-0.9
			c11.9-3.5,21.6-13.4,24.6-25.2c0.6-2.3,1-5.9,1-9.3c0-10.2-3.3-18.2-10.3-25.2v0C174,46.8,164.3,43,154.7,43z M155.2,102.3
			c-4.4,0-8.8-1.2-12.1-3.6c-3.2-2.3-6.8-6.8-8.2-10.5c-2-5-2-13.8,0-18.8c1.9-4.8,6.6-9.9,11.2-12.1c3.1-1.5,4.4-1.7,9.2-1.7
			c4.8,0,6.1,0.2,9.2,1.7c4.6,2.2,9.3,7.3,11.2,12.1c2,5.1,2,13.8,0,18.9l0,0c-1.9,4.8-6.6,9.9-11.2,12.1
			C161.6,101.6,158.4,102.3,155.2,102.3z M155.2,57.5c-4.5,0-5.5,0.2-8.3,1.5c-4.1,2-8.5,6.7-10.2,11c-1.8,4.6-1.8,12.8,0,17.4
			c1.3,3.3,4.6,7.5,7.5,9.6c5.2,3.7,13.3,4.3,19.3,1.4c4.1-1.9,8.5-6.7,10.2-11l0,0c1.8-4.6,1.8-12.8,0-17.4c-1.7-4.3-6.1-9-10.2-11
			C160.7,57.7,159.7,57.5,155.2,57.5z"/>
		<path class="st11" d="M419.9,116.4c-2.1,0-4.1-0.1-5.5-0.4c-13.4-2.4-24.3-12.2-28.4-25.7c-1.2-3.8-1.4-5.9-1.4-12.2
			c0-6.6,0.3-8.2,1.7-12.5c4-11.5,11.5-19.2,22.4-23c5.8-2,15.2-2,21,0c9,3.1,15.7,9.4,20.7,19.3c1.4,2.8,3.1,6.3,3,7
			c0,0.7,0,1.2-22.2,10.4l-6.4,2.6c-13.3,5.5-19.1,7.8-20.4,8.7c0,0.1,0.1,0.1,0.1,0.2c1.4,2.6,5.8,6.6,8.6,7.9
			c2.4,1.1,3.8,1.3,8.3,1.3c0,0,0,0,0.1,0c6.7,0,9.5-1.2,14.3-6l3.9-3.9l6.6,4.4c6.4,4.2,6.4,4.6,6.4,5.1c0,0.4,0,0.8-4.6,5.5
			c-4.7,4.8-10.2,8.1-16.3,9.9C429.1,115.9,424.1,116.4,419.9,116.4z M419.3,43.2c-3.6,0-7.3,0.5-9.9,1.4
			c-10.3,3.6-17.4,10.9-21.2,21.8c-1.4,4-1.6,5.5-1.6,11.9c0,6.1,0.2,8,1.3,11.6c4,12.7,14.3,22,26.9,24.3c4,0.7,12.7,0.3,16.6-0.9
			c5.8-1.7,11-4.9,15.5-9.4c1.8-1.8,3.1-3.2,3.7-3.9c-0.9-0.7-2.7-2-5.2-3.6l-5.3-3.5l-2.8,2.8c-5.2,5.2-8.5,6.6-15.7,6.6
			c0,0,0,0-0.1,0c-4.8,0-6.4-0.3-9.1-1.5c-3.2-1.4-7.9-5.8-9.5-8.7c0-0.1-0.1-0.2-0.1-0.2c-0.2-0.3-0.5-0.8-0.3-1.4
			c0.4-1.3,1.2-1.6,21.8-10.1l6.4-2.6c10.5-4.3,18.7-7.9,20.8-9c-0.4-0.9-1.3-2.9-2.7-5.7c-4.7-9.4-11.1-15.4-19.5-18.3
			C426.4,43.6,422.8,43.2,419.3,43.2z M401,78.6h-0.4l-0.4-0.4c-0.2-0.2-0.7-0.8-0.4-4.2c0.9-10.4,9.9-18.8,19.9-18.8
			c6.6,0,11.7,2.3,14.1,6.4c0.1,0.2,0.2,0.3,0.3,0.4c0.3,0.4,0.7,1,0.5,1.7c-0.4,1.3-1.8,1.9-12.8,6.4l-4.8,2
			C401.7,78.6,401.2,78.6,401,78.6z M419.7,57.2c-9,0-17.1,7.6-17.9,17c-0.1,0.9-0.1,1.6-0.1,2.1c2.1-0.8,7.7-3,14.6-5.9l4.8-2
			c6.9-2.8,10.6-4.4,11.5-5.1c0,0-0.1-0.1-0.1-0.1c-0.1-0.2-0.3-0.4-0.4-0.6C430.1,59.2,425.6,57.2,419.7,57.2z"/>
		<path class="st11" d="M315.8,150c-2.8,0-5.7-0.3-8.5-0.9c-7.1-1.5-14-5.7-19-11.4c-1.5-1.7-6.3-8.8-6.3-10.1
			c0-1.7,13.9-6.7,14.1-6.7c0.4-0.1,1.2-0.3,1.6,0.3c5.2,8.2,8.4,10.8,14.8,12c6.1,1.2,14.4-1.6,17.6-5.9c2.6-3.4,3.8-7.5,4.1-14.1
			l0.2-3.9l-0.4,0.4c-6.8,6-16.2,8.3-25.8,6.3c-4.9-1-12.6-5-16.5-8.5c-6-5.3-10.6-13.5-12.1-21.3c-1-5.3-0.4-14.6,1.3-19.5
			c2.8-8,8.2-15.1,14.9-19.6c5.8-3.9,10.9-5.6,17.5-6.1c8.2-0.5,15,1.7,20.7,6.7l0.4,0.4v-4.9l17.5,0l-0.2,41.2
			c-0.2,38.7-0.2,38.7-4.3,47l-0.3,0.5C341.6,143.2,329.2,150,315.8,150z M284,128c0.8,1.6,3.9,6.5,5.6,8.4
			c4.7,5.4,11.3,9.3,18,10.8c15.6,3.4,31.4-3.3,37.6-15.9l0.3-0.5c3.9-8,3.9-8,4.1-46.2l0.2-39.2l-13.6,0v7.3l-3.7-3.2
			c-5.3-4.7-11.6-6.7-19.2-6.2c-6.2,0.4-11,2-16.6,5.7c-6.4,4.3-11.5,11-14.1,18.6c-1.6,4.6-2.2,13.5-1.2,18.5
			c1.4,7.4,5.9,15.1,11.5,20.2c3.7,3.3,11,7.1,15.6,8c9,1.8,17.7-0.3,24.1-5.8l3.9-3.4l-0.4,8.5c-0.3,7-1.6,11.4-4.5,15.2
			c-3.7,4.9-12.7,7.9-19.6,6.6c-6.9-1.3-10.5-4.1-15.7-12.3C294,123.5,286.1,126.8,284,128z M316.5,102.2c-7.8,0-15.2-4.6-19.2-12.7
			c-1.9-3.9-2-4.6-2-10.4c0-4.9,0.3-6.9,1.4-9.7c2-5.1,6.5-9.8,11.4-12c5.1-2.3,10.6-2.5,15.6-0.5c5.3,2.2,9.5,6.6,11.9,12.5
			c1.1,2.9,1.4,4.9,1.4,9.7c0,5.6-0.2,6.6-1.9,10.3l0,0c-2.5,5.3-5.7,8.8-10,10.8C322.3,101.6,319.4,102.2,316.5,102.2z M316.6,57.4
			c-2.6,0-5.2,0.6-7.6,1.7c-4.4,2-8.6,6.4-10.4,10.9c-1,2.6-1.3,4.4-1.3,9c0,5.4,0.1,5.9,1.8,9.5c5,10.1,15.8,14.3,25.3,9.9
			c3.8-1.8,6.7-5,9-9.9l0,0c1.6-3.5,1.8-4.2,1.7-9.5c0-4.6-0.3-6.4-1.3-9c-2.1-5.4-6-9.4-10.8-11.4C321,57.9,318.8,57.4,316.6,57.4z
			"/>
	</g>
</g>
<g id="Layer_2_1_">
</g>
</svg>
