<?xml version="1.0" encoding="utf-8"?>
<!-- Generator: Adobe Illustrator 21.1.0, SVG Export Plug-In . SVG Version: 6.00 Build 0)  -->
<svg version="1.1"
	 id="Layer_1" xmlns:cc="http://creativecommons.org/ns#" xmlns:dc="http://purl.org/dc/elements/1.1/" xmlns:inkscape="http://www.inkscape.org/namespaces/inkscape" xmlns:rdf="http://www.w3.org/1999/02/22-rdf-syntax-ns#" xmlns:sodipodi="http://sodipodi.sourceforge.net/DTD/sodipodi-0.dtd" xmlns:svg="http://www.w3.org/2000/svg"
	 xmlns="http://www.w3.org/2000/svg" xmlns:xlink="http://www.w3.org/1999/xlink" x="0px" y="0px" viewBox="0 0 100 76.7"
	 style="enable-background:new 0 0 100 76.7;" xml:space="preserve">
<style type="text/css">
	.st0{fill:#2F4D70;}
	.st1{fill:#EFEFEF;}
</style>
<circle class="st0" cx="52.5" cy="46.6" r="11"/>
<g transform="translate(0,-952.36218)">
	<path class="st1" d="M45.8,959.9c-0.7,0.1-1.3,0.5-1.6,1.1l-3.7,7.3c-11.8,3.8-20.3,12.2-24.5,22.8c0,0,0,0,0,0.1s0,0.1-0.1,0.2
		c-1.7,4.4-2.7,9.1-2.9,14l-5.7,1.6c-0.9,0.3-1.4,1-1.4,1.9v9c0,1.1,0.9,2,2,2h42h42c1.1,0,2-0.9,2-2v-9c0-0.9-0.6-1.7-1.4-1.9
		l-5.7-1.6c-0.6-16.8-10.7-31.7-27.4-37l-3.7-7.3c-0.3-0.7-1-1.1-1.8-1.1h-4h-4C45.9,959.9,45.9,959.9,45.8,959.9z M47.2,963.9H50
		h2.8l3.4,6.9c0.2,0.5,0.7,0.9,1.2,1c10.1,3,17.5,9.6,21.7,18.1H62.7c-2.7-4.2-7.3-7-12.7-7s-10,2.8-12.7,7H20.8
		c4.2-8.5,11.6-15.1,21.7-18.1c0.5-0.2,1-0.5,1.2-1L47.2,963.9z M50,986.9c6.1,0,11,4.9,11,11s-4.9,11-11,11s-11-4.9-11-11
		C39,991.8,43.9,986.9,50,986.9z M19.2,993.9h16.4c-0.4,1.3-0.5,2.6-0.5,4s0.2,2.7,0.5,4H17.3C17.7,999.1,18.3,996.5,19.2,993.9z
		 M64.5,993.9h16.4c0.9,2.6,1.5,5.2,1.8,8H64.5c0.4-1.3,0.5-2.6,0.5-4S64.8,995.2,64.5,993.9z M54.8,994.9c-1,0.1-1.8,1-1.8,2
		c0,2.2-1.8,4-4,4c-1.1,0-2,0.9-2,2s0.9,2,2,2c0,0,0,0,0.1,0c4.4,0,8-3.6,8-8c0-1.1-0.9-2-2-2C55,994.9,54.9,994.9,54.8,994.9z
		 M17,1005.9h20.3c2.7,4.2,7.3,7,12.7,7s10-2.8,12.7-7H83c0,0.3,0,0.7,0,1c0,0.9,0.6,1.7,1.4,1.9l5.6,1.6v5.5H50H10v-5.5l5.6-1.6
		c0.8-0.2,1.4-1,1.4-1.9C17,1006.6,17,1006.3,17,1005.9z"/>
</g>
</svg>
