<svg id="Layer_1" data-name="Layer 1" xmlns="http://www.w3.org/2000/svg" viewBox="0 0 363.9 150"><defs><style>.cls-1{fill:#5bcee0;}</style></defs><title>icons</title><path class="cls-1" d="M179.21,148.31H113.74V1.53H176c12.12,0,43.59,6.84,43.59,38.08,0,24.72-11.62,32.32-19.94,34.58,6,2.38,18.24,8.92,18.24,30.52,0,14.44-4,25.62-12,33.21C195.73,147.69,182.43,148.31,179.21,148.31ZM116,146h62.51c.21,0,15.08.52,25.81-9.76,7.45-7.14,11.23-17.74,11.23-31.52,0-22.34-13.88-27.35-18.45-29-1.42-.51-2.27-.82-2.19-1.87s1.18-1.26,2.06-1.42C204.59,71,217.29,65,217.29,39.6c0-29.34-29.8-35.77-41.29-35.77H116Zm-8.49,2.31H65.36V94.83H42.2V148.3H0V1.53H42.2V56H65.36V1.53h42.2ZM67.67,146h37.59V3.84H67.67V58.33H39.89V3.84H2.31V146H39.89V92.52H67.67Zm82.88-31.64h-1.15V90h22.37c.1,0,9.64.13,9.64,11.34,0,11.94-9.43,13-9.53,13ZM151.7,112h20.07c.18,0,7.34-.93,7.34-10.73,0-8.87-7-9-7.34-9H151.7Zm-1.15-51.17h-1.15V36.75h22.37a10.07,10.07,0,0,1,6.55,2.76c2.06,2,3.1,5,3.1,8.75,0,11.33-9.41,12.59-9.51,12.61Zm1.15-2.31h20.07c.16,0,7.34-1.06,7.34-10.31,0-3.13-.81-5.53-2.41-7.11a7.57,7.57,0,0,0-4.91-2.09H151.7Z"/><path class="cls-1" d="M288.9,150a75,75,0,1,1,75-75A75.08,75.08,0,0,1,288.9,150Zm0-147.69A72.69,72.69,0,1,0,361.59,75,72.77,72.77,0,0,0,288.9,2.31Z"/><path class="cls-1" d="M288.9,105.86A30.86,30.86,0,1,1,319.76,75,30.9,30.9,0,0,1,288.9,105.86Zm0-59.42A28.55,28.55,0,1,0,317.45,75,28.59,28.59,0,0,0,288.9,46.45Z"/></svg>