<?xml version="1.0" encoding="UTF-8"?>
<svg width="71px" height="80px" viewBox="0 0 71 80" version="1.1" xmlns="http://www.w3.org/2000/svg" xmlns:xlink="http://www.w3.org/1999/xlink">
    <!-- Generator: Sketch 43.1 (39012) - http://www.bohemiancoding.com/sketch -->
    <title>headphones</title>
    <desc>Created with Sketch.</desc>
    <defs>
        <linearGradient x1="30.2694515%" y1="30.2694515%" x2="85.9749543%" y2="85.9749543%" id="linearGradient-1">
            <stop stop-color="#5BCEE0" offset="0%"></stop>
            <stop stop-color="#FF5454" offset="100%"></stop>
        </linearGradient>
    </defs>
    <g id="Page-1" stroke="none" stroke-width="1" fill="none" fill-rule="evenodd">
        <g id="Artboard-Copy" transform="translate(-2170.000000, -383.000000)" fill-rule="nonzero" fill="url(#linearGradient-1)">
            <path d="M2238.8,433.9 C2239.7,430.5 2240.2,421.3 2240.2,418 C2240.2,398.8 2224.6,383.3 2205.5,383.3 C2186.4,383.3 2170.7,398.9 2170.7,418 C2170.7,421.3 2171.2,430.5 2172.1,433.9 C2171.7,434.2 2171.4,434.5 2171.2,435 C2170.8,435.8 2170.6,436.8 2170.8,437.9 L2173.7,456.3 C2173.9,457.3 2174.3,458.2 2175,458.9 C2175.6,459.5 2176.4,459.8 2177.2,459.8 L2177.6,459.8 L2179.7,459.5 C2180.3,461.3 2182,462.6 2183.9,462.6 C2184.1,462.6 2184.4,462.6 2184.6,462.5 L2190.6,461.6 C2191.8,461.4 2192.8,460.8 2193.5,459.8 C2194.2,458.8 2194.5,457.7 2194.3,456.5 L2190.1,429.7 C2189.7,427.3 2187.4,425.6 2185,426 L2179,427 C2176.6,427.4 2174.9,429.7 2175.3,432.1 L2175.5,433.1 L2174,433.3 C2173.2,430.2 2172.7,421.7 2172.7,418.1 C2172.7,400 2187.4,385.4 2205.4,385.4 C2223.4,385.4 2238.2,400 2238.2,418 C2238.2,421.6 2237.7,430.1 2236.9,433.2 L2235.5,433 L2235.7,432 C2236.1,429.6 2234.4,427.3 2232,426.9 L2226,426 C2223.6,425.6 2221.3,427.3 2220.9,429.7 L2216.7,456.5 C2216.5,457.7 2216.8,458.8 2217.5,459.8 C2218.2,460.8 2219.2,461.4 2220.4,461.6 L2226.4,462.5 C2226.6,462.5 2226.9,462.6 2227.1,462.6 C2229,462.6 2230.7,461.3 2231.3,459.5 L2233.4,459.8 L2233.8,459.8 C2235.5,459.8 2237,458.3 2237.3,456.3 L2240.2,437.9 C2240.4,436.9 2240.2,435.9 2239.8,435 C2239.4,434.6 2239.1,434.2 2238.8,433.9 Z M2179.3,428.9 L2185.3,428 L2185.7,428 C2186.9,428 2187.9,428.9 2188.1,430.1 L2192.3,456.9 C2192.4,457.5 2192.2,458.2 2191.9,458.7 C2191.5,459.2 2190.9,459.6 2190.3,459.7 L2184.3,460.6 C2183,460.8 2181.7,459.9 2181.5,458.6 L2177.3,431.8 C2177,430.4 2178,429.1 2179.3,428.9 Z M2179.3,457.5 L2177.3,457.8 C2176.9,457.9 2176.6,457.6 2176.4,457.4 C2176,457.1 2175.8,456.5 2175.7,455.9 L2172.8,437.5 C2172.7,436.9 2172.8,436.3 2173,435.9 C2173.1,435.7 2173.4,435.3 2173.8,435.3 L2175.8,435 L2179.3,457.5 Z M2229.5,458.5 C2229.3,459.8 2228,460.7 2226.7,460.5 L2220.7,459.6 C2220.1,459.5 2219.5,459.2 2219.1,458.6 C2218.7,458.1 2218.6,457.4 2218.7,456.8 L2222.8,430 C2223,428.8 2224,428 2225.2,428 L2225.6,428 L2231.6,428.9 C2232.9,429.1 2233.8,430.4 2233.6,431.7 L2229.5,458.5 Z M2238.2,437.6 L2235.3,456 C2235.1,457.1 2234.4,457.9 2233.7,457.8 L2231.7,457.5 L2235.2,435 L2237.2,435.3 C2237.6,435.4 2237.8,435.7 2238,435.9 C2238.2,436.4 2238.2,437 2238.2,437.6 Z" id="headphones"></path>
        </g>
    </g>
</svg>