<?xml version="1.0" encoding="utf-8"?>
<!-- Generator: Adobe Illustrator 21.1.0, SVG Export Plug-In . SVG Version: 6.00 Build 0)  -->
<svg version="1.1" id="Layer_1" xmlns="http://www.w3.org/2000/svg" xmlns:xlink="http://www.w3.org/1999/xlink" x="0px" y="0px"
	 viewBox="0 0 93 109" style="enable-background:new 0 0 93 109;" xml:space="preserve">
<style type="text/css">
	.st0{fill:#2F4D70;}
	.st1{fill:#EFEFEF;}
</style>
<g>
	<path class="st0" d="M17.5,92.9c-1.5-0.5-2.3-2-1.8-3.5c2.3-7.7,10.6-29.2,31.4-27.8C67.4,63,75.6,81.7,78,89
		c0.5,1.6-0.4,3.3-2.1,3.7c-7.4,1.7-13.9,2.6-18.8,3.1c-10.1,1-21.8,2-36-1.8C19.8,93.6,18.6,93.2,17.5,92.9z"/>
	<path class="st0" d="M39.6,38.7c-1,0.2-1.5,1.3-1.1,2.2c1,2.4,3.4,6.4,8.4,6.1c4.7-0.3,7.1-3.7,8.2-5.9c0.5-1-0.1-2.1-1.2-2.3
		C50.9,38.2,44.9,37.4,39.6,38.7z"/>
</g>
<path class="st1" d="M57,59.1c0,0-4.6-1.8-4.6-5.6s4.5-5.6,4.5-5.6C75.2,42,78.1,22.3,78.4,19.7c0-0.1,0-0.1,0-0.2v-0.1l0,0v-0.1
	c0-7.5-30.3-7.5-31.6-7.5s-31.6,0.1-31.6,7.5v0.1l0,0c0,0,0,0,0,0.1s0,0.1,0,0.2c0.5,2.7,3.4,22.4,21.6,28.3c0,0,4.6,1.8,4.6,5.6
	s-4.5,5.6-4.5,5.6c-19.5,6.2-21.5,28.2-21.5,28.4v0.1c0,7.5,30.3,7.5,31.6,7.5s31.6-0.1,31.6-7.5v-0.1C78.5,87.4,76.5,65.4,57,59.1z
	 M46.9,14.9c17.5,0,27.6,2.9,28.5,4.5c-0.9,1.7-11,4.5-28.5,4.5S19.3,21,18.4,19.4C19.3,17.7,29.4,14.9,46.9,14.9z M46.9,92.3
	c-17.7,0-27.8-2.9-28.5-4.5c0.2-1.6,2.5-20.4,19.5-25.8c0.3-0.1,6.6-2.5,6.6-8.4s-6.3-8.3-6.6-8.4c-12.8-4.1-17.2-15.7-18.8-21.9
	c8.2,3.6,26.8,3.6,27.8,3.6s19.7-0.1,27.8-3.6c-1.5,6.2-6,17.8-18.8,21.9c-0.3,0.1-6.6,2.5-6.6,8.4s6.3,8.3,6.6,8.4
	c16.8,5.4,19.2,23.9,19.4,25.7C74.7,89.4,64.6,92.3,46.9,92.3z"/>
</svg>
