<?xml version="1.0" encoding="utf-8"?>
<!-- Generator: Adobe Illustrator 21.0.2, SVG Export Plug-In . SVG Version: 6.00 Build 0)  -->
<svg version="1.1" xmlns="http://www.w3.org/2000/svg" xmlns:xlink="http://www.w3.org/1999/xlink" x="0px" y="0px"
	 viewBox="0 0 451.1 150" style="enable-background:new 0 0 451.1 150;" xml:space="preserve">
<style type="text/css">
	.st0{fill:#1F1F1F;}
	.st1{fill:none;stroke:#5BCEE0;stroke-width:2;stroke-miterlimit:10;}
	.st2{fill:#B0BEC5;stroke:#37474F;stroke-width:3;stroke-linecap:round;stroke-linejoin:round;stroke-miterlimit:10;}
	.st3{fill:#FFAB00;stroke:#37474F;stroke-width:3;stroke-linecap:round;stroke-miterlimit:10;}
	.st4{fill:#FFFFFF;stroke:#37474F;stroke-width:3;stroke-miterlimit:10;}
	.st5{fill:none;stroke:#37474F;stroke-width:3;stroke-linecap:round;stroke-linejoin:round;stroke-miterlimit:10;}
	.st6{fill:#37474F;stroke:#37474F;stroke-miterlimit:10;}
	.st7{fill:#78909C;stroke:#37474F;stroke-width:3;stroke-miterlimit:10;}
	.st8{fill:#FFAB00;stroke:#37474F;stroke-width:3;stroke-linejoin:round;stroke-miterlimit:10;}
	.st9{fill:#FFFFFF;stroke:#37474F;stroke-width:3;stroke-linecap:round;stroke-linejoin:round;stroke-miterlimit:10;}
	.st10{fill:none;}
	.st11{fill:#5BCEE0;}
	.st12{fill:#FFECB3;stroke:#37474F;stroke-width:4;stroke-linecap:round;stroke-miterlimit:10;}
	.st13{fill:#FFECB3;}
	.st14{fill:#37474F;}
	.st15{fill:#FFFFFF;}
	.st16{fill:#FFAB00;}
	.st17{fill:none;stroke:#5BCEE0;stroke-miterlimit:10;}
	.st18{fill:none;stroke:#5BCEE0;stroke-width:3;stroke-miterlimit:10;}
	.st19{fill:none;stroke:#DD5BB5;stroke-width:2;stroke-miterlimit:10;}
	.st20{fill:none;stroke:#1F1F1F;stroke-miterlimit:10;}
</style>
<g id="Layer_1">
	<g>
		<path class="st11" d="M414.4,150h-34.9c-26.1,0-41.6-15-41.6-40.1V46.2h37.8v60.7c0,4.7,3.8,8.5,8.5,8.5h20.7
			c4.7,0,8.5-3.8,8.5-8.5V46.2h37.7v63.7c0,23.9-14,39.5-35.7,39.9v0L414.4,150z M340,48.2v61.6c0,23.8,14.8,38.1,39.6,38.1h33.9
			l1-0.2c21,0,34.6-14.9,34.6-37.9V48.2h-33.6v58.6c0,5.8-4.8,10.6-10.6,10.6h-20.7c-5.8,0-10.6-4.8-10.6-10.6V48.2H340z M312.8,150
			h-37.8V0h37.8V150z M277.1,147.9h33.6V2.1h-33.6V147.9z M213.3,150h-34.9c-26.1,0-41.6-15-41.6-40.1V46.2h37.7v60.7
			c0,4.7,3.8,8.5,8.5,8.5h20.7c4.7,0,8.5-3.8,8.5-8.5V46.2H250v63.7c0,23.9-14,39.5-35.7,39.9v0L213.3,150z M138.8,48.2v61.6
			c0,23.8,14.8,38.1,39.6,38.1h33.9l1-0.2c21,0,34.6-14.9,34.6-37.9V48.2h-33.6v58.6c0,5.8-4.8,10.6-10.6,10.6H183
			c-5.8,0-10.6-4.8-10.6-10.6V48.2H138.8z M113.3,150H75.5V89.3c0-4.7-3.8-8.5-8.5-8.5H46.3c-4.7,0-8.5,3.8-8.5,8.5V150H0V0h37.7
			v47.8c1.9-0.7,5.6-1.6,11-1.6h22.9c26.5,0,41.7,14,41.7,38.5V150z M77.6,147.9h33.6V84.6c0-31.7-24.8-36.4-39.6-36.4H48.8
			c-7.6,0-11.5,2-11.6,2l-1.5,0.8l0-1.7V2.1H2.1v145.8h33.6V89.3c0-5.8,4.8-10.6,10.6-10.6H67c5.8,0,10.6,4.8,10.6,10.6V147.9z"/>
	</g>
</g>
<g id="Layer_2_1_">
</g>
</svg>
