<?xml version="1.0" encoding="UTF-8"?>
<svg width="73px" height="70px" viewBox="0 0 73 70" version="1.1" xmlns="http://www.w3.org/2000/svg" xmlns:xlink="http://www.w3.org/1999/xlink">
    <!-- Generator: Sketch 47.1 (45422) - http://www.bohemiancoding.com/sketch -->
    <title>identify</title>
    <desc>Created with Sketch.</desc>
    <defs></defs>
    <g id="Page-1" stroke="none" stroke-width="1" fill="none" fill-rule="evenodd">
        <g id="Group" transform="translate(-217.000000, 0.000000)" fill-rule="nonzero" fill="#55CEE2">
            <g id="identify" transform="translate(217.000000, 0.000000)">
                <path d="M66.1864583,58.734375 L48.9416667,51.4791667 L48.9416667,47.009375 C51.0990933,43.9698619 52.4854126,40.4515135 52.98125,36.7572917 C55.5649691,34.5832236 57.0632885,31.3839652 57.0791667,28.0072917 C57.08825,26.4967592 56.4890736,25.0461216 55.4166667,23.9822917 C54.8018226,23.362501 54.05367,22.8911649 53.2291667,22.6041667 L53.2291667,18.4697917 C53.2569171,16.1195999 52.5368241,13.8214306 51.1729167,11.9072917 C48.8703939,8.61004156 45.4596846,6.24997567 41.5625,5.25729167 L41.5625,2.14375 C41.5625,1.13698092 40.7463524,0.320833333 39.7395833,0.320833333 L36.09375,0.320833333 C28.8020833,0.320833333 23.1729167,6.08125 20.9927083,11.440625 C20.2610853,13.3257127 19.8924589,15.3321286 19.90625,17.3541667 L19.8479167,22.5604167 C18.9928702,22.8233922 18.2112549,23.2828721 17.565625,23.9020833 C16.4510827,24.9672142 15.8235451,26.4437734 15.8302083,27.9854167 C15.8360846,31.4430588 17.4004627,34.7137877 20.0885417,36.8885417 C20.5750032,40.4633785 21.9073779,43.870558 23.975,46.8270833 L23.975,51.4791667 L6.73020833,58.734375 C3.05023638,60.2707521 0.674473316,63.8906876 0.729166667,67.878125 C0.741146118,68.876341 1.55379547,69.6792385 2.55208333,69.6791667 L2.55208333,69.6791667 C3.04322742,69.6793081 3.51364888,69.4812574 3.85679801,69.1298727 C4.19994713,68.778488 4.38678748,68.3035026 4.375,67.8125 C4.33959656,65.3068863 5.83225136,63.0318148 8.14479167,62.0666667 L25.134375,54.9208333 C27.824802,58.4566064 32.0153588,60.5289488 36.4583333,60.5208333 L36.4583333,60.5208333 C40.8895206,60.5204354 45.0666609,58.4520903 47.753125,54.928125 L64.75,62.0739583 C67.0686331,63.0312509 68.5704452,65.3041858 68.5416667,67.8125 C68.5358301,68.2959778 68.7223114,68.7619686 69.0600797,69.1079418 C69.397848,69.4539149 69.8592297,69.6515247 70.3427083,69.6572917 L70.3427083,69.6572917 C71.3411254,69.6695594 72.1636115,68.8763316 72.1875,67.878125 C72.2421934,63.8906876 69.8664303,60.2707521 66.1864583,58.734375 Z M36.4583333,56.875 L36.4583333,56.875 C32.9040433,56.8844613 29.5831686,55.1062041 27.6208333,52.1427083 L27.6208333,46.6666667 C27.6141293,45.9780657 27.3894993,45.309281 26.9791667,44.75625 C25.1179986,42.0578483 23.9600601,38.9374298 23.6104167,35.678125 C23.5591628,35.1666768 23.2943669,34.7006359 22.88125,34.3947917 C20.782493,32.9344328 19.5278863,30.5422435 19.5197917,27.9854167 C19.5146457,27.4357445 19.7361995,26.9082355 20.1322917,26.5270833 C20.5236757,26.1506694 21.0476564,25.9436971 21.590625,25.9510417 C22.0828239,25.9707763 22.5620582,25.7904761 22.9191888,25.451202 C23.2763195,25.1119279 23.4809427,24.6425635 23.4864583,24.15 L23.559375,17.390625 C23.5542919,15.8212173 23.8462332,14.2650216 24.4197917,12.8041667 C26.1479167,8.553125 30.5520833,3.96666667 36.1302083,3.96666667 L37.9166667,3.96666667 L37.9166667,6.79583333 C37.9153374,7.73019847 38.6207006,8.51428521 39.55,8.61145833 C42.8020833,8.946875 45.9375,10.9375 48.2197917,14.04375 C49.1334162,15.3393049 49.61098,16.8920256 49.5833333,18.4770833 L49.5833333,24.1354167 C49.5833333,25.1421857 50.3994809,25.9583333 51.40625,25.9583333 L51.40625,25.9583333 C51.9535308,25.9579597 52.4783817,26.1757728 52.8645833,26.5635417 C53.2548437,26.9469353 53.4686952,27.4749637 53.4552083,28.021875 C53.4439233,30.5243829 52.2416987,32.8719701 50.2177083,34.34375 C49.8081208,34.6462666 49.5437304,35.106306 49.4885417,35.6125 C49.1248258,38.9632168 47.9016218,42.1631386 45.9375,44.9020833 C45.5057604,45.4707172 45.2703442,46.1641712 45.2666667,46.878125 L45.2666667,52.1427083 C43.3267522,55.1158397 40.0082935,56.8986872 36.4583333,56.875 L36.4583333,56.875 Z" id="Shape"></path>
                <path d="M67.15625,10.8864583 C68.1630191,10.8864583 68.9791667,10.0703107 68.9791667,9.06354167 L68.9791667,5.10416667 C68.9591629,2.45935863 66.8115474,0.324759023 64.1666667,0.320833333 L60.2364583,0.320833333 C59.2296893,0.320833333 58.4135417,1.13698092 58.4135417,2.14375 C58.4135417,3.15051908 59.2296893,3.96666667 60.2364583,3.96666667 L64.1666667,3.96666667 C64.7997783,3.96646879 65.3175056,4.47125285 65.3333333,5.10416667 L65.3333333,9.034375 C65.3255163,9.52287616 65.5141166,9.99407047 65.8568307,10.342268 C66.1995448,10.6904656 66.6676863,10.8865209 67.15625,10.8864583 Z" id="Shape"></path>
                <path d="M5.76041667,10.8864583 C6.76718574,10.8864583 7.58333333,10.0703107 7.58333333,9.06354167 L7.58333333,5.10416667 C7.59916109,4.47125285 8.11688833,3.96646879 8.75,3.96666667 L12.6802083,3.96666667 C13.6869774,3.96666667 14.503125,3.15051908 14.503125,2.14375 C14.503125,1.13698092 13.6869774,0.320833333 12.6802083,0.320833333 L8.75,0.320833333 C6.10511923,0.324759023 3.95750377,2.45935863 3.9375,5.10416667 L3.9375,9.034375 C3.92968298,9.52287616 4.11828325,9.99407047 4.46099736,10.342268 C4.80371148,10.6904656 5.27185297,10.8865209 5.76041667,10.8864583 Z" id="Shape"></path>
                <path d="M3.9375,45.7114583 C3.94151543,48.3676637 6.09379467,50.5199429 8.75,50.5239583 L12.6802083,50.5239583 C13.6869774,50.5239583 14.503125,49.7078107 14.503125,48.7010417 C14.503125,47.6942726 13.6869774,46.878125 12.6802083,46.878125 L8.75,46.878125 C8.10566779,46.878125 7.58333333,46.3557905 7.58333333,45.7114583 L7.58333333,41.78125 C7.58333333,40.7744809 6.76718574,39.9583333 5.76041667,39.9583333 C4.75364759,39.9583333 3.9375,40.7744809 3.9375,41.78125 L3.9375,45.7114583 Z" id="Shape"></path>
                <path d="M60.2364583,50.5239583 L64.1666667,50.5239583 C66.822872,50.5199429 68.9751512,48.3676637 68.9791667,45.7114583 L68.9791667,41.78125 C68.9791667,40.7744809 68.1630191,39.9583333 67.15625,39.9583333 C66.1494809,39.9583333 65.3333333,40.7744809 65.3333333,41.78125 L65.3333333,45.7114583 C65.3333333,46.3557905 64.8109989,46.878125 64.1666667,46.878125 L60.2364583,46.878125 C59.2296893,46.878125 58.4135417,47.6942726 58.4135417,48.7010417 C58.4135417,49.7078107 59.2296893,50.5239583 60.2364583,50.5239583 L60.2364583,50.5239583 Z" id="Shape"></path>
            </g>
        </g>
    </g>
</svg>