<?xml version="1.0" encoding="UTF-8"?>
<svg width="82px" height="88px" viewBox="0 0 82 88" version="1.1" xmlns="http://www.w3.org/2000/svg" xmlns:xlink="http://www.w3.org/1999/xlink">
    <!-- Generator: Sketch 47.1 (45422) - http://www.bohemiancoding.com/sketch -->
    <title>inspect-bones</title>
    <desc>Created with Sketch.</desc>
    <defs></defs>
    <g id="Page-1" stroke="none" stroke-width="1" fill="none" fill-rule="evenodd">
        <g id="Group" transform="translate(-683.000000, -149.000000)" fill-rule="nonzero" fill="#55CEE2">
            <g id="inspect-bones" transform="translate(683.000000, 149.000000)">
                <path d="M30.2338962,67.9100866 C29.592523,67.9571661 28.9471806,67.981 28.299,67.981 C27.788,67.981 27.281,67.951 26.778,67.92 C26.577,68.366 26.397,68.823 26.259,69.304 C24.647,74.895 27.866,80.732 33.454,82.346 C36.746,83.298 40.115,82.562 42.664,80.666 C43.81,83.629 46.269,86.051 49.557,86.993 C55.147,88.608 60.986,85.389 62.601,79.798 C64.215,74.208 60.991,68.366 55.401,66.757 C55.153,66.682 54.904,66.637 54.651,66.587 L67.141,25.641 C67.376,25.728 67.612,25.824 67.863,25.899 C73.451,27.508 79.293,24.287 80.902,18.699 C82.519,13.11 79.294,7.271 73.706,5.657 C70.417,4.707 67.05,5.442 64.498,7.337 C63.35,4.374 60.893,1.955 57.603,1.007 C52.015,-0.605 46.174,2.614 44.562,8.205 C42.948,13.793 46.168,19.637 51.759,21.249 C52.007,21.321 52.261,21.364 52.506,21.417 L50.714,27.298 C51.4127927,28.4003049 52.0291005,29.5548027 52.5578823,30.7538779 L56.3433513,19.4280028 C56.1357841,19.3828281 55.9205919,19.3461769 55.7104831,19.2848076 C50.9737141,17.910816 46.3041507,14.8246664 47.2891583,9.8739745 C48.2741658,4.92328259 52.3014459,2.8462086 57.0533409,4.03083525 C60.9294868,4.99714147 62.1532204,9.05577144 63.1258211,11.5812908 C65.2879092,9.9660835 68.5177867,8.18519882 71.3042709,8.99493334 C76.0384982,10.3706297 78.6862331,13.5944324 77.3162894,18.3582284 C75.9531234,23.121172 70.4840282,23.4270294 65.7498009,22.0555949 C65.5371504,21.9916684 65.3372081,21.9098426 65.138113,21.835688 L50.950715,68.8337817 C51.1650599,68.8763993 51.376016,68.9147551 51.5861249,68.9786816 C56.3220466,70.3501161 61.1595803,73.735285 59.7808858,78.3785717 C58.4021913,83.0218585 55.7104831,84.5278162 50.950715,83.6674991 C48.140988,83.1596474 45.064933,78.3686696 44.0940267,75.8431503 C41.9344803,77.4592099 36.8313357,79.190011 34.0423099,78.3785717 C29.5135412,77.0625786 29.068492,72.4771961 30.2338962,67.9100866 Z" id="Combined-Shape"></path>
                <path d="M16.6298765,62.4330609 C19.4848765,63.6640609 24.374,64.606 27.535,64.606 C35.031,64.606 42.091,60.956 46.42,54.851 C49.992,49.812 51.389,43.678 50.351,37.591 C49.314,31.502 45.966,26.179 40.925,22.61 C36.994,19.822 32.376,18.348 27.57,18.348 C20.074,18.348 13.014,21.996 8.685,28.105 C5.113,33.144 3.716,39.271 4.754,45.365 C5.594,50.288 8.79605864,55.9777806 12.3290586,59.3777806 L1.37755497,71.3499565 C1.3608923,71.3648339 -1.03528209,73.536302 1.37755497,75.9099823 C3.79039204,78.2836626 4.67487282,75.2595522 6.56660514,73.8631289 L16.6298765,62.4330609 Z M8.68424281,44.8976437 C7.80804622,39.7645467 8.98465307,34.5966194 11.9963748,30.3473381 C15.6470125,25.1957375 21.601884,22.123063 27.9235607,22.123063 C31.973657,22.123063 35.8637522,23.3627996 39.1791495,25.7138364 C43.4273424,28.7266465 46.2518519,33.21212 47.1258716,38.345217 C48.0020682,43.4783141 46.8254613,48.6473297 43.8126512,52.898788 C40.1620135,58.0460347 34.2082304,61.123063 27.8854652,61.123063 C23.8364574,61.123063 19.9452738,59.8789727 16.6298765,57.5322897 C12.3816836,54.520568 9.55717407,50.0340061 8.68424281,44.8976437 Z M35.8607162,39.3607194 C36.8545625,39.3607194 37.665,40.171157 37.665,41.1650032 C37.665,42.1622884 36.8545625,42.969287 35.8607162,42.969287 C34.863431,42.969287 34.0552861,42.1622884 34.0552861,41.1650032 C34.0564324,40.171157 34.863431,39.3607194 35.8607162,39.3607194 Z M33.2459949,44.1431032 C33.2459949,45.4602074 32.1764925,46.5239783 30.8628272,46.5239783 C29.5468692,46.5239783 28.4808058,45.4602074 28.4808058,44.1431032 C28.4808058,42.8271452 29.5468692,41.7633744 30.8628272,41.7633744 C32.1764925,41.7633744 33.2459949,42.8271452 33.2459949,44.1431032 Z M21.8196284,48.2193631 C22.6392364,48.2193631 23.3029469,48.8865125 23.3029469,49.7026816 C23.3029469,50.5245821 22.6392364,51.186 21.8196284,51.186 C20.9977279,51.186 20.3374563,50.5245821 20.3374563,49.7026816 C20.33631,48.8865125 20.9977279,48.2193631 21.8196284,48.2193631 Z M28.28,26.880936 C25.9112029,26.880936 23.9600461,28.832136 23.96,31.200936 C23.9600461,33.569736 25.9112029,35.520936 28.28,35.520936 C30.6487971,35.520936 32.5999539,33.569736 32.6,31.200936 C32.5999539,28.832136 30.6487971,26.880936 28.28,26.880936 Z M28.28,29.760936 C29.0923184,29.760936 29.7199827,30.388776 29.72,31.200936 C29.7199827,32.013384 29.0923184,32.640936 28.28,32.640936 C27.4676816,32.640936 26.8400173,32.013384 26.84,31.200936 C26.8400173,30.388776 27.4676816,29.760936 28.28,29.760936 Z" id="Shape"></path>
            </g>
        </g>
    </g>
</svg>