<svg id="Layer_1" data-name="Layer 1" xmlns="http://www.w3.org/2000/svg" viewBox="0 0 150 150"><defs><style>.cls-1{fill:#5bcee0;}</style></defs><title>icons</title><path class="cls-1" d="M113.17,150H36.83A36.87,36.87,0,0,1,0,113.17V36.83A36.87,36.87,0,0,1,36.83,0h76.35A36.87,36.87,0,0,1,150,36.83v76.35A36.87,36.87,0,0,1,113.17,150ZM36.83,1.55A35.32,35.32,0,0,0,1.55,36.83v76.35a35.32,35.32,0,0,0,35.28,35.28h76.35a35.32,35.32,0,0,0,35.28-35.28V36.83A35.32,35.32,0,0,0,113.17,1.55Zm76.35,135.73H36.83a23.85,23.85,0,0,1-24.1-24.1V36.83a23.85,23.85,0,0,1,24.1-24.1h76.35a23.85,23.85,0,0,1,24.1,24.1v76.35A23.85,23.85,0,0,1,113.17,137.28Zm-76.35-123A22.32,22.32,0,0,0,14.27,36.83v76.35a22.32,22.32,0,0,0,22.56,22.56h76.35a22.32,22.32,0,0,0,22.56-22.56V36.83a22.32,22.32,0,0,0-22.56-22.56ZM75,111.83A36.83,36.83,0,1,1,111.83,75,36.87,36.87,0,0,1,75,111.83Zm0-72.11A35.28,35.28,0,1,0,110.28,75,35.32,35.32,0,0,0,75,39.72ZM75,99.1A24.1,24.1,0,1,1,99.1,75,24.13,24.13,0,0,1,75,99.1Zm0-46.66A22.56,22.56,0,1,0,97.56,75,22.58,22.58,0,0,0,75,52.44ZM117.42,44a9.26,9.26,0,1,1,9.26-9.26A9.27,9.27,0,0,1,117.42,44Zm0-17a7.71,7.71,0,1,0,7.71,7.71A7.72,7.72,0,0,0,117.42,27Z"/></svg>