<?xml version="1.0" encoding="UTF-8"?>
<svg width="88px" height="90px" viewBox="0 0 88 90" version="1.1" xmlns="http://www.w3.org/2000/svg" xmlns:xlink="http://www.w3.org/1999/xlink">
    <!-- Generator: Sketch 43.1 (39012) - http://www.bohemiancoding.com/sketch -->
    <title>insta-like</title>
    <desc>Created with Sketch.</desc>
    <defs></defs>
    <g id="Page-1" stroke="none" stroke-width="1" fill="none" fill-rule="evenodd">
        <g id="Artboard-Copy" transform="translate(-1387.000000, -125.000000)" fill-rule="nonzero" fill="#5BCEE0">
            <path d="M1443.595,200.95 L1432.187,214.45 L1431.966,214.672 L1431.723,214.832 L1431.473,214.933 L1431.203,214.987 L1430.921,214.988 L1430.651,214.936 L1430.401,214.836 L1430.157,214.678 L1429.872,214.385 L1418.414,200.95 L1400.597,200.95 C1393.326,200.945 1387.404,195.023 1387.399,187.753 L1387.399,138.199 C1387.398,134.543 1388.885,131.232 1391.275,128.853 C1393.662,126.471 1396.969,125 1400.596,125.001 L1461.404,125.001 C1465.055,125 1468.367,126.47 1470.749,128.855 C1473.133,131.237 1474.603,134.548 1474.602,138.199 L1474.602,187.753 C1474.602,191.379 1473.132,194.686 1470.75,197.074 C1468.371,199.464 1465.06,200.951 1461.404,200.95 L1443.595,200.95 Z M1393.326,195.023 C1395.198,196.893 1397.764,198.047 1400.599,198.047 L1419.168,198.047 L1419.434,198.074 L1419.706,198.153 L1419.958,198.284 L1420.179,198.461 L1420.355,198.665 L1431.052,211.019 L1441.647,198.671 L1441.831,198.456 L1442.052,198.281 L1442.302,198.152 L1442.57,198.074 L1442.835,198.047 L1461.405,198.047 C1464.268,198.046 1466.83,196.892 1468.694,195.025 C1470.555,193.155 1471.698,190.589 1471.699,187.753 L1471.699,138.199 C1471.695,132.475 1467.129,127.91 1461.405,127.905 L1400.597,127.905 C1397.76,127.906 1395.195,129.049 1393.325,130.91 C1391.457,132.773 1390.303,135.336 1390.302,138.199 L1390.302,187.753 C1390.302,190.585 1391.456,193.151 1393.326,195.023 Z M1429.897,185.091 L1412.522,166.55 L1412.517,166.542 C1412.198,166.221 1411.899,165.888 1411.641,165.599 L1411.608,165.56 C1409.66,163.212 1408.471,160.207 1408.473,156.923 C1408.475,149.428 1414.56,143.379 1422.019,143.377 C1425.455,143.377 1428.617,144.672 1431.01,146.804 C1433.385,144.67 1436.547,143.377 1439.98,143.377 C1447.439,143.378 1453.524,149.428 1453.526,156.923 C1453.527,160.199 1452.344,163.196 1450.406,165.541 L1450.407,165.542 L1450.399,165.551 L1450.391,165.561 L1450.39,165.56 C1450.064,165.964 1449.733,166.293 1449.41,166.617 L1432.014,185.095 L1431.976,185.122 L1431.949,185.159 L1431.743,185.286 C1431.661,185.34 1431.586,185.402 1431.497,185.438 C1431.41,185.473 1431.319,185.482 1431.228,185.499 C1431.136,185.517 1431.048,185.543 1430.955,185.543 C1430.862,185.543 1430.774,185.517 1430.683,185.499 C1430.592,185.481 1430.501,185.473 1430.413,185.437 C1430.324,185.401 1430.25,185.338 1430.168,185.284 L1429.962,185.156 L1429.935,185.118 L1429.897,185.091 Z M1411.377,156.923 C1411.378,159.499 1412.295,161.828 1413.835,163.696 C1414.087,163.98 1414.357,164.279 1414.609,164.53 L1414.625,164.554 L1414.64,164.565 L1430.959,181.978 L1447.324,164.595 L1447.344,164.581 L1447.356,164.564 C1447.688,164.234 1447.943,163.974 1448.139,163.728 L1448.155,163.709 C1449.701,161.839 1450.621,159.505 1450.623,156.923 C1450.622,153.975 1449.429,151.324 1447.498,149.394 C1445.565,147.467 1442.912,146.281 1439.98,146.28 C1436.846,146.28 1434.011,147.644 1432.106,149.808 L1432.007,149.9 L1431.984,149.931 L1431.956,149.947 C1431.823,150.06 1431.675,150.145 1431.518,150.203 L1431.456,150.226 C1431.298,150.276 1431.135,150.297 1430.971,150.292 L1430.907,150.29 C1430.745,150.278 1430.585,150.237 1430.433,150.17 L1430.371,150.142 C1430.26,150.087 1430.154,150.023 1430.057,149.938 L1429.965,149.839 L1429.934,149.816 C1427.992,147.643 1425.154,146.28 1422.02,146.28 C1419.089,146.28 1416.435,147.466 1414.502,149.394 C1412.571,151.324 1411.378,153.975 1411.377,156.923 Z" id="insta-like"></path>
        </g>
    </g>
</svg>