<?xml version="1.0" encoding="UTF-8"?>
<svg width="72px" height="72px" viewBox="0 0 72 72" version="1.1" xmlns="http://www.w3.org/2000/svg" xmlns:xlink="http://www.w3.org/1999/xlink">
    <!-- Generator: Sketch 43.1 (39012) - http://www.bohemiancoding.com/sketch -->
    <title>Group</title>
    <desc>Created with Sketch.</desc>
    <defs>
        <linearGradient x1="0%" y1="50%" x2="100%" y2="50%" id="linearGradient-1">
            <stop stop-color="#5BCEE0" offset="0%"></stop>
            <stop stop-color="#F9B01D" offset="100%"></stop>
        </linearGradient>
        <linearGradient x1="-0.0718592965%" y1="49.8442368%" x2="100.071859%" y2="49.8442368%" id="linearGradient-2">
            <stop stop-color="#5BCEE0" offset="0%"></stop>
            <stop stop-color="#F9B01D" offset="100%"></stop>
        </linearGradient>
    </defs>
    <g id="Page-1" stroke="none" stroke-width="1" fill="none" fill-rule="evenodd">
        <g id="Group" fill-rule="nonzero">
            <path d="M1.6,1.3 C1.4,1.3 1.3,1.5 1.3,1.6 L1.3,70.4 C1.3,70.6 1.5,70.7 1.6,70.7 L70.4,70.7 C70.6,70.7 70.7,70.5 70.7,70.4 L70.7,1.6 C70.7,1.4 70.5,1.3 70.4,1.3 L1.6,1.3 Z M1.3,0 L70.7,0 C71.4,0 72,0.6 72,1.3 L72,70.7 C72,71.4 71.4,72 70.7,72 L1.3,72 C0.6,72 0,71.4 0,70.7 L0,1.3 C0,0.6 0.6,0 1.3,0 Z" id="Shape" fill="url(#linearGradient-1)"></path>
            <path d="M58.2582252,32.2091734 C59.2859015,31.2549025 59.5795233,29.7867934 59.1390906,28.4654953 C58.6986579,27.1441971 57.5975761,26.1899263 56.2028725,25.9697099 L45.3388655,24.4281954 C44.604811,24.3547899 44.0175674,23.9143572 43.7239456,23.2537081 L38.8791857,13.4173775 C38.2919421,12.1694848 37.0440494,11.4354303 35.6493458,11.4354303 C34.2546422,11.4354303 33.0067495,12.2428902 32.4195059,13.4173775 L27.6481514,23.2537081 C27.3545296,23.9143572 26.6938805,24.3547899 26.0332315,24.4281954 L15.1692245,26.0431153 C13.7745209,26.2633317 12.6734391,27.2176026 12.2330064,28.5389007 C11.7925737,29.8601989 12.1596009,31.2549025 13.1138718,32.2825788 L20.9682552,39.9167459 C21.4820934,40.4305841 21.7023098,41.0912331 21.5554989,41.8252877 L19.7203625,52.6158892 C19.5001462,54.0105928 20.0139844,55.3318909 21.1884716,56.1393509 C21.8491207,56.5797836 22.5831752,56.8 23.3172297,56.8 C23.9044733,56.8 24.491717,56.6531891 25.0055551,56.3595673 L34.6950749,51.2945911 C35.355724,50.9275638 36.0897785,50.9275638 36.6770221,51.2945911 L46.3665419,56.3595673 C47.6144345,57.0202164 49.0825436,56.8734055 50.1836254,56.0659455 C51.2847072,55.2584855 51.8719508,53.8637819 51.6517344,52.5424837 L49.8165981,41.7518822 C49.6697872,41.0178277 49.963409,40.3571786 50.4038417,39.8433404 L58.2582252,32.2091734 Z M48.3484891,42.045504 L50.1836254,52.8361056 C50.3304363,53.6435655 50.0368145,54.4510255 49.30276,54.9648637 C48.6421109,55.4787019 47.7612455,55.5521073 47.0271909,55.1116746 L37.3376712,50.0466984 C36.3099948,49.4594547 34.9886967,49.4594547 33.9610204,50.0466984 L24.2715006,55.1116746 C23.5374461,55.4787019 22.6565807,55.4052964 21.9959316,54.9648637 C21.3352825,54.4510255 20.9682552,53.716971 21.1150661,52.8361056 L22.9502025,42.045504 C23.1704188,40.8710168 22.7299861,39.6965295 21.9225261,38.8156641 L14.2149536,31.181497 C13.62771,30.5942534 13.4074936,29.7867934 13.7011154,28.9793335 C13.9947372,28.1718735 14.5819809,27.6580353 15.4628463,27.5112244 L26.3268533,25.9697099 C27.5013405,25.822899 28.5290169,25.0888445 29.042855,23.9877627 L33.8876149,14.151432 C34.2546422,13.4173775 34.9886967,12.9769448 35.7961567,12.9769448 C36.6036167,12.9769448 37.3376712,13.4173775 37.7046984,14.151432 L42.5494583,23.9877627 C43.0632965,25.0888445 44.0909728,25.822899 45.2654601,25.9697099 L56.0560616,27.5112244 C56.8635216,27.6580353 57.5241707,28.1718735 57.8177925,28.9793335 C58.1114143,29.7867934 57.8911979,30.5942534 57.3039543,31.181497 L49.4495709,38.8156641 C48.5687054,39.6231241 48.2016782,40.7976113 48.3484891,42.045504 Z" id="Shape" fill="url(#linearGradient-2)"></path>
        </g>
    </g>
</svg>