<?xml version="1.0" encoding="utf-8"?>
<!-- Generator: Adobe Illustrator 21.0.2, SVG Export Plug-In . SVG Version: 6.00 Build 0)  -->
<svg version="1.1" id="Layer_1" xmlns="http://www.w3.org/2000/svg" xmlns:xlink="http://www.w3.org/1999/xlink" x="0px" y="0px"
	 viewBox="0 0 61 72" style="enable-background:new 0 0 61 72;" xml:space="preserve">
<style type="text/css">
	.st0{fill:url(#scenes_1_);}
	.st1{fill:url(#SVGID_1_);}
	.st2{fill:url(#SVGID_2_);}
	.st3{fill:url(#SVGID_3_);}
	.st4{fill:url(#SVGID_4_);}
	.st5{fill:url(#SVGID_5_);}
	.st6{fill:url(#SVGID_6_);}
	.st7{fill:url(#SVGID_7_);}
	.st8{fill:url(#SVGID_8_);}
	.st9{fill:url(#SVGID_9_);}
	.st10{fill:url(#SVGID_10_);}
	.st11{fill:url(#SVGID_11_);}
	.st12{fill:url(#SVGID_12_);}
	.st13{fill:url(#SVGID_13_);}
	.st14{fill:url(#SVGID_14_);}
	.st15{fill:url(#SVGID_15_);}
	.st16{fill:url(#SVGID_16_);}
	.st17{fill:url(#SVGID_17_);}
	.st18{fill:url(#SVGID_18_);}
	.st19{fill:url(#SVGID_19_);}
	.st20{fill:url(#SVGID_20_);}
	.st21{fill:url(#SVGID_21_);}
	.st22{fill:url(#SVGID_22_);}
	.st23{fill:url(#SVGID_23_);}
	.st24{fill:url(#SVGID_24_);}
	.st25{fill:url(#SVGID_25_);}
	.st26{fill:url(#SVGID_26_);}
</style>
<g>
	<linearGradient id="SVGID_1_" gradientUnits="userSpaceOnUse" x1="13.2486" y1="35.8536" x2="25.3105" y2="35.8536">
		<stop  offset="0" style="stop-color:#5BCEE0"/>
		<stop  offset="1" style="stop-color:#F9B01D"/>
	</linearGradient>
	<path class="st1" d="M24.1,37.5c0.1,0.1,0.3,0.2,0.5,0.2c0.2,0,0.4-0.1,0.5-0.2c0.2-0.3,0.2-0.7-0.1-1c-3.8-3.4-7.7-3.4-11.6,0
		c-0.3,0.2-0.3,0.7-0.1,1c0.2,0.3,0.7,0.3,1,0.1C17.7,34.7,20.9,34.7,24.1,37.5z"/>
	<linearGradient id="SVGID_2_" gradientUnits="userSpaceOnUse" x1="35.8757" y1="36.2806" x2="47.9376" y2="36.2806">
		<stop  offset="0" style="stop-color:#5BCEE0"/>
		<stop  offset="1" style="stop-color:#F9B01D"/>
	</linearGradient>
	<path class="st2" d="M37,38c3.3-2.9,6.5-2.9,9.7,0c0.1,0.1,0.3,0.2,0.5,0.2c0.2,0,0.4-0.1,0.5-0.2c0.2-0.3,0.2-0.7-0.1-1
		c-3.8-3.4-7.7-3.4-11.6,0c-0.3,0.2-0.3,0.7-0.1,1C36.2,38.2,36.7,38.2,37,38z"/>
	<linearGradient id="SVGID_3_" gradientUnits="userSpaceOnUse" x1="15.4982" y1="42.2957" x2="23.0609" y2="42.2957">
		<stop  offset="0" style="stop-color:#5BCEE0"/>
		<stop  offset="1" style="stop-color:#F9B01D"/>
	</linearGradient>
	<path class="st3" d="M23.1,42.3c0-2.1-1.7-3.8-3.8-3.8s-3.8,1.7-3.8,3.8c0,2.1,1.7,3.8,3.8,3.8S23.1,44.4,23.1,42.3z M16.9,42.3
		c0-1.3,1-2.4,2.4-2.4c1.3,0,2.4,1,2.4,2.4c0,1.3-1,2.4-2.4,2.4C18,44.7,16.9,43.6,16.9,42.3z"/>
	<linearGradient id="SVGID_4_" gradientUnits="userSpaceOnUse" x1="38.0643" y1="42.2957" x2="45.627" y2="42.2957">
		<stop  offset="0" style="stop-color:#5BCEE0"/>
		<stop  offset="1" style="stop-color:#F9B01D"/>
	</linearGradient>
	<path class="st4" d="M41.8,38.5c-2.1,0-3.8,1.7-3.8,3.8c0,2.1,1.7,3.8,3.8,3.8s3.8-1.7,3.8-3.8C45.6,40.2,43.9,38.5,41.8,38.5z
		 M41.8,44.7c-1.3,0-2.4-1-2.4-2.4c0-1.3,1-2.4,2.4-2.4c1.3,0,2.4,1,2.4,2.4C44.2,43.6,43.1,44.7,41.8,44.7z"/>
	<linearGradient id="SVGID_5_" gradientUnits="userSpaceOnUse" x1="18.6009" y1="57.4172" x2="42.5243" y2="57.4172">
		<stop  offset="0" style="stop-color:#5BCEE0"/>
		<stop  offset="1" style="stop-color:#F9B01D"/>
	</linearGradient>
	<path class="st5" d="M41.5,55c-7.3,4.8-14.5,4.8-21.8,0c-0.3-0.2-0.8-0.1-1,0.2c-0.2,0.3-0.1,0.8,0.2,1c3.9,2.6,7.7,3.8,11.6,3.8
		s7.8-1.3,11.6-3.8c0.3-0.2,0.4-0.7,0.2-1C42.2,54.9,41.8,54.8,41.5,55z"/>
	<linearGradient id="SVGID_6_" gradientUnits="userSpaceOnUse" x1="27.0252" y1="50.4378" x2="33.3071" y2="50.4378">
		<stop  offset="0" style="stop-color:#5BCEE0"/>
		<stop  offset="1" style="stop-color:#F9B01D"/>
	</linearGradient>
	<path class="st6" d="M28.1,51.5c0.5,0.4,1.3,0.7,2.1,0.7c1.5,0,3.1-1,3.1-2.7c0-0.4-0.3-0.7-0.7-0.7c-0.4,0-0.7,0.3-0.7,0.7
		c0,1.3-1.5,1.3-1.6,1.3c-0.6,0-1.7-0.3-1.7-1.3c0-0.4-0.3-0.7-0.7-0.7c-0.4,0-0.7,0.3-0.7,0.7C27,50.2,27.4,51,28.1,51.5z"/>
	<linearGradient id="SVGID_7_" gradientUnits="userSpaceOnUse" x1="0" y1="36" x2="61.003" y2="36">
		<stop  offset="0" style="stop-color:#5BCEE0"/>
		<stop  offset="1" style="stop-color:#F9B01D"/>
	</linearGradient>
	<path class="st7" d="M60.9,55.5l-2.8-13.9V23.4c0-2.9-0.5-5.8-1.5-8.5l-0.1-0.2c-1.1-3-3.5-5.3-6.5-6.4l-22.4-8
		c-1.6-0.6-3.5-0.2-4.7,1.1l-5.6,6.3h-4.1c-0.2,0-0.4,0.1-0.5,0.2l-9.5,9.5c-0.9,0.9-1.3,2-1.3,3.2v21l-2,14.5
		c-0.3,2.3,0.4,4.6,2,6.3l8.6,9.3c0.1,0.1,0.3,0.2,0.5,0.2c0.1,0,0.2,0,0.2-0.1c0.2-0.1,0.4-0.4,0.4-0.7v-4.8l3.1,3.1
		c0.2,0.2,0.5,0.2,0.8,0.2c0.2-0.1,0.4-0.4,0.4-0.7v-4.5c3.7,3.1,8.5,5,13.8,5c4.9,0,9.5-1.6,13.1-4.4v3.7c0,0.3,0.2,0.5,0.4,0.7
		c0.2,0.1,0.5,0.1,0.8-0.2l2.9-2.9v4.7c0,0.3,0.2,0.5,0.4,0.7c0.2,0.1,0.5,0.1,0.7-0.1l10.1-9C60.4,61,61.4,58.2,60.9,55.5z
		 M4.3,18.3l9.2-9.2h4.1c0.2,0,0.4-0.1,0.5-0.2L24,2.3c0.9-0.9,2.1-1.1,3.2-0.7l22.3,8c2.6,0.9,4.6,2.9,5.6,5.6l0.1,0.2
		c1,2.6,1.4,5.3,1.4,8.1v15.2c-0.4-0.9-1-1.6-1.8-2.1c-1-0.8-2.1-1.2-3.3-1.3v-2.1c0.2,0,0.5,0,0.7,0c0.4,0,0.7-0.3,0.7-0.7
		c0-0.4-0.3-0.7-0.7-0.7c-10.9,0.1-16.9-10.3-17-10.4c-0.2-0.4-0.6-0.4-1-0.2s-0.5,0.6-0.3,1l4.6,8.4c-9.5-1.5-12.2-8.7-12.3-9
		c-0.1-0.4-0.5-0.5-0.9-0.4l-9.1,2.6c-0.3,0.1-0.5,0.4-0.5,0.7c0,3-1,5.7-2.9,7.5c-1.7,1.7-4,2.7-6.3,2.7H6.7
		c-0.4,0-0.7,0.3-0.7,0.7c0,0.3,0.2,0.5,0.4,0.7c-0.9,0.4-1.7,1-2.3,1.8c-0.2,0.4-0.5,0.7-0.7,1.1V20.5C3.4,19.7,3.8,18.9,4.3,18.3z
		 M51.6,36.6c0.9,0.1,1.7,0.5,2.4,1c1,0.9,1.7,2.1,1.9,3.4c0.2,1.3-0.2,2.7-1,3.7c-0.8,1-2,1.6-3.2,1.9V36.6z M6.1,45.6
		c-2.2-1.7-2.6-4.9-0.9-7.1c0.8-1,2-1.6,3.2-1.8v10C7.6,46.5,6.8,46.1,6.1,45.6z M14.8,67.3l-3.1-3.1c-0.2-0.2-0.5-0.2-0.8-0.2
		c-0.2,0.1-0.4,0.4-0.4,0.7v4.6l-7.4-7.9c-1.3-1.3-1.9-3.2-1.6-5.1l1.6-12.4C3.5,45,4.2,46,5.2,46.7c1,0.7,2.1,1.2,3.2,1.3
		c0,5.9,2.4,11.3,6.3,15.2L14.8,67.3L14.8,67.3z M30,68.2c-11.1,0-20.2-9-20.2-20.2V35.3c1.5-0.5,3-1.4,4.2-2.6c1.5-1.4,3.1-4,3.3-8
		l8.1-2.3c1,2.1,4.7,8.5,14.6,9.5c0.2,0,0.5-0.1,0.7-0.3c0.1-0.2,0.2-0.5,0-0.7l-1.8-3.2c2.7,2.4,6.5,4.8,11.3,5.4V48
		C50.2,59.1,41.2,68.2,30,68.2L30,68.2z M57.5,61.8l-8.8,7.8v-4.8c0-0.3-0.2-0.5-0.4-0.7c-0.2-0.1-0.5-0.1-0.8,0.2l-2.9,2.9v-3.2
		c4.3-3.9,7.1-9.6,7.1-15.9l0,0c1.7-0.2,3.3-1,4.3-2.4c0.5-0.6,0.9-1.3,1.1-2l2.4,12.1C59.9,58,59.1,60.3,57.5,61.8z"/>
</g>
</svg>
