<?xml version="1.0" encoding="utf-8"?>
<!-- Generator: Adobe Illustrator 21.0.2, SVG Export Plug-In . SVG Version: 6.00 Build 0)  -->
<svg version="1.1" id="Layer_1" xmlns="http://www.w3.org/2000/svg" xmlns:xlink="http://www.w3.org/1999/xlink" x="0px" y="0px"
	 viewBox="0 0 84.7 72" style="enable-background:new 0 0 84.7 72;" xml:space="preserve">
<style type="text/css">
	.st0{fill:url(#scenes_1_);}
	.st1{fill:url(#SVGID_1_);}
	.st2{fill:url(#SVGID_2_);}
	.st3{fill:url(#SVGID_3_);}
	.st4{fill:url(#SVGID_4_);}
	.st5{fill:url(#SVGID_5_);}
	.st6{fill:url(#SVGID_6_);}
	.st7{fill:url(#SVGID_7_);}
	.st8{fill:url(#SVGID_8_);}
	.st9{fill:url(#SVGID_9_);}
	.st10{fill:url(#SVGID_10_);}
	.st11{fill:url(#SVGID_11_);}
	.st12{fill:url(#SVGID_12_);}
	.st13{fill:url(#SVGID_13_);}
	.st14{fill:url(#SVGID_14_);}
	.st15{fill:url(#SVGID_15_);}
	.st16{fill:url(#SVGID_16_);}
	.st17{fill:url(#SVGID_17_);}
	.st18{fill:url(#SVGID_18_);}
	.st19{fill:url(#SVGID_19_);}
	.st20{fill:url(#SVGID_20_);}
	.st21{fill:url(#SVGID_21_);}
	.st22{fill:url(#SVGID_22_);}
	.st23{fill:url(#SVGID_23_);}
	.st24{fill:url(#SVGID_24_);}
	.st25{fill:url(#SVGID_25_);}
	.st26{fill:url(#SVGID_26_);}
</style>
<g id="Page-1">
	<g id="Artboard-Copy" transform="translate(-1633.000000, -268.000000)">
		
			<linearGradient id="scenes_1_" gradientUnits="userSpaceOnUse" x1="669.1244" y1="1070.3864" x2="669.9108" y2="1069.6" gradientTransform="matrix(60 0 0 -51 -38488.8242 54879.5)">
			<stop  offset="0" style="stop-color:#5BCEE0"/>
			<stop  offset="1" style="stop-color:#F9B01D"/>
		</linearGradient>
		<path id="scenes" class="st0" d="M1633,268v72h84.7v-58.6l0,0V268H1633z M1704,269.7l10.7,10.7h-11.3l-10.7-10.7H1704L1704,269.7z
			 M1675.8,282.3h11.3l-10.7,10.7H1665L1675.8,282.3z M1662.5,293.1h-2.1l-3.7-10.7h16.7L1662.5,293.1z M1689.6,282.3h11.3
			l-10.7,10.7h-11.3L1689.6,282.3z M1703.4,282.3h11.3L1704,293h-11.3L1703.4,282.3z M1690.2,269.7l10.7,10.7h-11.3l-10.7-10.7
			H1690.2L1690.2,269.7z M1676.3,269.7l10.7,10.7h-11.3l-10.7-10.7H1676.3L1676.3,269.7z M1662.5,269.7l10.7,10.7H1656l-3.7-10.7
			H1662.5L1662.5,269.7z M1634.7,269.7h15.8l8,23.3h-23.9V269.7z M1716,338.3h-81.3v-43.5h81.2v43.5H1716z M1716,293.1h-9.6l9.6-9.6
			V293.1z M1716,279.3l-9.6-9.6h9.6V279.3z M1644.4,306.8c0-0.4,0.4-0.8,0.8-0.8h60.1c0.4,0,0.8,0.4,0.8,0.8c0,0.4-0.4,0.8-0.8,0.8
			h-60.1C1644.9,307.7,1644.4,307.2,1644.4,306.8z M1644.4,323.2c0-0.4,0.4-0.8,0.8-0.8h60.1c0.4,0,0.8,0.4,0.8,0.8
			c0,0.4-0.4,0.8-0.8,0.8h-60.1C1644.9,324,1644.4,323.8,1644.4,323.2z"/>
	</g>
</g>
</svg>
