<?xml version="1.0" encoding="utf-8"?>
<!-- Generator: Adobe Illustrator 21.0.2, SVG Export Plug-In . SVG Version: 6.00 Build 0)  -->
<svg version="1.1" id="Layer_1" xmlns="http://www.w3.org/2000/svg" xmlns:xlink="http://www.w3.org/1999/xlink" x="0px" y="0px"
	 viewBox="0 0 72 72" style="enable-background:new 0 0 72 72;" xml:space="preserve">
<style type="text/css">
	.st0{fill:url(#scenes_1_);}
	.st1{fill:url(#SVGID_1_);}
	.st2{fill:url(#SVGID_2_);}
	.st3{fill:url(#SVGID_3_);}
	.st4{fill:url(#SVGID_4_);}
	.st5{fill:url(#SVGID_5_);}
	.st6{fill:url(#SVGID_6_);}
	.st7{fill:url(#SVGID_7_);}
	.st8{fill:url(#SVGID_8_);}
	.st9{fill:url(#SVGID_9_);}
	.st10{fill:url(#SVGID_10_);}
	.st11{fill:url(#SVGID_11_);}
	.st12{fill:url(#SVGID_12_);}
	.st13{fill:url(#SVGID_13_);}
	.st14{fill:url(#SVGID_14_);}
	.st15{fill:url(#SVGID_15_);}
	.st16{fill:url(#SVGID_16_);}
	.st17{fill:url(#SVGID_17_);}
	.st18{fill:url(#SVGID_18_);}
	.st19{fill:url(#SVGID_19_);}
	.st20{fill:url(#SVGID_20_);}
	.st21{fill:url(#SVGID_21_);}
	.st22{fill:url(#SVGID_22_);}
	.st23{fill:url(#SVGID_23_);}
	.st24{fill:url(#SVGID_24_);}
	.st25{fill:url(#SVGID_25_);}
	.st26{fill:url(#SVGID_26_);}
</style>
<g transform="translate(0,-952.36218)">
	<linearGradient id="SVGID_1_" gradientUnits="userSpaceOnUse" x1="0" y1="988.3622" x2="71.9999" y2="988.3622">
		<stop  offset="0" style="stop-color:#5BCEE0"/>
		<stop  offset="1" style="stop-color:#F9B01D"/>
	</linearGradient>
	<path class="st1" d="M10.5,952.4c-0.7,0-1.3,0-1.9,0.1c-1.2,0.2-2.3,0.5-3.3,1.1c-1.9,1.2-3.3,3.1-4.1,5.8
		c-0.8,2.7-1.2,6.1-1.2,10.3c0,8.5,2.5,16.2,6.5,21.9c4.1,5.7,9.7,9.3,16.1,9.3c1.5,0,3-0.2,4.4-0.6c0.1,0,0.2,0,0.3-0.1
		c1,5.7,3,10.8,5.9,14.8c4.1,5.7,9.7,9.3,16.1,9.3s12-3.6,16.1-9.3c4.1-5.7,6.5-13.5,6.5-21.9c0-4.2-0.4-7.6-1.2-10.3
		c-0.8-2.7-2.2-4.7-4.1-5.8c-1.9-1.2-4.4-1.4-7.3-1c-2.8,0.4-6.1,1.5-10,3.1c-1.8-0.7-3.4-1.3-4.9-1.8c0.1-0.1,0.1-0.3,0.2-0.4
		c0.4-2.3,0.6-4.7,0.6-7.2c0-4.2-0.4-7.6-1.2-10.3s-2.2-4.7-4.1-5.8c-1.9-1.2-4.4-1.4-7.3-1c-2.8,0.4-6.1,1.5-10,3.1
		c-3.9-1.6-7.2-2.7-10-3.1C11.9,952.4,11.2,952.4,10.5,952.4L10.5,952.4z M9.6,954c0.8,0,1.7,0,2.7,0.1c2.7,0.4,6,1.4,9.9,3.1
		c0.2,0.1,0.4,0.1,0.6,0c4-1.7,7.3-2.7,9.9-3.1c2.7-0.4,4.7-0.1,6.2,0.8c1.5,0.9,2.6,2.4,3.3,4.9c0.8,2.4,1.1,5.7,1.1,9.8
		c0,2.4-0.2,4.7-0.6,6.9c0,0.1,0,0.1,0,0.2c-1.3-0.4-2.4-0.6-3.6-0.8c-1.5-0.2-2.8-0.2-4-0.1c-1.2,0.2-2.3,0.5-3.3,1.1
		c-1.9,1.2-3.3,3.1-4.1,5.8c-0.1,0.2-0.1,0.4-0.2,0.5c-1.5-0.7-3.2-0.9-5.2-0.9c-5.4,0-8.2,2.8-9.9,5.4c-0.3,0.4-0.1,0.9,0.2,1.2
		c0.4,0.3,0.9,0.1,1.2-0.2c1.6-2.4,3.7-4.6,8.5-4.6c2,0,3.5,0.2,4.7,0.7c0.1,0,0.1,0.1,0.2,0.1c-0.5,2.3-0.7,5-0.7,8.1
		c0,1.9,0.1,3.7,0.4,5.5c-0.2,0-0.4,0-0.5,0.1c-1.3,0.4-2.6,0.5-4,0.5c-5.7,0-10.9-3.3-14.7-8.6c-3.8-5.4-6.2-12.8-6.2-21
		c0-4.1,0.4-7.4,1.1-9.8s1.8-4,3.3-4.9C7.1,954.5,8.2,954.1,9.6,954z M28.3,964.1c-0.5,0-0.8,0.5-0.8,0.9c0,0.4,0.4,0.7,0.8,0.8
		l8.4,1.7c0.5,0.1,0.9-0.2,1-0.7c0.1-0.5-0.2-0.9-0.7-1c0,0,0,0,0,0l-8.4-1.7c-0.1,0-0.1,0-0.2,0C28.4,964.1,28.4,964.1,28.3,964.1
		L28.3,964.1z M16.6,964.1l-8.4,1.7c-0.5,0.1-0.8,0.5-0.7,1c0.1,0.5,0.5,0.8,1,0.7c0,0,0,0,0,0l8.4-1.7c0.5-0.1,0.8-0.5,0.7-1
		C17.5,964.3,17.1,964,16.6,964.1C16.6,964.1,16.6,964.1,16.6,964.1z M36.4,977.5c0.8,0,1.7,0,2.7,0.1c2.7,0.4,6,1.4,9.9,3.1
		c0.2,0.1,0.4,0.1,0.6,0c4-1.7,7.3-2.7,9.9-3.1s4.7-0.1,6.2,0.8c1.5,0.9,2.6,2.4,3.3,4.9s1.1,5.7,1.1,9.8c0,8.1-2.4,15.6-6.2,21
		c-3.8,5.4-9,8.6-14.7,8.6c-5.7,0-10.9-3.3-14.7-8.6c-3.8-5.4-6.2-12.8-6.2-21c0-4.1,0.4-7.4,1.1-9.8c0.8-2.4,1.8-4,3.3-4.9
		c0.8-0.5,1.6-0.7,2.7-0.9C35.9,977.5,36.1,977.5,36.4,977.5L36.4,977.5z M40.2,989.2c-1.6,0-2.8,0.5-3.7,1.2
		c-0.9,0.7-1.5,1.7-2,2.6c-0.2,0.4-0.1,0.9,0.3,1.1c0.4,0.2,0.9,0.1,1.1-0.3c0,0,0,0,0,0c0.4-0.8,0.9-1.5,1.6-2
		c0.7-0.5,1.5-0.9,2.7-0.9s2,0.3,2.7,0.9c0.7,0.5,1.2,1.3,1.6,2c0.2,0.4,0.7,0.6,1.1,0.3c0.4-0.2,0.6-0.7,0.3-1.1c0,0,0,0,0,0
		c-0.5-0.9-1.1-1.8-2-2.6C43,989.7,41.7,989.2,40.2,989.2z M58.6,989.2c-1.6,0-2.8,0.5-3.7,1.2c-0.9,0.7-1.5,1.7-2,2.6
		c-0.2,0.4-0.1,0.9,0.3,1.1c0.4,0.2,0.9,0.1,1.1-0.3c0,0,0,0,0,0c0.4-0.8,0.9-1.5,1.6-2s1.5-0.9,2.7-0.9c1.2,0,2,0.3,2.7,0.9
		s1.2,1.3,1.6,2c0.2,0.4,0.7,0.6,1.1,0.3c0.4-0.2,0.6-0.7,0.3-1.1c0,0,0,0,0,0c-0.5-0.9-1.1-1.8-2-2.6
		C61.4,989.7,60.2,989.2,58.6,989.2z M39.2,1008.4c-0.5,0-0.8,0.5-0.7,0.9c0,0.1,0.1,0.3,0.1,0.4c1.7,2.6,4.6,5.4,9.9,5.4
		s8.2-2.8,9.9-5.4c0.3-0.4,0.1-0.9-0.3-1.2c-0.4-0.2-0.9-0.1-1.2,0.2c-1.6,2.4-3.7,4.7-8.5,4.7s-6.9-2.2-8.5-4.7
		C39.9,1008.5,39.6,1008.4,39.2,1008.4z"/>
</g>
</svg>
