<?xml version="1.0" encoding="utf-8"?>
<!-- Generator: Adobe Illustrator 21.0.2, SVG Export Plug-In . SVG Version: 6.00 Build 0)  -->
<svg version="1.1" id="Layer_1" xmlns="http://www.w3.org/2000/svg" xmlns:xlink="http://www.w3.org/1999/xlink" x="0px" y="0px"
	 viewBox="0 0 80.3 72" style="enable-background:new 0 0 80.3 72;" xml:space="preserve">
<style type="text/css">
	.st0{fill:url(#scenes_1_);}
	.st1{fill:url(#SVGID_1_);}
	.st2{fill:url(#SVGID_2_);}
	.st3{fill:url(#SVGID_3_);}
	.st4{fill:url(#SVGID_4_);}
	.st5{fill:url(#SVGID_5_);}
	.st6{fill:url(#SVGID_6_);}
	.st7{fill:url(#SVGID_7_);}
	.st8{fill:url(#SVGID_8_);}
	.st9{fill:url(#SVGID_9_);}
	.st10{fill:url(#SVGID_10_);}
	.st11{fill:url(#SVGID_11_);}
	.st12{fill:url(#SVGID_12_);}
	.st13{fill:url(#SVGID_13_);}
	.st14{fill:url(#SVGID_14_);}
	.st15{fill:url(#SVGID_15_);}
	.st16{fill:url(#SVGID_16_);}
	.st17{fill:url(#SVGID_17_);}
	.st18{fill:url(#SVGID_18_);}
	.st19{fill:url(#SVGID_19_);}
	.st20{fill:url(#SVGID_20_);}
	.st21{fill:url(#SVGID_21_);}
	.st22{fill:url(#SVGID_22_);}
	.st23{fill:url(#SVGID_23_);}
	.st24{fill:url(#SVGID_24_);}
	.st25{fill:url(#SVGID_25_);}
	.st26{fill:url(#SVGID_26_);}
</style>
<g>
	<linearGradient id="SVGID_1_" gradientUnits="userSpaceOnUse" x1="0" y1="36" x2="80.3478" y2="36">
		<stop  offset="0" style="stop-color:#5BCEE0"/>
		<stop  offset="1" style="stop-color:#F9B01D"/>
	</linearGradient>
	<path class="st1" d="M23,52.4c-2.3-3.4-6.1-5.6-10.4-5.6C5.6,46.7,0,52.5,0,59.4S5.6,72,12.5,72S24.9,66.4,25,59.5l0,0V23.9
		l53.2-6.1V46c-2.3-3.4-6.2-5.7-10.5-5.7c-7,0-12.6,5.7-12.6,12.6s5.7,12.6,12.6,12.6S80.3,60,80.3,53l0,0l0,0V0L23,6.4V52.4z
		 M12.5,69.9c-5.7,0-10.4-4.8-10.4-10.5c0-5.8,4.7-10.5,10.4-10.5S23,53.6,23,59.4S18.3,69.9,12.5,69.9z M67.7,63.5
		c-5.8,0-10.5-4.8-10.5-10.5c0-5.8,4.8-10.5,10.5-10.5c5.8,0,10.5,4.8,10.5,10.5C78.3,58.9,73.5,63.5,67.7,63.5z M78.3,2.3v13.5
		L25,21.8V8.2L78.3,2.3z"/>
</g>
</svg>
