<?xml version="1.0" encoding="utf-8"?>
<!-- Generator: Adobe Illustrator 21.1.0, SVG Export Plug-In . SVG Version: 6.00 Build 0)  -->
<svg version="1.1" id="Layer_1" xmlns="http://www.w3.org/2000/svg" xmlns:xlink="http://www.w3.org/1999/xlink" x="0px" y="0px"
	 viewBox="0 0 33.6 33.5" style="enable-background:new 0 0 33.6 33.5;" xml:space="preserve">
<style type="text/css">
	.st0{fill:#CE2949;}
</style>
<path class="st0" d="M10.7,19.5l-5,8.8c-0.4,0.6,0.1,1.5,0.8,1.5h19.7c0.7,0,1.2-0.9,0.8-1.5l-4.5-8.7c-0.1-0.2-0.3-0.4-0.6-0.4
	H11.3C11,19.2,10.8,19.3,10.7,19.5z"/>
<path d="M30.5,32.5H2.7c-1.2,0-2.1-0.9-2.1-2.1c0-0.5,0.1-0.9,0.4-1.2l0,0l11.6-16.1V6.5h-1c-1.1,0-2-0.9-2-2v-2c0-1.1,0.9-2,2-2h10
	c1.1,0,2,0.9,2,2v2c0,1.1-0.9,2-2,2h-1v6.6l11.6,16.1l0,0c0.2,0.3,0.4,0.8,0.4,1.2C32.6,31.6,31.7,32.5,30.5,32.5L30.5,32.5z
	 M18.6,13.7V4.5h2c0.6,0,1-0.4,1-1s-0.4-1-1-1h-8c-0.6,0-1,0.4-1,1s0.4,1,1,1h2v9.2l-4.9,6.8h13.8L18.6,13.7L18.6,13.7z M24.2,21.5
	H9l-6.5,9h28.2L24.2,21.5L24.2,21.5z"/>
</svg>
