<?xml version="1.0" encoding="UTF-8"?>
<svg width="89px" height="56px" viewBox="0 0 89 56" version="1.1" xmlns="http://www.w3.org/2000/svg" xmlns:xlink="http://www.w3.org/1999/xlink">
    <!-- Generator: Sketch 43.1 (39012) - http://www.bohemiancoding.com/sketch -->
    <title>live-video</title>
    <desc>Created with Sketch.</desc>
    <defs></defs>
    <g id="Page-1" stroke="none" stroke-width="1" fill="none" fill-rule="evenodd">
        <g id="Artboard-Copy" transform="translate(-1757.000000, -141.000000)" fill-rule="nonzero" fill="#5BCEE0">
            <path d="M1828.64435,154.676805 L1820.18349,160.929703 L1820.18349,177.462025 L1828.64435,183.919848 L1828.64435,154.676805 Z M1830.52791,153.28479 L1830.64435,153.28479 L1830.64435,185.446363 L1839.13233,191.924879 C1841.5413,193.763547 1843.08243,192.999037 1843.08243,189.961428 L1843.08243,149.023686 C1843.08243,145.977513 1841.49542,145.179382 1839.04237,146.99228 L1830.52791,153.28479 Z M1820,158.578401 L1837.85369,145.383856 C1841.62581,142.596116 1845.08243,144.334512 1845.08243,149.023686 L1845.08243,189.961428 C1845.08243,194.653644 1841.64513,196.358794 1837.91889,193.514705 L1820,179.837974 L1820,188.002631 C1820,192.971741 1815.96323,197 1811.00711,197 L1765.99289,197 C1761.02625,197 1757,192.972618 1757,188.002631 L1757,149.997369 C1757,145.028259 1761.03677,141 1765.99289,141 L1811.00711,141 C1815.97375,141 1820,145.027382 1820,149.997369 L1820,158.578401 Z M1759,149.997369 L1759,188.002631 C1759,191.867938 1762.13071,195 1765.99289,195 L1811.00711,195 C1814.86243,195 1818,191.863401 1818,188.002631 L1818,149.997369 C1818,146.132062 1814.86929,143 1811.00711,143 L1765.99289,143 C1762.13757,143 1759,146.136599 1759,149.997369 Z M1767.72484,168.783084 C1767.89893,168.334185 1768.25074,167.581728 1768.79912,166.626076 C1769.70619,165.045355 1770.84729,163.466304 1772.24302,161.99069 C1776.24498,157.759677 1781.50012,155.211052 1788.10814,155.211052 C1795.15073,155.211052 1800.48778,157.76344 1804.30229,162.009571 C1805.63649,163.494728 1806.68537,165.084373 1807.48246,166.676 C1807.96496,167.639461 1808.25922,168.399402 1808.39699,168.855537 L1808.50407,169.210091 L1808.35437,169.548861 C1808.30275,169.665663 1808.20578,169.869648 1808.06257,170.148472 C1807.82833,170.604506 1807.54616,171.110381 1807.21508,171.653756 C1806.27184,173.201847 1805.12213,174.748816 1803.75663,176.195218 C1799.59993,180.598196 1794.3765,183.14789 1788.11525,182.850873 C1781.92264,182.894925 1776.75783,180.387129 1772.59791,176.203109 C1771.16347,174.76036 1769.95275,173.216751 1768.95714,171.671781 C1768.60756,171.129309 1768.30926,170.624217 1768.06132,170.168842 C1767.90967,169.890323 1767.80684,169.686484 1767.75199,169.569659 L1767.57007,169.182181 L1767.72484,168.783084 Z M1769.81784,169.212473 C1770.04284,169.625725 1770.31617,170.088531 1770.6383,170.588411 C1771.56187,172.021589 1772.68704,173.45613 1774.0162,174.792986 C1777.82312,178.621959 1782.4958,180.890797 1788.15529,180.85201 C1793.82965,181.119851 1798.51705,178.831808 1802.30233,174.822262 C1803.56538,173.48438 1804.63276,172.048189 1805.50714,170.613119 C1805.81223,170.112387 1806.07085,169.648735 1806.28352,169.234681 C1806.31127,169.180663 1806.33681,169.130311 1806.36016,169.083761 C1806.34459,169.042182 1806.3276,168.997567 1806.30919,168.950013 C1806.14913,168.536658 1805.94526,168.072943 1805.69418,167.571574 C1804.97318,166.131885 1804.02193,164.690215 1802.81449,163.346145 C1799.36718,159.508769 1794.56265,157.211052 1788.10814,157.211052 C1782.08548,157.211052 1777.33995,159.512532 1773.69601,163.365026 C1772.41568,164.71864 1771.36621,166.170903 1770.53381,167.621498 C1770.24368,168.127096 1770.00197,168.594984 1769.80678,169.012457 C1769.79105,169.046119 1769.77611,169.078349 1769.76198,169.109112 C1769.77956,169.141894 1769.79818,169.176362 1769.81784,169.212473 Z M1788.5,177.416672 C1783.80558,177.416672 1780,173.611093 1780,168.916672 C1780,164.222252 1783.80558,160.416672 1788.5,160.416672 C1793.19442,160.416672 1797,164.222252 1797,168.916672 C1797,173.611093 1793.19442,177.416672 1788.5,177.416672 Z M1788.5,175.416672 C1792.08985,175.416672 1795,172.506523 1795,168.916672 C1795,165.326822 1792.08985,162.416672 1788.5,162.416672 C1784.91015,162.416672 1782,165.326822 1782,168.916672 C1782,172.506523 1784.91015,175.416672 1788.5,175.416672 Z" id="live-video"></path>
        </g>
    </g>
</svg>