<?xml version="1.0" encoding="UTF-8"?>
<svg width="61px" height="72px" viewBox="0 0 61 72" version="1.1" xmlns="http://www.w3.org/2000/svg" xmlns:xlink="http://www.w3.org/1999/xlink">
    <!-- Generator: Sketch 43.1 (39012) - http://www.bohemiancoding.com/sketch -->
    <title>magazine</title>
    <desc>Created with Sketch.</desc>
    <defs>
        <linearGradient x1="30.2694515%" y1="30.2694515%" x2="100%" y2="100%" id="linearGradient-1">
            <stop stop-color="#5BCEE0" offset="0%"></stop>
            <stop stop-color="#AAFFA4" offset="100%"></stop>
        </linearGradient>
    </defs>
    <g id="Page-1" stroke="none" stroke-width="1" fill="none" fill-rule="evenodd">
        <path d="M56.0662936,4.37970288 L56.0662936,0.64147164 C56.0692608,0.472368065 56.0041548,0.309164354 55.8856066,0.188536287 C55.7670583,0.0679082212 55.6050115,-2.60225084e-05 55.4358819,7.47756574e-09 L0.63429672,7.47756574e-09 C0.284348322,0.00603449367 0.00383291826,0.29147122 0.00388494352,0.64147164 L0.00388494352,67.0559053 C-0.00129498117,67.2326608 -0.00129498117,67.2662447 0.00388494352,67.2992221 C0.0821930746,67.4215348 0.11204258,67.4625779 0.147663068,67.4982995 L4.91446089,71.9222418 C4.94497607,71.9481185 5.11353829,71.9886009 5.11353829,71.9886009 C5.19021133,72.0037997 5.26912222,72.0037997 5.34579526,71.9886009 L60.2026797,71.9886009 C60.5245808,71.9854018 60.7942553,71.7441141 60.8330915,71.4245483 L60.8330915,5.06541393 C60.8452605,4.88966511 60.7846141,4.71664659 60.6653827,4.58695622 C60.5461512,4.45726586 60.3788299,4.38231949 60.2026797,4.37970288 L56.0662936,4.37970288 Z M37.0544016,44.0845849 C38.1603872,43.3325148 39.2663728,42.547265 40.3723584,41.7509554 C41.6983939,40.8945712 42.5553487,39.4744747 42.6949281,37.9021256 C42.8608259,34.3629718 38.8792778,30.7353391 35.0193882,27.2293648 L34.8424305,27.0524071 C38.403704,28.3464102 43.6903151,30.7685186 45.4820117,34.1417746 C48.2137961,39.3730864 46.5879973,45.8209823 40.7483934,52.7997513 C36.6562468,57.6992673 39.0341158,64.0255048 40.1843408,66.4144337 L28.5272529,66.4144337 C27.7244776,62.8568955 27.4008759,59.2080068 27.5650454,55.5647152 C27.8194221,50.4108224 32.3097235,47.3361825 37.0544016,44.0845849 Z M41.6000023,66.4144337 C40.8258124,64.9434728 37.7401127,58.3628587 41.7106009,53.6181806 C47.8820004,46.2191371 49.5741583,39.2403681 46.5879973,33.5556023 C43.7234946,28.0256744 33.117093,25.1058725 31.8452096,24.763017 C30.8387627,24.0662461 29.5447596,23.225697 28.1290981,22.3630283 C30.4627276,20.7040499 37.640574,15.870893 42.3631324,15.870893 C47.5059653,15.870893 53.7769035,22.152891 54.8275898,23.2478167 L54.8275898,66.3812541 L41.6000023,66.4144337 Z M26.6138978,22.9713204 C28.8535319,24.285677 31.0241272,25.7142831 33.117093,27.2514845 L34.11248,28.1583927 C37.5852747,31.3215114 41.4783439,34.9270244 41.3788052,37.8357665 C41.261533,39.0324746 40.5901557,40.1050409 39.5649889,40.7334487 C38.5253624,41.5186984 37.3530177,42.2928883 36.3133913,43.0338986 C31.5134139,46.3518554 26.5475387,49.7251114 26.3595211,55.5094159 C26.178151,59.1690879 26.4868751,62.8365818 27.2774892,66.4144337 L1.27576835,66.4144337 L1.27576835,27.1851254 C3.26654238,26.0791398 14.2157996,19.8856206 18.5291433,19.8856206 C20.6415757,19.8413812 23.7825748,21.3344617 26.6138978,22.9713204 Z M54.7501708,1.28294327 L54.7501708,21.4450603 C52.4829004,19.2330891 47.1078105,14.5990096 42.2857134,14.5990096 C36.7557855,14.5990096 28.5825521,20.3833141 26.8019154,21.6662574 C23.9042332,20.0183389 20.7079349,18.5694978 18.4406644,18.5694978 C14.1162609,18.5694978 4.30616882,23.9114081 1.18728951,25.680985 L1.18728951,1.28294327 L54.7501708,1.28294327 Z M59.5169686,70.7830767 L6.08680559,70.7830767 L2.78421846,67.8709028 L55.7775096,67.8709028 C56.1317846,67.8709028 56.4189813,67.5837061 56.4189813,67.2294311 L56.4552225,5.65158628 L59.561208,5.65158628 L59.5169686,70.7830767 Z M11.6167335,27.5943401 C11.6932892,27.5559629 11.7753938,27.5298387 11.8600503,27.5169211 L24.3355675,26.1565588 C24.5399039,26.1322263 24.7429823,26.210971 24.8775005,26.3666961 L32.7963572,35.2809398 C32.9380353,35.4368962 32.9924326,35.653323 32.94133,35.8577334 C32.8902274,36.0621438 32.7403819,36.22751 32.5419805,36.2984465 L21.5706036,40.4569523 C21.479148,40.4923478 21.3801606,40.5037694 21.2830474,40.4901318 L3.98543301,40.4901318 C3.7485292,40.4887727 3.53166109,40.3569509 3.42138036,40.1472763 C3.30005273,39.946685 3.30005273,39.6953361 3.42138036,39.4947448 L11.4176561,27.7823576 C11.4697091,27.7060869 11.5376152,27.6419534 11.6167335,27.5943401 Z M5.14671786,39.2182484 L19.9669245,39.2182484 L11.9706488,29.2643783 L5.14671786,39.2182484 Z M31.1705584,35.4247179 L24.0922507,27.4395021 L13.1429935,28.6560862 L21.4931846,39.09659 L31.1705584,35.4247179 Z M39.7419466,10.960317 L3.94119358,10.960317 C3.77206398,10.9603431 3.61001714,10.8924088 3.49146887,10.7717808 C3.3729206,10.6511527 3.30781462,10.487949 3.31078181,10.3188454 L3.31078181,3.1741786 C3.30781462,3.00507503 3.3729206,2.84187132 3.49146887,2.72124325 C3.61001714,2.60061518 3.77206398,2.53268094 3.94119358,2.53270697 L39.7419466,2.53270697 C39.9110762,2.53268094 40.073123,2.60061518 40.1916713,2.72124325 C40.3102196,2.84187132 40.3753255,3.00507503 40.3723584,3.1741786 L40.3723584,10.3188454 C40.3753255,10.487949 40.3102196,10.6511527 40.1916713,10.7717808 C40.073123,10.8924088 39.9110762,10.9603431 39.7419466,10.960317 Z M4.58266522,3.80459038 L4.58266522,9.68843363 L39.1004749,9.68843363 L39.1004749,3.80459038 L4.58266522,3.80459038 Z M34.4332158,4.85527667 C34.6043154,4.85517131 34.7681087,4.92461726 34.8869907,5.04767065 C35.0058728,5.17072404 35.0696311,5.33681388 35.0636276,5.50780816 C35.0636796,5.85780858 34.7831642,6.14324531 34.4332158,6.14927979 C34.035061,6.14927979 33.8138639,6.43683604 33.3935894,7.10042739 C33.1121081,8.03484915 32.2515244,8.67439247 31.275627,8.67439247 C30.2997296,8.67439247 29.4391459,8.03484915 29.1576646,7.10042739 C28.7373901,6.42577619 28.5051332,6.13821994 28.1180382,6.13821994 C27.7309433,6.13821994 27.5097461,6.42577619 27.0894716,7.08936753 C26.802087,8.01467747 25.9459501,8.64525521 24.9770392,8.64525521 C24.0081282,8.64525521 23.1519913,8.01467747 22.8646067,7.08936753 C22.4443322,6.41471633 22.234195,6.12716008 21.8360402,6.12716008 C21.4378853,6.12716008 21.2166882,6.41471633 20.7964137,7.07830767 C20.4336879,7.94787226 19.621807,8.54721884 18.6839813,8.63774733 C17.7461555,8.54721884 16.9342747,7.94787226 16.5715488,7.07830767 C16.1623342,6.41471633 15.9300772,6.12716008 15.5429822,6.12716008 C15.1558873,6.12716008 14.9236303,6.41471633 14.5144157,7.07830767 C14.1516898,7.94787226 13.339809,8.54721884 12.4019832,8.63774733 C11.4641574,8.54721884 10.6522766,7.94787226 10.2895508,7.07830767 C9.86927625,6.41471633 9.64807914,6.12716008 9.24992433,6.12716008 C8.89997593,6.1211256 8.61946053,5.83568887 8.61951256,5.48568845 C8.61951256,5.13752164 8.90175752,4.85527667 9.24992433,4.85527667 C10.1877501,4.94580516 10.9996309,5.54515175 11.3623568,6.41471633 C11.7826313,7.07830767 12.0148883,7.36586392 12.4019832,7.36586392 C12.7890782,7.36586392 13.0102753,7.07830767 13.4305498,6.41471633 C13.7932756,5.54515175 14.6051565,4.94580516 15.5429822,4.85527667 C16.480808,4.94580516 17.2926889,5.54515175 17.6554147,6.41471633 C18.0756892,7.07830767 18.2858265,7.36586392 18.6839813,7.36586392 C19.0821361,7.36586392 19.3033332,7.07830767 19.7236077,6.41471633 C20.0863335,5.54515175 20.8982144,4.94580516 21.8360402,4.85527667 C22.7729621,4.94815824 23.5837642,5.5467085 23.9484726,6.41471633 C24.3576873,7.07830767 24.5788844,7.36586392 24.9770392,7.36586392 C25.375194,7.36586392 25.5963911,7.07830767 26.0166656,6.40365647 C26.3040502,5.47834653 27.1601871,4.8477688 28.1290981,4.8477688 C29.098009,4.8477688 29.9541459,5.47834653 30.2415305,6.40365647 C30.6507452,7.07830767 30.8719423,7.36586392 31.2700971,7.36586392 C31.6682519,7.36586392 31.889449,7.07830767 32.3097235,6.40365647 C32.6794563,5.53669908 33.4947294,4.94222914 34.4332158,4.85527667 Z M18.5623229,49.1057594 L11.2959976,49.0946996 C10.245389,49.0946996 9.39370246,49.9463862 9.39370246,50.9969948 C9.39370246,52.0476034 10.245389,52.89929 11.2959976,52.89929 L16.0406758,52.89929 C17.2214282,52.8296227 18.3435565,53.4199751 18.9549669,54.4325002 C19.5663773,55.4450253 19.5663773,56.7129716 18.9549669,57.7254968 C18.3435565,58.7380219 17.2214282,59.3283743 16.0406758,59.258707 L14.2932185,59.258707 L14.2932185,61.249481 C14.2510569,61.5684951 13.9790649,61.806905 13.6572768,61.806905 C13.3354888,61.806905 13.0634968,61.5684951 13.0213351,61.249481 L13.0213351,59.2697669 L8.75223083,59.2697669 C8.39795583,59.2697669 8.11075919,58.9825702 8.11075919,58.6282952 C8.11073316,58.4591656 8.17866741,58.2971188 8.29929547,58.1785705 C8.41992354,58.0600222 8.58312725,57.9949163 8.75223083,57.9978834 L16.0406758,57.9978834 C16.7569514,58.0524592 17.4434451,57.7012349 17.8182738,57.0884276 C18.1931025,56.4756204 18.1931025,55.7044963 17.8182738,55.0916891 C17.4434451,54.4788818 16.7569514,54.1276574 16.0406758,54.1822332 L11.2959976,54.1822332 C9.54294721,54.1822332 8.12181905,52.7611051 8.12181905,51.0080546 C8.12181905,49.2550042 9.54294721,47.833876 11.2959976,47.833876 L13.0213351,47.833876 L13.0213351,45.843102 C13.0634968,45.524088 13.3354888,45.285678 13.6572768,45.285678 C13.9790649,45.285678 14.2510569,45.524088 14.2932185,45.843102 L14.2932185,47.833876 L18.5623229,47.833876 C18.7314264,47.8309088 18.8946301,47.8960148 19.0152582,48.0145631 C19.1358863,48.1331114 19.2038205,48.2951582 19.2037945,48.4642878 C19.2037945,48.8185628 18.9165979,49.1057594 18.5623229,49.1057594 Z" id="magazine" fill="url(#linearGradient-1)" fill-rule="nonzero"></path>
    </g>
</svg>