<?xml version="1.0" encoding="UTF-8"?>
<svg width="107px" height="104px" viewBox="0 0 107 104" version="1.1" xmlns="http://www.w3.org/2000/svg" xmlns:xlink="http://www.w3.org/1999/xlink">
    <!-- Generator: Sketch 47.1 (45422) - http://www.bohemiancoding.com/sketch -->
    <title>music-notes</title>
    <desc>Created with Sketch.</desc>
    <defs></defs>
    <g id="Page-1" stroke="none" stroke-width="1" fill="none" fill-rule="evenodd">
        <g id="Group" transform="translate(-92.000000, -98.000000)" fill-rule="nonzero" fill="#55CEE2">
            <g id="music-notes" transform="translate(92.000000, 98.000000)">
                <path d="M103.912925,41.2134582 C101.549326,37.3791963 97.9314173,34.9953556 93.1609011,34.1303332 C78.2476234,31.4246237 77.119499,22.1366975 77.0799487,21.7605134 C76.9923731,20.7305333 76.1467506,19.9520132 75.1937774,20.0023052 C74.2257373,20.0495796 73.4639238,20.9015261 73.4639238,21.9355296 L73.4639238,78.0895627 C70.6935213,75.2983568 66.5680513,73.6196099 61.8888773,73.6196099 C59.8397966,73.6196099 57.7681156,73.9344378 55.7303349,74.5570528 C51.2479707,75.9260009 47.3955858,78.6427747 44.8832018,82.2034481 C42.2559337,85.9270676 41.3858278,90.1304728 42.431085,94.0381611 C44.0262793,99.996757 49.9625868,104 57.2031117,104 C59.2521925,104 61.3238735,103.685172 63.3616542,103.062557 C71.1125659,100.69481 76.5111781,94.3771291 77.0319233,87.8411811 C77.0658236,87.6943285 77.0884237,87.5424466 77.0884237,87.3835239 L77.0884237,48.3305562 C79.6554248,50.2336054 83.950396,51.9918137 91.0449616,53.0197821 C100.567161,54.4008004 102.60965,65.0616981 102.691575,65.5103027 C102.849776,66.4065061 103.57204,67.0623137 104.425195,67.0864539 C105.306601,67.0864539 106.035457,66.4769149 106.233208,65.6078692 C106.344325,65.1129959 108.936752,49.3647852 103.912925,41.2134582 Z M62.3644223,99.3399435 C60.6515188,99.8639861 58.9141319,100.128522 57.2031117,100.128522 C51.5973314,100.128522 47.0612919,97.2538314 45.9162173,92.9729765 C45.1901873,90.261232 45.8512419,87.2638289 47.7779051,84.5329735 C49.8194525,81.6391719 52.9975994,79.4182773 56.7275668,78.2796664 C58.4404703,77.7556238 60.1778572,77.4910879 61.8888773,77.4910879 C67.4946576,77.4910879 72.0306972,80.3657785 73.1757718,84.6466334 C73.3669314,85.3617856 73.4592154,86.0900137 73.4639238,86.8192477 C73.4535654,92.0576622 68.9260008,97.3363103 62.3644223,99.3399435 Z M91.5318066,49.1845143 C80.8711248,47.6385383 77.0874821,44.3755935 77.0874821,42.0500915 L77.0874821,29.9540857 C79.7759589,33.1687502 84.4475994,36.475952 92.5544636,37.94649 C96.290081,38.6244261 99.0896753,40.4359439 100.878854,43.3307513 C102.746192,46.3533004 103.311196,54.1422995 103.36393,57.4082618 C101.037055,53.611216 97.2430543,50.0123206 91.5318066,49.1845143 Z M62.6068246,21.3130488 C60.2432249,17.4787869 56.6253167,15.0949462 51.8548005,14.2299238 C36.9415227,11.5242143 35.8133983,2.23628817 35.773848,1.86010403 C35.6862724,0.830123911 34.8406499,0.0516037843 33.8876767,0.101895782 C32.9196367,0.14917026 32.1578231,1.0011167 32.1578231,2.03512018 L32.1578231,58.1891533 C29.3874207,55.3979474 25.2619506,53.7192006 20.5827767,53.7192006 C18.5336959,53.7192006 16.462015,54.0340285 14.4242343,54.6566434 C9.94187004,56.0255916 6.08948516,58.7423653 3.57710118,62.3030387 C0.949833081,66.0266583 0.0797270863,70.2300635 1.12498429,74.1377517 C2.72017861,80.0963476 8.65648618,84.0995906 15.8970111,84.0995906 C17.9460919,84.0995906 20.0177728,83.7847627 22.0555535,83.1621478 C29.8064652,80.7944005 35.2050774,74.4767198 35.7258227,67.9407717 C35.7597229,67.7939191 35.7823231,67.6420372 35.7823231,67.4831145 L35.7823231,28.4301468 C38.3493241,30.333196 42.6442954,32.0914043 49.7388609,33.1193727 C59.2610598,34.500391 61.3035489,45.1612887 61.3854745,45.6098933 C61.5436756,46.5060967 62.2659389,47.1619044 63.1190948,47.1860445 C64.0005008,47.1860445 64.7293558,46.5765055 64.9271072,45.7074598 C65.0382246,45.2125865 67.6306508,29.4643758 62.6068246,21.3130488 Z M21.0583216,79.4395341 C19.3454182,79.9635767 17.6080312,80.2281126 15.8970111,80.2281126 C10.2912308,80.2281126 5.75519119,77.353422 4.61011663,73.0725672 C3.88408663,70.3608226 4.54514119,67.3634196 6.47180446,64.6325641 C8.51335186,61.7387625 11.6914988,59.5178679 15.4214661,58.3792571 C17.1343696,57.8552145 18.8717566,57.5906785 20.5827767,57.5906785 C26.188557,57.5906785 30.7245966,60.4653691 31.8696711,64.746224 C32.0608308,65.4613762 32.1531147,66.1896043 32.1578231,66.9188383 C32.1474647,72.1572528 27.6199002,77.4359009 21.0583216,79.4395341 Z M50.2257059,29.284105 C39.5650241,27.7381289 35.7813814,24.4751841 35.7813814,22.1496821 L35.7813814,10.0536763 C38.4698583,13.2683408 43.1414988,16.5755426 51.248363,18.0460806 C54.9839804,18.7240168 57.7835747,20.5355345 59.5727537,23.4303419 C61.4400915,26.452891 62.0050954,34.2418901 62.0578291,37.5078524 C59.7309547,33.7108066 55.9369536,30.1119112 50.2257059,29.284105 Z" id="Shape-Copy"></path>
            </g>
        </g>
    </g>
</svg>