<?xml version="1.0" encoding="UTF-8"?>
<svg width="99px" height="118px" viewBox="0 0 99 118" version="1.1" xmlns="http://www.w3.org/2000/svg" xmlns:xlink="http://www.w3.org/1999/xlink">
    <!-- Generator: Sketch 43.1 (39012) - http://www.bohemiancoding.com/sketch -->
    <title>music-video</title>
    <desc>Created with Sketch.</desc>
    <defs>
        <linearGradient x1="30.2694515%" y1="30.2694515%" x2="100%" y2="100%" id="linearGradient-1">
            <stop stop-color="#5BCEE0" offset="0%"></stop>
            <stop stop-color="#AAFFA4" offset="100%"></stop>
        </linearGradient>
    </defs>
    <g id="Page-1" stroke="none" stroke-width="1" fill="none" fill-rule="evenodd">
        <path d="M28.6556909,46.1511044 C28.66749,40.1084595 28.6822788,33.7260361 28.6993749,27.1465628 C28.7154881,20.9453793 28.7327521,14.9079561 28.7500162,9.27499046 C28.7560586,7.30344739 28.7616695,5.52328286 28.7667049,3.96458442 C28.7695103,3.09977111 28.7695103,3.09977111 28.7713806,2.53164495 C28.7727475,2.11938428 28.7727475,2.11938428 28.7730353,2.03389848 L28.7763491,1.04969933 L33.8858022,0.985553616 L33.8574923,2.02574357 C33.8531309,2.33971995 33.8729104,2.82959982 33.9392074,3.47840578 C34.0444609,4.50845483 34.2411229,5.64321614 34.5514599,6.85534468 C35.4217646,10.2546215 37.0132138,13.6420922 39.5046497,16.8077722 C40.224052,17.7218625 41.0117187,18.6067642 41.8704863,19.4594274 C42.9159854,20.4974947 43.8474569,21.4633861 45.7354907,23.4496174 C48.7795571,26.6521397 49.9964947,27.8968849 51.3967425,29.183785 C54.9823276,32.4791229 58.8851031,38.7723958 59.2590457,42.0702519 C59.9782088,48.4126599 59.8480175,50.665918 58.1082511,55.4344908 C56.2064524,60.6471824 53.4649047,65.8896429 51.1369733,68.7743904 C50.1862712,69.9524901 49.684508,70.4022 48.9750796,70.3242195 C48.2418049,70.2436178 47.9750789,69.7032464 47.9654737,69.1255388 C47.9618506,68.907621 47.997071,68.6794165 48.0599561,68.4198347 C48.0847311,68.3175668 48.1135503,68.2125273 48.1456437,68.1054568 C48.2052972,67.9064395 48.2645253,67.7364711 48.3068447,67.6248969 L48.4294004,67.3965025 C48.4742496,67.334006 48.5647278,67.2029521 48.6943191,67.007102 C48.9141277,66.6749072 49.1600917,66.2853517 49.4257009,65.8422164 C50.1877425,64.5708462 50.9508928,63.1297973 51.6632587,61.5496535 C53.7419605,56.9387533 54.9648512,52.1256146 54.9059541,47.3727473 C54.8426214,42.2619336 52.762197,38.37213 49.2499456,35.3640847 C48.250369,34.5080037 47.1878212,33.7701106 46.0345799,33.0911214 C45.3705863,32.7001846 43.6869671,31.8047832 43.7863532,31.8607379 C42.8345818,31.3525528 41.227619,30.8418682 38.4885098,30.1331886 C37.6959569,29.9281343 33.3902431,28.8633242 30.8578599,28.2233649 L30.8577561,80.2687552 C30.7460235,87.9317208 24.6726712,95.0185896 15.8177144,95.0185896 C6.35137967,95.0185896 0.776987825,88.2530025 0.776987825,80.2541759 C0.776987825,72.459155 7.55656284,65.4519041 16.656451,65.4519041 C22.0817115,65.4519041 24.866421,66.3164013 28.6260533,69.4548542 C28.6280051,62.9076352 28.6383154,55.0496138 28.6556909,46.1511044 Z M67.6556909,69.1511044 C67.66749,63.1084595 67.6822788,56.7260361 67.6993749,50.1465628 C67.7154881,43.9453793 67.7327521,37.9079561 67.7500162,32.2749905 C67.7560586,30.3034474 67.7616695,28.5232829 67.7667049,26.9645844 C67.7695103,26.0997711 67.7695103,26.0997711 67.7713806,25.5316449 C67.7727475,25.1193843 67.7727475,25.1193843 67.7730353,25.0338985 L67.7763491,24.0496993 L72.8858022,23.9855536 L72.8574923,25.0257436 C72.8531309,25.33972 72.8729104,25.8295998 72.9392074,26.4784058 C73.0444609,27.5084548 73.2411229,28.6432161 73.5514599,29.8553447 C74.4217646,33.2546215 76.0132138,36.6420922 78.5046497,39.8077722 C79.224052,40.7218625 80.0117187,41.6067642 80.8704863,42.4594274 C81.9159854,43.4974947 82.8474569,44.4633861 84.7354907,46.4496174 C87.7795571,49.6521397 88.9964947,50.8968849 90.3967425,52.183785 C93.9823276,55.4791229 97.8851031,61.7723958 98.2590457,65.0702519 C98.9782088,71.4126599 98.8480175,73.665918 97.1082511,78.4344908 C95.2064524,83.6471824 92.4649047,88.8896429 90.1369733,91.7743904 C89.1862712,92.9524901 88.684508,93.4022 87.9750796,93.3242195 C87.2418049,93.2436178 86.9750789,92.7032464 86.9654737,92.1255388 C86.9618506,91.907621 86.997071,91.6794165 87.0599561,91.4198347 C87.0847311,91.3175668 87.1135503,91.2125273 87.1456437,91.1054568 C87.2052972,90.9064395 87.2645253,90.7364711 87.3068447,90.6248969 L87.4294004,90.3965025 C87.4742496,90.334006 87.5647278,90.2029521 87.6943191,90.007102 C87.9141277,89.6749072 88.1600917,89.2853517 88.4257009,88.8422164 C89.1877425,87.5708462 89.9508928,86.1297973 90.6632587,84.5496535 C92.7419605,79.9387533 93.9648512,75.1256146 93.9059541,70.3727473 C93.8426214,65.2619336 91.762197,61.37213 88.2499456,58.3640847 C87.250369,57.5080037 86.1878212,56.7701106 85.0345799,56.0911214 C84.3705863,55.7001846 82.6869671,54.8047832 82.7863532,54.8607379 C81.8345818,54.3525528 80.227619,53.8418682 77.4885098,53.1331886 C76.6959569,52.9281343 72.3902431,51.8633242 69.8578599,51.2233649 L69.8577561,103.268755 C69.7460235,110.931721 63.6726712,118.01859 54.8177144,118.01859 C45.3513797,118.01859 39.7769878,111.253003 39.7769878,103.254176 C39.7769878,95.459155 46.5565628,88.4519041 55.656451,88.4519041 C61.0817115,88.4519041 63.866421,89.3164013 67.6260533,92.4548542 C67.6280051,85.9076352 67.6383154,78.0496138 67.6556909,69.1511044 Z M16.656451,67.4519041 C8.67618511,67.4519041 2.77698783,73.5492119 2.77698783,80.2541759 C2.77698783,87.2247025 7.55076376,93.0185896 15.8177144,93.0185896 C23.4978331,93.0185896 28.7611913,86.8768861 28.8578624,80.2541759 L28.8578624,72.3265699 C24.5784009,68.370356 22.301706,67.4519041 16.656451,67.4519041 Z M56.2293917,54.7490076 C57.8457515,50.318683 57.959091,48.3570846 57.2717802,42.2955872 C56.9601656,39.5474113 53.305753,33.6546264 50.043386,30.6563427 C48.5967578,29.3268167 47.3645605,28.066463 44.3489489,24.8938755 C42.4111646,22.8553046 41.4885717,21.8986198 40.461326,20.8786762 C39.5444749,19.9683424 38.7025831,19.0225217 37.9330062,18.0446783 C35.2604628,14.6488787 33.5503544,11.0088364 32.6139533,7.35139759 C32.2781854,6.03993953 32.0646168,4.80762513 31.9495677,3.68171319 C31.9248615,3.4399297 31.9058364,3.21594396 31.8916354,3.01074663 L30.7697703,3.02483089 C30.7690811,3.2353323 30.768416,3.44033325 30.7666944,3.97104541 C30.7616594,5.52963604 30.7560489,7.30969041 30.7500068,9.28112009 C30.7337021,14.6010632 30.7173974,20.2817891 30.7020623,26.1204952 C33.0486323,26.718624 38.1101072,27.9694308 38.9894671,28.1969443 C41.8876867,28.94679 43.5847667,29.4861134 44.6434254,30.0500166 C44.7061368,30.0837194 44.7061368,30.0837194 44.7675422,30.117962 C44.6324033,30.0418783 46.3398287,30.9499406 47.0492995,31.3676528 C48.2975109,32.1025571 49.4545447,32.9060666 50.550916,33.8450468 C54.4745602,37.2054269 56.8348004,41.6184067 56.9058006,47.3479654 C56.9410297,50.1908815 56.5514992,53.0366839 55.8177157,55.8431263 C55.9588938,55.4788613 56.0962828,55.1138493 56.2293917,54.7490076 Z M55.656451,90.4519041 C47.6761851,90.4519041 41.7769878,96.5492119 41.7769878,103.254176 C41.7769878,110.224703 46.5507638,116.01859 54.8177144,116.01859 C62.4978331,116.01859 67.7611913,109.876886 67.8578624,103.254176 L67.8578624,95.3265699 C63.5784009,91.370356 61.301706,90.4519041 55.656451,90.4519041 Z M95.2293917,77.7490076 C96.8457515,73.318683 96.959091,71.3570846 96.2717802,65.2955872 C95.9601656,62.5474113 92.305753,56.6546264 89.043386,53.6563427 C87.5967578,52.3268167 86.3645605,51.066463 83.3489489,47.8938755 C81.4111646,45.8553046 80.4885717,44.8986198 79.461326,43.8786762 C78.5444749,42.9683424 77.7025831,42.0225217 76.9330062,41.0446783 C74.2604628,37.6488787 72.5503544,34.0088364 71.6139533,30.3513976 C71.2781854,29.0399395 71.0646168,27.8076251 70.9495677,26.6817132 C70.9248615,26.4399297 70.9058364,26.215944 70.8916354,26.0107466 L69.7697703,26.0248309 C69.7690811,26.2353323 69.768416,26.4403333 69.7666944,26.9710454 C69.7616594,28.529636 69.7560489,30.3096904 69.7500068,32.2811201 C69.7337021,37.6010632 69.7173974,43.2817891 69.7020623,49.1204952 C72.0486323,49.718624 77.1101072,50.9694308 77.9894671,51.1969443 C80.8876867,51.94679 82.5847667,52.4861134 83.6434254,53.0500166 C83.7061368,53.0837194 83.7061368,53.0837194 83.7675422,53.117962 C83.6324033,53.0418783 85.3398287,53.9499406 86.0492995,54.3676528 C87.2975109,55.1025571 88.4545447,55.9060666 89.550916,56.8450468 C93.4745602,60.2054269 95.8348004,64.6184067 95.9058006,70.3479654 C95.9410297,73.1908815 95.5514992,76.0366839 94.8177157,78.8431263 C94.9588938,78.4788613 95.0962828,78.1138493 95.2293917,77.7490076 Z" id="music-video" fill="url(#linearGradient-1)" fill-rule="nonzero"></path>
    </g>
</svg>