<?xml version="1.0" encoding="UTF-8"?>
<svg width="50px" height="44px" viewBox="0 0 50 44" version="1.1" xmlns="http://www.w3.org/2000/svg" xmlns:xlink="http://www.w3.org/1999/xlink">
    <!-- Generator: Sketch 43.1 (39012) - http://www.bohemiancoding.com/sketch -->
    <title>Combined Shape</title>
    <desc>Created with Sketch.</desc>
    <defs>
        <linearGradient x1="30.2694515%" y1="30.2694515%" x2="100%" y2="100%" id="linearGradient-1">
            <stop stop-color="#5BCEE0" offset="0%"></stop>
            <stop stop-color="#AAFFA4" offset="100%"></stop>
        </linearGradient>
    </defs>
    <g id="Page-1" stroke="none" stroke-width="1" fill="none" fill-rule="evenodd">
        <path d="M32.5634766,9.262207 L22.6582032,9.262207 C22.381836,9.262207 22.1582032,9.0385742 22.1582032,8.762207 C22.1582032,8.4858398 22.381836,8.262207 22.6582032,8.262207 L32.5634766,8.262207 C32.8398438,8.262207 33.0634766,8.4858398 33.0634766,8.762207 C33.0634766,9.0385742 32.8398438,9.262207 32.5634766,9.262207 Z M37.0693359,21.0263672 L49,21.0263672 C49.2763672,21.0263672 49.5,21.25 49.5,21.5263672 L49.5,36.7612305 C49.5,40.4638672 46.4873047,43.4765625 42.7851563,43.4765625 L7.2158203,43.4765625 C3.5126953,43.4765625 0.5,40.4638672 0.5,36.7612305 L0.5,1.0234375 C0.5,0.7470703 0.7236328,0.5234375 1,0.5234375 L36.5693359,0.5234375 C36.8457031,0.5234375 37.0693359,0.7470703 37.0693359,1.0234375 L37.0693359,21.0263672 Z M36.069336,36.7615633 C36.0693359,36.7614524 36.0693359,36.7613414 36.0693359,36.7612305 L36.0693359,1.5234375 L1.5,1.5234375 L1.5,36.7612305 C1.5,39.9125977 4.0644531,42.4765625 7.2158203,42.4765625 L39.2623962,42.4765625 C37.3477251,41.292237 36.0694536,39.1732742 36.069336,36.7615633 Z M17.9345703,18.4575195 L6.2441406,18.4575195 C5.9677734,18.4575195 5.7441406,18.2338867 5.7441406,17.9575195 L5.7441406,6.2675781 C5.7441406,5.9912109 5.9677734,5.7675781 6.2441406,5.7675781 L17.9345703,5.7675781 C18.2109375,5.7675781 18.4345703,5.9912109 18.4345703,6.2675781 L18.4345703,17.9575195 C18.4345703,18.2338867 18.2109375,18.4575195 17.9345703,18.4575195 Z M6.7441406,17.4575195 L17.4345703,17.4575195 L17.4345703,6.7675781 L6.7441406,6.7675781 L6.7441406,17.4575195 Z M32.5634766,15.9628906 L22.6582032,15.9628906 C22.381836,15.9628906 22.1582032,15.7392578 22.1582032,15.4628906 C22.1582032,15.1865234 22.381836,14.9628906 22.6582032,14.9628906 L32.5634766,14.9628906 C32.8398438,14.9628906 33.0634766,15.1865234 33.0634766,15.4628906 C33.0634766,15.7392578 32.8398438,15.9628906 32.5634766,15.9628906 Z M31.9804688,23.8334961 L6.2441406,23.8334961 C5.9677734,23.8334961 5.7441406,23.6098633 5.7441406,23.3334961 C5.7441406,23.0571289 5.9677734,22.8334961 6.2441406,22.8334961 L31.9804687,22.8334961 C32.2568359,22.8334961 32.4804687,23.0571289 32.4804687,23.3334961 C32.4804687,23.6098633 32.2568359,23.8334961 31.9804688,23.8334961 Z M31.9804688,30.6459961 L6.2441406,30.6459961 C5.9677734,30.6459961 5.7441406,30.4223633 5.7441406,30.1459961 C5.7441406,29.8696289 5.9677734,29.6459961 6.2441406,29.6459961 L31.9804687,29.6459961 C32.2568359,29.6459961 32.4804687,29.8696289 32.4804687,30.1459961 C32.4804687,30.4223633 32.2568359,30.6459961 31.9804688,30.6459961 Z M31.9804688,37.4584961 L6.2441406,37.4584961 C5.9677734,37.4584961 5.7441406,37.2348633 5.7441406,36.9584961 C5.7441406,36.6821289 5.9677734,36.4584961 6.2441406,36.4584961 L31.9804687,36.4584961 C32.2568359,36.4584961 32.4804687,36.6821289 32.4804687,36.9584961 C32.4804687,37.2348633 32.2568359,37.4584961 31.9804688,37.4584961 Z M37.0693359,22.0263672 L37.0693359,36.7612305 C37.0693359,39.9125977 39.633789,42.4765625 42.7851562,42.4765625 C45.9365234,42.4765625 48.5,39.9125977 48.5,36.7612305 L48.5,22.0263672 L37.0693359,22.0263672 Z" id="Combined-Shape" fill="url(#linearGradient-1)" fill-rule="nonzero"></path>
    </g>
</svg>