<?xml version="1.0" encoding="UTF-8"?>
<svg width="80px" height="70px" viewBox="0 0 80 70" version="1.1" xmlns="http://www.w3.org/2000/svg" xmlns:xlink="http://www.w3.org/1999/xlink">
    <!-- Generator: Sketch 43.1 (39012) - http://www.bohemiancoding.com/sketch -->
    <title>newspaper-article</title>
    <desc>Created with Sketch.</desc>
    <defs>
        <linearGradient x1="30.2694515%" y1="30.2694515%" x2="100%" y2="100%" id="linearGradient-1">
            <stop stop-color="#5BCEE0" offset="0%"></stop>
            <stop stop-color="#AAFFA4" offset="100%"></stop>
        </linearGradient>
    </defs>
    <g id="Page-1" stroke="none" stroke-width="1" fill="none" fill-rule="evenodd">
        <path d="M10.175973,26.5586237 L17.9499315,18.8945957 L10.175973,11.1651224 L10.175973,26.5586237 Z M11.2590937,27.5971944 L26.702616,27.5971944 L19.0136838,19.9522608 L11.2590937,27.5971944 Z M26.7936114,10.175973 L11.3085643,10.175973 L19.0181706,17.8414624 L26.7936114,10.175973 Z M27.5979902,11.489344 L20.081923,18.8991275 L27.5979902,26.3721853 L27.5979902,11.489344 Z M59.5964441,33.4132867 L79.0396508,33.4132867 C79.4900419,33.4132867 79.8544925,33.7777374 79.8544925,34.2281284 L79.8544925,59.0561341 C79.8544925,65.0902601 74.9447527,70 68.9114224,70 L10.9446617,70 C4.90973989,70 0,65.0902601 0,59.0561341 L0,0.814841761 C0,0.364450689 0.364450689,0 0.814841761,0 L58.7816023,0 C59.2319934,0 59.5964441,0.364450689 59.5964441,0.814841761 L59.5964441,33.4132867 Z M57.9667608,59.0566765 C57.9667606,59.0564957 57.9667606,59.0563149 57.9667606,59.0561341 L57.9667606,1.62968352 L1.62968352,1.62968352 L1.62968352,59.0561341 C1.62968352,64.1918653 5.80893048,68.3703165 10.9446617,68.3703165 L63.1704383,68.3703165 C60.0501304,66.4402408 57.9669524,62.987002 57.9667608,59.0566765 Z M28.4128319,29.2268779 L9.36113128,29.2268779 C8.91074021,29.2268779 8.54628952,28.8624272 8.54628952,28.4120361 L8.54628952,9.36113128 C8.54628952,8.91074021 8.91074021,8.54628952 9.36113128,8.54628952 L28.4128319,8.54628952 C28.863223,8.54628952 29.2276737,8.91074021 29.2276737,9.36113128 L29.2276737,28.4120361 C29.2276737,28.8624272 28.863223,29.2268779 28.4128319,29.2268779 Z M52.2533194,14.2414287 L36.1108586,14.2414287 C35.6604675,14.2414287 35.2960169,13.876978 35.2960169,13.4265869 C35.2960169,12.9761958 35.6604675,12.6117451 36.1108586,12.6117451 L52.2533194,12.6117451 C52.7037105,12.6117451 53.0681612,12.9761958 53.0681612,13.4265869 C53.0681612,13.876978 52.7037105,14.2414287 52.2533194,14.2414287 Z M52.2533194,25.1614223 L36.1108586,25.1614223 C35.6604675,25.1614223 35.2960169,24.7969716 35.2960169,24.3465805 C35.2960169,23.8961895 35.6604675,23.5317388 36.1108586,23.5317388 L52.2533194,23.5317388 C52.7037105,23.5317388 53.0681612,23.8961895 53.0681612,24.3465805 C53.0681612,24.7969716 52.7037105,25.1614223 52.2533194,25.1614223 Z M52.2533194,19.7014255 L36.1108586,19.7014255 C35.6604675,19.7014255 35.2960169,19.3369748 35.2960169,18.8865837 C35.2960169,18.4361926 35.6604675,18.071742 36.1108586,18.071742 L52.2533194,18.071742 C52.7037105,18.071742 53.0681612,18.4361926 53.0681612,18.8865837 C53.0681612,19.3369748 52.7037105,19.7014255 52.2533194,19.7014255 Z M51.3032012,37.9880184 L9.36113128,37.9880184 C8.91074021,37.9880184 8.54628952,37.6235677 8.54628952,37.1731766 C8.54628952,36.7227855 8.91074021,36.3583349 9.36113128,36.3583349 L51.3032011,36.3583349 C51.7535922,36.3583349 52.1180428,36.7227855 52.1180428,37.1731766 C52.1180428,37.6235677 51.7535922,37.9880184 51.3032012,37.9880184 Z M51.3032012,49.2430202 L9.36113128,49.2430202 C8.91074021,49.2430202 8.54628952,48.8785695 8.54628952,48.4281784 C8.54628952,47.9777874 8.91074021,47.6133367 9.36113128,47.6133367 L51.3032011,47.6133367 C51.7535922,47.6133367 52.1180428,47.9777874 52.1180428,48.4281784 C52.1180428,48.8785695 51.7535922,49.2430202 51.3032012,49.2430202 Z M51.3032012,43.6155193 L9.36113128,43.6155193 C8.91074021,43.6155193 8.54628952,43.2510686 8.54628952,42.8006775 C8.54628952,42.3502865 8.91074021,41.9858358 9.36113128,41.9858358 L51.3032011,41.9858358 C51.7535922,41.9858358 52.1180428,42.3502865 52.1180428,42.8006775 C52.1180428,43.2510686 51.7535922,43.6155193 51.3032012,43.6155193 Z M51.3032012,60.498022 L9.36113128,60.498022 C8.91074021,60.498022 8.54628952,60.1335713 8.54628952,59.6831803 C8.54628952,59.2327892 8.91074021,58.8683385 9.36113128,58.8683385 L51.3032011,58.8683385 C51.7535922,58.8683385 52.1180428,59.2327892 52.1180428,59.6831803 C52.1180428,60.1335713 51.7535922,60.498022 51.3032012,60.498022 Z M51.3032012,54.8705211 L9.36113128,54.8705211 C8.91074021,54.8705211 8.54628952,54.5060704 8.54628952,54.0556793 C8.54628952,53.6052883 8.91074021,53.2408376 9.36113128,53.2408376 L51.3032011,53.2408376 C51.7535922,53.2408376 52.1180428,53.6052883 52.1180428,54.0556793 C52.1180428,54.5060704 51.7535922,54.8705211 51.3032012,54.8705211 Z M59.5964441,35.0429702 L59.5964441,59.0561341 C59.5964441,64.1918653 63.7756911,68.3703165 68.9114223,68.3703165 C74.0471534,68.3703165 78.224809,64.1918653 78.224809,59.0561341 L78.224809,35.0429702 L59.5964441,35.0429702 Z" id="newspaper-article" fill="url(#linearGradient-1)" fill-rule="nonzero"></path>
    </g>
</svg>