<?xml version="1.0" encoding="UTF-8"?>
<svg width="60px" height="75px" viewBox="0 0 60 75" version="1.1" xmlns="http://www.w3.org/2000/svg" xmlns:xlink="http://www.w3.org/1999/xlink">
    <!-- Generator: Sketch 47.1 (45422) - http://www.bohemiancoding.com/sketch -->
    <title>people-cards</title>
    <desc>Created with Sketch.</desc>
    <defs></defs>
    <g id="Page-1" stroke="none" stroke-width="1" fill="none" fill-rule="evenodd">
        <g id="Group" transform="translate(-578.000000, -128.000000)" fill-rule="nonzero" fill="#55CEE2">
            <g id="people-cards" transform="translate(578.000000, 128.000000)">
                <path d="M58.3818359,7.7651367 L51.7802734,7.7651367 L51.7802734,2.2553711 C51.7802734,1.4267578 51.1088867,0.7553711 50.2802734,0.7553711 L1.6181641,0.7553711 C0.7895508,0.7553711 0.1181641,1.4267578 0.1181641,2.2553711 L0.1181641,64.5834961 C0.1181641,65.4121094 0.7895508,66.0834961 1.6181641,66.0834961 L8.2197266,66.0834961 L8.2197266,72.7446289 C8.2197266,73.5732422 8.8911133,74.2446289 9.7197266,74.2446289 L58.381836,74.2446289 C59.2104493,74.2446289 59.881836,73.5732422 59.881836,72.7446289 L59.881836,9.2651367 C59.8818359,8.4365234 59.2104492,7.7651367 58.3818359,7.7651367 Z M56.8818359,10.7651367 L56.8818359,47 L51.7802734,47 L51.7802734,10.7651367 L56.8818359,10.7651367 Z M48.7802734,3.7553711 L48.7802734,38.4194336 L40.9008789,38.4194336 L40.9008789,36.5112305 C40.9008789,31.7734375 37.5205078,27.3842774 32.8623047,26.0747071 C28.7265625,24.913086 23.1699219,24.913086 19.0361328,26.0747071 C14.3779297,27.3842774 10.9975586,31.7734376 10.9975586,36.5112305 L10.9975586,38.4194336 L3.1181641,38.4194336 L3.1181641,3.7553711 L48.7802734,3.7553711 Z M13.9975586,38.4194336 L13.9975586,36.5112305 C13.9975586,33.0903321 16.4580078,29.9155274 19.8476563,28.9624024 C23.4965821,27.9379883 28.400879,27.9370118 32.0507813,28.9624024 C35.4404297,29.9155274 37.900879,33.0903321 37.900879,36.5112305 L37.900879,38.4194336 L13.9975586,38.4194336 Z M3.1181641,41.4194336 L48.7802735,41.4194336 L48.7802735,63.0834961 L3.1181641,63.0834961 L3.1181641,41.4194336 Z M11.2197266,71.2446289 L11.2197266,66.0834961 L50.2802735,66.0834961 C51.1088868,66.0834961 51.7802735,65.4121094 51.7802735,64.5834961 L51.7802735,50 L56.881836,50 L56.881836,71.2446289 L11.2197266,71.2446289 Z" id="Shape"></path>
                <rect id="Rectangle-path" x="11" y="47" width="30" height="3"></rect>
                <rect id="Rectangle-path" x="11" y="54" width="24" height="3"></rect>
                <path d="M25.9492188,22.8168945 C29.8090821,22.8168945 32.9492188,19.6767578 32.9492188,15.8168945 C32.9492188,11.9570312 29.8090821,8.8168945 25.9492188,8.8168945 C22.0893555,8.8168945 18.9492188,11.9570312 18.9492188,15.8168945 C18.9492188,19.6767578 22.0893555,22.8168945 25.9492188,22.8168945 Z M25.9492188,11.8168945 C28.1547852,11.8168945 29.9492188,13.6113281 29.9492188,15.8168945 C29.9492188,18.0224609 28.1547852,19.8168945 25.9492188,19.8168945 C23.7436524,19.8168945 21.9492188,18.0224609 21.9492188,15.8168945 C21.9492188,13.6113281 23.7436523,11.8168945 25.9492188,11.8168945 Z" id="Shape"></path>
            </g>
        </g>
    </g>
</svg>