<?xml version="1.0" encoding="UTF-8"?>
<svg width="39px" height="73px" viewBox="0 0 39 73" version="1.1" xmlns="http://www.w3.org/2000/svg" xmlns:xlink="http://www.w3.org/1999/xlink">
    <!-- Generator: Sketch 43.1 (39012) - http://www.bohemiancoding.com/sketch -->
    <title>podcasts</title>
    <desc>Created with Sketch.</desc>
    <defs>
        <linearGradient x1="30.2694515%" y1="30.2694515%" x2="100%" y2="100%" id="linearGradient-1">
            <stop stop-color="#5BCEE0" offset="0%"></stop>
            <stop stop-color="#AAFFA4" offset="100%"></stop>
        </linearGradient>
    </defs>
    <g id="Page-1" stroke="none" stroke-width="1" fill="none" fill-rule="evenodd">
        <path d="M4.79978842,24.9425468 C4.4382916,24.9425468 4.16716898,24.7617984 3.98642057,24.4906757 C2.63080749,22.0505722 1.99818805,19.2489718 1.99818805,16.266623 C1.99818805,10.121177 4.98053684,4.42760208 9.95111815,1.17413068 C10.4029892,0.903008061 10.9452344,0.993382266 11.216357,1.44525329 C11.4874796,1.89712432 11.3971054,2.43936956 10.9452344,2.71049217 C6.42652413,5.69284096 3.71529796,10.7537965 3.71529796,16.3569972 C3.71529796,18.9778492 4.3479174,21.508327 5.52278207,23.6773079 C5.79390469,24.1291789 5.61315628,24.6714242 5.16128525,24.9425468 L4.79978842,24.9425468 Z M18.1963877,23.1082889 L14.8279014,31.2103849 L18.5366677,33.2386164 L18.5366677,23.1639348 C18.4223663,23.1482798 18.3089133,23.1297048 18.1963877,23.1082889 Z M20.602838,23.1232902 C20.5171207,23.1384965 20.4308805,23.1520562 20.3441518,23.1639348 L20.3441518,33.226849 L23.9727101,31.2109832 L20.602838,23.1232902 Z M16.5003658,22.541728 C14.2412932,21.4345703 12.6623443,19.1035098 12.6623443,16.4473714 C12.6623443,12.742029 15.7350673,9.66930601 19.4404097,9.66930601 C23.1457522,9.66930601 26.2184752,12.742029 26.2184752,16.4473714 C26.2184752,19.1328969 24.6043945,21.4861116 22.305223,22.5780256 L25.8231051,31.0100627 C25.8688994,31.0608863 25.910615,31.1171377 25.9473526,31.178367 C26.0312001,31.3181129 26.0718298,31.4665025 26.0745877,31.6128432 L32.1648033,46.2105248 C32.2045417,46.256645 32.2409981,46.3069855 32.273547,46.3612335 C32.353357,46.4942503 32.3940111,46.6350982 32.4001197,46.7745563 L38.5997414,61.6344743 C38.7804898,62.0863453 38.5997414,62.5382163 38.2382445,62.809339 L19.8922808,72.8408758 C19.7115324,72.93125 19.6211582,72.93125 19.4404098,72.93125 C19.2596613,72.93125 19.1692871,72.93125 18.9885387,72.8408758 L0.552200756,62.809339 C0.100329728,62.6285906 0.00995552216,62.0863453 0.190703934,61.6344743 L6.39032562,46.7745563 C6.39643422,46.6350982 6.43708828,46.4942503 6.51689833,46.3612335 C6.54944716,46.3069855 6.58590355,46.256645 6.62564201,46.2105248 L12.7158576,31.6128432 C12.7186155,31.4665025 12.7592451,31.3181129 12.8430927,31.178367 C12.8798303,31.1171377 12.9215459,31.0608863 12.9673402,31.0100627 L16.5003658,22.541728 Z M18.5366677,35.3595861 L14.1094494,32.9384511 L8.51350552,46.3981687 L18.5366677,51.8585481 L18.5366677,35.3595861 Z M20.3441518,51.8529954 L30.2972967,46.389991 L24.6929858,32.9396447 L20.3441518,35.3556636 L20.3441518,51.8529954 Z M18.5366677,53.9776209 L7.79518533,48.1259178 L2.17893646,61.6344743 L18.5366677,70.4810024 L18.5366677,53.9776209 Z M20.3441518,70.4702909 L36.6115088,61.5441001 L31.0171565,48.1176546 L20.3441518,53.97577 L20.3441518,70.4702909 Z M9.2281245,22.3216948 C8.86662768,22.3216948 8.59550506,22.1409464 8.41475665,21.7794496 C7.51101459,19.9719655 7.05914357,17.9837329 7.05914357,15.9955004 C7.05914357,11.5671643 9.1377503,7.59069928 12.8430927,5.24096993 C13.2949638,4.96984732 13.837209,5.06022152 14.1083316,5.51209255 C14.3794542,5.96396358 14.28908,6.50620881 13.837209,6.77733143 C10.6741118,8.85593816 8.86662768,12.1997838 8.86662768,16.0858746 C8.86662768,17.8029845 9.31849871,19.6104686 10.0414924,21.1468301 C10.2222408,21.5987012 10.0414924,22.1409464 9.67999553,22.3216948 C9.49924712,22.3216948 9.40887291,22.3216948 9.2281245,22.3216948 Z M34.0810311,24.9425468 C33.9002827,24.9425468 33.8099085,24.9425468 33.7195342,24.8521726 C33.2676632,24.6714242 33.0869148,24.1291789 33.3580374,23.6773079 C34.5329021,21.3275785 35.1655215,18.7971008 35.1655215,16.266623 C35.1655215,10.8441707 32.4542954,5.78321517 27.9355851,2.62011797 C27.4837141,2.34899535 27.3933398,1.80675012 27.6644625,1.35487909 C27.9355851,0.903008061 28.4778303,0.812633855 28.9297013,1.08375647 C33.9002827,4.51797629 36.8826314,10.2115512 36.8826314,16.1762488 C36.8826314,18.887475 36.1596378,21.7794496 34.8943989,24.3099273 C34.7136505,24.7617984 34.4425279,24.9425468 34.0810311,24.9425468 Z M29.5623208,22.3216948 C29.3815724,22.3216948 29.2911982,22.3216948 29.200824,22.2313206 C28.7489529,22.0505722 28.5682045,21.508327 28.8393271,21.0564559 C29.5623208,19.5200944 30.0141918,17.8029845 30.0141918,15.9955004 C30.0141918,12.290158 28.2067077,8.76556396 25.0436105,6.68695723 C24.5917395,6.41583461 24.5013653,5.87358937 24.7724879,5.42171835 C25.0436105,4.96984732 25.5858557,4.87947311 26.0377268,5.15059573 C29.652695,7.59069928 31.7313017,11.5671643 31.7313017,15.9051262 C31.7313017,17.8933587 31.2794307,19.9719655 30.3756886,21.6890754 C30.1949402,22.1409464 29.9238176,22.3216948 29.5623208,22.3216948 Z M19.4404097,11.4767901 C16.7291836,11.4767901 14.4698284,13.7361453 14.4698284,16.4473714 C14.4698284,19.1585976 16.7291836,21.4179528 19.4404097,21.4179528 C22.1516359,21.4179528 24.4109911,19.1585976 24.4109911,16.4473714 C24.4109911,13.7361453 22.1516359,11.4767901 19.4404097,11.4767901 Z" id="podcasts" fill="url(#linearGradient-1)" fill-rule="nonzero"></path>
    </g>
</svg>