<?xml version="1.0" encoding="utf-8"?>
<!-- Generator: Adobe Illustrator 21.1.0, SVG Export Plug-In . SVG Version: 6.00 Build 0)  -->
<svg version="1.1" id="Layer_1" xmlns="http://www.w3.org/2000/svg" xmlns:xlink="http://www.w3.org/1999/xlink" x="0px" y="0px"
	 viewBox="0 0 70 71.6" style="enable-background:new 0 0 70 71.6;" xml:space="preserve">
<style type="text/css">
	.st0{fill:#2F4D70;}
	.st1{fill:#EFEFEF;}
</style>
<g>
	<circle class="st0" cx="7.2" cy="24.6" r="5.4"/>
	<ellipse transform="matrix(0.7071 -0.7071 0.7071 0.7071 1.0378 18.116)" class="st0" cx="22.4" cy="7.8" rx="5.4" ry="5.4"/>
	<ellipse transform="matrix(0.7071 -0.7071 0.7071 0.7071 12.6655 46.1937)" class="st0" cx="62.1" cy="7.8" rx="5.4" ry="5.4"/>
	<ellipse transform="matrix(0.7071 -0.7071 0.7071 0.7071 -15.8536 58.9072)" class="st0" cx="63.2" cy="48.6" rx="5.4" ry="5.4"/>
	<ellipse transform="matrix(0.7071 -0.7071 0.7071 0.7071 -31.8533 52.2799)" class="st0" cx="47.2" cy="64.6" rx="5.4" ry="5.4"/>
	<ellipse transform="matrix(0.7071 -0.7071 0.7071 0.7071 -3.2463 39.7725)" class="st0" cx="46.4" cy="23.8" rx="5.4" ry="5.4"/>
	<ellipse transform="matrix(0.7071 -0.7071 0.7071 0.7071 -27.5692 30.6233)" class="st0" cx="23.2" cy="48.6" rx="5.4" ry="5.4"/>
	<ellipse transform="matrix(0.7071 -0.7071 0.7071 0.7071 -43.8034 23.4386)" class="st0" cx="6.4" cy="64.6" rx="5.4" ry="5.4"/>
</g>
<title>17_prototyping2</title>
<path class="st1" d="M63.8,44.3V12.1c1.7-0.4,3-2,3-3.9c0-2.2-1.8-4-4-4c-1.9,0-3.4,1.3-3.9,3H26.7c-0.4-1.7-2-3-3.9-3
	c-2.2,0-4,1.8-4,4c0,0.7,0.2,1.4,0.6,2L8.8,20.8c-0.6-0.4-1.3-0.6-2-0.6c-2.2,0-4,1.8-4,4c0,1.9,1.3,3.4,3,3.9v32.3
	c-1.7,0.4-3,2-3,3.9c0,2.2,1.8,4,4,4c1.9,0,3.4-1.3,3.9-3H43c0.4,1.7,2,3,3.9,3c2.2,0,4-1.8,4-4c0-0.7-0.2-1.4-0.6-2l10.5-10.7
	c0.6,0.4,1.3,0.6,2,0.6c2.2,0,4-1.8,4-4C66.8,46.3,65.5,44.8,63.8,44.3z M47.8,60.3V49.2h11.1c0.1,0.4,0.2,0.7,0.4,1L48.8,60.8
	C48.5,60.6,48.2,60.4,47.8,60.3z M58.9,47.2H47.8V28.1c1.7-0.4,3-2,3-3.9c0-0.7-0.2-1.4-0.6-2l10.6-10.6c0.3,0.2,0.7,0.3,1,0.4v32.3
	C60.4,44.7,59.3,45.8,58.9,47.2z M26.7,47.2c-0.4-1.4-1.5-2.5-2.9-2.9V25.2h19.1c0.4,1.4,1.5,2.5,2.9,2.9v19.1H26.7z M8.8,60.8
	c-0.3-0.2-0.7-0.3-1-0.4V28.1c1.4-0.4,2.5-1.5,2.9-2.9h11.1v19.1c-1.7,0.4-3,2-3,3.9c0,0.7,0.2,1.4,0.6,2L8.8,60.8z M21.8,12.1v11.1
	H10.7c-0.1-0.4-0.2-0.7-0.4-1l10.5-10.6C21.1,11.8,21.4,12,21.8,12.1z M20.8,48.2c0-1.1,0.9-2,2-2s2,0.9,2,2s-0.9,2-2,2
	S20.8,49.3,20.8,48.2z M48.8,24.2c0,1.1-0.9,2-2,2s-2-0.9-2-2s0.9-2,2-2S48.8,23.1,48.8,24.2z M62.8,6.2c1.1,0,2,0.9,2,2s-0.9,2-2,2
	s-2-0.9-2-2S61.7,6.2,62.8,6.2z M26.7,9.2H59c0.1,0.4,0.2,0.7,0.4,1L48.8,20.8c-0.6-0.4-1.3-0.6-2-0.6c-1.9,0-3.4,1.3-3.9,3H23.8
	V12.1C25.2,11.7,26.3,10.6,26.7,9.2z M22.8,6.2c1.1,0,2,0.9,2,2s-0.9,2-2,2s-2-0.9-2-2S21.7,6.2,22.8,6.2z M4.8,24.2
	c0-1.1,0.9-2,2-2s2,0.9,2,2s-0.9,2-2,2S4.8,25.3,4.8,24.2z M6.8,66.2c-1.1,0-2-0.9-2-2s0.9-2,2-2s2,0.9,2,2S7.9,66.2,6.8,66.2z
	 M42.9,63.2H10.7c-0.1-0.4-0.2-0.7-0.4-1l10.5-10.6c0.6,0.4,1.3,0.6,2,0.6c1.9,0,3.4-1.3,3.9-3h19.1v11.1
	C44.4,60.7,43.3,61.8,42.9,63.2z M46.8,66.2c-1.1,0-2-0.9-2-2s0.9-2,2-2s2,0.9,2,2S47.9,66.2,46.8,66.2z M62.8,50.2
	c-1.1,0-2-0.9-2-2s0.9-2,2-2s2,0.9,2,2S63.9,50.2,62.8,50.2z"/>
<g>
	<rect x="33.8" y="31.2" class="st1" width="2" height="2"/>
	<rect x="33.8" y="27.2" class="st1" width="2" height="2"/>
	<rect x="33.8" y="43.2" class="st1" width="2" height="2"/>
	<rect x="33.8" y="39.2" class="st1" width="2" height="2"/>
	<rect x="33.8" y="55.2" class="st1" width="2" height="2"/>
	<rect x="33.8" y="51.2" class="st1" width="2" height="2"/>
	<rect x="33.8" y="59.2" class="st1" width="2" height="2"/>
	<rect x="33.8" y="15.2" class="st1" width="2" height="2"/>
	<rect x="33.8" y="11.2" class="st1" width="2" height="2"/>
	<rect x="33.8" y="19.2" class="st1" width="2" height="2"/>
	<rect x="37.8" y="35.2" class="st1" width="2" height="2"/>
	<rect x="41.8" y="35.2" class="st1" width="2" height="2"/>
	<rect x="25.8" y="35.2" class="st1" width="2" height="2"/>
	<rect x="29.8" y="35.2" class="st1" width="2" height="2"/>
	<rect x="17.8" y="35.2" class="st1" width="2" height="2"/>
	<rect x="13.8" y="35.2" class="st1" width="2" height="2"/>
	<rect x="9.8" y="35.2" class="st1" width="2" height="2"/>
	<rect x="57.8" y="35.2" class="st1" width="2" height="2"/>
	<rect x="53.8" y="35.2" class="st1" width="2" height="2"/>
	<rect x="49.8" y="35.2" class="st1" width="2" height="2"/>
</g>
</svg>
