<?xml version="1.0" encoding="UTF-8"?>
<svg width="90px" height="90px" viewBox="0 0 90 90" version="1.1" xmlns="http://www.w3.org/2000/svg" xmlns:xlink="http://www.w3.org/1999/xlink">
    <!-- Generator: Sketch 43.1 (39012) - http://www.bohemiancoding.com/sketch -->
    <title>Combined Shape</title>
    <desc>Created with Sketch.</desc>
    <defs>
        <linearGradient x1="30.2694515%" y1="30.2694515%" x2="100%" y2="100%" id="linearGradient-1">
            <stop stop-color="#5BCEE0" offset="0%"></stop>
            <stop stop-color="#AAFFA4" offset="100%"></stop>
        </linearGradient>
    </defs>
    <g id="Page-1" stroke="none" stroke-width="1" fill="none" fill-rule="evenodd">
        <path d="M13.065,89.815 C5.849,89.814 0.001,83.967 0,76.751 L0,36.106 C0.001,28.89 5.849,23.042 13.065,23.042 L41.496,23.042 L21.117,2.663 C20.55,2.096 20.55,1.177 21.117,0.61 C21.684,0.043 22.603,0.043 23.17,0.61 L45,22.44 L66.473,0.967 C67.04,0.4 67.959,0.4 68.526,0.967 C69.093,1.534 69.093,2.453 68.526,3.02 L48.504,23.042 L76.936,23.042 C84.152,23.042 89.999,28.89 90,36.106 L90,76.751 C89.999,83.967 84.151,89.814 76.936,89.815 L13.065,89.815 Z M2.903,36.106 L2.904,36.106 L2.904,76.751 C2.905,79.562 4.039,82.093 5.88,83.936 C7.723,85.777 10.254,86.911 13.065,86.912 L76.935,86.912 C79.745,86.912 82.277,85.777 84.12,83.936 C85.961,82.092 87.095,79.561 87.096,76.751 L87.096,36.106 C87.095,33.296 85.961,30.765 84.12,28.921 C82.277,27.08 79.745,25.946 76.935,25.945 L45,25.945 L13.064,25.945 C10.254,25.946 7.722,27.08 5.879,28.921 C4.038,30.764 2.904,33.295 2.903,36.106 Z M69.496,51.045 C65.487,51.044 62.239,47.796 62.238,43.787 C62.239,39.778 65.487,36.53 69.496,36.529 C70.975,36.53 72.349,36.974 73.496,37.734 L74.422,36.808 C74.989,36.241 75.908,36.241 76.475,36.808 C77.042,37.375 77.042,38.294 76.475,38.861 L75.549,39.787 C76.309,40.934 76.754,42.308 76.754,43.787 C76.753,47.796 73.505,51.044 69.496,51.045 Z M66.416,40.708 C65.626,41.501 65.142,42.58 65.14,43.787 C65.141,44.994 65.626,46.073 66.416,46.866 C67.208,47.657 68.288,48.141 69.495,48.142 C70.702,48.141 71.781,47.656 72.574,46.866 C73.365,46.074 73.849,44.994 73.85,43.787 C73.85,43.113 73.686,42.487 73.415,41.92 L72.171,43.164 C71.604,43.731 70.685,43.731 70.118,43.164 C69.551,42.597 69.551,41.678 70.118,41.111 L71.362,39.867 C70.795,39.596 70.169,39.432 69.495,39.432 C68.288,39.433 67.209,39.918 66.416,40.708 Z M33.572,78.202 C21.546,78.202 11.798,68.454 11.798,56.428 C11.799,44.402 21.546,34.655 33.572,34.654 C45.598,34.655 55.345,44.402 55.346,56.428 C55.345,68.454 45.598,78.201 33.572,78.202 Z M20.228,43.085 C19.273,44.041 18.433,45.106 17.701,46.248 C18.048,46.643 18.251,47.153 18.251,47.68 C18.251,48.253 18.019,48.813 17.613,49.219 C17.207,49.625 16.646,49.857 16.073,49.857 L15.907,49.84 C15.336,51.371 14.945,52.988 14.79,54.679 C15.161,54.409 15.611,54.252 16.073,54.252 C16.647,54.252 17.208,54.485 17.613,54.89 C18.019,55.296 18.251,55.857 18.251,56.43 C18.251,57.003 18.019,57.563 17.613,57.969 C17.207,58.375 16.646,58.607 16.073,58.607 C15.611,58.607 15.161,58.45 14.79,58.179 C14.945,59.87 15.336,61.487 15.907,63.018 L16.073,63.001 C16.647,63.001 17.208,63.234 17.613,63.639 C18.019,64.045 18.251,64.606 18.251,65.179 C18.251,65.706 18.047,66.216 17.701,66.611 C18.435,67.752 19.275,68.817 20.23,69.773 C21.186,70.728 22.252,71.569 23.392,72.302 C23.787,71.955 24.297,71.752 24.824,71.752 C25.398,71.752 25.959,71.985 26.364,72.39 C26.77,72.796 27.002,73.357 27.002,73.93 L26.985,74.095 C28.515,74.666 30.133,75.056 31.824,75.212 C31.553,74.841 31.396,74.391 31.396,73.929 C31.396,73.355 31.629,72.794 32.034,72.389 C32.44,71.983 33.001,71.751 33.574,71.751 C34.148,71.751 34.709,71.984 35.114,72.389 C35.52,72.795 35.752,73.356 35.752,73.929 C35.752,74.391 35.595,74.841 35.324,75.212 C37.015,75.056 38.632,74.666 40.163,74.094 L40.146,73.929 C40.146,73.355 40.379,72.794 40.784,72.389 C41.19,71.983 41.751,71.751 42.324,71.751 C42.851,71.751 43.361,71.955 43.756,72.301 C44.897,71.567 45.962,70.727 46.918,69.772 C47.873,68.816 48.713,67.75 49.446,66.61 C49.099,66.215 48.896,65.705 48.896,65.178 C48.896,64.604 49.129,64.043 49.534,63.638 C49.94,63.232 50.501,63 51.074,63 L51.239,63.017 C51.81,61.486 52.2,59.869 52.356,58.178 C51.985,58.449 51.535,58.606 51.073,58.606 C50.499,58.606 49.939,58.373 49.533,57.968 C49.127,57.563 48.895,57.002 48.895,56.429 C48.895,55.855 49.128,55.294 49.533,54.889 C49.939,54.483 50.5,54.251 51.073,54.251 C51.535,54.251 51.985,54.407 52.356,54.678 C52.201,52.987 51.81,51.37 51.239,49.839 L51.074,49.856 C50.5,49.856 49.94,49.623 49.534,49.218 C49.128,48.813 48.896,48.252 48.896,47.679 C48.896,47.152 49.1,46.642 49.446,46.247 C48.713,45.106 47.873,44.041 46.918,43.085 C45.962,42.129 44.896,41.289 43.756,40.556 C43.361,40.902 42.851,41.106 42.324,41.106 C41.75,41.106 41.19,40.873 40.784,40.468 C40.378,40.063 40.146,39.502 40.146,38.929 L40.163,38.764 C38.632,38.193 37.015,37.802 35.324,37.647 C35.594,38.017 35.751,38.467 35.751,38.929 C35.751,39.502 35.519,40.062 35.113,40.468 C34.707,40.874 34.146,41.106 33.573,41.106 C32.999,41.106 32.439,40.873 32.033,40.468 C31.627,40.063 31.395,39.502 31.395,38.929 C31.395,38.467 31.551,38.018 31.822,37.647 C30.131,37.802 28.514,38.193 26.983,38.764 L27,38.929 C27,39.502 26.768,40.062 26.362,40.468 C25.956,40.874 25.395,41.106 24.822,41.106 C24.295,41.106 23.785,40.902 23.39,40.556 C22.249,41.29 21.184,42.13 20.228,43.085 Z M33.572,58.606 C32.998,58.606 32.438,58.373 32.032,57.968 C31.626,57.563 31.394,57.002 31.394,56.429 C31.394,55.855 31.627,55.294 32.032,54.889 C32.438,54.483 32.999,54.251 33.572,54.251 C34.146,54.251 34.707,54.484 35.112,54.889 C35.518,55.295 35.75,55.856 35.75,56.429 C35.75,57.002 35.518,57.562 35.112,57.968 C34.706,58.374 34.145,58.606 33.572,58.606 Z M42.322,58.606 C41.748,58.606 41.188,58.373 40.782,57.968 C40.376,57.563 40.144,57.002 40.144,56.429 C40.144,55.855 40.377,55.294 40.782,54.889 C41.188,54.483 41.749,54.251 42.322,54.251 C42.896,54.251 43.457,54.484 43.862,54.889 C44.268,55.295 44.5,55.856 44.5,56.429 C44.5,57.002 44.267,57.563 43.862,57.968 C43.456,58.374 42.895,58.606 42.322,58.606 Z M24.822,58.606 C24.248,58.606 23.688,58.373 23.282,57.968 C22.876,57.563 22.644,57.002 22.644,56.429 C22.644,55.855 22.877,55.294 23.282,54.889 C23.688,54.483 24.249,54.251 24.822,54.251 C25.396,54.251 25.957,54.484 26.362,54.889 C26.768,55.295 27,55.856 27,56.429 C27,57.002 26.768,57.562 26.362,57.968 C25.956,58.374 25.395,58.606 24.822,58.606 Z M24.822,49.856 C24.248,49.856 23.688,49.623 23.282,49.218 C22.876,48.813 22.644,48.252 22.644,47.679 C22.644,47.105 22.876,46.545 23.282,46.139 C23.688,45.733 24.249,45.501 24.822,45.501 C25.396,45.501 25.956,45.733 26.362,46.139 C26.768,46.545 27,47.106 27,47.679 C27,48.252 26.768,48.812 26.362,49.218 C25.956,49.624 25.395,49.856 24.822,49.856 Z M33.572,49.856 C32.998,49.856 32.438,49.623 32.032,49.218 C31.626,48.813 31.394,48.252 31.394,47.679 C31.394,47.105 31.626,46.545 32.032,46.139 C32.438,45.733 32.999,45.501 33.572,45.501 C34.146,45.501 34.706,45.733 35.112,46.139 C35.518,46.545 35.75,47.106 35.75,47.679 C35.75,48.252 35.518,48.812 35.112,49.218 C34.706,49.624 34.145,49.856 33.572,49.856 Z M42.322,49.856 C41.748,49.856 41.188,49.623 40.782,49.218 C40.376,48.813 40.144,48.252 40.144,47.679 C40.144,47.105 40.376,46.545 40.782,46.139 C41.188,45.733 41.749,45.501 42.322,45.501 C42.896,45.501 43.457,45.734 43.862,46.139 C44.268,46.545 44.5,47.106 44.5,47.679 C44.5,48.252 44.267,48.813 43.862,49.218 C43.456,49.624 42.895,49.856 42.322,49.856 Z M24.822,67.356 C24.248,67.356 23.687,67.123 23.282,66.718 C22.876,66.313 22.644,65.752 22.644,65.179 C22.644,64.605 22.877,64.044 23.282,63.639 C23.688,63.233 24.249,63.001 24.822,63.001 C25.396,63.001 25.957,63.234 26.362,63.639 C26.768,64.045 27,64.606 27,65.179 C27,65.752 26.767,66.313 26.362,66.718 C25.956,67.124 25.395,67.356 24.822,67.356 Z M33.572,67.356 C32.998,67.356 32.437,67.123 32.032,66.718 C31.626,66.313 31.394,65.752 31.394,65.179 C31.394,64.605 31.627,64.044 32.032,63.639 C32.438,63.233 32.999,63.001 33.572,63.001 C34.146,63.001 34.707,63.234 35.112,63.639 C35.518,64.045 35.75,64.606 35.75,65.179 C35.75,65.752 35.517,66.313 35.112,66.718 C34.706,67.124 34.145,67.356 33.572,67.356 Z M42.322,67.356 C41.748,67.356 41.187,67.123 40.782,66.718 C40.376,66.313 40.144,65.752 40.144,65.179 C40.144,64.605 40.377,64.044 40.782,63.639 C41.188,63.233 41.749,63.001 42.322,63.001 C42.896,63.001 43.457,63.234 43.862,63.639 C44.268,64.045 44.5,64.606 44.5,65.179 C44.5,65.752 44.267,66.313 43.862,66.718 C43.456,67.124 42.895,67.356 42.322,67.356 Z M73.585,72.477 C74.387,72.477 75.037,73.127 75.037,73.929 C75.037,74.731 74.387,75.381 73.585,75.381 L65.407,75.381 C64.605,75.381 63.955,74.731 63.955,73.929 C63.955,73.127 64.605,72.477 65.407,72.477 L73.585,72.477 Z M73.585,63.727 C74.387,63.727 75.037,64.377 75.037,65.179 C75.037,65.981 74.387,66.631 73.585,66.631 L65.407,66.631 C64.605,66.631 63.955,65.981 63.955,65.179 C63.955,64.377 64.605,63.727 65.407,63.727 L73.585,63.727 Z" id="Combined-Shape" fill="url(#linearGradient-1)" fill-rule="nonzero"></path>
    </g>
</svg>