<?xml version="1.0" encoding="UTF-8"?>
<svg width="78px" height="72px" viewBox="0 0 78 72" version="1.1" xmlns="http://www.w3.org/2000/svg" xmlns:xlink="http://www.w3.org/1999/xlink">
    <!-- Generator: Sketch 43.1 (39012) - http://www.bohemiancoding.com/sketch -->
    <title>recognition</title>
    <desc>Created with Sketch.</desc>
    <defs></defs>
    <g id="Page-1" stroke="none" stroke-width="1" fill="none" fill-rule="evenodd">
        <g id="Artboard-Copy" transform="translate(-1268.000000, -215.000000)" fill-rule="nonzero" fill="#5BCEE0">
            <path d="M1309.29,245.12 C1307.72,243.55 1305.64,242.69 1303.41,242.69 C1301.19,242.69 1299.1,243.55 1297.53,245.12 C1294.29,248.36 1294.29,253.64 1297.53,256.88 C1299.1,258.45 1301.19,259.32 1303.41,259.32 C1305.64,259.32 1307.72,258.45 1309.29,256.88 C1312.54,253.64 1312.54,248.36 1309.29,245.12 Z M1307.17,254.76 C1306.17,255.76 1304.83,256.32 1303.41,256.32 C1301.99,256.32 1300.66,255.76 1299.66,254.76 C1297.58,252.69 1297.58,249.31 1299.66,247.24 C1300.66,246.24 1301.99,245.69 1303.41,245.69 C1304.83,245.69 1306.17,246.24 1307.17,247.24 C1308.21,248.28 1308.73,249.64 1308.73,251 C1308.73,252.36 1308.21,253.72 1307.17,254.76 Z M1318.53,250.61 C1317.43,251.2 1316.4,251.89 1315.43,252.66 C1315.92,249.03 1314.78,245.21 1311.99,242.42 C1309.63,240.06 1306.52,238.88 1303.41,238.88 C1300.31,238.88 1297.2,240.06 1294.84,242.42 C1292.54,244.71 1291.28,247.76 1291.28,251 C1291.28,254.24 1292.54,257.29 1294.84,259.58 C1298.61,263.35 1304.25,264.11 1308.78,261.87 C1308.35,263.02 1308.03,264.23 1307.82,265.47 C1306.39,265.9 1304.9,266.12 1303.41,266.12 C1299.54,266.12 1295.66,264.65 1292.71,261.7 C1289.86,258.84 1288.28,255.04 1288.28,251 C1288.28,246.96 1289.86,243.16 1292.71,240.3 C1298.61,234.4 1308.21,234.4 1314.11,240.3 C1316.96,243.15 1318.44,246.86 1318.53,250.61 Z M1325.18,248.34 C1324.18,248.5 1323.2,248.73 1322.25,249.03 C1321.8,244.77 1319.91,240.71 1316.81,237.6 C1313.23,234.02 1308.48,232.05 1303.41,232.05 C1298.35,232.05 1293.6,234.02 1290.02,237.6 C1286.44,241.18 1284.47,245.94 1284.47,251 C1284.47,256.06 1286.44,260.82 1290.02,264.4 C1293.6,267.98 1298.35,269.95 1303.41,269.95 C1304.81,269.95 1306.18,269.8 1307.51,269.51 C1307.53,270.53 1307.62,271.54 1307.79,272.52 C1306.36,272.8 1304.9,272.95 1303.41,272.95 C1297.55,272.95 1292.04,270.67 1287.9,266.52 C1283.75,262.37 1281.47,256.86 1281.47,251 C1281.47,245.14 1283.75,239.63 1287.9,235.48 C1292.04,231.34 1297.55,229.05 1303.41,229.05 C1309.28,229.05 1314.79,231.34 1318.93,235.48 C1322.44,238.99 1324.6,243.55 1325.18,248.34 Z M1308.75,276.19 C1309.09,277.16 1309.51,278.09 1309.99,278.98 C1307.82,279.49 1305.6,279.75 1303.37,279.75 C1299.24,279.75 1295.09,278.87 1291.21,277.05 C1290.45,276.7 1290.13,275.81 1290.48,275.06 C1290.84,274.31 1291.73,273.99 1292.48,274.34 C1297.66,276.76 1303.38,277.33 1308.75,276.19 Z M1332.04,248.38 C1331.05,248.21 1330.04,248.11 1329,248.09 C1328.38,242.49 1325.92,237.06 1321.63,232.78 C1311.58,222.74 1295.24,222.74 1285.2,232.78 C1284.61,233.37 1283.66,233.37 1283.08,232.78 C1282.49,232.2 1282.49,231.25 1283.08,230.66 C1294.29,219.45 1312.54,219.45 1323.75,230.66 C1328.69,235.6 1331.46,241.92 1332.04,248.38 Z M1284.136,271.778 C1283.752,271.778 1283.368,271.632 1283.075,271.339 C1273.604,261.868 1271.954,246.813 1279.153,235.54 C1279.599,234.841 1280.527,234.637 1281.224,235.083 C1281.922,235.529 1282.127,236.456 1281.681,237.154 C1275.234,247.25 1276.713,260.735 1285.196,269.218 C1285.782,269.804 1285.782,270.753 1285.196,271.339 C1284.904,271.632 1284.52,271.778 1284.136,271.778 Z M1269.502,249.117 C1269.452,249.117 1269.402,249.115 1269.352,249.11 C1268.527,249.028 1267.926,248.294 1268.007,247.469 C1268.815,239.323 1272.454,231.643 1278.255,225.843 C1287.143,216.956 1299.733,213.444 1311.937,216.453 C1312.741,216.651 1313.232,217.464 1313.034,218.268 C1312.837,219.073 1312.026,219.564 1311.219,219.366 C1300.05,216.612 1288.515,219.826 1280.377,227.964 C1275.065,233.276 1271.733,240.308 1270.993,247.765 C1270.916,248.539 1270.264,249.117 1269.502,249.117 Z M1314.57,284.77 C1310.95,285.96 1307.18,286.56 1303.41,286.56 C1294.3,286.56 1285.19,283.1 1278.26,276.16 C1272.54,270.44 1269.02,263.18 1268.08,255.17 C1267.98,254.34 1268.57,253.6 1269.39,253.5 C1270.22,253.41 1270.96,253.99 1271.06,254.82 C1271.92,262.15 1275.14,268.8 1280.38,274.04 C1288.99,282.65 1301.26,285.42 1312.23,282.35 C1312.95,283.22 1313.73,284.03 1314.57,284.77 Z M1339.02,250.92 C1338.05,250.35 1337.03,249.86 1335.97,249.46 C1335.87,247.38 1335.57,245.28 1335.06,243.2 C1334.86,242.4 1335.35,241.59 1336.16,241.39 C1336.96,241.19 1337.77,241.68 1337.97,242.49 C1338.66,245.3 1339.01,248.12 1339.02,250.92 Z M1334.718,239.003 C1334.137,239.003 1333.584,238.664 1333.339,238.096 C1331.708,234.312 1329.391,230.903 1326.45,227.964 C1323.474,224.988 1320.022,222.652 1316.188,221.019 C1315.426,220.695 1315.071,219.813 1315.396,219.051 C1315.721,218.289 1316.596,217.933 1317.364,218.259 C1321.552,220.043 1325.323,222.594 1328.571,225.842 C1331.781,229.05 1334.312,232.774 1336.094,236.908 C1336.421,237.669 1336.071,238.551 1335.31,238.879 C1335.117,238.963 1334.916,239.003 1334.718,239.003 Z M1328.5,286.581 C1318.851,286.581 1311,278.73 1311,269.081 C1311,259.432 1318.851,251.581 1328.5,251.581 C1338.149,251.581 1346,259.432 1346,269.081 C1346,278.73 1338.149,286.581 1328.5,286.581 Z M1328.5,254.581 C1320.505,254.581 1314,261.086 1314,269.081 C1314,277.076 1320.505,283.581 1328.5,283.581 C1336.495,283.581 1343,277.076 1343,269.081 C1343,261.086 1336.495,254.581 1328.5,254.581 Z M1325.865,277.526 C1325.468,277.526 1325.086,277.368 1324.804,277.087 L1319.332,271.614 C1318.746,271.028 1318.746,270.079 1319.332,269.493 C1319.918,268.907 1320.867,268.907 1321.453,269.493 L1325.864,273.905 L1336.273,263.496 C1336.859,262.91 1337.808,262.91 1338.394,263.496 C1338.98,264.082 1338.98,265.031 1338.394,265.617 L1326.924,277.087 C1326.645,277.368 1326.263,277.526 1325.865,277.526 Z" id="recognition"></path>
        </g>
    </g>
</svg>