<?xml version="1.0" encoding="UTF-8"?>
<svg width="90px" height="69px" viewBox="0 0 90 69" version="1.1" xmlns="http://www.w3.org/2000/svg" xmlns:xlink="http://www.w3.org/1999/xlink">
    <!-- Generator: Sketch 47.1 (45422) - http://www.bohemiancoding.com/sketch -->
    <title>roll-film</title>
    <desc>Created with Sketch.</desc>
    <defs></defs>
    <g id="Page-1" stroke="none" stroke-width="1" fill="none" fill-rule="evenodd">
        <g id="Group" transform="translate(-212.000000, -142.000000)" fill-rule="nonzero" fill="#55CEE2">
            <g id="roll-film" transform="translate(212.000000, 141.000000)">
                <path d="M24.637207,28.3046875 C20.9467773,24.6137695 14.9389648,24.612793 11.246582,28.3046875 C7.5546875,31.996582 7.5546875,38.003418 11.246582,41.6953125 C13.0927734,43.5415039 15.5175781,44.4643555 17.9418945,44.4643555 C20.3666992,44.4643555 22.7915039,43.5415039 24.637207,41.6953125 C26.4257812,39.9072266 27.4111328,37.5292969 27.4111328,35 C27.4111328,32.4707031 26.4257812,30.0927734 24.637207,28.3046875 Z M22.5161133,39.5742188 C19.9946289,42.0961915 15.8911133,42.0961915 13.3676758,39.5742188 C10.8457031,37.0517579 10.8457031,32.9482422 13.3676758,30.4257813 C14.6289063,29.1650391 16.2851563,28.534668 17.9418946,28.534668 C19.5986329,28.534668 21.2553712,29.1650391 22.5161134,30.4257813 C23.737793,31.6474609 24.4111328,33.2719727 24.4111328,35 C24.4111328,36.7280273 23.737793,38.3525391 22.5161133,39.5742188 Z" id="Shape"></path>
                <path d="M34.7583008,27.6479492 C37.1831055,27.6479492 39.6079102,26.7250976 41.4536133,24.8789062 C43.2421875,23.0908203 44.2275391,20.7128906 44.2275391,18.1835937 C44.2275391,15.6542968 43.2421875,13.2763671 41.4536133,11.4882812 C39.6655274,9.699707 37.2875977,8.7148437 34.7583008,8.7148437 C32.2294922,8.7148437 29.8515625,9.699707 28.0629883,11.4882812 C24.3710938,15.1801757 24.3710938,21.1870117 28.0629883,24.8789062 C29.9091797,26.7250977 32.3339844,27.6479492 34.7583008,27.6479492 Z M30.184082,13.609375 C31.40625,12.3876953 33.0307617,11.7148438 34.7583008,11.7148438 C36.4863281,11.7148438 38.1108399,12.3876954 39.3325196,13.609375 C40.5541993,14.8310546 41.2275391,16.4555664 41.2275391,18.1835938 C41.2275391,19.9116212 40.5541993,21.5361329 39.3325196,22.7578126 C36.8110352,25.2797853 32.7075196,25.2797853 30.1840821,22.7578126 C27.6621094,20.2353516 27.6621094,16.1318359 30.184082,13.609375 Z" id="Shape"></path>
                <path d="M45.1171875,41.9326172 C46.9052734,43.7211914 49.2832031,44.7060547 51.8125,44.7060547 C54.3413086,44.7060547 56.7192383,43.7211914 58.5078125,41.9326172 C62.199707,38.241211 62.199707,32.2338867 58.5078125,28.5419922 C54.8149414,24.8491211 48.8081055,24.8510742 45.1171875,28.5419922 C43.3286133,30.3305664 42.34375,32.7084961 42.34375,35.2373047 C42.34375,37.7666016 43.3286133,40.1445312 45.1171875,41.9326172 Z M47.2382812,30.6630859 C48.4995117,29.4023437 50.1557617,28.7719726 51.8125,28.7719726 C53.46875,28.7719726 55.1254883,29.4023437 56.3867188,30.6630859 C58.9086915,33.1855468 58.9086915,37.2895507 56.3867188,39.8115234 C55.1645508,41.0332031 53.5400391,41.7060546 51.8125,41.7060546 C50.0844727,41.7060546 48.4599609,41.033203 47.2382812,39.8115234 C46.0166015,38.5898438 45.34375,36.965332 45.34375,35.2373047 C45.34375,33.5097656 46.0166016,31.8852539 47.2382812,30.6630859 Z" id="Shape"></path>
                <path d="M41.6914062,58.7495117 C45.3828124,55.0576172 45.3828124,49.0502929 41.6914062,45.3583984 C37.9985351,41.6660156 31.9916992,41.6669922 28.3007812,45.3583984 C24.6088867,49.0502929 24.6088867,55.0576172 28.3007812,58.7495117 C30.1464843,60.5952148 32.571289,61.5185547 34.9960937,61.5185547 C37.4204102,61.5185547 39.8457031,60.5952148 41.6914062,58.7495117 Z M30.421875,56.628418 C27.8999023,54.1059571 27.8999023,50.0019532 30.421875,47.4794922 C31.6831055,46.21875 33.3393555,45.5883789 34.9960938,45.5883789 C36.6523438,45.5883789 38.3090821,46.21875 39.5703126,47.4794922 C42.0922853,50.0019531 42.0922853,54.105957 39.5703126,56.628418 C37.0478516,59.1499023 32.9433594,59.1499023 30.421875,56.628418 Z" id="Shape"></path>
                <path d="M34.699707,33.5297852 C34.6098632,33.5498047 34.5097656,33.5795899 34.4199218,33.6098633 C34.3295898,33.6499023 34.25,33.699707 34.159668,33.75 C34.0795899,33.8100586 34.0097657,33.8696289 33.9399414,33.9399414 C33.659668,34.2197266 33.5,34.6098633 33.5,35 C33.5,35.0996094 33.5097656,35.199707 33.5297852,35.2900391 C33.5400391,35.3896485 33.5698243,35.4799805 33.6098633,35.5698243 C33.6499023,35.6596681 33.699707,35.75 33.75,35.8295898 C33.7998047,35.9199218 33.8696289,35.989746 33.9399414,36.0600586 C34.0097656,36.1298828 34.0795898,36.1899414 34.159668,36.25 C34.25,36.2998047 34.3295899,36.3496094 34.4199219,36.3896484 C34.5097657,36.4199218 34.6098633,36.449707 34.6997071,36.4697265 C34.7998047,36.4897461 34.8999023,36.5 35,36.5 C35.3896484,36.5 35.7797852,36.3398438 36.0600586,36.0600586 C36.1298828,35.9897461 36.1899414,35.9199219 36.2397461,35.8295898 C36.2998047,35.75 36.3398438,35.6596679 36.3798828,35.5698242 C36.4199218,35.4799805 36.449707,35.3896484 36.4697266,35.290039 C36.4897461,35.199707 36.5,35.0996094 36.5,35 C36.5,34.6098633 36.3398438,34.2197266 36.0600586,33.9399414 C35.7099609,33.5898438 35.1899414,33.4296875 34.699707,33.5297852 Z" id="Shape"></path>
                <path d="M89.3380869,67.4924604 C89.3049109,66.1923023 87.7900667,66.0532227 87.3877229,66.0532227 C77.09734,66.0532227 69.3740235,66.0532227 64.2177735,66.0532227 L60.6143189,66.0532227 C64.3386231,64.3819581 67.7833252,62.0428467 70.7470704,59.0791016 C84.0239259,45.8017578 84.0239259,24.1982422 70.7470704,10.9208985 C62.9017335,3.0755616 51.7135011,-0.4458007 40.779419,1.4632569 C30.2487183,-0.3376464 19.029419,2.8084717 10.9169922,10.9208985 C-2.3603516,24.1982423 -2.3603516,45.8017579 10.9169922,59.0791016 C17.1644287,65.3265381 25.2553101,68.6322632 33.454834,69.0004273 C33.5751343,69.0314942 33.6990967,69.0532227 33.8291016,69.0532227 L76.3071289,69.0532227 C84.6918945,69.0532227 84.1272727,69.0532227 87.3877229,69.0004273 C87.8945228,68.9922209 89.3712628,68.7926186 89.3380869,67.4924604 Z M68.6259766,13.0419922 C80.7329102,25.1499024 80.7329102,44.8500977 68.6259766,56.9580078 C63.3732911,62.2106933 56.4750367,65.3294067 49.2335205,65.9329834 C52.8005371,64.2957153 56.1415405,62.0127563 59.0751953,59.0791016 C72.3520508,45.8017578 72.3520508,24.1982422 59.0751953,10.9208985 C56.1419678,7.987671 52.8015137,5.7049561 49.2351074,4.0677491 C56.475708,4.6716919 63.3733521,7.7897339 68.6259766,13.0419922 Z M13.0380859,13.0419922 C19.0917968,6.9882813 27.0439453,3.9614258 34.9960937,3.9614258 C42.9482421,3.9614258 50.9003906,6.9882813 56.9541015,13.0419922 C69.0610351,25.1499024 69.0610351,44.8500977 56.9541015,56.9580078 C44.8466796,69.0654297 25.1455077,69.0654297 13.0380859,56.9580078 C0.9306641,44.8500977 0.9306641,25.1499023 13.0380859,13.0419922 Z" id="Shape"></path>
            </g>
        </g>
    </g>
</svg>