<?xml version="1.0" encoding="UTF-8"?>
<svg width="60px" height="52px" viewBox="0 0 60 52" version="1.1" xmlns="http://www.w3.org/2000/svg" xmlns:xlink="http://www.w3.org/1999/xlink">
    <!-- Generator: Sketch 43.1 (39012) - http://www.bohemiancoding.com/sketch -->
    <title>scenes</title>
    <desc>Created with Sketch.</desc>
    <defs>
        <linearGradient x1="30.2694515%" y1="30.2694515%" x2="85.9749543%" y2="85.9749543%" id="linearGradient-1">
            <stop stop-color="#5BCEE0" offset="0%"></stop>
            <stop stop-color="#FF5454" offset="100%"></stop>
        </linearGradient>
    </defs>
    <g id="Page-1" stroke="none" stroke-width="1" fill="none" fill-rule="evenodd">
        <g id="Artboard-Copy" transform="translate(-1633.000000, -268.000000)" fill-rule="nonzero" fill="url(#linearGradient-1)">
            <path d="M1633,268.5 L1633,319.5 L1693,319.5 L1693,278 L1693,278 L1693,268.5 L1633,268.5 Z M1683.3,269.7 L1690.9,277.3 L1682.9,277.3 L1675.3,269.7 L1683.3,269.7 L1683.3,269.7 Z M1663.3,278.6 L1671.3,278.6 L1663.7,286.2 L1655.7,286.2 L1663.3,278.6 Z M1653.9,286.3 L1652.4,286.3 L1649.8,278.7 L1661.6,278.7 L1653.9,286.3 Z M1673.1,278.6 L1681.1,278.6 L1673.5,286.2 L1665.5,286.2 L1673.1,278.6 Z M1682.9,278.6 L1690.9,278.6 L1683.3,286.2 L1675.3,286.2 L1682.9,278.6 Z M1673.5,269.7 L1681.1,277.3 L1673.1,277.3 L1665.5,269.7 L1673.5,269.7 L1673.5,269.7 Z M1663.7,269.7 L1671.3,277.3 L1663.3,277.3 L1655.7,269.7 L1663.7,269.7 L1663.7,269.7 Z M1653.9,269.7 L1661.5,277.3 L1649.3,277.3 L1646.7,269.7 L1653.9,269.7 L1653.9,269.7 Z M1634.2,269.7 L1645.4,269.7 L1651.1,286.2 L1634.2,286.2 L1634.2,269.7 Z M1691.8,318.3 L1634.2,318.3 L1634.2,287.5 L1691.7,287.5 L1691.7,318.3 L1691.8,318.3 Z M1691.8,286.3 L1685,286.3 L1691.8,279.5 L1691.8,286.3 Z M1691.8,276.5 L1685,269.7 L1691.8,269.7 L1691.8,276.5 Z M1641.1,296 C1641.1,295.7 1641.4,295.4 1641.7,295.4 L1684.3,295.4 C1684.6,295.4 1684.9,295.7 1684.9,296 C1684.9,296.3 1684.6,296.6 1684.3,296.6 L1641.7,296.6 C1641.4,296.6 1641.1,296.3 1641.1,296 Z M1641.1,307.6 C1641.1,307.3 1641.4,307 1641.7,307 L1684.3,307 C1684.6,307 1684.9,307.3 1684.9,307.6 C1684.9,307.9 1684.6,308.2 1684.3,308.2 L1641.7,308.2 C1641.4,308.2 1641.1,308 1641.1,307.6 Z" id="scenes"></path>
        </g>
    </g>
</svg>