<?xml version="1.0" encoding="UTF-8"?>
<svg width="82px" height="70px" viewBox="0 0 82 70" version="1.1" xmlns="http://www.w3.org/2000/svg" xmlns:xlink="http://www.w3.org/1999/xlink">
    <!-- Generator: Sketch 47.1 (45422) - http://www.bohemiancoding.com/sketch -->
    <title>shopping-and-products2</title>
    <desc>Created with Sketch.</desc>
    <defs></defs>
    <g id="Page-1" stroke="none" stroke-width="1" fill="none" fill-rule="evenodd">
        <g id="Group" fill-rule="nonzero" fill="#55CEE2">
            <g id="shopping-and-products2">
                <path d="M81.8798828,21.1586253 L81.8247891,20.8509787 C81.8148594,20.8034391 81.8097344,20.7558996 81.7998047,20.7096405 L76.0492344,6.8288896 L76.0492344,0 L5.85563281,0 L5.85563281,6.82904967 L0.200195312,20.7085201 C0.187703125,20.7635827 0.180175781,20.8186454 0.170085938,20.8722674 L0.117554688,21.1586253 C0.0400390625,21.6551495 0,22.164159 0,22.6830925 C0,26.3946995 2.07210156,29.6209869 5.125,31.2703055 L5.125,70 L76.875,70 L76.875,31.2703055 C79.9254961,29.6208269 82,26.3945395 82,22.6830925 C82,22.164159 81.9573984,21.6551495 81.8798828,21.1586253 Z M78.0186758,20.4884295 L65.4664297,20.4884295 L63.9574375,10.3504985 L73.887125,10.3504985 L78.0186758,20.4884295 Z M9.27400781,3.41388457 L72.6332617,3.41388457 L72.6332617,6.82904967 L9.27400781,6.82904967 L9.27400781,3.41388457 Z M62.5209961,23.9023141 L62.7061367,25.1415439 L61.6952305,26.485777 C60.4841289,28.0989207 58.6322422,29.0242614 56.6177969,29.0242614 C54.6033516,29.0242614 52.7514648,28.0989207 51.5403633,26.485777 L50.5092773,25.1127321 L50.4492188,23.9023141 L62.5209961,23.9023141 Z M50.2815352,20.4884295 L49.7836094,10.3504985 L60.5015859,10.3504985 L62.0131406,20.4884295 L50.2815352,20.4884295 Z M47.0284414,23.9023141 L47.0885,25.1402634 L46.0750313,26.485777 C44.8639297,28.0989207 43.012043,29.0242614 41,29.0242614 C38.9829922,29.0242614 37.133668,28.0989207 35.9200039,26.485777 L34.8839531,25.1039285 L34.9440117,23.902154 L47.0284414,23.902154 L47.0284414,23.9023141 Z M35.1168203,20.4884295 L35.6298008,10.3504985 L46.3652344,10.3504985 L46.8607578,20.4884295 L35.1168203,20.4884295 Z M20.0044766,20.4884295 L21.4958516,10.3504985 L32.2112656,10.3504985 L31.6957227,20.4884295 L20.0044766,20.4884295 Z M31.5206719,23.9023141 L31.4580508,25.1540291 L30.4570742,26.485777 C29.2434102,28.0989207 27.3940859,29.0242614 25.3796406,29.0242614 C23.3651953,29.0242614 21.5158711,28.0989207 20.302207,26.485777 L19.3162852,25.1740373 L19.5039883,23.9023141 L31.5206719,23.9023141 Z M8.11047266,10.3504985 L18.0427227,10.3504985 L16.5513477,20.4884295 L3.97908203,20.4884295 L8.11047266,10.3504985 Z M3.53336719,23.9023141 L16.0505391,23.9023141 L15.7827578,25.2291 L14.8392773,26.4859371 C13.6256133,28.0990808 11.7762891,29.0244215 9.75928125,29.0244215 C6.67899609,29.0244215 4.10400391,26.8185539 3.53336719,23.9023141 Z M66.625,66.5886765 L52.956625,66.5886765 L52.956625,54.6336779 L52.956625,51.2223543 L52.956625,39.2673557 L66.625,39.2673557 L66.625,66.5886765 Z M55.6176897,55.0855209 C56.4478736,55.0855209 57.1208705,54.4129038 57.1208705,53.5831885 C57.1208705,52.7534732 56.4478736,52.0808561 55.6176897,52.0808561 C54.7875059,52.0808561 54.1145089,52.7534732 54.1145089,53.5831885 C54.1145089,54.4129038 54.7875059,55.0855209 55.6176897,55.0855209 Z M70.0408125,66.5886765 L70.0408125,35.8560322 L49.5408125,35.8560322 L49.5408125,66.5886765 L8.5408125,66.5886765 L8.5408125,32.3633952 C8.93864063,32.4133358 9.34912109,32.4397466 9.75944141,32.4397466 C12.9526367,32.4397466 15.7902852,30.9066359 17.5696211,28.5368609 C19.3513594,30.9066359 22.1866055,32.4397466 25.3798008,32.4397466 C28.5729961,32.4397466 31.4082422,30.9066359 33.1899805,28.5368609 C34.9691563,30.9066359 37.8069648,32.4397466 41.0001602,32.4397466 C44.1933555,32.4397466 47.0260391,30.9066359 48.8077773,28.5368609 C50.5895156,30.9066359 53.4247617,32.4397466 56.617957,32.4397466 C59.8111523,32.4397466 62.6463984,30.9066359 64.4281367,28.5368609 C66.209875,30.9066359 69.0425586,32.4397466 72.2357539,32.4397466 C72.6511992,32.4397466 73.0565547,32.4134958 73.4569453,32.3633952 L73.4569453,66.5886765 L70.0408125,66.5886765 Z M72.2354336,29.0244215 C70.2235508,29.0244215 68.3716641,28.0990808 67.1604023,26.4859371 L66.1669531,25.1679548 L65.9742852,23.9024742 L78.4615078,23.9024742 C77.8910313,26.8185539 75.3184414,29.0244215 72.2354336,29.0244215 Z M11.956625,59.7557852 L46.125,59.7557852 L46.125,35.8560322 L11.956625,35.8560322 L11.956625,59.7557852 Z M15.375,39.2673557 L42.706625,39.2673557 L42.706625,56.3444617 L15.375,56.3444617 L15.375,39.2673557 Z M39.2783203,47.8059087 C38.8053789,47.8059087 38.3774414,47.996067 38.0696211,48.3061145 L34.6538086,51.7225601 C34.3434258,52.0302067 34.1533203,52.4579027 34.1533203,52.9280161 C34.1533203,53.8709641 34.9190273,54.6336779 35.8599453,54.6336779 C36.3328867,54.6336779 36.7608242,54.4435196 37.0686445,54.1334721 L40.484457,50.7221485 C40.7948398,50.4119409 40.9849453,49.984405 40.9849453,49.5117305 C40.9849453,48.5711836 40.2218008,47.8059087 39.2783203,47.8059087 Z M39.2783203,40.9781396 C38.8053789,40.9781396 38.3774414,41.1682978 38.0696211,41.4783454 L27.8196211,51.7199991 C27.5118008,52.0276457 27.3191328,52.4577426 27.3191328,52.9280161 C27.3191328,53.8709641 28.0848398,54.6336779 29.0283203,54.6336779 C29.4988594,54.6336779 29.9266367,54.4435196 30.234457,54.1334721 L40.484457,43.8918183 C40.7948398,43.5841718 40.9849453,43.1540748 40.9849453,42.6838013 C40.9849453,41.7408534 40.2218008,40.9781396 39.2783203,40.9781396 Z" id="Shape"></path>
            </g>
        </g>
    </g>
</svg>