<?xml version="1.0" encoding="UTF-8"?>
<svg width="82px" height="70px" viewBox="0 0 82 70" version="1.1" xmlns="http://www.w3.org/2000/svg" xmlns:xlink="http://www.w3.org/1999/xlink">
    <!-- Generator: Sketch 47.1 (45422) - http://www.bohemiancoding.com/sketch -->
    <title>shopping-and-products</title>
    <desc>Created with Sketch.</desc>
    <defs></defs>
    <g id="Page-1" stroke="none" stroke-width="1" fill="none" fill-rule="evenodd">
        <g id="Group" transform="translate(-112.000000, 0.000000)" fill-rule="nonzero" fill="#55CEE2">
            <path d="M193.911435,15.1396036 C193.912358,15.1257488 193.913282,15.111894 193.913282,15.0971156 C193.913282,15.0823371 193.916053,15.0675587 193.916053,15.0518565 C193.916053,15.0195287 193.908664,14.9899718 193.906817,14.9585675 C193.903122,14.9086903 193.900351,14.8597366 193.892038,14.8098593 C193.882802,14.7590584 193.868023,14.7110284 193.854168,14.6620748 C193.845855,14.6325179 193.842161,14.602961 193.831077,14.5743277 L188.806402,0.907027683 C188.802708,0.897791149 188.797166,0.890401921 188.793471,0.880241733 C188.773151,0.829440794 188.748212,0.782334468 188.72235,0.734304489 C188.7048,0.701052965 188.688175,0.665954134 188.667854,0.634549917 C188.641068,0.592985512 188.609664,0.556039374 188.57826,0.518169583 C188.552398,0.485841712 188.528383,0.452590188 188.499749,0.423033278 C188.466498,0.3888581 188.428628,0.35930119 188.391682,0.328820627 C188.360278,0.30295833 188.331644,0.275248727 188.298393,0.252157391 C188.256828,0.223524134 188.212493,0.200432798 188.168158,0.176417808 C188.134906,0.157944739 188.102578,0.137624363 188.068403,0.121922255 C188.024068,0.102525532 187.976961,0.0886707307 187.930779,0.0738922756 C187.891062,0.0609611274 187.852268,0.0461826723 187.811627,0.0369461378 C187.770987,0.0277096034 187.728499,0.0240149896 187.686934,0.0184730689 C187.636133,0.0120074948 187.586256,0.00461826723 187.535455,0.00277096034 C187.525295,0.00277096034 187.516058,0 187.504975,0 L118.410155,0 C118.399071,0 118.387987,0.00277096034 118.376903,0.00369461378 C118.330721,0.00461826723 118.285462,0.0120074948 118.240203,0.0175494155 C118.193096,0.0230913361 118.14599,0.0277096034 118.100731,0.0378697913 C118.065632,0.0461826723 118.032381,0.0591138205 117.997282,0.0701976618 C117.945557,0.0868234239 117.892909,0.101601879 117.843955,0.123769562 C117.814398,0.13670071 117.786689,0.155173779 117.758056,0.169952234 C117.709102,0.196738184 117.660148,0.221676827 117.614889,0.254004697 C117.584409,0.275248727 117.557623,0.301111023 117.52899,0.325126013 C117.490196,0.357453883 117.450479,0.3888581 117.414456,0.425804238 C117.386747,0.454437495 117.363656,0.486765366 117.338717,0.518169583 C117.307313,0.556963027 117.274985,0.594832819 117.248199,0.636397224 C117.227878,0.667801441 117.212176,0.702900272 117.193703,0.736151796 C117.167841,0.784181775 117.142902,0.831288101 117.122582,0.881165387 C117.118887,0.890401921 117.113345,0.897791149 117.109651,0.907951337 L112.084976,14.5743277 C112.073892,14.602961 112.071121,14.6334415 112.061885,14.6620748 C112.047106,14.7110284 112.032328,14.7590584 112.024015,14.8098593 C112.014778,14.8597366 112.012007,14.9086903 112.009237,14.9585675 C112.007389,14.9899718 112,15.0204523 112,15.0518565 C112,15.0675587 112.001847,15.0814135 112.002771,15.0971156 C112.002771,15.1109704 112.003695,15.1248252 112.004618,15.1396036 C112.036022,18.0444937 113.628401,20.5762278 115.980023,21.9469295 L115.980023,59.8444304 L113.698599,59.8444304 C112.93289,59.8444304 112.313119,60.4651255 112.313119,61.2299105 L112.313119,68.6145198 C112.313119,69.3793049 112.93289,70 113.698599,70 L192.216531,70 C192.982239,70 193.602011,69.3793049 193.602011,68.6145198 L193.602011,61.2299105 C193.602011,60.4651255 192.982239,59.8444304 192.216531,59.8444304 L189.93603,59.8444304 L189.93603,21.9469295 C192.287652,20.5762278 193.880031,18.0444937 193.911435,15.1396036 Z M114.96308,16.4373367 L124.997651,16.4373367 C124.388964,18.6384029 122.373552,20.2621856 119.980366,20.2621856 C117.58718,20.2621856 115.572692,18.6393265 114.96308,16.4373367 Z M119.376296,2.77003668 L186.538833,2.77003668 L190.544718,13.6663764 L115.370411,13.6663764 L119.376296,2.77003668 Z M138.188346,16.4373367 C137.579659,18.6384029 135.564247,20.2621856 133.171061,20.2621856 C130.777875,20.2621856 128.762463,18.6393265 128.153775,16.4373367 L138.188346,16.4373367 Z M151.379041,16.4373367 C150.770353,18.6384029 148.754942,20.2621856 146.361755,20.2621856 C143.968569,20.2621856 141.953158,18.6393265 141.34447,16.4373367 L151.379041,16.4373367 Z M164.570659,16.4373367 C163.961972,18.6384029 161.94656,20.2621856 159.553374,20.2621856 C157.160188,20.2621856 155.144776,18.6393265 154.536088,16.4373367 L164.570659,16.4373367 Z M177.761354,16.4373367 C177.152667,18.6384029 175.137255,20.2621856 172.744069,20.2621856 C170.350883,20.2621856 168.335471,18.6393265 167.726783,16.4373367 L177.761354,16.4373367 Z M190.952049,16.4373367 C190.343362,18.6384029 188.32795,20.2621856 185.934764,20.2621856 C183.541578,20.2621856 181.526166,18.6393265 180.917478,16.4373367 L190.952049,16.4373367 Z M119.980366,23.033146 C122.718998,23.033146 125.138047,21.6458185 126.576175,19.538965 C128.014303,21.6458185 130.433352,23.033146 133.171984,23.033146 C135.163381,23.033146 136.982055,22.2951469 138.382313,21.0842372 L138.382313,59.5119151 L118.750059,59.5119151 L118.750059,22.9278495 C119.151849,22.9906579 119.561027,23.033146 119.980366,23.033146 Z M133.170955,43.5041566 C134.156783,43.5041566 134.955955,42.7049849 134.955955,41.7191567 C134.955955,40.7333284 134.156783,39.9341567 133.170955,39.9341567 C132.185127,39.9341567 131.385955,40.7333284 131.385955,41.7191567 C131.385955,42.7049849 132.185127,43.5041566 133.170955,43.5041566 Z M190.831051,67.2290397 L115.084079,67.2290397 L115.084079,62.6153907 L190.831051,62.6153907 L190.831051,67.2290397 Z M187.16507,59.5119151 L141.15235,59.5119151 L141.15235,21.0842372 C142.551685,22.2951469 144.371282,23.033146 146.362679,23.033146 C149.101312,23.033146 151.52036,21.6458185 152.958488,19.538965 C154.396617,21.6458185 156.815665,23.033146 159.554298,23.033146 C162.29293,23.033146 164.711978,21.6458185 166.150107,19.538965 C167.588235,21.6458185 170.007284,23.033146 172.745916,23.033146 C175.484549,23.033146 177.903597,21.6458185 179.341725,19.538965 C180.779854,21.6458185 183.198902,23.033146 185.937535,23.033146 C186.356873,23.033146 186.766052,22.9906579 187.167841,22.9278495 L187.167841,59.5119151 L187.16507,59.5119151 Z M156.09891,40.772834 C156.453593,40.772834 156.808276,40.6379806 157.078906,40.3673502 L164.616842,32.8294144 C165.158103,32.2881535 165.158103,31.4116064 164.616842,30.8703454 C164.075581,30.3290845 163.199034,30.3290845 162.657773,30.8703454 L155.119837,38.4082812 C154.578577,38.9495421 154.578577,39.8260893 155.119837,40.3673502 C155.389544,40.6379806 155.744227,40.772834 156.09891,40.772834 Z M173.811812,42.0253081 L166.273876,49.5632439 C165.732616,50.1045048 165.732616,50.9810519 166.273876,51.5223128 C166.544507,51.7929433 166.89919,51.9277967 167.253873,51.9277967 C167.608556,51.9277967 167.963239,51.7929433 168.233869,51.5223128 L175.771805,43.9843771 C176.313066,43.4431161 176.313066,42.566569 175.771805,42.0253081 C175.230544,41.4840472 174.353073,41.4840472 173.811812,42.0253081 Z M175.462381,30.8694218 C174.92112,30.3281609 174.044573,30.3281609 173.503312,30.8694218 L155.118914,49.2547436 C154.577653,49.7960045 154.577653,50.6725517 155.118914,51.2138126 C155.389544,51.484443 155.744227,51.6192964 156.09891,51.6192964 C156.453593,51.6192964 156.808276,51.484443 157.078906,51.2138126 L175.463305,32.8294144 C176.003642,32.2881535 176.003642,31.4106827 175.462381,30.8694218 Z" id="shopping-and-products"></path>
        </g>
    </g>
</svg>