<?xml version="1.0" encoding="UTF-8"?>
<svg width="47px" height="46px" viewBox="0 0 47 46" version="1.1" xmlns="http://www.w3.org/2000/svg" xmlns:xlink="http://www.w3.org/1999/xlink">
    <!-- Generator: Sketch 43.1 (39012) - http://www.bohemiancoding.com/sketch -->
    <title>short-film</title>
    <desc>Created with Sketch.</desc>
    <defs>
        <linearGradient x1="30.2694515%" y1="30.2694515%" x2="100%" y2="100%" id="linearGradient-1">
            <stop stop-color="#5BCEE0" offset="0%"></stop>
            <stop stop-color="#AAFFA4" offset="100%"></stop>
        </linearGradient>
    </defs>
    <g id="Page-1" stroke="none" stroke-width="1" fill="none" fill-rule="evenodd">
        <path d="M42,26.5 L2,26.5 C1.724,26.5 1.5,26.724 1.5,27 L1.5,45 C1.5,45.276 1.724,45.5 2,45.5 L42,45.5 C42.276,45.5 42.5,45.276 42.5,45 L42.5,27 C42.5,26.724 42.276,26.5 42,26.5 Z M41.5,44.5 L2.5,44.5 L2.5,27.5 L41.5,27.5 L41.5,44.5 Z M6,31 L6,33 L8,33 L8,31 L6,31 Z M10,31 L10,33 L12,33 L12,31 L10,31 Z M14,31 L14,33 L16,33 L16,31 L14,31 Z M18,31 L18,33 L20,33 L20,31 L18,31 Z M14,35 L14,37 L16,37 L16,35 L14,35 Z M18,35 L18,37 L20,37 L20,35 L18,35 Z M6,35 L6,37 L8,37 L8,35 L6,35 Z M10,35 L10,37 L12,37 L12,35 L10,35 Z M6,39 L6,41 L8,41 L8,39 L6,39 Z M10,39 L10,41 L12,41 L12,39 L10,39 Z M14,39 L14,41 L16,41 L16,39 L14,39 Z M18,39 L18,41 L20,41 L20,39 L18,39 Z M32,39.5 C34.481,39.5 36.5,37.481 36.5,35 C36.5,32.519 34.481,30.5 32,30.5 C29.519,30.5 27.5,32.519 27.5,35 C27.5,37.481 29.519,39.5 32,39.5 Z M32,31.5 C33.93,31.5 35.5,33.07 35.5,35 C35.5,36.93 33.93,38.5 32,38.5 C30.07,38.5 28.5,36.93 28.5,35 C28.5,33.07 30.07,31.5 32,31.5 Z M35,0.5 C41.341,0.5 46.5,5.659 46.5,12 C46.5,18.341 41.341,23.5 35,23.5 L10,23.5 C4.762,23.5 0.5,19.238 0.5,14 C0.5,9.2 4.082,5.23 8.712,4.598 C8.773,4.554 8.841,4.52 8.921,4.507 L33.921,0.507 C34.011,0.491 34.097,0.51 34.178,0.542 C34.45,0.522 34.723,0.5 35,0.5 Z M1.5,14 C1.5,18.687 5.313,22.5 10,22.5 C14.687,22.5 18.5,18.687 18.5,14 C18.5,9.313 14.687,5.5 10,5.5 C5.313,5.5 1.5,9.313 1.5,14 Z M14.217,22.5 L30.331,22.5 C26.312,20.706 23.5,16.679 23.5,12 C23.5,7.951 25.609,4.391 28.781,2.341 L12.743,4.907 C16.647,6.088 19.5,9.715 19.5,14 C19.5,17.723 17.342,20.943 14.217,22.5 Z M5,11.5 C6.378,11.5 7.5,12.622 7.5,14 C7.5,15.378 6.378,16.5 5,16.5 C3.622,16.5 2.5,15.378 2.5,14 C2.5,12.622 3.622,11.5 5,11.5 Z M5,15.5 C5.827,15.5 6.5,14.827 6.5,14 C6.5,13.173 5.827,12.5 5,12.5 C4.173,12.5 3.5,13.173 3.5,14 C3.5,14.827 4.173,15.5 5,15.5 Z M10,11.5 C8.622,11.5 7.5,10.378 7.5,9 C7.5,7.622 8.622,6.5 10,6.5 C11.378,6.5 12.5,7.622 12.5,9 C12.5,10.378 11.378,11.5 10,11.5 Z M10,7.5 C9.173,7.5 8.5,8.173 8.5,9 C8.5,9.827 9.173,10.5 10,10.5 C10.827,10.5 11.5,9.827 11.5,9 C11.5,8.173 10.827,7.5 10,7.5 Z M15,16.5 C13.622,16.5 12.5,15.378 12.5,14 C12.5,12.622 13.622,11.5 15,11.5 C16.378,11.5 17.5,12.622 17.5,14 C17.5,15.378 16.378,16.5 15,16.5 Z M15,12.5 C14.173,12.5 13.5,13.173 13.5,14 C13.5,14.827 14.173,15.5 15,15.5 C15.827,15.5 16.5,14.827 16.5,14 C16.5,13.173 15.827,12.5 15,12.5 Z M12.5,19 C12.5,20.378 11.378,21.5 10,21.5 C8.622,21.5 7.5,20.378 7.5,19 C7.5,17.622 8.622,16.5 10,16.5 C11.378,16.5 12.5,17.622 12.5,19 Z M8.5,19 C8.5,19.827 9.173,20.5 10,20.5 C10.827,20.5 11.5,19.827 11.5,19 C11.5,18.173 10.827,17.5 10,17.5 C9.173,17.5 8.5,18.173 8.5,19 Z M10,15 C9.44771525,15 9,14.5522847 9,14 C9,13.4477153 9.44771525,13 10,13 C10.5522847,13 11,13.4477153 11,14 C11,14.5522847 10.5522847,15 10,15 Z M35,22.5 C40.79,22.5 45.5,17.79 45.5,12 C45.5,6.21 40.79,1.5 35,1.5 C29.21,1.5 24.5,6.21 24.5,12 C24.5,17.79 29.21,22.5 35,22.5 Z M30,9.5 C31.379,9.5 32.5,10.622 32.5,12 C32.5,13.378 31.379,14.5 30,14.5 C28.621,14.5 27.5,13.378 27.5,12 C27.5,10.622 28.621,9.5 30,9.5 Z M30,13.5 C30.827,13.5 31.5,12.827 31.5,12 C31.5,11.173 30.827,10.5 30,10.5 C29.173,10.5 28.5,11.173 28.5,12 C28.5,12.827 29.173,13.5 30,13.5 Z M35,9.5 C33.621,9.5 32.5,8.378 32.5,7 C32.5,5.622 33.621,4.5 35,4.5 C36.379,4.5 37.5,5.622 37.5,7 C37.5,8.378 36.379,9.5 35,9.5 Z M35,5.5 C34.173,5.5 33.5,6.173 33.5,7 C33.5,7.827 34.173,8.5 35,8.5 C35.827,8.5 36.5,7.827 36.5,7 C36.5,6.173 35.827,5.5 35,5.5 Z M40,9.5 C41.379,9.5 42.5,10.622 42.5,12 C42.5,13.378 41.379,14.5 40,14.5 C38.621,14.5 37.5,13.378 37.5,12 C37.5,10.622 38.621,9.5 40,9.5 Z M40,13.5 C40.827,13.5 41.5,12.827 41.5,12 C41.5,11.173 40.827,10.5 40,10.5 C39.173,10.5 38.5,11.173 38.5,12 C38.5,12.827 39.173,13.5 40,13.5 Z M35,14.5 C36.379,14.5 37.5,15.622 37.5,17 C37.5,18.378 36.379,19.5 35,19.5 C33.621,19.5 32.5,18.378 32.5,17 C32.5,15.622 33.621,14.5 35,14.5 Z M35,18.5 C35.827,18.5 36.5,17.827 36.5,17 C36.5,16.173 35.827,15.5 35,15.5 C34.173,15.5 33.5,16.173 33.5,17 C33.5,17.827 34.173,18.5 35,18.5 Z M35,13 C34.4477153,13 34,12.5522847 34,12 C34,11.4477153 34.4477153,11 35,11 C35.5522847,11 36,11.4477153 36,12 C36,12.5522847 35.5522847,13 35,13 Z" id="short-film" fill="url(#linearGradient-1)" fill-rule="nonzero"></path>
    </g>
</svg>