<?xml version="1.0" encoding="UTF-8"?>
<svg width="55px" height="55px" viewBox="0 0 55 55" version="1.1" xmlns="http://www.w3.org/2000/svg" xmlns:xlink="http://www.w3.org/1999/xlink">
    <!-- Generator: Sketch 43.1 (39012) - http://www.bohemiancoding.com/sketch -->
    <title>smart-bulb</title>
    <desc>Created with Sketch.</desc>
    <defs></defs>
    <g id="Page-1" stroke="none" stroke-width="1" fill="none" fill-rule="evenodd">
        <g id="Artboard-Copy" transform="translate(-1357.000000, -236.000000)" fill-rule="nonzero" fill="#5BCEE0">
            <path d="M1397.483,274 C1396.221,275.572 1394.657,276.92 1392.838,277.943 L1392.214,280 L1393,280 C1394.103,280 1395,280.897 1395,282 L1395,284 C1395,285.103 1394.103,286 1393,286 L1390.395,286 L1390.004,287.291 C1389.214,289.42 1387.211,290.812 1385,290.812 C1382.789,290.812 1380.787,289.42 1380.016,287.349 L1379.606,286 L1377,286 C1375.897,286 1375,285.103 1375,284 L1375,282 C1375,280.897 1375.897,280 1377,280 L1377.785,280 L1377.162,277.943 C1375.33,276.914 1373.766,275.567 1372.505,274 L1371.131,272 C1369.652,269.438 1368.889,266.464 1369.013,263.349 C1369.34,255.131 1376.03,248.396 1384.243,248.018 C1388.67,247.818 1392.858,249.38 1396.048,252.427 C1399.241,255.476 1401,259.586 1401,264 C1401,266.868 1400.236,269.613 1398.856,272 L1397.483,274 Z M1393,284 L1393,282 L1377,282 L1377,284 L1386,284 L1386,286 L1381.695,286 L1381.91,286.709 C1382.371,287.943 1383.621,288.811 1385,288.811 C1386.379,288.811 1387.629,287.943 1388.109,286.651 L1388.306,286 L1388,286 L1388,284 L1393,284 Z M1386,280 L1390.125,280 L1391.164,276.573 L1391.532,276.378 C1396.139,273.941 1399,269.198 1399,264 C1399,260.138 1397.461,256.542 1394.667,253.873 C1391.874,251.206 1388.207,249.837 1384.335,250.015 C1377.151,250.347 1371.297,256.239 1371.011,263.428 C1370.795,268.869 1373.653,273.831 1378.468,276.378 L1378.836,276.573 L1379.875,280 L1384,280 L1384,269.91 C1381.167,269.431 1379,266.967 1379,264 C1379,260.691 1381.691,258 1385,258 C1388.309,258 1391,260.691 1391,264 C1391,266.968 1388.833,269.432 1386,269.91 L1386,280 Z M1385,268 C1387.206,268 1389,266.206 1389,264 C1389,261.794 1387.206,260 1385,260 C1382.794,260 1381,261.794 1381,264 C1381,266.206 1382.794,268 1385,268 Z M1404.98133,267.152754 C1404.45544,266.984046 1404.16589,266.420966 1404.3346,265.895081 C1404.50331,265.369195 1405.06639,265.079645 1405.59228,265.248353 L1411.10484,267.016826 C1411.63072,267.185534 1411.92027,267.748614 1411.75157,268.2745 C1411.58286,268.800386 1411.01978,269.089935 1410.49389,268.921227 L1404.98133,267.152754 Z M1404.46098,253.657799 C1403.97087,253.91239 1403.36718,253.72147 1403.11259,253.231366 C1402.858,252.741262 1403.04892,252.137568 1403.53902,251.882976 L1408.87219,249.112589 C1409.36229,248.857997 1409.96598,249.048918 1410.22058,249.539022 C1410.47517,250.029125 1410.28425,250.63282 1409.79414,250.887411 L1404.46098,253.657799 Z M1395.19043,245.628874 C1394.95387,246.127934 1394.35754,246.340736 1393.85848,246.104181 C1393.35942,245.867626 1393.14662,245.271293 1393.38318,244.772233 L1396.04976,239.146552 C1396.28631,238.647493 1396.88265,238.434691 1397.38171,238.671246 C1397.88076,238.907801 1398.09357,239.504134 1397.85701,240.003194 L1395.19043,245.628874 Z M1400.65956,276.9693 C1400.25418,276.594216 1400.22962,275.961528 1400.60471,275.55615 C1400.97979,275.150773 1401.61248,275.126215 1402.01786,275.501298 L1407.01478,280.124797 C1407.42015,280.49988 1407.44471,281.132569 1407.06963,281.537946 C1406.69454,281.943324 1406.06185,281.967882 1405.65648,281.592798 L1400.65956,276.9693 Z M1385,243.85637 C1385,244.408655 1384.55228,244.85637 1384,244.85637 C1383.44772,244.85637 1383,244.408655 1383,243.85637 L1383,237.688292 C1383,237.136007 1383.44772,236.688292 1384,236.688292 C1384.55228,236.688292 1385,237.136007 1385,237.688292 L1385,243.85637 Z M1376.24226,245.626736 C1376.5088,246.110446 1376.33275,246.718643 1375.84903,246.985181 C1375.36532,247.251719 1374.75713,247.075667 1374.49059,246.591956 L1371.12416,240.48261 C1370.85763,239.9989 1371.03368,239.390703 1371.51739,239.124165 C1372.0011,238.857626 1372.6093,239.033679 1372.87584,239.51739 L1376.24226,245.626736 Z M1367.9744,252.315389 C1368.41289,252.651163 1368.49616,253.278829 1368.16038,253.717319 C1367.82461,254.15581 1367.19694,254.239078 1366.75845,253.903303 L1361.39203,249.793957 C1360.95354,249.458183 1360.87027,248.830517 1361.20604,248.392026 C1361.54182,247.953536 1362.16948,247.870268 1362.60797,248.206043 L1367.9744,252.315389 Z M1364.36642,263.109346 C1364.91871,263.109346 1365.36642,263.557061 1365.36642,264.109346 C1365.36642,264.661631 1364.91871,265.109346 1364.36642,265.109346 L1358,265.109346 C1357.44772,265.109346 1357,264.661631 1357,264.109346 C1357,263.557061 1357.44772,263.109346 1358,263.109346 L1364.36642,263.109346 Z M1367.80771,274.279986 C1368.26575,273.971416 1368.88722,274.092588 1369.19578,274.550631 C1369.50435,275.008674 1369.38318,275.630136 1368.92514,275.938706 L1362.4502,280.300677 C1361.99215,280.609247 1361.37069,280.488075 1361.06212,280.030032 C1360.75355,279.571989 1360.87473,278.950527 1361.33277,278.641957 L1367.80771,274.279986 Z" id="smart-bulb"></path>
        </g>
    </g>
</svg>