<?xml version="1.0" encoding="UTF-8"?>
<svg width="79px" height="78px" viewBox="0 0 79 78" version="1.1" xmlns="http://www.w3.org/2000/svg" xmlns:xlink="http://www.w3.org/1999/xlink">
    <!-- Generator: Sketch 43.1 (39012) - http://www.bohemiancoding.com/sketch -->
    <title>spotlights</title>
    <desc>Created with Sketch.</desc>
    <defs>
        <linearGradient x1="30.2694515%" y1="30.2694515%" x2="85.9749543%" y2="85.9749543%" id="linearGradient-1">
            <stop stop-color="#5BCEE0" offset="0%"></stop>
            <stop stop-color="#FF5454" offset="100%"></stop>
        </linearGradient>
    </defs>
    <g id="Page-1" stroke="none" stroke-width="1" fill="none" fill-rule="evenodd">
        <g id="Artboard-Copy" transform="translate(-1853.000000, -217.000000)" fill-rule="nonzero" fill="url(#linearGradient-1)">
            <path d="M1930.1,292.5 L1924.2,292.5 L1924.2,289.5 L1926.4,288 C1930.4,285.1 1931.4,279.5 1928.6,275.5 L1924,269.1 C1924.6,268.7 1924.7,268.1 1924.3,267.6 C1924,267.1 1923.4,267 1922.9,267.4 L1922.1,268 L1918.3,270.7 L1908.7,246.1 L1928.4,228.9 C1928.8,228.5 1928.9,227.9 1928.5,227.5 C1928.1,227.1 1927.5,227 1927.1,227.4 L1907.9,244.1 L1897.8,218 C1897.6,217.5 1897,217.2 1896.5,217.4 C1896,217.6 1895.7,218.2 1895.9,218.7 L1906.3,245.5 L1892,258.1 L1877.7,245.5 L1888.1,218.7 C1888.3,218.2 1888,217.6 1887.5,217.4 C1887,217.2 1886.4,217.5 1886.2,218 L1876.1,244.1 L1856.9,227.4 C1856.5,227 1855.9,227.1 1855.5,227.5 C1855.1,227.9 1855.2,228.5 1855.6,228.9 L1875.3,246.1 L1865.7,270.7 L1861.9,268 L1861,267.4 C1860.5,267.1 1859.9,267.2 1859.6,267.6 C1859.3,268.1 1859.4,268.7 1859.8,269 L1855.5,275.4 C1852.6,279.4 1853.6,285.1 1857.7,287.9 L1859.9,289.4 L1859.9,292.4 L1854,292.4 C1853.4,292.4 1853,292.8 1853,293.4 C1853,294 1853.4,294.4 1854,294.4 L1867.9,294.4 C1868.5,294.4 1868.9,294 1868.9,293.4 C1868.9,292.8 1868.5,292.4 1867.9,292.4 L1862,292.4 L1862,290.6 C1863.2,291.1 1864.4,291.4 1865.7,291.4 C1866.2,291.4 1866.7,291.4 1867.2,291.3 C1869.6,290.9 1871.6,289.6 1873,287.6 L1877.4,281.3 C1877.7,281.5 1877.9,281.6 1878.1,281.6 C1878.4,281.6 1878.7,281.5 1878.9,281.2 C1879.2,280.7 1879.1,280.1 1878.7,279.8 L1874,276.5 L1892,260.7 L1910.1,276.5 L1905.4,279.8 C1904.9,280.1 1904.8,280.7 1905.2,281.2 C1905.4,281.5 1905.7,281.6 1906,281.6 C1906.2,281.6 1906.4,281.5 1906.6,281.4 L1911.1,287.6 C1912.5,289.6 1914.5,290.9 1916.9,291.3 C1917.4,291.4 1917.9,291.4 1918.4,291.4 C1919.7,291.4 1920.9,291.1 1922.1,290.6 L1922.1,292.4 L1916.2,292.4 C1915.6,292.4 1915.2,292.8 1915.2,293.4 C1915.2,294 1915.6,294.4 1916.2,294.4 L1930.1,294.4 C1930.7,294.4 1931.1,294 1931.1,293.4 C1931.1,292.8 1930.7,292.5 1930.1,292.5 Z M1871.3,286.5 C1870.2,288 1868.6,289 1866.8,289.4 C1865,289.7 1863.1,289.3 1861.6,288.2 L1858.9,286.3 C1855.8,284.1 1855,279.7 1857.2,276.6 L1861.6,270.3 L1862.7,271 L1875.7,280.2 L1871.3,286.5 Z M1872.3,275.3 L1869.9,273.6 L1867.5,271.9 L1877,247.5 L1890.6,259.4 L1872.3,275.3 Z M1893.5,259.4 L1907.1,247.5 L1916.6,271.9 L1914.2,273.6 L1911.8,275.3 L1893.5,259.4 Z M1917.3,289.3 C1915.5,289 1913.9,288 1912.8,286.4 L1908.4,280.1 L1921.4,270.9 L1922.5,270.2 L1926.9,276.5 C1929.1,279.6 1928.4,284 1925.2,286.2 L1922.5,288.1 C1921,289.2 1919.1,289.7 1917.3,289.3 Z" id="spotlights"></path>
        </g>
    </g>
</svg>