<?xml version="1.0" encoding="UTF-8"?>
<svg width="62px" height="62px" viewBox="0 0 62 62" version="1.1" xmlns="http://www.w3.org/2000/svg" xmlns:xlink="http://www.w3.org/1999/xlink">
    <!-- Generator: Sketch 43.1 (39012) - http://www.bohemiancoding.com/sketch -->
    <title>streaming-video</title>
    <desc>Created with Sketch.</desc>
    <defs></defs>
    <g id="Page-1" stroke="none" stroke-width="1" fill="none" fill-rule="evenodd">
        <g id="Artboard-Copy" transform="translate(-1603.000000, -394.000000)" fill-rule="nonzero" fill="#5BCEE0">
            <path d="M1664,394.83 L1604,394.83 C1603.44772,394.83 1603,395.277715 1603,395.83 L1603,437.5 C1603,438.052285 1603.44772,438.5 1604,438.5 C1604.55228,438.5 1605,438.052285 1605,437.5 L1605,396.83 L1663,396.83 L1663,453.17 L1605,453.17 L1605,444.5 L1638.3,444.5 C1638.78693,447.501724 1641.37904,449.707226 1644.42,449.707226 C1647.46096,449.707226 1650.05307,447.501724 1650.54,444.5 L1658.67,444.5 C1659.22228,444.5 1659.67,444.052285 1659.67,443.5 C1659.67,442.947715 1659.22228,442.5 1658.67,442.5 L1650.54,442.5 C1650.05307,439.498276 1647.46096,437.292774 1644.42,437.292774 C1641.37904,437.292774 1638.78693,439.498276 1638.3,442.5 L1604,442.5 C1603.44772,442.5 1603,442.947715 1603,443.5 L1603,454.17 C1603,454.722285 1603.44772,455.17 1604,455.17 L1664,455.17 C1664.55228,455.17 1665,454.722285 1665,454.17 L1665,395.83 C1665,395.277715 1664.55228,394.83 1664,394.83 Z M1644.42,439.29 C1646.12279,439.29 1647.6579,440.315734 1648.30953,441.888903 C1648.96116,443.462072 1648.60097,445.272868 1647.39692,446.47692 C1646.19287,447.680971 1644.38207,448.041161 1642.8089,447.389533 C1641.23573,446.737905 1640.21,445.202786 1640.21,443.5 C1640.21,441.174881 1642.09488,439.29 1644.42,439.29 L1644.42,439.29 Z M1628,428.08 C1628.18287,428.081761 1628.36273,428.033338 1628.52,427.94 L1641.08,420.38 C1641.38359,420.199862 1641.56971,419.873008 1641.56971,419.52 C1641.56971,419.166992 1641.38359,418.840138 1641.08,418.66 L1628.55,411.22 C1628.24094,411.036755 1627.85732,411.033404 1627.5451,411.211224 C1627.23288,411.389043 1627.04006,411.720695 1627.04,412.08 L1627.04,427.08 C1627.03957,427.617034 1627.4634,428.058519 1628,428.08 Z M1629,413.83 L1638.61,419.52 L1629,425.32 L1629,413.84 L1629,413.83 Z" id="streaming-video"></path>
        </g>
    </g>
</svg>