<?xml version="1.0" encoding="utf-8"?>
<!-- Generator: Adobe Illustrator 21.1.0, SVG Export Plug-In . SVG Version: 6.00 Build 0)  -->
<svg version="1.1" id="Layer_1" xmlns="http://www.w3.org/2000/svg" xmlns:xlink="http://www.w3.org/1999/xlink" x="0px" y="0px"
	 viewBox="0 0 53.1 68.6" style="enable-background:new 0 0 53.1 68.6;" xml:space="preserve">
<style type="text/css">
	.st0{fill:#CE2949;}
</style>
<path class="st0" d="M11.7,56.3l2-13.2c1.1,0.6,2.7,1.5,4.5,2.8c2.1,1.7,2.9,2.8,4.1,2.7c1.2-0.2,1.3-1.5,2.8-3.2
	c1.6-1.7,4.4-3.5,7.3-3.2c2,0.2,3.4,1.2,5.7,3c1.7,1.3,2.9,2.5,3.8,3.5c0.4,2.6,0.7,5.1,1.1,7.7H11.7z"/>
<path class="st0" d="M14.9,21.9c0,0,12.8-10,24.4-0.5c0,0-2.7,10.7-10.7,10.7S18.6,30.6,14.9,21.9z"/>
<path d="M46,57.4h-1.5l-2-10.2c-0.8-3.9-2.7-7.5-5.5-10c-1.4-1.2-2.9-2.2-4.5-2.9c1.6-0.7,3.2-1.6,4.5-2.9c2.8-2.5,4.8-6.1,5.5-10
	l2-10.2H46c1.9,0,3.5-1.6,3.5-3.5S48,4.4,46,4.4H8C6.1,4.4,4.5,6,4.5,7.9S6,11.4,8,11.4h1.5l2,10.2c0.8,3.9,2.7,7.5,5.5,10
	c1.4,1.2,2.9,2.2,4.5,2.9c-1.6,0.7-3.2,1.6-4.5,2.9c-2.2,2-3.9,4.6-4.9,7.5c0,0,0,0-0.1,0v0.2c-0.2,0.7-0.4,1.5-0.6,2.2l-2,10.2H8
	c-1.9,0-3.5,1.6-3.5,3.5S6,64.4,8,64.4h38c1.9,0,3.5-1.6,3.5-3.5S48,57.4,46,57.4z M10.3,9.2H8c-0.7,0-1.3-0.6-1.3-1.3
	S7.3,6.6,8,6.6h38c0.7,0,1.3,0.6,1.3,1.3S46.7,9.2,46,9.2h-2.4H10.3z M42.4,11.4l-1.9,9.7c-0.1,0.5-0.2,1-0.3,1.4
	c-3.2-1.7-7.8-2.6-12.7-2.6c-5.3,0-10.2,1.1-13.4,3c-0.2-0.6-0.3-1.2-0.5-1.8l-2-9.7H42.4z M14.9,25.2c2.8-1.8,7.5-2.9,12.5-2.9
	c4.6,0,9,0.9,11.9,2.5c-2.3,5.1-7,8.5-12.3,8.5C21.8,33.3,17.3,30.1,14.9,25.2z M27,35.5c6.5,0,12,5,13.4,12.2l0.4,1.8
	c-1.4-0.3-2.2-1.1-3.2-2c-1.3-1.3-2.8-2.7-5.7-2.7s-4.4,1.4-5.7,2.7C25,48.7,24,49.6,22,49.6s-3-0.9-4.2-2.1
	c-0.9-0.9-1.9-1.9-3.5-2.4C16.4,39.3,21.3,35.5,27,35.5z M13.6,47.7c0-0.2,0.1-0.3,0.1-0.5c1,0.4,1.8,1,2.6,1.9
	c1.3,1.3,2.8,2.7,5.7,2.7s4.4-1.4,5.7-2.7c1.2-1.2,2.2-2.1,4.2-2.1c2.1,0,3,0.9,4.2,2.1s2.6,2.5,5.1,2.7l1.1,5.7H11.6L13.6,47.7z
	 M46,62.2H8c-0.7,0-1.3-0.6-1.3-1.3s0.6-1.3,1.3-1.3h2.4h33.3H46c0.7,0,1.3,0.6,1.3,1.3S46.8,62.2,46,62.2z"/>
</svg>
