<?xml version="1.0" encoding="UTF-8"?>
<svg width="90px" height="88px" viewBox="0 0 90 88" version="1.1" xmlns="http://www.w3.org/2000/svg" xmlns:xlink="http://www.w3.org/1999/xlink">
    <!-- Generator: Sketch 43.1 (39012) - http://www.bohemiancoding.com/sketch -->
    <title>trending</title>
    <desc>Created with Sketch.</desc>
    <defs></defs>
    <g id="Page-1" stroke="none" stroke-width="1" fill="none" fill-rule="evenodd">
        <g id="Artboard-Copy" transform="translate(-1494.000000, -122.000000)" fill-rule="nonzero" fill="#5BCEE0">
            <path d="M1496,121.99997 C1494.8954,121.99997 1494,122.89537 1494,123.99997 L1494,208.00002 C1494,209.10462 1494.8954,210.00002 1496,210.00002 L1582,210.00002 C1583.1046,210.00002 1584,209.10462 1584,208.00002 C1584,206.89542 1583.1046,206.00002 1582,206.00002 L1498,206.00002 L1498,123.99997 C1498,122.89537 1497.1046,121.99997 1496,121.99997 L1496,121.99997 Z M1542.9376,134.56808 C1542.8706,135.50447 1543.5556,136.43849 1544.4688,136.65622 L1549.4062,137.99997 L1509.125,157.18744 C1508.1413,157.61863 1507.6595,158.92954 1508.1297,159.89514 C1508.5999,160.86074 1509.929,161.28974 1510.875,160.78124 L1551.4688,141.43747 L1550.125,146.46872 C1549.8548,147.48327 1550.5321,148.65225 1551.5468,148.92227 C1552.5614,149.19224 1553.7302,148.51464 1554,147.49997 L1556.5938,137.87497 C1556.8582,136.8687 1556.191,135.71224 1555.1875,135.43747 L1545.5312,132.81247 C1544.3217,132.46625 1542.9885,133.1656 1542.9376,134.56808 L1542.9376,134.56808 Z M1562,149.99994 C1560.8646,150.02694 1560.0246,151.09904 1560,151.99994 L1560,196.00002 C1560.0001,197.04722 1560.9528,197.99992 1562,198.00002 L1570,198.00002 C1571.0472,197.99992 1571.9999,197.04722 1572,196.00002 L1572,151.99994 C1571.9999,150.95284 1571.0472,150.00004 1570,149.99994 L1562,149.99994 Z M1564,153.99994 L1568,153.99994 L1568,194.00002 L1564,194.00002 L1564,153.99994 Z M1544,155.99994 C1542.8646,156.02694 1542.0246,157.09904 1542,157.99994 L1542,196.00002 C1542.0001,197.04722 1542.9528,197.99992 1544,198.00002 L1552,198.00002 C1553.0472,197.99992 1553.9999,197.04722 1554,196.00002 L1554,157.99994 C1553.9999,156.95284 1553.0472,156.00004 1552,155.99994 L1544,155.99994 Z M1546,159.99994 L1550,159.99994 L1550,194.00002 L1546,194.00002 L1546,159.99994 Z M1526,161.99994 C1524.8646,162.02694 1524.0246,163.09904 1524,163.99992 L1524,196.00002 C1524.0001,197.04722 1524.9528,197.99992 1526,198.00002 L1534,198.00002 C1535.0472,197.99992 1535.9999,197.04722 1536,196.00002 L1536,163.99992 C1535.9999,162.95284 1535.0472,162.00004 1534,161.99994 L1526,161.99994 Z M1528,165.99992 L1532,165.99992 L1532,194.00002 L1528,194.00002 L1528,165.99992 Z M1508,167.99992 C1506.8646,168.02692 1506.0246,169.09902 1506,170.00002 L1506,196.00002 C1506.0001,197.04722 1506.9528,197.99992 1508,198.00002 L1516,198.00002 C1517.0472,197.99992 1517.9999,197.04722 1518,196.00002 L1518,170.00002 C1517.9999,168.95282 1517.0472,168.00002 1516,167.99992 L1508,167.99992 Z M1510,172.00002 L1514,172.00002 L1514,194.00002 L1510,194.00002 L1510,172.00002 Z" id="trending"></path>
        </g>
    </g>
</svg>