<?xml version="1.0" encoding="UTF-8"?>
<svg width="66px" height="49px" viewBox="0 0 66 49" version="1.1" xmlns="http://www.w3.org/2000/svg" xmlns:xlink="http://www.w3.org/1999/xlink">
    <!-- Generator: Sketch 47.1 (45422) - http://www.bohemiancoding.com/sketch -->
    <title>trivia-tv</title>
    <desc>Created with Sketch.</desc>
    <defs></defs>
    <g id="Page-1" stroke="none" stroke-width="1" fill="none" fill-rule="evenodd">
        <g id="Group" transform="translate(-456.000000, -125.000000)" fill-rule="nonzero" fill="#55CEE2">
            <path d="M490.501116,163.175155 C494.501116,163.175155 497.651116,160.775155 497.651116,155.975155 C497.651116,151.975155 492.901116,150.375155 492.901116,147.225155 L488.101116,147.225155 C488.101116,152.775155 492.901116,153.575155 492.901116,155.975155 C492.901116,157.575155 492.101116,158.375155 490.501116,158.375155 C488.901116,158.375155 488.101116,157.575155 488.101116,155.175155 L483.351116,155.175155 C482.551116,159.175155 485.701116,163.175155 490.501116,163.175155 Z M490.501116,144.825155 C492.351116,144.825155 493.701116,143.475155 493.701116,141.625155 C493.701116,139.775155 492.351116,138.425155 490.501116,138.425155 C488.651116,138.425155 487.301116,139.775155 487.301116,141.625155 C487.301116,143.475155 488.651116,144.825155 490.501116,144.825155 Z M478.251116,162.875155 C480.301116,162.875155 480.451116,162.875155 480.301116,160.825155 L479.301116,149.375155 C479.101116,147.325155 479.301116,147.325155 477.251116,147.325155 C475.251116,147.325155 475.451116,147.325155 475.251116,149.375155 L474.251116,160.825155 C474.101116,162.875155 474.251116,162.875155 476.301116,162.875155 L478.251116,162.875155 Z M477.251116,144.775155 C479.201116,144.775155 480.601116,143.375155 480.601116,141.425155 C480.601116,139.525155 479.201116,138.175155 477.251116,138.175155 C475.351116,138.175155 473.951116,139.525155 473.951116,141.425155 C473.951116,143.375155 475.351116,144.775155 477.251116,144.775155 Z M459,128.457038 L519,128.457038 C521.5,128.457038 521.5,128.457038 521.5,130.957038 L521.5,170.957038 C521.5,173.457038 521.5,173.457038 519,173.457038 L459,173.457038 C456.5,173.457038 456.5,173.457038 456.5,170.957038 L456.5,130.957038 C456.5,128.457038 456.5,128.457038 459,128.457038 Z M460.846154,130.2 C458.5,130.2 458.5,130.2 458.5,132.533333 L458.5,169.313784 C458.5,171.647118 458.5,171.647118 460.846154,171.647118 L517.153846,171.647118 C519.5,171.647118 519.5,171.647118 519.5,169.313784 L519.5,132.533333 C519.5,130.2 519.5,130.2 517.153846,130.2 L460.846154,130.2 Z M463.551116,136.925155 C463.801116,135.675155 464.651116,134.825155 465.901116,134.675155 C474.801116,132.875155 494.801116,132.875155 503.701116,134.675155 C504.951116,134.825155 505.801116,135.675155 506.051116,136.925155 C507.751116,145.775155 507.751116,155.875155 506.051116,164.725155 C505.801116,165.975155 504.951116,166.825155 503.701116,166.975155 C494.801116,168.775155 474.801116,168.775155 465.901116,166.975155 C464.651116,166.825155 463.801116,165.975155 463.551116,164.775155 C461.851116,155.875155 461.851116,145.775155 463.551116,136.925155 Z M465.461494,138.513726 C463.914324,146.352297 463.914324,155.298012 465.461494,163.180869 C465.689019,164.243726 466.462604,164.996583 467.600229,165.12944 C475.700118,166.723726 493.902115,166.723726 502.002004,165.12944 C503.139629,164.996583 503.913214,164.243726 504.140739,163.136583 C505.687909,155.298012 505.687909,146.352297 504.140739,138.513726 C503.913214,137.406583 503.139629,136.653726 502.002004,136.520869 C493.902115,134.926583 475.700118,134.926583 467.600229,136.520869 C466.462604,136.653726 465.689019,137.406583 465.461494,138.513726 Z M464.219458,125 L514.219458,125 C516.719458,125 516.719458,125 516.719458,126 L516.719458,127 L461.719458,127 L461.719458,126 C461.719458,125 461.719458,125 464.219458,125 Z M514,153.457038 C512.6,153.457038 511.5,154.557038 511.5,155.957038 C511.5,157.357038 512.6,158.457038 514,158.457038 C515.4,158.457038 516.5,157.357038 516.5,155.957038 C516.5,154.557038 515.4,153.457038 514,153.457038 Z M514,163.457038 C512.6,163.457038 511.5,164.557038 511.5,165.957038 C511.5,167.357038 512.6,168.457038 514,168.457038 C515.4,168.457038 516.5,167.357038 516.5,165.957038 C516.5,164.557038 515.4,163.457038 514,163.457038 Z" id="trivia-tv" transform="translate(489.000000, 149.228519) scale(-1, 1) rotate(-180.000000) translate(-489.000000, -149.228519) "></path>
        </g>
    </g>
</svg>