<?xml version="1.0" encoding="UTF-8"?>
<svg width="118px" height="73px" viewBox="0 0 118 73" version="1.1" xmlns="http://www.w3.org/2000/svg" xmlns:xlink="http://www.w3.org/1999/xlink">
    <!-- Generator: Sketch 43.1 (39012) - http://www.bohemiancoding.com/sketch -->
    <title>trivia</title>
    <desc>Created with Sketch.</desc>
    <defs>
        <linearGradient x1="30.2694515%" y1="30.2694515%" x2="85.9749543%" y2="85.9749543%" id="linearGradient-1">
            <stop stop-color="#5BCEE0" offset="0%"></stop>
            <stop stop-color="#FF5454" offset="100%"></stop>
        </linearGradient>
    </defs>
    <g id="Page-1" stroke="none" stroke-width="1" fill="none" fill-rule="evenodd">
        <g id="Artboard-Copy" transform="translate(-2079.000000, -44.000000)" fill-rule="nonzero" fill="url(#linearGradient-1)">
            <path d="M2125.62648,60.9961475 L2125.17483,57.7824998 C2124.79122,55.0529772 2126.70188,52.5280313 2129.42248,52.1456757 L2183.53875,44.5401304 C2186.26827,44.156521 2188.79322,46.0671805 2189.17557,48.7877821 L2196.78112,102.904049 C2197.16473,105.633571 2195.25407,108.158517 2192.53347,108.540873 L2138.4172,116.146418 C2135.68768,116.530027 2133.16273,114.619368 2132.78038,111.898766 L2130.38966,94.8879134 L2128.76777,106.428225 C2128.38336,109.163451 2125.85183,111.068802 2123.11917,110.684752 L2083.95257,105.180245 C2081.21734,104.795834 2079.31199,102.264301 2079.69604,99.5316425 L2085.20054,60.3650399 C2085.58496,57.6298136 2088.11649,55.7244623 2090.84915,56.1085123 L2125.62648,60.9961475 Z M2125.91604,63.0564981 L2090.5708,58.0890485 C2088.93092,57.8585778 2087.41162,59.0030251 2087.18108,60.6433861 L2081.67657,99.8099887 C2081.4461,101.449873 2082.59055,102.969171 2084.23091,103.199709 L2123.39751,108.704216 C2125.0374,108.934687 2126.5567,107.790239 2126.78723,106.149879 L2129.37983,87.7026169 L2125.91604,63.0564981 Z M2127.15537,57.5041536 L2134.76091,111.62042 C2134.99005,113.250835 2136.50678,114.395255 2138.13885,114.165882 L2192.25512,106.560337 C2193.88553,106.331197 2195.02995,104.814467 2194.80058,103.182395 L2187.19504,49.0661283 C2186.9659,47.4357135 2185.44917,46.2912937 2183.81709,46.5206666 L2129.70083,54.1262118 C2128.07041,54.3553517 2126.92599,55.872081 2127.15537,57.5041536 Z M2152.17033,71.4636713 C2152.17033,72.8443831 2151.05104,73.9636713 2149.67033,73.9636713 C2148.28962,73.9636713 2147.17033,72.8443831 2147.17033,71.4636713 C2147.17033,65.7851323 2152.51735,60.9455564 2159.65804,60.9455564 C2166.62663,60.9455564 2170.6262,64.83874 2170.6262,70.1812527 C2170.6262,73.4654142 2169.37677,75.5708245 2166.85171,77.9028618 C2166.72386,78.0209376 2165.9737,78.7005273 2165.7825,78.8801496 C2165.57029,79.0794986 2165.40235,79.246489 2165.26122,79.3993766 C2164.43276,80.2968385 2163.68467,81.2653061 2163.15718,82.1397964 C2162.65966,82.964603 2162.41473,83.6211755 2162.41473,83.9075573 C2162.41473,85.2882692 2161.29545,86.4075573 2159.91473,86.4075573 C2158.53402,86.4075573 2157.41473,85.2882692 2157.41473,83.9075573 C2157.41473,81.5004055 2159.10725,78.6944935 2161.58727,76.0079078 C2161.8184,75.7575212 2162.06691,75.5104182 2162.35905,75.2359731 C2162.59027,75.0187542 2163.36252,74.3191552 2163.45936,74.2297221 C2165.05942,72.7519747 2165.6262,71.7968955 2165.6262,70.1812527 C2165.6262,67.6307815 2163.89492,65.9455564 2159.65804,65.9455564 C2155.17372,65.9455564 2152.17033,68.663915 2152.17033,71.4636713 Z M2109.18012,72.8869318 C2106.09372,72.0145748 2103.92856,73.2765313 2103.11849,75.4702253 C2102.73586,76.5064042 2101.58569,77.0362088 2100.54951,76.653577 C2099.51333,76.2709452 2098.98353,75.1207719 2099.36616,74.084593 C2100.87811,69.9901907 2105.1288,67.5379284 2110.37002,69.0670078 L2110.51241,69.114415 C2115.23034,70.8844315 2117.09233,73.2317006 2117.09233,77.4249393 L2117.09233,77.5634555 L2117.07324,77.7006491 C2116.72516,80.2014882 2115.5854,81.6128951 2113.33954,82.9807365 C2113.12512,83.1113257 2111.65293,83.9627435 2111.20783,84.2409863 C2109.17728,85.5103489 2108.62234,86.0755491 2107.90997,87.3683786 C2107.37691,88.3358074 2106.16052,88.6879311 2105.1931,88.1548689 C2104.22567,87.6218067 2103.87354,86.4054184 2104.40661,85.4379896 C2105.46095,83.5245029 2106.49878,82.4674924 2109.08752,80.849193 C2109.60484,80.5257972 2111.10451,79.6584896 2111.25887,79.564479 C2112.51872,78.7971687 2112.92056,78.3309408 2113.09143,77.2819849 C2113.06192,74.9914504 2112.29777,74.0662407 2109.18012,72.8869318 Z M2161.5,98 C2159.567,98 2158,96.4329966 2158,94.5 C2158,92.5670034 2159.567,91 2161.5,91 C2163.433,91 2165,92.5670034 2165,94.5 C2165,96.4329966 2163.433,98 2161.5,98 Z M2105.21784,97.724129 C2103.56099,97.724129 2102.21784,96.3809832 2102.21784,94.724129 C2102.21784,93.0672747 2103.56099,91.724129 2105.21784,91.724129 C2106.8747,91.724129 2108.21784,93.0672747 2108.21784,94.724129 C2108.21784,96.3809832 2106.8747,97.724129 2105.21784,97.724129 Z" id="trivia"></path>
        </g>
    </g>
</svg>