<?xml version="1.0" encoding="UTF-8"?>
<svg width="1079px" height="93px" viewBox="0 0 1079 93" version="1.1" xmlns="http://www.w3.org/2000/svg" xmlns:xlink="http://www.w3.org/1999/xlink">
    <!-- Generator: Sketch 43.1 (39012) - http://www.bohemiancoding.com/sketch -->
    <title>video-artificial-intelligence</title>
    <desc>Created with Sketch.</desc>
    <defs></defs>
    <g id="Page-1" stroke="none" stroke-width="1" fill="none" fill-rule="evenodd">
        <g id="vai" transform="translate(0.000000, -642.000000)" fill-rule="nonzero" fill="#5BCEE0">
            <g id="video-artificial-intelligence" transform="translate(0.000000, 642.000000)">
                <polygon id="Shape" points="0 7.8 0 7 9.6 7 30.2 56.4 30.3 56.4 51 7 60.4 7 60.4 7.8 30.7 74.7 29.9 74.7"></polygon>
                <path d="M66.5,12.5 C66.5,9.3 69.1,7 72.1,7 C75.2,7 77.7,9.2 77.7,12.5 C77.7,15.8 75.1,18.1 72.1,18.1 C69.1,18 66.5,15.8 66.5,12.5 Z M67.9,28.4 L76.2,28.4 L76.2,71.7 L67.9,71.7 L67.9,28.4 Z" id="Shape"></path>
                <path d="M86.7,50.1 C86.7,36.3 95.5,27.5 107.1,27.5 C113.1,27.5 118.1,29.9 121.6,34.4 L121.6,1.6 L129.9,1.6 L129.9,71.7 L121.8,71.7 L121.8,65.3 C118,70.1 112.5,72.6 106.2,72.6 C94.5,72.7 86.7,64.1 86.7,50.1 Z M122.1,50.1 C122.1,40.4 116.8,34.4 108.8,34.4 C100.8,34.4 95.6,40.3 95.6,50.1 C95.6,59.8 100.9,65.7 108.8,65.7 C116.8,65.6 122.1,59.8 122.1,50.1 Z" id="Shape"></path>
                <path d="M140.4,50.8 C140.4,37.2 148.6,27.5 161.8,27.5 C175.2,27.5 181.3,37.4 181.3,49.5 C181.3,50.5 181.2,51.6 181,52.6 L149,52.6 C149.4,60.3 154.7,65.6 162.6,65.6 C168.7,65.6 172.8,63.2 174.9,61 L179.3,67 C176,69.9 170.1,72.7 161.7,72.7 C148.3,72.7 140.4,63.6 140.4,50.8 Z M149.2,46.5 L172.9,46.5 C172.3,39.4 168.5,34.1 161.4,34.1 C154.1,34.1 150,39.7 149.2,46.5 Z" id="Shape"></path>
                <path d="M187.7,50.1 C187.7,36.9 197,27.5 209.7,27.5 C222.9,27.5 231.7,36.4 231.7,50.1 C231.7,63.3 222.5,72.7 209.7,72.7 C196.6,72.7 187.7,63.7 187.7,50.1 Z M223,50.1 C223,40.7 217.8,34.4 209.8,34.4 C201.8,34.4 196.6,40.8 196.6,50.1 C196.6,59.5 201.9,65.8 209.8,65.8 C217.8,65.7 223,59.4 223,50.1 Z" id="Shape"></path>
                <path d="M258.5,70.9 L288.3,4 L289,4 L318.8,70.9 L318.8,71.7 L309.3,71.7 L304.7,60.6 L272.6,60.6 L267.9,71.7 L258.5,71.7 L258.5,70.9 Z M301.5,52.9 L288.7,22.4 L288.6,22.4 L275.6,52.9 L301.5,52.9 Z" id="Shape"></path>
                <path d="M327.1,28.4 L335.1,28.4 L335.1,36.6 C337.7,31 341.6,27.5 348.2,27.5 C351,27.5 353.8,28.3 354.9,29.2 L352,38.1 C350.6,36.6 348.2,35.6 345.1,35.6 C338.9,35.6 335.6,40.9 335.6,50 L335.6,71.9 L327.3,71.9 L327.3,28.4 L327.1,28.4 Z" id="Shape"></path>
                <path d="M365.7,59.7 L365.7,35.2 L358.8,35.2 L358.8,28.3 L365.7,28.3 L365.7,17.6 L373.5,11.9 L374.1,11.9 L374.1,28.4 L385.5,28.4 L385.5,35.3 L374,35.3 L374,57.9 C374,62.7 375.3,65.5 379.6,65.5 C382.4,65.5 384.1,64.5 385.4,63 L388,69.6 C386.2,71.5 382.8,72.7 378,72.7 C369.3,72.7 365.7,68 365.7,59.7 Z" id="Shape"></path>
                <path d="M395.1,12.5 C395.1,9.3 397.7,7 400.7,7 C403.8,7 406.3,9.2 406.3,12.5 C406.3,15.8 403.7,18.1 400.7,18.1 C397.7,18 395.1,15.8 395.1,12.5 Z M396.5,28.4 L404.8,28.4 L404.8,71.7 L396.5,71.7 L396.5,28.4 Z" id="Shape"></path>
                <path d="M422.6,35.3 L414.9,35.3 L414.9,28.4 L422.6,28.4 L422.6,21.9 C422.6,8.1 428.2,0.7 440.8,0.7 C446.5,0.7 451.5,2.3 455.1,5.9 L450.3,11.7 C448.4,9.5 445,7.7 440.6,7.7 C434.9,7.7 431,11 431,21.1 L431,28.3 L456.5,28.3 L456.5,71.6 L448.2,71.6 L448.2,35.1 L431,35.1 L431,71.6 L422.7,71.6 L422.7,35.3 L422.6,35.3 Z" id="Shape"></path>
                <path d="M466.9,50.1 C466.9,35.5 476.4,27.5 487.9,27.5 C496.1,27.5 501.3,30.9 504,36.1 L498.7,40.7 C496.1,36.3 492.1,34.3 487.4,34.3 C481.4,34.3 475.6,38.9 475.6,50 C475.6,60.7 481.4,65.6 488.6,65.6 C493.8,65.6 497.8,63.2 499.2,61.3 L503.6,66.9 C500.6,69.8 495.4,72.7 487.8,72.7 C475,72.7 466.9,63.1 466.9,50.1 Z" id="Shape"></path>
                <path d="M511.3,12.5 C511.3,9.3 513.9,7 516.9,7 C520,7 522.5,9.2 522.5,12.5 C522.5,15.8 519.9,18.1 516.9,18.1 C513.9,18 511.3,15.8 511.3,12.5 Z M512.7,28.4 L521,28.4 L521,71.7 L512.7,71.7 L512.7,28.4 Z" id="Shape"></path>
                <path d="M531.5,60.3 C531.5,52.6 537.5,47.8 549.9,47.1 C554.9,46.8 559.8,46 559.8,41.4 C559.8,37.1 556.4,34.6 549.7,34.6 C543.7,34.6 540.1,36.5 537.9,38.6 L533.8,33 C537.3,29.8 542.9,27.4 550.7,27.4 C562.7,27.4 568.1,33 568.1,43.6 L568.1,66.1 C568.1,68.2 567.9,69 569.4,70.3 L570.3,71.1 L570.3,71.7 L560.1,71.7 L560.1,65.1 C557.6,69.5 552.8,72.6 545.8,72.6 C537.7,72.7 531.5,68.1 531.5,60.3 Z M559.9,54.8 L559.9,50.4 C558.6,51.7 555.3,52.4 551.5,52.7 C544.2,53.3 540.2,55.4 540.2,59.8 C540.2,63.6 543.2,66.2 548.1,66.2 C555.5,66.3 559.9,60.2 559.9,54.8 Z" id="Shape"></path>
                <polygon id="Shape" points="582.2 1.6 590.5 1.6 590.5 71.7 582.2 71.7"></polygon>
                <polygon id="Shape" points="628.3 6.9 637.4 6.9 637.4 71.7 628.3 71.7"></polygon>
                <path d="M653,28.4 L661,28.4 L661,34.7 C663.9,30.2 668.9,27.5 675.4,27.5 C686.3,27.5 691.2,34.6 691.2,45.1 L691.2,71.8 L682.9,71.8 L682.9,47.3 C682.9,40.3 680.3,34.9 672.7,34.9 C664.7,34.9 661.3,40.9 661.3,48.2 L661.3,71.8 L653,71.8 L653,28.4 Z" id="Shape"></path>
                <path d="M706.8,59.7 L706.8,35.2 L699.9,35.2 L699.9,28.3 L706.8,28.3 L706.8,17.6 L714.6,11.9 L715.2,11.9 L715.2,28.4 L726.6,28.4 L726.6,35.3 L715.2,35.3 L715.2,57.9 C715.2,62.7 716.5,65.5 720.8,65.5 C723.6,65.5 725.3,64.5 726.6,63 L729.2,69.6 C727.4,71.5 724,72.7 719.2,72.7 C710.4,72.7 706.8,68 706.8,59.7 Z" id="Shape"></path>
                <path d="M733.8,50.8 C733.8,37.2 742,27.5 755.2,27.5 C768.6,27.5 774.7,37.4 774.7,49.5 C774.7,50.5 774.6,51.6 774.4,52.6 L742.4,52.6 C742.8,60.3 748.1,65.6 756,65.6 C762.1,65.6 766.2,63.2 768.3,61 L772.7,67 C769.4,69.9 763.5,72.7 755.1,72.7 C741.7,72.7 733.8,63.6 733.8,50.8 Z M742.6,46.5 L766.3,46.5 C765.7,39.4 761.9,34.1 754.8,34.1 C747.5,34.1 743.4,39.7 742.6,46.5 Z" id="Shape"></path>
                <polygon id="Shape" points="784.9 1.6 793.2 1.6 793.2 71.7 784.9 71.7"></polygon>
                <polygon id="Shape" points="807.5 1.6 815.8 1.6 815.8 71.7 807.5 71.7"></polygon>
                <path d="M828.7,12.5 C828.7,9.3 831.3,7 834.3,7 C837.4,7 839.9,9.2 839.9,12.5 C839.9,15.8 837.3,18.1 834.3,18.1 C831.3,18 828.7,15.8 828.7,12.5 Z M830.1,28.4 L838.4,28.4 L838.4,71.7 L830.1,71.7 L830.1,28.4 Z" id="Shape"></path>
                <path d="M887.3,19 C889.6,19 891.5,19.7 892.9,20.6 L890.4,27.6 C889.7,27 888.5,26.5 887.2,26.5 C883.9,26.5 881.9,28.4 881.3,31.1 C885.2,34.1 887.7,38.3 887.7,43.6 C887.7,53.5 879.2,59.8 868.9,59.8 C866.4,59.8 863.8,59.4 861.5,58.6 C859.8,60 858.7,61.4 858.7,63.2 C858.7,66 861.7,66.7 865.9,66.7 L877,66.7 C887.9,66.7 893.2,71 893.2,78.2 C893.2,86.6 885.3,92.6 868.2,92.6 C855.1,92.6 846.2,89.1 846.2,81.6 C846.2,76.3 850.6,72.9 854.7,71.4 L854.7,71.1 C854.5,70.9 851.6,69.8 851.6,65.8 C851.6,62.1 853.2,58.9 857.2,56.5 C852.8,53.7 850.1,49.2 850.1,43.5 C850.1,33.6 858.6,27.4 868.9,27.4 C871.8,27.4 874.5,28 877.2,29 C877.1,23.5 881,19 887.3,19 Z M884.4,79.2 C884.4,75.4 881,73.8 875.5,73.8 L863.1,73.8 C856.6,73.8 854.4,76.6 854.4,79.5 C854.4,82.9 857.5,86.7 869.1,86.7 C881.3,86.8 884.4,82.7 884.4,79.2 Z M879.1,43.6 C879.1,37.9 874.7,33.6 868.7,33.6 C862.8,33.6 858.3,38 858.3,43.6 C858.3,49.3 862.7,53.6 868.7,53.6 C874.8,53.6 879.1,49.3 879.1,43.6 Z" id="Shape"></path>
                <path d="M896.1,50.8 C896.1,37.2 904.3,27.5 917.5,27.5 C930.9,27.5 937,37.4 937,49.5 C937,50.5 936.9,51.6 936.7,52.6 L904.7,52.6 C905.1,60.3 910.4,65.6 918.3,65.6 C924.4,65.6 928.5,63.2 930.6,61 L935,67 C931.7,69.9 925.8,72.7 917.4,72.7 C903.9,72.7 896.1,63.6 896.1,50.8 Z M904.9,46.5 L928.6,46.5 C928,39.4 924.2,34.1 917.1,34.1 C909.8,34.1 905.7,39.7 904.9,46.5 Z" id="Shape"></path>
                <path d="M947.2,28.4 L955.2,28.4 L955.2,34.7 C958.1,30.2 963.1,27.5 969.6,27.5 C980.5,27.5 985.4,34.6 985.4,45.1 L985.4,71.8 L977.1,71.8 L977.1,47.3 C977.1,40.3 974.5,34.9 966.9,34.9 C958.9,34.9 955.5,40.9 955.5,48.2 L955.5,71.8 L947.2,71.8 L947.2,28.4 Z" id="Shape"></path>
                <path d="M995.5,50.1 C995.5,35.5 1005,27.5 1016.5,27.5 C1024.7,27.5 1029.9,30.9 1032.6,36.1 L1027.3,40.7 C1024.7,36.3 1020.7,34.3 1016,34.3 C1010,34.3 1004.2,38.9 1004.2,50 C1004.2,60.7 1010,65.6 1017.2,65.6 C1022.4,65.6 1026.4,63.2 1027.8,61.3 L1032.2,66.9 C1029.2,69.8 1024,72.7 1016.4,72.7 C1003.7,72.7 995.5,63.1 995.5,50.1 Z" id="Shape"></path>
                <path d="M1037.6,50.8 C1037.6,37.2 1045.8,27.5 1059,27.5 C1072.4,27.5 1078.5,37.4 1078.5,49.5 C1078.5,50.5 1078.4,51.6 1078.2,52.6 L1046.2,52.6 C1046.6,60.3 1051.9,65.6 1059.8,65.6 C1065.9,65.6 1070,63.2 1072.1,61 L1076.5,67 C1073.2,69.9 1067.3,72.7 1058.9,72.7 C1045.5,72.7 1037.6,63.6 1037.6,50.8 Z M1046.4,46.5 L1070.1,46.5 C1069.5,39.4 1065.7,34.1 1058.6,34.1 C1051.3,34.1 1047.2,39.7 1046.4,46.5 Z" id="Shape"></path>
            </g>
        </g>
    </g>
</svg>