<?xml version="1.0" encoding="UTF-8"?>
<svg width="67px" height="51px" viewBox="0 0 67 51" version="1.1" xmlns="http://www.w3.org/2000/svg" xmlns:xlink="http://www.w3.org/1999/xlink">
    <!-- Generator: Sketch 43.1 (39012) - http://www.bohemiancoding.com/sketch -->
    <title>viral-video</title>
    <desc>Created with Sketch.</desc>
    <defs>
        <linearGradient x1="30.2694515%" y1="30.2694515%" x2="100%" y2="100%" id="linearGradient-1">
            <stop stop-color="#5BCEE0" offset="0%"></stop>
            <stop stop-color="#AAFFA4" offset="100%"></stop>
        </linearGradient>
    </defs>
    <g id="Page-1" stroke="none" stroke-width="1" fill="none" fill-rule="evenodd">
        <g id="Artboard-Copy" transform="translate(-1394.000000, -870.000000)" fill-rule="nonzero" fill="url(#linearGradient-1)">
            <path d="M1431.07012,883.566798 C1430.71707,883.921156 1430.39216,884.354241 1430.15665,884.805335 C1428.69805,881.870737 1425.63341,879.841797 1422.10307,879.841797 C1417.16805,879.841797 1413.14303,883.806536 1413.14303,888.667649 C1413.14303,893.528763 1417.16805,897.493501 1422.10307,897.493501 C1426.29587,897.493501 1429.83181,894.631666 1430.80057,890.789702 C1431.09003,891.192129 1431.42038,891.568897 1431.79162,891.915264 L1431.89163,892.007327 C1430.48168,895.995984 1426.62173,898.87254 1422.10307,898.87254 C1416.39804,898.87254 1411.74302,894.287234 1411.74302,888.667649 C1411.74302,883.048064 1416.39804,878.462758 1422.10307,878.462758 C1425.92419,878.462758 1429.27427,880.519763 1431.07012,883.566798 Z M1457.5,870.5 C1459,870.5 1460.3,871.7 1460.4,873.2 L1460.4,910.5 C1460.4,912.1 1459.1,913.3 1457.6,913.3 L1435.9,913.3 L1439.7,919 L1443.7,919 L1443.7,920.5 L1440.7,920.5 L1414.4,920.5 L1411.4,920.5 L1411.4,919 L1415.4,919 L1419.2,913.5 L1397.5,913.5 C1395.9,913.5 1394.7,912.2 1394.7,910.7 L1394.7,873.3 C1394.7,871.7 1396,870.5 1397.5,870.5 L1457.5,870.5 Z M1458.8,910.6 L1458.8,873.3 C1458.8,872.6 1458.2,872 1457.5,872 L1397.5,872 C1396.8,872 1396.3,872.5 1396.2,873.2 L1396.2,910.6 C1396.2,911.3 1396.8,911.9 1397.5,911.9 L1420.2,911.9 L1434.8,911.9 L1457.5,911.9 C1458.2,911.9 1458.8,911.3 1458.8,910.6 Z M1437.8,919 L1434,913.3 L1421,913.3 L1417.2,919 L1437.8,919 Z M1438.4,907.2 L1456.5,907.2 L1456.5,908.7 L1438.4,908.7 L1438.4,907.2 Z M1398.5,907.2 L1434.7,907.2 L1434.7,908.7 L1398.5,908.7 L1398.5,907.2 Z M1436.5,905.7 C1436.9,905.7 1437.3,906 1437.3,906.5 L1437.3,909.5 C1437.3,910 1436.9,910.3 1436.5,910.3 C1436.1,910.3 1435.8,909.9 1435.8,909.5 L1435.8,906.5 C1435.8,906 1436.1,905.7 1436.5,905.7 Z M1418.7081,883.383691 L1428.4081,888.283691 L1418.7081,893.283691 L1418.7081,883.383691 Z M1420.2081,885.883691 L1420.2081,890.883691 L1425.1081,888.383691 L1420.2081,885.883691 Z M1445.66732,885.823018 C1445.43722,885.290805 1445.13044,884.834623 1444.74695,884.454471 C1444.36347,884.074319 1443.86494,883.732182 1443.3664,883.542106 C1442.29265,883.085924 1441.06549,883.085924 1439.99174,883.542106 C1439.49321,883.770197 1438.99468,884.074319 1438.61119,884.454471 C1438.22771,884.074319 1437.72917,883.732182 1437.23064,883.542106 C1436.15689,883.085924 1434.92973,883.085924 1433.85598,883.542106 C1433.3191,883.770197 1432.85891,884.074319 1432.47543,884.454471 C1432.09194,884.834623 1431.74681,885.32882 1431.55507,885.823018 C1431.32497,886.355231 1431.20993,886.925459 1431.20993,887.495687 C1431.20993,888.065915 1431.32497,888.636143 1431.55507,889.168356 C1431.55507,889.168356 1431.55507,889.168356 1431.55507,889.206371 C1431.9002,890.00469 1432.39873,890.726979 1433.05066,891.335222 L1433.58754,891.82942 C1434.46955,892.665754 1435.46661,893.464073 1436.50202,894.148347 L1438.22771,895.288803 C1438.34275,895.364833 1438.49614,895.402848 1438.64954,895.402848 C1438.76458,895.402848 1438.91798,895.364833 1439.03302,895.288803 L1439.83834,894.83262 C1441.52568,893.844225 1443.05962,892.665754 1444.40181,891.259192 C1444.93869,890.688964 1445.36053,890.08072 1445.66732,889.396447 L1445.74401,889.206371 C1445.9741,888.674158 1446.08915,888.10393 1446.08915,887.533702 C1446.01245,886.925459 1445.89741,886.355231 1445.66732,885.823018 Z M1444.24842,888.598128 L1444.17172,888.750188 C1443.94163,889.282401 1443.5965,889.776599 1443.21301,890.194766 C1441.98586,891.487283 1440.52862,892.627739 1438.99468,893.502088 L1438.61119,893.73018 L1437.26899,892.85583 C1436.31028,892.247587 1435.38992,891.525298 1434.5846,890.726979 L1434.04772,890.232781 C1433.54919,889.776599 1433.1657,889.206371 1432.89726,888.598128 C1432.74387,888.255991 1432.66717,887.875839 1432.66717,887.533702 C1432.66717,887.15355 1432.74387,886.773398 1432.89726,886.431261 C1433.05066,886.089124 1433.2424,885.785003 1433.51084,885.556912 C1433.77928,885.290805 1434.08607,885.100729 1434.39285,884.948668 C1435.08313,884.644547 1435.88845,884.644547 1436.57872,884.948668 C1436.92386,885.100729 1437.23064,885.290805 1437.46074,885.556912 C1437.53743,885.632942 1437.61413,885.746988 1437.69083,885.823018 C1437.76752,885.899048 1437.84422,886.013094 1437.88257,886.12714 C1438.03596,886.355231 1438.26605,886.507292 1438.53449,886.507292 C1438.80293,886.507292 1439.07137,886.355231 1439.18642,886.12714 C1439.26311,886.013094 1439.30146,885.937064 1439.37816,885.823018 C1439.45486,885.746988 1439.53155,885.632942 1439.60825,885.556912 C1439.87669,885.290805 1440.18348,885.100729 1440.49027,884.948668 C1441.18054,884.644547 1441.98586,884.644547 1442.67613,884.948668 C1443.02127,885.100729 1443.32806,885.290805 1443.55815,885.556912 C1443.82659,885.823018 1444.01833,886.12714 1444.17172,886.431261 C1444.32512,886.773398 1444.40181,887.15355 1444.40181,887.533702 C1444.47851,887.875839 1444.40181,888.255991 1444.24842,888.598128 Z" id="viral-video"></path>
        </g>
    </g>
</svg>