<?xml version="1.0" encoding="UTF-8"?>
<svg width="44px" height="44px" viewBox="0 0 44 44" version="1.1" xmlns="http://www.w3.org/2000/svg" xmlns:xlink="http://www.w3.org/1999/xlink">
    <!-- Generator: Sketch 43.1 (39012) - http://www.bohemiancoding.com/sketch -->
    <title>Whatisit</title>
    <desc>Created with Sketch.</desc>
    <defs></defs>
    <g id="Page-1" stroke="none" stroke-width="1" fill="none" fill-rule="evenodd">
        <path d="M22,0 C9.9,0 0,9.9 0,22 C0,34.1 9.9,44 22,44 C34.1,44 44,34.1 44,22 C44,9.9 34.1,0 22,0 Z M21.9390645,42.5334127 C10.6640645,42.5334127 1.43906449,33.3084127 1.43906449,22.0334127 C1.43906449,10.7584127 10.6640645,1.53341269 21.9390645,1.53341269 C33.2140645,1.53341269 42.4390645,10.7584127 42.4390645,22.0334127 C42.4390645,33.3084127 33.2140645,42.5334127 21.9390645,42.5334127 Z M22,6 C13.2,6 6,13.2 6,22 C6,30.8 13.2,38 22,38 C30.8,38 38,30.8 38,22 C38,13.2 30.8,6 22,6 Z M22.0118301,36.6140197 C14.0368301,36.6140197 7.51183014,30.0890197 7.51183014,22.1140197 C7.51183014,14.1390197 14.0368301,7.61401965 22.0118301,7.61401965 C29.9868301,7.61401965 36.5118301,14.1390197 36.5118301,22.1140197 C36.5118301,30.0890197 29.9868301,36.6140197 22.0118301,36.6140197 Z M24,30 C24,31.1 23.1,32 22,32 C20.9,32 20,31.1 20,30 C20,28.9 20.9,28 22,28 C23.1,28 24,28.9 24,30 Z M28,18 C28,21 25.8,23.4 23,23.9 L23,25 C23,25.6 22.6,26 22,26 C21.4,26 21,25.6 21,25 L21,23 C21,22.4 21.4,22 22,22 C24.2,22 26,20.2 26,18 C26,15.8 24.2,14 22,14 C19.8,14 18,15.8 18,18 C18,18.6 17.6,19 17,19 C16.4,19 16,18.6 16,18 C16,14.7 18.7,12 22,12 C25.3,12 28,14.7 28,18 Z" id="Whatisit" fill="#5BCEE0" fill-rule="nonzero"></path>
    </g>
</svg>