<?xml version="1.0" encoding="UTF-8"?>
<svg width="80px" height="88px" viewBox="0 0 80 88" version="1.1" xmlns="http://www.w3.org/2000/svg" xmlns:xlink="http://www.w3.org/1999/xlink">
    <!-- Generator: Sketch 47.1 (45422) - http://www.bohemiancoding.com/sketch -->
    <title>wishlist</title>
    <desc>Created with Sketch.</desc>
    <defs></defs>
    <g id="Page-1" stroke="none" stroke-width="1" fill="none" fill-rule="evenodd">
        <g id="Group" transform="translate(-319.000000, -112.000000)" fill-rule="nonzero" fill="#55CEE2">
            <path d="M346,160 L334.6,151.7 L348.7,151.7 L353,138.4 L357.3,151.8 L371.4,151.8 L360,160 L364.3,173.4 L353,165.1 L341.6,173.4 L346,160 Z M393.1,199.2 L392.8,199.2 L330.8,199.2 L330.8,199.1 L330.5,199.1 C330.4,199.1 330.4,199.1 330.3,199.1 C329,199.1 327.8,198.5 326.7,197.4 C316.2,186.7 319.8,117.1 320,114.1 L320,112.8 L385.6,112.8 L385.5,114.3 C385.5,114.8 383,162.7 387.6,185.4 L398.5,185.4 L398.6,186.7 C398.7,187.1 399.4,198 393.1,199.2 Z M333.8,186.8 L333.7,185.3 L384.8,185.4 C380.7,164.2 382.3,124 382.7,115.6 L322.7,115.6 C321.7,136.4 320.9,187.5 328.8,195.6 C329.3,196.2 329.9,196.4 330.5,196.4 L330.5,196.4 C333.6,195.7 333.9,189.1 333.8,186.8 Z M395.9,188.2 L336.6,188.1 C336.6,190.2 336.3,193.9 334.7,196.5 L392.7,196.5 C395.3,195.8 395.9,191 395.9,188.2 Z M353.1,129.4 C355.2,129.4 356.9,127.7 356.9,125.6 C356.9,123.5 355.2,121.8 353.1,121.8 C351,121.8 349.3,123.5 349.3,125.6 C349.3,127.7 350.9,129.4 353.1,129.4 Z" id="wishlist"></path>
        </g>
    </g>
</svg>