<?xml version="1.0" encoding="UTF-8"?>
<svg width="75px" height="78px" viewBox="0 0 75 78" version="1.1" xmlns="http://www.w3.org/2000/svg" xmlns:xlink="http://www.w3.org/1999/xlink">
    <!-- Generator: Sketch 43.1 (39012) - http://www.bohemiancoding.com/sketch -->
    <title>xray</title>
    <desc>Created with Sketch.</desc>
    <defs></defs>
    <g id="Page-1" stroke="none" stroke-width="1" fill="none" fill-rule="evenodd">
        <path d="M-2,1 L77,1 L77,76 L-2,76 L-2,1 Z M77,1.00299632 L38.5279144,1.00299632 L38.5279144,12.1712965 L51.2642913,12.1712965 C51.8320347,12.1712965 52.2902136,12.6327305 52.2902136,13.2000346 C52.2902136,13.7683375 51.8320347,14.2287727 51.2642913,14.2287727 L38.5279144,14.2287727 L38.5279144,20.2224205 L54.896853,20.2224205 C55.4645964,20.2224205 55.9227753,20.6828557 55.9227753,21.2511586 C55.9227753,21.8194615 55.4645964,22.2798967 54.896853,22.2798967 L38.5279144,22.2798967 L38.5279144,28.2715469 L57.1897395,28.2715469 C57.7564869,28.2715469 58.2156618,28.7319821 58.2156618,29.300285 C58.2156618,29.8675891 57.7564869,30.3290231 57.1897395,30.3290231 L38.5279144,30.3290231 L38.5279144,36.3226709 L60.6310614,36.3226709 C61.1968127,36.3226709 61.6569836,36.7831061 61.6569836,37.3514089 C61.6569836,37.9197118 61.1968127,38.380147 60.6310614,38.380147 L38.5279144,38.380147 L38.5279144,44.3737948 L60.6310614,44.3737948 C61.1968127,44.3737948 61.6569836,44.83423 61.6569836,45.4025329 C61.6569836,45.969837 61.1968127,46.4302722 60.6310614,46.4302722 L38.5279144,46.4302722 L38.5279144,52.4219224 L59.1031344,52.4219224 C59.6688857,52.4219224 60.1280606,52.8833564 60.1280606,53.4506605 C60.1280606,54.0199622 59.6688857,54.4793986 59.1031344,54.4793986 L38.5279144,54.4793986 L38.5279144,60.4730464 L59.1031344,60.4730464 C59.6688857,60.4730464 60.1280606,60.9344804 60.1280606,61.5017845 C60.1280606,65.6087466 56.7953073,68.9526448 52.6985904,68.9526448 C48.9484959,68.9526448 45.8398517,66.1540777 45.3398391,62.5305226 L38.5269183,62.5305226 L38.5269183,70.2230863 C38.5269183,70.7913892 38.0667474,71.2518244 37.500996,71.2518244 C36.9352447,71.2518244 36.4750738,70.7913892 36.4750738,70.2230863 L36.4750738,62.5305226 L29.663149,62.5305226 C29.1621404,66.1540777 26.0534962,68.9526448 22.3043977,68.9526448 C18.2066848,68.9526448 14.8739315,65.6087466 14.8739315,61.5017845 C14.8739315,60.9344804 15.3331064,60.4730464 15.8998537,60.4730464 L36.4740777,60.4730464 L36.4740777,54.4764023 L15.8998537,54.4764023 C15.3331064,54.4764023 14.8739315,54.0169659 14.8739315,53.4476642 C14.8739315,52.8803601 15.3331064,52.4189261 15.8998537,52.4189261 L36.4740777,52.4189261 L36.4740777,46.4272759 L14.3709307,46.4272759 C13.8051794,46.4272759 13.3450084,45.9668407 13.3450084,45.3995366 C13.3450084,44.8312337 13.8051794,44.3707985 14.3709307,44.3707985 L36.4740777,44.3707985 L36.4740777,38.3771507 L14.3709307,38.3771507 C13.8051794,38.3771507 13.3450084,37.9157167 13.3450084,37.3484126 C13.3450084,36.7801097 13.8051794,36.3196745 14.3709307,36.3196745 L36.4740777,36.3196745 L36.4740777,30.3260267 L17.8122526,30.3260267 C17.2465012,30.3260267 16.7863303,29.8645928 16.7863303,29.2972887 C16.7863303,28.7289858 17.2465012,28.2685506 17.8122526,28.2685506 L36.4740777,28.2685506 L36.4740777,22.2769003 L20.1051391,22.2769003 C19.5373957,22.2769003 19.0802128,21.8154664 19.0802128,21.2481623 C19.0802128,20.6798594 19.5373957,20.2194242 20.1051391,20.2194242 L36.4740777,20.2194242 L36.4740777,14.2257764 L23.7377008,14.2257764 C23.1699574,14.2257764 22.7127745,13.7653412 22.7127745,13.1970383 C22.7127745,12.6297342 23.1699574,12.1683002 23.7377008,12.1683002 L36.4740777,12.1683002 L36.4740777,1 L-2,1.00299632 L-2,76 L77,76 L77,1.00299632 Z M2.59689707,7.34460762 L2.59689707,70.3545763 C2.59689707,73.1082523 4.84012249,75.349592 7.60203276,75.349592 L67.2917614,75.349592 C70.0618858,75.349592 72.2968971,73.1161057 72.2968971,70.3545763 L72.2968971,7.34460762 C72.2968971,4.59093159 70.0536717,2.34959196 67.2917614,2.34959196 L7.60203276,2.34959196 C4.83190829,2.34959196 2.59689707,4.58307819 2.59689707,7.34460762 Z M0.59689707,7.34460762 C0.59689707,3.47820299 3.72764427,0.349591961 7.60203276,0.349591961 L67.2917614,0.349591961 C71.1578648,0.349591961 74.2968971,3.48598538 74.2968971,7.34460762 L74.2968971,70.3545763 C74.2968971,74.2209809 71.1661499,77.349592 67.2917614,77.349592 L7.60203276,77.349592 C3.73592934,77.349592 0.59689707,74.2131985 0.59689707,70.3545763 L0.59689707,7.34460762 Z M57.9766119,62.5305226 L57.9766119,62.5305226 L47.4175808,62.5305226 C47.8976725,65.0134768 50.0829866,66.8941698 52.6975944,66.8941698 C55.3112061,66.8941698 57.4975162,65.0134768 57.9766119,62.5305226 Z M27.5834153,62.5305226 L27.5834153,62.5305226 L17.0233881,62.5305226 C17.5034798,65.0134768 19.6887939,66.8941698 22.3034017,66.8941698 C24.9170134,66.8941698 27.1033235,65.0134768 27.5834153,62.5305226 Z" id="xray" fill="#5BCEE0" fill-rule="nonzero"></path>
    </g>
</svg>