<?xml version="1.0" encoding="utf-8"?>
<!-- Generator: Adobe Illustrator 19.0.0, SVG Export Plug-In . SVG Version: 6.00 Build 0)  -->
<svg version="1.1" xmlns="http://www.w3.org/2000/svg" xmlns:xlink="http://www.w3.org/1999/xlink" x="0px" y="0px"
	 viewBox="-35 37 128 128" style="enable-background:new -35 37 128 128;" xml:space="preserve">
<style type="text/css">
	.st0{fill:#FFFFFF;}
	.st1{fill:#37474F;}
	.st2{fill:#FFAB00;}
	.st3{fill:#FFECB3;}
	.st4{fill:none;stroke:#37474F;stroke-width:3;stroke-linecap:round;stroke-miterlimit:10;}
	.st5{fill:#B0BEC5;}
</style>
<g id="Layer_5">
	<g id="Layer_1_5_">
		<g id="Layer_1_6_">
			<g>
				<g>
					<g>
						<polygon class="st0" points="49.5,41.8 -22,41.8 -22,154.2 63.5,154.2 63.5,56.1 						"/>
						<path class="st1" d="M65.3,156h-89.2V40h74.1l15,15.3L65.3,156L65.3,156z M-20.2,152.4h81.8V56.8L48.8,43.7h-69
							C-20.2,43.7-20.2,152.4-20.2,152.4z"/>
					</g>
					<g>
						<polyline class="st2" points="62.9,57.7 46.4,57.7 46.4,42.4 						"/>
						<path class="st1" d="M62.9,59.5H46.4c-1,0-1.8-0.9-1.8-1.8V42.4c0-1,0.9-1.8,1.8-1.8s1.8,0.9,1.8,1.8v13.4h14.7
							c1,0,1.8,0.9,1.8,1.8C64.7,58.7,63.8,59.5,62.9,59.5z"/>
					</g>
				</g>
			</g>
		</g>
	</g>
	<g id="Layer_2_2_">
		<g>
			<g>
				<g>
					<path class="st2" d="M5.3,99.5H5.1c-10.2,0-18.4,8.1-18.4,18.3c0,10.1,8.2,18.3,18.3,18.3c10.2,0,18.4-8.2,18.4-18.3
						c0-0.2-0.1-0.5-0.1-0.5h-18V99.5z"/>
					<path class="st1" d="M5,137c-10.6,0-19.2-8.6-19.2-19.2C-14.3,107.2-5.6,98.6,5,98.6h0.2c0.5,0,0.9,0.4,0.9,0.9v16.8h17.1
						c0.9,0,0.9,1.1,0.9,1.4C24.2,128.3,15.6,137,5,137z M4.4,100.4c-9.3,0.4-16.8,8-16.8,17.4c0,9.6,7.8,17.4,17.4,17.4
						c9.5,0,17.2-7.6,17.5-17.1H5.3c-0.5,0-0.9-0.4-0.9-0.9C4.4,117.2,4.4,100.4,4.4,100.4z"/>
				</g>
				<g>
					<path class="st3" d="M29.4,92.4H5.3v7c9.4,0,17.8,7.8,18,17.8h6.2L29.4,92.4L29.4,92.4z"/>
					<path class="st1" d="M29.4,118.1h-6.2c-0.5,0-0.9-0.4-0.9-0.9c-0.2-9.3-8-16.9-17.1-16.9c-0.5,0-0.9-0.4-0.9-0.9v-7
						c0-0.5,0.4-0.9,0.9-0.9h24.2c0.5,0,0.9,0.4,0.9,0.9v24.8C30.3,117.7,29.9,118.1,29.4,118.1z M24.1,116.3h4.4v-23H6.1v5.2
						C15.6,99,23.4,106.7,24.1,116.3z"/>
				</g>
			</g>
			<g>
				<g>
					<g>
						<g>
							<path class="st1" d="M56.9,108H36.2c-0.5,0-0.9-0.4-0.9-0.9s0.4-0.9,0.9-0.9h20.7c0.5,0,0.9,0.4,0.9,0.9S57.4,108,56.9,108z"
								/>
						</g>
					</g>
					<g>
						<g>
							<path class="st4" d="M56.8,110.6"/>
						</g>
						<g>
							<path class="st4" d="M36.5,110.6"/>
						</g>
					</g>
					<g>
						<g>
							<path class="st1" d="M56.9,115.1H36.2c-0.5,0-0.9-0.4-0.9-0.9s0.4-0.9,0.9-0.9h20.7c0.5,0,0.9,0.4,0.9,0.9
								S57.4,115.1,56.9,115.1z"/>
						</g>
					</g>
					<g>
						<g>
							<path class="st4" d="M36.5,117.5"/>
						</g>
					</g>
				</g>
				<g>
					<g>
						<g>
							<path class="st1" d="M56.9,93.9H36.2c-0.5,0-0.9-0.4-0.9-0.9s0.4-0.9,0.9-0.9h20.7c0.5,0,0.9,0.4,0.9,0.9
								S57.4,93.9,56.9,93.9z"/>
						</g>
					</g>
					<g>
						<g>
							<path class="st4" d="M56.8,96.4"/>
						</g>
						<g>
							<path class="st4" d="M36.5,96.4"/>
						</g>
					</g>
					<g>
						<g>
							<path class="st1" d="M56.9,100.4H36.2c-0.5,0-0.9-0.4-0.9-0.9s0.4-0.9,0.9-0.9h20.7c0.5,0,0.9,0.4,0.9,0.9
								S57.4,100.4,56.9,100.4z"/>
						</g>
					</g>
					<g>
						<g>
							<path class="st4" d="M56.8,103.3"/>
						</g>
						<g>
							<path class="st4" d="M36.5,103.3"/>
						</g>
					</g>
				</g>
			</g>
			<g>
				<g>
					<path class="st1" d="M46.6,124.5c0-0.6,0.5-1.1,1.1-1.1s1.1,0.5,1.1,1.1c0,0.6-0.5,1.1-1.1,1.1C47,125.5,46.6,125,46.6,124.5z"
						/>
					<path class="st1" d="M47.6,125.8c-0.8,0-1.4-0.6-1.4-1.4s0.6-1.4,1.4-1.4c0.8,0,1.4,0.6,1.4,1.4
						C49,125.2,48.3,125.8,47.6,125.8z M47.6,123.7c-0.4,0-0.8,0.4-0.8,0.8s0.4,0.8,0.8,0.8c0.4,0,0.8-0.4,0.8-0.8
						C48.4,124,48,123.7,47.6,123.7z"/>
				</g>
				<g>
					<path class="st1" d="M39.1,124.5c0-0.6,0.5-1.1,1.1-1.1s1.1,0.5,1.1,1.1c0,0.6-0.5,1.1-1.1,1.1C39.6,125.5,39.1,125,39.1,124.5
						z"/>
					<path class="st1" d="M40.2,125.8c-0.8,0-1.4-0.6-1.4-1.4s0.6-1.4,1.4-1.4c0.8,0,1.4,0.6,1.4,1.4
						C41.5,125.2,41,125.8,40.2,125.8z M40.2,123.7c-0.4,0-0.8,0.4-0.8,0.8s0.4,0.8,0.8,0.8s0.8-0.4,0.8-0.8
						C41,124,40.6,123.7,40.2,123.7z"/>
				</g>
				<g>
					<path class="st1" d="M31.8,124.5c0-0.6,0.5-1.1,1.1-1.1s1.1,0.5,1.1,1.1c0,0.6-0.5,1.1-1.1,1.1C32.2,125.5,31.8,125,31.8,124.5
						z"/>
					<path class="st1" d="M32.8,125.8c-0.8,0-1.4-0.6-1.4-1.4s0.6-1.4,1.4-1.4c0.8,0,1.4,0.6,1.4,1.4
						C34.2,125.2,33.5,125.8,32.8,125.8z M32.8,123.7c-0.4,0-0.8,0.4-0.8,0.8s0.4,0.8,0.8,0.8c0.4,0,0.8-0.4,0.8-0.8
						C33.6,124,33.2,123.7,32.8,123.7z"/>
				</g>
			</g>
			<g>
				<polyline class="st5" points="-15.5,99.7 5.5,78.7 13.2,86.4 34.6,65 				"/>
				<path class="st1" d="M-15.5,100.6c-0.2,0-0.5-0.1-0.6-0.2c-0.4-0.4-0.4-0.9,0-1.2l21-20.9c0.4-0.4,0.9-0.4,1.2,0l7.1,7.1
					L34,64.6c0.4-0.4,0.9-0.4,1.2,0c0.4,0.4,0.4,0.9,0,1.2L13.9,87c-0.4,0.4-0.9,0.4-1.2,0l-7.2-7l-20.4,20.4
					C-15,100.5-15.2,100.6-15.5,100.6z"/>
			</g>
		</g>
	</g>
</g>
<g id="Layer_3">
	<g id="Layer_1_3_">
		<g id="Layer_1_4_">
			<g>
				<g>
					<g>
						<polygon class="st0" points="66.2,48.5 -4.8,48.5 -4.8,160.3 80.1,160.3 80.1,62.8 						"/>
						<path class="st1" d="M81.9,162H-6.7V46.8h73.6L81.8,62L81.9,162L81.9,162z M-3,158.5h81.3v-95L65.5,50.4H-3V158.5z"/>
					</g>
					<g>
						<polyline class="st2" points="79.5,64.4 63.1,64.4 63.1,49.1 						"/>
						<path class="st1" d="M79.5,66.1H63.1c-1,0-1.8-0.9-1.8-1.8V49.1c0-1,0.9-1.8,1.8-1.8c0.9,0,1.8,0.9,1.8,1.8v13.3h14.6
							c1,0,1.8,0.9,1.8,1.8C81.3,65.3,80.4,66.1,79.5,66.1z"/>
					</g>
					<g>
						<g>
							<g>
								<g>
									<path class="st1" d="M67.3,83.1H7.9c-1,0-1.8-0.9-1.8-1.8c0-1,0.9-1.8,1.8-1.8h59.4c1,0,1.8,0.9,1.8,1.8
										C69.2,82.3,68.3,83.1,67.3,83.1z"/>
								</g>
							</g>
							<g>
								<g>
									<path class="st1" d="M67.3,91.7H7.9c-1,0-1.8-0.9-1.8-1.8s0.9-1.8,1.8-1.8h59.4c1,0,1.8,0.9,1.8,1.8
										C69.1,90.8,68.3,91.7,67.3,91.7z"/>
								</g>
							</g>
							<g>
								<g>
									<path class="st1" d="M67.3,100.1H7.9c-1,0-1.8-0.9-1.8-1.8c0-1,0.9-1.8,1.8-1.8h59.4c1,0,1.8,0.9,1.8,1.8
										C69.2,99.3,68.3,100.1,67.3,100.1z"/>
								</g>
							</g>
							<g>
								<g>
									<path class="st1" d="M67.3,108.7H7.9c-1,0-1.8-0.9-1.8-1.8s0.9-1.8,1.8-1.8h59.4c1,0,1.8,0.9,1.8,1.8
										C69.1,107.8,68.3,108.7,67.3,108.7z"/>
								</g>
							</g>
						</g>
					</g>
				</g>
				<g>
					<g>
						<path class="st1" d="M14.5,64.9c0,1-0.7,1.7-1.7,1.7s-1.7-0.7-1.7-1.7s0.7-1.7,1.7-1.7C13.7,63.3,14.5,64,14.5,64.9z"/>
						<path class="st1" d="M12.9,67.2c-1.3,0-2.3-1.1-2.3-2.3c0-1.3,1.1-2.3,2.3-2.3c1.3,0,2.3,1.1,2.3,2.3
							C15.1,66.3,14,67.2,12.9,67.2z M12.9,63.9c-0.6,0-1.1,0.5-1.1,1.1s0.5,1.1,1.1,1.1S14,65.6,14,65S13.5,63.9,12.9,63.9z"/>
					</g>
					<g>
						<path class="st1" d="M26.7,64.9c0,1-0.7,1.7-1.7,1.7s-1.7-0.7-1.7-1.7s0.7-1.7,1.7-1.7C25.9,63.3,26.7,64,26.7,64.9z"/>
						<path class="st1" d="M24.9,67.2c-1.3,0-2.3-1.1-2.3-2.3c0-1.3,1.1-2.3,2.3-2.3c1.3,0,2.3,1.1,2.3,2.3
							C27.3,66.3,26.2,67.2,24.9,67.2z M24.9,63.9c-0.6,0-1.1,0.5-1.1,1.1s0.5,1.1,1.1,1.1S26,65.6,26,65
							C26.1,64.4,25.5,63.9,24.9,63.9z"/>
					</g>
					<g>
						<path class="st1" d="M38.7,64.9c0,1-0.7,1.7-1.7,1.7s-1.7-0.7-1.7-1.7s0.7-1.7,1.7-1.7C38,63.3,38.7,64,38.7,64.9z"/>
						<path class="st1" d="M37,67.2c-1.3,0-2.3-1.1-2.3-2.3c0-1.3,1.1-2.3,2.3-2.3s2.3,1.1,2.3,2.3C39.3,66.3,38.4,67.2,37,67.2z
							 M37,63.9c-0.6,0-1.1,0.5-1.1,1.1s0.5,1.1,1.1,1.1s1.1-0.5,1.1-1.1S37.6,63.9,37,63.9z"/>
					</g>
				</g>
			</g>
		</g>
	</g>
</g>
<g id="Layer_2_1_">
	<path class="st5" d="M44.4,142.6c-0.4,0.1-0.6,0-0.9-0.2c-0.3-0.2-0.6-0.5-1-0.1c-0.1,0.1-0.3,0.1-0.5,0c-0.7-0.4-1.4,0.2-2.1,0.1
		c-0.2,0-0.1,0.2-0.2,0.3c-0.2,0.4-0.5,0.7-0.9,0.8c-1.3,0.4-1.8,1.3-1.5,2.6c0.1,0.5,0,0.7-0.5,0.6c-0.8-0.2-1.4-0.6-1.8-1.5
		c-0.4-0.9-0.9-1.7-1.5-2.5c-0.6-0.8-1.3-0.7-2,0.1c-0.2,0.2-0.4,0.3-0.6,0.1c-0.6-0.3-1-0.6-1.2-1.3c-0.3-1.2-2.2-2.4-3-1.9
		c-0.7,0.4-5.7-1.1-5.7-1.1s-1.7-0.9-2.6-0.9c-0.3,0-0.6,0-0.7-0.4c-0.3-1.2-1.3-1.7-2.3-2.3c-0.4-0.2-0.7-0.3-0.7-0.8
		c0-0.2-0.1-0.6-0.3-0.8c-0.5-0.6-0.6-1.5-0.7-2.2c0-0.7-0.6-1.1-0.6-1.7c-0.1-0.9-0.6-1.9-0.1-2.8c0.1-0.2,0.2-0.4,0.2-0.5
		c-0.3-1.8,0.9-3.2,1.2-4.8c0.2-0.8,0.1-1.5,0-2.3c0-0.2-0.1-0.3,0-0.5c0.2-0.1,0.3,0,0.4,0.1c0.4,0.2,0.9,0.2,1.1,0.7
		c0.1-0.1,0.1-0.1,0.1-0.1c0.1-1.2,0.1-1.2,1.3-0.9c6.7,1.3,13.5,1.8,20.3,1.6c0.2,0,0.5,0,0.6-0.1c0.3-0.2,0.4-0.2,0.6,0.1
		c0.1,0.3,0.5,0.3,0.7,0.3c1-0.1,1.9,0.7,2.9,0.4c0.1,0,0.3,0.1,0.3,0.1c0.1,0.2-0.1,0.2-0.2,0.3c-0.5,0.2-0.8,0.7-1.3,1.1
		c1.2,0.2,2.2-1.1,3-1c0.4,0.1,0.9,1.1,1.6,0.8c0.5-0.2,1-0.4,1.5-0.1c0.2,0.1,0.4,0.1,0.4,0.4c0,0.3-0.3,0.3-0.5,0.2
		c-0.4-0.1-0.8,0.1-1.1,0.2c-0.8,0.3-0.9,0.4-1.2,1.3c0.2,0.1,0.2-0.2,0.4-0.2c-0.2,1-0.5,1.9-0.2,2.9c0.1,0.3,0.1,0.8,0.6,0.8
		c0.5,0,0.6-0.5,0.7-0.9c0.1-0.3,0-0.7-0.1-1c-0.4-0.9-0.2-1.4,0.5-2.1c0,0,0.1-0.1,0.1-0.2c0.2-0.8,0.7-0.9,1.3-0.5
		c0.6,0.4,0.6,0.9,0.3,1.5c-0.1,0.1-0.2,0.2-0.1,0.4c0,0,0.1,0,0.1,0c0.3-0.1,0.4-0.6,0.7-0.3c0.3,0.3,0.5,0.8,0.4,1.3
		c0,0.1-0.1,0.2-0.2,0.3c-0.1,0.3-0.5,0.6-0.2,0.9c0.3,0.3,0.7,0.2,1,0c0.8-0.5,1.6-0.9,2.2-1.6c0.1-0.1,0.2-0.2,0.2-0.3
		c-0.2-0.9,0.5-0.8,1-0.8c0.7,0,1.1-0.3,1.1-1.1c0-0.6,0.4-1.2,1.1-1.4c0.6-0.2,1.3-0.3,1.9-0.5c0.9-0.2,1.3-0.7,1.3-1.6
		c0-0.3,0.1-0.6,0.1-1c0.1-0.7,0.7-0.7,1.2-0.8c0.4-0.1,0.5,0.4,0.6,0.7c0.1,0.5,0.4,0.9,0.8,1.3c0.4,0.3,0.3,0.6-0.1,0.8
		c-0.4,0.3-0.8,0.6-1.2,1c-1,1.1-1.1,1.8-0.1,2.9c-0.8,0.4-2.3,0.7-2.5,1.3c0,0,0,0.1,0.1,0.1c0.2,0,0.4-0.1,0.6-0.1
		c0,0.1,0,0.2,0,0.2c-0.6,0.3-1.1,0.7-1,1.5c0,0.3,0,1.1-1.1,0.7c0.9,0.9,0.8,2.2,0.2,2.2c-0.5,0-0.7,0.3,0.1,0.9
		c0.1,0.1,0.1,0.4,0,0.5c-0.2,0.3-0.1,0.4,0.2,0.4c0.1,0,0.2,0.1,0.2,0.1c-0.5,0.3-0.4,1-0.7,1.3c-0.7,0.7-1.4,1.3-1.9,2.1
		c-0.2,0.3-0.4,0.6-0.7,0.9c-1.1,1-1.3,2-0.7,3.4c0.5,1,1,1.9,1.6,2.9c0.4,0.6,0.4,1.3,0.3,2c-0.1,0.3-0.2,0.4-0.4,0.5
		c-0.3,0.1-0.4-0.1-0.5-0.3c-0.5-0.5-1-1-1.5-1.5c-0.4-0.4-0.6-1-0.6-1.6c-0.1-1.1-1.3-1.9-2.3-1.3c-0.3,0.2-0.5,0.2-0.7-0.1
		c-0.5-0.4-1-0.5-1.6-0.4C46.7,141,44.8,142.4,44.4,142.6z"/>
	<path class="st5" d="M21.5,147.4c-0.8,1.8-2,2.9-4.1,3c0.4-0.2,0.7-0.4,1.1-0.6c0.3-0.1,0.5-0.3,0.8-0.4c0.2-0.2,0.6-0.4,0.5-0.7
		c-0.1-0.3-0.5-0.3-0.7-0.4c-0.4-0.1-1.3-1.2-1.3-1.7c0-0.6,0.4-0.9,1-1c0.2,0,0.4-0.1,0.4-0.3c0-0.3-0.3-0.2-0.4-0.2
		c-0.1,0-0.2,0-0.3,0c-0.4,0-0.5-0.3-0.6-0.6c-0.1-0.2,0-0.3,0.2-0.4c0.3-0.1,0.5-0.3,0.8,0c0.1,0.1,0.1,0.1,0.3,0.1
		c0-0.2,0-0.3-0.1-0.3c-0.2-0.4-0.9-0.9-0.5-1.2c0.7-0.6,1.4-1.6,2.6-1c0.5,0.3,1.1,0.3,1.7,0.3c0.6,0,0.8,0.2,0.9,0.7
		c0.2,1.3,0.5,2.6,0.8,4c0.1,0.6,1,1,1.5,0.7c0.3-0.2,0.4,0,0.6,0.1c0.6,0.4,1,1,1.7,1.3c0.2,0.1,0.4,0.5,0.2,0.6
		c-0.2,0.2-0.6,0.5-0.9,0.2c-0.4-0.4-1-0.7-1.4-1.2c-0.7-0.8-2.6-1.2-3.9-0.4c-0.2,0.1-0.3,0.3-0.5,0.2
		C21.4,147.9,21.6,147.6,21.5,147.4z"/>
	<path class="st5" d="M36.1,152.4c0.2-0.2,0-0.7,0.5-0.7c0.5,0.1,1,0.4,1,0.8c0,0.5-0.6,0.6-1,0.7C36.1,153.4,36.3,152.7,36.1,152.4
		z"/>
	<path class="st5" d="M21.3,148.5c0.2,0.5,0,0.8-0.3,1c-0.1,0.1-0.2,0-0.2-0.1C20.6,148.9,21.1,148.8,21.3,148.5z"/>
	<path class="st5" d="M35.3,150.8c0.4-0.1,0.6-0.1,0.8,0.1c0.1,0.1,0,0.2-0.1,0.3C35.6,151.3,35.5,151.1,35.3,150.8z"/>
	<path class="st5" d="M31.9,149.4c0,0.2-0.1,0.2-0.3,0.2c-0.1,0-0.3-0.1-0.3-0.2c0-0.1,0.1-0.2,0.2-0.2
		C31.7,149.1,31.9,149.2,31.9,149.4z"/>
	<path class="st5" d="M33.9,150.2c0,0.2-0.1,0.2-0.2,0.2c-0.2,0-0.3-0.1-0.3-0.3c0-0.1,0.1-0.2,0.2-0.2
		C33.7,149.9,33.8,150,33.9,150.2z"/>
</g>
</svg>
