<?xml version="1.0" encoding="utf-8"?>
<!-- Generator: Adobe Illustrator 19.0.0, SVG Export Plug-In . SVG Version: 6.00 Build 0)  -->
<svg version="1.1" id="Layer_1" xmlns="http://www.w3.org/2000/svg" xmlns:xlink="http://www.w3.org/1999/xlink" x="0px" y="0px"
	 viewBox="-35 37 128 128" style="enable-background:new -35 37 128 128;" xml:space="preserve">
<style type="text/css">
	.st0{fill:#FFFFFF;}
	.st1{fill:#37474F;}
	.st2{fill:#FFAB00;}
	.st3{fill:none;}
	.st4{fill:#78909C;}
</style>
<g id="Layer_1_2_">
	<g id="Layer_1_1_">
		<g>
			<g>
				<g>
					<polygon class="st0" points="42.5,44.8 -29,44.8 -29,157.2 56.4,157.2 56.4,59.1 					"/>
					<path class="st1" d="M58.3,159h-89.2V43h74.1l15,15.3L58.3,159L58.3,159z M-27.2,155.4h81.8V59.8L41.8,46.6h-69
						C-27.2,46.6-27.2,155.4-27.2,155.4z"/>
				</g>
				<g>
					<polyline class="st2" points="55.8,60.7 39.3,60.7 39.3,45.4 					"/>
					<path class="st1" d="M55.8,62.5H39.3c-1,0-1.8-0.9-1.8-1.8V45.4c0-1,0.9-1.8,1.8-1.8c1,0,1.8,0.9,1.8,1.8v13.4h14.7
						c1,0,1.8,0.9,1.8,1.8S56.8,62.5,55.8,62.5z"/>
				</g>
			</g>
		</g>
	</g>
</g>
<g>
	<g>
		<rect x="-14.7" y="69.6" class="st2" width="18.2" height="17"/>
		<path class="st1" d="M3.3,88.4h-18.1c-1,0-1.9-0.9-1.9-1.9v-17c0-1,0.9-1.9,1.9-1.9H3.5c1,0,1.9,0.9,1.9,1.9v17
			C5.2,87.5,4.3,88.4,3.3,88.4z M-12.9,84.7H1.6V71.4h-14.5V84.7z"/>
	</g>
	<g>
		<g>
			<line class="st3" x1="12.4" y1="70.8" x2="43.8" y2="70.8"/>
			<path class="st1" d="M43.8,72.6H12.4c-1,0-1.9-0.9-1.9-1.9c0-1,0.9-1.9,1.9-1.9h31.4c1,0,1.9,0.9,1.9,1.9
				C45.6,71.8,44.9,72.6,43.8,72.6z"/>
		</g>
		<g>
			<line class="st3" x1="12.4" y1="78" x2="43.8" y2="78"/>
			<path class="st1" d="M43.8,79.8H12.4c-1,0-1.9-0.9-1.9-1.9c0-1,0.9-1.9,1.9-1.9h31.4c1,0,1.9,0.9,1.9,1.9
				C45.6,79,44.9,79.8,43.8,79.8z"/>
		</g>
		<g>
			<line class="st3" x1="12.4" y1="86.5" x2="43.8" y2="86.5"/>
			<path class="st1" d="M43.8,88.4H12.4c-1,0-1.9-0.9-1.9-1.9s0.9-1.9,1.9-1.9h31.4c1,0,1.9,0.9,1.9,1.9S44.9,88.4,43.8,88.4z"/>
		</g>
	</g>
	<g>
		<line class="st3" x1="-16.6" y1="94.9" x2="43.8" y2="94.9"/>
		<path class="st1" d="M43.8,96.8h-60.4c-1,0-1.9-0.9-1.9-1.9s0.9-1.9,1.9-1.9h60.4c1,0,1.9,0.9,1.9,1.9S44.9,96.8,43.8,96.8z"/>
	</g>
	<g>
		<line class="st3" x1="-16.6" y1="103.3" x2="43.8" y2="103.3"/>
		<path class="st1" d="M43.8,105.2h-60.4c-1,0-1.9-0.9-1.9-1.9s0.9-1.9,1.9-1.9h60.4c1,0,1.9,0.9,1.9,1.9S44.9,105.2,43.8,105.2z"/>
	</g>
	<g>
		<line class="st3" x1="-16.6" y1="111.9" x2="43.8" y2="111.9"/>
		<path class="st1" d="M43.8,113.7h-60.4c-1,0-1.9-0.9-1.9-1.9s0.9-1.9,1.9-1.9h60.4c1,0,1.9,0.9,1.9,1.9S44.9,113.7,43.8,113.7z"/>
	</g>
	<g>
		<line class="st3" x1="-16.6" y1="120.3" x2="43.8" y2="120.3"/>
		<path class="st1" d="M43.8,122.1h-60.4c-1,0-1.9-0.9-1.9-1.9s0.9-1.9,1.9-1.9h60.4c1,0,1.9,0.9,1.9,1.9S44.9,122.1,43.8,122.1z"/>
	</g>
	<g>
		<line class="st3" x1="-16.6" y1="128.7" x2="43.8" y2="128.7"/>
		<path class="st1" d="M43.8,130.6h-60.4c-1,0-1.9-0.9-1.9-1.9c0-1,0.9-1.9,1.9-1.9h60.4c1,0,1.9,0.9,1.9,1.9
			C45.6,129.7,44.9,130.6,43.8,130.6z"/>
	</g>
	<g>
		<line class="st3" x1="-16.6" y1="137.2" x2="43.8" y2="137.2"/>
		<path class="st1" d="M43.8,139.1h-60.4c-1,0-1.9-0.9-1.9-1.9c0-1,0.9-1.9,1.9-1.9h60.4c1,0,1.9,0.9,1.9,1.9
			C45.6,138.2,44.9,139.1,43.8,139.1z"/>
	</g>
</g>
<g>
	<g>
		<path class="st4" d="M56.5,161.7c-16.6-1.5-28.3-14.1-31.2-17.6c2.9-3.4,14.6-16,31.2-17.6c16.6,1.5,28.3,14.1,31.2,17.6
			C84.8,147.5,73.2,160.1,56.5,161.7z"/>
		<path class="st1" d="M56.5,162.5L56.5,162.5c-16.8-1.5-28.5-14-31.7-17.8l-0.4-0.5l0.4-0.5c3.2-3.8,14.9-16.3,31.7-17.8h0.1h0.1
			c16.8,1.5,28.5,14,31.7,17.8l0.4,0.5l-0.4,0.5C85.2,148.4,73.3,160.9,56.5,162.5L56.5,162.5z M26.4,144.1
			c3.6,4.2,14.7,15.3,30.1,16.8c15.4-1.5,26.5-12.6,30.1-16.8c-3.6-4.2-14.7-15.3-30.1-16.8C41.1,128.9,30,140,26.4,144.1z"/>
	</g>
	<g>
		<path class="st2" d="M74.8,144.1c0,10-8.1,18.1-18.1,18.1s-18.1-8.1-18.1-18.1s8-18.1,18-18.1S74.8,134.1,74.8,144.1z"/>
		<path class="st1" d="M56.5,163c-10.4,0-18.9-8.5-18.9-18.9s8.5-18.9,18.9-18.9s18.9,8.5,18.9,18.9C75.5,154.5,67,163,56.5,163z
			 M56.5,126.8c-9.6,0-17.3,7.7-17.3,17.3s7.7,17.3,17.3,17.3s17.3-7.7,17.3-17.3C73.9,134.6,66.2,126.8,56.5,126.8z"/>
	</g>
	<g>
		<path class="st1" d="M67.7,144.1c0,6.1-5,11-11,11s-11-4.9-11-11s5-11,11-11S67.7,138,67.7,144.1z"/>
	</g>
	<g>
		<path class="st0" d="M56.4,136.3c0,3.6-2.9,6.5-6.5,6.5s-6.5-2.9-6.5-6.5s2.9-6.5,6.5-6.5C53.5,129.8,56.4,132.7,56.4,136.3z"/>
		<path class="st1" d="M49.9,143.5c-4,0-7.3-3.3-7.3-7.3s3.3-7.3,7.3-7.3s7.3,3.3,7.3,7.3C57.2,140.3,53.9,143.5,49.9,143.5z
			 M49.9,130.6c-3.1,0-5.7,2.6-5.7,5.7s2.5,5.7,5.7,5.7c3.1,0,5.7-2.5,5.7-5.7C55.6,133.2,53,130.6,49.9,130.6z"/>
	</g>
	<g>
		<circle class="st0" cx="64.5" cy="151.9" r="3.1"/>
		<path class="st1" d="M64.5,155.7c-2.1,0-3.9-1.8-3.9-3.9c0-2.1,1.8-3.9,3.9-3.9s3.9,1.8,3.9,3.9C68.4,154,66.8,155.7,64.5,155.7z
			 M64.5,149.6c-1.3,0-2.3,1-2.3,2.3s1,2.3,2.3,2.3s2.3-1,2.3-2.3S65.8,149.6,64.5,149.6z"/>
	</g>
	<g>
		<g>
			<path class="st0" d="M52.1,144.1c0,0.4-0.3,0.7-0.7,0.7s-0.7-0.3-0.7-0.7s0.3-0.7,0.7-0.7C51.8,143.4,52.1,143.7,52.1,144.1z"/>
			<path class="st0" d="M51.3,145.1c-0.6,0-1-0.4-1-1s0.5-1,1-1s1,0.5,1,1S51.9,145.1,51.3,145.1z M51.3,143.6
				c-0.3,0-0.5,0.2-0.5,0.5s0.2,0.5,0.5,0.5s0.5-0.2,0.5-0.5S51.6,143.6,51.3,143.6z"/>
		</g>
		<g>
			<path class="st0" d="M57.3,144.1c0,0.4-0.3,0.7-0.7,0.7s-0.7-0.3-0.7-0.7s0.3-0.7,0.7-0.7C56.9,143.4,57.3,143.7,57.3,144.1z"/>
			<path class="st0" d="M56.6,145.1c-0.6,0-1-0.4-1-1s0.5-1,1-1s1,0.5,1,1S57.1,145.1,56.6,145.1z M56.6,143.6
				c-0.3,0-0.5,0.2-0.5,0.5s0.2,0.5,0.5,0.5s0.5-0.2,0.5-0.5C57,143.8,56.8,143.6,56.6,143.6z"/>
		</g>
		<g>
			<path class="st0" d="M62.5,144.1c0,0.4-0.3,0.7-0.7,0.7s-0.7-0.3-0.7-0.7s0.3-0.7,0.7-0.7S62.5,143.7,62.5,144.1z"/>
			<path class="st0" d="M61.8,145.1c-0.6,0-1-0.4-1-1s0.5-1,1-1s1,0.5,1,1S62.3,145.1,61.8,145.1z M61.8,143.6
				c-0.3,0-0.5,0.2-0.5,0.5s0.2,0.5,0.5,0.5s0.5-0.2,0.5-0.5S62,143.6,61.8,143.6z"/>
		</g>
	</g>
</g>
</svg>
