<?xml version="1.0" encoding="utf-8"?>
<!-- Generator: Adobe Illustrator 19.0.0, SVG Export Plug-In . SVG Version: 6.00 Build 0)  -->
<svg version="1.1" xmlns="http://www.w3.org/2000/svg" xmlns:xlink="http://www.w3.org/1999/xlink" x="0px" y="0px"
	 viewBox="-35 37 128 128" style="enable-background:new -35 37 128 128;" xml:space="preserve">
<style type="text/css">
	.st0{fill:#37474F;}
	.st1{fill:#FFAB00;}
	.st2{fill:#FFECB3;}
	.st3{fill:#FFFFFF;}
	.st4{fill:#B0BEC5;}
	.st5{fill:#78909C;}
</style>
<g id="Layer_1">
	<g>
		<g>
			<path class="st0" d="M45.4,83.6c0,9.5-8.9,17.3-19.8,17.3S5.8,93.2,5.8,83.6c0-9.5,8.9-17.3,19.8-17.3
				C36.5,66.3,45.4,74,45.4,83.6z"/>
			<path class="st0" d="M25.6,102.3c-11.8,0-21.3-8.4-21.3-18.8c0-10.3,9.6-18.8,21.3-18.8c11.8,0,21.3,8.4,21.3,18.8
				S37.3,102.3,25.6,102.3z M25.6,67.8c-10.1,0-18.3,7.1-18.3,15.8s8.2,15.8,18.3,15.8s18.3-7.1,18.3-15.8S35.7,67.8,25.6,67.8z"/>
		</g>
		<g>
			<polygon class="st1" points="-26.6,151.5 25.6,61.1 77.8,151.5 			"/>
			<path class="st0" d="M77.8,153H-26.6c-0.5,0-1-0.3-1.3-0.8c-0.3-0.5-0.3-1,0-1.5l52.2-90.4c0.3-0.5,0.8-0.8,1.3-0.8l0,0
				c0.5,0,1,0.3,1.3,0.8l52.2,90.4c0.3,0.5,0.3,1,0,1.5C78.8,152.7,78.3,153,77.8,153z M-24,150h99.2L25.6,64.1L-24,150z"/>
		</g>
		<g>
			<g>
				<g>
					<g>
						<g>
							<path class="st0" d="M44.5,78.5c-1.6-9-9.5-15.9-18.9-15.9S8.4,69.5,6.7,78.5H44.5z"/>
							<path class="st0" d="M44.5,80H6.7c-0.4,0-0.9-0.2-1.2-0.5s-0.4-0.8-0.3-1.2C7,68.4,15.6,61.2,25.6,61.2S44.2,68.4,46,78.3
								c0.1,0.4,0,0.9-0.3,1.2S44.9,80,44.5,80z M8.6,77h34c-2.2-7.5-9.1-12.9-17-12.9S10.8,69.5,8.6,77z"/>
						</g>
						<g>
							<path class="st2" d="M35.2,54.6c0,5.5-4.5,9.9-10,9.9l0,0c-5.5,0-10-4.4-10-9.9v-4.9c0-5.5,4.5-9.9,10-9.9l0,0
								c5.5,0,10,4.5,10,9.9V54.6z"/>
							<path class="st0" d="M25.2,66c-6.3,0-11.5-5.1-11.5-11.4v-4.9c0-6.3,5.2-11.4,11.5-11.4s11.5,5.1,11.5,11.4v4.9
								C36.7,60.9,31.5,66,25.2,66z M25.2,41.2c-4.7,0-8.5,3.8-8.5,8.4v4.9c0,4.6,3.8,8.4,8.5,8.4s8.5-3.8,8.5-8.4v-4.9
								C33.7,45,29.9,41.2,25.2,41.2z"/>
						</g>
						<g>
							<path class="st0" d="M18.9,49.9c3.6-0.3,8.3-1.3,11.2-4c0,0,1.4,1.6,3.6,2.9c0.9-0.8,1.5-1.6,1.5-2.6v-2.5
								c0-2.8-4.5-5.1-10-5.1s-10,2.3-10,5.1v2.5C15.2,47.6,16.8,48.9,18.9,49.9z"/>
							<path class="st0" d="M18.9,51.4c-0.2,0-0.4,0-0.6-0.1c-2.9-1.3-4.5-3.1-4.5-5.2v-2.5c-0.1-3.8,4.8-6.6,11.4-6.6
								s11.5,2.8,11.5,6.6v2.5c0,1.4-0.7,2.7-2,3.8c-0.5,0.4-1.1,0.5-1.7,0.2c-1.3-0.7-2.3-1.5-3-2.1c-2.6,1.9-6.3,3.1-11,3.5
								C18.9,51.4,18.9,51.4,18.9,51.4z M25.2,40c-4.8,0-8.5,1.9-8.5,3.6v2.5c0,0.5,0.6,1.4,2.4,2.3c4.5-0.5,7.9-1.7,9.9-3.6
								c0.3-0.3,0.7-0.4,1.1-0.4s0.8,0.2,1.1,0.5c0,0,0.8,1,2.2,1.9c0.2-0.2,0.2-0.5,0.2-0.7v-2.5C33.7,42.1,30.5,40,25.2,40z"/>
						</g>
						<g>
							<polygon class="st3" points="25.6,73.2 23.1,70.7 25.6,68.3 28.1,70.7 							"/>
						</g>
					</g>
					<g>
						<g>
							<g>
								<path class="st4" d="M4.6,151.5c-1.6-9-9.5-15.9-18.9-15.9s-17.2,6.9-18.9,15.9H4.6z"/>
								<path class="st0" d="M6.4,153H-35l0.3-1.8c1.8-9.9,10.4-17.1,20.4-17.1s18.6,7.2,20.4,17.1L6.4,153z M-31.3,150h34
									c-2.2-7.6-9.1-12.9-17-12.9S-29.1,142.4-31.3,150z"/>
							</g>
							<g>
								<path class="st2" d="M-4.8,128.5c0,5.5-4.5,10-10,10l0,0c-5.5,0-10-4.5-10-10v-5c0-5.5,4.5-10,10-10l0,0c5.5,0,10,4.5,10,10
									V128.5z"/>
								<path class="st0" d="M-14.8,140c-6.3,0-11.5-5.2-11.5-11.5v-5c0-6.3,5.2-11.5,11.5-11.5s11.5,5.2,11.5,11.5v5
									C-3.3,134.8-8.5,140-14.8,140z M-14.8,115c-4.7,0-8.5,3.8-8.5,8.5v5c0,4.7,3.8,8.5,8.5,8.5s8.5-3.8,8.5-8.5v-5
									C-6.3,118.8-10.1,115-14.8,115z"/>
							</g>
							<g>
								<path class="st0" d="M-21.1,123.8c3.7-0.3,8.4-1.3,11.3-4c0,0,1.3,1.6,3.6,2.8c0.9-0.8,1.5-1.6,1.5-2.6v-2.5
									c0-2.8-4.5-5.1-10-5.1s-10,2.3-10,5.1v2.5C-24.8,121.5-23.1,122.8-21.1,123.8z"/>
								<path class="st0" d="M-21.1,125.3c-0.2,0-0.4,0-0.6-0.1c-3-1.5-4.6-3.2-4.6-5.2v-2.5c0-3.8,4.9-6.6,11.5-6.6
									s11.5,2.8,11.5,6.6v2.5c0,1.4-0.7,2.6-2,3.8c-0.5,0.4-1.1,0.5-1.7,0.2c-1.3-0.7-2.3-1.5-3-2.1
									C-13.2,124.2-17.7,125.1-21.1,125.3C-21,125.3-21.1,125.3-21.1,125.3z M-14.8,113.9c-5.3,0-8.5,2.1-8.5,3.6v2.5
									c0,0.5,0.8,1.4,2.5,2.2c3.2-0.3,7.4-1.2,10-3.6c0.3-0.3,0.7-0.4,1.1-0.4s0.8,0.2,1.1,0.5c0,0,0.8,1,2.2,1.9
									c0.1-0.2,0.2-0.5,0.2-0.7v-2.5C-6.3,115.8-10,113.9-14.8,113.9z"/>
							</g>
						</g>
						<g>
							<g>
								<path class="st4" d="M84.4,151.5c-1.6-9-9.5-15.9-18.9-15.9s-17.2,6.9-18.9,15.9H84.4z"/>
								<path class="st0" d="M86.2,153H44.8l0.3-1.8c1.8-9.9,10.4-17.1,20.4-17.1s18.6,7.2,20.4,17.1L86.2,153z M48.5,150h34
									c-2.2-7.6-9.1-12.9-17-12.9S50.7,142.4,48.5,150z"/>
							</g>
							<g>
								<path class="st2" d="M75.2,128.5c0,5.5-4.5,9.9-10,9.9l0,0c-5.5,0-10-4.5-10-9.9v-4.9c0-5.5,4.5-9.9,10-9.9l0,0
									c5.5,0,10,4.4,10,9.9V128.5z"/>
								<path class="st0" d="M65.2,139.9c-6.3,0-11.5-5.1-11.5-11.4v-4.9c0-6.3,5.2-11.4,11.5-11.4s11.5,5,11.5,11.3v4.9
									C76.7,134.8,71.5,139.9,65.2,139.9z M65.2,115.1c-4.7,0-8.5,3.8-8.5,8.4v4.9c0,4.7,3.8,8.4,8.5,8.4s8.5-3.8,8.5-8.4v-4.9
									C73.7,118.9,69.9,115.1,65.2,115.1z"/>
							</g>
							<g>
								<path class="st0" d="M58.8,123.8c3.6-0.3,8.3-1.3,11.2-4c0,0,1.4,1.6,3.7,2.8c0.9-0.8,1.5-1.6,1.5-2.6v-2.5
									c0-2.8-4.5-5.1-10-5.1s-10,2.3-10,5.1v2.5C55.2,121.5,56.7,122.8,58.8,123.8z"/>
								<path class="st0" d="M58.8,125.3c-0.2,0-0.4,0-0.6-0.1c-2.9-1.4-4.5-3.2-4.5-5.2v-2.5c0-3.8,4.9-6.6,11.5-6.6
									s11.5,2.8,11.5,6.6v2.5c0,1.4-0.7,2.6-2,3.8c-0.5,0.4-1.1,0.5-1.7,0.2c-1.3-0.7-2.4-1.5-3.1-2.1c-3.2,2.3-7.7,3.2-11,3.5
									C58.9,125.3,58.8,125.3,58.8,125.3z M65.2,113.9c-5.3,0-8.5,2.1-8.5,3.6v2.5c0,0.7,0.9,1.5,2.4,2.2c3.2-0.3,7.4-1.2,9.9-3.6
									c0.3-0.3,0.7-0.4,1.1-0.4s0.8,0.2,1.1,0.5c0,0,0.9,1,2.3,1.9c0.2-0.3,0.3-0.5,0.3-0.7v-2.5C73.7,116,70.5,113.9,65.2,113.9z
									"/>
							</g>
						</g>
					</g>
				</g>
				<g>
					<polygon class="st3" points="41.6,108.5 25.6,136.1 9.6,108.5 					"/>
					<path class="st0" d="M25.6,137.6c-0.5,0-1-0.3-1.3-0.7l-16-27.6c-0.3-0.5-0.3-1,0-1.5s0.8-0.8,1.3-0.8h31.9
						c0.5,0,1,0.3,1.3,0.8s0.3,1,0,1.5l-16,27.6C26.6,137.3,26.1,137.6,25.6,137.6z M12.2,110l13.4,23.1L39,110H12.2z"/>
				</g>
			</g>
			<g>
				<g>
					<path class="st0" d="M4.1,127.5c0,0.7-0.6,1.3-1.3,1.3s-1.3-0.6-1.3-1.3c0-0.7,0.6-1.3,1.3-1.3C3.5,126.1,4.1,126.7,4.1,127.5z
						"/>
					<path class="st0" d="M2.8,129.3c-1,0-1.8-0.8-1.8-1.8s0.8-1.8,1.8-1.8s1.8,0.8,1.8,1.8C4.6,128.4,3.7,129.3,2.8,129.3z
						 M2.8,126.6c-0.4,0-0.8,0.4-0.8,0.8s0.4,0.8,0.8,0.8c0.4,0,0.8-0.4,0.8-0.8C3.6,127,3.2,126.6,2.8,126.6z"/>
				</g>
				<g>
					<path class="st0" d="M49.7,127.5c0,0.7-0.6,1.3-1.3,1.3c-0.7,0-1.3-0.6-1.3-1.3c0-0.7,0.6-1.3,1.3-1.3
						C49.1,126.1,49.7,126.7,49.7,127.5z"/>
					<path class="st0" d="M48.4,129.3c-1,0-1.8-0.8-1.8-1.8s0.8-1.8,1.8-1.8s1.8,0.8,1.8,1.8S49.4,129.3,48.4,129.3z M48.4,126.6
						c-0.5,0-0.8,0.4-0.8,0.8s0.4,0.8,0.8,0.8s0.8-0.4,0.8-0.8S48.9,126.6,48.4,126.6z"/>
				</g>
			</g>
			<g>
				<g>
					<path class="st0" d="M25.6,85.8c-0.7,0-1.3-0.6-1.3-1.3s0.6-1.3,1.3-1.3c0.7,0,1.3,0.6,1.3,1.3C26.9,85.2,26.3,85.8,25.6,85.8z
						"/>
					<path class="st0" d="M25.6,86.3c-1,0-1.8-0.8-1.8-1.8s0.8-1.8,1.8-1.8s1.8,0.8,1.8,1.8C27.4,85.5,26.6,86.3,25.6,86.3z
						 M25.6,83.7c-0.4,0-0.8,0.4-0.8,0.8c0,0.4,0.4,0.8,0.8,0.8c0.4,0,0.8-0.4,0.8-0.8C26.4,84.1,26,83.7,25.6,83.7z"/>
				</g>
				<g>
					<path class="st0" d="M25.6,95c-0.7,0-1.3-0.6-1.3-1.3c0-0.7,0.6-1.3,1.3-1.3c0.7,0,1.3,0.6,1.3,1.3C26.9,94.4,26.3,95,25.6,95z
						"/>
					<path class="st0" d="M25.6,95.5c-1,0-1.8-0.8-1.8-1.8s0.8-1.8,1.8-1.8s1.8,0.8,1.8,1.8C27.4,94.7,26.6,95.5,25.6,95.5z
						 M25.6,92.8c-0.4,0-0.8,0.4-0.8,0.8s0.4,0.8,0.8,0.8c0.4,0,0.8-0.4,0.8-0.8C26.4,93.2,26,92.8,25.6,92.8z"/>
				</g>
				<g>
					<path class="st0" d="M25.6,104.1c-0.7,0-1.3-0.6-1.3-1.3c0-0.7,0.6-1.3,1.3-1.3c0.7,0,1.3,0.6,1.3,1.3
						C26.9,103.5,26.3,104.1,25.6,104.1z"/>
					<path class="st0" d="M25.6,104.6c-1,0-1.8-0.8-1.8-1.8s0.8-1.8,1.8-1.8s1.8,0.8,1.8,1.8C27.4,103.8,26.6,104.6,25.6,104.6z
						 M25.6,102c-0.4,0-0.8,0.3-0.8,0.8s0.3,0.8,0.8,0.8s0.8-0.4,0.8-0.8C26.4,102.4,26,102,25.6,102z"/>
				</g>
			</g>
		</g>
	</g>
</g>
<g id="Layer_2">
	<g>
		<g>
			<path class="st5" d="M60.7,163.7c-16.6-1.5-28.3-14.1-31.2-17.6c2.9-3.4,14.6-16,31.2-17.6c16.6,1.5,28.3,14.1,31.2,17.6
				C89,149.5,77.4,162.1,60.7,163.7z"/>
			<path class="st0" d="M60.7,164.5L60.7,164.5c-16.8-1.5-28.5-14-31.7-17.8l-0.4-0.5l0.4-0.5c3.2-3.8,14.9-16.3,31.7-17.8h0.1h0.1
				c16.8,1.5,28.5,14,31.7,17.8l0.4,0.5l-0.4,0.5C89.4,150.4,77.5,162.9,60.7,164.5L60.7,164.5z M30.6,146.1
				c3.6,4.2,14.7,15.3,30.1,16.8c15.4-1.5,26.5-12.6,30.1-16.8c-3.6-4.2-14.7-15.3-30.1-16.8C45.3,130.9,34.2,142,30.6,146.1z"/>
		</g>
		<g>
			<path class="st1" d="M79,146.1c0,10-8.1,18.1-18.1,18.1s-18.1-8.1-18.1-18.1s8-18.1,18-18.1S79,136.1,79,146.1z"/>
			<path class="st0" d="M60.7,165c-10.4,0-18.9-8.5-18.9-18.9s8.5-18.9,18.9-18.9s18.9,8.5,18.9,18.9C79.7,156.5,71.2,165,60.7,165z
				 M60.7,128.8c-9.6,0-17.3,7.7-17.3,17.3s7.7,17.3,17.3,17.3S78,155.7,78,146.1C78.1,136.6,70.4,128.8,60.7,128.8z"/>
		</g>
		<g>
			<path class="st0" d="M71.9,146.1c0,6.1-5,11-11,11s-11-4.9-11-11s5-11,11-11S71.9,140,71.9,146.1z"/>
		</g>
		<g>
			<path class="st3" d="M60.6,138.3c0,3.6-2.9,6.5-6.5,6.5s-6.5-2.9-6.5-6.5s2.9-6.5,6.5-6.5S60.6,134.7,60.6,138.3z"/>
			<path class="st0" d="M54.1,145.5c-4,0-7.3-3.3-7.3-7.3s3.3-7.3,7.3-7.3s7.3,3.3,7.3,7.3C61.4,142.3,58.1,145.5,54.1,145.5z
				 M54.1,132.6c-3.1,0-5.7,2.6-5.7,5.7s2.5,5.7,5.7,5.7c3.1,0,5.7-2.5,5.7-5.7C59.8,135.2,57.2,132.6,54.1,132.6z"/>
		</g>
		<g>
			<circle class="st3" cx="68.7" cy="153.9" r="3.1"/>
			<path class="st0" d="M68.7,157.7c-2.1,0-3.9-1.8-3.9-3.9c0-2.1,1.8-3.9,3.9-3.9s3.9,1.8,3.9,3.9C72.6,156,71,157.7,68.7,157.7z
				 M68.7,151.6c-1.3,0-2.3,1-2.3,2.3s1,2.3,2.3,2.3s2.3-1,2.3-2.3S70,151.6,68.7,151.6z"/>
		</g>
		<g>
			<g>
				<path class="st3" d="M56.3,146.1c0,0.4-0.3,0.7-0.7,0.7s-0.7-0.3-0.7-0.7s0.3-0.7,0.7-0.7C56,145.4,56.3,145.7,56.3,146.1z"/>
				<path class="st3" d="M55.5,147.1c-0.6,0-1-0.4-1-1s0.5-1,1-1s1,0.5,1,1S56.1,147.1,55.5,147.1z M55.5,145.6
					c-0.3,0-0.5,0.2-0.5,0.5s0.2,0.5,0.5,0.5s0.5-0.2,0.5-0.5S55.8,145.6,55.5,145.6z"/>
			</g>
			<g>
				<path class="st3" d="M61.5,146.1c0,0.4-0.3,0.7-0.7,0.7s-0.7-0.3-0.7-0.7s0.3-0.7,0.7-0.7C61.1,145.4,61.5,145.7,61.5,146.1z"/>
				<path class="st3" d="M60.8,147.1c-0.6,0-1-0.4-1-1s0.5-1,1-1s1,0.5,1,1S61.3,147.1,60.8,147.1z M60.8,145.6
					c-0.3,0-0.5,0.2-0.5,0.5s0.2,0.5,0.5,0.5s0.5-0.2,0.5-0.5C61.2,145.8,61,145.6,60.8,145.6z"/>
			</g>
			<g>
				<path class="st3" d="M66.7,146.1c0,0.4-0.3,0.7-0.7,0.7c-0.4,0-0.7-0.3-0.7-0.7s0.3-0.7,0.7-0.7
					C66.4,145.4,66.7,145.7,66.7,146.1z"/>
				<path class="st3" d="M66,147.1c-0.6,0-1-0.4-1-1s0.5-1,1-1s1,0.5,1,1S66.5,147.1,66,147.1z M66,145.6c-0.3,0-0.5,0.2-0.5,0.5
					s0.2,0.5,0.5,0.5s0.5-0.2,0.5-0.5S66.2,145.6,66,145.6z"/>
			</g>
		</g>
	</g>
</g>
</svg>
