<?xml version="1.0" encoding="utf-8"?>
<!-- Generator: Adobe Illustrator 19.0.0, SVG Export Plug-In . SVG Version: 6.00 Build 0)  -->
<svg version="1.1" xmlns="http://www.w3.org/2000/svg" xmlns:xlink="http://www.w3.org/1999/xlink" x="0px" y="0px"
	 viewBox="-35 37 128 128" style="enable-background:new -35 37 128 128;" xml:space="preserve">
<style type="text/css">
	.st0{fill:#B0BEC5;}
	.st1{fill:#37474F;}
	.st2{fill:#FFAB00;}
	.st3{fill:#78909C;}
	.st4{fill:#FFFFFF;}
	.st5{fill:#FFECB3;}
</style>
<g id="Layer_1">
	<g>
		<g>
			<g>
				<rect x="-28.3" y="104.5" class="st0" width="12.9" height="31.5"/>
				<path class="st1" d="M-15.3,136.9h-12.9c-0.5,0-0.8-0.4-0.8-0.8v-31.5c0-0.5,0.4-0.8,0.8-0.8h12.9c0.5,0,0.8,0.4,0.8,0.8V136
					C-14.5,136.5-14.9,136.9-15.3,136.9z M-27.4,135.2h11.3v-29.8h-11.3V135.2z"/>
			</g>
			<g>
				<g>
					<g>
						<path class="st1" d="M-24.4,107.8c0,0.5-0.4,0.9-0.9,0.9s-0.9-0.4-0.9-0.9s0.4-0.9,0.9-0.9C-24.8,106.8-24.4,107.3-24.4,107.8
							z"/>
					</g>
					<g>
						<path class="st1" d="M-21.1,107.8c0,0.5-0.4,0.9-0.9,0.9c-0.5,0-0.9-0.4-0.9-0.9s0.4-0.9,0.9-0.9
							C-21.5,106.8-21.1,107.3-21.1,107.8z"/>
					</g>
					<g>
						<path class="st1" d="M-17.8,107.8c0,0.5-0.4,0.9-0.9,0.9c-0.5,0-0.9-0.4-0.9-0.9s0.4-0.9,0.9-0.9
							C-18.2,106.8-17.8,107.3-17.8,107.8z"/>
					</g>
				</g>
				<g>
					<g>
						<path class="st1" d="M-24.4,111.5c0,0.5-0.4,0.9-0.9,0.9s-0.9-0.5-0.9-0.9c0-0.5,0.4-0.9,0.9-0.9
							C-24.8,110.5-24.4,111-24.4,111.5z"/>
					</g>
					<g>
						<path class="st1" d="M-21.1,111.5c0,0.5-0.4,0.9-0.9,0.9c-0.5,0-0.9-0.5-0.9-0.9c0-0.5,0.4-0.9,0.9-0.9
							C-21.5,110.5-21.1,111-21.1,111.5z"/>
					</g>
					<g>
						<path class="st1" d="M-17.8,111.5c0,0.5-0.4,0.9-0.9,0.9c-0.5,0-0.9-0.5-0.9-0.9c0-0.5,0.4-0.9,0.9-0.9
							C-18.2,110.5-17.8,111-17.8,111.5z"/>
					</g>
				</g>
				<g>
					<g>
						<path class="st1" d="M-24.4,115.1c0,0.5-0.4,0.9-0.9,0.9s-0.9-0.4-0.9-0.9s0.4-0.9,0.9-0.9C-24.8,114.2-24.4,114.6-24.4,115.1
							z"/>
					</g>
					<g>
						<path class="st1" d="M-21.1,115.1c0,0.5-0.4,0.9-0.9,0.9c-0.5,0-0.9-0.4-0.9-0.9s0.4-0.9,0.9-0.9
							C-21.5,114.2-21.1,114.6-21.1,115.1z"/>
					</g>
					<g>
						<path class="st1" d="M-17.8,115.1c0,0.5-0.4,0.9-0.9,0.9c-0.5,0-0.9-0.4-0.9-0.9s0.4-0.9,0.9-0.9
							C-18.2,114.2-17.8,114.6-17.8,115.1z"/>
					</g>
				</g>
				<g>
					<g>
						<path class="st1" d="M-24.4,118.8c0,0.5-0.4,0.9-0.9,0.9s-0.9-0.5-0.9-0.9c0-0.5,0.4-0.9,0.9-0.9
							C-24.8,117.9-24.4,118.3-24.4,118.8z"/>
					</g>
					<g>
						<path class="st1" d="M-21.1,118.8c0,0.5-0.4,0.9-0.9,0.9c-0.5,0-0.9-0.5-0.9-0.9c0-0.5,0.4-0.9,0.9-0.9
							C-21.5,117.9-21.1,118.3-21.1,118.8z"/>
					</g>
					<g>
						<path class="st1" d="M-17.8,118.8c0,0.5-0.4,0.9-0.9,0.9c-0.5,0-0.9-0.5-0.9-0.9c0-0.5,0.4-0.9,0.9-0.9
							C-18.2,117.9-17.8,118.3-17.8,118.8z"/>
					</g>
				</g>
				<g>
					<g>
						<path class="st1" d="M-24.4,122.4c0,0.5-0.4,0.9-0.9,0.9s-0.9-0.4-0.9-0.9s0.4-0.9,0.9-0.9C-24.8,121.5-24.4,121.9-24.4,122.4
							z"/>
					</g>
					<g>
						<path class="st1" d="M-21.1,122.4c0,0.5-0.4,0.9-0.9,0.9c-0.5,0-0.9-0.4-0.9-0.9s0.4-0.9,0.9-0.9
							C-21.5,121.5-21.1,121.9-21.1,122.4z"/>
					</g>
					<g>
						<path class="st1" d="M-17.8,122.4c0,0.5-0.4,0.9-0.9,0.9c-0.5,0-0.9-0.4-0.9-0.9s0.4-0.9,0.9-0.9
							C-18.2,121.5-17.8,121.9-17.8,122.4z"/>
					</g>
				</g>
				<g>
					<g>
						<path class="st1" d="M-24.4,126.1c0,0.5-0.4,0.9-0.9,0.9s-0.9-0.4-0.9-0.9s0.4-0.9,0.9-0.9C-24.8,125.2-24.4,125.6-24.4,126.1
							z"/>
					</g>
					<g>
						<path class="st1" d="M-21.1,126.1c0,0.5-0.4,0.9-0.9,0.9c-0.5,0-0.9-0.4-0.9-0.9s0.4-0.9,0.9-0.9
							C-21.5,125.2-21.1,125.6-21.1,126.1z"/>
					</g>
					<g>
						<path class="st1" d="M-17.8,126.1c0,0.5-0.4,0.9-0.9,0.9c-0.5,0-0.9-0.4-0.9-0.9s0.4-0.9,0.9-0.9
							C-18.2,125.2-17.8,125.6-17.8,126.1z"/>
					</g>
				</g>
				<g>
					<g>
						<path class="st1" d="M-24.4,129.8c0,0.5-0.4,0.9-0.9,0.9s-0.9-0.4-0.9-0.9c0-0.5,0.4-0.9,0.9-0.9
							C-24.8,128.9-24.4,129.3-24.4,129.8z"/>
					</g>
					<g>
						<path class="st1" d="M-21.1,129.8c0,0.5-0.4,0.9-0.9,0.9c-0.5,0-0.9-0.4-0.9-0.9c0-0.5,0.4-0.9,0.9-0.9
							C-21.5,128.9-21.1,129.3-21.1,129.8z"/>
					</g>
					<g>
						<path class="st1" d="M-17.8,129.8c0,0.5-0.4,0.9-0.9,0.9c-0.5,0-0.9-0.4-0.9-0.9c0-0.5,0.4-0.9,0.9-0.9
							C-18.2,128.9-17.8,129.3-17.8,129.8z"/>
					</g>
				</g>
			</g>
		</g>
		<g>
			<g>
				<rect x="3.2" y="111.8" class="st0" width="12.9" height="32.1"/>
				<path class="st1" d="M16.2,144.7H3.2c-0.5,0-0.8-0.4-0.8-0.8v-32.1c0-0.5,0.4-0.8,0.8-0.8h12.9c0.5,0,0.8,0.4,0.8,0.8v32.1
					C17,144.3,16.6,144.7,16.2,144.7z M4.1,143h11.3v-30.4H4.1V143z"/>
			</g>
			<g>
				<g>
					<g>
						<path class="st1" d="M7.4,115.6c0,0.5-0.4,0.9-0.9,0.9s-0.9-0.4-0.9-0.9c0-0.5,0.4-0.9,0.9-0.9C7,114.6,7.4,115.1,7.4,115.6z"
							/>
					</g>
					<g>
						<path class="st1" d="M10.7,115.6c0,0.5-0.4,0.9-0.9,0.9c-0.5,0-0.9-0.4-0.9-0.9c0-0.5,0.4-0.9,0.9-0.9
							C10.3,114.6,10.7,115.1,10.7,115.6z"/>
					</g>
					<g>
						<path class="st1" d="M14,115.6c0,0.5-0.4,0.9-0.9,0.9c-0.5,0-0.9-0.4-0.9-0.9c0-0.5,0.4-0.9,0.9-0.9
							C13.7,114.6,14,115.1,14,115.6z"/>
					</g>
				</g>
				<g>
					<g>
						<path class="st1" d="M7.4,119.2c0,0.5-0.4,0.9-0.9,0.9s-0.9-0.5-0.9-0.9c0-0.5,0.4-1,0.9-1C7,118.3,7.4,118.7,7.4,119.2z"/>
					</g>
					<g>
						<path class="st1" d="M10.7,119.2c0,0.5-0.4,0.9-0.9,0.9c-0.5,0-0.9-0.5-0.9-0.9c0-0.5,0.4-1,0.9-1
							C10.3,118.3,10.7,118.7,10.7,119.2z"/>
					</g>
					<g>
						<path class="st1" d="M14,119.2c0,0.5-0.4,0.9-0.9,0.9c-0.5,0-0.9-0.5-0.9-0.9c0-0.5,0.4-1,0.9-1C13.7,118.3,14,118.7,14,119.2
							z"/>
					</g>
				</g>
				<g>
					<g>
						<path class="st1" d="M7.4,122.9c0,0.5-0.4,0.9-0.9,0.9s-0.9-0.4-0.9-0.9c0-0.5,0.4-0.9,0.9-0.9C7,122,7.4,122.4,7.4,122.9z"/>
					</g>
					<g>
						<path class="st1" d="M10.7,122.9c0,0.5-0.4,0.9-0.9,0.9c-0.5,0-0.9-0.4-0.9-0.9c0-0.5,0.4-0.9,0.9-0.9
							C10.3,122,10.7,122.4,10.7,122.9z"/>
					</g>
					<g>
						<path class="st1" d="M14,122.9c0,0.5-0.4,0.9-0.9,0.9c-0.5,0-0.9-0.4-0.9-0.9c0-0.5,0.4-0.9,0.9-0.9
							C13.7,122,14,122.4,14,122.9z"/>
					</g>
				</g>
				<g>
					<g>
						<path class="st1" d="M7.4,126.6c0,0.5-0.4,0.9-0.9,0.9s-0.9-0.5-0.9-0.9c0-0.5,0.4-0.9,0.9-0.9C7,125.7,7.4,126,7.4,126.6z"/>
					</g>
					<g>
						<path class="st1" d="M10.7,126.6c0,0.5-0.4,0.9-0.9,0.9c-0.5,0-0.9-0.5-0.9-0.9c0-0.5,0.4-0.9,0.9-0.9
							C10.3,125.7,10.7,126,10.7,126.6z"/>
					</g>
					<g>
						<path class="st1" d="M14,126.6c0,0.5-0.4,0.9-0.9,0.9c-0.5,0-0.9-0.5-0.9-0.9c0-0.5,0.4-0.9,0.9-0.9
							C13.7,125.7,14,126,14,126.6z"/>
					</g>
				</g>
				<g>
					<g>
						<path class="st1" d="M7.4,130.2c0,0.5-0.4,0.9-0.9,0.9s-0.9-0.4-0.9-0.9c0-0.5,0.4-0.9,0.9-0.9C7,129.3,7.4,129.7,7.4,130.2z"
							/>
					</g>
					<g>
						<path class="st1" d="M10.7,130.2c0,0.5-0.4,0.9-0.9,0.9c-0.5,0-0.9-0.4-0.9-0.9c0-0.5,0.4-0.9,0.9-0.9
							C10.3,129.3,10.7,129.7,10.7,130.2z"/>
					</g>
					<g>
						<path class="st1" d="M14,130.2c0,0.5-0.4,0.9-0.9,0.9c-0.5,0-0.9-0.4-0.9-0.9c0-0.5,0.4-0.9,0.9-0.9
							C13.7,129.3,14,129.7,14,130.2z"/>
					</g>
				</g>
				<g>
					<g>
						<path class="st1" d="M7.4,133.9c0,0.5-0.4,0.9-0.9,0.9s-0.9-0.4-0.9-0.9S6,133,6.5,133C7,133,7.4,133.4,7.4,133.9z"/>
					</g>
					<g>
						<path class="st1" d="M10.7,133.9c0,0.5-0.4,0.9-0.9,0.9c-0.5,0-0.9-0.4-0.9-0.9s0.4-0.9,0.9-0.9
							C10.3,133,10.7,133.4,10.7,133.9z"/>
					</g>
					<g>
						<path class="st1" d="M14,133.9c0,0.5-0.4,0.9-0.9,0.9c-0.5,0-0.9-0.4-0.9-0.9s0.4-0.9,0.9-0.9C13.7,133,14,133.4,14,133.9z"/>
					</g>
				</g>
				<g>
					<g>
						<path class="st1" d="M7.4,137.6c0,0.5-0.4,0.9-0.9,0.9s-0.9-0.4-0.9-0.9s0.4-0.9,0.9-0.9C7,136.6,7.4,137.1,7.4,137.6z"/>
					</g>
					<g>
						<path class="st1" d="M10.7,137.6c0,0.5-0.4,0.9-0.9,0.9c-0.5,0-0.9-0.4-0.9-0.9s0.4-0.9,0.9-0.9
							C10.3,136.6,10.7,137.1,10.7,137.6z"/>
					</g>
					<g>
						<path class="st1" d="M14,137.6c0,0.5-0.4,0.9-0.9,0.9c-0.5,0-0.9-0.4-0.9-0.9s0.4-0.9,0.9-0.9C13.7,136.6,14,137.1,14,137.6z"
							/>
					</g>
				</g>
			</g>
		</g>
		<g>
			<g>
				<polygon class="st2" points="-12.2,92.1 -4.2,78.2 3.9,92.1 				"/>
				<path class="st1" d="M5.3,92.9h-19l9.5-16.4L5.3,92.9z M-10.7,91.2H2.4l-6.6-11.4L-10.7,91.2z"/>
			</g>
			<g>
				<g>
					<polygon class="st3" points="-32.1,130.4 -13.8,125.7 4.6,130.4 					"/>
					<path class="st1" d="M4.6,131.2L4.6,131.2h-36.7c-0.5,0-0.8-0.3-0.8-0.7s0.2-0.8,0.6-0.9l18.4-4.7c0.1-0.1,0.3-0.1,0.4,0
						l18.3,4.7c0.4,0.1,0.7,0.4,0.7,0.8C5.4,130.8,5,131.2,4.6,131.2z M-25.3,129.5h23.2l-11.6-3L-25.3,129.5z"/>
				</g>
				<g>
					<polygon class="st3" points="-12.9,130.4 5.4,125.7 23.7,130.4 					"/>
					<path class="st1" d="M23.7,131.2L23.7,131.2h-36.7c-0.5,0-0.8-0.3-0.8-0.7s0.2-0.8,0.6-0.9l18.3-4.7c0.1-0.1,0.3-0.1,0.4,0
						l18.2,4.7c0.4,0.1,0.7,0.4,0.7,0.8C24.6,130.8,24.2,131.2,23.7,131.2z M-6.2,129.5H17l-11.6-3L-6.2,129.5z"/>
				</g>
			</g>
			<g>
				<rect x="-12" y="85.3" class="st3" width="15.8" height="15.2"/>
				<path class="st1" d="M4.6,101.4h-17.5V84.5H4.6V101.4z M-11.1,99.7H3V86.2h-14.1V99.7z"/>
			</g>
			<g>
				<rect x="-28.9" y="130.9" class="st2" width="49" height="15.2"/>
				<path class="st1" d="M21,147h-50.7v-16.9H21V147z M-28,145.3h47.3v-13.5H-28V145.3z"/>
			</g>
			<g>
				<rect x="-28.6" y="134" class="st1" width="48.4" height="1.7"/>
			</g>
			<g>
				<rect x="-28.6" y="138" class="st1" width="48.4" height="1.7"/>
			</g>
			<g>
				<rect x="-28.6" y="141.4" class="st1" width="48.4" height="1.7"/>
			</g>
			<g>
				<rect x="-15.3" y="91.5" class="st0" width="22" height="54.6"/>
				<path class="st1" d="M6.6,147h-22c-0.5,0-0.8-0.4-0.8-0.8V91.5c0-0.5,0.4-0.8,0.8-0.8h22c0.5,0,0.8,0.4,0.8,0.8v54.6
					C7.5,146.6,7.1,147,6.6,147z M-14.5,145.3H5.8V92.4h-20.3V145.3z"/>
			</g>
			<g>
				<rect x="-15.3" y="140" class="st0" width="22" height="6.2"/>
				<path class="st1" d="M6.6,147h-22c-0.5,0-0.8-0.4-0.8-0.8V140c0-0.5,0.4-0.8,0.8-0.8h22c0.5,0,0.8,0.4,0.8,0.8v6.2
					C7.5,146.6,7.1,147,6.6,147z M-14.5,145.3H5.8v-4.5h-20.3V145.3z"/>
			</g>
			<g>
				<rect x="-6.9" y="140" class="st3" width="5.6" height="6.2"/>
				<path class="st1" d="M-0.4,147h-7.3v-7.9h7.3V147z M-6.1,145.3h3.9v-4.5h-3.9V145.3z"/>
			</g>
			<g>
				<g>
					<g>
						<path class="st4" d="M-8.3,97.4c0,0.8-0.7,1.6-1.6,1.6s-1.6-0.7-1.6-1.6c0-0.8,0.7-1.6,1.6-1.6S-8.3,96.5-8.3,97.4z"/>
					</g>
					<g>
						<path class="st4" d="M-2.6,97.4c0,0.8-0.7,1.6-1.6,1.6c-0.8,0-1.6-0.7-1.6-1.6c0-0.8,0.7-1.6,1.6-1.6
							C-3.3,95.8-2.6,96.5-2.6,97.4z"/>
					</g>
					<g>
						<path class="st4" d="M3.1,97.4c0,0.8-0.7,1.6-1.6,1.6C0.6,99,0,98.2,0,97.4c0-0.8,0.7-1.6,1.6-1.6S3.1,96.5,3.1,97.4z"/>
					</g>
				</g>
				<g>
					<g>
						<path class="st4" d="M-8.3,103.6c0,0.8-0.7,1.6-1.6,1.6s-1.6-0.7-1.6-1.6c0-0.8,0.7-1.6,1.6-1.6S-8.3,102.8-8.3,103.6z"/>
					</g>
					<g>
						<path class="st4" d="M-2.6,103.6c0,0.8-0.7,1.6-1.6,1.6c-0.8,0-1.6-0.7-1.6-1.6c0-0.8,0.7-1.6,1.6-1.6
							C-3.3,102.1-2.6,102.8-2.6,103.6z"/>
					</g>
					<g>
						<path class="st4" d="M3.1,103.6c0,0.8-0.7,1.6-1.6,1.6c-0.9,0-1.6-0.7-1.6-1.6c0-0.8,0.7-1.6,1.6-1.6S3.1,102.8,3.1,103.6z"/>
					</g>
				</g>
				<g>
					<g>
						<path class="st4" d="M-8.3,109.9c0,0.8-0.7,1.6-1.6,1.6s-1.6-0.7-1.6-1.6s0.7-1.6,1.6-1.6S-8.3,109-8.3,109.9z"/>
					</g>
					<g>
						<path class="st4" d="M-2.6,109.9c0,0.8-0.7,1.6-1.6,1.6c-0.8,0-1.6-0.7-1.6-1.6s0.7-1.6,1.6-1.6C-3.3,108.4-2.6,109-2.6,109.9
							z"/>
					</g>
					<g>
						<path class="st4" d="M3.1,109.9c0,0.8-0.7,1.6-1.6,1.6c-0.9,0-1.6-0.7-1.6-1.6s0.7-1.6,1.6-1.6S3.1,109,3.1,109.9z"/>
					</g>
				</g>
				<g>
					<g>
						<path class="st4" d="M-8.3,116.2c0,0.8-0.7,1.6-1.6,1.6s-1.6-0.7-1.6-1.6c0-0.9,0.7-1.6,1.6-1.6S-8.3,115.3-8.3,116.2z"/>
					</g>
					<g>
						<path class="st4" d="M-2.6,116.2c0,0.8-0.7,1.6-1.6,1.6c-0.8,0-1.6-0.7-1.6-1.6c0-0.9,0.7-1.6,1.6-1.6
							C-3.3,114.6-2.6,115.3-2.6,116.2z"/>
					</g>
					<g>
						<path class="st4" d="M3.1,116.2c0,0.8-0.7,1.6-1.6,1.6c-0.9,0-1.6-0.7-1.6-1.6c0-0.9,0.7-1.6,1.6-1.6S3.1,115.3,3.1,116.2z"/>
					</g>
				</g>
				<g>
					<g>
						<path class="st4" d="M-8.3,122.5c0,0.9-0.7,1.6-1.6,1.6s-1.6-0.7-1.6-1.6c0-0.8,0.7-1.6,1.6-1.6S-8.3,121.6-8.3,122.5z"/>
					</g>
					<g>
						<path class="st4" d="M-2.6,122.5c0,0.9-0.7,1.6-1.6,1.6c-0.8,0-1.6-0.7-1.6-1.6c0-0.8,0.7-1.6,1.6-1.6
							C-3.3,120.9-2.6,121.6-2.6,122.5z"/>
					</g>
					<g>
						<path class="st4" d="M3.1,122.5c0,0.9-0.7,1.6-1.6,1.6c-0.9,0-1.6-0.7-1.6-1.6c0-0.8,0.7-1.6,1.6-1.6S3.1,121.6,3.1,122.5z"/>
					</g>
				</g>
				<g>
					<g>
						<path class="st4" d="M-8.3,128.7c0,0.8-0.7,1.6-1.6,1.6s-1.6-0.7-1.6-1.6c0-0.9,0.7-1.6,1.6-1.6S-8.3,127.9-8.3,128.7z"/>
					</g>
					<g>
						<path class="st4" d="M-2.6,128.7c0,0.8-0.7,1.6-1.6,1.6c-0.8,0-1.6-0.7-1.6-1.6c0-0.9,0.7-1.6,1.6-1.6
							C-3.3,127.2-2.6,127.9-2.6,128.7z"/>
					</g>
					<g>
						<path class="st4" d="M3.1,128.7c0,0.8-0.7,1.6-1.6,1.6c-0.9,0-1.6-0.7-1.6-1.6c0-0.9,0.7-1.6,1.6-1.6S3.1,127.9,3.1,128.7z"/>
					</g>
				</g>
				<g>
					<g>
						<path class="st4" d="M-8.3,135.1c0,0.8-0.7,1.6-1.6,1.6s-1.6-0.7-1.6-1.6s0.7-1.6,1.6-1.6S-8.3,134.2-8.3,135.1z"/>
					</g>
					<g>
						<path class="st4" d="M-2.6,135.1c0,0.8-0.7,1.6-1.6,1.6c-0.8,0-1.6-0.7-1.6-1.6s0.7-1.6,1.6-1.6
							C-3.3,133.5-2.6,134.2-2.6,135.1z"/>
					</g>
					<g>
						<path class="st4" d="M3.1,135.1c0,0.8-0.7,1.6-1.6,1.6c-0.9,0-1.6-0.7-1.6-1.6s0.7-1.6,1.6-1.6S3.1,134.2,3.1,135.1z"/>
					</g>
				</g>
			</g>
			<g>
				<g>
					<path class="st1" d="M19.7,116.5c-0.4,0-0.7-0.3-0.7-0.7c0-0.4,0.3-0.7,0.7-0.7c0.4,0,0.7,0.3,0.7,0.7
						C20.4,116.2,20,116.5,19.7,116.5z"/>
					<path class="st1" d="M19.7,116.8c-0.5,0-1-0.5-1-1c0-0.5,0.5-1,1-1c0.6,0,1,0.5,1,1C20.6,116.4,20.2,116.8,19.7,116.8z
						 M19.7,115.5c-0.2,0-0.4,0.2-0.4,0.4c0,0.2,0.2,0.4,0.4,0.4c0.2,0,0.4-0.2,0.4-0.4C20.1,115.6,19.9,115.5,19.7,115.5z"/>
				</g>
				<g>
					<path class="st1" d="M19.7,121.3c-0.4,0-0.7-0.3-0.7-0.7s0.3-0.7,0.7-0.7c0.4,0,0.7,0.3,0.7,0.7C20.4,121,20,121.3,19.7,121.3z
						"/>
					<path class="st1" d="M19.7,121.6c-0.5,0-1-0.5-1-1s0.5-1,1-1c0.5,0,1,0.5,1,1C20.6,121.1,20.2,121.6,19.7,121.6z M19.7,120.2
						c-0.2,0-0.4,0.2-0.4,0.4c0,0.2,0.2,0.4,0.4,0.4c0.2,0,0.4-0.2,0.4-0.4C20.1,120.4,19.9,120.2,19.7,120.2z"/>
				</g>
				<g>
					<path class="st1" d="M19.7,126c-0.4,0-0.7-0.3-0.7-0.7s0.3-0.7,0.7-0.7c0.4,0,0.7,0.3,0.7,0.7C20.4,125.8,20,126,19.7,126z"/>
					<path class="st1" d="M19.7,126.3c-0.5,0-1-0.5-1-1s0.5-1,1-1c0.6,0,1,0.5,1,1C20.6,125.9,20.2,126.3,19.7,126.3z M19.7,125
						c-0.2,0-0.4,0.2-0.4,0.4c0,0.2,0.2,0.4,0.4,0.4c0.2,0,0.4-0.2,0.4-0.4C20.1,125.1,19.9,125,19.7,125z"/>
				</g>
			</g>
		</g>
	</g>
	<g>
		<g>
			<g>
				<rect x="13.7" y="129.3" class="st4" width="35" height="31"/>
				<path class="st1" d="M48.7,161.8h-35c-0.8,0-1.5-0.7-1.5-1.5v-31c0-0.8,0.7-1.5,1.5-1.5h35c0.8,0,1.5,0.7,1.5,1.5v31
					C50.2,161.1,49.5,161.8,48.7,161.8z M15.2,158.8h32v-28h-32V158.8z"/>
			</g>
			<g>
				<g>
					<polygon class="st1" points="-21.9,158 -16.9,138.1 15.2,126.1 19.2,160.3 -22.2,160.3 					"/>
					<path class="st1" d="M19.3,161.8C19.3,161.8,19.2,161.8,19.3,161.8h-41.5c-0.4,0-0.8-0.2-1.1-0.5c-0.3-0.3-0.4-0.8-0.4-1.2
						l0.3-2.3c0-0.1,0-0.1,0-0.2l5-19.9c0.1-0.5,0.5-0.9,0.9-1l32.1-11.9c0.4-0.2,0.9-0.1,1.3,0.1c0.4,0.2,0.7,0.6,0.7,1.1l4,33.9
						c0,0.1,0.1,0.3,0.1,0.4C20.8,161.1,20.1,161.8,19.3,161.8z M-20.5,158.8h38l-3.6-30.6l-29.6,11l-4.8,19.1V158.8z"/>
				</g>
				<g>
					<polygon class="st1" points="85.9,158 80.9,138.1 48.8,126.1 44.8,160.3 86.2,160.3 					"/>
					<path class="st1" d="M86.2,161.8H44.8c-0.4,0-0.8-0.2-1.1-0.5c-0.3-0.3-0.4-0.7-0.4-1.2l4-34.2c0.1-0.5,0.3-0.9,0.7-1.1
						c0.4-0.2,0.9-0.3,1.3-0.1l32.2,11.9c0.5,0.2,0.8,0.6,0.9,1l5,19.9c0,0.1,0,0.1,0,0.2l0.3,2.3c0.1,0.4-0.1,0.9-0.4,1.2
						C87,161.5,86.7,161.8,86.2,161.8z M46.5,158.8h38l-0.1-0.5l-4.8-19.1l-29.6-11L46.5,158.8z"/>
				</g>
			</g>
			<g>
				<path class="st5" d="M43.7,120.2c0,6.6-5.4,11.9-12,11.9l0,0c-6.6,0-12-5.4-12-11.9v-10.7c0-6.6,5.4-11.9,12-11.9l0,0
					c6.6,0,12,5.3,12,11.9V120.2z"/>
				<path class="st1" d="M31.7,133.6c-7.4,0-13.5-6-13.5-13.4v-10.7c0-7.4,6.1-13.4,13.5-13.4s13.5,6,13.5,13.4v10.6
					C45.2,127.6,39.1,133.6,31.7,133.6z M31.7,99.1c-5.8,0-10.5,4.7-10.5,10.4v10.6c0,5.8,4.7,10.4,10.5,10.4s10.5-4.6,10.5-10.3
					v-10.7C42.2,103.8,37.5,99.1,31.7,99.1z"/>
			</g>
			<g>
				<path class="st1" d="M54.7,85.9c0,12.5-10,22.6-22.5,22.6l0,0c-12.5,0-22.5-10.1-22.5-22.6V70.8c0-12.5,10-22.6,22.5-22.6l0,0
					c12.5,0,22.5,10.1,22.5,22.6V85.9z"/>
				<path class="st1" d="M32.2,110.1c-13.2,0-24-10.8-24-24.1V70.8c0-13.3,10.8-24.1,24-24.1s24,10.8,24,24.1v15.1
					C56.2,99.2,45.4,110.1,32.2,110.1z M32.2,49.7c-11.6,0-21,9.5-21,21.1v15.1c0,11.7,9.4,21.1,21,21.1s21-9.5,21-21.1V70.8
					C53.2,59.2,43.8,49.7,32.2,49.7z"/>
			</g>
			<g>
				<path class="st5" d="M54.7,85.9c0,12.5-10,22.6-22.5,22.6l0,0c-12.5,0-22.5-10.1-22.5-22.6V70.8c0-12.5,4.4-3.6,16.9-3.6L35,56
					c12.5,0,19.7,2.4,19.7,14.9V85.9z"/>
				<path class="st1" d="M32.2,110.1c-13.2,0-24-10.8-24-24.1V70.8c0-3.1,0-8.2,4-8.2c1.2,0,2.5,0.4,4.1,1c2.3,0.8,5.5,1.9,9.5,2
					l8-10.6c0.3-0.4,0.7-0.6,1.2-0.6c13.1,0.1,21.2,2.8,21.2,16.4v15.1C56.2,99.2,45.4,110.1,32.2,110.1z M12.2,65.7
					c-0.7,0-1,1.7-1,5.2V86c0,11.7,9.4,21.1,21,21.1s21-9.5,21-21.1V70.8c0-11.1-5.9-13.3-17.4-13.4l-8,10.6
					c-0.3,0.4-0.7,0.6-1.2,0.6c-4.9,0-8.6-1.3-11.2-2.2C14,66.1,12.9,65.7,12.2,65.7z"/>
			</g>
			<g>
				<path class="st1" d="M9.3,75.4c0,0,27.1-1.5,33.1-12.4c0,0,6.7,9.2,11.7,8.9l-1.5-9.7L44.7,56l-16.4,1l-11.2,6.7l-5.2,1
					L9.3,75.4z"/>
				<path class="st1" d="M9.3,76.9c-0.4,0-0.9-0.2-1.1-0.5c-0.3-0.4-0.4-0.8-0.3-1.3l2.5-10.7c0.1-0.6,0.6-1,1.2-1.1l5-0.9l11-6.6
					c0.2-0.1,0.4-0.2,0.7-0.2l16.4-1c0.4,0,0.7,0.1,1,0.3l7.9,6.2c0.3,0.2,0.5,0.6,0.6,1l1.5,9.7c0.1,0.4-0.1,0.8-0.3,1.2
					c-0.3,0.3-0.7,0.5-1.1,0.6c-4.3,0.3-9.3-5-11.7-7.9C34.5,75.4,10.4,76.8,9.3,76.9L9.3,76.9z M13,66l-1.8,7.7
					c2.5-0.2,7.2-0.8,12.1-1.9c9.4-2.2,15.5-5.5,17.8-9.6c0.2-0.5,0.7-0.7,1.2-0.8c0.5,0,1,0.2,1.3,0.6c2,2.7,5.7,6.7,8.7,8l-1.1-7
					l-7-5.5l-15.5,1L17.8,65c-0.2,0.1-0.3,0.2-0.5,0.2L13,66z"/>
			</g>
			<g>
				<g>
					<polygon class="st1" points="24.6,159.4 29.3,136.8 26.8,132.3 31.7,128.9 31.7,161.2 23.5,160.7 					"/>
					<path class="st1" d="M31.7,162.7C31.7,162.7,31.6,162.7,31.7,162.7l-8.3-0.5c-0.6,0-1.1-0.4-1.3-0.9s-0.1-1.1,0.2-1.6l0.8-1
						l4.5-21.7l-2.2-4c-0.4-0.7-0.2-1.5,0.4-2l4.9-3.5c0.5-0.3,1.1-0.4,1.6-0.1c0.5,0.3,0.8,0.8,0.8,1.3V161c0,0.4-0.2,0.8-0.5,1.1
						C32.4,162.5,32.1,162.7,31.7,162.7z M26.1,159.4l4.1,0.2v-19.8L26.1,159.4z M28.7,132.8l1.5,2.6v-3.6L28.7,132.8z"/>
				</g>
				<g>
					<polygon class="st1" points="38.5,159.4 33.8,136.8 36.5,132.3 31.7,128.9 31.7,161.2 39.7,160.7 					"/>
					<path class="st1" d="M31.7,162.7c-0.4,0-0.7-0.1-1-0.4s-0.5-0.7-0.5-1.1v-32.3c0-0.6,0.3-1.1,0.8-1.3c0.5-0.3,1.1-0.2,1.6,0.1
						l4.8,3.5c0.6,0.5,0.8,1.3,0.4,2l-2.4,4l4.5,21.6l0.9,0.9c0.4,0.4,0.5,1,0.3,1.6c-0.2,0.6-0.7,0.9-1.3,1L31.7,162.7
						C31.8,162.7,31.7,162.7,31.7,162.7z M33.2,141.4v18.2l3.8-0.2L33.2,141.4z M33.2,131.8v3l1.3-2.1L33.2,131.8z"/>
				</g>
			</g>
			<g>
				<g>
					<polygon class="st4" points="31.7,130.4 17.3,116 11.1,122.5 22.1,138.1 					"/>
					<path class="st1" d="M22.1,139.6c-0.1,0-0.1,0-0.2,0c-0.4-0.1-0.8-0.3-1-0.6l-11-15.7c-0.4-0.6-0.4-1.4,0.1-1.9l6.1-6.5
						c0.3-0.3,0.7-0.5,1.1-0.5l0,0c0.4,0,0.8,0.2,1.1,0.4l14.4,14.4c0.3,0.3,0.5,0.7,0.4,1.1c0,0.4-0.2,0.8-0.6,1.1l-9.6,7.6
						C22.7,139.5,22.4,139.6,22.1,139.6z M13.1,122.6l9.3,13.3l7.1-5.6l-12.2-12.1L13.1,122.6z"/>
				</g>
				<g>
					<polygon class="st4" points="32.3,130.4 46.8,116 52.9,122.5 42,138.1 					"/>
					<path class="st1" d="M42,139.6c-0.3,0-0.7-0.1-0.9-0.3l-9.6-7.6c-0.3-0.3-0.5-0.7-0.6-1.1c0-0.4,0.1-0.8,0.4-1.1l14.4-14.4
						c0.3-0.3,0.7-0.4,1.1-0.4l0,0c0.4,0,0.8,0.2,1.1,0.5l6.2,6.5c0.5,0.5,0.6,1.3,0.1,1.9l-11,15.3c-0.2,0.3-0.6,0.6-1,0.6
						C42.1,139.6,42,139.6,42,139.6z M34.6,130.3l7,5.6l9.3-13.3l-4.3-4.5L34.6,130.3z"/>
				</g>
			</g>
			<g>
				<rect x="53.2" y="147.8" class="st0" width="15" height="3"/>
			</g>
		</g>
	</g>
</g>
<g id="Layer_3">
	<g>
		<path class="st2" d="M71.2,42.4c-9,0-16.4,7.4-16.4,16.4s7.4,16.4,16.4,16.4s16.4-7.4,16.4-16.4S80.3,42.4,71.2,42.4z M70.4,65.1
			c-1.6,1.6-4.1,1.7-5.6,0.2s-1.4-4,0.2-5.6l2.7-2.7c1.6-1.6,4.1-1.7,5.6-0.2c0,0,0,0,0,0c0,0,0,0,0,0c0,0,0,0,0,0l0,0
			c0.4,0.5,0.4,1.2,0,1.6c-0.5,0.5-1.2,0.5-1.7,0c0,0,0,0,0,0c-0.7-0.7-1.8-0.6-2.6,0.1L66.4,61c-0.7,0.7-0.8,1.9-0.1,2.6
			s1.9,0.7,2.6-0.1l0.9-0.9c0,0,0.4,0.2,1.3,0.2c0.8,0.1,1.6-0.2,1.6-0.2L70.4,65.1z M77.5,57.9l-2.7,2.7c-1.6,1.6-4.1,1.7-5.6,0.2
			c0,0,0,0,0,0c0,0,0,0,0,0c0,0,0,0,0,0l0,0c-0.4-0.5-0.4-1.2,0-1.6c0.5-0.5,1.2-0.5,1.7,0c0,0,0,0,0,0c0.7,0.7,1.8,0.6,2.6-0.1
			l2.5-2.5c0.7-0.7,0.8-1.9,0.1-2.6c-0.7-0.7-1.9-0.7-2.6,0.1L72.5,55c0,0-0.4-0.2-1.2-0.2c-0.8-0.1-1.6,0.2-1.6,0.2l2.4-2.4
			c1.6-1.6,4.1-1.7,5.6-0.2C79.2,53.8,79.1,56.3,77.5,57.9z"/>
		<path class="st1" d="M71.2,40.8c-9.9,0-18,8.1-18,18s8.1,18,18,18s18-8.1,18-18S81.2,40.8,71.2,40.8z M71.2,75.2
			c-9,0-16.4-7.4-16.4-16.4s7.4-16.4,16.4-16.4s16.4,7.4,16.4,16.4S80.3,75.2,71.2,75.2z"/>
		<path class="st4" d="M71.2,37c-12,0-21.8,9.8-21.8,21.8s9.8,21.8,21.8,21.8S93,70.8,93,58.8S83.2,37,71.2,37z M71.2,76.8
			c-9.9,0-18-8.1-18-18s8.1-18,18-18s18,8.1,18,18S81.2,76.8,71.2,76.8z"/>
		<path class="st4" d="M72.1,52.5l-2.4,2.4c0,0,0.8-0.2,1.6-0.2c0.8,0.1,1.2,0.2,1.2,0.2l0.9-0.9c0.7-0.7,1.9-0.8,2.6-0.1
			c0.7,0.7,0.7,1.9-0.1,2.6l-2.5,2.5c-0.7,0.7-1.9,0.8-2.6,0.1c0,0,0,0,0,0c-0.5-0.5-1.2-0.5-1.7,0c-0.4,0.4-0.5,1.2,0,1.6l0,0
			c0,0,0,0,0,0c0,0,0,0,0,0c0,0,0,0,0,0c1.5,1.4,4,1.3,5.6-0.2l2.7-2.7c1.6-1.6,1.7-4.1,0.2-5.6C76.2,50.8,73.7,50.9,72.1,52.5z"/>
		<path class="st4" d="M71.2,62.9c-0.8-0.1-1.3-0.2-1.3-0.2L69,63.6c-0.7,0.7-1.9,0.8-2.6,0.1s-0.7-1.9,0.1-2.6l2.5-2.5
			c0.7-0.7,1.9-0.8,2.6-0.1c0,0,0,0,0,0c0.5,0.5,1.2,0.5,1.7,0c0.4-0.4,0.5-1.2,0-1.6l0,0c0,0,0,0,0,0c0,0,0,0,0,0c0,0,0,0,0,0
			c-1.5-1.4-4-1.3-5.6,0.2l-2.7,2.7c-1.6,1.6-1.7,4.1-0.2,5.6s4,1.4,5.6-0.2l2.4-2.4C72.8,62.7,72,62.9,71.2,62.9z"/>
	</g>
</g>
</svg>
