<?xml version="1.0" encoding="utf-8"?>
<!-- Generator: Adobe Illustrator 19.0.0, SVG Export Plug-In . SVG Version: 6.00 Build 0)  -->
<svg version="1.1" xmlns="http://www.w3.org/2000/svg" xmlns:xlink="http://www.w3.org/1999/xlink" x="0px" y="0px"
	 viewBox="-35 37 128 128" style="enable-background:new -35 37 128 128;" xml:space="preserve">
<style type="text/css">
	.st0{fill:#F9F9F9;}
	.st1{fill:#37474F;}
	.st2{fill:#FFECB3;}
	.st3{fill:#FFFFFF;}
	.st4{fill:#B0BEC5;}
	.st5{fill:#FFAB00;}
	.st6{fill:none;}
</style>
<g id="Layer_4">
	<rect x="-35" y="37" class="st0" width="128" height="128"/>
</g>
<g id="Layer_2">
	<g>
		<g>
			<g>
				<path class="st1" d="M-10,71c-0.9-5.4-5.3-8.9-10.6-8.9s-9.6,3.5-10.6,8.9H-10z"/>
				<path class="st1" d="M-10,71.7h-21.1c-0.2,0-0.4-0.1-0.5-0.3c-0.1-0.2-0.2-0.3-0.1-0.5c1-5.7,5.5-9.4,11.2-9.4
					c5.8,0,10.3,3.8,11.2,9.4c0,0.2,0,0.4-0.1,0.5C-9.6,71.6-9.8,71.7-10,71.7z M-30.3,70.3h19.5c-1.1-4.5-5-7.5-9.8-7.5
					C-25.4,62.8-29.2,65.8-30.3,70.3z"/>
			</g>
			<g>
				<path class="st2" d="M-15,57.7c0,3.1-2.6,5.6-5.7,5.6l0,0c-3,0-5.7-2.5-5.7-5.6v-2.8c0-3,2.6-5.5,5.7-5.5l0,0
					c3.1,0,5.7,2.5,5.7,5.5V57.7z"/>
				<path class="st1" d="M-20.8,63.9c-3.4,0-6.4-2.8-6.4-6.3v-2.8c0-3.4,2.9-6.2,6.4-6.2s6.4,2.8,6.4,6.2v2.8
					C-14.4,61-17.3,63.9-20.8,63.9z M-20.8,50c-2.8,0-5,2.2-5,4.8v2.8c0,2.6,2.3,4.9,5,4.9s5-2.2,5-4.9v-2.8
					C-15.7,52.2-18,50-20.8,50z"/>
			</g>
			<g>
				<path class="st1" d="M-24.4,55.1c2-0.2,4.6-0.7,6.3-2.2c0,0,0.9,0.9,2.2,1.6C-15.4,54-15,53.6-15,53v-1.5c0-1.5-2.6-2.8-5.7-2.8
					c-3,0-5.7,1.3-5.7,2.8v1.4C-26.5,53.8-25.5,54.5-24.4,55.1z"/>
				<path class="st1" d="M-24.4,55.7c-0.1,0-0.2,0-0.3-0.1c-1.6-0.7-2.5-1.7-2.5-2.7v-1.5c0-2.2,3.2-3.5,6.4-3.5
					c3.6,0,6.4,1.5,6.4,3.5v1.4c0,0.9-0.7,1.5-1.1,2c-0.2,0.2-0.5,0.2-0.7,0.1c-0.8-0.4-1.5-0.9-1.8-1.3
					C-19.9,55.1-22.4,55.5-24.4,55.7C-24.3,55.7-24.4,55.7-24.4,55.7z M-20.8,49.3c-2.8,0-5,1.1-5,2.2v1.4c0,0.4,0.6,0.9,1.5,1.4
					c1.8-0.2,4.2-0.7,5.7-2c0.3-0.3,0.7-0.3,0.9,0c0,0,0.6,0.7,1.5,1.2c0.2-0.3,0.3-0.5,0.3-0.6v-1.4
					C-15.7,50.5-17.9,49.3-20.8,49.3z"/>
			</g>
		</g>
	</g>
	<g>
		<g>
			<path class="st1" d="M12.7,96.4c-0.9-5.4-5.3-8.9-10.6-8.9S-7.5,91-8.4,96.4H12.7z"/>
			<path class="st1" d="M12.7,97.1H-8.4c-0.2,0-0.4-0.1-0.5-0.3c-0.1-0.2-0.2-0.3-0.1-0.5c1-5.7,5.5-9.4,11.2-9.4
				c5.8,0,10.3,3.8,11.2,9.4c0,0.2,0,0.4-0.1,0.5C13.1,96.9,12.9,97.1,12.7,97.1z M-7.6,95.7h19.5c-1.1-4.5-4.9-7.5-9.8-7.5
				C-2.7,88.2-6.5,91.2-7.6,95.7z"/>
		</g>
		<g>
			<path class="st2" d="M7.6,83.1c0,3.1-2.3,5.6-5.4,5.6l0,0c-3.1,0-5.4-2.5-5.4-5.6v-2.8c0-3,2.3-5.5,5.4-5.5l0,0
				c3.1,0,5.4,2.5,5.4,5.5V83.1z"/>
			<path class="st1" d="M2.2,89.3c-3.4,0-6.1-2.8-6.1-6.3v-2.8c0-3.5,2.7-6.2,6.1-6.2s6.1,2.8,6.1,6.2V83
				C8.2,86.6,5.5,89.3,2.2,89.3z M2.2,75.4c-2.6,0-4.7,2.2-4.7,4.8V83c0,2.8,2.1,4.9,4.7,4.9s4.7-2.2,4.7-4.9v-2.8
				C6.9,77.6,4.8,75.4,2.2,75.4z"/>
		</g>
		<g>
			<path class="st1" d="M-1.4,80.5c2-0.2,4.5-0.7,6.1-2.2c0,0,0.7,0.9,2,1.6c0.5-0.4,0.8-0.9,0.8-1.5v-1.5c0-1.5-2.3-2.8-5.4-2.8
				s-5.4,1.3-5.4,2.8v1.4C-3.2,79.2-2.6,79.9-1.4,80.5z"/>
			<path class="st1" d="M-1.4,81.1c-0.1,0-0.2,0-0.3-0.1c-1.4-0.6-2.2-1.6-2.2-2.7v-1.5c0-2,2.6-3.5,6.1-3.5s6.1,1.5,6.1,3.5v1.4
				c0,0.7-0.3,1.4-1,2c-0.2,0.2-0.5,0.2-0.7,0.1c-0.8-0.4-1.4-0.9-1.7-1.3C3.3,80.2,1.2,80.9-1.4,81.1L-1.4,81.1z M2.2,74.7
				c-2.8,0-4.7,1.1-4.7,2.2v1.4c0,0.7,0.7,1.1,1.2,1.4c2.5-0.3,4.4-0.9,5.6-2c0.1-0.1,0.3-0.2,0.5-0.2c0.2,0,0.3,0.1,0.5,0.3
				c0,0,0.5,0.6,1.4,1.1c0.3-0.3,0.3-0.5,0.3-0.6v-1.4C6.9,75.9,5,74.7,2.2,74.7z"/>
		</g>
	</g>
	<g>
		<g>
			<path class="st1" d="M18.2,64.1c-0.9-5.4-5.3-8.9-10.6-8.9S-2,58.7-3,64.1H18.2z"/>
			<path class="st1" d="M18.2,64.8H-3c-0.2,0-0.4-0.1-0.5-0.3c-0.1-0.1-0.2-0.3-0.1-0.5c0.9-5.7,5.5-9.4,11.2-9.4
				c5.8,0,10.3,3.8,11.2,9.4c0,0.2,0,0.4-0.1,0.5C18.6,64.7,18.4,64.8,18.2,64.8z M-2.2,63.4h19.5c-1.1-4.5-4.9-7.5-9.8-7.5
				C2.8,55.9-1,58.9-2.2,63.4z"/>
		</g>
		<g>
			<path class="st2" d="M13,50.8c0,3.1-2.3,5.6-5.4,5.6l0,0c-3.1,0-5.4-2.5-5.4-5.6V48c0-3,2.3-5.5,5.4-5.5l0,0
				c3.1,0,5.4,2.5,5.4,5.5V50.8z"/>
			<path class="st1" d="M7.6,57c-3.4,0-6.1-2.8-6.1-6.3V48c0-3.5,2.7-6.2,6.1-6.2s6.1,2.8,6.1,6.2v2.8C13.7,54.3,11,57,7.6,57z
				 M7.6,43.1c-2.6,0-4.7,2.2-4.7,4.8v2.8c0,2.8,2.1,4.9,4.7,4.9s4.7-2.2,4.7-4.9V48C12.3,45.3,10.2,43.1,7.6,43.1z"/>
		</g>
		<g>
			<path class="st1" d="M4,48.2c2-0.2,4.6-0.7,6.2-2.2c0,0,0.7,0.9,2,1.6c0.5-0.4,0.7-0.9,0.7-1.5v-1.5c0-1.5-2.3-2.8-5.4-2.8
				s-5.4,1.3-5.4,2.8V46C2.2,46.9,2.9,47.6,4,48.2z"/>
			<path class="st1" d="M4,48.8c-0.1,0-0.2,0-0.3-0.1c-1.4-0.6-2.2-1.6-2.2-2.7v-1.5c0-2,2.6-3.5,6.1-3.5s6.1,1.5,6.1,3.5V46
				c0,0.7-0.3,1.4-1,2c-0.2,0.2-0.5,0.2-0.7,0.1c-0.8-0.4-1.3-0.9-1.7-1.3C8.7,47.9,6.7,48.6,4,48.8C4.1,48.8,4.1,48.8,4,48.8z
				 M7.6,42.4c-2.8,0-4.7,1.1-4.7,2.2V46c0,0.7,0.7,1.1,1.3,1.4c2.6-0.3,4.4-0.9,5.6-2c0.1-0.1,0.3-0.2,0.5-0.2
				c0.2,0,0.3,0.1,0.5,0.3c0,0,0.5,0.6,1.3,1.1c0.2-0.3,0.2-0.5,0.2-0.6v-1.4C12.3,43.6,10.4,42.4,7.6,42.4z"/>
		</g>
	</g>
</g>
<g id="Layer_1">
	<g>
		<g>
			<g>
				<rect x="28.5" y="129.9" class="st3" width="30.5" height="27"/>
				<path class="st1" d="M59,158.2H28.5c-0.7,0-1.3-0.6-1.3-1.3v-27c0-0.7,0.6-1.3,1.3-1.3H59c0.7,0,1.3,0.6,1.3,1.3v27
					C60.3,157.6,59.7,158.2,59,158.2z M29.8,155.6h27.9v-24.4H29.8V155.6z"/>
			</g>
			<g>
				<g>
					<polygon class="st1" points="-2.5,154.9 1.8,137.6 29.8,127.1 33.3,156.9 -2.8,156.9 					"/>
					<path class="st1" d="M33.4,158.2C33.4,158.2,33.3,158.2,33.4,158.2H-2.8c-0.3,0-0.7-0.2-1-0.4c-0.3-0.3-0.3-0.7-0.3-1l0.3-2
						c0-0.1,0-0.1,0-0.2l4.4-17.3c0.1-0.4,0.4-0.8,0.8-0.9l28-10.4c0.3-0.2,0.8-0.1,1.1,0.1c0.3,0.2,0.6,0.5,0.6,1l3.5,29.5
						c0,0.1,0.1,0.3,0.1,0.3C34.7,157.6,34.1,158.2,33.4,158.2z M-1.3,155.6h33.1l-3.1-26.7l-25.8,9.6l-4.2,16.6V155.6z"/>
				</g>
				<g>
					<polygon class="st1" points="91.4,154.9 87.1,137.6 59.1,127.1 55.6,156.9 91.7,156.9 					"/>
					<path class="st1" d="M91.7,158.2H55.6c-0.3,0-0.7-0.2-1-0.4c-0.3-0.3-0.3-0.6-0.3-1l3.5-29.8c0.1-0.4,0.3-0.8,0.6-1
						c0.3-0.2,0.8-0.3,1.1-0.1l28.1,10.4c0.4,0.2,0.7,0.5,0.8,0.9l4.4,17.3c0,0.1,0,0.1,0,0.2l0.3,2c0.1,0.3-0.1,0.8-0.3,1
						C92.4,158,92.1,158.2,91.7,158.2z M57.1,155.6h33.1l-0.1-0.4l-4.2-16.6l-25.8-9.6L57.1,155.6z"/>
				</g>
			</g>
			<g>
				<path class="st2" d="M54.6,122c0,5.8-4.7,10.4-10.5,10.4l0,0c-5.8,0-10.5-4.7-10.5-10.4v-9.3c0-5.8,4.7-10.4,10.5-10.4l0,0
					c5.8,0,10.5,4.6,10.5,10.4V122z"/>
				<path class="st1" d="M44.2,133.6c-6.4,0-11.8-5.2-11.8-11.7v-9.3c0-6.4,5.3-11.7,11.8-11.7s11.8,5.2,11.8,11.7v9.2
					C55.9,128.4,50.6,133.6,44.2,133.6z M44.2,103.6c-5.1,0-9.1,4.1-9.1,9.1v9.2c0,5.1,4.1,9.1,9.1,9.1s9.1-4,9.1-9v-9.3
					C53.3,107.7,49.2,103.6,44.2,103.6z"/>
			</g>
			<g>
				<path class="st1" d="M64.2,92.1c0,10.9-8.7,19.7-19.6,19.7l0,0C33.7,111.8,25,103,25,92.1V78.9c0-10.9,8.7-19.7,19.6-19.7l0,0
					c10.9,0,19.6,8.8,19.6,19.7V92.1z"/>
				<path class="st1" d="M44.6,113.2c-11.5,0-20.9-9.4-20.9-21V78.9c0-11.6,9.4-21,20.9-21s20.9,9.4,20.9,21v13.2
					C65.5,103.7,56.1,113.2,44.6,113.2z M44.6,60.5c-10.1,0-18.3,8.3-18.3,18.4v13.2c0,10.2,8.2,18.4,18.3,18.4s18.3-8.3,18.3-18.4
					V78.9C62.9,68.8,54.7,60.5,44.6,60.5z"/>
			</g>
			<g>
				<path class="st2" d="M64.2,92.1c0,10.9-8.7,19.7-19.6,19.7l0,0C33.7,111.8,25,103,25,92.1V78.9c0-10.9,3.8-3.1,14.7-3.1l7.3-9.8
					c10.9,0,17.2,2.1,17.2,13V92.1z"/>
				<path class="st1" d="M44.6,113.2c-11.5,0-20.9-9.4-20.9-21V78.9c0-2.7,0-7.1,3.5-7.1c1,0,2.2,0.3,3.6,0.9c2,0.7,4.8,1.7,8.3,1.7
					l7-9.2c0.3-0.3,0.6-0.5,1-0.5c11.4,0.1,18.5,2.4,18.5,14.3v13.2C65.5,103.7,56.1,113.2,44.6,113.2z M27.2,74.5
					c-0.6,0-0.9,1.5-0.9,4.5v13.2c0,10.2,8.2,18.4,18.3,18.4s18.3-8.3,18.3-18.4V78.9c0-9.7-5.1-11.6-15.2-11.7l-7,9.2
					c-0.3,0.3-0.6,0.5-1,0.5c-4.3,0-7.5-1.1-9.8-1.9C28.8,74.8,27.8,74.5,27.2,74.5z"/>
			</g>
			<g>
				<path class="st1" d="M24.7,82.9c0,0,23.6-1.3,28.8-10.8c0,0,5.8,8,10.2,7.8l-1.3-8.5L55.5,66l-14.3,0.9l-9.8,5.8l-4.5,0.9
					L24.7,82.9z"/>
				<path class="st1" d="M24.7,84.2c-0.3,0-0.8-0.2-1-0.4c-0.3-0.3-0.3-0.7-0.3-1.1l2.2-9.3c0.1-0.5,0.5-0.9,1-1l4.4-0.8l9.6-5.8
					c0.2-0.1,0.3-0.2,0.6-0.2l14.3-0.9c0.3,0,0.6,0.1,0.9,0.3l6.9,5.4c0.3,0.2,0.4,0.5,0.5,0.9l1.3,8.5c0.1,0.3-0.1,0.7-0.3,1
					c-0.3,0.3-0.6,0.4-1,0.5c-3.7,0.3-8.1-4.4-10.2-6.9C46.6,82.9,25.6,84.2,24.7,84.2L24.7,84.2z M27.9,74.7l-1.6,6.7
					c2.2-0.2,6.3-0.7,10.5-1.7c8.2-1.9,13.5-4.8,15.5-8.4c0.2-0.4,0.6-0.6,1-0.7c0.4,0,0.9,0.2,1.1,0.5c1.7,2.4,5,5.8,7.6,7l-1-6.1
					l-6.1-4.8l-13.5,0.9l-9.5,5.7C31.9,74,31.8,74,31.6,74L27.9,74.7z"/>
			</g>
			<g>
				<g>
					<polygon class="st1" points="38,156.1 42.1,136.4 39.9,132.5 44.2,129.5 44.2,157.7 37,157.3 					"/>
					<path class="st1" d="M44.2,159C44.2,159,44.1,159,44.2,159l-7.2-0.4c-0.5,0-1-0.3-1.1-0.8c-0.2-0.4-0.1-1,0.2-1.4l0.7-0.9
						l3.9-18.9l-1.9-3.5c-0.3-0.6-0.2-1.3,0.3-1.7l4.3-3c0.4-0.3,1-0.3,1.4-0.1c0.4,0.3,0.7,0.7,0.7,1.1v28.1c0,0.3-0.2,0.7-0.4,1
						C44.8,158.8,44.5,159,44.2,159z M39.3,156.1l3.6,0.2V139L39.3,156.1z M41.6,132.9l1.3,2.3v-3.1L41.6,132.9z"/>
				</g>
				<g>
					<polygon class="st1" points="50.1,156.1 46,136.4 48.4,132.5 44.2,129.5 44.2,157.7 51.2,157.3 					"/>
					<path class="st1" d="M44.2,159c-0.3,0-0.6-0.1-0.9-0.3c-0.3-0.3-0.4-0.6-0.4-1v-28.1c0-0.5,0.3-1,0.7-1.1
						c0.4-0.3,1-0.2,1.4,0.1l4.2,3c0.5,0.4,0.7,1.1,0.3,1.7l-2.1,3.5l3.9,18.8l0.8,0.8c0.3,0.3,0.4,0.9,0.3,1.4
						c-0.2,0.5-0.6,0.8-1.1,0.9L44.2,159C44.3,159,44.2,159,44.2,159z M45.5,140.4v15.9l3.3-0.2L45.5,140.4z M45.5,132.1v2.6
						l1.1-1.8L45.5,132.1z"/>
				</g>
			</g>
			<g>
				<g>
					<polygon class="st3" points="44.2,130.9 31.6,118.3 26.2,124 35.8,137.6 					"/>
					<path class="st1" d="M35.8,138.9c-0.1,0-0.1,0-0.2,0c-0.3-0.1-0.7-0.3-0.9-0.5l-9.6-13.7c-0.3-0.5-0.3-1.2,0.1-1.7l5.3-5.7
						c0.3-0.3,0.6-0.4,1-0.4l0,0c0.3,0,0.7,0.2,1,0.3l12.5,12.5c0.3,0.3,0.4,0.6,0.3,1c0,0.3-0.2,0.7-0.5,1l-8.4,6.6
						C36.3,138.8,36.1,138.9,35.8,138.9z M28,124.1l8.1,11.6l6.2-4.9l-10.6-10.5L28,124.1z"/>
				</g>
				<g>
					<polygon class="st3" points="44.7,130.9 57.3,118.3 62.7,124 53.2,137.6 					"/>
					<path class="st1" d="M53.2,138.9c-0.3,0-0.6-0.1-0.8-0.3L44,132c-0.3-0.3-0.4-0.6-0.5-1c0-0.3,0.1-0.7,0.3-1l12.5-12.5
						c0.3-0.3,0.6-0.3,1-0.3l0,0c0.3,0,0.7,0.2,1,0.4l5.4,5.7c0.4,0.4,0.5,1.1,0.1,1.7l-9.6,13.3c-0.2,0.3-0.5,0.5-0.9,0.5
						C53.2,138.9,53.2,138.9,53.2,138.9z M46.7,130.8l6.1,4.9l8.1-11.6l-3.7-3.9L46.7,130.8z"/>
				</g>
			</g>
			<g>
				<rect x="62.9" y="146" class="st4" width="13.1" height="2.6"/>
			</g>
		</g>
	</g>
</g>
<g id="Layer_3">
	<g>
		<circle class="st0" cx="-7.9" cy="129.7" r="19.7"/>
		<g>
			<g>
				<g>
					<path class="st5" d="M-9,106.3c-13.3,0-24.1,10.8-24.1,24s10.8,24,24,24s24-10.8,24-24C15,117.1,4.2,106.3-9,106.3z M-9,147.8
						c-9.6,0-17.5-7.8-17.5-17.5c0-9.6,7.8-17.5,17.5-17.5s17.5,7.8,17.5,17.5C8.4,140,0.6,147.8-9,147.8z"/>
					<path class="st1" d="M-9,155.2c-13.7,0-24.9-11.2-24.9-24.9s11.2-24.9,24.9-24.9s24.9,11.2,24.9,24.9S4.7,155.2-9,155.2z
						 M-9,107.1c-12.8,0-23.3,10.4-23.3,23.2s10.4,23.2,23.2,23.2c12.8,0,23.2-10.4,23.2-23.2C14.2,117.5,3.7,107.1-9,107.1z
						 M-9,148.7c-10.1,0-18.3-8.2-18.3-18.3s8.2-18.3,18.3-18.3s18.3,8.2,18.3,18.3S1,148.7-9,148.7z M-9,113.7
						c-9.2,0-16.6,7.4-16.6,16.6S-18.2,147-9,147s16.6-7.5,16.6-16.7S0.1,113.7-9,113.7z"/>
				</g>
				<g>
					<path class="st3" d="M8.4,129.9c0,0.4,0,0.2,0,0.3c0,9.6-7.8,17.5-17.5,17.5s-17.5-7.8-17.5-17.5c0-9.6,7.7-17.5,17.4-17.5
						c0.1,0,0.2,0,0.2,0v-6.6c0,0-0.1,0-0.2,0c-13.3,0-24,10.8-24,24s10.8,24,24.1,24s24-10.8,24-24.1c0-0.1,0,0.1,0-0.3L8.4,129.9
						L8.4,129.9z"/>
					<path class="st1" d="M-9.1,155.2c-13.7,0-24.9-11.2-24.9-24.9s11.1-24.9,24.8-24.9c0.2,0,0.4,0,0.4,0.1
						c0.3,0.1,0.6,0.4,0.6,0.8v6.6c0,0.3-0.1,0.5-0.4,0.7c-0.2,0.1-0.5,0.2-0.7,0.1c-9.1,0-16.5,7.5-16.5,16.6
						c0,9.2,7.4,16.6,16.6,16.6c9.1,0,16.6-7.4,16.6-16.6c0-0.1,0-0.3,0-0.4c0-0.5,0.4-0.8,0.8-0.8h6.6c0.5,0,0.8,0.4,0.8,0.8
						c0,0.1,0,0.1,0,0.2s0,0.1,0,0.2C15.8,144.1,4.7,155.2-9.1,155.2z M-9.8,107.1c-12.5,0.4-22.5,10.6-22.5,23.2
						c0,12.8,10.4,23.2,23.3,23.2c12.6,0,23-10.2,23.2-22.8H9.2c-0.3,9.9-8.4,17.8-18.3,17.8c-10.1,0-18.3-8.2-18.3-18.3
						c0-9.8,7.8-17.9,17.5-18.3C-9.8,112-9.8,107.1-9.8,107.1z M9.2,129.9L9.2,129.9c-0.1-0.2-0.2-0.4-0.5-0.5
						C8.9,129.5,9.1,129.7,9.2,129.9z"/>
				</g>
				<g>
					<g>
						<line class="st6" x1="-9" y1="117.1" x2="-9" y2="125.4"/>
						<path class="st1" d="M-9,126.2c-0.5,0-0.8-0.4-0.8-0.8v-8.3c0-0.5,0.4-0.8,0.8-0.8c0.5,0,0.8,0.4,0.8,0.8v8.3
							C-8.2,125.9-8.5,126.2-9,126.2z"/>
					</g>
					<polygon class="st5" points="-8.2,133.6 -8.2,130.4 6.8,130.4 					"/>
				</g>
				<g>
					<path class="st1" d="M-10.2,132.9v2.9h-1.7v2.1h-2.9v-2.1h-7.3l10.2-13v10.1H-10.2z M-14.8,130.4l-1.9,2.4h1.9V130.4z"/>
				</g>
			</g>
			<g>
				<g>
					<path class="st1" d="M-4.9,130.4c0,0.4-0.3,0.7-0.7,0.7s-0.8-0.3-0.7-0.7c0-0.4,0.3-0.7,0.7-0.7
						C-5.2,129.6-4.9,129.9-4.9,130.4z"/>
					<path class="st1" d="M-5.7,131.3L-5.7,131.3c-0.2,0-0.5-0.1-0.7-0.3c-0.2-0.2-0.3-0.4-0.2-0.7c0-0.5,0.4-1,1-1l0,0
						c0.5,0,1,0.4,1,1C-4.7,130.9-5.1,131.3-5.7,131.3L-5.7,131.3z M-5.7,129.8c-0.3,0-0.6,0.2-0.6,0.5c0,0.2,0,0.3,0.2,0.4
						c0.1,0.1,0.2,0.2,0.4,0.2c0.3,0,0.5-0.2,0.5-0.5C-5.1,130.1-5.4,129.8-5.7,129.8z"/>
				</g>
				<g>
					<path class="st1" d="M0.3,130.4c0,0.4-0.3,0.7-0.7,0.7s-0.7-0.3-0.7-0.7s0.3-0.7,0.7-0.7S0.3,129.9,0.3,130.4z"/>
					<path class="st1" d="M-0.4,131.3L-0.4,131.3c-0.5,0-1-0.4-1-1c0-0.5,0.5-1,1-1c0.5,0,1,0.5,1,1c0,0.2-0.1,0.5-0.3,0.7
						C0.1,131.2-0.1,131.3-0.4,131.3z M-0.4,129.8c-0.3,0-0.5,0.2-0.5,0.5c0,0.3,0.2,0.5,0.5,0.5l0,0c0.1,0,0.3,0,0.4-0.2
						c0.1-0.1,0.2-0.2,0.2-0.4C0.1,130.1-0.1,129.8-0.4,129.8z"/>
				</g>
				<g>
					<path class="st1" d="M5.6,130.4c0,0.4-0.3,0.7-0.7,0.7c-0.4,0-0.7-0.3-0.7-0.7s0.3-0.7,0.7-0.7C5.3,129.6,5.6,129.9,5.6,130.4z
						"/>
					<path class="st1" d="M4.9,131.3L4.9,131.3c-0.2,0-0.5-0.1-0.7-0.3c-0.2-0.2-0.3-0.4-0.3-0.7c0-0.5,0.4-1,1-1s1,0.4,1,1
						C5.9,130.9,5.4,131.3,4.9,131.3L4.9,131.3z M4.9,129.8c-0.3,0-0.6,0.2-0.6,0.5c0,0.2,0,0.3,0.2,0.4c0.1,0.1,0.2,0.2,0.4,0.2
						c0.3,0,0.5-0.2,0.5-0.5C5.4,130.1,5.2,129.8,4.9,129.8z"/>
				</g>
			</g>
		</g>
	</g>
</g>
</svg>
