<?xml version="1.0" encoding="utf-8"?>
<!-- Generator: Adobe Illustrator 19.0.0, SVG Export Plug-In . SVG Version: 6.00 Build 0)  -->
<svg version="1.1" xmlns="http://www.w3.org/2000/svg" xmlns:xlink="http://www.w3.org/1999/xlink" x="0px" y="0px"
	 viewBox="-35 37 128 128" style="enable-background:new -35 37 128 128;" xml:space="preserve">
<style type="text/css">
	.st0{fill:#FFAB00;}
	.st1{fill:#37474F;}
	.st2{fill:#FFECB3;}
	.st3{fill:#FFFFFF;}
	.st4{fill:none;}
</style>
<g id="Layer_2">
	<g id="Layer_2_7_">
		<g id="Layer_1_4_">
			<g id="Layer_2_8_">
				<g>
					<g>
						<path class="st0" d="M77.8,101c0,26.9-21.8,48.8-48.8,48.8S-19.8,128-19.8,101S2.1,52.2,29,52.2S77.8,74.1,77.8,101z"/>
						<path class="st1" d="M29,151c-27.5,0-50-22.4-50-50c0-27.5,22.4-50,50-50c27.5,0,50,22.4,50,50C79,128.5,56.5,151,29,151z
							 M29,53.5c-26.2,0-47.5,21.3-47.5,47.5S2.8,148.5,29,148.5s47.5-21.3,47.5-47.5S55.2,53.5,29,53.5z"/>
					</g>
					<g>
						<path class="st2" d="M67.9,101c0,21.5-17.4,38.9-38.9,38.9S-9.9,122.5-9.9,101S7.5,62.1,29,62.1S67.9,79.5,67.9,101z"/>
						<path class="st1" d="M29,141.1c-22.2,0-40.1-18.1-40.1-40.1C-11.1,78.8,7,60.9,29,60.9S69.1,79,69.1,101
							C69.1,123.2,51.2,141.1,29,141.1z M29,63.3C8.2,63.3-8.7,80.2-8.7,101S8.2,138.7,29,138.7s37.7-16.9,37.7-37.7
							S49.8,63.3,29,63.3z"/>
					</g>
					<g>
						<g>
							<polygon class="st1" points="17.4,121.8 51.4,101 17.4,80.2 							"/>
							<path class="st1" d="M17.4,123c-0.2,0-0.4,0-0.5-0.2c-0.4-0.2-0.7-0.7-0.7-1.1V80.2c0-0.4,0.2-0.9,0.7-1.1
								c0.4-0.2,0.9-0.2,1.2,0l34,20.8c0.4,0.2,0.5,0.7,0.5,1.1s-0.2,0.9-0.5,1.1l-34,20.8C17.7,123,17.6,123,17.4,123z M18.6,82.3
								v37.1l30.3-18.7L18.6,82.3z"/>
						</g>
					</g>
				</g>
			</g>
		</g>
	</g>
</g>
<g id="Layer_1">
	<g id="Layer_1_1_">
		<g id="Layer_3">
			<g id="Layer_2_3_">
				<g id="Layer_2_4_">
					<g>
						<path class="st0" d="M63.8,78.5c8.9,0,16.3-7.4,16.3-16.3s-7.4-16.3-16.3-16.3s-16.3,7.4-16.3,16.3S54.8,78.5,63.8,78.5z"/>
						<path class="st1" d="M63.8,80.2c9.8,0,17.9-8,17.9-17.9s-8-17.9-17.9-17.9s-17.9,8-17.9,17.9S54,80.2,63.8,80.2z M63.8,45.9
							c8.9,0,16.3,7.4,16.3,16.3s-7.3,16.3-16.3,16.3s-16.2-7.4-16.2-16.3S54.8,45.9,63.8,45.9z"/>
						<path class="st3" d="M63.8,83.8c11.9,0,21.7-9.7,21.7-21.7s-9.7-21.6-21.7-21.6s-21.7,9.7-21.7,21.7S51.9,83.8,63.8,83.8z
							 M63.8,44.3c9.8,0,17.9,8,17.9,17.9s-8,17.9-17.9,17.9s-17.9-8-17.9-17.9S54,44.3,63.8,44.3z"/>
					</g>
				</g>
			</g>
		</g>
		<g>
			<path class="st3" d="M60.9,70.1h-6.4c-0.9,0-1.7-0.8-1.7-1.7V55.5c0-0.9,0.8-1.7,1.7-1.7h6.4c0.4,0,0.7,0.3,0.7,0.7
				s-0.3,0.7-0.7,0.7h-6.4c-0.2,0-0.3,0.1-0.3,0.3v12.9c0,0.2,0.2,0.3,0.3,0.3h6.4c0.4,0,0.7,0.3,0.7,0.7
				C61.6,69.8,61.3,70.1,60.9,70.1z"/>
			<path class="st3" d="M71.8,69.4c0-0.4,0.3-0.7,0.7-0.7l0,0c0.4,0,0.7,0.3,0.7,0.7l0,0c0,0.4-0.3,0.7-0.7,0.7l0,0
				C72.1,70.1,71.8,69.8,71.8,69.4z M69.8,69.4c0-0.4,0.3-0.7,0.7-0.7l0,0c0.4,0,0.7,0.3,0.7,0.7l0,0c0,0.4-0.3,0.7-0.7,0.7l0,0
				C70.1,70.1,69.8,69.8,69.8,69.4z M67.7,69.4c0-0.4,0.3-0.7,0.7-0.7l0,0c0.4,0,0.7,0.3,0.7,0.7l0,0c0,0.4-0.3,0.7-0.7,0.7l0,0
				C68,70.1,67.7,69.8,67.7,69.4z M65.7,69.4c0-0.4,0.3-0.7,0.7-0.7l0,0c0.4,0,0.7,0.3,0.7,0.7l0,0c0,0.4-0.3,0.7-0.7,0.7l0,0
				C66,70.1,65.7,69.8,65.7,69.4z M73.1,68.2c0-0.4,0.3-0.7,0.7-0.7l0,0c0.4,0,0.7,0.3,0.7,0.7l0,0c0,0.4-0.3,0.7-0.7,0.7l0,0
				C73.4,68.9,73.1,68.6,73.1,68.2z M73.1,66.2c0-0.4,0.3-0.7,0.7-0.7l0,0c0.4,0,0.7,0.3,0.7,0.7l0,0c0,0.4-0.3,0.7-0.7,0.7l0,0
				C73.4,66.9,73.1,66.6,73.1,66.2z M73.1,64.2c0-0.4,0.3-0.7,0.7-0.7l0,0c0.4,0,0.7,0.3,0.7,0.7l0,0c0,0.4-0.3,0.7-0.7,0.7l0,0
				C73.4,64.8,73.1,64.5,73.1,64.2z M73.1,62.1c0-0.4,0.3-0.7,0.7-0.7l0,0c0.4,0,0.7,0.3,0.7,0.7l0,0c0,0.4-0.3,0.7-0.7,0.7l0,0
				C73.4,62.8,73.1,62.5,73.1,62.1z M73.1,60.1c0-0.4,0.3-0.7,0.7-0.7l0,0c0.4,0,0.7,0.3,0.7,0.7l0,0c0,0.4-0.3,0.7-0.7,0.7l0,0
				C73.4,60.8,73.1,60.5,73.1,60.1z M73.1,58.1c0-0.4,0.3-0.7,0.7-0.7l0,0c0.4,0,0.7,0.3,0.7,0.7l0,0c0,0.4-0.3,0.7-0.7,0.7l0,0
				C73.4,58.7,73.1,58.4,73.1,58.1z M73.1,56c0-0.4,0.3-0.7,0.7-0.7l0,0c0.4,0,0.7,0.3,0.7,0.7l0,0c0,0.4-0.3,0.7-0.7,0.7l0,0
				C73.4,56.7,73.1,56.4,73.1,56z M72.8,55.2L72.8,55.2L72.8,55.2c-0.4,0-0.7-0.4-0.6-0.7l0,0c0-0.4,0.4-0.7,0.7-0.6l0,0
				c0.4,0,0.7,0.4,0.6,0.7l0,0C73.5,54.9,73.2,55.2,72.8,55.2L72.8,55.2L72.8,55.2z M70.1,54.5c0-0.4,0.3-0.7,0.7-0.7l0,0
				c0.4,0,0.7,0.3,0.7,0.7l0,0c0,0.4-0.3,0.7-0.7,0.7l0,0C70.4,55.2,70.1,54.9,70.1,54.5z M68.1,54.5c0-0.4,0.3-0.7,0.7-0.7l0,0
				c0.4,0,0.7,0.3,0.7,0.7l0,0c0,0.4-0.3,0.7-0.7,0.7l0,0C68.4,55.2,68.1,54.9,68.1,54.5z M66.1,54.5c0-0.4,0.3-0.7,0.7-0.7l0,0
				c0.4,0,0.7,0.3,0.7,0.7l0,0c0,0.4-0.3,0.7-0.7,0.7l0,0C66.4,55.2,66.1,54.9,66.1,54.5z"/>
			<path class="st3" d="M63.6,72.8c-0.4,0-0.7-0.3-0.7-0.7V51.8c0-0.4,0.3-0.7,0.7-0.7s0.7,0.3,0.7,0.7v20.3
				C64.3,72.5,64,72.8,63.6,72.8z"/>
		</g>
	</g>
</g>
<g id="Layer_3_1_">
	<g id="Layer_1_2_">
		<g id="Layer_1_3_">
			<g id="Layer_1_5_">
				<g id="Layer_1_6_">
					<g>
						<g>
							<g>
								<polygon class="st3" points="72.8,119 50,119 50,154.9 77.3,154.9 77.3,123.6 								"/>
								<path class="st1" d="M77.9,155.5H49.4v-37.1H73l4.8,4.9L77.9,155.5L77.9,155.5z M50.5,154.4h26.1v-30.5l-4.1-4.2h-22V154.4z
									"/>
							</g>
							<g>
								<polyline class="st0" points="77.1,124.1 71.8,124.1 71.8,119.2 								"/>
								<path class="st1" d="M77.1,124.7h-5.3c-0.3,0-0.6-0.3-0.6-0.6v-4.9c0-0.3,0.3-0.6,0.6-0.6c0.3,0,0.6,0.3,0.6,0.6v4.3h4.7
									c0.3,0,0.6,0.3,0.6,0.6C77.6,124.3,77.4,124.7,77.1,124.7z"/>
							</g>
							<g>
								<g>
									<g>
										<g>
											<path class="st1" d="M73.2,141.4H54.1c-0.3,0-0.6-0.3-0.6-0.6s0.3-0.6,0.6-0.6h19.1c0.3,0,0.6,0.3,0.6,0.6
												S73.5,141.4,73.2,141.4z"/>
										</g>
									</g>
									<g>
										<g>
											<path class="st1" d="M73.2,144.2H54.1c-0.3,0-0.6-0.3-0.6-0.6c0-0.3,0.3-0.6,0.6-0.6h19.1c0.3,0,0.6,0.3,0.6,0.6
												C73.7,143.9,73.5,144.2,73.2,144.2z"/>
										</g>
									</g>
									<g>
										<g>
											<path class="st1" d="M73.2,147.3H54.1c-0.3,0-0.6-0.3-0.6-0.6c0-0.3,0.3-0.6,0.6-0.6h19.1c0.3,0,0.6,0.3,0.6,0.6
												C73.8,147,73.5,147.3,73.2,147.3z"/>
										</g>
									</g>
									<g>
										<g>
											<path class="st1" d="M73.2,150H54.1c-0.3,0-0.6-0.3-0.6-0.6c0-0.3,0.3-0.6,0.6-0.6h19.1c0.3,0,0.6,0.3,0.6,0.6
												C73.8,149.8,73.5,150,73.2,150z"/>
										</g>
									</g>
								</g>
								<g>
									<g>
										<g>
											<path class="st1" d="M73.2,130.1H54.1c-0.3,0-0.6-0.3-0.6-0.6s0.3-0.6,0.6-0.6h19.1c0.3,0,0.6,0.3,0.6,0.6
												S73.5,130.1,73.2,130.1z"/>
										</g>
									</g>
									<g>
										<g>
											<path class="st1" d="M73.2,132.9H54.1c-0.3,0-0.6-0.3-0.6-0.6s0.3-0.6,0.6-0.6h19.1c0.3,0,0.6,0.3,0.6,0.6
												S73.5,132.9,73.2,132.9z"/>
										</g>
									</g>
									<g>
										<g>
											<path class="st1" d="M73.2,135.6H54.1c-0.3,0-0.6-0.3-0.6-0.6s0.3-0.6,0.6-0.6h19.1c0.3,0,0.6,0.3,0.6,0.6
												S73.5,135.6,73.2,135.6z"/>
										</g>
									</g>
									<g>
										<g>
											<path class="st1" d="M73.2,138.3H54.1c-0.3,0-0.6-0.3-0.6-0.6c0-0.3,0.3-0.6,0.6-0.6h19.1c0.3,0,0.6,0.3,0.6,0.6
												C73.7,138,73.5,138.3,73.2,138.3z"/>
										</g>
									</g>
								</g>
							</g>
						</g>
						<g>
							<g>
								<path class="st1" d="M56.2,124.3c0,0.3-0.2,0.5-0.5,0.5c-0.3,0-0.5-0.2-0.5-0.5s0.2-0.5,0.5-0.5
									C55.9,123.7,56.2,124,56.2,124.3z"/>
								<path class="st1" d="M55.7,125c-0.4,0-0.7-0.4-0.7-0.7c0-0.4,0.4-0.7,0.7-0.7c0.4,0,0.7,0.4,0.7,0.7
									C56.4,124.7,56,125,55.7,125z M55.7,123.9c-0.2,0-0.4,0.2-0.4,0.4s0.2,0.4,0.4,0.4s0.4-0.2,0.4-0.4S55.9,123.9,55.7,123.9z"
									/>
							</g>
							<g>
								<path class="st1" d="M60.1,124.3c0,0.3-0.2,0.5-0.5,0.5c-0.3,0-0.5-0.2-0.5-0.5s0.2-0.5,0.5-0.5
									C59.8,123.7,60.1,124,60.1,124.3z"/>
								<path class="st1" d="M59.5,125c-0.4,0-0.7-0.4-0.7-0.7c0-0.4,0.4-0.7,0.7-0.7c0.4,0,0.7,0.4,0.7,0.7
									C60.3,124.7,59.9,125,59.5,125z M59.5,123.9c-0.2,0-0.4,0.2-0.4,0.4s0.2,0.4,0.4,0.4c0.2,0,0.4-0.2,0.4-0.4
									C59.9,124.1,59.7,123.9,59.5,123.9z"/>
							</g>
							<g>
								<path class="st1" d="M64,124.3c0,0.3-0.2,0.5-0.5,0.5c-0.3,0-0.5-0.2-0.5-0.5s0.2-0.6,0.5-0.6C63.7,123.7,64,124,64,124.3z"
									/>
								<path class="st1" d="M63.4,125c-0.4,0-0.7-0.4-0.7-0.7c0-0.4,0.4-0.7,0.7-0.7c0.4,0,0.7,0.4,0.7,0.7
									C64.2,124.7,63.8,125,63.4,125z M63.4,123.9c-0.2,0-0.4,0.2-0.4,0.4s0.2,0.4,0.4,0.4c0.2,0,0.4-0.2,0.4-0.4
									S63.6,123.9,63.4,123.9z"/>
							</g>
						</g>
					</g>
				</g>
			</g>
			<g id="Layer_2_1_">
				<g>
					<polyline class="st3" points="62.8,124 56.9,126 58.9,120.1 					"/>
					<path class="st1" d="M56.9,126.5c-0.1,0-0.2,0-0.3-0.1c-0.1-0.1-0.2-0.3-0.1-0.5l2-5.9c0.1-0.2,0.3-0.4,0.5-0.3
						s0.4,0.3,0.3,0.5l-1.7,5l5-1.7c0.2-0.1,0.5,0,0.5,0.3c0.1,0.2,0,0.5-0.3,0.5l-5.9,2C57,126.5,57,126.5,56.9,126.5z"/>
				</g>
				<g>
					<polyline class="st2" points="62.1,116.7 59.4,119.5 63.4,123.4 70.3,116.6 					"/>
					<path class="st1" d="M63.4,123.9c-0.1,0-0.2,0-0.3-0.1l-4-4c-0.2-0.2-0.2-0.4,0-0.6l2.7-2.7c0.2-0.2,0.4-0.2,0.6,0
						c0.2,0.2,0.2,0.4,0,0.6l-2.4,2.4l3.4,3.4l6.5-6.5c0.2-0.2,0.4-0.2,0.6,0c0.2,0.2,0.2,0.4,0,0.6l-6.8,6.8
						C63.6,123.9,63.6,123.9,63.4,123.9z"/>
				</g>
				<g>
					<polyline class="st0" points="62.1,116.7 59.4,119.5 61.4,121.5 66.4,116.5 					"/>
					<path class="st1" d="M61.4,121.9c-0.1,0-0.2,0-0.3-0.1l-2-2c-0.2-0.2-0.2-0.4,0-0.6l2.7-2.7c0.2-0.2,0.4-0.2,0.6,0
						c0.2,0.2,0.2,0.4,0,0.6l-2.4,2.4l1.4,1.4l4.6-4.6c0.2-0.2,0.4-0.2,0.6,0c0.2,0.2,0.2,0.4,0,0.6l-5,4.9
						C61.7,121.9,61.6,121.9,61.4,121.9z"/>
				</g>
				<g>
					<line class="st4" x1="58" y1="122.9" x2="60" y2="124.8"/>
					<path class="st1" d="M60,125.3c-0.1,0-0.2,0-0.3-0.1l-1.9-1.9c-0.2-0.2-0.2-0.4,0-0.6c0.2-0.2,0.4-0.2,0.6,0l1.9,1.9
						c0.2,0.2,0.2,0.4,0,0.6C60.2,125.2,60.1,125.3,60,125.3z"/>
				</g>
			</g>
		</g>
	</g>
</g>
</svg>
