<?xml version="1.0" encoding="UTF-8"?>
<svg width="128px" height="126px" viewBox="0 0 128 126" version="1.1" xmlns="http://www.w3.org/2000/svg" xmlns:xlink="http://www.w3.org/1999/xlink">
    <!-- Generator: Sketch 43.1 (39012) - http://www.bohemiancoding.com/sketch -->
    <title>07</title>
    <desc>Created with Sketch.</desc>
    <defs></defs>
    <g id="Page-1" stroke="none" stroke-width="1" fill="none" fill-rule="evenodd">
        <g id="07" fill-rule="nonzero">
            <g id="Group-2">
                <g id="Group" transform="translate(19.000000, 23.000000)">
                    <g transform="translate(0.000000, 3.000000)" id="Shape">
                        <path d="M24.9,42.8 C2.4,44 -4.35080523,13.0762683 15.8780366,0.850786784" fill="#78909C"></path>
                        <path d="M23.2,44.8 C13.9,44.8 6.5,40.8 2.8,33.6 C-2,24.3 0.4,11.8 9.1,1.1 C9.8,0.2 11.1,0.1 11.9,0.8 C12.8,1.5 12.9,2.8 12.2,3.6 C4.6,13.1 2.3,23.9 6.4,31.8 C9.6,38 16.3,41.2 24.8,40.8 C25.9,40.7 26.8,41.6 26.9,42.7 C27,43.8 26.1,44.7 25,44.8 L23.2,44.8 Z" fill="#37474F"></path>
                    </g>
                    <g transform="translate(48.000000, 0.000000)" id="Shape">
                        <path d="M2.1,45.8 C24.6,47 32.1373086,17.336358 10.7843421,0.931751771" fill="#78909C"></path>
                        <path d="M3.8,47.8 C3.2,47.8 2.6,47.8 1.9,47.7 C0.8,47.6 -1.42108547e-14,46.7 -1.42108547e-14,45.6 C0.1,44.5 1,43.7 2.1,43.7 C10.7,44.2 17.4,40.9 20.5,34.7 C24.6,26.8 22.3,16 14.7,6.5 C14,5.6 14.1,4.4 15,3.7 C15.9,3 17.1,3.1 17.8,4 C26.4,14.7 28.8,27.2 24.1,36.5 C20.5,43.8 13.1,47.8 3.8,47.8 Z" fill="#37474F"></path>
                    </g>
                </g>
                <g id="Group">
                    <g transform="translate(0.000000, 87.000000)" id="Shape">
                        <path d="M35.9,2.4 L24.1,6.4 C16.3,6.4 9.9,8.3 9.9,15.5 L2.4,35 L109.7,35 L102.1,15.5 C102.1,8.4 95.8,6.5 87.9,6.5 L75.1,2.5" fill="#B0BEC5"></path>
                        <path d="M109.6,37 L2.4,37 C1.7,37 1.1,36.7 0.7,36.1 C0.3,35.6 0.2,34.9 0.5,34.2 L8,15 C8.2,8 13.5,4.4 23.8,4.3 L35.3,0.4 C36.3,-3.13082893e-14 37.5,0.6 37.8,1.7 C38.1,2.8 37.6,3.9 36.5,4.2 L24.7,8.2 C24.5,8.3 24.3,8.3 24.1,8.3 C13.3,8.3 11.9,12.1 11.9,15.4 C11.9,15.6 11.9,15.9 11.8,16.1 L5.3,33 L106.7,33 L100.2,16.2 C100.1,16 100.1,15.7 100.1,15.5 C100.1,12.2 98.7,8.5 87.9,8.5 C87.7,8.5 87.5,8.5 87.3,8.4 L74.5,4.4 C73.4,4.1 72.9,2.9 73.2,1.9 C73.5,0.8 74.7,0.3 75.7,0.6 L88.2,4.5 C98.5,4.6 103.9,8.1 104.1,15.1 L111.6,34.3 C111.8,34.9 111.8,35.6 111.4,36.2 C110.9,36.7 110.3,37 109.6,37 Z" fill="#37474F"></path>
                    </g>
                    <g transform="translate(45.000000, 69.000000)" id="Shape">
                        <path d="M2.81256831,2.78004683 C2.81256831,20.0800468 -2.4,25 11,25 C24.4,25 19.2116516,20.0800468 19.2116516,2.78004683 L2.81256831,2.78004683 Z" fill="#FFFFFF"></path>
                        <g>
                            <path d="M2,2 L2,16" fill="#FFFFFF"></path>
                            <path d="M2,18 C0.9,18 0,17.1 0,16 L0,2 C0,0.9 0.9,0 2,0 C3.1,0 4,0.9 4,2 L4,16 C4,17.1 3.1,18 2,18 Z" fill="#37474F"></path>
                        </g>
                        <g transform="translate(18.000000, 0.000000)">
                            <path d="M2,2 L2,16" fill="#FFFFFF"></path>
                            <path d="M2,18 C0.9,18 0,17.1 0,16 L0,2 C0,0.9 0.9,0 2,0 C3.1,0 4,0.9 4,2 L4,16 C4,17.1 3.1,18 2,18 Z" fill="#37474F"></path>
                        </g>
                    </g>
                    <g transform="translate(22.000000, 0.000000)" id="Shape">
                        <path d="M2.8,18.3 C10.6,10.1 19.5,2.3 34,2.3 C48.5,2.3 60.2,13.2 60.2,26.6" fill="#78909C"></path>
                        <path d="M60.2,28.6 C59.1,28.6 58.2,27.7 58.2,26.6 C58.2,14.3 47.4,4.3 34,4.3 C19.9,4.3 11.3,12.2 4.3,19.7 C3.5,20.5 2.3,20.5 1.5,19.8 C0.7,19 0.7,17.8 1.4,17 C9,9 18.3,0.4 34,0.4 C49.6,0.4 62.2,12.2 62.2,26.7 C62.2,27.7 61.4,28.6 60.2,28.6 Z" fill="#37474F"></path>
                    </g>
                    <g transform="translate(32.000000, 25.000000)" id="Shape">
                        <path d="M2.7,0.6 C2.7,17.9 10.6,48 24,48 C37.4,48 45.3,17.9 45.3,0.6" fill="#FFFFFF"></path>
                        <path d="M24,50 C9.6,50 0.7,29.6 0.7,10.6 C0.7,9.5 1.6,8.6 2.7,8.6 C3.8,8.6 4.7,9.5 4.7,10.6 C4.7,27.7 12.5,46 24,46 C35.5,46 43.3,27.7 43.3,10.6 C43.3,9.5 44.2,8.6 45.3,8.6 C46.4,8.6 47.3,9.5 47.3,10.6 C47.3,29.6 38.4,50 24,50 Z" fill="#37474F"></path>
                    </g>
                    <g transform="translate(29.000000, 31.000000)">
                        <g>
                            <g transform="translate(5.000000, 0.000000)">
                                <circle id="Oval" fill="#FFFFFF" cx="10.8" cy="10.3" r="8.3"></circle>
                                <path d="M10.8,20.6 C5.1,20.6 0.5,16 0.5,10.3 C0.5,4.6 5.1,0 10.8,0 C16.5,0 21.1,4.6 21.1,10.3 C21.1,16 16.4,20.6 10.8,20.6 Z M10.8,4 C7.3,4 4.5,6.8 4.5,10.3 C4.5,13.8 7.3,16.6 10.8,16.6 C14.3,16.6 17.1,13.8 17.1,10.3 C17.1,6.8 14.2,4 10.8,4 Z" id="Shape" fill="#37474F"></path>
                            </g>
                            <g transform="translate(0.000000, 9.000000)" id="Shape">
                                <path d="M2,2 L7,2" fill="#FFFFFF"></path>
                                <path d="M7,4 L2,4 C0.9,4 0,3.1 0,2 C0,0.9 0.9,0 2,0 L7,0 C8.1,0 9,0.9 9,2 C9,3.1 8.1,4 7,4 Z" fill="#37474F"></path>
                            </g>
                        </g>
                        <g transform="translate(27.000000, 0.000000)">
                            <g>
                                <circle id="Oval" fill="#FFFFFF" cx="11.3" cy="10.3" r="8.3"></circle>
                                <path d="M11.2,20.6 C5.5,20.6 0.9,16 0.9,10.3 C0.9,4.6 5.6,0 11.2,0 C16.9,0 21.5,4.6 21.5,10.3 C21.5,16 16.9,20.6 11.2,20.6 Z M11.2,4 C7.7,4 4.9,6.8 4.9,10.3 C4.9,13.8 7.7,16.6 11.2,16.6 C14.7,16.6 17.5,13.8 17.5,10.3 C17.5,6.8 14.7,4 11.2,4 Z" id="Shape" fill="#37474F"></path>
                            </g>
                            <g transform="translate(18.000000, 8.000000)" id="Shape">
                                <path d="M7,2 L2,2" fill="#FFFFFF"></path>
                                <path d="M7,4 L2,4 C0.9,4 0,3.1 0,2 C0,0.9 0.9,0 2,0 L7,0 C8.1,0 9,0.9 9,2 C9,3.1 8.1,4 7,4 Z" fill="#37474F"></path>
                            </g>
                        </g>
                    </g>
                    <g transform="translate(35.000000, 85.000000)" id="Shape">
                        <path d="M39.5,2.5 C39.5,7.2 31.2,11 21,11 C10.8,11 2.5,7.2 2.5,2.5" fill="#FFFFFF"></path>
                        <path d="M21,13 C9.3,13 0.5,8.5 0.5,2.5 C0.5,1.4 1.4,0.5 2.5,0.5 C3.6,0.5 4.5,1.4 4.5,2.5 C4.5,5.6 11.6,9 21,9 C30.4,9 37.5,5.6 37.5,2.5 C37.5,1.4 38.4,0.5 39.5,0.5 C40.6,0.5 41.5,1.4 41.5,2.5 C41.5,8.5 32.7,13 21,13 Z" fill="#37474F"></path>
                    </g>
                    <g transform="translate(23.000000, 17.000000)" id="Shape">
                        <path d="M50.3,4.9987734 C50.3,11.9015946 27.9,14.7904007 18.7,14.8264045 C9.5,14.8624082 0.69292427,3.7316919 4.29380268,1.65379555" fill="#78909C"></path>
                        <path d="M18.8,16.7 C8.5,16.7 0.1,10.2 0.1,2.2 C0.1,1.1 1,0.2 2.1,0.2 C3.2,0.2 4.1,1.1 4.1,2.2 C4.1,8 10.7,12.7 18.8,12.7 C31.4,12.7 48.4,8.9 48.4,5 C48.4,3.9 49.3,3 50.4,3 C51.5,3 52.4,3.9 52.4,5 C52.3,16 19.1,16.7 18.8,16.7 Z" fill="#37474F"></path>
                    </g>
                </g>
                <g id="Group" transform="translate(30.000000, 105.000000)">
                    <path d="M49.8,16.7 C45.4,8 36.4,2 26,2 C15.6,2 6.6,8 2.2,16.7" id="Shape" fill="#FFAB00"></path>
                    <path d="M49.8,18.7 C49.1,18.7 48.4,18.3 48,17.6 C43.8,9.2 35.3,4 26,4 C16.7,4 8.2,9.2 4,17.6 C3.5,18.6 2.3,19 1.3,18.5 C0.3,18 -0.1,16.8 0.4,15.8 C5.3,6.1 15.1,0 26,0 C36.9,0 46.7,6 51.6,15.8 C52.1,16.8 51.7,18 50.7,18.5 C50.4,18.6 50.1,18.7 49.8,18.7 Z" id="Shape" fill="#37474F"></path>
                </g>
            </g>
            <g id="Layer_2" transform="translate(75.000000, 57.000000)">
                <g id="Layer_3">
                    <g id="Layer_1_5_">
                        <g id="Layer_1_4_">
                            <g id="Group">
                                <g id="Shape">
                                    <g>
                                        <polygon fill="#FFFFFF" points="43.6 1.3 1.3 1.3 1.3 68 51.9 68 51.9 9.8"></polygon>
                                        <path d="M53,69 L0.1,69 L0.1,0.2 L44,0.2 L52.9,9.3 L53,69 L53,69 Z M2.3,66.9 L50.8,66.9 L50.8,10.2 L43.2,2.4 L2.3,2.4 L2.3,66.9 Z" fill="#37474F"></path>
                                    </g>
                                    <g transform="translate(40.000000, 0.000000)">
                                        <polyline fill="#FFAB00" points="11.6 10.8 1.8 10.8 1.8 1.6"></polyline>
                                        <path d="M11.6,11.8 L1.8,11.8 C1.2,11.8 0.7,11.3 0.7,10.7 L0.7,1.6 C0.7,1 1.2,0.5 1.8,0.5 C2.3,0.5 2.9,1 2.9,1.6 L2.9,9.5 L11.6,9.5 C12.2,9.5 12.7,10 12.7,10.6 C12.6,11.3 12.1,11.8 11.6,11.8 Z" fill="#37474F"></path>
                                    </g>
                                    <g transform="translate(7.000000, 19.000000)" fill="#37474F">
                                        <g transform="translate(0.000000, 21.000000)">
                                            <path d="M37.3,3 L1.8,3 C1.2,3 0.7,2.5 0.7,1.9 C0.7,1.3 1.2,0.8 1.8,0.8 L37.3,0.8 C37.9,0.8 38.4,1.3 38.4,1.9 C38.4,2.4 37.9,3 37.3,3 Z"></path>
                                            <path d="M37.3,8.1 L1.8,8.1 C1.2,8.1 0.7,7.6 0.7,7 C0.7,6.5 1.2,5.9 1.8,5.9 L37.3,5.9 C37.9,5.9 38.4,6.4 38.4,7 C38.4,7.5 37.9,8.1 37.3,8.1 Z"></path>
                                            <path d="M37.3,13.8 L1.8,13.8 C1.2,13.8 0.7,13.3 0.7,12.7 C0.7,12.1 1.2,11.6 1.8,11.6 L37.3,11.6 C37.9,11.6 38.4,12.1 38.4,12.7 C38.4,13.3 37.9,13.8 37.3,13.8 Z"></path>
                                            <path d="M37.3,18.9 L1.8,18.9 C1.2,18.9 0.7,18.4 0.7,17.8 C0.7,17.2 1.2,16.7 1.8,16.7 L37.3,16.7 C37.9,16.7 38.4,17.2 38.4,17.8 C38.4,18.4 37.9,18.9 37.3,18.9 Z"></path>
                                        </g>
                                        <g>
                                            <path d="M37.3,2.9 L1.8,2.9 C1.2,2.9 0.7,2.4 0.7,1.8 C0.7,1.2 1.2,0.7 1.8,0.7 L37.3,0.7 C37.9,0.7 38.4,1.2 38.4,1.8 C38.4,2.4 37.9,2.9 37.3,2.9 Z"></path>
                                            <path d="M37.3,8 L1.8,8 C1.2,8 0.7,7.5 0.7,6.9 C0.7,6.4 1.2,5.8 1.8,5.8 L37.3,5.8 C37.9,5.8 38.4,6.3 38.4,6.9 C38.4,7.5 37.9,8 37.3,8 Z"></path>
                                            <path d="M37.3,13.1 L1.8,13.1 C1.2,13.1 0.7,12.6 0.7,12 C0.7,11.4 1.2,10.9 1.8,10.9 L37.3,10.9 C37.9,10.9 38.4,11.4 38.4,12 C38.4,12.6 37.9,13.1 37.3,13.1 Z"></path>
                                            <path d="M37.3,18.2 L1.8,18.2 C1.2,18.2 0.7,17.7 0.7,17.1 C0.7,16.5 1.2,16 1.8,16 L37.3,16 C37.9,16 38.4,16.5 38.4,17.1 C38.4,17.7 37.9,18.2 37.3,18.2 Z"></path>
                                        </g>
                                    </g>
                                </g>
                                <g transform="translate(10.000000, 9.000000)" id="Shape" fill="#37474F">
                                    <g>
                                        <path d="M2.8,2 C2.8,2.6 2.4,3 1.8,3 C1.2,3 0.8,2.6 0.8,2 C0.8,1.4 1.2,1 1.8,1 C2.3,1.1 2.8,1.5 2.8,2 Z"></path>
                                        <path d="M1.8,3.4 C1,3.4 0.4,2.7 0.4,2 C0.4,1.2 1.1,0.6 1.8,0.6 C2.6,0.6 3.2,1.3 3.2,2 C3.1,2.9 2.5,3.4 1.8,3.4 Z M1.8,1.5 C1.4,1.5 1.1,1.8 1.1,2.2 C1.1,2.6 1.4,2.9 1.8,2.9 C2.2,2.9 2.5,2.6 2.5,2.2 C2.5,1.8 2.2,1.5 1.8,1.5 Z"></path>
                                    </g>
                                    <g transform="translate(7.000000, 0.000000)">
                                        <path d="M3.1,2 C3.1,2.6 2.7,3 2.1,3 C1.5,3 1.1,2.6 1.1,2 C1.1,1.4 1.5,1 2.1,1 C2.6,1.1 3.1,1.5 3.1,2 Z"></path>
                                        <path d="M2,3.4 C1.2,3.4 0.6,2.7 0.6,2 C0.6,1.2 1.3,0.6 2,0.6 C2.8,0.6 3.4,1.3 3.4,2 C3.4,2.9 2.8,3.4 2,3.4 Z M2,1.5 C1.6,1.5 1.3,1.8 1.3,2.2 C1.3,2.6 1.6,2.9 2,2.9 C2.4,2.9 2.7,2.6 2.7,2.2 C2.7,1.8 2.3,1.5 2,1.5 Z"></path>
                                    </g>
                                    <g transform="translate(14.000000, 0.000000)">
                                        <path d="M3.2,2 C3.2,2.6 2.8,3 2.2,3 C1.6,3 1.2,2.6 1.2,2 C1.2,1.4 1.6,1 2.2,1 C2.8,1.1 3.2,1.5 3.2,2 Z"></path>
                                        <path d="M2.2,3.4 C1.4,3.4 0.8,2.7 0.8,2 C0.8,1.2 1.5,0.6 2.2,0.6 C2.9,0.6 3.6,1.3 3.6,2 C3.6,2.9 3,3.4 2.2,3.4 Z M2.2,1.5 C1.8,1.5 1.5,1.8 1.5,2.2 C1.5,2.6 1.8,2.9 2.2,2.9 C2.6,2.9 2.9,2.6 2.9,2.2 C2.9,1.8 2.6,1.5 2.2,1.5 Z"></path>
                                    </g>
                                </g>
                            </g>
                        </g>
                    </g>
                </g>
            </g>
        </g>
    </g>
</svg>