<?xml version="1.0" encoding="utf-8"?>
<!-- Generator: Adobe Illustrator 16.0.0, SVG Export Plug-In . SVG Version: 6.00 Build 0)  -->
<!DOCTYPE svg PUBLIC "-//W3C//DTD SVG 1.1//EN" "http://www.w3.org/Graphics/SVG/1.1/DTD/svg11.dtd">
<svg version="1.1" id="Layer_1" xmlns="http://www.w3.org/2000/svg" xmlns:xlink="http://www.w3.org/1999/xlink" x="0px" y="0px"
	 width="128px" height="128px" viewBox="0 0 128 128" enable-background="new 0 0 128 128" xml:space="preserve">
<g>
	<g>
		<path fill="#78909C" d="M64.2,97.2C33.1,94.3,11.2,70.7,5.8,64.3c5.4-6.4,27.3-30,58.4-32.9c31.2,2.9,53.1,26.5,58.4,32.9
			C117.3,70.7,95.4,94.3,64.2,97.2z"/>
		<path fill="#37474F" d="M64.2,98.7l-0.1,0C32.7,95.8,10.7,72.4,4.7,65.3l-0.8-1l0.8-1c6-7.1,27.9-30.5,59.4-33.4l0.1,0l0.1,0
			c31.5,2.9,53.5,26.3,59.4,33.4l0.8,1l-0.8,1c-6,7.1-28,30.5-59.4,33.4L64.2,98.7z M7.8,64.3c6.8,7.8,27.5,28.6,56.5,31.4
			c28.9-2.8,49.6-23.6,56.5-31.4c-6.8-7.8-27.5-28.6-56.5-31.4C35.3,35.7,14.6,56.5,7.8,64.3z"/>
	</g>
	<g>
		<path fill="#FFAB00" d="M98.2,64.3C98.2,83,83,98.2,64.2,98.2c-18.7,0-33.9-15.2-33.9-33.9c0-18.7,15.2-33.9,33.9-33.9
			C83,30.4,98.2,45.6,98.2,64.3z"/>
		<path fill="#37474F" d="M64.2,99.7c-19.5,0-35.4-15.9-35.4-35.4c0-19.5,15.9-35.4,35.4-35.4c19.5,0,35.4,15.9,35.4,35.4
			C99.7,83.8,83.8,99.7,64.2,99.7z M64.2,31.9c-17.9,0-32.4,14.5-32.4,32.4c0,17.9,14.5,32.4,32.4,32.4c17.9,0,32.4-14.5,32.4-32.4
			C96.7,46.4,82.1,31.9,64.2,31.9z"/>
	</g>
	<g>
		<path fill="#37474F" d="M84.9,64.3c0,11.4-9.3,20.7-20.7,20.7c-11.4,0-20.7-9.2-20.7-20.7c0-11.4,9.3-20.7,20.7-20.7
			C75.7,43.6,84.9,52.9,84.9,64.3z"/>
	</g>
	<g>
		<path fill="#FFFFFF" d="M63.9,49.6c0,6.7-5.4,12.1-12.1,12.1c-6.7,0-12.1-5.4-12.1-12.1c0-6.7,5.4-12.1,12.1-12.1
			C58.5,37.5,63.9,42.9,63.9,49.6z"/>
		<path fill="#37474F" d="M51.8,63.2c-7.5,0-13.6-6.1-13.6-13.6c0-7.5,6.1-13.6,13.6-13.6c7.5,0,13.6,6.1,13.6,13.6
			C65.4,57.1,59.3,63.2,51.8,63.2z M51.8,39c-5.8,0-10.6,4.8-10.6,10.6c0,5.8,4.7,10.6,10.6,10.6c5.8,0,10.6-4.7,10.6-10.6
			C62.4,43.8,57.7,39,51.8,39z"/>
	</g>
	<g>
		<circle fill="#FFFFFF" cx="79.1" cy="78.8" r="5.8"/>
		<path fill="#37474F" d="M79.1,86.1c-4,0-7.3-3.3-7.3-7.3c0-4,3.3-7.3,7.3-7.3c4,0,7.3,3.3,7.3,7.3C86.4,82.8,83.2,86.1,79.1,86.1z
			 M79.1,74.5c-2.4,0-4.3,1.9-4.3,4.3c0,2.4,1.9,4.3,4.3,4.3c2.4,0,4.3-1.9,4.3-4.3C83.4,76.4,81.5,74.5,79.1,74.5z"/>
	</g>
	<g>
		<g>
			<path fill="#FFFFFF" d="M55.9,64.3c0,0.8-0.6,1.4-1.4,1.4c-0.8,0-1.4-0.6-1.4-1.4c0-0.8,0.6-1.4,1.4-1.4
				C55.2,62.9,55.9,63.5,55.9,64.3z"/>
			<path fill="#FFFFFF" d="M54.5,66.2c-1.1,0-1.9-0.8-1.9-1.9c0-1.1,0.9-1.9,1.9-1.9c1,0,1.9,0.9,1.9,1.9
				C56.4,65.3,55.5,66.2,54.5,66.2z M54.5,63.4c-0.5,0-0.9,0.4-0.9,0.9c0,0.5,0.4,0.9,0.9,0.9c0.5,0,0.9-0.4,0.9-0.9
				C55.4,63.8,55,63.4,54.5,63.4z"/>
		</g>
		<g>
			<path fill="#FFFFFF" d="M65.7,64.3c0,0.8-0.6,1.4-1.4,1.4c-0.8,0-1.4-0.6-1.4-1.4c0-0.8,0.6-1.4,1.4-1.4
				C65,62.9,65.7,63.5,65.7,64.3z"/>
			<path fill="#FFFFFF" d="M64.3,66.2c-1.1,0-1.9-0.8-1.9-1.9c0-1.1,0.9-1.9,1.9-1.9c1,0,1.9,0.9,1.9,1.9
				C66.2,65.3,65.3,66.2,64.3,66.2z M64.3,63.4c-0.5,0-0.9,0.4-0.9,0.9c0,0.5,0.4,0.9,0.9,0.9c0.5,0,0.9-0.4,0.9-0.9
				C65.2,63.8,64.8,63.4,64.3,63.4z"/>
		</g>
		<g>
			<path fill="#FFFFFF" d="M75.4,64.3c0,0.8-0.6,1.4-1.4,1.4c-0.8,0-1.4-0.6-1.4-1.4c0-0.8,0.6-1.4,1.4-1.4
				C74.8,62.9,75.4,63.5,75.4,64.3z"/>
			<path fill="#FFFFFF" d="M74,66.2c-1.1,0-1.9-0.8-1.9-1.9c0-1.1,0.9-1.9,1.9-1.9c1,0,1.9,0.9,1.9,1.9C75.9,65.3,75.1,66.2,74,66.2
				z M74,63.4c-0.5,0-0.9,0.4-0.9,0.9c0,0.5,0.4,0.9,0.9,0.9c0.5,0,0.9-0.4,0.9-0.9C74.9,63.8,74.5,63.4,74,63.4z"/>
		</g>
	</g>
</g>
</svg>
