<?xml version="1.0" encoding="UTF-8"?>
<svg width="59px" height="50px" viewBox="0 0 59 50" version="1.1" xmlns="http://www.w3.org/2000/svg" xmlns:xlink="http://www.w3.org/1999/xlink">
    <!-- Generator: Sketch 43.1 (39012) - http://www.bohemiancoding.com/sketch -->
    <title>Group 2</title>
    <desc>Created with Sketch.</desc>
    <defs></defs>
    <g id="Page-1" stroke="none" stroke-width="1" fill="none" fill-rule="evenodd">
        <g id="Group-2">
            <g id="Group">
                <g transform="translate(3.000000, 0.000000)" fill-rule="nonzero">
                    <rect id="Rectangle-path" fill="#FFAB00" x="1.2" y="1.3" width="51.3" height="47.9"></rect>
                    <path d="M52.4,50 L1.2,50 C0.8,50 0.5,49.6 0.5,49.3 L0.5,1.3 C0.5,0.9 0.9,0.6 1.2,0.6 L52.5,0.6 C52.9,0.6 53.2,1 53.2,1.3 L53.2,49.2 C53.1,49.6 52.8,50 52.4,50 Z M1.9,48.5 L51.7,48.5 L51.7,2 L1.9,2 L1.9,48.5 Z" id="Shape" fill="#37474F"></path>
                </g>
                <g fill-rule="nonzero">
                    <g>
                        <g>
                            <rect id="Rectangle-path" fill="#FFECB3" x="1.3" y="1.3" width="7.6" height="7.6"></rect>
                            <path d="M8.9,9.6 L1.3,9.6 C0.9,9.6 0.6,9.2 0.6,8.9 L0.6,1.3 C0.6,0.9 1,0.6 1.3,0.6 L8.9,0.6 C9.3,0.6 9.6,1 9.6,1.3 L9.6,8.9 C9.6,9.3 9.3,9.6 8.9,9.6 Z M2,8.2 L8.2,8.2 L8.2,2 L2,2 L2,8.2 Z" id="Shape" fill="#37474F"></path>
                        </g>
                        <g transform="translate(0.000000, 8.000000)">
                            <rect id="Rectangle-path" fill="#FFECB3" x="1.3" y="1.4" width="7.6" height="7.6"></rect>
                            <path d="M8.9,9.7 L1.3,9.7 C0.9,9.7 0.6,9.3 0.6,9 L0.6,1.4 C0.6,1 1,0.7 1.3,0.7 L8.9,0.7 C9.3,0.7 9.6,1.1 9.6,1.4 L9.6,9 C9.6,9.4 9.3,9.7 8.9,9.7 Z M2,8.3 L8.2,8.3 L8.2,2.1 L2,2.1 L2,8.3 Z" id="Shape" fill="#37474F"></path>
                        </g>
                        <g transform="translate(0.000000, 16.000000)">
                            <rect id="Rectangle-path" fill="#FFECB3" x="1.3" y="1.5" width="7.6" height="7.6"></rect>
                            <path d="M8.9,9.8 L1.3,9.8 C0.9,9.8 0.6,9.4 0.6,9.1 L0.6,1.5 C0.6,1.1 1,0.8 1.3,0.8 L8.9,0.8 C9.3,0.8 9.6,1.2 9.6,1.5 L9.6,9.1 C9.6,9.4 9.3,9.8 8.9,9.8 Z M2,8.3 L8.2,8.3 L8.2,2.1 L2,2.1 L2,8.3 Z" id="Shape" fill="#37474F"></path>
                        </g>
                        <g transform="translate(0.000000, 24.000000)">
                            <rect id="Rectangle-path" fill="#FFECB3" x="1.3" y="1.5" width="7.6" height="7.6"></rect>
                            <path d="M8.9,9.8 L1.3,9.8 C0.9,9.8 0.6,9.4 0.6,9.1 L0.6,1.5 C0.6,1.1 1,0.8 1.3,0.8 L8.9,0.8 C9.3,0.8 9.6,1.2 9.6,1.5 L9.6,9.1 C9.6,9.5 9.3,9.8 8.9,9.8 Z M2,8.4 L8.2,8.4 L8.2,2.2 L2,2.2 L2,8.4 Z" id="Shape" fill="#37474F"></path>
                        </g>
                        <g transform="translate(0.000000, 32.000000)">
                            <rect id="Rectangle-path" fill="#FFECB3" x="1.3" y="1.6" width="7.6" height="7.6"></rect>
                            <path d="M8.9,9.9 L1.3,9.9 C0.9,9.9 0.6,9.5 0.6,9.2 L0.6,1.6 C0.6,1.2 1,0.9 1.3,0.9 L8.9,0.9 C9.3,0.9 9.6,1.3 9.6,1.6 L9.6,9.2 C9.6,9.6 9.3,9.9 8.9,9.9 Z M2,8.5 L8.2,8.5 L8.2,2.3 L2,2.3 L2,8.5 Z" id="Shape" fill="#37474F"></path>
                        </g>
                        <g transform="translate(0.000000, 41.000000)">
                            <rect id="Rectangle-path" fill="#FFECB3" x="1.3" y="0.7" width="7.6" height="7.6"></rect>
                            <path d="M8.9,9 L1.3,9 C0.9,9 0.6,8.6 0.6,8.3 L0.6,0.7 C0.6,0.3 1,2.84217094e-14 1.3,2.84217094e-14 L8.9,2.84217094e-14 C9.3,2.84217094e-14 9.6,0.4 9.6,0.7 L9.6,8.3 C9.6,8.6 9.3,9 8.9,9 Z M2,7.5 L8.2,7.5 L8.2,1.3 L2,1.3 L2,7.5 Z" id="Shape" fill="#37474F"></path>
                        </g>
                    </g>
                    <g transform="translate(50.000000, 0.000000)">
                        <g>
                            <rect id="Rectangle-path" fill="#FFECB3" x="0.7" y="1.3" width="7.6" height="7.6"></rect>
                            <path d="M8.3,9.6 L0.7,9.6 C0.3,9.6 0,9.2 0,8.9 L0,1.3 C0,0.9 0.4,0.6 0.7,0.6 L8.3,0.6 C8.7,0.6 9,1 9,1.3 L9,8.9 C9,9.3 8.6,9.6 8.3,9.6 Z M1.4,8.2 L7.6,8.2 L7.6,2 L1.4,2 L1.4,8.2 Z" id="Shape" fill="#37474F"></path>
                        </g>
                        <g transform="translate(0.000000, 8.000000)">
                            <rect id="Rectangle-path" fill="#FFECB3" x="0.7" y="1.4" width="7.6" height="7.6"></rect>
                            <path d="M8.3,9.7 L0.7,9.7 C0.3,9.7 0,9.3 0,9 L0,1.4 C0,1 0.4,0.7 0.7,0.7 L8.3,0.7 C8.7,0.7 9,1.1 9,1.4 L9,9 C9,9.4 8.6,9.7 8.3,9.7 Z M1.4,8.3 L7.6,8.3 L7.6,2.1 L1.4,2.1 L1.4,8.3 Z" id="Shape" fill="#37474F"></path>
                        </g>
                        <g transform="translate(0.000000, 16.000000)">
                            <rect id="Rectangle-path" fill="#FFECB3" x="0.7" y="1.5" width="7.6" height="7.6"></rect>
                            <path d="M8.3,9.8 L0.7,9.8 C0.3,9.8 0,9.4 0,9.1 L0,1.5 C0,1.1 0.4,0.8 0.7,0.8 L8.3,0.8 C8.7,0.8 9,1.2 9,1.5 L9,9.1 C9,9.4 8.6,9.8 8.3,9.8 Z M1.4,8.3 L7.6,8.3 L7.6,2.1 L1.4,2.1 L1.4,8.3 Z" id="Shape" fill="#37474F"></path>
                        </g>
                        <g transform="translate(0.000000, 24.000000)">
                            <rect id="Rectangle-path" fill="#FFECB3" x="0.7" y="1.5" width="7.6" height="7.6"></rect>
                            <path d="M8.3,9.8 L0.7,9.8 C0.3,9.8 0,9.4 0,9.1 L0,1.5 C0,1.1 0.4,0.8 0.7,0.8 L8.3,0.8 C8.7,0.8 9,1.2 9,1.5 L9,9.1 C9,9.5 8.6,9.8 8.3,9.8 Z M1.4,8.4 L7.6,8.4 L7.6,2.2 L1.4,2.2 L1.4,8.4 Z" id="Shape" fill="#37474F"></path>
                        </g>
                        <g transform="translate(0.000000, 32.000000)">
                            <rect id="Rectangle-path" fill="#FFECB3" x="0.7" y="1.6" width="7.6" height="7.6"></rect>
                            <path d="M8.3,9.9 L0.7,9.9 C0.3,9.9 0,9.5 0,9.2 L0,1.6 C0,1.2 0.4,0.9 0.7,0.9 L8.3,0.9 C8.7,0.9 9,1.3 9,1.6 L9,9.2 C9,9.6 8.6,9.9 8.3,9.9 Z M1.4,8.5 L7.6,8.5 L7.6,2.3 L1.4,2.3 L1.4,8.5 Z" id="Shape" fill="#37474F"></path>
                        </g>
                        <g transform="translate(0.000000, 41.000000)">
                            <rect id="Rectangle-path" fill="#FFECB3" x="0.7" y="0.7" width="7.6" height="7.6"></rect>
                            <path d="M8.3,9 L0.7,9 C0.3,9 0,8.6 0,8.3 L0,0.7 C0,0.3 0.4,2.84217094e-14 0.7,2.84217094e-14 L8.3,2.84217094e-14 C8.7,2.84217094e-14 9,0.4 9,0.7 L9,8.3 C9,8.6 8.6,9 8.3,9 Z M1.4,7.5 L7.6,7.5 L7.6,1.3 L1.4,1.3 L1.4,7.5 Z" id="Shape" fill="#37474F"></path>
                        </g>
                    </g>
                </g>
                <g transform="translate(16.000000, 9.000000)" id="Shape">
                    <g transform="translate(0.000000, 7.000000)">
                        <g transform="translate(0.000000, 17.000000)" fill-rule="nonzero">
                            <path d="M8.9,2 C9.8,3.4 8.9,5.6 6.8,6.9 C4.8,8.2 2.4,8.1 1.5,6.5 C0.6,5.1 1.5,2.9 3.5,1.6 C5.6,0.4 8,0.6 8.9,2 Z" fill="#FFECB3"></path>
                            <path d="M4,8.5 C2.6,8.5 1.5,7.9 0.9,7 C-0.3,5.2 0.7,2.6 3.2,1.1 C4.2,0.5 5.4,0.1 6.4,0.1 C7.8,0.1 8.9,0.7 9.5,1.6 C10.7,3.4 9.7,6 7.2,7.5 C6.2,8.1 5.1,8.5 4,8.5 Z M6.4,1.6 C5.6,1.6 4.7,1.9 4,2.4 C2.3,3.5 1.5,5.2 2.2,6.3 C2.6,6.8 3.2,7.2 4.1,7.2 C4.9,7.2 5.8,6.9 6.5,6.4 C8.2,5.3 9,3.6 8.3,2.5 C7.9,1.9 7.3,1.6 6.4,1.6 Z" fill="#37474F"></path>
                        </g>
                        <g transform="translate(8.000000, 0.000000)">
                            <path d="M1.1,0.8 L1.1,19.2"></path>
                            <path d="M1.1,20 C0.7,20 0.4,19.6 0.4,19.3 L0.4,0.8 C0.4,0.4 0.8,0.1 1.1,0.1 C1.4,0.1 1.8,0.5 1.8,0.8 L1.8,19.3 C1.8,19.6 1.4,20 1.1,20 Z" fill="#37474F" fill-rule="nonzero"></path>
                        </g>
                    </g>
                    <g transform="translate(17.000000, 1.000000)">
                        <g transform="translate(0.000000, 18.000000)" fill-rule="nonzero">
                            <path d="M8.9,2.1 C9.8,3.5 8.9,5.7 6.8,7 C4.8,8.3 2.4,8.2 1.5,6.6 C0.6,5.2 1.5,3 3.6,1.7 C5.7,0.5 8,0.6 8.9,2.1 Z" fill="#FFECB3"></path>
                            <path d="M4.1,8.5 C2.7,8.5 1.6,7.9 1,7 C0.4,6.1 0.4,5 0.8,3.8 C1.3,2.7 2.1,1.8 3.2,1.1 C4.2,0.5 5.4,0.1 6.4,0.1 C7.8,0.1 8.9,0.7 9.5,1.6 C10.1,2.5 10.1,3.6 9.7,4.8 C9.2,5.9 8.4,6.8 7.3,7.5 C6.3,8.2 5.1,8.5 4.1,8.5 Z M6.5,1.6 C5.7,1.6 4.8,1.9 4.1,2.4 C3.2,2.9 2.6,3.7 2.3,4.5 C2,5.2 2,5.9 2.3,6.4 C2.7,6.9 3.3,7.3 4.2,7.3 C5,7.3 5.9,7 6.6,6.5 C7.5,6 8.1,5.2 8.4,4.4 C8.7,3.7 8.7,3 8.3,2.5 C8,1.9 7.3,1.6 6.5,1.6 Z" fill="#37474F"></path>
                        </g>
                        <g transform="translate(8.000000, 0.000000)">
                            <path d="M1.1,1.5 L1.1,20.5"></path>
                            <path d="M1.1,21.2 C0.7,21.2 0.4,20.8 0.4,20.5 L0.4,1.5 C0.4,1.1 0.8,0.8 1.1,0.8 C1.5,0.8 1.8,1.2 1.8,1.5 L1.8,20.5 C1.8,20.9 1.5,21.2 1.1,21.2 Z" fill="#37474F" fill-rule="nonzero"></path>
                        </g>
                    </g>
                    <g transform="translate(8.000000, 0.000000)" fill-rule="nonzero">
                        <polyline fill="#FFECB3" points="1.1 7.4 18.1 0.8 18.1 3.5"></polyline>
                        <path d="M1.1,8.1 C0.8,8.1 0.5,7.9 0.4,7.6 C0.2,7.2 0.5,6.8 0.9,6.7 L18,0.1 C18.3,-2.6229019e-15 18.5,-2.6229019e-15 18.7,0.2 C18.9,0.4 19.1,0.6 19.1,0.8 L19.1,3.5 C19.1,3.9 18.7,4.2 18.4,4.2 C18,4.2 17.7,3.8 17.7,3.5 L17.7,1.9 L1.4,8.1 L1.1,8.1 Z" fill="#37474F"></path>
                    </g>
                    <g transform="translate(8.000000, 5.000000)" fill-rule="nonzero">
                        <polyline fill="#FFECB3" points="1.1 7 18.1 0.9 18.1 3.2"></polyline>
                        <path d="M1.1,7.7 C0.8,7.7 0.5,7.5 0.4,7.2 C0.2,6.8 0.5,6.4 0.9,6.3 L18,0.1 C18.3,-1.68337566e-14 18.5,-1.68337566e-14 18.7,0.2 C18.9,0.4 19,0.6 19,0.8 L19,3.2 C19,3.6 18.6,3.9 18.3,3.9 C17.9,3.9 17.6,3.5 17.6,3.2 L17.6,1.8 L1.4,7.6 C1.2,7.7 1.2,7.7 1.1,7.7 Z" fill="#37474F"></path>
                    </g>
                </g>
            </g>
            <g id="Group" transform="translate(17.000000, 12.000000)" fill-rule="nonzero" fill="#37474F">
                <g transform="translate(0.000000, 15.000000)" id="Shape">
                    <path d="M1.9,0.5 C2.5,0.5 3,1 3,1.6 C3,2.2 2.5,2.7 1.9,2.7 C1.3,2.7 0.8,2.2 0.8,1.6 C0.8,1 1.3,0.5 1.9,0.5 Z"></path>
                    <path d="M1.9,2.8 C1.2,2.8 0.6,2.2 0.6,1.5 C0.6,0.7 1.2,0.2 1.9,0.2 C2.7,0.2 3.2,0.8 3.2,1.5 C3.2,2.3 2.6,2.8 1.9,2.8 Z M1.9,0.8 C1.4,0.8 1.1,1.2 1.1,1.6 C1.1,2.1 1.5,2.4 1.9,2.4 C2.3,2.4 2.7,2 2.7,1.6 C2.7,1.1 2.4,0.8 1.9,0.8 Z"></path>
                </g>
                <g transform="translate(0.000000, 7.000000)" id="Shape">
                    <path d="M1.9,1.2 C2.5,1.2 3,1.7 3,2.3 C3,2.9 2.5,3.4 1.9,3.4 C1.3,3.4 0.8,2.9 0.8,2.3 C0.8,1.6 1.3,1.2 1.9,1.2 Z"></path>
                    <path d="M1.9,3.5 C1.2,3.5 0.6,2.9 0.6,2.1 C0.6,1.4 1.2,0.8 1.9,0.8 C2.7,0.8 3.2,1.4 3.2,2.1 C3.2,2.9 2.6,3.5 1.9,3.5 Z M1.9,1.4 C1.4,1.4 1.1,1.8 1.1,2.2 C1.1,2.7 1.5,3.1 1.9,3.1 C2.3,3.1 2.7,2.7 2.7,2.2 C2.7,1.8 2.4,1.4 1.9,1.4 Z"></path>
                </g>
                <g id="Shape">
                    <path d="M1.9,0.8 C2.5,0.8 3,1.3 3,1.9 C3,2.5 2.5,3 1.9,3 C1.3,3 0.8,2.5 0.8,1.9 C0.8,1.2 1.3,0.8 1.9,0.8 Z"></path>
                    <path d="M1.9,3.1 C1.2,3.1 0.6,2.5 0.6,1.8 C0.6,1.1 1.2,0.5 1.9,0.5 C2.7,0.5 3.2,1.1 3.2,1.8 C3.2,2.5 2.6,3.1 1.9,3.1 Z M1.9,1 C1.4,1 1.1,1.4 1.1,1.8 C1.1,2.2 1.5,2.6 1.9,2.6 C2.3,2.6 2.7,2.2 2.7,1.8 C2.7,1.4 2.4,1 1.9,1 Z"></path>
                </g>
            </g>
        </g>
    </g>
</svg>