<?xml version="1.0" encoding="UTF-8"?>
<svg width="79px" height="114px" viewBox="0 0 79 114" version="1.1" xmlns="http://www.w3.org/2000/svg" xmlns:xlink="http://www.w3.org/1999/xlink">
    <!-- Generator: Sketch 43.1 (39012) - http://www.bohemiancoding.com/sketch -->
    <title>Group 2</title>
    <desc>Created with Sketch.</desc>
    <defs></defs>
    <g id="Page-1" stroke="none" stroke-width="1" fill="none" fill-rule="evenodd">
        <g id="Group-2" fill-rule="nonzero">
            <g id="Group" transform="translate(21.000000, 52.000000)" fill="#FFFFFF">
                <path d="M46.9602981,61.2 C46.9602981,61.2 46.1535828,54.0080136 46.9602981,51.6878809 C47.7670135,49.3677482 53.8852865,41.2835674 53.8852865,41.2835674 L53.2345805,3.28364643 L16.0008613,0.777267397 L0.47970164,11.883719 L7.45050725,51.6878809 L10.9,52.9862621 L10.9,61.2 L46.9602981,61.2 Z" id="Shape"></path>
            </g>
            <g id="Group" transform="translate(0.000000, 60.000000)">
                <path d="M23,4 L23,13 L16.1,5.3 C15,4.1 8.3,2 5.4,2.5 C2.6,2.7 0.3,5.8 7.3,12.3 L24,39.5 C24.3,40.2 24.7,40.9 25.2,41.5 L25.7,42.3 L25.6,42.1 C27,43.5 28.9,44.3 30.9,44.4 L30.9,52.2" id="Shape" fill="#FFFFFF"></path>
                <path d="M31,54 C29.9,54 29,53.1 29,52 L29,46 C27.5,45.7 26.1,45 24.9,44 C24.6,43.8 24.3,43.6 24,43.2 L23.6,42.6 C23,41.9 22.6,41.2 22.2,40.4 L5.7,13.6 C1.6,9.7 5.32907052e-15,6.4 0.9,3.7 C1.5,2 3.1,0.8 5.1,0.6 C8.5,0.1 15.9,2.2 17.6,4.1 L21,7.9 L21,4 C21,2.9 21.9,2 23,2 C24.1,2 25,2.9 25,4 L25,13 C25,13.8 24.5,14.6 23.7,14.9 C22.9,15.2 22.1,15 21.5,14.4 L14.6,6.7 C13.7,5.9 8,4.2 5.7,4.5 L5.6,4.5 C5.2,4.5 4.8,4.7 4.8,4.9 C4.6,5.5 5.2,7.5 8.7,10.8 C8.8,10.9 9,11.1 9,11.2 L25.8,38.4 C25.9,38.5 25.9,38.6 25.9,38.7 C26.1,39.2 26.4,39.7 26.8,40.2 C26.9,40.3 26.9,40.3 27,40.4 L27.2,40.7 C28.3,41.7 29.7,42.3 31.1,42.3 C32.2,42.3 33.1,43.2 33.1,44.3 L33.1,52.1 C33,53.1 32.1,54 31,54 Z" id="Shape" fill="#37474F"></path>
            </g>
            <g id="Group" transform="translate(67.000000, 62.000000)">
                <path d="M2,50 L2,40 C7,40 10,35.4 10,31 L10,2" id="Shape" fill="#FFFFFF"></path>
                <path d="M2,52 C0.9,52 0,51.1 0,50 L0,40 C0,38.9 0.9,38 2,38 C5.8,38 8,34.4 8,31 L8,2 C8,0.9 8.9,0 10,0 C11.1,0 12,0.9 12,2 L12,31.1 C12,35.9 9,40.8 4,41.9 L4,50.1 C4,51.1 3.1,52 2,52 Z" id="Shape" fill="#37474F"></path>
            </g>
            <g id="Group" transform="translate(63.000000, 38.000000)">
                <path d="M14,26 L14,8.2 C14,4.9 11.3,2.2 8,2.2 C4.7,2.2 2,4.9 2,8.2 L2,17" id="Shape" fill="#FFFFFF"></path>
                <path d="M14,28 C12.9,28 12,27.1 12,26 L12,8.2 C12,6 10.2,4.2 8,4.2 C5.8,4.2 4,6 4,8.2 L4,17 C4,18.1 3.1,19 2,19 C0.9,19 0,18.1 0,17 L0,8.2 C0,3.8 3.6,0.2 8,0.2 C12.4,0.2 16,3.8 16,8.2 L16,26 C16,27.1 15.1,28 14,28 Z" id="Shape" fill="#37474F"></path>
            </g>
            <g id="Group" transform="translate(49.000000, 32.000000)">
                <path d="M14,23 L14,8.7 C14,5.4 11.3,2.7 8,2.7 C4.7,2.7 2,5.4 2,8.7 L2,23" id="Shape" fill="#FFFFFF"></path>
                <path d="M14,25 C12.9,25 12,24.1 12,23 L12,8.7 C12,6.5 10.2,4.7 8,4.7 C5.8,4.7 4,6.5 4,8.7 L4,23 C4,24.1 3.1,25 2,25 C0.9,25 0,24.1 0,23 L0,8.7 C0,4.3 3.6,0.7 8,0.7 C12.4,0.7 16,4.3 16,8.7 L16,23 C16,24.1 15.1,25 14,25 Z" id="Shape" fill="#37474F"></path>
            </g>
            <g id="Group" transform="translate(35.000000, 30.000000)">
                <path d="M14,25 L14,8 C14,4.7 11.3,2 8,2 C4.7,2 2,4.7 2,8 L2,25" id="Shape" fill="#FFFFFF"></path>
                <path d="M14,27 C12.9,27 12,26.1 12,25 L12,8 C12,5.8 10.2,4 8,4 C5.8,4 4,5.8 4,8 L4,25 C4,26.1 3.1,27 2,27 C0.9,27 0,26.1 0,25 L0,8 C0,3.6 3.6,0 8,0 C12.4,0 16,3.6 16,8 L16,25 C16,26.1 15.1,27 14,27 Z" id="Shape" fill="#37474F"></path>
            </g>
            <g id="Group" transform="translate(21.000000, 0.000000)">
                <path d="M15,55 L15,8.2 C15,4.9 11.8,2.2 8.5,2.2 C5.2,2.2 2,4.9 2,8.2 L2,64" id="Shape" fill="#FFFFFF"></path>
                <path d="M2,66 C0.9,66 0,65.1 0,64 L0,8.2 C0,3.8 3.9,0.2 8.5,0.2 C13.1,0.2 17,3.9 17,8.2 L17,55 C17,56.1 16.1,57 15,57 C13.9,57 13,56.1 13,55 L13,8.2 C13,6.1 10.9,4.2 8.5,4.2 C6.1,4.2 4,6.1 4,8.2 L4,64 C4,65.1 3.1,66 2,66 Z" id="Shape" fill="#37474F"></path>
            </g>
        </g>
    </g>
</svg>