<?xml version="1.0" encoding="utf-8"?>
<!-- Generator: Adobe Illustrator 19.0.0, SVG Export Plug-In . SVG Version: 6.00 Build 0)  -->
<svg version="1.1" xmlns="http://www.w3.org/2000/svg" xmlns:xlink="http://www.w3.org/1999/xlink" x="0px" y="0px"
	 viewBox="-35 37 128 128" style="enable-background:new -35 37 128 128;" xml:space="preserve">
<style type="text/css">
	.st0{fill:#F9F9F9;}
	.st1{fill:#FFAB00;}
	.st2{fill:#37474F;}
	.st3{fill:none;}
	.st4{fill:#FFECB3;}
	.st5{fill:#FFFFFF;}
</style>
<g id="Layer_1">
	<g id="Layer_3">
		<rect x="-35" y="37" class="st0" width="128" height="128"/>
	</g>
	<g id="Layer_1_1_">
		<g id="Layer_2">
			<g>
				<g>
					<g>
						<polygon class="st1" points="37.7,61.8 22,39.1 6.3,61.8 						"/>
					</g>
					<g>
						<path class="st2" d="M37.7,63.3H6.3c-0.6,0-1.1-0.3-1.3-0.8S4.8,61.4,5.1,61l15.7-22.8c0.3-0.4,0.7-0.6,1.2-0.6l0,0
							c0.5,0,1,0.2,1.2,0.6l15.7,22.7c0.3,0.5,0.4,1.1,0.1,1.5C38.7,63,38.2,63.3,37.7,63.3z M9.2,60.3h25.6L22,41.8L9.2,60.3z"/>
					</g>
				</g>
				<g>
					<g>
						<g>
							<g>
								<path class="st2" d="M23.6,70.9c0,0.9-0.7,1.6-1.6,1.6s-1.6-0.7-1.6-1.6s0.7-1.6,1.6-1.6S23.6,70,23.6,70.9z"/>
							</g>
							<g>
								<path class="st2" d="M22,73c-1.2,0-2.1-0.9-2.1-2.1s0.9-2.1,2.1-2.1s2.1,1,2.1,2.1C24.1,72.1,23.2,73,22,73z M22,69.8
									c-0.6,0-1.1,0.5-1.1,1.1S21.4,72,22,72s1.1-0.5,1.1-1.1S22.6,69.8,22,69.8z"/>
							</g>
						</g>
					</g>
					<g>
						<g>
							<g>
								<path class="st2" d="M23.6,81.4c0,0.9-0.7,1.6-1.6,1.6s-1.6-0.7-1.6-1.6s0.7-1.6,1.6-1.6S23.6,80.5,23.6,81.4z"/>
							</g>
							<g>
								<path class="st2" d="M22,83.5c-1.2,0-2.1-0.9-2.1-2.1s0.9-2.1,2.1-2.1s2.1,1,2.1,2.1S23.2,83.5,22,83.5z M22,80.3
									c-0.6,0-1.1,0.5-1.1,1.1s0.5,1.1,1.1,1.1s1.1-0.5,1.1-1.1S22.6,80.3,22,80.3z"/>
							</g>
						</g>
					</g>
				</g>
			</g>
		</g>
	</g>
	<g id="Layer_2_1_">
		<g>
			<g>
				<g>
					<g>
						<path class="st0" d="M-9,95.2c0,2.1-1.7,4-4,4c-2.1,0-4-1.7-4-4c0-2.1,1.7-4,4-4C-10.7,91.3-9,93.1-9,95.2z"/>
					</g>
					<g>
						<path class="st2" d="M-12.9,100.2c-2.7,0-5-2.2-5-5s2.2-5,5-5s5,2.2,5,5C-7.9,98-10.2,100.2-12.9,100.2z M-12.9,92.4
							c-1.6,0-2.9,1.3-2.9,2.9s1.3,2.9,2.9,2.9s2.9-1.3,2.9-2.9C-10,93.7-11.3,92.4-12.9,92.4z"/>
					</g>
				</g>
				<g>
					<g>
						<line class="st3" x1="-2.3" y1="95.3" x2="33.7" y2="95.3"/>
					</g>
					<g>
						<path class="st2" d="M33.7,96.4h-36c-0.6,0-1-0.5-1-1s0.5-1,1-1h36c0.6,0,1,0.5,1,1S34.3,96.4,33.7,96.4z"/>
					</g>
				</g>
				<g>
					<g>
						<g>
							<path class="st2" d="M43.7,95.2c0,0.7-0.6,1.2-1.2,1.2c-0.7,0-1.3-0.6-1.3-1.2c0-0.7,0.6-1.2,1.3-1.2S43.7,94.5,43.7,95.2z"
								/>
						</g>
						<g>
							<path class="st2" d="M42.5,96.9c-0.9,0-1.7-0.7-1.7-1.6s0.8-1.6,1.7-1.6c0.8,0,1.6,0.8,1.6,1.6S43.4,96.9,42.5,96.9z
								 M42.5,94.3c-0.6,0-1,0.4-1,0.9s0.4,0.9,1,0.9c0.5,0,0.9-0.4,0.9-0.9C43.4,94.7,43,94.3,42.5,94.3z"/>
						</g>
					</g>
					<g>
						<g>
							<path class="st2" d="M52.7,95.2c0,0.7-0.6,1.2-1.3,1.2s-1.2-0.6-1.2-1.2c0-0.7,0.6-1.2,1.2-1.2C52.1,94,52.7,94.5,52.7,95.2z
								"/>
						</g>
						<g>
							<path class="st2" d="M51.4,96.9c-0.9,0-1.6-0.7-1.6-1.6s0.7-1.6,1.6-1.6c0.9,0,1.7,0.8,1.7,1.6S52.3,96.9,51.4,96.9z
								 M51.4,94.3c-0.5,0-0.9,0.4-0.9,0.9s0.4,0.9,0.9,0.9s1-0.4,1-0.9C52.3,94.7,51.9,94.3,51.4,94.3z"/>
						</g>
					</g>
					<g>
						<g>
							<path class="st2" d="M61.6,95.2c0,0.7-0.6,1.2-1.2,1.2c-0.7,0-1.3-0.6-1.3-1.2c0-0.7,0.6-1.2,1.3-1.2
								C60.9,94,61.6,94.5,61.6,95.2z"/>
						</g>
						<g>
							<path class="st2" d="M60.3,96.9c-0.9,0-1.7-0.7-1.7-1.6s0.8-1.6,1.7-1.6c0.8,0,1.6,0.8,1.6,1.6S61.1,96.9,60.3,96.9z
								 M60.3,94.3c-0.6,0-1,0.4-1,0.9s0.4,0.9,1,0.9c0.5,0,0.9-0.4,0.9-0.9C61.2,94.7,60.8,94.3,60.3,94.3z"/>
						</g>
					</g>
				</g>
			</g>
			<g>
				<g>
					<g>
						<path class="st1" d="M-9,110.6c0,2.1-1.7,4-4,4c-2.1,0-4-1.7-4-4c0-2.1,1.7-4,4-4S-9,108.4-9,110.6z"/>
					</g>
					<g>
						<path class="st2" d="M-12.9,115.6c-2.7,0-5-2.2-5-5c0-2.7,2.2-5,5-5s5,2.2,5,5C-8,113.3-10.2,115.6-12.9,115.6z M-12.9,107.7
							c-1.6,0-2.9,1.3-2.9,2.9s1.3,2.9,2.9,2.9s2.9-1.3,2.9-2.9S-11.3,107.7-12.9,107.7z"/>
					</g>
				</g>
				<g>
					<g>
						<line class="st3" x1="-2.3" y1="110.6" x2="33.7" y2="110.6"/>
					</g>
					<g>
						<path class="st2" d="M33.7,111.6h-36c-0.6,0-1-0.5-1-1c0-0.6,0.5-1,1-1h36c0.6,0,1,0.5,1,1S34.3,111.6,33.7,111.6z"/>
					</g>
				</g>
				<g>
					<g>
						<g>
							<path class="st2" d="M43.7,110.6c0,0.7-0.6,1.2-1.2,1.2c-0.7,0-1.3-0.6-1.3-1.2c0-0.7,0.6-1.2,1.3-1.2
								C43.2,109.3,43.7,109.9,43.7,110.6z"/>
						</g>
						<g>
							<path class="st2" d="M42.5,112.2c-0.9,0-1.7-0.8-1.7-1.6c0-0.9,0.8-1.6,1.7-1.6c0.8,0,1.6,0.8,1.6,1.6
								C44.1,111.5,43.4,112.2,42.5,112.2z M42.5,109.7c-0.6,0-1,0.4-1,0.9s0.4,0.9,1,0.9c0.5,0,0.9-0.4,0.9-0.9
								S43,109.7,42.5,109.7z"/>
						</g>
					</g>
					<g>
						<g>
							<path class="st2" d="M52.7,110.6c0,0.7-0.6,1.2-1.3,1.2s-1.2-0.6-1.2-1.2c0-0.7,0.6-1.2,1.2-1.2
								C52.1,109.3,52.7,109.9,52.7,110.6z"/>
						</g>
						<g>
							<path class="st2" d="M51.4,112.2c-0.9,0-1.6-0.8-1.6-1.6c0-0.9,0.7-1.6,1.6-1.6c0.9,0,1.7,0.8,1.7,1.6
								C53,111.5,52.3,112.2,51.4,112.2z M51.4,109.7c-0.5,0-0.9,0.4-0.9,0.9s0.4,0.9,0.9,0.9s1-0.4,1-0.9
								C52.3,110.1,51.9,109.7,51.4,109.7z"/>
						</g>
					</g>
					<g>
						<g>
							<path class="st2" d="M61.6,110.6c0,0.7-0.6,1.2-1.2,1.2c-0.7,0-1.3-0.6-1.3-1.2c0-0.7,0.6-1.2,1.3-1.2
								C60.9,109.3,61.6,109.9,61.6,110.6z"/>
						</g>
						<g>
							<path class="st2" d="M60.3,112.2c-0.9,0-1.7-0.8-1.7-1.6c0-0.9,0.8-1.6,1.7-1.6c0.8,0,1.6,0.8,1.6,1.6
								C61.9,111.5,61.1,112.2,60.3,112.2z M60.3,109.7c-0.6,0-1,0.4-1,0.9s0.4,0.9,1,0.9c0.5,0,0.9-0.4,0.9-0.9
								C61.2,110.1,60.8,109.7,60.3,109.7z"/>
						</g>
					</g>
				</g>
			</g>
			<g>
				<g>
					<g>
						<path class="st0" d="M-9,126c0,2.1-1.7,4-4,4c-2.1,0-4-1.7-4-4c0-2.1,1.7-4,4-4S-9,123.8-9,126z"/>
					</g>
					<g>
						<path class="st2" d="M-12.9,130.9c-2.7,0-5-2.2-5-5c0-2.7,2.2-5,5-5s5,2.2,5,5C-8,128.7-10.2,130.9-12.9,130.9z M-12.9,123.1
							c-1.6,0-2.9,1.3-2.9,2.9s1.3,2.9,2.9,2.9s2.9-1.3,2.9-2.9S-11.3,123.1-12.9,123.1z"/>
					</g>
				</g>
				<g>
					<g>
						<line class="st3" x1="-2.3" y1="125.8" x2="33.7" y2="125.8"/>
					</g>
					<g>
						<path class="st2" d="M33.7,126.9h-36c-0.6,0-1-0.5-1-1s0.5-1,1-1h36c0.6,0,1,0.5,1,1S34.3,126.9,33.7,126.9z"/>
					</g>
				</g>
				<g>
					<g>
						<g>
							<path class="st2" d="M43.7,126c0,0.7-0.6,1.2-1.2,1.2c-0.7,0-1.3-0.6-1.3-1.2s0.6-1.2,1.3-1.2
								C43.2,124.7,43.7,125.3,43.7,126z"/>
						</g>
						<g>
							<path class="st2" d="M42.5,127.6c-0.9,0-1.7-0.7-1.7-1.6s0.8-1.6,1.7-1.6c0.8,0,1.6,0.8,1.6,1.6
								C44.1,126.8,43.4,127.6,42.5,127.6z M42.5,125c-0.6,0-1,0.4-1,0.9s0.4,0.9,1,0.9c0.5,0,0.9-0.4,0.9-0.9S43,125,42.5,125z"/>
						</g>
					</g>
					<g>
						<g>
							<path class="st2" d="M52.7,126c0,0.7-0.6,1.2-1.3,1.2s-1.2-0.6-1.2-1.2s0.6-1.2,1.2-1.2C52.1,124.7,52.7,125.3,52.7,126z"/>
						</g>
						<g>
							<path class="st2" d="M51.4,127.6c-0.9,0-1.6-0.8-1.6-1.6c0-0.9,0.7-1.6,1.6-1.6c0.9,0,1.7,0.7,1.7,1.6
								C53,126.8,52.3,127.6,51.4,127.6z M51.4,125c-0.5,0-0.9,0.4-0.9,0.9s0.4,0.9,0.9,0.9s1-0.4,1-0.9
								C52.3,125.4,51.9,125,51.4,125z"/>
						</g>
					</g>
					<g>
						<g>
							<path class="st2" d="M61.6,126c0,0.7-0.6,1.2-1.2,1.2c-0.7,0-1.3-0.6-1.3-1.2s0.6-1.2,1.3-1.2
								C60.9,124.7,61.6,125.3,61.6,126z"/>
						</g>
						<g>
							<path class="st2" d="M60.3,127.6c-0.9,0-1.7-0.7-1.7-1.6s0.8-1.6,1.7-1.6c0.8,0,1.6,0.8,1.6,1.6
								C61.9,126.8,61.1,127.6,60.3,127.6z M60.3,125c-0.6,0-1,0.4-1,0.9s0.4,0.9,1,0.9c0.5,0,0.9-0.4,0.9-0.9
								C61.2,125.4,60.8,125,60.3,125z"/>
						</g>
					</g>
				</g>
			</g>
			<g>
				<g>
					<g>
						<path class="st1" d="M-9,141.3c0,2.1-1.7,4-4,4c-2.1,0-4-1.7-4-4c0-2.1,1.7-4,4-4C-10.7,137.4-9,139.1-9,141.3z"/>
					</g>
					<g>
						<path class="st2" d="M-12.9,146.3c-2.7,0-5-2.2-5-5c0-2.7,2.2-5,5-5s5,2.2,5,5C-8,144.1-10.2,146.3-12.9,146.3z M-12.9,138.4
							c-1.6,0-2.9,1.3-2.9,2.9c0,1.6,1.3,2.9,2.9,2.9s2.9-1.2,2.9-2.8C-10,139.7-11.3,138.4-12.9,138.4z"/>
					</g>
				</g>
				<g>
					<g>
						<line class="st3" x1="-2.3" y1="141.1" x2="33.7" y2="141.1"/>
					</g>
					<g>
						<path class="st2" d="M33.7,142.1h-36c-0.6,0-1-0.5-1-1s0.5-1,1-1h36c0.6,0,1,0.5,1,1S34.3,142.1,33.7,142.1z"/>
					</g>
				</g>
				<g>
					<g>
						<g>
							<path class="st2" d="M43.7,141.3c0,0.7-0.6,1.2-1.2,1.2c-0.7,0-1.3-0.6-1.3-1.2s0.6-1.2,1.3-1.2
								C43.2,140,43.7,140.6,43.7,141.3z"/>
						</g>
						<g>
							<path class="st2" d="M42.5,143c-0.9,0-1.7-0.7-1.7-1.6c0-0.9,0.8-1.6,1.7-1.6c0.8,0,1.6,0.8,1.6,1.6S43.4,143,42.5,143z
								 M42.5,140.4c-0.6,0-1,0.4-1,0.9s0.4,0.9,1,0.9c0.5,0,0.9-0.4,0.9-0.9C43.4,140.8,43,140.4,42.5,140.4z"/>
						</g>
					</g>
					<g>
						<g>
							<path class="st2" d="M52.7,141.3c0,0.7-0.6,1.2-1.3,1.2s-1.2-0.6-1.2-1.2s0.6-1.2,1.2-1.2C52.1,140,52.7,140.6,52.7,141.3z"
								/>
						</g>
						<g>
							<path class="st2" d="M51.4,143c-0.9,0-1.6-0.7-1.6-1.6c0-0.9,0.7-1.6,1.6-1.6c0.9,0,1.7,0.8,1.7,1.6S52.3,143,51.4,143z
								 M51.4,140.4c-0.5,0-0.9,0.4-0.9,0.9s0.4,0.9,0.9,0.9s1-0.4,1-0.9C52.3,140.8,51.9,140.4,51.4,140.4z"/>
						</g>
					</g>
					<g>
						<g>
							<path class="st2" d="M61.6,141.3c0,0.7-0.6,1.2-1.2,1.2c-0.7,0-1.3-0.6-1.3-1.2s0.6-1.2,1.3-1.2
								C60.9,140,61.6,140.6,61.6,141.3z"/>
						</g>
						<g>
							<path class="st2" d="M60.3,143c-0.9,0-1.7-0.7-1.7-1.6c0-0.9,0.8-1.6,1.7-1.6c0.8,0,1.6,0.8,1.6,1.6S61.1,143,60.3,143z
								 M60.3,140.4c-0.6,0-1,0.4-1,0.9s0.4,0.9,1,0.9c0.5,0,0.9-0.4,0.9-0.9C61.2,140.8,60.8,140.4,60.3,140.4z"/>
						</g>
					</g>
				</g>
			</g>
			<g>
				<g>
					<g>
						<path class="st0" d="M-9,156.7c0,2.1-1.7,4-4,4c-2.1,0-4-1.7-4-4c0-2.1,1.7-4,4-4S-9,154.5-9,156.7z"/>
					</g>
					<g>
						<path class="st2" d="M-12.9,161.7c-2.7,0-5-2.2-5-5c0-2.7,2.2-5,5-5s5,2.2,5,5C-8,159.4-10.2,161.7-12.9,161.7z M-12.9,153.8
							c-1.6,0-2.9,1.3-2.9,2.9c0,1.6,1.3,2.9,2.9,2.9s2.9-1.3,2.9-2.9S-11.3,153.8-12.9,153.8z"/>
					</g>
				</g>
				<g>
					<g>
						<line class="st3" x1="-2.3" y1="156.3" x2="33.7" y2="156.3"/>
					</g>
					<g>
						<path class="st2" d="M33.7,157.4h-36c-0.6,0-1-0.5-1-1c0-0.6,0.5-1,1-1h36c0.6,0,1,0.5,1,1S34.3,157.4,33.7,157.4z"/>
					</g>
				</g>
				<g>
					<g>
						<g>
							<path class="st2" d="M43.7,156.7c0,0.7-0.6,1.2-1.2,1.2c-0.7,0-1.3-0.6-1.3-1.2s0.6-1.2,1.3-1.2
								C43.2,155.4,43.7,156,43.7,156.7z"/>
						</g>
						<g>
							<path class="st2" d="M42.5,158.3c-0.9,0-1.7-0.7-1.7-1.6s0.8-1.6,1.7-1.6c0.8,0,1.6,0.8,1.6,1.6
								C44.1,157.6,43.4,158.3,42.5,158.3z M42.5,155.8c-0.6,0-1,0.4-1,0.9s0.4,0.9,1,0.9c0.5,0,0.9-0.4,0.9-0.9
								S43,155.8,42.5,155.8z"/>
						</g>
					</g>
					<g>
						<g>
							<path class="st2" d="M52.7,156.7c0,0.7-0.6,1.2-1.3,1.2s-1.2-0.6-1.2-1.2s0.6-1.2,1.2-1.2C52.1,155.4,52.7,156,52.7,156.7z"
								/>
						</g>
						<g>
							<path class="st2" d="M51.4,158.3c-0.9,0-1.6-0.7-1.6-1.6s0.7-1.6,1.6-1.6c0.9,0,1.7,0.8,1.7,1.6
								C53,157.6,52.3,158.3,51.4,158.3z M51.4,155.8c-0.5,0-0.9,0.4-0.9,0.9s0.4,0.9,0.9,0.9s1-0.4,1-0.9
								C52.3,156.2,51.9,155.8,51.4,155.8z"/>
						</g>
					</g>
					<g>
						<g>
							<path class="st2" d="M61.6,156.7c0,0.7-0.6,1.2-1.2,1.2c-0.7,0-1.3-0.6-1.3-1.2s0.6-1.2,1.3-1.2
								C60.9,155.4,61.6,156,61.6,156.7z"/>
						</g>
						<g>
							<path class="st2" d="M60.3,158.3c-0.9,0-1.7-0.7-1.7-1.6s0.8-1.6,1.7-1.6c0.8,0,1.6,0.8,1.6,1.6
								C61.9,157.6,61.1,158.3,60.3,158.3z M60.3,155.8c-0.6,0-1,0.4-1,0.9s0.4,0.9,1,0.9c0.5,0,0.9-0.4,0.9-0.9
								C61.2,156.2,60.8,155.8,60.3,155.8z"/>
						</g>
					</g>
				</g>
			</g>
		</g>
	</g>
</g>
<g id="Layer_3_1_">
	<g id="Layer_1_2_">
		<g>
			<g>
				<g>
					<rect x="34.2" y="113.3" class="st1" width="51.3" height="47.9"/>
					<path class="st2" d="M85.4,162H34.2c-0.4,0-0.7-0.4-0.7-0.7v-48c0-0.4,0.4-0.7,0.7-0.7h51.3c0.4,0,0.7,0.4,0.7,0.7v47.9
						C86.1,161.6,85.8,162,85.4,162z M34.9,160.5h49.8V114H34.9V160.5z"/>
				</g>
				<g>
					<g>
						<g>
							<rect x="31.3" y="113.3" class="st4" width="7.6" height="7.6"/>
							<path class="st2" d="M38.9,121.6h-7.6c-0.4,0-0.7-0.4-0.7-0.7v-7.6c0-0.4,0.4-0.7,0.7-0.7h7.6c0.4,0,0.7,0.4,0.7,0.7v7.6
								C39.6,121.3,39.3,121.6,38.9,121.6z M32,120.2h6.2V114H32V120.2z"/>
						</g>
						<g>
							<rect x="31.3" y="121.4" class="st4" width="7.6" height="7.6"/>
							<path class="st2" d="M38.9,129.7h-7.6c-0.4,0-0.7-0.4-0.7-0.7v-7.6c0-0.4,0.4-0.7,0.7-0.7h7.6c0.4,0,0.7,0.4,0.7,0.7v7.6
								C39.6,129.4,39.3,129.7,38.9,129.7z M32,128.3h6.2v-6.2H32V128.3z"/>
						</g>
						<g>
							<rect x="31.3" y="129.5" class="st4" width="7.6" height="7.6"/>
							<path class="st2" d="M38.9,137.8h-7.6c-0.4,0-0.7-0.4-0.7-0.7v-7.6c0-0.4,0.4-0.7,0.7-0.7h7.6c0.4,0,0.7,0.4,0.7,0.7v7.6
								C39.6,137.4,39.3,137.8,38.9,137.8z M32,136.3h6.2v-6.2H32V136.3z"/>
						</g>
						<g>
							<rect x="31.3" y="137.5" class="st4" width="7.6" height="7.6"/>
							<path class="st2" d="M38.9,145.8h-7.6c-0.4,0-0.7-0.4-0.7-0.7v-7.6c0-0.4,0.4-0.7,0.7-0.7h7.6c0.4,0,0.7,0.4,0.7,0.7v7.6
								C39.6,145.5,39.3,145.8,38.9,145.8z M32,144.4h6.2v-6.2H32V144.4z"/>
						</g>
						<g>
							<rect x="31.3" y="145.6" class="st4" width="7.6" height="7.6"/>
							<path class="st2" d="M38.9,153.9h-7.6c-0.4,0-0.7-0.4-0.7-0.7v-7.6c0-0.4,0.4-0.7,0.7-0.7h7.6c0.4,0,0.7,0.4,0.7,0.7v7.6
								C39.6,153.6,39.3,153.9,38.9,153.9z M32,152.5h6.2v-6.2H32V152.5z"/>
						</g>
						<g>
							<rect x="31.3" y="153.7" class="st4" width="7.6" height="7.6"/>
							<path class="st2" d="M38.9,162h-7.6c-0.4,0-0.7-0.4-0.7-0.7v-7.6c0-0.4,0.4-0.7,0.7-0.7h7.6c0.4,0,0.7,0.4,0.7,0.7v7.6
								C39.6,161.6,39.3,162,38.9,162z M32,160.5h6.2v-6.2H32V160.5z"/>
						</g>
					</g>
					<g>
						<g>
							<rect x="80.7" y="113.3" class="st4" width="7.6" height="7.6"/>
							<path class="st2" d="M88.3,121.6h-7.6c-0.4,0-0.7-0.4-0.7-0.7v-7.6c0-0.4,0.4-0.7,0.7-0.7h7.6c0.4,0,0.7,0.4,0.7,0.7v7.6
								C89,121.3,88.6,121.6,88.3,121.6z M81.4,120.2h6.2V114h-6.2V120.2z"/>
						</g>
						<g>
							<rect x="80.7" y="121.4" class="st4" width="7.6" height="7.6"/>
							<path class="st2" d="M88.3,129.7h-7.6c-0.4,0-0.7-0.4-0.7-0.7v-7.6c0-0.4,0.4-0.7,0.7-0.7h7.6c0.4,0,0.7,0.4,0.7,0.7v7.6
								C89,129.4,88.6,129.7,88.3,129.7z M81.4,128.3h6.2v-6.2h-6.2V128.3z"/>
						</g>
						<g>
							<rect x="80.7" y="129.5" class="st4" width="7.6" height="7.6"/>
							<path class="st2" d="M88.3,137.8h-7.6c-0.4,0-0.7-0.4-0.7-0.7v-7.6c0-0.4,0.4-0.7,0.7-0.7h7.6c0.4,0,0.7,0.4,0.7,0.7v7.6
								C89,137.4,88.6,137.8,88.3,137.8z M81.4,136.3h6.2v-6.2h-6.2V136.3z"/>
						</g>
						<g>
							<rect x="80.7" y="137.5" class="st4" width="7.6" height="7.6"/>
							<path class="st2" d="M88.3,145.8h-7.6c-0.4,0-0.7-0.4-0.7-0.7v-7.6c0-0.4,0.4-0.7,0.7-0.7h7.6c0.4,0,0.7,0.4,0.7,0.7v7.6
								C89,145.5,88.6,145.8,88.3,145.8z M81.4,144.4h6.2v-6.2h-6.2V144.4z"/>
						</g>
						<g>
							<rect x="80.7" y="145.6" class="st4" width="7.6" height="7.6"/>
							<path class="st2" d="M88.3,153.9h-7.6c-0.4,0-0.7-0.4-0.7-0.7v-7.6c0-0.4,0.4-0.7,0.7-0.7h7.6c0.4,0,0.7,0.4,0.7,0.7v7.6
								C89,153.6,88.6,153.9,88.3,153.9z M81.4,152.5h6.2v-6.2h-6.2V152.5z"/>
						</g>
						<g>
							<rect x="80.7" y="153.7" class="st4" width="7.6" height="7.6"/>
							<path class="st2" d="M88.3,162h-7.6c-0.4,0-0.7-0.4-0.7-0.7v-7.6c0-0.4,0.4-0.7,0.7-0.7h7.6c0.4,0,0.7,0.4,0.7,0.7v7.6
								C89,161.6,88.6,162,88.3,162z M81.4,160.5h6.2v-6.2h-6.2V160.5z"/>
						</g>
					</g>
				</g>
				<g>
					<g>
						<g>
							<g>
								<path class="st4" d="M54.9,147c0.9,1.4,0,3.6-2.1,4.9c-2,1.3-4.4,1.2-5.3-0.4c-0.9-1.4,0-3.6,2-4.9
									C51.6,145.4,54,145.6,54.9,147z"/>
								<path class="st2" d="M50,153.5c-1.4,0-2.5-0.6-3.1-1.5c-1.2-1.8-0.2-4.4,2.3-5.9c1-0.6,2.2-1,3.2-1c1.4,0,2.5,0.6,3.1,1.5
									c1.2,1.8,0.2,4.4-2.3,5.9C52.2,153.1,51.1,153.5,50,153.5z M52.4,146.6c-0.8,0-1.7,0.3-2.4,0.8c-1.7,1.1-2.5,2.8-1.8,3.9
									c0.4,0.5,1,0.9,1.9,0.9c0.8,0,1.7-0.3,2.4-0.8c1.7-1.1,2.5-2.8,1.8-3.9C53.9,146.9,53.3,146.6,52.4,146.6z"/>
							</g>
							<g>
								<line class="st3" x1="55.1" y1="128.8" x2="55.1" y2="147.2"/>
								<path class="st2" d="M55.1,148c-0.4,0-0.7-0.4-0.7-0.7v-18.5c0-0.4,0.4-0.7,0.7-0.7s0.7,0.4,0.7,0.7v18.5
									C55.8,147.6,55.4,148,55.1,148z"/>
							</g>
						</g>
					</g>
					<g>
						<g>
							<g>
								<path class="st4" d="M71.9,142.1c0.9,1.4,0,3.6-2.1,4.9c-2,1.3-4.4,1.2-5.3-0.4c-0.9-1.4,0-3.6,2.1-4.9
									C68.7,140.5,71,140.6,71.9,142.1z"/>
								<path class="st2" d="M67.1,148.5c-1.4,0-2.5-0.6-3.1-1.5c-0.6-0.9-0.6-2-0.2-3.2c0.5-1.1,1.3-2,2.4-2.7c1-0.6,2.2-1,3.2-1
									c1.4,0,2.5,0.6,3.1,1.5c0.6,0.9,0.6,2,0.2,3.2c-0.5,1.1-1.3,2-2.4,2.7C69.3,148.2,68.1,148.5,67.1,148.5z M69.5,141.6
									c-0.8,0-1.7,0.3-2.4,0.8c-0.9,0.5-1.5,1.3-1.8,2.1c-0.3,0.7-0.3,1.4,0,1.9c0.4,0.5,1,0.9,1.9,0.9c0.8,0,1.7-0.3,2.4-0.8
									c0.9-0.5,1.5-1.3,1.8-2.1c0.3-0.7,0.3-1.4-0.1-1.9C71,141.9,70.3,141.6,69.5,141.6z"/>
							</g>
							<g>
								<line class="st3" x1="72.1" y1="123.5" x2="72.1" y2="142.5"/>
								<path class="st2" d="M72.1,143.2c-0.4,0-0.7-0.4-0.7-0.7v-19c0-0.4,0.4-0.7,0.7-0.7c0.4,0,0.7,0.4,0.7,0.7v19
									C72.8,142.9,72.5,143.2,72.1,143.2z"/>
							</g>
						</g>
					</g>
					<g>
						<polyline class="st4" points="55.1,128.4 72.1,121.8 72.1,124.5 						"/>
						<path class="st2" d="M55.1,129.1c-0.3,0-0.6-0.2-0.7-0.5c-0.2-0.4,0.1-0.8,0.5-0.9l17.1-6.6c0.3-0.1,0.5-0.1,0.7,0.1
							c0.2,0.2,0.4,0.4,0.4,0.6v2.7c0,0.4-0.4,0.7-0.7,0.7c-0.4,0-0.7-0.4-0.7-0.7v-1.6l-16.3,6.2C55.2,129.1,55.2,129.1,55.1,129.1
							z"/>
					</g>
					<g>
						<polyline class="st4" points="55.1,133 72.1,126.9 72.1,129.2 						"/>
						<path class="st2" d="M55.1,133.7c-0.3,0-0.6-0.2-0.7-0.5c-0.2-0.4,0.1-0.8,0.5-0.9l17.1-6.2c0.3-0.1,0.5-0.1,0.7,0.1
							c0.2,0.2,0.3,0.4,0.3,0.6v2.4c0,0.4-0.4,0.7-0.7,0.7c-0.4,0-0.7-0.4-0.7-0.7v-1.4l-16.2,5.8C55.2,133.7,55.2,133.7,55.1,133.7
							z"/>
					</g>
				</g>
			</g>
			<g>
				<g>
					<path class="st2" d="M48.9,139.5c0.6,0,1.1,0.5,1.1,1.1s-0.5,1.1-1.1,1.1s-1.1-0.5-1.1-1.1C47.8,140,48.3,139.5,48.9,139.5z"/>
					<path class="st2" d="M48.9,141.8c-0.7,0-1.3-0.6-1.3-1.3c0-0.8,0.6-1.3,1.3-1.3c0.8,0,1.3,0.6,1.3,1.3
						C50.2,141.3,49.6,141.8,48.9,141.8z M48.9,139.8c-0.5,0-0.8,0.4-0.8,0.8c0,0.5,0.4,0.8,0.8,0.8c0.4,0,0.8-0.4,0.8-0.8
						C49.7,140.1,49.4,139.8,48.9,139.8z"/>
				</g>
				<g>
					<path class="st2" d="M48.9,132.2c0.6,0,1.1,0.5,1.1,1.1c0,0.6-0.5,1.1-1.1,1.1s-1.1-0.5-1.1-1.1
						C47.8,132.6,48.3,132.2,48.9,132.2z"/>
					<path class="st2" d="M48.9,134.5c-0.7,0-1.3-0.6-1.3-1.4c0-0.7,0.6-1.3,1.3-1.3c0.8,0,1.3,0.6,1.3,1.3
						C50.2,133.9,49.6,134.5,48.9,134.5z M48.9,132.4c-0.5,0-0.8,0.4-0.8,0.8c0,0.5,0.4,0.9,0.8,0.9c0.4,0,0.8-0.4,0.8-0.9
						C49.7,132.8,49.4,132.4,48.9,132.4z"/>
				</g>
				<g>
					<path class="st2" d="M48.9,124.8c0.6,0,1.1,0.5,1.1,1.1c0,0.6-0.5,1.1-1.1,1.1s-1.1-0.5-1.1-1.1
						C47.8,125.2,48.3,124.8,48.9,124.8z"/>
					<path class="st2" d="M48.9,127.1c-0.7,0-1.3-0.6-1.3-1.3c0-0.7,0.6-1.3,1.3-1.3c0.8,0,1.3,0.6,1.3,1.3
						C50.2,126.5,49.6,127.1,48.9,127.1z M48.9,125c-0.5,0-0.8,0.4-0.8,0.8s0.4,0.8,0.8,0.8c0.4,0,0.8-0.4,0.8-0.8
						C49.7,125.4,49.4,125,48.9,125z"/>
				</g>
			</g>
		</g>
	</g>
</g>
<g id="Layer_2_2_">
	<g id="Layer_3_3_">
		<g id="Layer_2_4_">
			<path id="XMLID_4_" class="st2" d="M82.1,144c-1.4,0-2.5,1.1-2.6,2.5c-0.4-0.2-0.9-0.5-1.4-0.5c-1.4,0-2.5,1.1-2.6,2.5
				c-1.5,0.3-2.7,1.6-2.7,3.2v2.7c0,1.7,0.9,3.4,2,4.8c1.1,1.4,2.1,2.6,3,3.5v1.7c0,0.3,0.3,0.6,0.6,0.6h11.4c0.3,0,0.6-0.3,0.6-0.6
				v-3.5c1.4-1.6,2.4-3.7,2.4-6v-5c0-1.5-1.2-2.7-2.7-2.7c-0.6,0-0.9,0.2-1.4,0.5c-0.2-1.4-1.2-2.5-2.6-2.5c-0.6,0-1.1,0.2-1.5,0.6
				C84.2,144.8,83.2,144,82.1,144z"/>
			<path id="XMLID_2_" class="st5" d="M82.1,145.3c0.8,0,1.4,0.6,1.4,1.4v1.4c0,0.4,0.3,0.6,0.6,0.6c0.4,0,0.6-0.3,0.6-0.6
				c0-0.8,0.6-1.4,1.4-1.4c0.8,0,1.4,0.6,1.4,1.4v0.6v1.4c0,0.4,0.3,0.6,0.6,0.6c0.4,0,0.6-0.3,0.6-0.6c0-0.8,0.6-1.4,1.4-1.4
				c0.8,0,1.4,0.6,1.4,1.4v5c0,2-0.8,3.9-2.1,5.2c-0.2,0.2-0.2,0.3-0.2,0.5v3h-10v-1.4c0-0.2-0.1-0.3-0.2-0.5
				c-0.8-0.8-2-2.1-3.1-3.5c-1.1-1.4-1.7-2.9-1.7-4v-2.7c0-0.9,0.6-1.6,1.4-1.9v3.9c0,0.3,0.3,0.7,0.6,0.7s0.7-0.3,0.6-0.7v-5
				c0-0.8,0.6-1.4,1.4-1.4s1.4,0.6,1.4,1.4c0,0.4,0.3,0.6,0.6,0.6c0.4,0,0.6-0.3,0.6-0.6v-2C80.7,145.9,81.2,145.3,82.1,145.3z"/>
		</g>
	</g>
</g>
</svg>
