<?xml version="1.0" encoding="utf-8"?>
<!-- Generator: Adobe Illustrator 19.0.0, SVG Export Plug-In . SVG Version: 6.00 Build 0)  -->
<svg version="1.1" xmlns="http://www.w3.org/2000/svg" xmlns:xlink="http://www.w3.org/1999/xlink" x="0px" y="0px"
	 viewBox="-35 37 128 128" style="enable-background:new -35 37 128 128;" xml:space="preserve">
<style type="text/css">
	.st0{fill:#FFAB00;}
	.st1{fill:#37474F;}
	.st2{fill:#FFECB3;}
	.st3{fill:#FFFFFF;}
</style>
<g id="Layer_2_1_">
	<g id="Layer_1_2_">
		<g id="Layer_2_6_">
			<g>
				<g>
					<path class="st0" d="M77.8,101c0,26.9-21.8,48.8-48.8,48.8S-19.8,128-19.8,101S2.1,52.2,29,52.2S77.8,74.1,77.8,101z"/>
					<path class="st1" d="M29,151c-27.5,0-50-22.4-50-50c0-27.5,22.4-50,50-50c27.5,0,50,22.4,50,50C79,128.5,56.5,151,29,151z
						 M29,53.5c-26.2,0-47.5,21.3-47.5,47.5S2.8,148.5,29,148.5s47.5-21.3,47.5-47.5S55.2,53.5,29,53.5z"/>
				</g>
				<g>
					<path class="st2" d="M67.9,101c0,21.5-17.4,38.9-38.9,38.9S-9.9,122.5-9.9,101S7.5,62.1,29,62.1S67.9,79.5,67.9,101z"/>
					<path class="st1" d="M29,141.1c-22.2,0-40.1-18.1-40.1-40.1C-11.1,78.8,7,60.9,29,60.9S69.1,79,69.1,101
						C69.1,123.2,51.2,141.1,29,141.1z M29,63.3C8.2,63.3-8.7,80.2-8.7,101S8.2,138.7,29,138.7s37.7-16.9,37.7-37.7
						S49.8,63.3,29,63.3z"/>
				</g>
				<g>
					<g>
						<polygon class="st1" points="17.4,121.8 51.4,101 17.4,80.2 						"/>
						<path class="st1" d="M17.4,123c-0.2,0-0.4,0-0.5-0.2c-0.4-0.2-0.7-0.7-0.7-1.1V80.2c0-0.4,0.2-0.9,0.7-1.1
							c0.4-0.2,0.9-0.2,1.2,0l34,20.8c0.4,0.2,0.5,0.7,0.5,1.1s-0.2,0.9-0.5,1.1l-34,20.8C17.7,123,17.6,123,17.4,123z M18.6,82.3
							v37.1l30.3-18.7L18.6,82.3z"/>
					</g>
				</g>
			</g>
		</g>
	</g>
</g>
<g id="Layer_1">
	<g id="Layer_2">
		<g>
			<g>
				<g>
					<g>
						<polyline class="st0" points="44.5,91.2 50.7,85.5 49.3,82.8 						"/>
					</g>
					<g>
						<path class="st1" d="M44.5,91.9c-0.2,0-0.4-0.1-0.5-0.2c-0.3-0.3-0.2-0.7,0-1l5.8-5.3l-1.2-2.2c-0.2-0.3,0-0.7,0.3-0.9
							c0.3-0.2,0.7,0,0.9,0.3l1.7,3.2l-6.6,6C44.8,91.8,44.7,91.9,44.5,91.9z"/>
					</g>
				</g>
				<g>
					<g>
						<polyline class="st0" points="37.2,75.6 45.6,74.6 45.9,71.5 						"/>
					</g>
					<g>
						<path class="st1" d="M37.2,76.3c-0.3,0-0.7-0.2-0.7-0.6s0.2-0.7,0.6-0.8l7.8-1l0.3-2.5c0-0.4,0.4-0.7,0.8-0.6
							c0.4,0,0.7,0.4,0.6,0.8l-0.4,3.6L37.2,76.3C37.3,76.3,37.3,76.3,37.2,76.3z"/>
					</g>
				</g>
				<g>
					<g>
						<polyline class="st0" points="40.1,58.7 47.6,62.6 49.7,60.2 						"/>
					</g>
					<g>
						<path class="st1" d="M47.8,63.5l-8-4.1c-0.3-0.2-0.5-0.6-0.3-0.9c0.2-0.3,0.6-0.5,0.9-0.3l7,3.6l1.7-1.9
							c0.2-0.3,0.7-0.3,1-0.1s0.3,0.7,0.1,1L47.8,63.5z"/>
					</g>
				</g>
				<g>
					<g>
						<polyline class="st0" points="52.1,46.5 56.1,53.9 59.1,53.1 						"/>
					</g>
					<g>
						<path class="st1" d="M55.8,54.7l-4.3-7.9c-0.2-0.3,0-0.7,0.3-0.9s0.7,0,0.9,0.3l3.7,6.9l2.5-0.6c0.4-0.1,0.7,0.1,0.8,0.5
							s-0.1,0.7-0.5,0.8L55.8,54.7z"/>
					</g>
				</g>
				<g>
					<g>
						<polyline class="st0" points="68.9,43.2 68,51.6 70.9,52.7 						"/>
					</g>
					<g>
						<path class="st1" d="M70.9,53.4c-0.1,0-0.1,0-0.2,0l-3.4-1.3l1-8.9c0-0.4,0.4-0.7,0.8-0.6c0.4,0,0.7,0.4,0.6,0.8l-0.9,7.8
							l2.4,0.8c0.4,0.1,0.6,0.5,0.4,0.9C71.5,53.2,71.2,53.4,70.9,53.4z"/>
					</g>
				</g>
				<g>
					<g>
						<polyline class="st0" points="84.6,50.1 79.1,56.4 80.9,59 						"/>
					</g>
					<g>
						<path class="st1" d="M80.9,59.7c-0.2,0-0.4-0.1-0.6-0.3l-2.1-3l5.9-6.8c0.2-0.3,0.7-0.3,1,0c0.3,0.2,0.3,0.7,0,1L80,56.5
							l1.5,2.1c0.2,0.3,0.1,0.7-0.2,1C81.2,59.6,81,59.7,80.9,59.7z"/>
					</g>
				</g>
			</g>
			<g>
				<g>
					<g>
						<polygon class="st0" points="90.3,93 86.8,96.6 70.9,80.7 74.4,77.2 						"/>
					</g>
					<g>
						<path class="st1" d="M86.8,97.6L69.9,80.7l4.5-4.5L91.2,93L86.8,97.6z M71.9,80.7l14.9,14.9l2.5-2.5L74.4,78.2L71.9,80.7z"/>
					</g>
				</g>
				<g>
					<g>
						<g>
							<polygon class="st3" points="86.1,69.3 57.3,63.6 63,92.4 							"/>
						</g>
						<g>
							<path class="st1" d="M63,93.1c0,0-0.1,0-0.2,0c-0.2-0.1-0.4-0.3-0.5-0.5l-5.8-28.8c0-0.2,0-0.5,0.2-0.7s0.4-0.2,0.7-0.2
								l28.8,5.8c0.2,0,0.5,0.2,0.5,0.5c0,0.2,0,0.5-0.2,0.7l-23,23C63.4,93,63.2,93.1,63,93.1z M58.2,64.4l5.2,26.5l21.2-21.2
								L58.2,64.4z"/>
						</g>
					</g>
					<g>
						<g>
							<g>
								<path class="st1" d="M71.1,77.4c0.3-0.3,0.9-0.3,1.2,0c0.3,0.4,0.3,0.9,0,1.3s-0.9,0.3-1.3,0C70.8,78.3,70.8,77.7,71.1,77.4
									z"/>
							</g>
							<g>
								<path class="st1" d="M71.7,79.1c-0.3,0-0.6-0.1-0.8-0.3s-0.3-0.5-0.3-0.7c0-0.3,0.1-0.6,0.3-0.8c0.4-0.4,1.2-0.4,1.5,0
									c0.4,0.5,0.5,1.2,0,1.6C72.3,79,72,79.1,71.7,79.1z M71.7,77.4c-0.2,0-0.3,0-0.5,0.2S71,77.9,71,78.1s0,0.3,0.2,0.4
									c0.2,0.2,0.7,0.2,0.9,0c0.2-0.2,0.2-0.7,0-0.9C72,77.4,71.9,77.4,71.7,77.4z"/>
							</g>
						</g>
						<g>
							<g>
								<path class="st1" d="M66.8,73c0.3-0.3,0.9-0.3,1.3,0c0.3,0.3,0.3,0.9,0,1.3c-0.3,0.3-0.9,0.3-1.2,0
									C66.4,73.9,66.4,73.3,66.8,73z"/>
							</g>
							<g>
								<path class="st1" d="M67.4,74.7c-0.3,0-0.6-0.1-0.8-0.3c-0.2-0.2-0.3-0.5-0.3-0.8s0.1-0.6,0.3-0.8c0.4-0.4,1.2-0.4,1.6,0
									c0.2,0.2,0.3,0.5,0.3,0.8s-0.1,0.6-0.3,0.8C67.9,74.6,67.6,74.7,67.4,74.7z M67.4,73c-0.2,0-0.3,0-0.5,0.2
									c-0.1,0.1-0.2,0.3-0.2,0.4c0,0.2,0,0.3,0.2,0.5s0.7,0.2,0.9,0c0.1-0.1,0.2-0.3,0.2-0.5s0-0.3-0.2-0.5
									C67.7,73.1,67.6,73,67.4,73z"/>
							</g>
						</g>
						<g>
							<g>
								<path class="st1" d="M62.4,68.7c0.3-0.3,0.9-0.3,1.2,0c0.4,0.4,0.4,0.9,0,1.3c-0.3,0.3-0.9,0.3-1.3,0
									C62,69.5,62,69,62.4,68.7z"/>
							</g>
							<g>
								<path class="st1" d="M63,70.4c-0.3,0-0.6-0.1-0.8-0.3c-0.4-0.4-0.4-1.1,0-1.5s1.2-0.4,1.5,0c0.5,0.4,0.5,1.1,0,1.6
									C63.6,70.3,63.3,70.4,63,70.4z M63,68.7c-0.2,0-0.3,0-0.5,0.2c-0.2,0.2-0.2,0.7,0,0.9s0.7,0.3,0.9,0c0.2-0.3,0.2-0.7,0-0.9
									C63.3,68.7,63.2,68.7,63,68.7z"/>
							</g>
						</g>
					</g>
				</g>
			</g>
		</g>
	</g>
</g>
</svg>
