<?xml version="1.0" encoding="utf-8"?>
<!-- Generator: Adobe Illustrator 16.0.0, SVG Export Plug-In . SVG Version: 6.00 Build 0)  -->
<!DOCTYPE svg PUBLIC "-//W3C//DTD SVG 1.1//EN" "http://www.w3.org/Graphics/SVG/1.1/DTD/svg11.dtd">
<svg version="1.1" id="Layer_1" xmlns="http://www.w3.org/2000/svg" xmlns:xlink="http://www.w3.org/1999/xlink" x="0px" y="0px"
	 width="128px" height="128px" viewBox="0 0 128 128" enable-background="new 0 0 128 128" xml:space="preserve">
<g>
	<polyline fill="#FFECB3" points="14,68 32,68 32,125 113.1,64 32,3 32,58 	"/>
	<path fill="#37474F" d="M32,127c-0.3,0-0.6-0.1-0.9-0.2c-0.7-0.3-1.1-1-1.1-1.8V70H14c-1.1,0-2-0.9-2-2s0.9-2,2-2h18
		c1.1,0,2,0.9,2,2v53l75.8-57L34,7v51c0,1.1-0.9,2-2,2s-2-0.9-2-2V3c0-0.8,0.4-1.5,1.1-1.8c0.7-0.3,1.5-0.3,2.1,0.2l81.1,61
		c0.5,0.4,0.8,1,0.8,1.6s-0.3,1.2-0.8,1.6l-81.1,61C32.8,126.8,32.4,127,32,127z"/>
</g>
</svg>
