<?xml version="1.0" encoding="utf-8"?>
<!-- Generator: Adobe Illustrator 16.0.0, SVG Export Plug-In . SVG Version: 6.00 Build 0)  -->
<!DOCTYPE svg PUBLIC "-//W3C//DTD SVG 1.1//EN" "http://www.w3.org/Graphics/SVG/1.1/DTD/svg11.dtd">
<svg version="1.1" id="Layer_1" xmlns="http://www.w3.org/2000/svg" xmlns:xlink="http://www.w3.org/1999/xlink" x="0px" y="0px"
	 width="128px" height="128px" viewBox="0 0 128 128" enable-background="new 0 0 128 128" xml:space="preserve">
<g>
	<g>
		<g>
			<rect x="33" y="40" fill="#FFECB3" width="62" height="51"/>
		</g>
		<g>
			<path fill="#37474F" d="M95,93H33c-1.1,0-2-0.9-2-2V40c0-1.1,0.9-2,2-2h62c1.1,0,2,0.9,2,2v51C97,92.1,96.1,93,95,93z M35,89h58
				V42H35V89z"/>
		</g>
	</g>
	<g>
		<g>
			<polyline fill="#FFECB3" points="6,125 6,103 122,103 122,125 			"/>
		</g>
		<g>
			<path fill="#37474F" d="M122,127c-1.1,0-2-0.9-2-2v-20H8v20c0,1.1-0.9,2-2,2s-2-0.9-2-2v-22c0-1.1,0.9-2,2-2h116c1.1,0,2,0.9,2,2
				v22C124,126.1,123.1,127,122,127z"/>
		</g>
	</g>
	<g>
		<g>
			<path fill="#FFECB3" d="M79.9,70c0,7.3-7.1,13.2-15.8,13.2c-8.7,0-15.8-5.9-15.8-13.2"/>
		</g>
		<g>
			<path fill="#37474F" d="M64.1,85.2c-9.8,0-17.8-6.8-17.8-15.2c0-1.1,0.9-2,2-2s2,0.9,2,2c0,6.2,6.2,11.2,13.8,11.2
				c7.6,0,13.8-5,13.8-11.2c0-1.1,0.9-2,2-2s2,0.9,2,2C81.9,78.4,73.9,85.2,64.1,85.2z"/>
		</g>
	</g>
	<g>
		<g>
			<g>
				<path fill="#FFAB00" d="M57.7,55.4c0,2.5-2,4.5-4.6,4.5c-2.5,0-4.5-2-4.5-4.5c0-2.5,2-4.6,4.5-4.6"/>
			</g>
			<g>
				<path fill="#37474F" d="M53.1,61.9c-3.6,0-6.5-2.9-6.5-6.5c0-3.6,2.9-6.6,6.5-6.6c1.1,0,2,0.9,2,2s-0.9,2-2,2
					c-1.4,0-2.5,1.1-2.5,2.6c0,1.4,1.1,2.5,2.5,2.5c1.4,0,2.6-1.1,2.6-2.5c0-1.1,0.9-2,2-2s2,0.9,2,2C59.7,59,56.7,61.9,53.1,61.9z"
					/>
			</g>
		</g>
		<g>
			<g>
				<path fill="#FFAB00" d="M79.6,55.4c0,2.5-2,4.5-4.6,4.5c-2.5,0-4.5-2-4.5-4.5c0-2.5,2-4.6,4.5-4.6"/>
			</g>
			<g>
				<path fill="#37474F" d="M75.1,61.9c-3.6,0-6.5-2.9-6.5-6.5c0-3.6,2.9-6.6,6.5-6.6c1.1,0,2,0.9,2,2s-0.9,2-2,2
					c-1.4,0-2.5,1.1-2.5,2.6c0,1.4,1.1,2.5,2.5,2.5c1.4,0,2.6-1.1,2.6-2.5c0-1.1,0.9-2,2-2s2,0.9,2,2C81.6,59,78.7,61.9,75.1,61.9z"
					/>
			</g>
		</g>
	</g>
	<g>
		<g>
			<g>
				<rect x="20" y="57" fill="#FFAB00" width="12" height="18"/>
			</g>
			<g>
				<path fill="#37474F" d="M32,77H20c-1.1,0-2-0.9-2-2V57c0-1.1,0.9-2,2-2h12c1.1,0,2,0.9,2,2v18C34,76.1,33.1,77,32,77z M22,73h8
					V59h-8V73z"/>
			</g>
		</g>
		<g>
			<g>
				<rect x="96" y="57" fill="#FFAB00" width="12" height="18"/>
			</g>
			<g>
				<path fill="#37474F" d="M108,77H96c-1.1,0-2-0.9-2-2V57c0-1.1,0.9-2,2-2h12c1.1,0,2,0.9,2,2v18C110,76.1,109.1,77,108,77z
					 M98,73h8V59h-8V73z"/>
			</g>
		</g>
	</g>
	<g>
		<g>
			<g>
				<g>
					<line fill="#FFFFFF" x1="64" y1="32" x2="64" y2="19"/>
				</g>
				<g>
					<path fill="#37474F" d="M64,34c-1.1,0-2-0.9-2-2V19c0-1.1,0.9-2,2-2s2,0.9,2,2v13C66,33.1,65.1,34,64,34z"/>
				</g>
			</g>
			<g>
				<g>
					<circle fill="#FFECB3" cx="64.1" cy="10.6" r="7.7"/>
				</g>
				<g>
					<path fill="#37474F" d="M64.1,20.3c-5.4,0-9.7-4.4-9.7-9.7s4.4-9.7,9.7-9.7c5.4,0,9.7,4.4,9.7,9.7S69.5,20.3,64.1,20.3z
						 M64.1,4.8c-3.2,0-5.7,2.6-5.7,5.7s2.6,5.7,5.7,5.7c3.2,0,5.7-2.6,5.7-5.7S67.3,4.8,64.1,4.8z"/>
				</g>
			</g>
		</g>
		<g>
			<g>
				<line fill="#FFFFFF" x1="57" y1="34" x2="71" y2="34"/>
			</g>
			<g>
				<path fill="#37474F" d="M71,36H57c-1.1,0-2-0.9-2-2s0.9-2,2-2h14c1.1,0,2,0.9,2,2S72.1,36,71,36z"/>
			</g>
		</g>
	</g>
	<g>
		<g>
			<path fill="#FFAB00" d="M94.5,124.8c-7.5-8.4-18.3-13.6-30.4-13.6s-23,5.3-30.4,13.6"/>
		</g>
		<g>
			<path fill="#37474F" d="M94.5,126.8c-0.6,0-1.1-0.2-1.5-0.7c-7.4-8.2-17.9-13-28.9-13c-11,0-21.6,4.7-28.9,13
				c-0.7,0.8-2,0.9-2.8,0.2c-0.8-0.7-0.9-2-0.2-2.8c8.1-9.1,19.8-14.3,31.9-14.3c12.2,0,23.8,5.2,31.9,14.3c0.7,0.8,0.7,2.1-0.2,2.8
				C95.5,126.7,95,126.8,94.5,126.8z"/>
		</g>
	</g>
	<g>
		<g>
			<polyline fill="#FFECB3" points="18,120 18,113 25,113 			"/>
		</g>
		<g>
			<path fill="#37474F" d="M18,122c-1.1,0-2-0.9-2-2v-7c0-1.1,0.9-2,2-2h7c1.1,0,2,0.9,2,2s-0.9,2-2,2h-5v5
				C20,121.1,19.1,122,18,122z"/>
		</g>
	</g>
	<g>
		<g>
			<line fill="#FFECB3" x1="100" y1="113" x2="109" y2="113"/>
		</g>
		<g>
			<path fill="#37474F" d="M109,115h-9c-1.1,0-2-0.9-2-2s0.9-2,2-2h9c1.1,0,2,0.9,2,2S110.1,115,109,115z"/>
		</g>
	</g>
	<g>
		<g>
			<line fill="#FFECB3" x1="100" y1="121" x2="109" y2="121"/>
		</g>
		<g>
			<path fill="#37474F" d="M109,123h-9c-1.1,0-2-0.9-2-2s0.9-2,2-2h9c1.1,0,2,0.9,2,2S110.1,123,109,123z"/>
		</g>
	</g>
</g>
</svg>
