<?xml version="1.0" encoding="utf-8"?>
<!-- Generator: Adobe Illustrator 16.0.0, SVG Export Plug-In . SVG Version: 6.00 Build 0)  -->
<!DOCTYPE svg PUBLIC "-//W3C//DTD SVG 1.1//EN" "http://www.w3.org/Graphics/SVG/1.1/DTD/svg11.dtd">
<svg version="1.1" id="Layer_1" xmlns="http://www.w3.org/2000/svg" xmlns:xlink="http://www.w3.org/1999/xlink" x="0px" y="0px"
	 width="128px" height="128px" viewBox="0 0 128 128" enable-background="new 0 0 128 128" xml:space="preserve">
<g>
	<g>
		<path fill="#FFAB00" d="M124.9,64.6c0,32.6-26.4,59-59,59c-32.6,0-59-26.5-59-59c0-32.6,26.4-59,59-59
			C98.5,5.6,124.9,32,124.9,64.6z"/>
		<path fill="#37474F" d="M65.9,125.1C32.6,125.1,5.4,98,5.4,64.6c0-33.4,27.1-60.5,60.5-60.5c33.4,0,60.5,27.2,60.5,60.5
			C126.4,98,99.3,125.1,65.9,125.1z M65.9,7.1C34.2,7.1,8.4,32.9,8.4,64.6c0,31.7,25.8,57.5,57.5,57.5c31.7,0,57.5-25.8,57.5-57.5
			C123.4,32.9,97.6,7.1,65.9,7.1z"/>
	</g>
	<g>
		<polygon fill="#FFECB3" points="124.5,109.4 48.2,64.6 124.5,19.7 		"/>
		<path fill="#37474F" d="M124.5,110.9c-0.3,0-0.5-0.1-0.8-0.2L47.4,65.9c-0.5-0.3-0.7-0.8-0.7-1.3c0-0.5,0.3-1,0.7-1.3l76.3-44.9
			c0.5-0.3,1-0.3,1.5,0c0.5,0.3,0.8,0.8,0.8,1.3v89.7c0,0.5-0.3,1-0.8,1.3C125,110.9,124.8,110.9,124.5,110.9z M51.2,64.6l71.8,42.2
			V22.4L51.2,64.6z"/>
	</g>
	<g>
		<path fill="#FFFFFF" d="M54.5,68.2c0,1.8-1.5,3.3-3.3,3.3H26.6c-1.8,0-3.1-1.4-3.1-3.3v-7.3c0-1.8,1.3-3.4,3.1-3.4h24.6
			c1.8,0,3.3,1.6,3.3,3.4V68.2z"/>
		<path fill="#37474F" d="M51.2,73H26.6C24,73,22,70.9,22,68.2v-7.3c0-2.7,2.1-4.9,4.6-4.9h24.6c2.6,0,4.8,2.3,4.8,4.9v7.3
			C56,70.9,53.8,73,51.2,73z M26.6,59c-1,0-1.6,1-1.6,1.9v7.3c0,1,0.7,1.8,1.6,1.8h24.6c1,0,1.8-0.8,1.8-1.8v-7.3
			c0-1-0.8-1.9-1.8-1.9H26.6z"/>
	</g>
	<g>
		<path fill="#B0BEC5" d="M48.5,69.7c0,2.6-2.2,4.8-4.7,4.8H8.9c-2.6,0-4.4-2.1-4.4-4.8V59.4c0-2.6,1.8-4.9,4.4-4.9h34.8
			c2.6,0,4.7,2.3,4.7,4.9V69.7z"/>
		<path fill="#37474F" d="M43.8,76H8.9C5.6,76,3,73.3,3,69.7V59.4C3,55.8,5.6,53,8.9,53h34.8c3.4,0,6.2,2.9,6.2,6.4v10.3
			C50,73.2,47.2,76,43.8,76z M8.9,56C7.1,56,6,57.7,6,59.4v10.3C6,71.6,7.2,73,8.9,73h34.8c1.8,0,3.2-1.5,3.2-3.3V59.4
			c0-1.8-1.5-3.4-3.2-3.4H8.9z"/>
	</g>
	<g>
		<line fill="#B0BEC5" x1="11.5" y1="63" x2="11.5" y2="66"/>
		<path fill="#37474F" d="M11.5,67.5c-0.8,0-1.5-0.7-1.5-1.5v-3c0-0.8,0.7-1.5,1.5-1.5S13,62.2,13,63v3C13,66.8,12.3,67.5,11.5,67.5
			z"/>
	</g>
	<g>
		<line fill="#B0BEC5" x1="16.5" y1="63" x2="16.5" y2="66"/>
		<path fill="#37474F" d="M16.5,67.5c-0.8,0-1.5-0.7-1.5-1.5v-3c0-0.8,0.7-1.5,1.5-1.5S18,62.2,18,63v3C18,66.8,17.3,67.5,16.5,67.5
			z"/>
	</g>
	<g>
		<line fill="#B0BEC5" x1="21.5" y1="63" x2="21.5" y2="66"/>
		<path fill="#37474F" d="M21.5,67.5c-0.8,0-1.5-0.7-1.5-1.5v-3c0-0.8,0.7-1.5,1.5-1.5S23,62.2,23,63v3C23,66.8,22.3,67.5,21.5,67.5
			z"/>
	</g>
	<g>
		<g>
			<g>
				<path fill="#37474F" d="M25.5,46c0,1.1-0.9,2-1.9,2c-1.1,0-2-0.9-2-1.9c0-1.1,0.9-1.9,2-1.9C24.6,44.1,25.5,45,25.5,46z"/>
				<path fill="#37474F" d="M23.6,48.5L23.6,48.5c-1.4,0-2.5-1.1-2.5-2.4c0-1.4,1.1-2.4,2.5-2.4c0,0,0,0,0,0c0.7,0,1.3,0.2,1.7,0.7
					c0.5,0.5,0.7,1.1,0.7,1.7c0,0.7-0.2,1.3-0.7,1.7C24.8,48.2,24.2,48.5,23.6,48.5z M23.6,44.6c-0.9,0-1.6,0.7-1.6,1.5
					c0,0.8,0.7,1.4,1.5,1.4l0.1,0c0.4,0,0.7-0.1,1-0.4c0.3-0.3,0.4-0.6,0.4-1c0-0.4-0.1-0.8-0.4-1C24.3,44.8,24,44.6,23.6,44.6z"/>
			</g>
			<g>
				<path fill="#37474F" d="M39.2,46.1c0,1-0.9,1.9-2,1.9c-1.1,0-2-0.9-2-2s0.9-1.9,2-1.9C38.3,44.1,39.2,45,39.2,46.1z"/>
				<path fill="#37474F" d="M37.2,48.5c-1.4,0-2.5-1.1-2.5-2.5c0-1.4,1.1-2.4,2.5-2.4c1.3,0,2.5,1.2,2.5,2.5
					C39.7,47.4,38.5,48.5,37.2,48.5z M37.2,44.6c-0.8,0-1.5,0.7-1.5,1.4c0,0.8,0.7,1.5,1.5,1.5c0.8,0,1.5-0.7,1.5-1.4
					C38.7,45.3,38,44.6,37.2,44.6z"/>
			</g>
			<g>
				<path fill="#37474F" d="M52.8,46.1c0,1-0.9,1.9-1.9,1.9c-1.1,0-2-0.9-2-2s0.9-1.9,2-1.9C52,44.1,52.8,45,52.8,46.1z"/>
				<path fill="#37474F" d="M50.9,48.5c-0.6,0-1.3-0.3-1.7-0.7c-0.5-0.5-0.7-1.1-0.7-1.7c0-1.3,1.1-2.4,2.4-2.4H51
					c1.3,0,2.4,1.1,2.4,2.5C53.3,47.4,52.2,48.5,50.9,48.5V48l0-0.5c0.8,0,1.4-0.7,1.4-1.4c0-0.8-0.6-1.5-1.4-1.5h-0.1
					c-0.8,0-1.4,0.6-1.4,1.4c0,0.4,0.1,0.7,0.4,1c0.3,0.3,0.6,0.4,1,0.4V48.5z"/>
			</g>
		</g>
	</g>
	<g>
		<rect x="7.5" y="74.5" fill="#37474F" width="37" height="6"/>
		<path fill="#37474F" d="M44.5,82h-37C6.7,82,6,81.3,6,80.5v-6C6,73.7,6.7,73,7.5,73h37c0.8,0,1.5,0.7,1.5,1.5v6
			C46,81.3,45.3,82,44.5,82z M9,79h34v-3H9V79z"/>
	</g>
	<g>
		<rect x="23.5" y="81.5" fill="#FFFFFF" width="6" height="38"/>
		<path fill="#37474F" d="M29.5,121h-6c-0.8,0-1.5-0.7-1.5-1.5v-38c0-0.8,0.7-1.5,1.5-1.5h6c0.8,0,1.5,0.7,1.5,1.5v38
			C31,120.3,30.3,121,29.5,121z M25,118h3V83h-3V118z"/>
	</g>
	<g>
		<rect x="18.5" y="114.5" fill="#FFFFFF" width="16" height="9"/>
		<path fill="#37474F" d="M34.5,125h-16c-0.8,0-1.5-0.7-1.5-1.5v-9c0-0.8,0.7-1.5,1.5-1.5h16c0.8,0,1.5,0.7,1.5,1.5v9
			C36,124.3,35.3,125,34.5,125z M20,122h13v-6H20V122z"/>
	</g>
</g>
</svg>
