<?xml version="1.0" encoding="utf-8"?>
<!-- Generator: Adobe Illustrator 16.0.0, SVG Export Plug-In . SVG Version: 6.00 Build 0)  -->
<!DOCTYPE svg PUBLIC "-//W3C//DTD SVG 1.1//EN" "http://www.w3.org/Graphics/SVG/1.1/DTD/svg11.dtd">
<svg version="1.1" id="Layer_1" xmlns="http://www.w3.org/2000/svg" xmlns:xlink="http://www.w3.org/1999/xlink" x="0px" y="0px"
	 width="128px" height="128px" viewBox="0 0 128 128" enable-background="new 0 0 128 128" xml:space="preserve">
<g>
	<g>
		<g>
			<g>
				<path fill="#FFFFFF" d="M117.9,55.5h-9.2l-0.2,0.8v-0.8H71.2h-0.5H58.4h-1.2H20.5v0.8l-0.1-0.8h-9.2c0,0-6.5-0.1-6.6,7
					c-0.1,9.3,5.5,6.4,6,3.6c0.4-2.7,1.9-1.4,4.2-1.4c1.6,0,4.7,3.9,5.7,6.3v12.5h38v-12h12v12h38V71c1-2.4,4.2-6.3,5.8-6.3
					c2.3,0,3.8-1.2,4.2,1.5c0.4,2.7,6,5.5,6-3.8C124.5,55.4,117.9,55.5,117.9,55.5z"/>
				<path fill="#37474F" d="M108.5,85h-38c-0.8,0-1.5-0.7-1.5-1.5V73h-9v10.5c0,0.8-0.7,1.5-1.5,1.5h-38c-0.8,0-1.5-0.7-1.5-1.5
					V71.4c-1.1-2.3-3.5-5-4.3-5.1c-0.7,0-1.4-0.1-1.9-0.2c-0.2,0-0.5-0.1-0.6-0.1c0,0.1-0.1,0.3-0.1,0.5c-0.3,2.1-2.4,4-4.5,4
					c-1,0-1.9-0.4-2.6-1.1c-1.3-1.3-1.9-3.5-1.9-6.7c0.1-6.7,5.3-8.5,8.1-8.5h9.2c0,0,0.1,0,0.1,0h88c0,0,0.1,0,0.1,0
					c0,0,0.1,0,0.1,0h9.2c2.8,0,8,1.8,8.1,8.5c0,3.2-0.6,5.5-1.9,6.8c-0.7,0.7-1.6,1.1-2.6,1.1c0,0,0,0,0,0c-2.1,0-4.1-1.8-4.5-3.9
					c0-0.3-0.1-0.4-0.1-0.5c-0.2,0-0.5,0.1-0.8,0.1c-0.5,0.1-1.2,0.2-1.9,0.2c-0.8,0.2-3.3,2.9-4.3,5.1v12.1
					C110,84.3,109.3,85,108.5,85z M72,82h35V71c0-0.2,0-0.4,0.1-0.6c0.9-2.1,4.4-7.2,7.2-7.2c0.5,0,1-0.1,1.4-0.1
					c0.4-0.1,0.9-0.1,1.3-0.1c1.7,0,2.7,1,3,3.1c0.1,0.6,0.9,1.4,1.5,1.4l0,0c0.1,0,0.3,0,0.5-0.2c0.3-0.3,1-1.4,1-4.7
					c0-5.4-4.6-5.5-5.1-5.5h-8.1c-0.3,0.5-0.9,0.8-1.5,0.8c-0.5-0.1-0.9-0.4-1.1-0.8H21.8c-0.2,0.4-0.7,0.7-1.2,0.8
					c-0.6,0-1.1-0.3-1.4-0.8h-8c-0.5,0-5.1,0.2-5.1,5.5c0,3.2,0.7,4.3,1,4.6c0.2,0.2,0.3,0.2,0.4,0.2c0.6,0,1.4-0.8,1.6-1.4
					c0.3-2,1.3-3,2.9-3c0.4,0,0.9,0.1,1.3,0.1c0.5,0.1,0.9,0.2,1.5,0.2c2.8,0,6.3,5.3,7.1,7.3C22,70.6,22,70.8,22,71v11h35V71.5
					c0-0.8,0.7-1.5,1.5-1.5h12c0.8,0,1.5,0.7,1.5,1.5V82z"/>
			</g>
			<g>
				<g>
					<rect x="26.5" y="61.5" fill="#FFAB00" width="26" height="17"/>
					<path fill="#37474F" d="M52.5,80h-26c-0.8,0-1.5-0.7-1.5-1.5v-17c0-0.8,0.7-1.5,1.5-1.5h26c0.8,0,1.5,0.7,1.5,1.5v17
						C54,79.3,53.3,80,52.5,80z M28,77h23V63H28V77z"/>
				</g>
				<g>
					<line fill="#FFAB00" x1="27.2" y1="70.8" x2="36.2" y2="61.8"/>
					<path fill="#37474F" d="M27.2,72.3c-0.4,0-0.8-0.1-1.1-0.4c-0.6-0.6-0.6-1.5,0-2.1l9-9c0.6-0.6,1.5-0.6,2.1,0
						c0.6,0.6,0.6,1.5,0,2.1l-9,9C27.9,72.2,27.5,72.3,27.2,72.3z"/>
				</g>
				<g>
					<line fill="#FFAB00" x1="29.4" y1="77.9" x2="45.3" y2="62"/>
					<path fill="#37474F" d="M29.4,79.4c-0.4,0-0.8-0.1-1.1-0.4c-0.6-0.6-0.6-1.5,0-2.1l15.9-15.9c0.6-0.6,1.5-0.6,2.1,0
						c0.6,0.6,0.6,1.5,0,2.1L30.5,78.9C30.2,79.2,29.8,79.4,29.4,79.4z"/>
				</g>
			</g>
			<g>
				<g>
					<rect x="76.5" y="61.5" fill="#B0BEC5" width="26" height="17"/>
					<path fill="#37474F" d="M102.5,80h-26c-0.8,0-1.5-0.7-1.5-1.5v-17c0-0.8,0.7-1.5,1.5-1.5h26c0.8,0,1.5,0.7,1.5,1.5v17
						C104,79.3,103.3,80,102.5,80z M78,77h23V63H78V77z"/>
				</g>
				<g>
					<line fill="#FFAB00" x1="102" y1="70.8" x2="93" y2="61.8"/>
					<path fill="#37474F" d="M102,72.3c-0.4,0-0.8-0.1-1.1-0.4l-9-9c-0.6-0.6-0.6-1.5,0-2.1c0.6-0.6,1.5-0.6,2.1,0l9,9
						c0.6,0.6,0.6,1.5,0,2.1C102.7,72.2,102.4,72.3,102,72.3z"/>
				</g>
				<g>
					<line fill="#FFAB00" x1="99.7" y1="77.9" x2="83.8" y2="62"/>
					<path fill="#37474F" d="M99.7,79.4c-0.4,0-0.8-0.1-1.1-0.4L82.8,63c-0.6-0.6-0.6-1.5,0-2.1c0.6-0.6,1.5-0.6,2.1,0l15.9,15.9
						c0.6,0.6,0.6,1.5,0,2.1C100.5,79.2,100.1,79.4,99.7,79.4z"/>
				</g>
			</g>
		</g>
		<g>
			<g>
				<g>
					<path fill="#37474F" d="M54.9,46c0,0.8-0.6,1.5-1.4,1.4c-0.8,0-1.5-0.6-1.5-1.4c0-0.8,0.7-1.5,1.5-1.5
						C54.3,44.5,54.9,45.2,54.9,46z"/>
					<path fill="#37474F" d="M53.5,47.9L53.5,47.9L53.5,47.9c-1.1,0-2-0.9-2-1.9c0-1.1,0.9-2,2-2c0,0,0,0,0,0c0.5,0,1,0.2,1.3,0.6
						c0.4,0.4,0.6,0.9,0.6,1.4c0,0.5-0.2,1-0.6,1.4C54.5,47.7,54,47.9,53.5,47.9z M53.5,45c-0.6,0-1,0.4-1,1c0,0.5,0.4,0.9,1,0.9
						l0.1,0c0.2,0,0.4-0.1,0.6-0.3c0.2-0.2,0.3-0.4,0.3-0.7c0-0.3-0.1-0.5-0.3-0.7C54,45.1,53.8,45,53.5,45z"/>
				</g>
				<g>
					<path fill="#37474F" d="M65.1,46c0,0.8-0.7,1.4-1.5,1.4c-0.8,0-1.5-0.6-1.5-1.4s0.7-1.5,1.5-1.5C64.4,44.5,65.1,45.2,65.1,46z"
						/>
					<path fill="#37474F" d="M63.7,47.9c-1.1,0-2-0.9-2-1.9c0-1.1,0.9-2,2-2c1.1,0,2,0.9,2,2C65.6,47,64.7,47.9,63.7,47.9z M63.7,45
						c-0.5,0-1,0.4-1,1c0,0.5,0.4,0.9,1,0.9c0.5,0,1-0.4,1-0.9C64.6,45.5,64.2,45,63.7,45z"/>
				</g>
				<g>
					<path fill="#37474F" d="M75.3,46c0,0.8-0.6,1.4-1.4,1.4c-0.8,0-1.5-0.6-1.5-1.4s0.7-1.5,1.5-1.4C74.7,44.5,75.3,45.2,75.3,46z"
						/>
					<path fill="#37474F" d="M73.8,47.9c-0.5,0-1-0.2-1.4-0.6c-0.4-0.4-0.5-0.9-0.5-1.4c0-1.1,0.9-1.9,1.9-1.9c1.1,0,2,0.9,2,2
						C75.8,47.1,75,47.9,73.8,47.9v-0.5l0-0.5c0.5,0,1-0.4,1-0.9c0-0.5-0.4-1-0.9-1c-0.6,0-1,0.4-1,0.9c0,0.2,0.1,0.5,0.3,0.7
						c0.2,0.2,0.4,0.3,0.6,0.3V47.9z"/>
				</g>
			</g>
		</g>
	</g>
	<g>
		<line fill="#FFFFFF" x1="20.5" y1="62" x2="20.5" y2="72"/>
		<path fill="#37474F" d="M20.5,73.5c-0.8,0-1.5-0.7-1.5-1.5V62c0-0.8,0.7-1.5,1.5-1.5S22,61.2,22,62v10
			C22,72.8,21.3,73.5,20.5,73.5z"/>
	</g>
	<g>
		<line fill="#FFFFFF" x1="108.5" y1="62" x2="108.5" y2="72"/>
		<path fill="#37474F" d="M108.5,73.5c-0.8,0-1.5-0.7-1.5-1.5V62c0-0.8,0.7-1.5,1.5-1.5s1.5,0.7,1.5,1.5v10
			C110,72.8,109.3,73.5,108.5,73.5z"/>
	</g>
	<g>
		<g>
			<line fill="#FFFFFF" x1="70.5" y1="67" x2="70.5" y2="72"/>
			<path fill="#37474F" d="M70.5,73.5c-0.8,0-1.5-0.7-1.5-1.5v-5c0-0.8,0.7-1.5,1.5-1.5S72,66.2,72,67v5
				C72,72.8,71.3,73.5,70.5,73.5z"/>
		</g>
		<g>
			<line fill="#FFFFFF" x1="58.5" y1="67" x2="58.5" y2="72"/>
			<path fill="#37474F" d="M58.5,73.5c-0.8,0-1.5-0.7-1.5-1.5v-5c0-0.8,0.7-1.5,1.5-1.5S60,66.2,60,67v5
				C60,72.8,59.3,73.5,58.5,73.5z"/>
		</g>
	</g>
</g>
</svg>
