<?xml version="1.0" encoding="UTF-8"?>
<svg width="128px" height="114px" viewBox="0 0 128 114" version="1.1" xmlns="http://www.w3.org/2000/svg" xmlns:xlink="http://www.w3.org/1999/xlink">
    <!-- Generator: Sketch 43.1 (39012) - http://www.bohemiancoding.com/sketch -->
    <title>Group 2</title>
    <desc>Created with Sketch.</desc>
    <defs></defs>
    <g id="Page-1" stroke="none" stroke-width="1" fill="none" fill-rule="evenodd">
        <g id="Group-2">
            <g id="Layer_1" transform="translate(14.000000, 0.000000)" fill-rule="nonzero">
                <g id="Layer_1_1_">
                    <g id="Layer_2">
                        <g id="Group">
                            <g id="Shape">
                                <path d="M98.8,50 C98.8,76.9 77,98.8 50,98.8 C23,98.8 1.2,77 1.2,50 C1.2,23 23.1,1.2 50,1.2 C76.9,1.2 98.8,23.1 98.8,50 Z" fill="#FFAB00"></path>
                                <path d="M50,100 C22.5,100 0,77.6 0,50 C0,22.5 22.4,0 50,0 C77.5,0 100,22.4 100,50 C100,77.5 77.5,100 50,100 Z M50,2.5 C23.8,2.5 2.5,23.8 2.5,50 C2.5,76.2 23.8,97.5 50,97.5 C76.2,97.5 97.5,76.2 97.5,50 C97.5,23.8 76.2,2.5 50,2.5 Z" fill="#37474F"></path>
                            </g>
                            <g transform="translate(9.000000, 9.000000)" id="Shape">
                                <path d="M79.9,41 C79.9,62.5 62.5,79.9 41,79.9 C19.5,79.9 2.1,62.5 2.1,41 C2.1,19.5 19.5,2.1 41,2.1 C62.5,2.1 79.9,19.5 79.9,41 Z" fill="#FFECB3"></path>
                                <path d="M41,81.1 C18.8,81.1 0.9,63 0.9,41 C0.9,18.8 19,0.9 41,0.9 C63,0.9 81.1,19 81.1,41 C81.1,63.2 63.2,81.1 41,81.1 Z M41,3.3 C20.2,3.3 3.3,20.2 3.3,41 C3.3,61.8 20.2,78.7 41,78.7 C61.8,78.7 78.7,61.8 78.7,41 C78.7,20.2 61.8,3.3 41,3.3 Z" fill="#37474F"></path>
                            </g>
                            <g transform="translate(37.000000, 27.000000)" id="Shape" fill="#37474F">
                                <polygon points="1.4 43.8 35.4 23 1.4 2.2"></polygon>
                                <path d="M1.4,45 C1.2,45 1,45 0.9,44.8 C0.5,44.6 0.2,44.1 0.2,43.7 L0.2,2.2 C0.2,1.8 0.4,1.3 0.9,1.1 C1.3,0.9 1.8,0.9 2.1,1.1 L36.1,21.9 C36.5,22.1 36.6,22.6 36.6,23 C36.6,23.4 36.4,23.9 36.1,24.1 L2.1,44.9 C1.7,45 1.6,45 1.4,45 Z M2.6,4.3 L2.6,41.4 L32.9,22.7 L2.6,4.3 Z"></path>
                            </g>
                        </g>
                    </g>
                </g>
            </g>
            <g id="Layer_2_1_" transform="translate(63.000000, 76.000000)" fill-rule="nonzero">
                <g id="Group">
                    <g id="Shape">
                        <path d="M32.7,36.7 C16.1,35.2 4.4,22.6 1.5,19.1 C4.4,15.7 16.1,3.1 32.7,1.5 C49.3,3 61,15.6 63.9,19.1 C61,22.5 49.4,35.1 32.7,36.7 Z" fill="#78909C"></path>
                        <path d="M32.7,37.5 L32.7,37.5 C15.9,36 4.2,23.5 1,19.7 L0.6,19.2 L1,18.7 C4.2,14.9 15.9,2.4 32.7,0.9 L32.8,0.9 L32.9,0.9 C49.7,2.4 61.4,14.9 64.6,18.7 L65,19.2 L64.6,19.7 C61.4,23.4 49.5,35.9 32.7,37.5 L32.7,37.5 Z M2.6,19.1 C6.2,23.3 17.3,34.4 32.7,35.9 C48.1,34.4 59.2,23.3 62.8,19.1 C59.2,14.9 48.1,3.8 32.7,2.3 C17.3,3.9 6.2,15 2.6,19.1 Z" fill="#37474F"></path>
                    </g>
                    <g transform="translate(13.000000, 0.000000)" id="Shape">
                        <path d="M38,19.1 C38,29.1 29.9,37.2 19.9,37.2 C9.9,37.2 1.8,29.1 1.8,19.1 C1.8,9.1 9.8,1 19.8,1 C29.8,1 38,9.1 38,19.1 Z" fill="#FFAB00"></path>
                        <path d="M19.7,38 C9.3,38 0.8,29.5 0.8,19.1 C0.8,8.7 9.3,0.2 19.7,0.2 C30.1,0.2 38.6,8.7 38.6,19.1 C38.7,29.5 30.2,38 19.7,38 Z M19.7,1.8 C10.1,1.8 2.4,9.5 2.4,19.1 C2.4,28.7 10.1,36.4 19.7,36.4 C29.3,36.4 37,28.7 37,19.1 C37.1,9.6 29.4,1.8 19.7,1.8 Z" fill="#37474F"></path>
                    </g>
                    <path d="M43.9,19.1 C43.9,25.2 38.9,30.1 32.9,30.1 C26.9,30.1 21.9,25.2 21.9,19.1 C21.9,13 26.9,8.1 32.9,8.1 C38.9,8.1 43.9,13 43.9,19.1 Z" id="Shape" fill="#37474F"></path>
                    <g transform="translate(18.000000, 3.000000)" id="Shape">
                        <path d="M14.6,8.3 C14.6,11.9 11.7,14.8 8.1,14.8 C4.5,14.8 1.6,11.9 1.6,8.3 C1.6,4.7 4.5,1.8 8.1,1.8 C11.7,1.8 14.6,4.7 14.6,8.3 Z" fill="#FFFFFF"></path>
                        <path d="M8.1,15.5 C4.1,15.5 0.8,12.2 0.8,8.2 C0.8,4.2 4.1,0.9 8.1,0.9 C12.1,0.9 15.4,4.2 15.4,8.2 C15.4,12.3 12.1,15.5 8.1,15.5 Z M8.1,2.6 C5,2.6 2.4,5.2 2.4,8.3 C2.4,11.4 4.9,14 8.1,14 C11.2,14 13.8,11.5 13.8,8.3 C13.8,5.2 11.2,2.6 8.1,2.6 Z" fill="#37474F"></path>
                    </g>
                    <g transform="translate(36.000000, 22.000000)">
                        <circle id="Oval" fill="#FFFFFF" cx="4.7" cy="4.9" r="3.1"></circle>
                        <path d="M4.7,8.7 C2.6,8.7 0.8,6.9 0.8,4.8 C0.8,2.7 2.6,0.9 4.7,0.9 C6.8,0.9 8.6,2.7 8.6,4.8 C8.6,7 7,8.7 4.7,8.7 Z M4.7,2.6 C3.4,2.6 2.4,3.6 2.4,4.9 C2.4,6.2 3.4,7.2 4.7,7.2 C6,7.2 7,6.2 7,4.9 C7,3.6 6,2.6 4.7,2.6 Z" id="Shape" fill="#37474F"></path>
                    </g>
                    <g transform="translate(26.000000, 18.000000)" id="Shape" fill="#FFFFFF">
                        <g>
                            <path d="M2.3,1.1 C2.3,1.5 2,1.8 1.6,1.8 C1.2,1.8 0.9,1.5 0.9,1.1 C0.9,0.7 1.2,0.4 1.6,0.4 C2,0.4 2.3,0.7 2.3,1.1 Z"></path>
                            <path d="M1.5,2.1 C0.9,2.1 0.5,1.7 0.5,1.1 C0.5,0.5 1,0.1 1.5,0.1 C2,0.1 2.5,0.6 2.5,1.1 C2.5,1.6 2.1,2.1 1.5,2.1 Z M1.5,0.6 C1.2,0.6 1,0.8 1,1.1 C1,1.4 1.2,1.6 1.5,1.6 C1.8,1.6 2,1.4 2,1.1 C2,0.8 1.8,0.6 1.5,0.6 Z"></path>
                        </g>
                        <g transform="translate(5.000000, 0.000000)">
                            <path d="M2.5,1.1 C2.5,1.5 2.2,1.8 1.8,1.8 C1.4,1.8 1.1,1.5 1.1,1.1 C1.1,0.7 1.4,0.4 1.8,0.4 C2.1,0.4 2.5,0.7 2.5,1.1 Z"></path>
                            <path d="M1.8,2.1 C1.2,2.1 0.8,1.7 0.8,1.1 C0.8,0.5 1.3,0.1 1.8,0.1 C2.3,0.1 2.8,0.6 2.8,1.1 C2.8,1.6 2.3,2.1 1.8,2.1 Z M1.8,0.6 C1.5,0.6 1.3,0.8 1.3,1.1 C1.3,1.4 1.5,1.6 1.8,1.6 C2.1,1.6 2.3,1.4 2.3,1.1 C2.2,0.8 2,0.6 1.8,0.6 Z"></path>
                        </g>
                        <g transform="translate(11.000000, 0.000000)">
                            <path d="M1.7,1.1 C1.7,1.5 1.4,1.8 1,1.8 C0.6,1.8 0.3,1.5 0.3,1.1 C0.3,0.7 0.6,0.4 1,0.4 C1.4,0.4 1.7,0.7 1.7,1.1 Z"></path>
                            <path d="M1,2.1 C0.4,2.1 0,1.7 0,1.1 C0,0.5 0.5,0.1 1,0.1 C1.5,0.1 2,0.6 2,1.1 C2,1.6 1.5,2.1 1,2.1 Z M1,0.6 C0.7,0.6 0.5,0.8 0.5,1.1 C0.5,1.4 0.7,1.6 1,1.6 C1.3,1.6 1.5,1.4 1.5,1.1 C1.5,0.8 1.2,0.6 1,0.6 Z"></path>
                        </g>
                    </g>
                </g>
            </g>
            <g id="Layer_3" transform="translate(0.000000, 64.000000)">
                <g id="Layer_3_1_">
                    <g id="Group">
                        <circle id="Oval" fill="#F9F9F9" fill-rule="nonzero" cx="26.1" cy="24.5" r="19.7"></circle>
                        <g id="Shape">
                            <g>
                                <g fill-rule="nonzero">
                                    <path d="M25,1.1 C11.7,1.1 0.9,11.9 0.9,25.1 C0.9,38.3 11.7,49.1 24.9,49.1 C38.1,49.1 48.9,38.3 48.9,25.1 C49,11.9 38.2,1.1 25,1.1 Z M25,42.6 C15.4,42.6 7.5,34.8 7.5,25.1 C7.5,15.5 15.3,7.6 25,7.6 C34.7,7.6 42.5,15.4 42.5,25.1 C42.4,34.8 34.6,42.6 25,42.6 Z" fill="#FFAB00"></path>
                                    <path d="M25,50 C11.3,50 0.1,38.8 0.1,25.1 C0.1,11.4 11.3,0.2 25,0.2 C38.7,0.2 49.9,11.4 49.9,25.1 C49.9,38.8 38.7,50 25,50 Z M25,1.9 C12.2,1.9 1.7,12.3 1.7,25.1 C1.7,37.9 12.1,48.3 24.9,48.3 C37.7,48.3 48.1,37.9 48.1,25.1 C48.2,12.3 37.7,1.9 25,1.9 Z M25,43.5 C14.9,43.5 6.7,35.3 6.7,25.2 C6.7,15.1 14.9,6.9 25,6.9 C35.1,6.9 43.3,15.1 43.3,25.2 C43.3,35.3 35,43.5 25,43.5 Z M25,8.5 C15.8,8.5 8.4,15.9 8.4,25.1 C8.4,34.3 15.8,41.8 25,41.8 C34.2,41.8 41.6,34.3 41.6,25.1 C41.6,15.9 34.1,8.5 25,8.5 Z" fill="#37474F"></path>
                                </g>
                                <g fill-rule="nonzero">
                                    <path d="M42.4,24.7 L42.4,25 C42.4,34.6 34.6,42.5 24.9,42.5 C15.2,42.5 7.4,34.7 7.4,25 C7.4,15.4 15.1,7.5 24.8,7.5 L25,7.5 L25,0.9 L24.8,0.9 C11.5,0.9 0.8,11.7 0.8,24.9 C0.8,38.1 11.6,48.9 24.9,48.9 C38.2,48.9 48.9,38.1 48.9,24.8 C48.9,24.7 48.9,24.9 48.9,24.5 L42.4,24.7 L42.4,24.7 Z" fill="#FFFFFF"></path>
                                    <path d="M24.9,50 C11.2,50 0,38.8 0,25.1 C0,11.4 11.1,0.2 24.8,0.2 C25,0.2 25.2,0.2 25.2,0.3 C25.5,0.4 25.8,0.7 25.8,1.1 L25.8,7.7 C25.8,8 25.7,8.2 25.4,8.4 C25.2,8.5 24.9,8.6 24.7,8.5 C15.6,8.5 8.2,16 8.2,25.1 C8.2,34.3 15.6,41.7 24.8,41.7 C33.9,41.7 41.4,34.3 41.4,25.1 L41.4,24.7 C41.4,24.2 41.8,23.9 42.2,23.9 L48.8,23.9 C49.3,23.9 49.6,24.3 49.6,24.7 L49.6,24.9 L49.6,25.1 C49.8,38.9 38.7,50 24.9,50 Z M24.2,1.9 C11.7,2.3 1.7,12.5 1.7,25.1 C1.7,37.9 12.1,48.3 25,48.3 C37.6,48.3 48,38.1 48.2,25.5 L43.2,25.5 C42.9,35.4 34.8,43.3 24.9,43.3 C14.8,43.3 6.6,35.1 6.6,25 C6.6,15.2 14.4,7.1 24.1,6.7 C24.2,6.8 24.2,1.9 24.2,1.9 Z M43.2,24.7 L43.2,24.7 C43.1,24.5 43,24.3 42.7,24.2 C42.9,24.3 43.1,24.5 43.2,24.7 Z" fill="#37474F"></path>
                                </g>
                                <g transform="translate(24.000000, 11.000000)">
                                    <g>
                                        <path d="M1,0.9 L1,9.2"></path>
                                        <path d="M1,10 C0.5,10 0.2,9.6 0.2,9.2 L0.2,0.9 C0.2,0.4 0.6,0.1 1,0.1 C1.5,0.1 1.8,0.5 1.8,0.9 L1.8,9.2 C1.8,9.7 1.5,10 1,10 Z" fill="#37474F" fill-rule="nonzero"></path>
                                    </g>
                                    <polygon fill="#FFAB00" fill-rule="nonzero" points="1.8 17.4 1.8 14.2 16.8 14.2"></polygon>
                                </g>
                                <path d="M23.8,27.7 L23.8,30.6 L22.1,30.6 L22.1,32.7 L19.2,32.7 L19.2,30.6 L11.9,30.6 L22.1,17.6 L22.1,27.7 L23.8,27.7 Z M19.2,25.2 L17.3,27.6 L19.2,27.6 C19.2,27.6 19.2,25.2 19.2,25.2 Z" fill="#37474F" fill-rule="nonzero"></path>
                            </g>
                            <g transform="translate(27.000000, 24.000000)" fill-rule="nonzero" fill="#37474F">
                                <g>
                                    <path d="M2.1,1.2 C2.1,1.6 1.8,1.9 1.4,1.9 C1,1.9 0.6,1.6 0.7,1.2 C0.7,0.8 1,0.5 1.4,0.5 C1.8,0.4 2.1,0.7 2.1,1.2 Z"></path>
                                    <path d="M1.3,2.1 L1.3,2.1 C1.1,2.1 0.8,2 0.6,1.8 C0.4,1.6 0.3,1.4 0.4,1.1 C0.4,0.6 0.8,0.1 1.4,0.1 L1.4,0.1 C1.9,0.1 2.4,0.5 2.4,1.1 C2.3,1.7 1.9,2.1 1.3,2.1 L1.3,2.1 Z M1.3,0.6 C1,0.6 0.7,0.8 0.7,1.1 C0.7,1.3 0.7,1.4 0.9,1.5 C1,1.6 1.1,1.7 1.3,1.7 C1.6,1.7 1.8,1.5 1.8,1.2 C1.9,0.9 1.6,0.6 1.3,0.6 Z"></path>
                                </g>
                                <g transform="translate(5.000000, 0.000000)">
                                    <path d="M2.3,1.2 C2.3,1.6 2,1.9 1.6,1.9 C1.2,1.9 0.9,1.6 0.9,1.2 C0.9,0.8 1.2,0.5 1.6,0.5 C2,0.5 2.3,0.7 2.3,1.2 Z"></path>
                                    <path d="M1.6,2.1 L1.6,2.1 C1.1,2.1 0.6,1.7 0.6,1.1 C0.6,0.6 1.1,0.1 1.6,0.1 C2.1,0.1 2.6,0.6 2.6,1.1 C2.6,1.3 2.5,1.6 2.3,1.8 C2.1,2 1.9,2.1 1.6,2.1 Z M1.6,0.6 C1.3,0.6 1.1,0.8 1.1,1.1 C1.1,1.4 1.3,1.6 1.6,1.6 L1.6,1.6 C1.7,1.6 1.9,1.6 2,1.4 C2.1,1.3 2.2,1.2 2.2,1 C2.1,0.9 1.9,0.6 1.6,0.6 Z"></path>
                                </g>
                                <g transform="translate(10.000000, 0.000000)">
                                    <path d="M2.6,1.2 C2.6,1.6 2.3,1.9 1.9,1.9 C1.5,1.9 1.2,1.6 1.2,1.2 C1.2,0.8 1.5,0.5 1.9,0.5 C2.3,0.4 2.6,0.7 2.6,1.2 Z"></path>
                                    <path d="M1.9,2.1 L1.9,2.1 C1.7,2.1 1.4,2 1.2,1.8 C1,1.6 0.9,1.4 0.9,1.1 C0.9,0.6 1.3,0.1 1.9,0.1 C2.5,0.1 2.9,0.5 2.9,1.1 C2.9,1.7 2.4,2.1 1.9,2.1 L1.9,2.1 Z M1.9,0.6 C1.6,0.6 1.3,0.8 1.3,1.1 C1.3,1.3 1.3,1.4 1.5,1.5 C1.6,1.6 1.7,1.7 1.9,1.7 C2.2,1.7 2.4,1.5 2.4,1.2 C2.4,0.9 2.2,0.6 1.9,0.6 Z"></path>
                                </g>
                            </g>
                        </g>
                    </g>
                </g>
            </g>
        </g>
    </g>
</svg>