<?xml version="1.0" encoding="UTF-8"?>
<svg width="128px" height="128px" viewBox="0 0 128 128" version="1.1" xmlns="http://www.w3.org/2000/svg" xmlns:xlink="http://www.w3.org/1999/xlink">
    <!-- Generator: Sketch 43.1 (39012) - http://www.bohemiancoding.com/sketch -->
    <title>05</title>
    <desc>Created with Sketch.</desc>
    <defs></defs>
    <g id="Page-1" stroke="none" stroke-width="1" fill="none" fill-rule="evenodd">
        <g id="05" fill-rule="nonzero">
            <g id="Layer_1">
                <g id="Group">
                    <g transform="translate(6.000000, 93.000000)">
                        <g>
                            <rect id="Rectangle-path" fill="#78909C" x="1.5" y="1.5" width="14" height="25"></rect>
                            <path d="M17,28 L0,28 L0,0 L17,0 L17,28 Z M3,25 L14,25 L14,3 L3,3 L3,25 Z" id="Shape" fill="#37474F"></path>
                        </g>
                        <g transform="translate(76.000000, 0.000000)">
                            <rect id="Rectangle-path" fill="#78909C" x="1.5" y="1.5" width="13" height="25"></rect>
                            <path d="M16,28 L0,28 L0,0 L16,0 L16,28 Z M3,25 L13,25 L13,3 L3,3 L3,25 Z" id="Shape" fill="#37474F"></path>
                        </g>
                    </g>
                    <g>
                        <rect id="Rectangle-path" fill="#FFFFFF" x="1.5" y="1.5" width="101" height="110"></rect>
                        <path d="M104,113 L0,113 L0,0 L104,0 L104,113 Z M3,110 L101,110 L101,3 L3,3 L3,110 Z" id="Shape" fill="#37474F"></path>
                    </g>
                    <g transform="translate(20.000000, 12.000000)">
                        <g>
                            <rect id="Rectangle-path" fill="#FFAB00" x="1.5" y="1.5" width="61" height="24"></rect>
                            <path d="M62.5,27 L1.5,27 C0.7,27 0,26.3 0,25.5 L0,1.5 C0,0.7 0.7,0 1.5,0 L62.5,0 C63.3,0 64,0.7 64,1.5 L64,25.5 C64,26.3 63.3,27 62.5,27 Z M3,24 L61,24 L61,3 L3,3 L3,24 Z" id="Shape" fill="#37474F"></path>
                        </g>
                        <g transform="translate(20.000000, 11.000000)" id="Shape" fill="#37474F">
                            <g>
                                <path d="M3.6,2.8 C3.6,3.6 3,4.2 2.2,4.2 C1.4,4.2 0.7,3.6 0.7,2.8 C0.7,2 1.4,1.3 2.2,1.3 C2.9,1.3 3.6,2 3.6,2.8 Z"></path>
                                <path d="M2.1,4.7 C1,4.7 0.1,3.8 0.1,2.8 C0.1,1.7 1,0.8 2.1,0.8 C3.2,0.8 4,1.7 4,2.8 C4.1,3.9 3.2,4.7 2.1,4.7 Z M2.1,1.8 C1.5,1.8 1.1,2.2 1.1,2.8 C1.1,3.3 1.5,3.7 2.1,3.7 C2.6,3.7 3,3.3 3,2.8 C3.1,2.3 2.7,1.8 2.1,1.8 Z"></path>
                            </g>
                            <g transform="translate(10.000000, 0.000000)">
                                <path d="M3.8,2.8 C3.8,3.6 3.1,4.2 2.3,4.2 C1.5,4.2 0.8,3.6 0.8,2.8 C0.8,2 1.5,1.3 2.3,1.3 C3.1,1.3 3.8,2 3.8,2.8 Z"></path>
                                <path d="M2.3,4.7 C1.2,4.7 0.3,3.8 0.3,2.8 C0.3,1.7 1.2,0.8 2.3,0.8 C3.4,0.8 4.3,1.7 4.3,2.8 C4.3,3.9 3.4,4.7 2.3,4.7 Z M2.3,1.8 C1.8,1.8 1.3,2.2 1.3,2.8 C1.3,3.3 1.7,3.7 2.3,3.7 C2.9,3.7 3.3,3.3 3.3,2.8 C3.3,2.3 2.8,1.8 2.3,1.8 Z"></path>
                            </g>
                            <g transform="translate(20.000000, 0.000000)">
                                <path d="M3.9,2.8 C3.9,3.6 3.3,4.2 2.5,4.2 C1.7,4.2 1,3.6 1,2.8 C1,2 1.6,1.3 2.5,1.3 C3.3,1.3 3.9,2 3.9,2.8 Z"></path>
                                <path d="M2.5,4.7 C1.4,4.7 0.5,3.8 0.5,2.8 C0.5,1.7 1.4,0.8 2.5,0.8 C3.6,0.8 4.4,1.7 4.4,2.8 C4.4,3.9 3.6,4.7 2.5,4.7 Z M2.5,1.8 C2,1.8 1.5,2.2 1.5,2.8 C1.5,3.3 1.9,3.7 2.5,3.7 C3,3.7 3.4,3.3 3.4,2.8 C3.4,2.3 3,1.8 2.5,1.8 Z"></path>
                            </g>
                        </g>
                    </g>
                    <g transform="translate(20.000000, 44.000000)">
                        <g>
                            <rect id="Rectangle-path" fill="#FFAB00" x="1.5" y="1.5" width="61" height="24"></rect>
                            <path d="M62.5,27 L1.5,27 C0.7,27 0,26.3 0,25.5 L0,1.5 C0,0.7 0.7,0 1.5,0 L62.5,0 C63.3,0 64,0.7 64,1.5 L64,25.5 C64,26.3 63.3,27 62.5,27 Z M3,24 L61,24 L61,3 L3,3 L3,24 Z" id="Shape" fill="#37474F"></path>
                        </g>
                        <g transform="translate(20.000000, 11.000000)" id="Shape" fill="#37474F">
                            <g>
                                <path d="M3.6,2.8 C3.6,3.6 3,4.2 2.2,4.2 C1.4,4.2 0.7,3.6 0.7,2.8 C0.7,2 1.4,1.3 2.2,1.3 C2.9,1.3 3.6,1.9 3.6,2.8 Z"></path>
                                <path d="M2.1,4.7 C1,4.7 0.1,3.8 0.1,2.8 C0.1,1.7 1,0.8 2.1,0.8 C3.2,0.8 4,1.7 4,2.8 C4.1,3.8 3.2,4.7 2.1,4.7 Z M2.1,1.8 C1.5,1.8 1.1,2.2 1.1,2.8 C1.1,3.3 1.5,3.7 2.1,3.7 C2.6,3.7 3,3.3 3,2.8 C3.1,2.2 2.7,1.8 2.1,1.8 Z"></path>
                            </g>
                            <g transform="translate(10.000000, 0.000000)">
                                <path d="M3.8,2.8 C3.8,3.6 3.1,4.2 2.3,4.2 C1.5,4.2 0.8,3.6 0.8,2.8 C0.8,2 1.5,1.3 2.3,1.3 C3.1,1.3 3.8,1.9 3.8,2.8 Z"></path>
                                <path d="M2.3,4.7 C1.2,4.7 0.3,3.8 0.3,2.8 C0.3,1.7 1.2,0.8 2.3,0.8 C3.4,0.8 4.3,1.7 4.3,2.8 C4.3,3.8 3.4,4.7 2.3,4.7 Z M2.3,1.8 C1.8,1.8 1.3,2.2 1.3,2.8 C1.3,3.3 1.7,3.7 2.3,3.7 C2.9,3.7 3.3,3.3 3.3,2.8 C3.3,2.2 2.8,1.8 2.3,1.8 Z"></path>
                            </g>
                            <g transform="translate(20.000000, 0.000000)">
                                <path d="M3.9,2.8 C3.9,3.6 3.3,4.2 2.5,4.2 C1.7,4.2 1,3.6 1,2.8 C1,2 1.6,1.3 2.5,1.3 C3.3,1.3 3.9,1.9 3.9,2.8 Z"></path>
                                <path d="M2.5,4.7 C1.4,4.7 0.5,3.8 0.5,2.8 C0.5,1.7 1.4,0.8 2.5,0.8 C3.6,0.8 4.4,1.7 4.4,2.8 C4.4,3.8 3.6,4.7 2.5,4.7 Z M2.5,1.8 C2,1.8 1.5,2.2 1.5,2.8 C1.5,3.3 1.9,3.7 2.5,3.7 C3,3.7 3.4,3.3 3.4,2.8 C3.4,2.2 3,1.8 2.5,1.8 Z"></path>
                            </g>
                        </g>
                    </g>
                    <g transform="translate(20.000000, 76.000000)">
                        <g>
                            <rect id="Rectangle-path" fill="#FFAB00" x="1.5" y="1.5" width="61" height="24"></rect>
                            <path d="M62.5,27 L1.5,27 C0.7,27 0,26.3 0,25.5 L0,1.5 C0,0.7 0.7,0 1.5,0 L62.5,0 C63.3,0 64,0.7 64,1.5 L64,25.5 C64,26.3 63.3,27 62.5,27 Z M3,24 L61,24 L61,3 L3,3 L3,24 Z" id="Shape" fill="#37474F"></path>
                        </g>
                        <g transform="translate(20.000000, 11.000000)" id="Shape" fill="#37474F">
                            <g>
                                <path d="M3.6,2.7 C3.6,3.5 3,4.1 2.2,4.1 C1.4,4.1 0.7,3.5 0.7,2.7 C0.7,1.9 1.4,1.2 2.2,1.2 C2.9,1.2 3.6,1.9 3.6,2.7 Z"></path>
                                <path d="M2.1,4.6 C1,4.6 0.1,3.7 0.1,2.7 C0.1,1.6 1,0.7 2.1,0.7 C3.2,0.7 4,1.6 4,2.7 C4.1,3.8 3.2,4.6 2.1,4.6 Z M2.1,1.7 C1.6,1.7 1.1,2.1 1.1,2.7 C1.1,3.2 1.5,3.6 2.1,3.6 C2.6,3.6 3,3.2 3,2.7 C3.1,2.1 2.7,1.7 2.1,1.7 Z"></path>
                            </g>
                            <g transform="translate(10.000000, 0.000000)">
                                <path d="M3.8,2.7 C3.8,3.5 3.1,4.1 2.3,4.1 C1.5,4.1 0.8,3.5 0.8,2.7 C0.8,1.9 1.5,1.2 2.3,1.2 C3.1,1.2 3.8,1.9 3.8,2.7 Z"></path>
                                <path d="M2.3,4.6 C1.2,4.6 0.3,3.7 0.3,2.7 C0.3,1.6 1.2,0.7 2.3,0.7 C3.4,0.7 4.3,1.6 4.3,2.7 C4.3,3.8 3.4,4.6 2.3,4.6 Z M2.3,1.7 C1.8,1.7 1.3,2.1 1.3,2.7 C1.3,3.2 1.7,3.6 2.3,3.6 C2.9,3.6 3.3,3.2 3.3,2.7 C3.3,2.2 2.8,1.7 2.3,1.7 Z"></path>
                            </g>
                            <g transform="translate(20.000000, 0.000000)">
                                <path d="M3.9,2.7 C3.9,3.5 3.3,4.1 2.5,4.1 C1.7,4.1 1,3.5 1,2.7 C1,1.9 1.6,1.2 2.5,1.2 C3.3,1.2 3.9,1.9 3.9,2.7 Z"></path>
                                <path d="M2.5,4.6 C1.4,4.6 0.5,3.7 0.5,2.7 C0.5,1.6 1.4,0.7 2.5,0.7 C3.6,0.7 4.4,1.6 4.4,2.7 C4.4,3.8 3.6,4.6 2.5,4.6 Z M2.5,1.7 C2,1.7 1.5,2.1 1.5,2.7 C1.5,3.2 1.9,3.6 2.5,3.6 C3,3.6 3.4,3.2 3.4,2.7 C3.4,2.1 3,1.7 2.5,1.7 Z"></path>
                            </g>
                        </g>
                    </g>
                </g>
            </g>
            <g id="Group-2" transform="translate(49.000000, 41.000000)">
                <g id="Group" transform="translate(13.401786, 16.137097)">
                    <g transform="translate(-0.000000, 2.104839)" id="Shape">
                        <path d="M17.5633929,30.0290323 C1.69285714,30.8709677 -3.06887155,9.17447858 11.1996865,0.596922986" fill="#78909C"></path>
                        <path d="M16.3642857,31.4322581 C9.80446429,31.4322581 4.58482143,28.6258065 1.975,23.5741935 C-1.41071429,17.0491935 0.282142857,8.27903226 6.41875,0.771774194 C6.9125,0.140322581 7.82946429,0.0701612903 8.39375,0.561290323 C9.02857143,1.05241935 9.09910714,1.96451613 8.60535714,2.52580645 C3.24464286,9.19112903 1.62232143,16.7685484 4.51428571,22.3112903 C6.77142857,26.6612903 11.4973214,28.9064516 17.4928571,28.6258065 C18.26875,28.5556452 18.9035714,29.1870968 18.9741071,29.958871 C19.0446429,30.7306452 18.4098214,31.3620968 17.6339286,31.4322581 L16.3642857,31.4322581 Z" fill="#37474F"></path>
                    </g>
                    <g transform="translate(33.857143, 0.000000)" id="Shape">
                        <path d="M1.48125,32.133871 C17.3517857,32.9758065 22.6682802,12.1634125 7.60681271,0.653729065" fill="#78909C"></path>
                        <path d="M2.68035714,33.5370968 C2.25714286,33.5370968 1.83392857,33.5370968 1.34017857,33.4669355 C0.564285714,33.3967742 -1.42108547e-14,32.7653226 -1.42108547e-14,31.9935484 C0.0705357143,31.2217742 0.705357143,30.6604839 1.48125,30.6604839 C7.54732143,31.0112903 12.2732143,28.6959677 14.4598214,24.3459677 C17.3517857,18.8032258 15.7294643,11.2258065 10.36875,4.56048387 C9.875,3.92903226 9.94553571,3.08709677 10.5803571,2.59596774 C11.2151786,2.10483871 12.0616071,2.175 12.5553571,2.80645161 C18.6214286,10.3137097 20.3142857,19.083871 16.9991071,25.608871 C14.4598214,30.7306452 9.24017857,33.5370968 2.68035714,33.5370968 Z" fill="#37474F"></path>
                    </g>
                </g>
                <g id="Group">
                    <g transform="translate(0.000000, 61.040323)" id="Shape">
                        <path d="M25.3223214,1.68387097 L16.9991071,4.49032258 C11.4973214,4.49032258 6.98303571,5.8233871 6.98303571,10.875 L1.69285714,24.5564516 L77.3776786,24.5564516 L72.0169643,10.875 C72.0169643,5.89354839 67.5732143,4.56048387 62.0008929,4.56048387 L52.9723214,1.75403226" fill="#B0BEC5"></path>
                        <path d="M77.3071429,25.9596774 L1.69285714,25.9596774 C1.19910714,25.9596774 0.775892857,25.7491935 0.49375,25.3282258 C0.211607143,24.9774194 0.141071429,24.4862903 0.352678571,23.9951613 L5.64285714,10.5241935 C5.78392857,5.61290323 9.52232143,3.08709677 16.7875,3.01693548 L24.8991071,0.280645161 C25.6044643,-2.10109707e-14 26.4508929,0.420967742 26.6625,1.19274194 C26.8741071,1.96451613 26.5214286,2.73629032 25.7455357,2.94677419 L17.4223214,5.75322581 C17.28125,5.8233871 17.1401786,5.8233871 16.9991071,5.8233871 C9.38125,5.8233871 8.39375,8.48951613 8.39375,10.8048387 C8.39375,10.9451613 8.39375,11.1556452 8.32321429,11.2959677 L3.73839286,23.1532258 L75.2616071,23.1532258 L70.6767857,11.366129 C70.60625,11.2258065 70.60625,11.0153226 70.60625,10.875 C70.60625,8.55967742 69.61875,5.96370968 62.0008929,5.96370968 C61.8598214,5.96370968 61.71875,5.96370968 61.5776786,5.89354839 L52.5491071,3.08709677 C51.7732143,2.8766129 51.4205357,2.03467742 51.6321429,1.33306452 C51.84375,0.561290323 52.6901786,0.210483871 53.3955357,0.420967742 L62.2125,3.15725806 C69.4776786,3.22741935 73.2866071,5.68306452 73.4276786,10.5943548 L78.7178571,24.0653226 C78.8589286,24.4862903 78.8589286,24.9774194 78.5767857,25.3983871 C78.2241071,25.7491935 77.8008929,25.9596774 77.3071429,25.9596774 Z" fill="#37474F"></path>
                    </g>
                    <g transform="translate(31.741071, 48.411290)" id="Shape">
                        <path d="M1.98386515,1.95051673 C1.98386515,14.08842 -1.69285714,17.5403226 7.75892857,17.5403226 C17.2107143,17.5403226 13.5510757,14.08842 13.5510757,1.95051673 L1.98386515,1.95051673 Z" fill="#FFFFFF"></path>
                        <g>
                            <path d="M1.41071429,1.40322581 L1.41071429,11.2258065" fill="#FFFFFF"></path>
                            <path d="M1.41071429,12.6290323 C0.634821429,12.6290323 0,11.9975806 0,11.2258065 L0,1.40322581 C0,0.631451613 0.634821429,0 1.41071429,0 C2.18660714,0 2.82142857,0.631451613 2.82142857,1.40322581 L2.82142857,11.2258065 C2.82142857,11.9975806 2.18660714,12.6290323 1.41071429,12.6290323 Z" fill="#37474F"></path>
                        </g>
                        <g transform="translate(12.696429, 0.000000)">
                            <path d="M1.41071429,1.40322581 L1.41071429,11.2258065" fill="#FFFFFF"></path>
                            <path d="M1.41071429,12.6290323 C0.634821429,12.6290323 0,11.9975806 0,11.2258065 L0,1.40322581 C0,0.631451613 0.634821429,0 1.41071429,0 C2.18660714,0 2.82142857,0.631451613 2.82142857,1.40322581 L2.82142857,11.2258065 C2.82142857,11.9975806 2.18660714,12.6290323 1.41071429,12.6290323 Z" fill="#37474F"></path>
                        </g>
                    </g>
                    <g transform="translate(15.517857, 0.000000)" id="Shape">
                        <path d="M1.975,12.8395161 C7.47678571,7.08629032 13.7544643,1.61370968 23.9821429,1.61370968 C34.2098214,1.61370968 42.4625,9.26129032 42.4625,18.6629032" fill="#78909C"></path>
                        <path d="M42.4625,20.066129 C41.6866071,20.066129 41.0517857,19.4346774 41.0517857,18.6629032 C41.0517857,10.0330645 33.4339286,3.01693548 23.9821429,3.01693548 C14.0366071,3.01693548 7.97053571,8.55967742 3.03303571,13.8217742 C2.46875,14.3830645 1.62232143,14.3830645 1.05803571,13.8919355 C0.49375,13.3306452 0.49375,12.4887097 0.9875,11.9274194 C6.34821429,6.31451613 12.9080357,0.280645161 23.9821429,0.280645161 C34.9857143,0.280645161 43.8732143,8.55967742 43.8732143,18.7330645 C43.8732143,19.4346774 43.3089286,20.066129 42.4625,20.066129 Z" fill="#37474F"></path>
                    </g>
                    <g transform="translate(22.571429, 17.540323)" id="Shape">
                        <path d="M1.90446429,0.420967742 C1.90446429,12.558871 7.47678571,33.6774194 16.9285714,33.6774194 C26.3803571,33.6774194 31.9526786,12.558871 31.9526786,0.420967742" fill="#FFFFFF"></path>
                        <path d="M16.9285714,35.0806452 C6.77142857,35.0806452 0.49375,20.7677419 0.49375,7.43709677 C0.49375,6.66532258 1.12857143,6.03387097 1.90446429,6.03387097 C2.68035714,6.03387097 3.31517857,6.66532258 3.31517857,7.43709677 C3.31517857,19.4346774 8.81696429,32.2741935 16.9285714,32.2741935 C25.0401786,32.2741935 30.5419643,19.4346774 30.5419643,7.43709677 C30.5419643,6.66532258 31.1767857,6.03387097 31.9526786,6.03387097 C32.7285714,6.03387097 33.3633929,6.66532258 33.3633929,7.43709677 C33.3633929,20.7677419 27.0857143,35.0806452 16.9285714,35.0806452 Z" fill="#37474F"></path>
                    </g>
                    <g transform="translate(20.455357, 21.750000)">
                        <g>
                            <g transform="translate(3.526786, 0.000000)">
                                <ellipse id="Oval" fill="#FFFFFF" cx="7.61785714" cy="7.2266129" rx="5.85446429" ry="5.8233871"></ellipse>
                                <path d="M7.61785714,14.4532258 C3.59732143,14.4532258 0.352678571,11.2258065 0.352678571,7.2266129 C0.352678571,3.22741935 3.59732143,0 7.61785714,0 C11.6383929,0 14.8830357,3.22741935 14.8830357,7.2266129 C14.8830357,11.2258065 11.5678571,14.4532258 7.61785714,14.4532258 Z M7.61785714,2.80645161 C5.14910714,2.80645161 3.17410714,4.77096774 3.17410714,7.2266129 C3.17410714,9.68225806 5.14910714,11.6467742 7.61785714,11.6467742 C10.0866071,11.6467742 12.0616071,9.68225806 12.0616071,7.2266129 C12.0616071,4.77096774 10.0160714,2.80645161 7.61785714,2.80645161 Z" id="Shape" fill="#37474F"></path>
                            </g>
                            <g transform="translate(0.000000, 6.314516)" id="Shape">
                                <path d="M1.41071429,1.40322581 L4.9375,1.40322581" fill="#FFFFFF"></path>
                                <path d="M4.9375,2.80645161 L1.41071429,2.80645161 C0.634821429,2.80645161 0,2.175 0,1.40322581 C0,0.631451613 0.634821429,0 1.41071429,0 L4.9375,0 C5.71339286,0 6.34821429,0.631451613 6.34821429,1.40322581 C6.34821429,2.175 5.71339286,2.80645161 4.9375,2.80645161 Z" fill="#37474F"></path>
                            </g>
                        </g>
                        <g transform="translate(19.044643, 0.000000)">
                            <g>
                                <ellipse id="Oval" fill="#FFFFFF" cx="7.97053571" cy="7.2266129" rx="5.85446429" ry="5.8233871"></ellipse>
                                <path d="M7.9,14.4532258 C3.87946429,14.4532258 0.634821429,11.2258065 0.634821429,7.2266129 C0.634821429,3.22741935 3.95,0 7.9,0 C11.9205357,0 15.1651786,3.22741935 15.1651786,7.2266129 C15.1651786,11.2258065 11.9205357,14.4532258 7.9,14.4532258 Z M7.9,2.80645161 C5.43125,2.80645161 3.45625,4.77096774 3.45625,7.2266129 C3.45625,9.68225806 5.43125,11.6467742 7.9,11.6467742 C10.36875,11.6467742 12.34375,9.68225806 12.34375,7.2266129 C12.34375,4.77096774 10.36875,2.80645161 7.9,2.80645161 Z" id="Shape" fill="#37474F"></path>
                            </g>
                            <g transform="translate(12.696429, 5.612903)" id="Shape">
                                <path d="M4.9375,1.40322581 L1.41071429,1.40322581" fill="#FFFFFF"></path>
                                <path d="M4.9375,2.80645161 L1.41071429,2.80645161 C0.634821429,2.80645161 0,2.175 0,1.40322581 C0,0.631451613 0.634821429,0 1.41071429,0 L4.9375,0 C5.71339286,0 6.34821429,0.631451613 6.34821429,1.40322581 C6.34821429,2.175 5.71339286,2.80645161 4.9375,2.80645161 Z" fill="#37474F"></path>
                            </g>
                        </g>
                    </g>
                    <g transform="translate(24.687500, 59.637097)" id="Shape">
                        <path d="M27.8616071,1.75403226 C27.8616071,5.0516129 22.0071429,7.71774194 14.8125,7.71774194 C7.61785714,7.71774194 1.76339286,5.0516129 1.76339286,1.75403226" fill="#FFFFFF"></path>
                        <path d="M14.8125,9.12096774 C6.55982143,9.12096774 0.352678571,5.96370968 0.352678571,1.75403226 C0.352678571,0.982258065 0.9875,0.350806452 1.76339286,0.350806452 C2.53928571,0.350806452 3.17410714,0.982258065 3.17410714,1.75403226 C3.17410714,3.92903226 8.18214286,6.31451613 14.8125,6.31451613 C21.4428571,6.31451613 26.4508929,3.92903226 26.4508929,1.75403226 C26.4508929,0.982258065 27.0857143,0.350806452 27.8616071,0.350806452 C28.6375,0.350806452 29.2723214,0.982258065 29.2723214,1.75403226 C29.2723214,5.96370968 23.0651786,9.12096774 14.8125,9.12096774 Z" fill="#37474F"></path>
                    </g>
                    <g transform="translate(16.223214, 11.927419)" id="Shape">
                        <path d="M35.4794643,3.50720391 C35.4794643,8.35031233 19.6794643,10.377136 13.1901786,10.4023967 C6.70089286,10.4276574 0.488759083,2.61820319 3.02866439,1.1603243" fill="#78909C"></path>
                        <path d="M13.2607143,11.7169355 C5.99553571,11.7169355 0.0705357143,7.15645161 0.0705357143,1.54354839 C0.0705357143,0.771774194 0.705357143,0.140322581 1.48125,0.140322581 C2.25714286,0.140322581 2.89196429,0.771774194 2.89196429,1.54354839 C2.89196429,5.61290323 7.54732143,8.91048387 13.2607143,8.91048387 C22.1482143,8.91048387 34.1392857,6.24435484 34.1392857,3.50806452 C34.1392857,2.73629032 34.7741071,2.10483871 35.55,2.10483871 C36.3258929,2.10483871 36.9607143,2.73629032 36.9607143,3.50806452 C36.8901786,11.2258065 13.4723214,11.7169355 13.2607143,11.7169355 Z" fill="#37474F"></path>
                    </g>
                </g>
                <g id="Group" transform="translate(21.160714, 73.669355)">
                    <path d="M35.1267857,11.7169355 C32.0232143,5.61290323 25.675,1.40322581 18.3392857,1.40322581 C11.0035714,1.40322581 4.65535714,5.61290323 1.55178571,11.7169355" id="Shape" fill="#FFAB00"></path>
                    <path d="M35.1267857,13.1201613 C34.6330357,13.1201613 34.1392857,12.8395161 33.8571429,12.3483871 C30.8946429,6.45483871 24.8991071,2.80645161 18.3392857,2.80645161 C11.7794643,2.80645161 5.78392857,6.45483871 2.82142857,12.3483871 C2.46875,13.05 1.62232143,13.3306452 0.916964286,12.9798387 C0.211607143,12.6290323 -0.0705357143,11.7870968 0.282142857,11.0854839 C3.73839286,4.27983871 10.6508929,0 18.3392857,0 C26.0276786,0 32.9401786,4.20967742 36.3964286,11.0854839 C36.7491071,11.7870968 36.4669643,12.6290323 35.7616071,12.9798387 C35.55,13.05 35.3383929,13.1201613 35.1267857,13.1201613 Z" id="Shape" fill="#37474F"></path>
                </g>
            </g>
        </g>
    </g>
</svg>