<?xml version="1.0" encoding="UTF-8"?>
<svg width="122px" height="129px" viewBox="0 0 122 129" version="1.1" xmlns="http://www.w3.org/2000/svg" xmlns:xlink="http://www.w3.org/1999/xlink">
    <!-- Generator: Sketch 43.1 (39012) - http://www.bohemiancoding.com/sketch -->
    <title>06</title>
    <desc>Created with Sketch.</desc>
    <defs></defs>
    <g id="Page-1" stroke="none" stroke-width="1" fill="none" fill-rule="evenodd">
        <g id="06" transform="translate(0.000000, -36.000000)">
            <g id="Group-2" transform="translate(10.000000, 36.000000)" fill-rule="nonzero">
                <g id="Group" transform="translate(16.116071, 19.475806)">
                    <g transform="translate(-0.000000, 2.540323)" id="Shape">
                        <path d="M21.1205357,36.2419355 C2.03571429,37.2580645 -3.69041515,11.0726466 13.4679775,0.720424293" fill="#78909C"></path>
                        <path d="M19.6785714,37.9354839 C11.7901786,37.9354839 5.51339286,34.5483871 2.375,28.4516129 C-1.69642857,20.5766129 0.339285714,9.99193548 7.71875,0.931451613 C8.3125,0.169354839 9.41517857,0.0846774194 10.09375,0.677419355 C10.8571429,1.27016129 10.9419643,2.37096774 10.3482143,3.0483871 C3.90178571,11.0927419 1.95089286,20.2379032 5.42857143,26.9274194 C8.14285714,32.1774194 13.8258929,34.8870968 21.0357143,34.5483871 C21.96875,34.4637097 22.7321429,35.2258065 22.8169643,36.1572581 C22.9017857,37.0887097 22.1383929,37.8508065 21.2053571,37.9354839 L19.6785714,37.9354839 Z" fill="#37474F"></path>
                    </g>
                    <g transform="translate(40.714286, 0.000000)" id="Shape">
                        <path d="M1.78125,38.7822581 C20.8660714,39.7983871 27.2593243,14.6799806 9.14743301,0.788983354" fill="#78909C"></path>
                        <path d="M3.22321429,40.4758065 C2.71428571,40.4758065 2.20535714,40.4758065 1.61160714,40.391129 C0.678571429,40.3064516 -1.42108547e-14,39.5443548 -1.42108547e-14,38.6129032 C0.0848214286,37.6814516 0.848214286,37.0040323 1.78125,37.0040323 C9.07589286,37.4274194 14.7589286,34.6330645 17.3883929,29.3830645 C20.8660714,22.6935484 18.9151786,13.5483871 12.46875,5.50403226 C11.875,4.74193548 11.9598214,3.72580645 12.7232143,3.13306452 C13.4866071,2.54032258 14.5044643,2.625 15.0982143,3.38709677 C22.3928571,12.4475806 24.4285714,23.0322581 20.4419643,30.9072581 C17.3883929,37.0887097 11.1116071,40.4758065 3.22321429,40.4758065 Z" fill="#37474F"></path>
                    </g>
                </g>
                <g id="Group">
                    <g transform="translate(0.000000, 73.669355)" id="Shape">
                        <path d="M30.4508929,2.03225806 L20.4419643,5.41935484 C13.8258929,5.41935484 8.39732143,7.02822581 8.39732143,13.125 L2.03571429,29.6370968 L93.0491071,29.6370968 L86.6026786,13.125 C86.6026786,7.11290323 81.2589286,5.50403226 74.5580357,5.50403226 L63.7008929,2.11693548" fill="#B0BEC5"></path>
                        <path d="M92.9642857,31.3306452 L2.03571429,31.3306452 C1.44196429,31.3306452 0.933035714,31.0766129 0.59375,30.5685484 C0.254464286,30.1451613 0.169642857,29.5524194 0.424107143,28.9596774 L6.78571429,12.7016129 C6.95535714,6.77419355 11.4508929,3.72580645 20.1875,3.64112903 L29.9419643,0.338709677 C30.7901786,-1.4127588e-14 31.8080357,0.508064516 32.0625,1.43951613 C32.3169643,2.37096774 31.8928571,3.30241935 30.9598214,3.55645161 L20.9508929,6.94354839 C20.78125,7.02822581 20.6116071,7.02822581 20.4419643,7.02822581 C11.28125,7.02822581 10.09375,10.2459677 10.09375,13.0403226 C10.09375,13.2096774 10.09375,13.4637097 10.0089286,13.6330645 L4.49553571,27.9435484 L90.5044643,27.9435484 L84.9910714,13.7177419 C84.90625,13.5483871 84.90625,13.2943548 84.90625,13.125 C84.90625,10.3306452 83.71875,7.19758065 74.5580357,7.19758065 C74.3883929,7.19758065 74.21875,7.19758065 74.0491071,7.11290323 L63.1919643,3.72580645 C62.2589286,3.47177419 61.8348214,2.45564516 62.0892857,1.60887097 C62.34375,0.677419355 63.3616071,0.254032258 64.2098214,0.508064516 L74.8125,3.81048387 C83.5491071,3.89516129 88.1294643,6.85887097 88.2991071,12.7862903 L94.6607143,29.0443548 C94.8303571,29.5524194 94.8303571,30.1451613 94.4910714,30.6532258 C94.0669643,31.0766129 93.5580357,31.3306452 92.9642857,31.3306452 Z" fill="#37474F"></path>
                    </g>
                    <g transform="translate(38.169643, 58.427419)" id="Shape">
                        <path d="M2.38566062,2.35407191 C2.38566062,17.0032655 -2.03571429,21.1693548 9.33035714,21.1693548 C20.6964286,21.1693548 16.2955973,17.0032655 16.2955973,2.35407191 L2.38566062,2.35407191 Z" fill="#FFFFFF"></path>
                        <g transform="translate(0.000000, 0.000000)">
                            <path d="M1.69642857,1.69354839 L1.69642857,13.5483871" fill="#FFFFFF"></path>
                            <path d="M1.69642857,15.2419355 C0.763392857,15.2419355 0,14.4798387 0,13.5483871 L0,1.69354839 C0,0.762096774 0.763392857,0 1.69642857,0 C2.62946429,0 3.39285714,0.762096774 3.39285714,1.69354839 L3.39285714,13.5483871 C3.39285714,14.4798387 2.62946429,15.2419355 1.69642857,15.2419355 Z" fill="#37474F"></path>
                        </g>
                        <g transform="translate(15.267857, 0.000000)">
                            <path d="M1.69642857,1.69354839 L1.69642857,13.5483871" fill="#FFFFFF"></path>
                            <path d="M1.69642857,15.2419355 C0.763392857,15.2419355 0,14.4798387 0,13.5483871 L0,1.69354839 C0,0.762096774 0.763392857,0 1.69642857,0 C2.62946429,0 3.39285714,0.762096774 3.39285714,1.69354839 L3.39285714,13.5483871 C3.39285714,14.4798387 2.62946429,15.2419355 1.69642857,15.2419355 Z" fill="#37474F"></path>
                        </g>
                    </g>
                    <g transform="translate(18.660714, 0.000000)" id="Shape">
                        <path d="M2.375,15.4959677 C8.99107143,8.55241935 16.5401786,1.94758065 28.8392857,1.94758065 C41.1383929,1.94758065 51.0625,11.1774194 51.0625,22.5241935" fill="#78909C"></path>
                        <path d="M51.0625,24.2177419 C50.1294643,24.2177419 49.3660714,23.4556452 49.3660714,22.5241935 C49.3660714,12.108871 40.2053571,3.64112903 28.8392857,3.64112903 C16.8794643,3.64112903 9.58482143,10.3306452 3.64732143,16.6814516 C2.96875,17.358871 1.95089286,17.358871 1.27232143,16.766129 C0.59375,16.0887097 0.59375,15.0725806 1.1875,14.3951613 C7.63392857,7.62096774 15.5223214,0.338709677 28.8392857,0.338709677 C42.0714286,0.338709677 52.7589286,10.3306452 52.7589286,22.608871 C52.7589286,23.4556452 52.0803571,24.2177419 51.0625,24.2177419 Z" fill="#37474F"></path>
                    </g>
                    <g transform="translate(27.142857, 21.169355)" id="Shape">
                        <path d="M2.29017857,0.508064516 C2.29017857,15.1572581 8.99107143,40.6451613 20.3571429,40.6451613 C31.7232143,40.6451613 38.4241071,15.1572581 38.4241071,0.508064516" fill="#FFFFFF"></path>
                        <path d="M20.3571429,42.3387097 C8.14285714,42.3387097 0.59375,25.0645161 0.59375,8.97580645 C0.59375,8.04435484 1.35714286,7.28225806 2.29017857,7.28225806 C3.22321429,7.28225806 3.98660714,8.04435484 3.98660714,8.97580645 C3.98660714,23.4556452 10.6026786,38.9516129 20.3571429,38.9516129 C30.1116071,38.9516129 36.7276786,23.4556452 36.7276786,8.97580645 C36.7276786,8.04435484 37.4910714,7.28225806 38.4241071,7.28225806 C39.3571429,7.28225806 40.1205357,8.04435484 40.1205357,8.97580645 C40.1205357,25.0645161 32.5714286,42.3387097 20.3571429,42.3387097 Z" fill="#37474F"></path>
                    </g>
                    <g transform="translate(24.598214, 26.250000)">
                        <g transform="translate(0.000000, 0.000000)">
                            <g transform="translate(4.241071, 0.000000)">
                                <ellipse id="Oval" fill="#FFFFFF" cx="9.16071429" cy="8.72177419" rx="7.04017857" ry="7.02822581"></ellipse>
                                <path d="M9.16071429,17.4435484 C4.32589286,17.4435484 0.424107143,13.5483871 0.424107143,8.72177419 C0.424107143,3.89516129 4.32589286,0 9.16071429,0 C13.9955357,0 17.8973214,3.89516129 17.8973214,8.72177419 C17.8973214,13.5483871 13.9107143,17.4435484 9.16071429,17.4435484 Z M9.16071429,3.38709677 C6.19196429,3.38709677 3.81696429,5.75806452 3.81696429,8.72177419 C3.81696429,11.6854839 6.19196429,14.0564516 9.16071429,14.0564516 C12.1294643,14.0564516 14.5044643,11.6854839 14.5044643,8.72177419 C14.5044643,5.75806452 12.0446429,3.38709677 9.16071429,3.38709677 Z" id="Shape" fill="#37474F"></path>
                            </g>
                            <g transform="translate(0.000000, 7.620968)" id="Shape">
                                <path d="M1.69642857,1.69354839 L5.9375,1.69354839" fill="#FFFFFF"></path>
                                <path d="M5.9375,3.38709677 L1.69642857,3.38709677 C0.763392857,3.38709677 0,2.625 0,1.69354839 C0,0.762096774 0.763392857,0 1.69642857,0 L5.9375,0 C6.87053571,0 7.63392857,0.762096774 7.63392857,1.69354839 C7.63392857,2.625 6.87053571,3.38709677 5.9375,3.38709677 Z" fill="#37474F"></path>
                            </g>
                        </g>
                        <g transform="translate(22.901786, 0.000000)">
                            <g>
                                <ellipse id="Oval" fill="#FFFFFF" cx="9.58482143" cy="8.72177419" rx="7.04017857" ry="7.02822581"></ellipse>
                                <path d="M9.5,17.4435484 C4.66517857,17.4435484 0.763392857,13.5483871 0.763392857,8.72177419 C0.763392857,3.89516129 4.75,0 9.5,0 C14.3348214,0 18.2366071,3.89516129 18.2366071,8.72177419 C18.2366071,13.5483871 14.3348214,17.4435484 9.5,17.4435484 Z M9.5,3.38709677 C6.53125,3.38709677 4.15625,5.75806452 4.15625,8.72177419 C4.15625,11.6854839 6.53125,14.0564516 9.5,14.0564516 C12.46875,14.0564516 14.84375,11.6854839 14.84375,8.72177419 C14.84375,5.75806452 12.46875,3.38709677 9.5,3.38709677 Z" id="Shape" fill="#37474F"></path>
                            </g>
                            <g transform="translate(15.267857, 6.774194)" id="Shape">
                                <path d="M5.9375,1.69354839 L1.69642857,1.69354839" fill="#FFFFFF"></path>
                                <path d="M5.9375,3.38709677 L1.69642857,3.38709677 C0.763392857,3.38709677 0,2.625 0,1.69354839 C0,0.762096774 0.763392857,0 1.69642857,0 L5.9375,0 C6.87053571,0 7.63392857,0.762096774 7.63392857,1.69354839 C7.63392857,2.625 6.87053571,3.38709677 5.9375,3.38709677 Z" fill="#37474F"></path>
                            </g>
                        </g>
                    </g>
                    <g transform="translate(29.687500, 71.975806)" id="Shape">
                        <path d="M33.5044643,2.11693548 C33.5044643,6.09677419 26.4642857,9.31451613 17.8125,9.31451613 C9.16071429,9.31451613 2.12053571,6.09677419 2.12053571,2.11693548" fill="#FFFFFF"></path>
                        <path d="M17.8125,11.0080645 C7.88839286,11.0080645 0.424107143,7.19758065 0.424107143,2.11693548 C0.424107143,1.18548387 1.1875,0.423387097 2.12053571,0.423387097 C3.05357143,0.423387097 3.81696429,1.18548387 3.81696429,2.11693548 C3.81696429,4.74193548 9.83928571,7.62096774 17.8125,7.62096774 C25.7857143,7.62096774 31.8080357,4.74193548 31.8080357,2.11693548 C31.8080357,1.18548387 32.5714286,0.423387097 33.5044643,0.423387097 C34.4375,0.423387097 35.2008929,1.18548387 35.2008929,2.11693548 C35.2008929,7.19758065 27.7366071,11.0080645 17.8125,11.0080645 Z" fill="#37474F"></path>
                    </g>
                    <g transform="translate(19.508929, 14.395161)" id="Shape">
                        <path d="M42.6651786,4.23283231 C42.6651786,10.0779632 23.6651786,12.5241296 15.8616071,12.5546167 C8.05803571,12.5851037 0.587748265,3.1599004 3.64206477,1.40039139" fill="#78909C"></path>
                        <path d="M15.9464286,14.141129 C7.20982143,14.141129 0.0848214286,8.63709677 0.0848214286,1.86290323 C0.0848214286,0.931451613 0.848214286,0.169354839 1.78125,0.169354839 C2.71428571,0.169354839 3.47767857,0.931451613 3.47767857,1.86290323 C3.47767857,6.77419355 9.07589286,10.7540323 15.9464286,10.7540323 C26.6339286,10.7540323 41.0535714,7.53629032 41.0535714,4.23387097 C41.0535714,3.30241935 41.8169643,2.54032258 42.75,2.54032258 C43.6830357,2.54032258 44.4464286,3.30241935 44.4464286,4.23387097 C44.3616071,13.5483871 16.2008929,14.141129 15.9464286,14.141129 Z" fill="#37474F"></path>
                    </g>
                </g>
                <g id="Group" transform="translate(25.446429, 88.911290)">
                    <path d="M42.2410714,14.141129 C38.5089286,6.77419355 30.875,1.69354839 22.0535714,1.69354839 C13.2321429,1.69354839 5.59821429,6.77419355 1.86607143,14.141129" id="Shape" fill="#FFAB00"></path>
                    <path d="M42.2410714,15.8346774 C41.6473214,15.8346774 41.0535714,15.4959677 40.7142857,14.9032258 C37.1517857,7.79032258 29.9419643,3.38709677 22.0535714,3.38709677 C14.1651786,3.38709677 6.95535714,7.79032258 3.39285714,14.9032258 C2.96875,15.75 1.95089286,16.0887097 1.10267857,15.6653226 C0.254464286,15.2419355 -0.0848214286,14.2258065 0.339285714,13.3790323 C4.49553571,5.16532258 12.8080357,0 22.0535714,0 C31.2991071,0 39.6116071,5.08064516 43.7678571,13.3790323 C44.1919643,14.2258065 43.8526786,15.2419355 43.0044643,15.6653226 C42.75,15.75 42.4955357,15.8346774 42.2410714,15.8346774 Z" id="Shape" fill="#37474F"></path>
                </g>
            </g>
            <g id="Layer_5" transform="translate(83.000000, 135.000000)" fill-rule="nonzero">
                <g id="Layer_3_1_">
                    <g id="Layer_2_2_">
                        <g id="Group">
                            <rect id="Rectangle-path" fill="#FFFFFF" x="1" y="1.2" width="36.9" height="21.1"></rect>
                            <path d="M37.9,22.8 L1,22.8 C0.8,22.8 0.5,22.6 0.5,22.3 L0.5,1.2 C0.5,1 0.7,0.7 1,0.7 L37.9,0.7 C38.1,0.7 38.4,0.9 38.4,1.2 L38.4,22.3 C38.4,22.6 38.1,22.8 37.9,22.8 Z M1.5,21.9 L37.5,21.9 L37.5,1.8 L1.5,1.8 L1.5,21.9 Z" id="Shape" fill="#37474F"></path>
                        </g>
                    </g>
                    <path d="M7.4,9.4 L5.8,10.7 L6.3,11.2 L6.3,11.2 C6.8,10.8 7.1,10.6 7.2,10.5 C7.3,10.4 7.4,10.3 7.4,10.3 L7.5,10.3 L7.5,11.3 L7.5,15 L8.3,15 L8.3,15 L8.3,9.4 L8.3,9.4 L7.4,9.4 C7.4,9.5 7.4,9.4 7.4,9.4 Z" id="Shape" fill="#37474F"></path>
                    <path d="M15.4,14.3 L12.8,14.3 L12.8,14.3 L13.8,13.4 C14.2,13 14.6,12.7 14.7,12.4 C14.9,12.2 15,11.9 15.1,11.7 C15.2,11.5 15.3,11.2 15.3,11 C15.3,10.5 15.1,10.1 14.8,9.9 C14.5,9.7 14.1,9.5 13.6,9.5 L13.6,9.5 C13.3,9.5 13,9.6 12.7,9.7 C12.4,9.8 12.1,10 11.8,10.2 L12.3,10.8 L12.3,10.8 C12.5,10.6 12.8,10.5 13,10.4 C13.2,10.3 13.4,10.3 13.6,10.3 L13.6,10.3 C13.8,10.3 14.1,10.4 14.2,10.5 C14.4,10.7 14.4,10.8 14.4,11.1 C14.4,11.3 14.4,11.4 14.3,11.6 C14.2,11.8 14.1,11.9 14,12.1 C13.8,12.3 13.6,12.6 13.1,13 L11.6,14.5 L11.6,15.2 L11.6,15.2 L15.4,15.2 L15.4,14.3 L15.4,14.3 L15.4,14.3 Z" id="Shape" fill="#37474F"></path>
                    <path d="M19.2,15.2 C20,15.1 20.4,15 20.8,14.7 C21.2,14.4 21.3,14 21.3,13.5 C21.3,13.1 21.2,12.8 21,12.6 C20.8,12.4 20.5,12.2 20,12.2 L20,12.2 C20.4,12.1 20.7,12 20.9,11.7 C21.1,11.4 21.2,11.2 21.2,10.8 C21.2,10.4 21,10 20.7,9.8 C20.4,9.6 19.9,9.4 19.4,9.4 C19.4,9.4 19.4,9.4 19.3,9.4 C18.6,9.4 18,9.6 17.5,9.9 L18,10.5 C18,10.5 18.1,10.5 18.1,10.4 C18.3,10.2 18.4,10.2 18.6,10.2 L18.8,10.2 C19,10.2 19.2,10.1 19.4,10.1 C19.7,10.1 19.9,10.2 20.1,10.3 C20.3,10.4 20.3,10.6 20.3,10.8 C20.3,11.2 20.1,11.4 19.8,11.6 C19.6,11.7 19.3,11.8 18.9,11.8 L18.5,11.8 L18.4,11.8 L18.4,12.5 L19,12.5 C19.5,12.5 19.9,12.6 20.1,12.7 C20.3,12.9 20.4,13 20.4,13.3 C20.4,13.6 20.3,13.8 20.1,14 L20.1,14 C19.9,14.2 19.6,14.2 19.1,14.2 C18.9,14.2 18.6,14.2 18.3,14.1 C18.1,14 17.8,13.9 17.7,13.9 C17.7,13.9 17.6,13.9 17.6,13.8 L17.6,14.6 C17.9,15.1 18.5,15.2 19.2,15.2 C19.1,15.2 19.2,15.2 19.2,15.2 Z" id="Shape" fill="#37474F"></path>
                    <path d="M26,13.9 L26,15.1 L26.9,15.1 L26.9,13.9 L26.9,13.9 L27.7,13.9 L27.7,13.2 L27.7,13.2 L26.9,13.2 L26.9,9.5 L26.9,9.5 L26,9.5 L23.4,13.2 L23.4,13.2 L23.4,13.8 L26,13.9 L26,13.9 Z M25.9,13.1 L24.2,13.1 L25.6,11.1 C25.8,10.9 25.8,10.6 25.9,10.5 L25.9,10.5 L25.9,11.7 L25.9,13.1 L25.9,13.1 Z" id="Shape" fill="#37474F"></path>
                    <path d="M31.3,15.1 C31.6,15.1 31.8,15.1 32.2,15 C32.6,14.9 32.7,14.8 33,14.6 C33.4,14.3 33.5,13.8 33.5,13.2 C33.5,12.7 33.3,12.3 33,12 C32.7,11.7 32.2,11.5 31.7,11.5 L31.5,11.5 C31.5,11.5 31.5,11.5 31.4,11.5 L31.2,11.5 L30.9,11.5 L31,10.1 L33,10.1 L33,9.3 L33,9.3 L30,9.3 L29.8,12 L29.8,12 L30.2,12.2 C30.3,12.2 30.5,12.1 30.7,12.1 L31.2,12.1 C32.1,12.1 32.5,12.4 32.5,13.1 L32.5,13.1 C32.5,13.4 32.3,13.7 32.2,13.9 C32,14.1 31.7,14.1 31.3,14.1 C31.1,14.1 30.8,14.1 30.5,14 C30.3,13.9 30,13.8 29.8,13.8 L29.8,13.8 L29.8,14.6 C30.1,15 30.6,15.1 31.3,15.1 Z" id="Shape" fill="#37474F"></path>
                </g>
            </g>
            <g id="Layer_3" transform="translate(32.000000, 0.000000)">
                <g id="Group">
                    <g>
                        <g transform="translate(28.000000, 118.000000)" id="Shape" fill-rule="nonzero">
                            <polygon fill="#FFFFFF" points="30.2 0.7 1.3 0.7 1.3 45.8 36 45.8 36 6.5"></polygon>
                            <path d="M36.6,46.4 L0.8,46.4 L0.8,0.1 L30.4,0.1 L36.6,6.2 L36.6,46.4 L36.6,46.4 Z M1.9,45.2 L35.4,45.2 L35.4,6.7 L29.9,1.2 L1.9,1.2 L1.9,45.2 Z" fill="#37474F"></path>
                        </g>
                        <g transform="translate(56.000000, 118.000000)" id="Shape" fill-rule="nonzero">
                            <polyline fill="#FFAB00" points="7.5 7.2 1.1 7.2 1.1 0.9"></polyline>
                            <path d="M7.5,7.8 L1.1,7.8 C0.8,7.8 0.5,7.5 0.5,7.2 L0.5,0.8 C0.5,0.5 0.8,0.2 1.1,0.2 C1.4,0.2 1.7,0.5 1.7,0.8 L1.7,6.6 L7.5,6.6 C7.8,6.6 8.1,6.9 8.1,7.2 C8.1,7.5 7.8,7.8 7.5,7.8 Z" fill="#37474F"></path>
                        </g>
                        <g>
                            <g>
                                <path d="M56.9,152.8 L36.5,152.8 C36.2,152.8 35.9,152.5 35.9,152.2 C35.9,151.9 36.2,151.6 36.5,151.6 L56.9,151.6 C57.2,151.6 57.5,151.9 57.5,152.2 C57.5,152.5 57.2,152.8 56.9,152.8 Z" id="Shape" fill="#37474F" fill-rule="nonzero"></path>
                                <g></g>
                                <path d="M56.9,159.7 L36.5,159.7 C36.2,159.7 35.9,159.4 35.9,159.1 C35.9,158.8 36.2,158.5 36.5,158.5 L56.9,158.5 C57.2,158.5 57.5,158.8 57.5,159.1 C57.5,159.5 57.2,159.7 56.9,159.7 Z" id="Shape" fill="#37474F" fill-rule="nonzero"></path>
                            </g>
                            <g>
                                <path d="M56.9,138.2 L36.1,138.2 C35.8,138.2 35.5,137.9 35.5,137.6 C35.5,137.3 35.8,137 36.1,137 L56.9,137 C57.2,137 57.5,137.3 57.5,137.6 C57.5,137.9 57.2,138.2 56.9,138.2 Z" id="Shape" fill="#37474F" fill-rule="nonzero"></path>
                                <g></g>
                                <path d="M56.9,145.1 L36.5,145.1 C36.2,145.1 35.9,144.8 35.9,144.5 C35.9,144.2 36.2,143.9 36.5,143.9 L56.9,143.9 C57.2,143.9 57.5,144.2 57.5,144.5 C57.5,144.8 57.2,145.1 56.9,145.1 Z" id="Shape" fill="#37474F" fill-rule="nonzero"></path>
                                <g transform="translate(35.000000, 137.000000)" id="Shape" fill-rule="nonzero" fill="#37474F">
                                    <path d="M0.9,22.6 C0.6,22.6 0.3,22.3 0.3,22 L0.3,0.8 C0.3,0.5 0.6,0.2 0.9,0.2 C1.2,0.2 1.5,0.5 1.5,0.8 L1.5,22 C1.5,22.3 1.2,22.6 0.9,22.6 Z"></path>
                                    <path d="M22.1,22.6 C21.8,22.6 21.5,22.3 21.5,22 L21.5,0.8 C21.5,0.5 21.8,0.2 22.1,0.2 C22.4,0.2 22.7,0.5 22.7,0.8 L22.7,22 C22.7,22.3 22.4,22.6 22.1,22.6 Z"></path>
                                    <path d="M11.7,22.6 C11.4,22.6 11.1,22.3 11.1,22 L11.1,0.8 C11.1,0.5 11.4,0.2 11.7,0.2 C12,0.2 12.3,0.5 12.3,0.8 L12.3,22 C12.3,22.3 12,22.6 11.7,22.6 Z"></path>
                                    <path d="M16.7,22.6 C16.4,22.6 16.1,22.3 16.1,22 L16.1,0.8 C16.1,0.5 16.4,0.2 16.7,0.2 C17,0.2 17.3,0.5 17.3,0.8 L17.3,22 C17.3,22.3 17,22.6 16.7,22.6 Z"></path>
                                </g>
                                <g></g>
                            </g>
                        </g>
                        <g transform="translate(46.000000, 131.000000)" id="Shape" fill-rule="nonzero" fill="#37474F">
                            <g>
                                <path d="M2.1,0.9 C2.1,1.3 1.8,1.6 1.4,1.6 C1,1.6 0.7,1.3 0.7,0.9 C0.7,0.5 1,0.2 1.4,0.2 C1.8,0.2 2.1,0.5 2.1,0.9 Z"></path>
                                <path d="M1.4,1.8 C0.9,1.8 0.5,1.4 0.5,0.9 C0.5,0.4 0.9,0 1.4,0 C1.9,0 2.3,0.4 2.3,0.9 C2.3,1.4 1.9,1.8 1.4,1.8 Z M1.4,0.4 C1.1,0.4 0.9,0.6 0.9,0.9 C0.9,1.2 1.1,1.4 1.4,1.4 C1.7,1.4 1.9,1.2 1.9,0.9 C1.9,0.6 1.7,0.4 1.4,0.4 Z"></path>
                            </g>
                            <g transform="translate(5.000000, 0.000000)">
                                <path d="M2,0.9 C2,1.3 1.7,1.6 1.3,1.6 C0.9,1.6 0.6,1.3 0.6,0.9 C0.6,0.5 0.9,0.2 1.3,0.2 C1.7,0.2 2,0.5 2,0.9 Z"></path>
                                <path d="M1.3,1.8 C0.8,1.8 0.4,1.4 0.4,0.9 C0.4,0.4 0.8,0 1.3,0 C1.8,0 2.2,0.4 2.2,0.9 C2.2,1.4 1.8,1.8 1.3,1.8 Z M1.3,0.4 C1,0.4 0.8,0.6 0.8,0.9 C0.8,1.2 1,1.4 1.3,1.4 C1.6,1.4 1.8,1.2 1.8,0.9 C1.8,0.6 1.6,0.4 1.3,0.4 Z"></path>
                            </g>
                            <g transform="translate(10.000000, 0.000000)">
                                <path d="M1.9,0.9 C1.9,1.3 1.6,1.6 1.2,1.6 C0.8,1.6 0.5,1.3 0.5,0.9 C0.5,0.5 0.8,0.2 1.2,0.2 C1.6,0.2 1.9,0.5 1.9,0.9 Z"></path>
                                <path d="M1.2,1.8 C0.7,1.8 0.3,1.4 0.3,0.9 C0.3,0.4 0.7,0 1.2,0 C1.7,0 2.1,0.4 2.1,0.9 C2.1,1.4 1.7,1.8 1.2,1.8 Z M1.2,0.4 C0.9,0.4 0.7,0.6 0.7,0.9 C0.7,1.2 0.9,1.4 1.2,1.4 C1.5,1.4 1.7,1.2 1.7,0.9 C1.7,0.6 1.4,0.4 1.2,0.4 Z"></path>
                            </g>
                        </g>
                    </g>
                    <g transform="translate(34.000000, 122.000000)" id="Shape" fill-rule="nonzero">
                        <g>
                            <path d="M9.8,5.5 C9.8,8 7.8,9.9 5.4,9.9 C2.9,9.9 1,7.9 1,5.5 C1,3 3,1.1 5.4,1.1 C7.7,1.1 9.8,3.1 9.8,5.5 Z" fill="#78909C"></path>
                            <path d="M5.3,10.5 C2.5,10.5 0.3,8.3 0.3,5.5 C0.3,2.7 2.6,0.5 5.3,0.5 C8.1,0.5 10.3,2.7 10.3,5.5 C10.3,8.3 8.1,10.5 5.3,10.5 Z M5.3,1.7 C3.2,1.7 1.4,3.4 1.4,5.6 C1.4,7.8 3.1,9.5 5.3,9.5 C7.4,9.5 9.2,7.8 9.2,5.6 C9.2,3.4 7.4,1.7 5.3,1.7 Z" fill="#37474F"></path>
                        </g>
                        <g transform="translate(2.000000, 3.000000)">
                            <path d="M5.1,2.5 C5.1,3.5 4.3,4.3 3.3,4.3 C2.3,4.3 1.5,3.5 1.5,2.5 C1.5,1.5 2.3,0.7 3.3,0.7 C4.3,0.7 5.1,1.6 5.1,2.5 Z" fill="#B0BEC5"></path>
                            <path d="M3.3,4.9 C2,4.9 0.9,3.8 0.9,2.5 C0.9,1.2 1.9,0.1 3.3,0.1 C4.7,0.1 5.7,1.1 5.7,2.5 C5.6,3.8 4.6,4.9 3.3,4.9 Z M3.3,1.3 C2.6,1.3 2.1,1.8 2.1,2.5 C2.1,3.2 2.6,3.7 3.3,3.7 C4,3.7 4.5,3.2 4.5,2.5 C4.5,1.9 3.9,1.3 3.3,1.3 Z" fill="#37474F"></path>
                        </g>
                    </g>
                </g>
            </g>
            <g id="Layer_1" transform="translate(0.000000, 119.000000)" fill-rule="nonzero">
                <g id="Group">
                    <g transform="translate(3.000000, 34.000000)">
                        <g>
                            <rect id="Rectangle-path" fill="#78909C" x="0.6" y="0.7" width="5.1" height="9.1"></rect>
                            <path d="M6.2,10.4 L0,10.4 L0,0.2 L6.2,0.2 L6.2,10.4 Z M1.1,9.3 L5.1,9.3 L5.1,1.3 L1.1,1.3 L1.1,9.3 Z" id="Shape" fill="#37474F"></path>
                        </g>
                        <g transform="translate(27.000000, 0.000000)">
                            <rect id="Rectangle-path" fill="#78909C" x="1.3" y="0.7" width="4.7" height="9.1"></rect>
                            <path d="M6.6,10.4 L0.8,10.4 L0.8,0.2 L6.6,0.2 L6.6,10.4 Z M1.8,9.3 L5.4,9.3 L5.4,1.3 L1.8,1.3 L1.8,9.3 L1.8,9.3 Z" id="Shape" fill="#37474F"></path>
                        </g>
                    </g>
                    <g>
                        <rect id="Rectangle-path" fill="#FFFFFF" x="1.4" y="0.8" width="36.8" height="40.1"></rect>
                        <path d="M38.8,41.5 L0.9,41.5 L0.9,0.3 L38.8,0.3 L38.8,41.5 Z M1.9,40.4 L37.7,40.4 L37.7,1.4 L2,1.4 L2,40.4 L1.9,40.4 Z" id="Shape" fill="#37474F"></path>
                    </g>
                    <g transform="translate(8.000000, 4.000000)">
                        <g>
                            <rect id="Rectangle-path" fill="#FFAB00" x="0.7" y="1.2" width="22.2" height="8.8"></rect>
                            <path d="M22.9,10.5 L0.7,10.5 C0.4,10.5 0.2,10.2 0.2,10 L0.2,1.2 C0.2,0.9 0.5,0.7 0.7,0.7 L22.9,0.7 C23.2,0.7 23.4,1 23.4,1.2 L23.4,10 C23.5,10.2 23.2,10.5 22.9,10.5 Z M1.2,9.4 L22.3,9.4 L22.3,1.7 L1.2,1.7 L1.2,9.4 Z" id="Shape" fill="#37474F"></path>
                        </g>
                        <g transform="translate(7.000000, 5.000000)" id="Shape" fill="#37474F">
                            <g>
                                <path d="M1.7,0.7 C1.7,1 1.5,1.2 1.2,1.2 C0.9,1.2 0.7,1 0.7,0.7 C0.7,0.4 1,0.2 1.2,0.2 C1.5,0.1 1.7,0.4 1.7,0.7 Z"></path>
                                <path d="M1.2,1.4 C0.8,1.4 0.5,1.1 0.5,0.7 C0.5,0.3 0.8,2.84217094e-14 1.2,2.84217094e-14 C1.6,2.84217094e-14 1.9,0.3 1.9,0.7 C1.9,1.1 1.6,1.4 1.2,1.4 Z M1.2,0.3 C1,0.3 0.8,0.4 0.8,0.7 C0.8,0.9 0.9,1 1.2,1 C1.4,1 1.5,0.9 1.5,0.7 C1.6,0.5 1.4,0.3 1.2,0.3 Z"></path>
                            </g>
                            <g transform="translate(4.000000, 0.000000)">
                                <path d="M1.5,0.7 C1.5,1 1.2,1.2 1,1.2 C0.8,1.2 0.5,1 0.5,0.7 C0.5,0.4 0.8,0.2 1,0.2 C1.2,0.1 1.5,0.4 1.5,0.7 Z"></path>
                                <path d="M0.9,1.4 C0.5,1.4 0.2,1.1 0.2,0.7 C0.2,0.3 0.5,2.84217094e-14 0.9,2.84217094e-14 C1.3,2.84217094e-14 1.6,0.3 1.6,0.7 C1.6,1.1 1.3,1.4 0.9,1.4 Z M0.9,0.3 C0.7,0.3 0.5,0.4 0.5,0.7 C0.5,0.9 0.6,1 0.9,1 C1.1,1 1.3,0.9 1.3,0.7 C1.3,0.5 1.1,0.3 0.9,0.3 Z"></path>
                            </g>
                            <g transform="translate(7.000000, 0.000000)">
                                <path d="M2.1,0.7 C2.1,1 1.9,1.2 1.6,1.2 C1.3,1.2 1.1,1 1.1,0.7 C1.1,0.4 1.3,0.2 1.6,0.2 C1.9,0.1 2.1,0.4 2.1,0.7 Z"></path>
                                <path d="M1.6,1.4 C1.2,1.4 0.9,1.1 0.9,0.7 C0.9,0.3 1.2,2.84217094e-14 1.6,2.84217094e-14 C2,2.84217094e-14 2.3,0.3 2.3,0.7 C2.3,1.1 2,1.4 1.6,1.4 Z M1.6,0.3 C1.4,0.3 1.2,0.4 1.2,0.7 C1.2,0.9 1.3,1 1.6,1 C1.8,1 1.9,0.9 1.9,0.7 C2,0.5 1.8,0.3 1.6,0.3 Z"></path>
                            </g>
                        </g>
                    </g>
                    <g transform="translate(8.000000, 16.000000)">
                        <g>
                            <rect id="Rectangle-path" fill="#FFAB00" x="0.7" y="0.9" width="22.2" height="8.8"></rect>
                            <path d="M22.9,10.2 L0.7,10.2 C0.4,10.2 0.2,9.9 0.2,9.7 L0.2,0.9 C0.2,0.6 0.5,0.4 0.7,0.4 L22.9,0.4 C23.2,0.4 23.4,0.7 23.4,0.9 L23.4,9.7 C23.5,9.9 23.2,10.2 22.9,10.2 Z M1.2,9.1 L22.3,9.1 L22.3,1.4 L1.2,1.4 L1.2,9.1 Z" id="Shape" fill="#37474F"></path>
                        </g>
                        <g transform="translate(7.000000, 4.000000)" id="Shape" fill="#37474F">
                            <g>
                                <path d="M1.7,1.3 C1.7,1.6 1.5,1.8 1.2,1.8 C0.9,1.8 0.7,1.6 0.7,1.3 C0.7,1 1,0.8 1.2,0.8 C1.5,0.8 1.7,1 1.7,1.3 Z"></path>
                                <path d="M1.2,2 C0.8,2 0.5,1.7 0.5,1.3 C0.5,0.9 0.8,0.6 1.2,0.6 C1.6,0.6 1.9,0.9 1.9,1.3 C1.9,1.7 1.6,2 1.2,2 Z M1.2,1 C1,1 0.8,1.1 0.8,1.4 C0.8,1.6 0.9,1.7 1.2,1.7 C1.4,1.7 1.5,1.6 1.5,1.4 C1.6,1.1 1.4,1 1.2,1 Z"></path>
                            </g>
                            <g transform="translate(4.000000, 0.000000)">
                                <path d="M1.5,1.3 C1.5,1.6 1.2,1.8 1,1.8 C0.8,1.8 0.5,1.6 0.5,1.3 C0.5,1 0.8,0.8 1,0.8 C1.2,0.8 1.5,1 1.5,1.3 Z"></path>
                                <path d="M0.9,2 C0.5,2 0.2,1.7 0.2,1.3 C0.2,0.9 0.5,0.6 0.9,0.6 C1.3,0.6 1.6,0.9 1.6,1.3 C1.6,1.7 1.3,2 0.9,2 Z M0.9,1 C0.7,1 0.5,1.1 0.5,1.4 C0.5,1.6 0.6,1.7 0.9,1.7 C1.1,1.7 1.3,1.6 1.3,1.4 C1.3,1.1 1.1,1 0.9,1 Z"></path>
                            </g>
                            <g transform="translate(7.000000, 0.000000)">
                                <path d="M2.1,1.3 C2.1,1.6 1.9,1.8 1.6,1.8 C1.3,1.8 1.1,1.6 1.1,1.3 C1.1,1 1.3,0.8 1.6,0.8 C1.9,0.8 2.1,1 2.1,1.3 Z"></path>
                                <path d="M1.6,2 C1.2,2 0.9,1.7 0.9,1.3 C0.9,0.9 1.2,0.6 1.6,0.6 C2,0.6 2.3,0.9 2.3,1.3 C2.3,1.7 2,2 1.6,2 Z M1.6,1 C1.4,1 1.2,1.1 1.2,1.4 C1.2,1.6 1.3,1.7 1.6,1.7 C1.8,1.7 1.9,1.6 1.9,1.4 C2,1.1 1.8,1 1.6,1 Z"></path>
                            </g>
                        </g>
                    </g>
                    <g transform="translate(8.000000, 28.000000)">
                        <g>
                            <rect id="Rectangle-path" fill="#FFAB00" x="0.7" y="0.5" width="22.2" height="8.8"></rect>
                            <path d="M22.9,9.8 L0.7,9.8 C0.4,9.8 0.2,9.5 0.2,9.3 L0.2,0.5 C0.2,0.2 0.5,0 0.7,0 L22.9,0 C23.2,0 23.4,0.3 23.4,0.5 L23.4,9.3 C23.5,9.6 23.2,9.8 22.9,9.8 Z M1.2,8.7 L22.3,8.7 L22.3,1 L1.2,1 L1.2,8.7 Z" id="Shape" fill="#37474F"></path>
                        </g>
                        <g transform="translate(7.000000, 4.000000)" id="Shape" fill="#37474F">
                            <g>
                                <path d="M1.7,1 C1.7,1.3 1.5,1.5 1.2,1.5 C0.9,1.5 0.7,1.3 0.7,1 C0.7,0.7 1,0.5 1.2,0.5 C1.5,0.4 1.7,0.7 1.7,1 Z"></path>
                                <path d="M1.2,1.7 C0.8,1.7 0.5,1.4 0.5,1 C0.5,0.6 0.8,0.3 1.2,0.3 C1.6,0.3 1.9,0.6 1.9,1 C1.9,1.4 1.6,1.7 1.2,1.7 Z M1.2,0.6 C1,0.6 0.8,0.7 0.8,1 C0.8,1.2 0.9,1.3 1.2,1.3 C1.4,1.3 1.5,1.2 1.5,1 C1.6,0.8 1.4,0.6 1.2,0.6 Z"></path>
                            </g>
                            <g transform="translate(4.000000, 0.000000)">
                                <path d="M1.5,1 C1.5,1.3 1.2,1.5 1,1.5 C0.8,1.5 0.5,1.3 0.5,1 C0.5,0.7 0.8,0.5 1,0.5 C1.2,0.4 1.5,0.7 1.5,1 Z"></path>
                                <path d="M0.9,1.7 C0.5,1.7 0.2,1.4 0.2,1 C0.2,0.6 0.5,0.3 0.9,0.3 C1.3,0.3 1.6,0.6 1.6,1 C1.6,1.4 1.3,1.7 0.9,1.7 Z M0.9,0.6 C0.7,0.6 0.5,0.7 0.5,1 C0.5,1.2 0.6,1.3 0.9,1.3 C1.1,1.3 1.3,1.2 1.3,1 C1.3,0.8 1.1,0.6 0.9,0.6 Z"></path>
                            </g>
                            <g transform="translate(7.000000, 0.000000)">
                                <path d="M2.1,1 C2.1,1.3 1.9,1.5 1.6,1.5 C1.3,1.5 1.1,1.3 1.1,1 C1.1,0.7 1.3,0.5 1.6,0.5 C1.9,0.4 2.1,0.7 2.1,1 Z"></path>
                                <path d="M1.6,1.7 C1.2,1.7 0.9,1.4 0.9,1 C0.9,0.6 1.2,0.3 1.6,0.3 C2,0.3 2.3,0.6 2.3,1 C2.3,1.4 2,1.7 1.6,1.7 Z M1.6,0.6 C1.4,0.6 1.2,0.7 1.2,1 C1.2,1.2 1.3,1.3 1.6,1.3 C1.8,1.3 1.9,1.2 1.9,1 C2,0.8 1.8,0.6 1.6,0.6 Z"></path>
                            </g>
                        </g>
                    </g>
                </g>
            </g>
            <g id="Layer_2" transform="translate(24.000000, 122.000000)" fill-rule="nonzero">
                <g id="Group">
                    <g>
                        <g id="Shape">
                            <path d="M38.3,24.7 L38.3,9.3 C39.9,8.9 41.3,7.2 41.3,5.3 C41.3,3 39.4,1.1 37.1,1.1 C35.1,1.1 33.4,2.6 33,4.2 L32.5,4.2 L29.8,1.5 L27.1,4.3 L26.6,4.3 L23.9,1.6 L21.2,4.3 L20.7,4.3 L18,1.6 L15.3,4.3 L14.7,4.3 L12,1.5 L9.3,4.2 L8.8,4.2 C8.4,2.6 6.7,1.1 4.8,1.1 C2.5,1.1 0.8,3 0.8,5.2 C0.8,7.2 2.1,8.8 4.1,9.2 L4.1,24.6 C2.1,25 0.8,26.7 0.8,28.6 C0.8,30.9 2.6,32.8 4.9,32.8 C6.9,32.8 8.5,31.3 8.9,29.7 L9.4,29.7 L12.1,32.4 L14.8,29.7 L15.3,29.7 L18,32.4 L20.7,29.7 L21.2,29.7 L23.9,32.4 L26.6,29.7 L27.1,29.7 L29.8,32.4 L32.5,29.7 L33,29.7 C33.4,31.3 35.1,32.8 37,32.8 C39.3,32.8 41.3,30.9 41.3,28.7 C41.3,26.8 39.9,25.1 38.3,24.7 Z" fill="#FFECB3"></path>
                            <path d="M37.1,33.7 C35,33.7 33.4,32.3 32.6,30.8 L30.4,33 C30.1,33.3 29.6,33.3 29.3,33 L26.9,30.6 L24.5,33 C24.2,33.3 23.7,33.3 23.4,33 L21,30.6 L18.6,33 C18.3,33.3 17.8,33.3 17.5,33 L15.1,30.6 L12.7,33 C12.4,33.3 11.9,33.3 11.6,33 L9.4,30.8 C8.6,32.3 7,33.7 5,33.7 C2.3,33.7 0.1,31.5 0.1,28.7 C0.1,26.5 1.4,24.7 3.4,24.1 L3.4,9.9 C1.2,9.2 0,7.4 0,5.3 C0,2.6 2.2,0.4 4.8,0.4 C6.9,0.4 8.5,1.8 9.3,3.3 L11.5,1.1 C11.8,0.8 12.3,0.8 12.6,1.1 L15,3.5 L17.4,1.1 C17.6,0.9 17.8,0.9 18,0.9 L18,0.9 C18.2,0.9 18.4,1 18.6,1.1 L21,3.5 L23.4,1.1 C23.6,0.9 23.8,0.9 24,0.9 L24,0.9 C24.2,0.9 24.4,1 24.6,1.1 L27,3.5 L29.4,1.1 C29.6,0.9 29.8,0.9 30,0.9 L30,0.9 C30.2,0.9 30.4,1 30.6,1.1 L32.8,3.3 C33.6,1.8 35.3,0.4 37.3,0.4 C40,0.4 42.3,2.7 42.3,5.4 C42.3,7.4 41,9.2 39.3,10 L39.3,24.2 C41.1,25 42.3,26.8 42.3,28.8 C42.1,31.4 39.8,33.7 37.1,33.7 Z M32.5,29 L33,29 C33.4,29 33.7,29.2 33.8,29.6 C34.1,30.8 35.4,32.1 37,32.1 C38.8,32.1 40.5,30.5 40.5,28.7 C40.5,27.1 39.3,25.7 38.1,25.4 C37.7,25.3 37.5,25 37.5,24.6 L37.5,9.2 C37.5,8.8 37.7,8.5 38.1,8.4 C39.3,8.1 40.5,6.8 40.5,5.2 C40.5,3.4 38.9,1.8 37.1,1.8 C35.5,1.8 34.1,3.1 33.8,4.3 C33.7,4.7 33.4,4.9 33,4.9 L32.5,4.9 C32.3,4.9 32.1,4.8 31.9,4.7 L29.8,2.5 L27.6,4.7 C27.4,4.9 27.2,4.9 27,4.9 L26.5,4.9 C26.3,4.9 26.1,4.8 25.9,4.7 L23.7,2.5 L21.5,4.7 C21.3,4.9 21.1,4.9 20.9,4.9 L20.4,4.9 C20.2,4.9 20,4.8 19.8,4.7 L17.6,2.5 L15.4,4.7 C15.2,4.9 15,4.9 14.8,4.9 L14.7,4.9 C14.5,4.9 14.3,4.8 14.1,4.7 L12,2.7 L9.8,4.9 C9.6,5.1 9.4,5.1 9.2,5.1 L8.8,5.1 C8.4,5.1 8.1,4.9 8,4.5 C7.7,3.3 6.4,2 4.8,2 C3,2 1.6,3.5 1.6,5.4 C1.6,7 2.7,8.3 4.2,8.7 C4.6,8.8 4.8,9.1 4.8,9.5 L4.8,24.9 C4.8,25.3 4.5,25.6 4.2,25.7 C2.6,26.1 1.6,27.3 1.6,28.9 C1.6,30.8 3.1,32.3 4.9,32.3 C6.5,32.3 7.8,31 8.1,29.8 C8.2,29.4 8.5,29.2 8.9,29.2 L9.4,29.2 C9.6,29.2 9.8,29.3 10,29.4 L12.1,31.5 L14.3,29.3 C14.5,29.1 14.7,29.1 14.9,29.1 L15.4,29.1 C15.6,29.1 15.8,29.2 16,29.3 L18.2,31.5 L20.4,29.3 C20.6,29.1 20.8,29.1 21,29.1 L21.5,29.1 C21.7,29.1 21.9,29.2 22.1,29.3 L24.3,31.5 L26.5,29.3 C26.7,29.1 26.9,29.1 27.1,29.1 L27.7,29.1 C27.9,29.1 28.1,29.2 28.3,29.3 L30.5,31.5 L32.7,29.3 C32.1,29.1 32.3,29 32.5,29 Z" fill="#37474F"></path>
                        </g>
                        <g transform="translate(7.000000, 8.000000)">
                            <rect id="Rectangle-path" fill="#B0BEC5" x="1" y="1.1" width="26.3" height="16"></rect>
                            <path d="M27.3,17.8 L1,17.8 C0.6,17.8 0.2,17.4 0.2,17 L0.2,1 C0.2,0.6 0.6,0.2 1,0.2 L27.3,0.2 C27.7,0.2 28.1,0.6 28.1,1 L28.1,17 C28.1,17.5 27.7,17.8 27.3,17.8 Z M1.8,16.2 L26.5,16.2 L26.5,1.8 L1.8,1.8 L1.8,16.2 Z" id="Shape" fill="#37474F"></path>
                        </g>
                        <g transform="translate(7.000000, 13.000000)" id="Shape">
                            <polyline fill="#FFAB00" points="1.2 10.8 10.1 2 14 5.8 15.8 4 19.2 7.3 25 1.6 26.9 3.4"></polyline>
                            <path d="M1.2,11.6 C1,11.6 0.8,11.5 0.6,11.4 C0.3,11.1 0.3,10.6 0.6,10.3 L9.5,1.4 C9.8,1.1 10.3,1.1 10.6,1.4 L13.9,4.7 L15.2,3.4 C15.5,3.1 16,3.1 16.3,3.4 L19.1,6.2 L24.3,1 C24.6,0.7 25.1,0.7 25.4,1 L27.3,2.9 C27.6,3.2 27.6,3.7 27.3,4 C27,4.3 26.5,4.3 26.2,4 L24.9,2.7 L19.6,7.9 C19.3,8.2 18.8,8.2 18.5,7.9 L15.7,5.1 L14.4,6.4 C14.1,6.7 13.6,6.7 13.3,6.4 L10,3.1 L1.7,11.4 C1.6,11.5 1.4,11.6 1.2,11.6 Z" fill="#37474F"></path>
                        </g>
                        <g transform="translate(9.000000, 11.000000)" id="Shape">
                            <path d="M4.7,3.2 C4,3.9 2.9,4 2.1,3.2 C1.4,2.5 1.3,1.4 2.1,0.6" fill="#FFECB3"></path>
                            <path d="M3.4,4.6 C2.7,4.6 2.1,4.4 1.6,3.9 C1.1,3.4 0.8,2.8 0.8,2.1 C0.8,1.4 1,0.7 1.5,0.3 C1.8,-1.42108547e-14 2.3,-1.42108547e-14 2.6,0.3 C2.9,0.6 2.9,1.1 2.6,1.4 C2.4,1.6 2.3,1.8 2.3,2.1 C2.3,2.4 2.4,2.6 2.6,2.8 C2.8,3 3,3.1 3.3,3.1 C3.6,3.1 3.8,3 4,2.8 C4.3,2.5 4.8,2.5 5.1,2.8 C5.4,3.1 5.4,3.6 5.1,3.9 C4.8,4.2 4.2,4.5 3.4,4.6 L3.4,4.6 Z" fill="#37474F"></path>
                        </g>
                    </g>
                    <g transform="translate(17.000000, 9.000000)" id="Shape">
                        <g transform="translate(14.000000, 0.000000)">
                            <g>
                                <path d="M1.4,14.6 C2.2,13.3 3.8,10.6 5.2,9.1 C11.1,2.8 18,1.5 18.6,1.4 L18.6,1.4 L18.6,1.4 L18.6,1.4 L18.6,1.4 C18.5,2 17.2,8.9 10.9,14.8 C9.3,16.2 6.8,17.7 5.4,18.6" fill="#FFAB00"></path>
                                <path d="M5.4,19.5 C5.1,19.5 4.9,19.4 4.7,19.1 C4.5,18.7 4.6,18.2 4.9,18 C5.2,17.8 5.5,17.6 5.8,17.4 C7.2,16.6 9,15.4 10.2,14.3 C15,9.8 16.8,4.8 17.4,2.5 C15,3.1 10.1,4.9 5.6,9.7 C4.5,10.9 3.4,12.7 2.5,14.1 C2.3,14.5 2.1,14.8 1.9,15.1 C1.7,15.5 1.2,15.6 0.8,15.3 C0.4,15.1 0.3,14.6 0.6,14.2 C0.8,13.9 1,13.6 1.2,13.3 C2.1,11.9 3.3,9.9 4.5,8.7 C10,2.8 16.5,1.2 18.1,0.8 C18.3,0.7 18.6,0.6 18.8,0.8 C18.9,0.8 19,0.9 19.1,1 C19.2,1.1 19.3,1.2 19.3,1.3 C19.4,1.5 19.4,1.8 19.3,2 C19,3.7 17.3,10.1 11.4,15.6 C10.1,16.8 8.1,18 6.7,18.9 C6.4,19.1 6.1,19.3 5.8,19.5 C5.7,19.4 5.6,19.5 5.4,19.5 Z" fill="#37474F"></path>
                            </g>
                        </g>
                        <g transform="translate(0.000000, 22.000000)">
                            <g>
                                <path d="M2.8,3.5 C5.3,0.6 9.7,1.5 10.1,1.6 L10.1,1.6 L10.1,1.6 L10.1,1.6 L10.1,1.6 C10.2,2 11.1,6.4 8.2,8.9 C5.3,11.4 1.8,10.3 1.5,10.2 L1.5,10.2 L1.5,10.2 L1.5,10.2 L1.5,10.2 C1.4,9.9 0.3,6.3 2.8,3.5 Z" fill="#78909C"></path>
                                <path d="M3.8,11.4 C2.8,11.4 1.9,11.2 1.4,11.1 L1.2,11.1 C1,11 0.8,10.9 0.7,10.7 C0.7,10.7 0.7,10.7 0.7,10.6 C0.7,10.5 0.7,10.4 0.6,10.4 C0.3,9.5 -0.5,6 2.1,3 C3.8,1 6.2,0.6 8,0.6 C8.7,0.6 9.4,0.7 10.1,0.8 L10.3,0.8 C10.4,0.8 10.5,0.9 10.6,0.9 C10.8,1 10.9,1.2 11,1.4 L11,1.6 C11.2,2.8 11.7,7 8.8,9.5 C7.4,10.8 5.7,11.4 3.8,11.4 Z M2.2,9.6 C2.6,9.7 3.2,9.8 3.8,9.8 C5.3,9.8 6.7,9.3 7.8,8.4 C9.9,6.6 9.7,3.6 9.5,2.3 C9.1,2.3 8.7,2.2 8.1,2.2 C6.7,2.2 4.7,2.5 3.4,4 C1.6,6.1 1.9,8.6 2.2,9.6 Z" fill="#37474F"></path>
                            </g>
                        </g>
                        <g transform="translate(7.000000, 13.000000)">
                            <polygon fill="#FFFFFF" points="4.2 12.3 1.8 9.9 8.4 1.6 12.4 5.7"></polygon>
                            <path d="M4.2,13.1 C4,13.1 3.8,13 3.6,12.9 L1.2,10.5 C0.9,10.2 0.9,9.7 1.1,9.4 L7.7,1.1 C7.9,0.9 8.1,0.8 8.3,0.8 C8.5,0.8 8.7,0.9 8.9,1 L12.9,5 C13.1,5.2 13.1,5.4 13.1,5.6 C13.1,5.8 13,6 12.8,6.2 L4.5,12.8 C4.5,13 4.3,13.1 4.2,13.1 Z M2.9,9.8 L4.3,11.2 L11.3,5.6 L8.5,2.8 L2.9,9.8 Z" fill="#37474F"></path>
                        </g>
                    </g>
                </g>
            </g>
        </g>
    </g>
</svg>