<?xml version="1.0" encoding="utf-8"?>
<!-- Generator: Adobe Illustrator 21.0.2, SVG Export Plug-In . SVG Version: 6.00 Build 0)  -->
<svg version="1.1" id="Layer_2" xmlns="http://www.w3.org/2000/svg" xmlns:xlink="http://www.w3.org/1999/xlink" x="0px" y="0px"
	 viewBox="0 0 68.4 68.4" style="enable-background:new 0 0 68.4 68.4;" xml:space="preserve">
<style type="text/css">
	.st0{fill:#FFFFFF;}
	.st1{fill:#37474F;}
	.st2{fill:#37474F;stroke:#37474F;stroke-miterlimit:10;}
</style>
<g>
	<path class="st0" d="M67.4,34.2c0,18.4-14.8,33.2-33.2,33.2S1,52.6,1,34.2S15.8,1,34.2,1C52.5,1,67.4,15.8,67.4,34.2z"/>
	<path class="st1" d="M34.2,68.4C15.4,68.4,0,53.1,0,34.2C0,15.4,15.3,0,34.2,0C53,0,68.4,15.3,68.4,34.2C68.4,53,53,68.4,34.2,68.4
		z M34.2,2C16.4,2,2,16.4,2,34.2s14.5,32.2,32.2,32.2S66.4,52,66.4,34.2S52,2,34.2,2z"/>
</g>
<g id="XMLID_4_">
	<path id="XMLID_3_" class="st2" d="M46.3,47.6c-0.4,0-0.6-0.1-0.9-0.4L21.2,22.9c-0.5-0.5-0.5-1.3,0-1.8c0.5-0.5,1.3-0.5,1.8,0
		l24.3,24.3c0.5,0.5,0.5,1.3,0,1.8C47,47.5,46.7,47.6,46.3,47.6z"/>
	<path id="XMLID_5_" class="st2" d="M22.1,47.6c-0.4,0-0.6-0.1-0.9-0.4c-0.5-0.5-0.5-1.3,0-1.8l24.3-24.3c0.5-0.5,1.3-0.5,1.8,0
		c0.5,0.5,0.5,1.3,0,1.8L22.9,47.2C22.7,47.5,22.4,47.6,22.1,47.6z"/>
</g>
</svg>
