<?xml version="1.0" encoding="UTF-8"?>
<svg width="72px" height="72px" viewBox="0 0 72 72" version="1.1" xmlns="http://www.w3.org/2000/svg" xmlns:xlink="http://www.w3.org/1999/xlink">
    <!-- Generator: Sketch 43.1 (39012) - http://www.bohemiancoding.com/sketch -->
    <title>clutch</title>
    <desc>Created with Sketch.</desc>
    <defs></defs>
    <g id="Page-1" stroke="none" stroke-width="1" fill="none" fill-rule="evenodd">
        <g id="Artboard-Copy" transform="translate(-989.000000, -125.000000)" fill-rule="nonzero" fill="#5BCEE0">
            <path d="M1036.40356,154.511999 C1036.40355,154.514818 1036.40354,154.517636 1036.40352,154.520453 C1037.00083,154.301599 1040.36398,150.642749 1040.63526,150.279336 C1040.7436,150.153081 1040.72227,149.979905 1040.72995,149.826351 C1040.71801,147.58019 1040.74787,145.333175 1040.70351,143.087014 C1040.47573,138.801137 1038.47185,134.6509 1035.26256,131.802464 C1032.78265,129.567393 1029.60749,128.123128 1026.29668,127.706825 C1023.99166,127.386066 1021.63289,127.757156 1019.44645,128.512133 C1016.98445,129.37545 1014.7272,130.82654 1012.93744,132.725498 C1010.03697,135.745403 1008.36578,139.922938 1008.43147,144.112417 C1008.40246,145.96019 1008.43062,147.807962 1008.41697,149.655735 C1008.42209,149.833175 1008.39479,150.036209 1008.52104,150.182085 C1008.72664,150.461155 1010.64557,152.632007 1011.94697,153.799865 C1011.96806,153.839748 1011.99967,153.874604 1012.04682,153.901517 C1012.13756,153.975475 1012.22896,154.048596 1012.32101,154.120874 C1012.39645,154.18208 1012.46823,154.237732 1012.5357,154.287017 C1014.75552,155.980071 1017.33822,157.19 1020.05469,157.830806 C1022.01678,158.202749 1024.02408,158.456967 1026.02284,158.270142 C1026.95867,158.180569 1027.90389,158.126825 1028.82095,157.905024 C1031.55061,157.32733 1034.15099,156.157098 1036.40356,154.511999 Z M1026.37346,125.139052 C1029.6254,125.509289 1032.77839,126.729194 1035.4272,128.652891 C1037.95488,130.481043 1040.02445,132.940474 1041.38597,135.748815 C1042.57943,138.188626 1043.21242,140.886919 1043.29517,143.598863 C1043.27384,145.576303 1043.28322,147.554597 1043.28578,149.532891 C1044.75308,150.381706 1046.35261,151.001043 1048.00332,151.387488 C1049.271,151.681801 1050.57536,151.762844 1051.87204,151.818294 C1053.58929,151.773081 1055.32104,151.611848 1056.96493,151.087204 C1057.44265,150.949858 1057.90417,150.763033 1058.37507,150.60436 C1059.07545,150.399621 1059.78692,150.908057 1060.05649,151.535924 C1060.23137,151.949668 1060.08806,152.396682 1059.98995,152.810427 C1057.18502,164.652038 1054.3818,176.494502 1051.57773,188.336967 C1051.38749,189.086825 1051.24588,189.849479 1051.02408,190.590806 C1050.07716,193.805213 1047.14597,196.262938 1043.871,196.838768 C1043.24739,196.972701 1042.61014,196.90019 1041.97972,196.918104 C1030.14919,196.91981 1018.31867,196.921517 1006.48815,196.917251 C1005.72976,196.964171 1004.97649,196.807204 1004.25393,196.593081 C1001.86787,195.876493 999.778673,194.174597 998.657725,191.942938 C998.109194,190.906445 997.910427,189.740284 997.634882,188.613365 C994.808626,176.677062 991.983223,164.740758 989.156114,152.805308 C989.063981,152.412038 988.925782,151.994028 989.0691,151.596493 C989.319052,150.915735 990.097062,150.368057 990.830711,150.621422 C992.216114,151.148626 993.659526,151.552986 995.141327,151.68436 C995.90654,151.747488 996.672607,151.828531 997.442085,151.814882 C998.618483,151.7509 999.801706,151.682654 1000.95592,151.428436 C1002.67403,151.049668 1004.33754,150.41327 1005.86199,149.532891 C1005.86114,147.750806 1005.87393,145.969573 1005.85517,144.188341 C1005.83128,141.25545 1006.49754,138.317441 1007.79251,135.683981 C1008.93991,133.338009 1010.58464,131.238578 1012.57573,129.549479 C1015.65877,126.92455 1019.59744,125.330995 1023.63678,125.060569 C1024.54787,124.9309 1025.46493,125.052891 1026.37346,125.139052 Z M997.785877,154.358768 C997.135829,154.41763 996.483223,154.345972 995.834028,154.30673 C994.538199,154.227393 993.244929,154.049953 991.994313,153.691659 C993.008626,157.976682 994.024645,162.261706 995.036398,166.54673 C995.353744,166.44436 995.656588,166.29763 995.98673,166.237915 C1000.87915,165.17327 1006.03431,165.319147 1010.85336,166.68237 C1012.11678,167.068815 1013.39981,167.416019 1014.59412,167.990995 C1015.9437,168.602654 1017.28815,169.23564 1018.53791,170.035829 C1019.3091,170.539147 1020.1255,170.978483 1020.84464,171.557725 C1022.15156,172.613839 1023.48152,173.662275 1024.60502,174.918863 C1025.24227,174.122085 1026.00749,173.438768 1026.75137,172.74436 C1028.96682,170.714882 1031.48341,169.015545 1034.19365,167.720569 C1040.40834,164.725403 1047.64076,163.937156 1054.36047,165.485498 C1055.29204,161.554502 1056.22019,157.622654 1057.15261,153.691659 C1056.04104,154.006445 1054.89706,154.191564 1053.74626,154.274313 C1052.89403,154.329763 1052.03839,154.432133 1051.18531,154.346825 C1050.0055,154.281991 1048.82483,154.184739 1047.66891,153.932227 C1045.87744,153.538104 1044.1363,152.905118 1042.51972,152.037536 C1041.66919,153.201991 1040.67024,154.254692 1039.59194,155.209289 C1036.48161,158.013365 1032.55318,159.881611 1028.42938,160.587962 C1026.64303,160.809763 1024.83621,161 1023.03706,160.817441 C1021.87175,160.771374 1020.72777,160.536777 1019.58123,160.343981 C1014.48919,159.188057 1009.82114,156.198009 1006.69716,152.006825 C1004.94664,152.935829 1003.06474,153.625972 1001.11716,154.003886 C1000.02009,154.223128 998.900853,154.291374 997.785877,154.358768 Z M1026.32142,176.856209 C1030.31555,181.789573 1032.68626,188.016209 1032.94047,194.362275 C1036.17877,194.365687 1039.41791,194.357156 1042.65621,194.36654 C1043.18427,194.398957 1043.70379,194.272701 1044.20711,194.126825 C1046.22294,193.510047 1047.93848,191.903697 1048.58256,189.883602 C1050.31346,182.582085 1052.03924,175.279716 1053.77014,167.979052 C1051.4455,167.44673 1049.05175,167.207867 1046.66825,167.278673 C1040.47062,167.440758 1034.34806,169.721043 1029.57422,173.679336 C1028.38758,174.628815 1027.34512,175.73782 1026.32142,176.856209 Z M999.236114,168.30237 C998.017062,168.443981 996.779242,168.591564 995.628436,169.037725 C997.274028,175.987773 998.917915,182.938673 1000.56607,189.88872 C1001.32872,192.273934 1003.58427,194.079905 1006.06502,194.362275 C1014.17014,194.36654 1022.27526,194.352038 1030.38038,194.35545 C1030.32749,193.440948 1030.25327,192.527299 1030.10995,191.623033 C1029.29697,186.048152 1026.68739,180.754787 1022.76834,176.708626 C1021.7182,175.558673 1020.50682,174.576777 1019.28351,173.621327 C1017.94758,172.63346 1016.49393,171.82218 1015.02493,171.051848 C1013.54995,170.287488 1011.99905,169.670711 1010.39867,169.223697 C1006.791,168.167583 1002.96749,167.843412 999.236114,168.30237 Z M1005.18701,154.890427 C1005.80294,154.650711 1006.60569,154.840095 1006.92559,155.452607 C1007.29412,156.070237 1007.00578,156.948057 1006.34891,157.234692 C1005.73043,157.511943 1004.88502,157.339621 1004.55147,156.712607 C1004.15905,156.072796 1004.48408,155.148057 1005.18701,154.890427 Z M1043.68863,154.873365 C1044.28237,154.660095 1044.99896,154.965498 1045.25488,155.543033 C1045.50398,156.107773 1045.39393,156.864455 1044.87697,157.245782 C1044.38218,157.644171 1043.59991,157.583602 1043.17166,157.115261 C1042.52673,156.455829 1042.77156,155.14891 1043.68863,154.873365 Z M1020.34133,163.008152 C1020.54777,162.933081 1020.77043,162.93564 1020.98711,162.933081 C1022.97735,162.939052 1024.96844,162.930521 1026.95782,162.937346 C1027.66673,162.93564 1028.2673,163.61981 1028.18796,164.321043 C1028.14787,164.974502 1027.53962,165.521327 1026.88531,165.490616 C1024.83109,165.48891 1022.77687,165.493175 1020.72265,165.48891 C1020.09308,165.48891 1019.53175,164.944645 1019.49507,164.319336 C1019.43706,163.75545 1019.80645,163.190711 1020.34133,163.008152 Z M1046.96085,169.069289 C1047.44796,168.936209 1047.96152,169.024076 1048.45972,169.018104 C1048.99204,169.047109 1049.58578,168.988246 1050.04389,169.315829 C1050.50711,169.638294 1050.70502,170.28237 1050.49943,170.809573 C1050.31517,171.32654 1049.77261,171.678009 1049.22664,171.654123 C1048.79924,171.640474 1048.37526,171.569668 1047.94701,171.573934 C1047.52986,171.552607 1047.07261,171.611469 1046.70578,171.368341 C1046.16919,171.050995 1045.94569,170.316493 1046.21355,169.75346 C1046.35431,169.435261 1046.63242,169.183602 1046.96085,169.069289 Z M1043.01962,169.369573 C1043.71062,169.221991 1044.44682,169.757725 1044.51336,170.461517 C1044.61147,171.083412 1044.1764,171.728341 1043.56218,171.864834 C1043.13735,171.954408 1042.70739,172.020948 1042.28597,172.12673 C1041.86199,172.223128 1041.41156,172.391185 1040.98417,172.216303 C1040.36569,172.001327 1040.00057,171.269384 1040.20445,170.645782 C1040.329,170.220948 1040.689,169.878009 1041.12066,169.77564 C1041.74768,169.61782 1042.38066,169.477915 1043.01962,169.369573 Z M1000.05251,170.027299 C1000.65905,169.990616 1001.36284,169.779905 1001.88322,170.209005 C1002.5,170.661991 1002.53839,171.666919 1001.95659,172.165118 C1001.53005,172.578009 1000.90047,172.488436 1000.36047,172.566919 C999.771848,172.601043 999.115829,172.853555 998.580095,172.492701 C997.903602,172.096019 997.783318,171.059526 998.34891,170.516967 C998.785687,170.048626 999.475829,170.128815 1000.05251,170.027299 Z M1005.40389,170.147583 C1005.67005,170.05545 1005.95668,170.090427 1006.22967,170.127962 C1006.95393,170.230332 1007.67479,170.360853 1008.38711,170.528057 C1008.93393,170.656019 1009.35109,171.185782 1009.34171,171.747109 C1009.36474,172.293081 1008.98512,172.816019 1008.4673,172.97981 C1008.15848,173.091564 1007.82578,173.029289 1007.51611,172.955924 C1006.87972,172.806635 1006.23308,172.71109 1005.58645,172.623223 C1005.00379,172.540474 1004.53289,172.000474 1004.52436,171.412701 C1004.49109,170.85564 1004.87327,170.313934 1005.40389,170.147583 Z M1037.30654,171.090237 C1037.88408,170.893175 1038.56995,171.190047 1038.83014,171.739431 C1039.12701,172.309289 1038.91118,173.086445 1038.34645,173.402938 C1037.93185,173.623886 1037.49166,173.79109 1037.07877,174.016303 C1036.68379,174.2091 1036.29479,174.502559 1035.83071,174.454787 C1035.18664,174.430047 1034.63043,173.844834 1034.63725,173.200758 C1034.62104,172.717915 1034.91024,172.246161 1035.34531,172.036303 C1035.98938,171.702749 1036.6309,171.356398 1037.30654,171.090237 Z M1011.97687,172.043981 C1012.31896,171.903223 1012.71223,171.938199 1013.04237,172.094313 C1013.7419,172.411659 1014.43118,172.753744 1015.09659,173.13763 C1015.6946,173.47545 1015.8891,174.325972 1015.51972,174.899242 C1015.1964,175.450332 1014.43033,175.674692 1013.86474,175.371848 C1013.21555,175.018673 1012.55867,174.678294 1011.88303,174.378009 C1011.36095,174.139147 1011.06834,173.516398 1011.19716,172.961043 C1011.28588,172.551564 1011.58531,172.194976 1011.97687,172.043981 Z M1032.19403,174.18436 C1032.74512,174.017156 1033.38408,174.278199 1033.65962,174.784076 C1033.97014,175.31128 1033.82853,176.047488 1033.33972,176.418578 C1032.70502,176.915071 1032.11043,177.46019 1031.52863,178.018104 C1031.08332,178.454028 1030.3181,178.483886 1029.84209,178.081232 C1029.4036,177.735735 1029.24578,177.0891 1029.47526,176.580664 C1029.59299,176.28891 1029.8472,176.090995 1030.0673,175.879431 C1030.57659,175.394028 1031.1055,174.929953 1031.65488,174.489763 C1031.81611,174.360095 1031.991,174.238104 1032.19403,174.18436 Z M1017.61232,175.458009 C1018.02607,175.331754 1018.49185,175.436682 1018.81773,175.719052 C1019.49507,176.288057 1020.15109,176.88436 1020.75081,177.534408 C1021.05962,177.844929 1021.19526,178.315829 1021.08436,178.741517 C1020.97261,179.228626 1020.54607,179.619336 1020.05384,179.69782 C1019.61109,179.781422 1019.14787,179.592038 1018.85611,179.256777 C1018.31611,178.660474 1017.70616,178.134123 1017.09791,177.609479 C1016.67564,177.230711 1016.57668,176.554218 1016.85905,176.06455 C1017.01687,175.773649 1017.29498,175.552701 1017.61232,175.458009 Z M1022.37934,180.900664 C1022.98673,180.70872 1023.66237,181.0491 1023.92256,181.617251 C1024.31583,182.276682 1024.71081,182.938673 1025.03583,183.63564 C1025.31137,184.247299 1024.99659,185.030427 1024.38066,185.290616 C1023.78009,185.576398 1022.99014,185.298294 1022.71118,184.692607 C1022.38104,184.015261 1021.98863,183.372891 1021.60815,182.723697 C1021.21829,182.045498 1021.62607,181.096019 1022.37934,180.900664 Z M1025.28578,187.913839 C1025.77801,187.750047 1026.35896,187.923223 1026.67801,188.333555 C1026.90237,188.599716 1026.95014,188.956303 1027.02436,189.284739 C1027.15403,189.920284 1027.28114,190.557536 1027.35109,191.202464 C1027.40142,191.769763 1027.01583,192.330237 1026.47498,192.499147 C1025.93583,192.688531 1025.29431,192.452227 1024.99573,191.968531 C1024.80806,191.689573 1024.80123,191.344929 1024.74664,191.025024 C1024.66218,190.45346 1024.53081,189.890427 1024.41649,189.324834 C1024.30645,188.722559 1024.70398,188.09128 1025.28578,187.913839 Z" id="clutch"></path>
        </g>
    </g>
</svg>