<?xml version="1.0" encoding="utf-8"?>
<!-- Generator: Adobe Illustrator 16.0.0, SVG Export Plug-In . SVG Version: 6.00 Build 0)  -->
<!DOCTYPE svg PUBLIC "-//W3C//DTD SVG 1.1//EN" "http://www.w3.org/Graphics/SVG/1.1/DTD/svg11.dtd">
<svg version="1.1" id="Layer_1" xmlns="http://www.w3.org/2000/svg" xmlns:xlink="http://www.w3.org/1999/xlink" x="0px" y="0px"
	 width="128px" height="128px" viewBox="0 0 128 128" enable-background="new 0 0 128 128" xml:space="preserve">
<g>
	<g>
		<path fill="#FFFFFF" d="M115,64c0,28.2-22.8,51-51,51c-28.2,0-51-22.8-51-51s22.8-51,51-51C92.1,13,115,35.8,115,64z"/>
		<path fill="#37474F" d="M64,116.5c-28.9,0-52.5-23.5-52.5-52.5c0-28.9,23.5-52.5,52.5-52.5c28.9,0,52.5,23.5,52.5,52.5
			C116.5,92.9,92.9,116.5,64,116.5z M64,14.5c-27.3,0-49.5,22.2-49.5,49.5c0,27.3,22.2,49.5,49.5,49.5c27.3,0,49.5-22.2,49.5-49.5
			C113.5,36.7,91.3,14.5,64,14.5z"/>
	</g>
	<g>
		<g>
			<g>
				<path fill="#FFAB00" d="M48.9,29.9c0,10.5-8.5,19-19,19c-10.5,0-19-8.5-19-19c0-10.5,8.5-19,19-19
					C40.4,10.9,48.9,19.4,48.9,29.9z"/>
				<path fill="#37474F" d="M29.9,50.4c-11.3,0-20.5-9.2-20.5-20.5c0-11.3,9.2-20.5,20.5-20.5c11.3,0,20.5,9.2,20.5,20.5
					C50.4,41.2,41.2,50.4,29.9,50.4z M29.9,12.4c-9.7,0-17.5,7.8-17.5,17.5c0,9.6,7.9,17.5,17.5,17.5c9.6,0,17.5-7.8,17.5-17.5
					C47.4,20.3,39.6,12.4,29.9,12.4z"/>
			</g>
			<g>
				<path fill="#B0BEC5" d="M117.1,29.9c0,10.5-8.5,19-19,19s-19-8.5-19-19c0-10.5,8.5-19,19-19S117.1,19.4,117.1,29.9z"/>
				<path fill="#37474F" d="M98.1,50.4c-11.3,0-20.5-9.2-20.5-20.5c0-11.3,9.2-20.5,20.5-20.5c11.3,0,20.5,9.2,20.5,20.5
					C118.6,41.2,109.4,50.4,98.1,50.4z M98.1,12.4c-9.7,0-17.5,7.8-17.5,17.5c0,9.6,7.9,17.5,17.5,17.5c9.6,0,17.5-7.8,17.5-17.5
					C115.6,20.3,107.7,12.4,98.1,12.4z"/>
			</g>
		</g>
		<g>
			<g>
				<path fill="#78909C" d="M48.9,98.1c0,10.5-8.5,19-19,19c-10.5,0-19-8.5-19-19s8.5-19,19-19C40.4,79.1,48.9,87.6,48.9,98.1z"/>
				<path fill="#37474F" d="M29.9,118.6c-11.3,0-20.5-9.2-20.5-20.5c0-11.3,9.2-20.5,20.5-20.5c11.3,0,20.5,9.2,20.5,20.5
					C50.4,109.4,41.2,118.6,29.9,118.6z M29.9,80.6c-9.7,0-17.5,7.9-17.5,17.5c0,9.6,7.9,17.5,17.5,17.5c9.6,0,17.5-7.8,17.5-17.5
					C47.4,88.4,39.6,80.6,29.9,80.6z"/>
			</g>
			<g>
				<path fill="#FFECB3" d="M117.1,98.1c0,10.5-8.5,19-19,19s-19-8.5-19-19s8.5-19,19-19S117.1,87.6,117.1,98.1z"/>
				<path fill="#37474F" d="M98.1,118.6c-11.3,0-20.5-9.2-20.5-20.5c0-11.3,9.2-20.5,20.5-20.5c11.3,0,20.5,9.2,20.5,20.5
					C118.6,109.4,109.4,118.6,98.1,118.6z M98.1,80.6c-9.7,0-17.5,7.9-17.5,17.5c0,9.6,7.9,17.5,17.5,17.5c9.6,0,17.5-7.8,17.5-17.5
					C115.6,88.4,107.7,80.6,98.1,80.6z"/>
			</g>
		</g>
	</g>
	<g>
		<g>
			<path fill="#37474F" stroke="#37474F" stroke-miterlimit="10" d="M64,78.4c1.3,0,2.4,1.1,2.4,2.4c0,1.3-1.1,2.4-2.4,2.4
				c-1.3,0-2.4-1.1-2.4-2.4C61.6,79.5,62.7,78.4,64,78.4z"/>
			<path fill="#37474F" stroke="#37474F" stroke-miterlimit="10" d="M64,61.6c1.3,0,2.4,1.1,2.4,2.4c0,1.3-1.1,2.4-2.4,2.4
				c-1.3,0-2.4-1.1-2.4-2.5C61.6,62.7,62.7,61.6,64,61.6z"/>
			<path fill="#37474F" stroke="#37474F" stroke-miterlimit="10" d="M64,44.8c1.3,0,2.4,1,2.4,2.4c0,1.3-1.1,2.4-2.4,2.4
				c-1.3,0-2.4-1.1-2.4-2.4C61.6,45.8,62.7,44.8,64,44.8z"/>
		</g>
		<g>
			<path fill="#37474F" stroke="#37474F" stroke-miterlimit="10" d="M78.4,64c0-1.4,1.1-2.4,2.4-2.4c1.4,0,2.5,1,2.4,2.4
				c0,1.3-1.1,2.4-2.4,2.4C79.5,66.4,78.4,65.3,78.4,64z"/>
			<path fill="#37474F" stroke="#37474F" stroke-miterlimit="10" d="M61.6,64c0-1.4,1.1-2.4,2.4-2.4c1.3,0,2.4,1,2.4,2.4
				c0,1.3-1.1,2.4-2.5,2.4C62.7,66.3,61.6,65.3,61.6,64z"/>
			<path fill="#37474F" stroke="#37474F" stroke-miterlimit="10" d="M44.8,64c0-1.3,1.1-2.4,2.4-2.4c1.3,0,2.4,1,2.4,2.4
				c0,1.3-1.1,2.4-2.4,2.4C45.9,66.4,44.8,65.3,44.8,64z"/>
		</g>
	</g>
</g>
</svg>
