<?xml version="1.0" encoding="utf-8"?>
<!-- Generator: Adobe Illustrator 19.0.0, SVG Export Plug-In . SVG Version: 6.00 Build 0)  -->
<svg version="1.1" xmlns="http://www.w3.org/2000/svg" xmlns:xlink="http://www.w3.org/1999/xlink" x="0px" y="0px"
	 viewBox="-35 37 128 128" style="enable-background:new -35 37 128 128;" xml:space="preserve">
<style type="text/css">
	.st0{fill:#F9F9F9;}
	.st1{fill:#FFAB00;}
	.st2{fill:#37474F;}
	.st3{fill:none;}
	.st4{fill:#FFECB3;}
</style>
<g id="Layer_1">
	<g id="Layer_3">
		<rect x="-35" y="37" class="st0" width="128" height="128"/>
	</g>
	<g id="Layer_1_1_">
		<g id="Layer_2">
			<g>
				<g>
					<g>
						<polygon class="st1" points="44.7,61.8 29,39.1 13.3,61.8 						"/>
					</g>
					<g>
						<path class="st2" d="M44.7,63.3H13.3c-0.6,0-1.1-0.3-1.3-0.8s-0.2-1.1,0.1-1.5l15.7-22.8c0.3-0.4,0.7-0.6,1.2-0.6l0,0
							c0.5,0,1,0.2,1.2,0.6l15.7,22.7c0.3,0.5,0.4,1.1,0.1,1.5C45.7,63,45.2,63.3,44.7,63.3z M16.2,60.3h25.6L29,41.8L16.2,60.3z"/>
					</g>
				</g>
				<g>
					<g>
						<g>
							<g>
								<path class="st2" d="M30.6,70.9c0,0.9-0.7,1.6-1.6,1.6s-1.6-0.7-1.6-1.6s0.7-1.6,1.6-1.6S30.6,70,30.6,70.9z"/>
							</g>
							<g>
								<path class="st2" d="M29,73c-1.2,0-2.1-0.9-2.1-2.1s0.9-2.1,2.1-2.1s2.1,1,2.1,2.1C31.1,72.1,30.2,73,29,73z M29,69.8
									c-0.6,0-1.1,0.5-1.1,1.1S28.4,72,29,72s1.1-0.5,1.1-1.1S29.6,69.8,29,69.8z"/>
							</g>
						</g>
					</g>
					<g>
						<g>
							<g>
								<path class="st2" d="M30.6,81.4c0,0.9-0.7,1.6-1.6,1.6s-1.6-0.7-1.6-1.6s0.7-1.6,1.6-1.6S30.6,80.5,30.6,81.4z"/>
							</g>
							<g>
								<path class="st2" d="M29,83.5c-1.2,0-2.1-0.9-2.1-2.1s0.9-2.1,2.1-2.1s2.1,1,2.1,2.1S30.2,83.5,29,83.5z M29,80.3
									c-0.6,0-1.1,0.5-1.1,1.1s0.5,1.1,1.1,1.1s1.1-0.5,1.1-1.1S29.6,80.3,29,80.3z"/>
							</g>
						</g>
					</g>
				</g>
			</g>
		</g>
	</g>
	<g id="Layer_2_1_">
		<g>
			<g>
				<g>
					<g>
						<path class="st0" d="M-2,95.2c0,2.1-1.7,4-4,4c-2.1,0-4-1.7-4-4c0-2.1,1.7-4,4-4C-3.7,91.3-2,93.1-2,95.2z"/>
					</g>
					<g>
						<path class="st2" d="M-5.9,100.2c-2.7,0-5-2.2-5-5s2.2-5,5-5s5,2.2,5,5C-0.9,98-3.2,100.2-5.9,100.2z M-5.9,92.4
							c-1.6,0-2.9,1.3-2.9,2.9s1.3,2.9,2.9,2.9S-3,96.9-3,95.3C-3,93.7-4.3,92.4-5.9,92.4z"/>
					</g>
				</g>
				<g>
					<g>
						<line class="st3" x1="4.7" y1="95.3" x2="40.7" y2="95.3"/>
					</g>
					<g>
						<path class="st2" d="M40.7,96.4h-36c-0.6,0-1-0.5-1-1s0.5-1,1-1h36c0.6,0,1,0.5,1,1S41.3,96.4,40.7,96.4z"/>
					</g>
				</g>
				<g>
					<g>
						<g>
							<path class="st2" d="M50.7,95.2c0,0.7-0.6,1.2-1.2,1.2c-0.7,0-1.3-0.6-1.3-1.2c0-0.7,0.6-1.2,1.3-1.2S50.7,94.5,50.7,95.2z"
								/>
						</g>
						<g>
							<path class="st2" d="M49.5,96.9c-0.9,0-1.7-0.7-1.7-1.6s0.8-1.6,1.7-1.6c0.8,0,1.6,0.8,1.6,1.6S50.4,96.9,49.5,96.9z
								 M49.5,94.3c-0.6,0-1,0.4-1,0.9s0.4,0.9,1,0.9c0.5,0,0.9-0.4,0.9-0.9C50.4,94.7,50,94.3,49.5,94.3z"/>
						</g>
					</g>
					<g>
						<g>
							<path class="st2" d="M59.7,95.2c0,0.7-0.6,1.2-1.3,1.2s-1.2-0.6-1.2-1.2c0-0.7,0.6-1.2,1.2-1.2C59.1,94,59.7,94.5,59.7,95.2z
								"/>
						</g>
						<g>
							<path class="st2" d="M58.4,96.9c-0.9,0-1.6-0.7-1.6-1.6s0.7-1.6,1.6-1.6c0.9,0,1.7,0.8,1.7,1.6S59.3,96.9,58.4,96.9z
								 M58.4,94.3c-0.5,0-0.9,0.4-0.9,0.9s0.4,0.9,0.9,0.9s1-0.4,1-0.9C59.3,94.7,58.9,94.3,58.4,94.3z"/>
						</g>
					</g>
					<g>
						<g>
							<path class="st2" d="M68.6,95.2c0,0.7-0.6,1.2-1.2,1.2c-0.7,0-1.3-0.6-1.3-1.2c0-0.7,0.6-1.2,1.3-1.2
								C67.9,94,68.6,94.5,68.6,95.2z"/>
						</g>
						<g>
							<path class="st2" d="M67.3,96.9c-0.9,0-1.7-0.7-1.7-1.6s0.8-1.6,1.7-1.6c0.8,0,1.6,0.8,1.6,1.6S68.1,96.9,67.3,96.9z
								 M67.3,94.3c-0.6,0-1,0.4-1,0.9s0.4,0.9,1,0.9c0.5,0,0.9-0.4,0.9-0.9C68.2,94.7,67.8,94.3,67.3,94.3z"/>
						</g>
					</g>
				</g>
			</g>
			<g>
				<g>
					<g>
						<path class="st1" d="M-2,110.6c0,2.1-1.7,4-4,4c-2.1,0-4-1.7-4-4c0-2.1,1.7-4,4-4S-2,108.4-2,110.6z"/>
					</g>
					<g>
						<path class="st2" d="M-5.9,115.6c-2.7,0-5-2.2-5-5c0-2.7,2.2-5,5-5s5,2.2,5,5C-1,113.3-3.2,115.6-5.9,115.6z M-5.9,107.7
							c-1.6,0-2.9,1.3-2.9,2.9s1.3,2.9,2.9,2.9s2.9-1.3,2.9-2.9S-4.3,107.7-5.9,107.7z"/>
					</g>
				</g>
				<g>
					<g>
						<line class="st3" x1="4.7" y1="110.6" x2="40.7" y2="110.6"/>
					</g>
					<g>
						<path class="st2" d="M40.7,111.6h-36c-0.6,0-1-0.5-1-1c0-0.6,0.5-1,1-1h36c0.6,0,1,0.5,1,1S41.3,111.6,40.7,111.6z"/>
					</g>
				</g>
				<g>
					<g>
						<g>
							<path class="st2" d="M50.7,110.6c0,0.7-0.6,1.2-1.2,1.2c-0.7,0-1.3-0.6-1.3-1.2c0-0.7,0.6-1.2,1.3-1.2
								C50.2,109.3,50.7,109.9,50.7,110.6z"/>
						</g>
						<g>
							<path class="st2" d="M49.5,112.2c-0.9,0-1.7-0.8-1.7-1.6c0-0.9,0.8-1.6,1.7-1.6c0.8,0,1.6,0.8,1.6,1.6
								C51.1,111.5,50.4,112.2,49.5,112.2z M49.5,109.7c-0.6,0-1,0.4-1,0.9s0.4,0.9,1,0.9c0.5,0,0.9-0.4,0.9-0.9
								S50,109.7,49.5,109.7z"/>
						</g>
					</g>
					<g>
						<g>
							<path class="st2" d="M59.7,110.6c0,0.7-0.6,1.2-1.3,1.2s-1.2-0.6-1.2-1.2c0-0.7,0.6-1.2,1.2-1.2
								C59.1,109.3,59.7,109.9,59.7,110.6z"/>
						</g>
						<g>
							<path class="st2" d="M58.4,112.2c-0.9,0-1.6-0.8-1.6-1.6c0-0.9,0.7-1.6,1.6-1.6c0.9,0,1.7,0.8,1.7,1.6
								C60,111.5,59.3,112.2,58.4,112.2z M58.4,109.7c-0.5,0-0.9,0.4-0.9,0.9s0.4,0.9,0.9,0.9s1-0.4,1-0.9
								C59.3,110.1,58.9,109.7,58.4,109.7z"/>
						</g>
					</g>
					<g>
						<g>
							<path class="st2" d="M68.6,110.6c0,0.7-0.6,1.2-1.2,1.2c-0.7,0-1.3-0.6-1.3-1.2c0-0.7,0.6-1.2,1.3-1.2
								C67.9,109.3,68.6,109.9,68.6,110.6z"/>
						</g>
						<g>
							<path class="st2" d="M67.3,112.2c-0.9,0-1.7-0.8-1.7-1.6c0-0.9,0.8-1.6,1.7-1.6c0.8,0,1.6,0.8,1.6,1.6
								C68.9,111.5,68.1,112.2,67.3,112.2z M67.3,109.7c-0.6,0-1,0.4-1,0.9s0.4,0.9,1,0.9c0.5,0,0.9-0.4,0.9-0.9
								C68.2,110.1,67.8,109.7,67.3,109.7z"/>
						</g>
					</g>
				</g>
			</g>
			<g>
				<g>
					<g>
						<path class="st0" d="M-2,126c0,2.1-1.7,4-4,4c-2.1,0-4-1.7-4-4c0-2.1,1.7-4,4-4S-2,123.8-2,126z"/>
					</g>
					<g>
						<path class="st2" d="M-5.9,130.9c-2.7,0-5-2.2-5-5c0-2.7,2.2-5,5-5s5,2.2,5,5C-1,128.7-3.2,130.9-5.9,130.9z M-5.9,123.1
							c-1.6,0-2.9,1.3-2.9,2.9s1.3,2.9,2.9,2.9S-3,127.6-3,126S-4.3,123.1-5.9,123.1z"/>
					</g>
				</g>
				<g>
					<g>
						<line class="st3" x1="4.7" y1="125.8" x2="40.7" y2="125.8"/>
					</g>
					<g>
						<path class="st2" d="M40.7,126.9h-36c-0.6,0-1-0.5-1-1s0.5-1,1-1h36c0.6,0,1,0.5,1,1S41.3,126.9,40.7,126.9z"/>
					</g>
				</g>
				<g>
					<g>
						<g>
							<path class="st2" d="M50.7,126c0,0.7-0.6,1.2-1.2,1.2c-0.7,0-1.3-0.6-1.3-1.2s0.6-1.2,1.3-1.2
								C50.2,124.7,50.7,125.3,50.7,126z"/>
						</g>
						<g>
							<path class="st2" d="M49.5,127.6c-0.9,0-1.7-0.7-1.7-1.6s0.8-1.6,1.7-1.6c0.8,0,1.6,0.8,1.6,1.6
								C51.1,126.8,50.4,127.6,49.5,127.6z M49.5,125c-0.6,0-1,0.4-1,0.9s0.4,0.9,1,0.9c0.5,0,0.9-0.4,0.9-0.9S50,125,49.5,125z"/>
						</g>
					</g>
					<g>
						<g>
							<path class="st2" d="M59.7,126c0,0.7-0.6,1.2-1.3,1.2s-1.2-0.6-1.2-1.2s0.6-1.2,1.2-1.2C59.1,124.7,59.7,125.3,59.7,126z"/>
						</g>
						<g>
							<path class="st2" d="M58.4,127.6c-0.9,0-1.6-0.8-1.6-1.6c0-0.9,0.7-1.6,1.6-1.6c0.9,0,1.7,0.7,1.7,1.6
								C60,126.8,59.3,127.6,58.4,127.6z M58.4,125c-0.5,0-0.9,0.4-0.9,0.9s0.4,0.9,0.9,0.9s1-0.4,1-0.9
								C59.3,125.4,58.9,125,58.4,125z"/>
						</g>
					</g>
					<g>
						<g>
							<path class="st2" d="M68.6,126c0,0.7-0.6,1.2-1.2,1.2c-0.7,0-1.3-0.6-1.3-1.2s0.6-1.2,1.3-1.2
								C67.9,124.7,68.6,125.3,68.6,126z"/>
						</g>
						<g>
							<path class="st2" d="M67.3,127.6c-0.9,0-1.7-0.7-1.7-1.6s0.8-1.6,1.7-1.6c0.8,0,1.6,0.8,1.6,1.6
								C68.9,126.8,68.1,127.6,67.3,127.6z M67.3,125c-0.6,0-1,0.4-1,0.9s0.4,0.9,1,0.9c0.5,0,0.9-0.4,0.9-0.9
								C68.2,125.4,67.8,125,67.3,125z"/>
						</g>
					</g>
				</g>
			</g>
			<g>
				<g>
					<g>
						<path class="st1" d="M-2,141.3c0,2.1-1.7,4-4,4c-2.1,0-4-1.7-4-4c0-2.1,1.7-4,4-4C-3.7,137.4-2,139.1-2,141.3z"/>
					</g>
					<g>
						<path class="st2" d="M-5.9,146.3c-2.7,0-5-2.2-5-5c0-2.7,2.2-5,5-5s5,2.2,5,5C-1,144.1-3.2,146.3-5.9,146.3z M-5.9,138.4
							c-1.6,0-2.9,1.3-2.9,2.9c0,1.6,1.3,2.9,2.9,2.9S-3,143-3,141.4C-3,139.7-4.3,138.4-5.9,138.4z"/>
					</g>
				</g>
				<g>
					<g>
						<line class="st3" x1="4.7" y1="141.1" x2="40.7" y2="141.1"/>
					</g>
					<g>
						<path class="st2" d="M40.7,142.1h-36c-0.6,0-1-0.5-1-1s0.5-1,1-1h36c0.6,0,1,0.5,1,1S41.3,142.1,40.7,142.1z"/>
					</g>
				</g>
				<g>
					<g>
						<g>
							<path class="st2" d="M50.7,141.3c0,0.7-0.6,1.2-1.2,1.2c-0.7,0-1.3-0.6-1.3-1.2s0.6-1.2,1.3-1.2
								C50.2,140,50.7,140.6,50.7,141.3z"/>
						</g>
						<g>
							<path class="st2" d="M49.5,143c-0.9,0-1.7-0.7-1.7-1.6c0-0.9,0.8-1.6,1.7-1.6c0.8,0,1.6,0.8,1.6,1.6S50.4,143,49.5,143z
								 M49.5,140.4c-0.6,0-1,0.4-1,0.9s0.4,0.9,1,0.9c0.5,0,0.9-0.4,0.9-0.9C50.4,140.8,50,140.4,49.5,140.4z"/>
						</g>
					</g>
					<g>
						<g>
							<path class="st2" d="M59.7,141.3c0,0.7-0.6,1.2-1.3,1.2s-1.2-0.6-1.2-1.2s0.6-1.2,1.2-1.2C59.1,140,59.7,140.6,59.7,141.3z"
								/>
						</g>
						<g>
							<path class="st2" d="M58.4,143c-0.9,0-1.6-0.7-1.6-1.6c0-0.9,0.7-1.6,1.6-1.6c0.9,0,1.7,0.8,1.7,1.6S59.3,143,58.4,143z
								 M58.4,140.4c-0.5,0-0.9,0.4-0.9,0.9s0.4,0.9,0.9,0.9s1-0.4,1-0.9C59.3,140.8,58.9,140.4,58.4,140.4z"/>
						</g>
					</g>
					<g>
						<g>
							<path class="st2" d="M68.6,141.3c0,0.7-0.6,1.2-1.2,1.2c-0.7,0-1.3-0.6-1.3-1.2s0.6-1.2,1.3-1.2
								C67.9,140,68.6,140.6,68.6,141.3z"/>
						</g>
						<g>
							<path class="st2" d="M67.3,143c-0.9,0-1.7-0.7-1.7-1.6c0-0.9,0.8-1.6,1.7-1.6c0.8,0,1.6,0.8,1.6,1.6S68.1,143,67.3,143z
								 M67.3,140.4c-0.6,0-1,0.4-1,0.9s0.4,0.9,1,0.9c0.5,0,0.9-0.4,0.9-0.9C68.2,140.8,67.8,140.4,67.3,140.4z"/>
						</g>
					</g>
				</g>
			</g>
			<g>
				<g>
					<g>
						<path class="st0" d="M-2,156.7c0,2.1-1.7,4-4,4c-2.1,0-4-1.7-4-4c0-2.1,1.7-4,4-4S-2,154.5-2,156.7z"/>
					</g>
					<g>
						<path class="st2" d="M-5.9,161.7c-2.7,0-5-2.2-5-5c0-2.7,2.2-5,5-5s5,2.2,5,5C-1,159.4-3.2,161.7-5.9,161.7z M-5.9,153.8
							c-1.6,0-2.9,1.3-2.9,2.9c0,1.6,1.3,2.9,2.9,2.9s2.9-1.3,2.9-2.9S-4.3,153.8-5.9,153.8z"/>
					</g>
				</g>
				<g>
					<g>
						<line class="st3" x1="4.7" y1="156.3" x2="40.7" y2="156.3"/>
					</g>
					<g>
						<path class="st2" d="M40.7,157.4h-36c-0.6,0-1-0.5-1-1c0-0.6,0.5-1,1-1h36c0.6,0,1,0.5,1,1S41.3,157.4,40.7,157.4z"/>
					</g>
				</g>
				<g>
					<g>
						<g>
							<path class="st2" d="M50.7,156.7c0,0.7-0.6,1.2-1.2,1.2c-0.7,0-1.3-0.6-1.3-1.2s0.6-1.2,1.3-1.2
								C50.2,155.4,50.7,156,50.7,156.7z"/>
						</g>
						<g>
							<path class="st2" d="M49.5,158.3c-0.9,0-1.7-0.7-1.7-1.6s0.8-1.6,1.7-1.6c0.8,0,1.6,0.8,1.6,1.6
								C51.1,157.6,50.4,158.3,49.5,158.3z M49.5,155.8c-0.6,0-1,0.4-1,0.9s0.4,0.9,1,0.9c0.5,0,0.9-0.4,0.9-0.9
								S50,155.8,49.5,155.8z"/>
						</g>
					</g>
					<g>
						<g>
							<path class="st2" d="M59.7,156.7c0,0.7-0.6,1.2-1.3,1.2s-1.2-0.6-1.2-1.2s0.6-1.2,1.2-1.2C59.1,155.4,59.7,156,59.7,156.7z"
								/>
						</g>
						<g>
							<path class="st2" d="M58.4,158.3c-0.9,0-1.6-0.7-1.6-1.6s0.7-1.6,1.6-1.6c0.9,0,1.7,0.8,1.7,1.6
								C60,157.6,59.3,158.3,58.4,158.3z M58.4,155.8c-0.5,0-0.9,0.4-0.9,0.9s0.4,0.9,0.9,0.9s1-0.4,1-0.9
								C59.3,156.2,58.9,155.8,58.4,155.8z"/>
						</g>
					</g>
					<g>
						<g>
							<path class="st2" d="M68.6,156.7c0,0.7-0.6,1.2-1.2,1.2c-0.7,0-1.3-0.6-1.3-1.2s0.6-1.2,1.3-1.2
								C67.9,155.4,68.6,156,68.6,156.7z"/>
						</g>
						<g>
							<path class="st2" d="M67.3,158.3c-0.9,0-1.7-0.7-1.7-1.6s0.8-1.6,1.7-1.6c0.8,0,1.6,0.8,1.6,1.6
								C68.9,157.6,68.1,158.3,67.3,158.3z M67.3,155.8c-0.6,0-1,0.4-1,0.9s0.4,0.9,1,0.9c0.5,0,0.9-0.4,0.9-0.9
								C68.2,156.2,67.8,155.8,67.3,155.8z"/>
						</g>
					</g>
				</g>
			</g>
		</g>
	</g>
</g>
<g id="Layer_2_2_">
	<g id="Layer_2_3_">
		<g>
			<polygon class="st4" points="66.5,110.7 55.2,116.6 57.4,104.2 48.3,95.3 60.9,93.5 66.5,82 72.1,93.5 84.7,95.3 75.5,104.2 
				77.7,116.6 			"/>
			<path class="st2" d="M77.7,118c-0.2,0-0.4-0.1-0.6-0.1l-10.6-5.5l-10.6,5.5c-0.5,0.3-1,0.2-1.4-0.1s-0.6-0.8-0.5-1.4l2.1-11.8
				l-8.6-8.3c-0.3-0.3-0.5-0.9-0.3-1.4c0.1-0.5,0.6-0.9,1.1-1l11.8-1.7l5.3-10.8c0.2-0.5,0.7-0.8,1.2-0.8s1,0.3,1.2,0.8l5.3,10.8
				L85,94c0.5,0.1,1,0.4,1.1,1c0.1,0.5,0,1-0.3,1.4l-8.6,8.3l2,11.6c0.1,0.1,0.1,0.3,0.1,0.4C79.1,117.4,78.5,118,77.7,118L77.7,118
				z M66.5,109.4c0.2,0,0.4,0.1,0.6,0.1l8.8,4.6l-1.6-9.8c-0.1-0.4,0.1-0.9,0.4-1.2l7.1-6.9L72,94.8c-0.5-0.1-0.8-0.3-1-0.8
				l-4.4-8.9L62.2,94c-0.2,0.4-0.6,0.7-1,0.8l-9.8,1.4l7.1,6.9c0.3,0.3,0.5,0.8,0.4,1.2l-1.6,9.8l8.8-4.6
				C66,109.4,66.2,109.4,66.5,109.4z"/>
		</g>
	</g>
</g>
</svg>
