<?xml version="1.0" encoding="utf-8"?>
<!-- Generator: Adobe Illustrator 19.0.0, SVG Export Plug-In . SVG Version: 6.00 Build 0)  -->
<svg version="1.1" xmlns="http://www.w3.org/2000/svg" xmlns:xlink="http://www.w3.org/1999/xlink" x="0px" y="0px"
	 viewBox="-35 37 128 128" style="enable-background:new -35 37 128 128;" xml:space="preserve">
<style type="text/css">
	.st0{fill:#FFFFFF;}
	.st1{fill:#37474F;}
	.st2{fill:#FFAB00;}
</style>
<g id="Layer_1">
	<g id="Layer_3">
		<g id="Layer_1_5_">
			<g id="Layer_1_4_">
				<g>
					<g>
						<g>
							<polygon class="st0" points="57.6,45.1 -13.4,45.1 -13.4,156.9 71.5,156.9 71.5,59.4 							"/>
							<path class="st1" d="M73.3,158.6h-88.6V43.4h73.6l14.9,15.2L73.3,158.6L73.3,158.6z M-11.6,155.1h81.3v-95L56.9,47h-68.5
								C-11.6,47-11.6,155.1-11.6,155.1z"/>
						</g>
						<g>
							<polyline class="st2" points="70.9,61 54.5,61 54.5,45.7 							"/>
							<path class="st1" d="M70.9,62.7H54.5c-1,0-1.8-0.9-1.8-1.8V45.7c0-1,0.9-1.8,1.8-1.8c0.9,0,1.8,0.9,1.8,1.8V59h14.6
								c1,0,1.8,0.9,1.8,1.8C72.7,61.9,71.8,62.7,70.9,62.7z"/>
						</g>
						<g>
							<g>
								<g>
									<g>
										<path class="st1" d="M58.7,133.2H-0.7c-1,0-1.8-0.9-1.8-1.8s0.9-1.8,1.8-1.8h59.4c1,0,1.8,0.9,1.8,1.8
											S59.7,133.2,58.7,133.2z"/>
									</g>
								</g>
								<g>
									<g>
										<path class="st1" d="M58.7,141.6H-0.7c-1,0-1.8-0.9-1.8-1.8c0-1,0.9-1.8,1.8-1.8h59.4c1,0,1.8,0.9,1.8,1.8
											C60.6,140.9,59.7,141.6,58.7,141.6z"/>
									</g>
								</g>
							</g>
							<g>
								<g>
									<g>
										<path class="st1" d="M58.7,79.7H-0.7c-1,0-1.8-0.9-1.8-1.8c0-1,0.9-1.8,1.8-1.8h59.4c1,0,1.8,0.9,1.8,1.8
											C60.6,78.9,59.7,79.7,58.7,79.7z"/>
									</g>
								</g>
								<g>
									<g>
										<path class="st1" d="M58.7,88.3H-0.7c-1,0-1.8-0.9-1.8-1.8c0-0.9,0.9-1.8,1.8-1.8h59.4c1,0,1.8,0.9,1.8,1.8
											C60.5,87.4,59.7,88.3,58.7,88.3z"/>
									</g>
								</g>
							</g>
						</g>
					</g>
					<g>
						<g>
							<path class="st1" d="M5.9,61.5c0,1-0.7,1.7-1.7,1.7s-1.7-0.7-1.7-1.7s0.7-1.7,1.7-1.7C5.1,59.9,5.9,60.6,5.9,61.5z"/>
							<path class="st1" d="M4.3,63.8C3,63.8,2,62.7,2,61.5c0-1.3,1.1-2.3,2.3-2.3c1.3,0,2.3,1.1,2.3,2.3
								C6.5,62.9,5.4,63.8,4.3,63.8z M4.3,60.5c-0.6,0-1.1,0.5-1.1,1.1s0.5,1.1,1.1,1.1s1.1-0.5,1.1-1.1S4.9,60.5,4.3,60.5z"/>
						</g>
						<g>
							<path class="st1" d="M18.1,61.5c0,1-0.7,1.7-1.7,1.7s-1.7-0.7-1.7-1.7s0.7-1.7,1.7-1.7C17.3,59.9,18.1,60.6,18.1,61.5z"/>
							<path class="st1" d="M16.3,63.8c-1.3,0-2.3-1.1-2.3-2.3c0-1.3,1.1-2.3,2.3-2.3c1.3,0,2.3,1.1,2.3,2.3
								C18.7,62.9,17.6,63.8,16.3,63.8z M16.3,60.5c-0.6,0-1.1,0.5-1.1,1.1s0.5,1.1,1.1,1.1s1.1-0.5,1.1-1.1
								C17.5,61,16.9,60.5,16.3,60.5z"/>
						</g>
						<g>
							<path class="st1" d="M30.1,61.5c0,1-0.7,1.7-1.7,1.7s-1.7-0.7-1.7-1.7s0.7-1.7,1.7-1.7C29.4,59.9,30.1,60.6,30.1,61.5z"/>
							<path class="st1" d="M28.4,63.8c-1.3,0-2.3-1.1-2.3-2.3c0-1.3,1.1-2.3,2.3-2.3s2.3,1.1,2.3,2.3
								C30.7,62.9,29.8,63.8,28.4,63.8z M28.4,60.5c-0.6,0-1.1,0.5-1.1,1.1s0.5,1.1,1.1,1.1s1.1-0.5,1.1-1.1S29,60.5,28.4,60.5z"/>
						</g>
					</g>
				</g>
			</g>
		</g>
	</g>
</g>
<g id="Layer_2">
	<g id="Layer_2_2_">
		<g>
			<path class="st2" d="M38.2,99.8c-4.8-4.8-12.6-4.8-17.4,0c-4.8,4.8-4.8,12.7-0.1,17.5c4.8,4.8,12.6,4.8,17.5-0.1
				C43,112.4,42.9,104.6,38.2,99.8z M33,113.6l-3.6-3.6l-3.6,3.6l-1.5-1.5l3.6-3.6l-3.6-3.6l1.5-1.5l3.6,3.6l3.6-3.6l1.5,1.5
				l-3.6,3.6l3.6,3.6L33,113.6z"/>
			<path class="st1" d="M29.5,95c-7.4,0-13.5,6.1-13.5,13.5c0,7.4,6.1,13.5,13.5,13.5S43,116,43,108.5S36.9,95,29.5,95z M29.5,120.9
				c-6.8,0-12.3-5.5-12.3-12.3s5.5-12.4,12.3-12.4s12.3,5.5,12.3,12.3S36.2,120.9,29.5,120.9z"/>
			<polygon class="st0" points="34.6,104.9 33.1,103.4 29.5,107 25.9,103.5 24.4,104.9 28,108.5 24.4,112.1 25.9,113.6 29.5,110 
				33.1,113.6 34.5,112.1 31,108.5 			"/>
		</g>
	</g>
</g>
</svg>
